<svg xmlns="http://www.w3.org/2000/svg" width="980" height="1080" viewBox="0 0 980 1080">
  <g id="그룹_3545" data-name="그룹 3545" transform="translate(-50 -652)">
    <g id="background" transform="translate(50 652)" fill="#f2ece4" stroke="#e3d9d1" stroke-width="4">
      <rect width="980" height="1080" rx="45" stroke="none"/>
      <rect x="2" y="2" width="976" height="1076" rx="43" fill="none"/>
    </g>
    <g id="pattern_top" transform="translate(50 672.201)">
      <rect id="사각형_2960" data-name="사각형 2960" width="980" height="80" transform="translate(0 -0.201)" fill="rgba(255,255,255,0)"/>
      <g id="그룹_3096" data-name="그룹 3096" transform="translate(21 65.809) rotate(-90)">
        <path id="패스_7188" data-name="패스 7188" d="M45.721,0V42.631H12.94V12.94H34V27.785a1.9,1.9,0,1,1-3.808,0V16.747H16.752V38.819H41.91V3.812H3.812V93.89h38.1V58.878H16.752V80.946H30.2V69.912a1.9,1.9,0,1,1,3.808,0V84.758H12.94V55.067H45.721V97.7H0V0Z" transform="translate(3.55 1.537)" fill="#e3d9d1"/>
        <path id="패스_7189" data-name="패스 7189" d="M48.8,100.772H0V0H48.8V45.705H12.94V12.94H37.077V29.322a3.441,3.441,0,1,1-6.882,0v-9.5H19.826V38.819H41.91V6.886H6.886v87H41.91V61.953H19.826V80.946H30.2v-9.5a3.441,3.441,0,1,1,6.882,0V87.832H12.94V55.067H48.8ZM3.074,97.7H45.721V58.141H16.014V84.758H34V71.449c0-.406-.734-.406-.734,0V84.02H16.752V58.878H44.984V96.964H3.812V3.812H44.984V41.893H16.752V16.752H33.27V29.322c0,.414.734.414.734,0V16.014H16.014V42.631H45.721V3.074H3.074Z" transform="translate(2.013)" fill="#e3d9d1"/>
        <path id="패스_7190" data-name="패스 7190" d="M45.721,0V42.631H12.94V12.94H34V27.785a1.9,1.9,0,1,1-3.808,0V16.752H16.752V38.819H41.91V3.812H3.812V93.89h38.1V58.878H16.752V80.946H30.2V69.912a1.9,1.9,0,1,1,3.808,0V84.758H12.94V55.067H45.721V97.7H0V0Z" transform="translate(3.55 122.507)" fill="#e3d9d1"/>
        <path id="패스_7191" data-name="패스 7191" d="M48.8,100.772H0V0H48.8V45.7H12.94V12.94H37.077V29.322a3.441,3.441,0,1,1-6.882,0v-9.5H19.826v19H41.91V6.882H6.886V93.89H41.91V61.953H19.826V80.946H30.2V71.453a3.441,3.441,0,1,1,6.882,0V87.832H12.94V55.067H48.8ZM3.074,97.7H45.721V58.141H16.014V84.758H34v-13.3c0-.414-.734-.414-.734,0V84.02H16.752V58.878H44.984V96.964H3.812V3.808H44.984V41.9H16.752V16.747H33.27V29.322c0,.41.734.41.734,0V16.014H16.014V42.627H45.721V3.074H3.074Z" transform="translate(2.013 120.97)" fill="#e3d9d1"/>
        <path id="패스_7192" data-name="패스 7192" d="M45.721,0V42.631H12.94V12.94H34V27.785a1.9,1.9,0,1,1-3.808,0V16.747H16.752V38.819H41.91V3.812H3.812V93.89h38.1V58.878H16.752V80.946H30.2V69.912a1.9,1.9,0,1,1,3.808,0V84.758H12.94V55.067H45.721V97.7H0V0Z" transform="translate(3.55 243.162)" fill="#e3d9d1"/>
        <path id="패스_7193" data-name="패스 7193" d="M48.8,100.772H0V0H48.8V45.7H12.94V12.936H37.077V29.318a3.441,3.441,0,1,1-6.882,0v-9.5H19.826v19H41.91V6.878H6.886V93.886H41.91V61.948H19.826v19H30.2v-9.5a3.441,3.441,0,1,1,6.882,0V87.828H12.94V55.067H48.8ZM3.074,97.7H45.721V58.141H16.014V84.754H34v-13.3c0-.41-.734-.41-.734,0V84.02H16.752V58.874H44.984V96.96H3.812V3.8H44.984v38.09H16.752V16.747H33.27V29.318c0,.406.734.406.734,0V16.01H16.014V42.627H45.721V3.074H3.074Z" transform="translate(2.013 241.629)" fill="#e3d9d1"/>
        <path id="패스_7194" data-name="패스 7194" d="M45.721,0V42.631H12.94V12.94H34V27.785a1.9,1.9,0,1,1-3.808,0V16.752H16.752V38.819H41.91V3.812H3.812V93.89h38.1V58.878H16.752V80.946H30.2V69.912a1.9,1.9,0,1,1,3.808,0V84.758H12.94V55.067H45.721V97.7H0V0Z" transform="translate(3.55 360.8)" fill="#e3d9d1"/>
        <path id="패스_7195" data-name="패스 7195" d="M48.8,100.772H0V0H48.8V45.7H12.94V12.94H37.077V29.322a3.441,3.441,0,1,1-6.882,0v-9.5H19.826v19H41.91V6.886H6.886v87H41.91V61.952H19.826V80.946H30.2v-9.5a3.441,3.441,0,1,1,6.882,0V87.832H12.94V55.067H48.8ZM3.074,97.7H45.721V58.141H16.014V84.758H34V71.449c0-.406-.734-.406-.734,0V84.02H16.752V58.878H44.984V96.96H3.812V3.812H44.984V41.893H16.752V16.747H33.27V29.322c0,.406.734.406.734,0V16.014H16.014V42.627H45.721V3.074H3.074Z" transform="translate(2.013 359.263)" fill="#e3d9d1"/>
        <path id="패스_7196" data-name="패스 7196" d="M45.721,0V42.631H12.94V12.94H34V27.785a1.9,1.9,0,1,1-3.808,0V16.747H16.752V38.819H41.91V3.812H3.812V93.89h38.1V58.878H16.752V80.946H30.2V69.912a1.9,1.9,0,1,1,3.808,0V84.758H12.94V55.067H45.721V97.7H0V0Z" transform="translate(3.55 480.184)" fill="#e3d9d1"/>
        <path id="패스_7197" data-name="패스 7197" d="M48.8,100.772H0V0H48.8V45.7H12.94V12.936H37.077V29.322a3.441,3.441,0,0,1-6.882,0v-9.5H19.826v19H41.91V6.882H6.886v87H41.91V61.948H19.826v19H30.2v-9.5a3.441,3.441,0,1,1,6.882,0V87.828H12.94V55.067H48.8ZM3.074,97.7H45.721V58.141H16.014V84.754H34v-13.3c0-.406-.734-.41-.734,0V84.02H16.752V58.874H44.984V96.96H3.812V3.808H44.984V41.893H16.752V16.747H33.27V29.322c0,.406.734.406.734,0V16.01H16.014V42.627H45.721V3.074H3.074Z" transform="translate(2.013 478.647)" fill="#e3d9d1"/>
        <path id="패스_7198" data-name="패스 7198" d="M45.721,0V42.631H12.94V12.94H34V27.785a1.9,1.9,0,1,1-3.808,0V16.747H16.752V38.819H41.91V3.812H3.812V93.886h38.1V58.878H16.752V80.946H30.2V69.912a1.9,1.9,0,1,1,3.808,0V84.758H12.94V55.067H45.721V97.7H0V0Z" transform="translate(3.55 600.048)" fill="#e3d9d1"/>
        <path id="패스_7199" data-name="패스 7199" d="M48.8,100.776H0V0H48.8V45.705H12.94V12.94H37.077V29.322a3.441,3.441,0,1,1-6.882,0v-9.5H19.826v19H41.91V6.886H6.886v87H41.91V61.952H19.826v19H30.2v-9.5a3.441,3.441,0,1,1,6.882,0V87.836H12.94V55.071H48.8ZM3.074,97.7H45.721V58.145H16.014V84.762H34V71.453c0-.406-.734-.41-.734,0V84.024H16.752V58.878H44.984V96.964H3.812V3.812H44.984V41.9H16.752V16.752H33.27V29.322c0,.414.734.414.734,0V16.014H16.014V42.631H45.721V3.074H3.074Z" transform="translate(2.013 598.507)" fill="#e3d9d1"/>
        <path id="패스_7200" data-name="패스 7200" d="M45.721,0V42.631H12.94V12.94H34V27.785a1.9,1.9,0,1,1-3.808,0V16.748H16.752V38.819H41.91V3.812H3.808V93.89h38.1V58.878H16.752V80.946H30.2V69.912a1.9,1.9,0,1,1,3.808,0V84.758H12.94V55.067H45.721V97.7H0V0Z" transform="translate(1.537 717.149)" fill="#e3d9d1"/>
        <path id="패스_7201" data-name="패스 7201" d="M48.8,100.776H0V0H48.8V45.705H12.944V12.94H37.077V29.322a3.441,3.441,0,1,1-6.882,0v-9.5H19.826v19H41.914V6.886H6.886v87H41.914V61.952H19.826v19H30.2v-9.5a3.441,3.441,0,1,1,6.882,0V87.836H12.944V55.071H48.8ZM3.074,97.7H45.721V58.145h-29.7V84.762H34V71.453c0-.414-.73-.414-.734,0V84.024H16.752V58.878H44.988V96.964H3.812V3.812H44.988V41.9H16.752V16.751H33.27V29.322c0,.418.738.414.734,0V16.014H16.018V42.631h29.7V3.074H3.074Z" transform="translate(0 715.612)" fill="#e3d9d1"/>
        <path id="패스_7202" data-name="패스 7202" d="M45.721,0V42.631H12.94V12.94H34V27.79a1.9,1.9,0,1,1-3.808,0V16.756H16.752V38.819H41.91V3.812H3.808V93.89h38.1V58.879H16.752V80.946H30.2V69.912a1.9,1.9,0,1,1,3.808,0V84.758H12.94V55.067H45.721V97.7H0V0Z" transform="translate(1.537 838.119)" fill="#e3d9d1"/>
        <path id="패스_7203" data-name="패스 7203" d="M48.8,100.772H0V0H48.8V45.709H12.944V12.94H37.077V29.322a3.441,3.441,0,1,1-6.882,0v-9.5H19.826v19H41.914V6.886H6.886v87H41.914V61.953H19.826V80.946H30.2V71.453a3.441,3.441,0,1,1,6.882,0V87.832H12.944V55.071H48.8ZM3.074,97.7H45.721V58.145h-29.7V84.758H34v-13.3c0-.414-.73-.414-.734,0V84.02H16.752V58.879H44.988V96.964H3.812V3.812H44.988V41.9H16.752V16.752H33.27V29.322c0,.414.738.418.734,0V16.014H16.018V42.635h29.7V3.074H3.074Z" transform="translate(0 836.582)" fill="#e3d9d1"/>
      </g>
    </g>
    <g id="pattern_bottom" transform="translate(1030 1712) rotate(180)">
      <rect id="사각형_2960-2" data-name="사각형 2960" width="980" height="80" fill="rgba(255,255,255,0)"/>
      <g id="그룹_3096-2" data-name="그룹 3096" transform="translate(21 65.809) rotate(-90)">
        <path id="패스_7188-2" data-name="패스 7188" d="M45.721,0V42.631H12.94V12.94H34V27.785a1.9,1.9,0,1,1-3.808,0V16.747H16.752V38.819H41.91V3.812H3.812V93.89h38.1V58.878H16.752V80.946H30.2V69.912a1.9,1.9,0,1,1,3.808,0V84.758H12.94V55.067H45.721V97.7H0V0Z" transform="translate(3.55 1.537)" fill="#e3d9d1"/>
        <path id="패스_7189-2" data-name="패스 7189" d="M48.8,100.772H0V0H48.8V45.705H12.94V12.94H37.077V29.322a3.441,3.441,0,1,1-6.882,0v-9.5H19.826V38.819H41.91V6.886H6.886v87H41.91V61.953H19.826V80.946H30.2v-9.5a3.441,3.441,0,1,1,6.882,0V87.832H12.94V55.067H48.8ZM3.074,97.7H45.721V58.141H16.014V84.758H34V71.449c0-.406-.734-.406-.734,0V84.02H16.752V58.878H44.984V96.964H3.812V3.812H44.984V41.893H16.752V16.752H33.27V29.322c0,.414.734.414.734,0V16.014H16.014V42.631H45.721V3.074H3.074Z" transform="translate(2.013)" fill="#e3d9d1"/>
        <path id="패스_7190-2" data-name="패스 7190" d="M45.721,0V42.631H12.94V12.94H34V27.785a1.9,1.9,0,1,1-3.808,0V16.752H16.752V38.819H41.91V3.812H3.812V93.89h38.1V58.878H16.752V80.946H30.2V69.912a1.9,1.9,0,1,1,3.808,0V84.758H12.94V55.067H45.721V97.7H0V0Z" transform="translate(3.55 122.507)" fill="#e3d9d1"/>
        <path id="패스_7191-2" data-name="패스 7191" d="M48.8,100.772H0V0H48.8V45.7H12.94V12.94H37.077V29.322a3.441,3.441,0,1,1-6.882,0v-9.5H19.826v19H41.91V6.882H6.886V93.89H41.91V61.953H19.826V80.946H30.2V71.453a3.441,3.441,0,1,1,6.882,0V87.832H12.94V55.067H48.8ZM3.074,97.7H45.721V58.141H16.014V84.758H34v-13.3c0-.414-.734-.414-.734,0V84.02H16.752V58.878H44.984V96.964H3.812V3.808H44.984V41.9H16.752V16.747H33.27V29.322c0,.41.734.41.734,0V16.014H16.014V42.627H45.721V3.074H3.074Z" transform="translate(2.013 120.97)" fill="#e3d9d1"/>
        <path id="패스_7192-2" data-name="패스 7192" d="M45.721,0V42.631H12.94V12.94H34V27.785a1.9,1.9,0,1,1-3.808,0V16.747H16.752V38.819H41.91V3.812H3.812V93.89h38.1V58.878H16.752V80.946H30.2V69.912a1.9,1.9,0,1,1,3.808,0V84.758H12.94V55.067H45.721V97.7H0V0Z" transform="translate(3.55 243.162)" fill="#e3d9d1"/>
        <path id="패스_7193-2" data-name="패스 7193" d="M48.8,100.772H0V0H48.8V45.7H12.94V12.936H37.077V29.318a3.441,3.441,0,1,1-6.882,0v-9.5H19.826v19H41.91V6.878H6.886V93.886H41.91V61.948H19.826v19H30.2v-9.5a3.441,3.441,0,1,1,6.882,0V87.828H12.94V55.067H48.8ZM3.074,97.7H45.721V58.141H16.014V84.754H34v-13.3c0-.41-.734-.41-.734,0V84.02H16.752V58.874H44.984V96.96H3.812V3.8H44.984v38.09H16.752V16.747H33.27V29.318c0,.406.734.406.734,0V16.01H16.014V42.627H45.721V3.074H3.074Z" transform="translate(2.013 241.629)" fill="#e3d9d1"/>
        <path id="패스_7194-2" data-name="패스 7194" d="M45.721,0V42.631H12.94V12.94H34V27.785a1.9,1.9,0,1,1-3.808,0V16.752H16.752V38.819H41.91V3.812H3.812V93.89h38.1V58.878H16.752V80.946H30.2V69.912a1.9,1.9,0,1,1,3.808,0V84.758H12.94V55.067H45.721V97.7H0V0Z" transform="translate(3.55 360.8)" fill="#e3d9d1"/>
        <path id="패스_7195-2" data-name="패스 7195" d="M48.8,100.772H0V0H48.8V45.7H12.94V12.94H37.077V29.322a3.441,3.441,0,1,1-6.882,0v-9.5H19.826v19H41.91V6.886H6.886v87H41.91V61.952H19.826V80.946H30.2v-9.5a3.441,3.441,0,1,1,6.882,0V87.832H12.94V55.067H48.8ZM3.074,97.7H45.721V58.141H16.014V84.758H34V71.449c0-.406-.734-.406-.734,0V84.02H16.752V58.878H44.984V96.96H3.812V3.812H44.984V41.893H16.752V16.747H33.27V29.322c0,.406.734.406.734,0V16.014H16.014V42.627H45.721V3.074H3.074Z" transform="translate(2.013 359.263)" fill="#e3d9d1"/>
        <path id="패스_7196-2" data-name="패스 7196" d="M45.721,0V42.631H12.94V12.94H34V27.785a1.9,1.9,0,1,1-3.808,0V16.747H16.752V38.819H41.91V3.812H3.812V93.89h38.1V58.878H16.752V80.946H30.2V69.912a1.9,1.9,0,1,1,3.808,0V84.758H12.94V55.067H45.721V97.7H0V0Z" transform="translate(3.55 480.184)" fill="#e3d9d1"/>
        <path id="패스_7197-2" data-name="패스 7197" d="M48.8,100.772H0V0H48.8V45.7H12.94V12.936H37.077V29.322a3.441,3.441,0,0,1-6.882,0v-9.5H19.826v19H41.91V6.882H6.886v87H41.91V61.948H19.826v19H30.2v-9.5a3.441,3.441,0,1,1,6.882,0V87.828H12.94V55.067H48.8ZM3.074,97.7H45.721V58.141H16.014V84.754H34v-13.3c0-.406-.734-.41-.734,0V84.02H16.752V58.874H44.984V96.96H3.812V3.808H44.984V41.893H16.752V16.747H33.27V29.322c0,.406.734.406.734,0V16.01H16.014V42.627H45.721V3.074H3.074Z" transform="translate(2.013 478.647)" fill="#e3d9d1"/>
        <path id="패스_7198-2" data-name="패스 7198" d="M45.721,0V42.631H12.94V12.94H34V27.785a1.9,1.9,0,1,1-3.808,0V16.747H16.752V38.819H41.91V3.812H3.812V93.886h38.1V58.878H16.752V80.946H30.2V69.912a1.9,1.9,0,1,1,3.808,0V84.758H12.94V55.067H45.721V97.7H0V0Z" transform="translate(3.55 600.048)" fill="#e3d9d1"/>
        <path id="패스_7199-2" data-name="패스 7199" d="M48.8,100.776H0V0H48.8V45.705H12.94V12.94H37.077V29.322a3.441,3.441,0,1,1-6.882,0v-9.5H19.826v19H41.91V6.886H6.886v87H41.91V61.952H19.826v19H30.2v-9.5a3.441,3.441,0,1,1,6.882,0V87.836H12.94V55.071H48.8ZM3.074,97.7H45.721V58.145H16.014V84.762H34V71.453c0-.406-.734-.41-.734,0V84.024H16.752V58.878H44.984V96.964H3.812V3.812H44.984V41.9H16.752V16.752H33.27V29.322c0,.414.734.414.734,0V16.014H16.014V42.631H45.721V3.074H3.074Z" transform="translate(2.013 598.507)" fill="#e3d9d1"/>
        <path id="패스_7200-2" data-name="패스 7200" d="M45.721,0V42.631H12.94V12.94H34V27.785a1.9,1.9,0,1,1-3.808,0V16.748H16.752V38.819H41.91V3.812H3.808V93.89h38.1V58.878H16.752V80.946H30.2V69.912a1.9,1.9,0,1,1,3.808,0V84.758H12.94V55.067H45.721V97.7H0V0Z" transform="translate(1.537 717.149)" fill="#e3d9d1"/>
        <path id="패스_7201-2" data-name="패스 7201" d="M48.8,100.776H0V0H48.8V45.705H12.944V12.94H37.077V29.322a3.441,3.441,0,1,1-6.882,0v-9.5H19.826v19H41.914V6.886H6.886v87H41.914V61.952H19.826v19H30.2v-9.5a3.441,3.441,0,1,1,6.882,0V87.836H12.944V55.071H48.8ZM3.074,97.7H45.721V58.145h-29.7V84.762H34V71.453c0-.414-.73-.414-.734,0V84.024H16.752V58.878H44.988V96.964H3.812V3.812H44.988V41.9H16.752V16.751H33.27V29.322c0,.418.738.414.734,0V16.014H16.018V42.631h29.7V3.074H3.074Z" transform="translate(0 715.612)" fill="#e3d9d1"/>
        <path id="패스_7202-2" data-name="패스 7202" d="M45.721,0V42.631H12.94V12.94H34V27.79a1.9,1.9,0,1,1-3.808,0V16.756H16.752V38.819H41.91V3.812H3.808V93.89h38.1V58.879H16.752V80.946H30.2V69.912a1.9,1.9,0,1,1,3.808,0V84.758H12.94V55.067H45.721V97.7H0V0Z" transform="translate(1.537 838.119)" fill="#e3d9d1"/>
        <path id="패스_7203-2" data-name="패스 7203" d="M48.8,100.772H0V0H48.8V45.709H12.944V12.94H37.077V29.322a3.441,3.441,0,1,1-6.882,0v-9.5H19.826v19H41.914V6.886H6.886v87H41.914V61.953H19.826V80.946H30.2V71.453a3.441,3.441,0,1,1,6.882,0V87.832H12.944V55.071H48.8ZM3.074,97.7H45.721V58.145h-29.7V84.758H34v-13.3c0-.414-.73-.414-.734,0V84.02H16.752V58.879H44.988V96.964H3.812V3.812H44.988V41.9H16.752V16.752H33.27V29.322c0,.414.738.418.734,0V16.014H16.018V42.635h29.7V3.074H3.074Z" transform="translate(0 836.582)" fill="#e3d9d1"/>
      </g>
    </g>
  </g>
</svg>
