<svg id="그룹_3083" data-name="그룹 3083" xmlns="http://www.w3.org/2000/svg" xmlns:xlink="http://www.w3.org/1999/xlink" width="980" height="980.806" viewBox="0 0 980 980.806">
  <defs>
    <clipPath id="clip-path">
      <rect id="사각형_2949" data-name="사각형 2949" width="980" height="980.806" fill="none"/>
    </clipPath>
    <clipPath id="clip-path-3">
      <rect id="사각형_2947" data-name="사각형 2947" width="975.542" height="975.541" fill="none"/>
    </clipPath>
  </defs>
  <g id="그룹_3082" data-name="그룹 3082" clip-path="url(#clip-path)">
    <g id="그룹_3081" data-name="그룹 3081">
      <g id="그룹_3080" data-name="그룹 3080" clip-path="url(#clip-path)">
        <g id="그룹_3079" data-name="그룹 3079" transform="translate(4.458 5.266)" opacity="0.5">
          <g id="그룹_3078" data-name="그룹 3078">
            <g id="그룹_3077" data-name="그룹 3077" clip-path="url(#clip-path-3)">
              <path id="패스_7148" data-name="패스 7148" d="M925.076,979.909H57.862A54.163,54.163,0,0,1,3.7,925.745V58.53A54.163,54.163,0,0,1,57.862,4.368H925.076A54.164,54.164,0,0,1,979.24,58.53V925.745a54.164,54.164,0,0,1-54.164,54.164" transform="translate(-3.698 -4.368)" fill="#626262"/>
            </g>
          </g>
        </g>
        <path id="패스_7149" data-name="패스 7149" d="M921.378,975.542H54.164A54.163,54.163,0,0,1,0,921.378V54.163A54.163,54.163,0,0,1,54.164,0H921.378a54.164,54.164,0,0,1,54.164,54.162V921.378a54.164,54.164,0,0,1-54.164,54.164" transform="translate(0 0)" fill="#fff"/>
      </g>
    </g>
  </g>
</svg>
