<svg version="1.0" xmlns="http://www.w3.org/2000/svg"
 width="71" height="82" viewBox="0 0 73.000000 90.000000"
 preserveAspectRatio="xMidYMid meet">
  <g
     transform="translate(0.000000,90.000000) scale(0.100000,-0.100000)"
     fill="#000000"
     stroke="none"
     id="g1">
    <path
       d="M 81,883 C 21,852 5,819 5,730 5,629 14,617 158,526 220,487 270,452 270,448 270,444 218,409 154,369 17,283 -3,255 3,151 9,53 55,6 144,6 c 48,0 63,8 291,152 151,95 248,163 262,183 19,27 23,45 23,110 0,68 -3,81 -25,107 C 681,574 562,656 430,740 170,904 143,916 81,883 Z M 301,802 C 622,600 672,566 688,542 715,500 709,434 674,400 658,384 542,306 415,226 167,68 150,62 80,98 c -19,9 -40,28 -47,42 -19,38 -16,94 7,123 11,14 86,67 165,118 80,50 145,95 145,98 -1,3 -68,48 -151,100 C 43,677 20,700 20,760 c 0,69 51,119 121,120 28,0 63,-17 160,-78 z"
       id="path1"
       style="display:inline" />
  </g>
  <path
     style="fill:#ffffff;stroke-width:0.101611"
     d="M 12.975081,74.433915 C 11.521271,74.040553 9.3222782,72.998678 8.0889451,72.118882 7.1545185,71.452311 6.1092592,70.435329 5.6468268,69.742831 4.1417475,67.488957 3.7498835,63.322134 4.7629004,60.343741 5.2647701,58.868183 5.7670397,58.123689 6.9078393,57.164383 9.3775737,55.087567 15.925497,50.558154 22.73133,46.218755 27.845038,42.958256 32.919975,39.525509 33.887237,38.672772 L 34.242875,38.35924 33.938042,38.100808 C 33.001364,37.306708 27.031827,33.371476 20.881041,29.493385 9.5828413,22.369834 6.4264925,19.889491 4.9607584,16.982805 4.4411252,15.952324 4.2166544,14.948868 4.1507552,13.361834 3.8888197,7.0537018 8.1780538,2.3013889 14.480626,1.9167192 c 1.848307,-0.1128092 3.194879,0.2759422 6.165105,1.7798486 2.95938,1.4984151 6.616392,3.7426498 21.929238,13.4575312 15.21573,9.653268 20.03328,12.93805 21.737844,14.821655 2.263256,2.500978 2.750456,7.350661 1.093632,10.886229 -0.750358,1.601226 -1.556023,2.550737 -3.228437,3.804856 -3.592278,2.693797 -12.0036,8.25183 -23.999806,15.858589 -13.221346,8.383617 -17.320826,10.688755 -20.912537,11.759118 -1.260884,0.375755 -3.203899,0.443397 -4.290584,0.149369 z"
     id="path2"
     transform="matrix(1.097561,0,0,1.097561,-2.4634146,0)" />
</svg>
