<?xml version="1.0" encoding="UTF-8"?>
<svg id="_레이어_2" width="1200" height="2053" data-name="레이어_2" xmlns="http://www.w3.org/2000/svg" xmlns:xlink="http://www.w3.org/1999/xlink" viewBox="0 0 1065.63 1822.31">
  <defs>
    <style>
      .cls-1 {
        fill: #a7f26d;
      }

      .cls-2 {
        fill: #91d852;
      }

      .cls-3 {
        fill: #b4d569;
      }

      .cls-4, .cls-5 {
        fill: #8bce67;
      }

      .cls-6 {
        fill: #dfbf68;
      }

      .cls-6, .cls-7, .cls-5 {
        stroke-linecap: round;
        stroke-linejoin: round;
      }

      .cls-6, .cls-8 {
        stroke: #000;
        stroke-width: 1.02px;
      }

      .cls-9 {
        fill: #88644a;
      }

      .cls-10 {
        fill: #47a04d;
      }

      .cls-11 {
        fill: #494848;
      }

      .cls-12 {
        fill: #fff;
      }

      .cls-13 {
        fill: #6cae44;
      }

      .cls-14 {
        fill: #c49c4e;
      }

      .cls-15, .cls-7 {
        fill: none;
      }

      .cls-16 {
        fill: #3a9943;
      }

      .cls-17 {
        fill: #7ec24f;
      }

      .cls-7, .cls-5 {
        stroke: #070707;
        stroke-width: 1.68px;
      }

      .cls-18 {
        fill: #74c27f;
      }

      .cls-19 {
        fill: #9dd67f;
      }

      .cls-20 {
        fill: #509156;
      }

      .cls-21 {
        fill: #4fa319;
      }

      .cls-22 {
        fill: #dae8aa;
      }

      .cls-23 {
        fill: #73cfef;
      }

      .cls-24 {
        fill: #c39d7e;
      }

      .cls-25 {
        fill: #333;
      }

      .cls-8 {
        fill: #d9c5b8;
        stroke-miterlimit: 10;
      }

      .cls-26 {
        fill: #f16c71;
      }

      .cls-27 {
        fill: #a9e9ff;
      }

      .cls-28 {
        fill: #85cef2;
      }

      .cls-29 {
        fill: #b9def5;
      }

      .cls-30 {
        fill: #c2f9f7;
      }

      .cls-31 {
        fill: #41b554;
      }

      .cls-32 {
        clip-path: url(#clippath);
      }

      .cls-33 {
        fill: #53ae5c;
      }

      .cls-34 {
        fill: #d7c77c;
      }
    </style>
    <clipPath id="clippath">
      <rect class="cls-15" x="18.51" y="299.47" width="981.76" height="1520.86"/>
    </clipPath>
  </defs>
  <g id="bg">
    <g>
      <path class="cls-29" d="M43.2,0h931.75c13.98,0,25.32,11.35,25.32,25.32v276.12H17.88V25.32C17.88,11.35,29.22,0,43.2,0Z"/>
      <g class="cls-32">
        <g>
          <rect class="cls-29" x="8.11" y="299.26" width="1014.44" height="329.75"/>
          <rect class="cls-18" x="16.13" y="563.95" width="984.14" height="1256.38"/>
          <g>
            <path class="cls-33" d="M8.31,563.34c2.33-39.97,21.29-87.45,40.41-87.45,20.56,0,22,25.49,30.85,25.49,16.81,0,17.23-58.06,48.19-58.06,28.5,0,33.1,59.48,46.28,59.48,8.96,0,17.53-21.07,30.95-21.07,19.4,0,49.24,69.56,55.44,81.61H8.31Z"/>
            <path class="cls-34" d="M238.68,558.13l-20.65-39.82c-1.74-3.31-3.34-6.7-5.54-9.62-4.08-5.75-12.14-9.47-18.83-6.46-5.04,2.25-7.55,8-11.8,11.52-4.58,3.99-11.72,3.93-16.76.86-15.9-11.13-20.65-31.27-29.68-47.37-2.35-4.18-8.09-11.97-12.66-6.23-6.94,9.9-10.79,21.3-15.78,32.33-2.35,5.12-4.89,10.81-9.43,14.63-7.81,6.32-19.26,6.87-28.34,3.26-3.64-1.56-7.02-3.98-9.44-7.25-1.18-1.6-2.11-3.2-3.19-4.52-3.18-4.17-8.88-4.83-11.75.1-1.67,2.61-3.6,6.97-5.12,9.78-3.37,6.66-6.58,13.38-9.29,20.31-2.77,6.9-4.92,14.06-6.2,21.42l-.33-.04c.78-7.47,2.68-14.79,5.11-21.9,2.48-7.1,5.49-13.99,8.63-20.79,3.32-6.65,6.32-17.95,16.18-14.47,3.92,1.33,6.25,5.23,8.45,8.24,4.32,5.51,11.64,8.07,18.53,7.91,13.06-.15,18.38-6.79,23.24-18.04,4.91-10.52,9.05-21.81,15.75-31.51,6.17-9.24,14.26-1.43,17.88,5.53,8.77,15.93,13.16,35.84,28.44,46.97,4.45,2.74,10.6,2.91,14.7-.56,4.28-3.56,6.9-9.25,12.28-11.55,5.53-2.42,11.93-.67,16.45,2.94,4.5,3.61,6.92,9.08,9.42,14.05,0,0,20.05,40.12,20.05,40.12l-.3.15h0Z"/>
            <path class="cls-34" d="M208.22,558.14c-2.01-4.93-4.35-9.72-6.98-14.34-3.6-5.9-8.07-15.48-16.31-14.06-2.3.91-4.01,3.47-6.37,4.56-5,2.65-10.79,3-16.21,2.1-5.46-.96-10.57-3.63-14.71-7.3-8.32-7.11-12.31-17.72-18.55-26.25-1.4-1.8-2.98-4.1-4.97-5.09-4.39-1.96-6.88,5.24-8.96,8.29-1.22,2.32-2.95,4.93-4.78,6.88-7.29,8.2-15.92,16.99-27.45,18.13-7.37.08-14.27-2.86-19.84-7.48-2.91-2.46-5.36-6.11-8.49-7.78-1.75-.96-4.28-1.49-5.32.5,0,0-.42.9-.42.9-.4.93-1.34,2.8-1.76,3.72-5.38,9.86-9.02,20.61-10.88,31.72l-.44-.05c.23-5.36,1.1-10.69,2.34-15.95,1.55-6.54,4.18-12.81,6.84-18.99,0,0,.73-1.8.73-1.8,1.42-4.87,6.74-5.62,10.69-3.55,5.17,2.63,7.66,7.45,12.5,10.07,13.28,7.96,22.42,3.19,33.09-6.49,1.64-1.55,3.91-3.96,5.49-5.63,3.81-3.85,5.56-8.73,9.05-13,5.59-6.69,11.47-2.12,15.2,3.71,8.77,12.99,13.81,29.68,31.07,33.25,4.99.99,10.42.78,14.97-1.49,2.53-1.15,3.96-3.51,6.72-4.47,2.93-.82,5.78.41,8.13,2.01,4.48,3.31,6.74,8.43,9.43,13.1,2.52,4.72,4.74,9.61,6.62,14.61l-.41.16h0Z"/>
            <path class="cls-34" d="M195.83,552.58c-1.45-2.92-3.25-5.9-5.81-7.96-2.95-2-6.35.08-8.99,1.7-5.8,3.55-12.83,4.72-19.55,4.02-19.2-1.67-22.78-20.54-33.15-19.69-6.89.48-10.85,6.75-16.68,9.83-9.87,5.77-19.52,6.02-29.55.64-5.56-2.56-13.26-4.66-17.66.85,0,0-6.43,7.68-6.43,7.68l-.18-.14c1.92-2.75,3.85-5.46,5.83-8.19,2-2.92,5.7-4.46,9.2-4.34,6.89-.17,12.75,4.47,19.23,5.48,6.37,1.1,12.9-.8,18.48-3.89,5.84-3.03,10.47-9.48,17.65-9.69,11.76-.73,14.55,18.48,33.39,20.36,6.49.83,13.36-.15,19.08-3.49,3.68-2.37,8.38-4.09,11.38.32,1.59,1.96,2.93,4.12,3.95,6.43l-.2.09h0Z"/>
          </g>
          <g>
            <g>
              <path class="cls-3" d="M750.05,566.66c2.55-45.84,23.27-100.29,44.18-100.29,22.48,0,24.06,29.23,33.73,29.23,18.38,0,18.84-66.59,52.68-66.59,31.16,0,36.19,68.21,50.6,68.21,9.8,0,19.17-24.16,33.84-24.16,21.21,0,53.84,79.77,60.62,93.59h-275.66Z"/>
              <path class="cls-13" d="M1001.92,560.68l-22.37-45.23c-1.89-3.76-3.61-7.61-5.95-11-4.25-6.66-13.18-11.4-20.75-7.94-5.64,2.58-8.3,9.16-12.98,13.22-5.04,4.69-13.23,4.54-18.76.8-17.31-13.22-22.29-35.79-32.12-54.12-2.52-4.67-8.81-13.85-13.85-7.03-10.04,14.92-13.73,32.8-22.87,48.32-7.29,11.96-24.01,14.38-36.11,8.96-4.05-1.9-7.74-4.84-10.25-8.62-2.24-3.32-3.96-6.9-7.78-8.2-6.28-2.16-9.04,5.23-11.25,9.84-4.55,9.36-9.18,18.97-12.76,28.72-2.99,7.82-5.27,15.91-6.67,24.2l-.37-.05c.83-8.4,2.83-16.67,5.43-24.71,3.26-9.97,7.56-19.78,11.82-29.35,2.53-6.21,6.57-14.38,14.82-11.7,4.54,1.33,7.27,5.73,9.62,9.27,4.55,6.47,12.6,9.67,20.41,9.5,14.65-.06,20.41-8.38,25.54-20.88,5.31-11.94,9.77-24.7,17.03-35.78,6.81-10.89,15.8-1.83,19.75,6.17,9.54,18.14,14.13,40.48,30.78,53.67,4.85,3.32,11.84,3.58,16.34-.47,4.72-4.12,7.5-10.64,13.55-13.29,6.25-2.78,13.49-.52,18.34,3.81,4.81,4.33,7.33,10.52,10.06,16.17,0,0,21.7,45.56,21.7,45.56l-.33.16h0Z"/>
              <path class="cls-13" d="M968.61,560.68c-3.25-8.33-7.28-16.34-11.99-23.92-3.05-5.46-10.95-12.82-16.53-6.42-10.64,10.07-28.42,6.27-38.06-3.31-9-8.29-13.23-20.2-20.03-29.89-2.01-2.51-4.5-7.18-8.19-5.9-.87.36-1.74,1.21-2.51,2.27-3.38,4.73-5.55,10.86-9.6,15.29-9.32,11.41-24.04,25.74-40.1,19.05-5.96-1.99-11.6-5.98-15.5-10.78-2.6-3.03-8.11-8.61-11.12-4.56-1.01,2.35-2.64,5.88-3.79,8.09-5.21,10.64-8.73,22.05-10.63,33.78l-.49-.05c.48-13.57,4.28-26.89,9.68-39.3,0,0,1.64-4.2,1.64-4.2,1.62-4.04,7.1-4.75,10.49-3.01,3.28,1.46,5.61,3.92,7.66,6.09,5.44,6.13,13.4,10.5,21.55,10.53,10.81-.91,20.19-10.62,27.25-18.54,4.15-4.39,6.06-9.89,9.78-14.76,1.01-1.31,2.3-2.69,4.21-3.48,5.71-2.27,9.91,3.35,12.61,7.44,3.45,5.1,6.06,10.55,8.9,15.73,2.81,5.18,6.01,10.11,10.14,14.15,7.9,8.09,21.09,11.82,31.42,6.53,2.78-1.37,4.32-4.16,7.49-5.13,6.6-1.3,11.86,4.64,14.78,9.76,4.54,7.76,8.37,15.94,11.4,24.4l-.46.17h0Z"/>
              <path class="cls-13" d="M955.06,554.31c-1.53-3.27-3.5-6.6-6.18-9-3.15-2.46-6.98-.14-9.84,1.72-6.3,4.12-14.11,5.52-21.55,4.69-7.55-.69-14.57-4.64-19.7-10.14-2.63-2.67-4.99-5.52-7.54-8.15-2.38-2.62-5.26-4.65-8.88-4.31-7.54.48-11.87,7.67-18.18,11.19-10.84,6.71-21.54,7-32.59.77-4.77-2.24-10.24-4.07-15.29-2.1-1.58.66-2.87,1.88-4.01,3.29l-6.92,8.66-.2-.15c2.04-3.1,4.12-6.13,6.23-9.21,2.09-3.3,6.1-5.27,10-5.15,7.66-.26,14.06,5.1,21.21,6.29,7.02,1.28,14.23-.95,20.3-4.52,6.42-3.51,11.25-10.82,19.34-11.06,12.84-.68,15.87,21.2,36.38,23.35,7.16.96,14.78-.22,21-4.09,6.21-4.09,10.12-3.86,14.04,2.89,1,1.57,1.88,3.22,2.59,4.93l-.23.1h0Z"/>
            </g>
            <g>
              <path class="cls-17" d="M783.49,566.66c-2.55-34-23.27-74.38-44.18-74.38-22.48,0-24.06,21.68-33.73,21.68-18.38,0-18.84-49.39-52.68-49.39-31.16,0-36.19,50.59-50.6,50.59-9.8,0-19.17-17.92-33.84-17.92-21.21,0-53.84,59.16-60.62,69.42h275.66Z"/>
              <path class="cls-22" d="M531.31,562.07l23.18-36c1.91-3,3.97-6.06,6.8-8.41,5.62-4.66,13.75-6.57,20.72-4.01,3.54,1.31,6.28,3.99,8.83,6.4,7.7,8.4,19.93,6.23,27.35-1.34,8.03-7.09,13.1-16.45,18.35-25.75,3.79-6.22,7.09-13.32,14.09-16.67,3.68-1.97,8.59-.39,11,2.94,7.15,8.1,11.89,18.15,17.37,27.22,1.85,3.03,3.67,5.98,6.06,8.27,9.06,8.58,28.02,8.29,37.89,1.24,2.87-2.08,4.69-5.45,7.99-7.29,3.45-1.99,7.95-2.51,11.53-.46,3.47,1.97,5.04,5.56,7.03,8.71,7.31,12.18,14.83,24.97,16.93,39.27,0,0-.32.06-.32.06-3.02-14.03-10.81-26.24-18.52-38.12-2.03-2.94-3.65-6.25-6.37-7.67-2.68-1.47-6.19-1.02-8.89.62-2.96,1.77-4.66,5.14-7.58,7.27-9.18,6.77-21.48,7.32-32.17,4.43-7.4-1.88-12.88-8.31-16.3-14.71-5.44-9.29-9.75-18.94-16.71-27.09-4.76-6.5-11.9-.79-15.36,4.22-8.13,11.65-13.64,25.53-24.74,34.98-6.45,6.4-17.32,9.7-25.49,4.52-4.49-2.85-7.57-7.83-12.52-9.7-6.39-2.48-14.2-.75-19.48,3.53-2.72,2.19-4.75,5.11-6.71,8.08l-23.72,35.65-.27-.18h0Z"/>
              <path class="cls-22" d="M564.5,562.06c2.29-4.71,5-9.22,8.03-13.51,4.17-6.28,11.03-14.25,19.48-11.44,2.49,1.17,4.24,2.88,6.84,3.64,4.75,1.65,10.01,1.76,15.02,1.09,10.22-1.22,19.05-7.36,25.11-15.55,4.84-5.73,11.92-19.8,20.66-18.8,5.29.78,7.97,5.92,11.08,9.59,1.09,1.49,2.36,2.69,3.82,3.91,7.57,6.45,16.33,12.57,26.15,13.9,6.95.65,14.84-1.76,20.87-5.52,4.69-3.36,10.49-8.9,17.13-6.71,1.58.46,2.96,1.88,3.59,3.45,0,0,.87,1.68.87,1.68,5.36,9.03,9.57,19.12,10.28,29.7,0,0-.42.06-.42.06-2.11-11.52-7.79-21.63-14.3-31.16-5.44-2.98-10.54,3.18-14.9,6.28-19.51,12.92-36.04,5.63-51.78-8.77-2.03-1.68-3.88-3.97-5.41-6.17-2.54-3.27-5.56-8.65-10.35-6.48-6.54,3.9-10.22,10.9-15.12,16.77-6.5,8.48-16.23,14.92-27.02,15.96-6.58.67-13.74.19-19.52-3.44-1.14-.76-2.11-1.56-3.19-2.04-2.13-1-4.76-.53-7.09.32-4.88,1.76-8.03,6.26-11.11,10.25-3.12,4.16-5.93,8.57-8.33,13.19l-.38-.19h0Z"/>
              <path class="cls-22" d="M578.27,557.41c5.03-8.02,8.71-9.86,17.38-5.47,6.34,2.66,13.42,3.32,20.22,2.65,6.86-.59,13.4-3.08,18.76-7.42,5.46-4.07,10.61-10.83,18.24-9.9,5.51.21,10.09,3.46,14.58,6.15,7.35,4.03,15.95,6.38,24.33,5.36,8.47-1.05,16.78-6.41,25.62-4.09,3.63.73,6.06,3.77,8.41,6.33,0,0,3.52,3.85,3.52,3.85l-.15.15c-2.57-2.32-5.05-4.84-7.62-7.06-2.58-2.18-6.1-2.56-9.43-2.3-7,.43-13.07,4.28-20.06,5.24-7.15.97-14.39-.48-20.87-3.31-6.33-2.52-11.43-8.18-18.45-8.62-3.37-.36-6.49.68-9.14,2.8-5.46,4.2-10.65,9.33-17.34,11.68-9.91,3.47-21.22,3.2-30.88-.92-9.44-4.83-11.27-2.28-17.12,4.88h0Z"/>
            </g>
          </g>
          <g>
            <path class="cls-12" d="M9.21,382.69h93.54c5-4.64,8.14-11.28,8.14-18.65,0-14.03-11.35-25.4-25.34-25.4-3.31,0-6.48.64-9.38,1.8-5.12-5.28-12.27-8.56-20.19-8.56s-15.07,3.28-20.19,8.56c-2.9-1.16-6.06-1.8-9.38-1.8-14,0-25.34,11.37-25.34,25.4,0,7.37,3.13,14.01,8.14,18.65Z"/>
            <path class="cls-12" d="M327.86,429.24h67.75c3.62-3.36,5.89-8.17,5.89-13.51,0-10.16-8.22-18.4-18.36-18.4-2.4,0-4.69.47-6.79,1.31-3.7-3.82-8.89-6.2-14.62-6.2s-10.92,2.38-14.62,6.2c-2.1-.84-4.39-1.31-6.79-1.31-10.14,0-18.36,8.24-18.36,18.4,0,5.34,2.27,10.14,5.89,13.51Z"/>
            <path class="cls-12" d="M262.78,381.53h41.94c2.24-2.08,3.65-5.06,3.65-8.36,0-6.29-5.09-11.39-11.36-11.39-1.49,0-2.9.29-4.21.81-2.29-2.37-5.5-3.84-9.05-3.84s-6.76,1.47-9.05,3.84c-1.3-.52-2.72-.81-4.21-.81-6.28,0-11.36,5.1-11.36,11.39,0,3.31,1.41,6.28,3.65,8.36Z"/>
            <path class="cls-12" d="M945.7,362.09c0-6.1-4.94-11.05-11.03-11.05s-11.03,4.95-11.03,11.05c0-6.1-4.94-11.05-11.03-11.05s-11.03,4.95-11.03,11.05c0-6.1-4.94-11.05-11.03-11.05s-11.03,4.95-11.03,11.05c0-6.1-4.94-11.05-11.03-11.05s-11.03,4.95-11.03,11.05c0,0-1.67,22.91,22.05,22.91h44.11c23.72,0,22.05-22.91,22.05-22.91Z"/>
          </g>
          <g>
            <path class="cls-4" d="M1002.94,675.97v-115.46s-109.32-56.61-162.93-51.76c-50.51,4.57-170.58,108.4-223.93,167.22"/>
            <path class="cls-10" d="M781.8,665.49c-1.65-.11-3.3-.23-4.94-.36-53.6-4.26-111.79-23.85-114.78-29.67-2.99-5.82,22.32-13.6,22.32-13.6,0,0-35.16-.23-37.9,11.52-.74,3.18-.29,7.93,6.1,12.44,8.98,6.36,48.36,26.22,120.01,33.14,2.45.24,4.94.45,7.44.65.58-4.71,1.18-9.41,1.75-14.12Z"/>
            <path class="cls-10" d="M1002.06,630.19s-108.91,22.31-204.5,14.72c-53.6-4.26-111.79-23.85-114.78-29.67-2.99-5.82,22.32-13.6,22.32-13.6,0,0-35.16-.23-37.9,11.52-.74,3.18-.29,7.93,6.1,12.44,8.98,6.36,48.36,26.22,120.01,33.14,50.32,4.86,112.13.7,141.7-2.13,33.44-3.19,74.83-10.11,74.83-10.11l-7.78-16.31Z"/>
            <path class="cls-10" d="M1008.25,602.88c-22.2,11.7-92.7,23.76-188.58,22.7-58.94-.65-113.2-23.67-116.19-29.49s22.32-13.6,22.32-13.6c0,0-35.16-.23-37.9,11.52-.74,3.18-.29,7.93,6.1,12.44,8.98,6.36,58.67,29.8,127.44,33.67,31.49,1.77,85.78-2.04,115.34-4.97,54.06-5.34,79.25-15.96,79.25-15.96l-7.78-16.31Z"/>
            <path class="cls-10" d="M1002.94,579.47c-22.2,11.7-79.96,24.12-164.88,24.12-58.95,0-110.37-18.35-113.36-24.17s22.32-13.6,22.32-13.6c0,0-35.16-.23-37.9,11.52-.74,3.18-.29,7.93,6.1,12.44,8.98,6.36,56.09,28,124.96,28,136.04,0,170.54-21.99,170.54-21.99l-7.78-16.31Z"/>
            <path class="cls-10" d="M986.22,557.13c-19.07,5.39-78.6,24.28-130.33,24.34-58.95.06-103.08-13.96-106.07-19.78s22.32-13.6,22.32-13.6c0,0-35.16-.23-37.9,11.52-.74,3.18-.29,7.93,6.1,12.44,8.98,6.36,46.71,22.86,115.59,22.86,88.58,0,152.32-27.13,152.32-27.13,0,0-1.17-7.09-8.2-9.58-7.03-2.48-13.83-1.06-13.83-1.06Z"/>
            <path class="cls-10" d="M954.64,536.91c-14.4,5.39-58.81,21.27-97.86,21.32-44.5.06-74.78-8.46-77.63-16.54-2.57-7.27,13.53-13.3,13.53-13.3,0,0-26.19-.76-28.26,10.99-.56,3.18-.22,7.93,4.6,12.44,6.78,6.36,35.79,19.84,87.78,19.84,66.87,0,114.46-27.66,114.46-27.66,0,0-.88-3.55-6.19-6.03-5.31-2.48-10.44-1.06-10.44-1.06Z"/>
            <path class="cls-7" d="M1002.94,675.97l-2.9-117.78c-1.24-.44-2.47-.75-3.66-.97-5.79-2.86-15.09-7.33-26.52-12.44.92-.5,1.4-.78,1.4-.78,0,0-.88-3.55-6.19-6.03-5.31-2.48-10.44-1.06-10.44-1.06-.49.18-1.02.38-1.58.59-35.93-15.05-83.15-31.46-113.05-28.76-12.38,1.12-28.94,8.21-47.67,19.13-4.19.06-26.05.89-27.91,11.51-.3,1.69-.33,3.81.41,6.11-1.52,1.05-3.04,2.12-4.57,3.19-10.48,1.01-24.35,3.71-26.03,10.92-.43,1.86-.45,4.25.88,6.82-10.48,1.01-24.32,3.71-26,10.91-.4,1.72-.44,3.89.6,6.24-9.66,1.3-20.37,4.16-21.83,10.43-.53,2.28-.43,5.37,2.02,8.6-9.88,1.24-21.21,4.08-22.71,10.55-.58,2.47-.42,5.88,2.66,9.39-.08.08-.16.15-.25.23-9.97,1.22-21.59,4.04-23.11,10.6-.55,2.38-.44,5.63,2.32,9-12.42,12.04-23.57,23.48-32.74,33.59"/>
          </g>
          <path class="cls-5" d="M772.33,685.52c20.54-17.38,42.27-33.84,66.89-44.66,24.62-10.82,52.56-15.7,78.68-9.29,26.11,6.41,49.87,25.28,58.13,50.93"/>
          <path class="cls-20" d="M1065.63,802.29l-.54-98.51s-252.88-36.76-342.94,176.04c-50.5,119.32,24.61,271.83,65.58,335.19,60.03,92.84,106.9,177.95,81.54,329.64-14.15,84.63-110.86,167.35-273.55,170.87-231.35,5-254.12-189.78-265.88-237.14-21.48-86.51-111.59-254.96-326.06-254.96l-2.1,103.77s168.44-57.99,247.75,224.2c14.51,51.63,49.84,260.87,331.49,262.51,197.76,1.16,325.74-113.54,362.76-196.76,62.65-140.84,14.54-313.77-89.5-476.36-89.97-140.58-26.42-251.77,4.48-287.88,68.78-80.41,206.98-50.61,206.98-50.61Z"/>
          <path class="cls-23" d="M1063.95,810.7l-.54-98.51s-252.88-36.76-342.94,176.04c-50.5,119.32,24.61,271.83,65.58,335.19,60.03,92.84,106.9,177.95,81.54,329.64-14.15,84.63-110.86,167.35-273.55,170.87-231.35,5-254.12-189.78-265.88-237.14-21.48-86.51-111.59-254.96-326.06-254.96l-2.1,103.77s168.44-57.99,247.75,224.2c14.51,51.63,49.84,260.87,331.49,262.51,197.76,1.16,325.74-113.54,362.76-196.76,62.65-140.84,14.54-313.77-89.5-476.36-89.97-140.58-26.42-251.77,4.48-287.88,68.78-80.41,206.98-50.61,206.98-50.61Z"/>
          <g>
            <rect class="cls-24" x="219.2" y="1221.84" width="8.21" height="56.67"/>
            <path class="cls-2" d="M247.44,1207.6c0-6.72-4.11-12.65-10.39-16.21,2.34-2.98,3.75-6.74,3.75-10.84,0-9.68-7.83-17.53-17.49-17.53s-17.49,7.85-17.49,17.53c0,4.09,1.4,7.85,3.75,10.84-6.28,3.56-10.39,9.49-10.39,16.21s4.13,12.67,10.42,16.23c-2.37,2.99-3.78,6.77-3.78,10.88,0,9.68,7.83,17.53,17.49,17.53s17.49-7.85,17.49-17.53c0-4.11-1.42-7.89-3.78-10.88,6.3-3.56,10.42-9.5,10.42-16.23Z"/>
          </g>
          <g>
            <rect class="cls-24" x="754.57" y="1306.68" width="7.05" height="48.67"/>
            <path class="cls-2" d="M778.82,1294.46c0-5.77-3.53-10.87-8.92-13.93,2.01-2.56,3.22-5.79,3.22-9.31,0-8.32-6.72-15.06-15.02-15.06s-15.02,6.74-15.02,15.06c0,3.51,1.2,6.75,3.22,9.31-5.39,3.06-8.92,8.15-8.92,13.93s3.55,10.89,8.95,13.94c-2.03,2.57-3.25,5.81-3.25,9.35,0,8.32,6.72,15.06,15.02,15.06s15.02-6.74,15.02-15.06c0-3.53-1.22-6.78-3.25-9.35,5.41-3.06,8.95-8.16,8.95-13.94Z"/>
          </g>
          <path class="cls-16" d="M737.52,1353.33c2.21-2.52,3.13-5.29,2.19-7.56s-3.54-3.57-6.88-3.79c1.08-3.18.87-6.08-.86-7.82-1.73-1.74-4.63-1.94-7.8-.86-.22-3.35-1.52-5.96-3.78-6.9-2.26-.94-5.02-.02-7.54,2.2-1.48-3.01-3.67-4.92-6.13-4.92s-4.65,1.91-6.13,4.92c-2.52-2.21-5.27-3.14-7.54-2.2-2.26.94-3.56,3.55-3.78,6.9-3.17-1.08-6.07-.87-7.8.86-1.73,1.74-1.94,4.64-.86,7.82-3.34.22-5.94,1.52-6.88,3.79s-.02,5.03,2.19,7.56c-3,1.48-4.91,3.68-4.91,6.14,0,4.47,6.29,8.09,14.05,8.09h43.31c7.76,0,14.05-3.62,14.05-8.09,0-2.46-1.91-4.66-4.91-6.14Z"/>
          <path class="cls-21" d="M436.17,1456.81c2.14-2.44,3.03-5.12,2.12-7.32-.91-2.2-3.43-3.46-6.66-3.67,1.04-3.08.84-5.89-.83-7.57-1.68-1.68-4.49-1.88-7.56-.84-.21-3.24-1.47-5.77-3.66-6.68-2.19-.91-4.86-.02-7.3,2.13-1.43-2.92-3.56-4.76-5.93-4.76s-4.5,1.85-5.93,4.76c-2.44-2.14-5.11-3.04-7.3-2.13-2.19.91-3.45,3.43-3.66,6.68-3.07-1.05-5.88-.85-7.56.84-1.68,1.68-1.88,4.5-.83,7.57-3.24.21-5.75,1.47-6.66,3.67-.91,2.2-.02,4.87,2.12,7.32-2.91,1.44-4.75,3.57-4.75,5.95,0,4.33,6.09,7.83,13.6,7.83h41.94c7.51,0,13.6-3.51,13.6-7.83,0-2.38-1.84-4.51-4.75-5.95Z"/>
          <g>
            <rect class="cls-24" x="373.08" y="1413" width="5.05" height="27.55"/>
            <path class="cls-1" d="M393.19,1406.75c-1.02-.95-2.49-1.26-4.2-1.01.07-1.03.1-2.07.1-3.13,0-14.08-6.04-25.49-13.49-25.49s-13.49,11.41-13.49,25.49c0,1.06.03,2.11.1,3.13-1.7-.25-3.18.06-4.2,1.01-2.76,2.58-1.07,8.91,3.79,14.13,2.96,3.18,6.41,5.22,9.27,5.74,1.41.95,2.94,1.47,4.52,1.47s3.11-.52,4.52-1.47c2.87-.52,6.32-2.56,9.27-5.74,4.85-5.22,6.55-11.55,3.79-14.13Z"/>
          </g>
          <g>
            <path class="cls-28" d="M48.19,1093.06h130.36c3.01,0,5.45,2.45,5.45,5.46h0c0,3.02-2.44,5.46-5.45,5.46h-2.15c-1.67,0-3.03,1.36-3.03,3.04h0c0,1.68,1.36,3.04,3.03,3.04h30.15c7.5,0,13.57,6.09,13.57,13.61h0c0,7.51-6.08,13.61-13.57,13.61h-124.47c-7.5,0-13.57-6.09-13.57-13.61h0c0-7.51,6.08-13.61,13.57-13.61h2.14c1.01-.55,1.69-1.61,1.69-2.84h0c0-1.78-1.44-3.23-3.22-3.23h-34.51c-3.01,0-5.45-2.45-5.45-5.46h0c0-3.02,2.44-5.46,5.45-5.46Z"/>
            <g>
              <g>
                <polygon class="cls-26" points="171.66 1089.22 96.94 1089.22 99.18 1098.18 169.42 1098.18 171.66 1089.22"/>
                <path d="M169.67,1098.5h-70.74l-2.4-9.6h75.53l-2.4,9.6ZM99.43,1097.86h69.75l2.08-8.32h-73.9l2.08,8.32Z"/>
              </g>
              <g>
                <rect class="cls-31" x="99.18" y="1098.18" width="70.24" height="3.63"/>
                <path d="M169.74,1102.13h-70.88v-4.27h70.88v4.27ZM99.5,1101.49h69.61v-2.99h-69.61v2.99Z"/>
              </g>
              <g>
                <rect class="cls-26" x="101.5" y="1066.58" width="3.49" height="22.63"/>
                <path d="M105.31,1089.54h-4.13v-23.27h4.13v23.27ZM101.82,1088.9h2.85v-21.99h-2.85v21.99Z"/>
              </g>
              <g>
                <rect class="cls-26" x="163.61" y="1066.58" width="3.49" height="22.63"/>
                <path d="M167.42,1089.54h-4.13v-23.27h4.13v23.27ZM163.93,1088.9h2.85v-21.99h-2.85v21.99Z"/>
              </g>
              <g>
                <g>
                  <rect class="cls-26" x="118.47" y="1066.58" width="3.49" height="22.63"/>
                  <path d="M122.28,1089.54h-4.13v-23.27h4.13v23.27ZM118.79,1088.9h2.85v-21.99h-2.85v21.99Z"/>
                </g>
                <g>
                  <rect class="cls-26" x="146.64" y="1066.58" width="3.49" height="22.63"/>
                  <path d="M150.45,1089.54h-4.13v-23.27h4.13v23.27ZM146.96,1088.9h2.85v-21.99h-2.85v21.99Z"/>
                </g>
              </g>
              <g>
                <rect class="cls-26" x="99.76" y="1101.81" width="3.49" height="4.41"/>
                <path d="M103.57,1106.55h-4.13v-5.06h4.13v5.06ZM100.08,1105.91h2.85v-3.78h-2.85v3.78Z"/>
              </g>
              <g>
                <rect class="cls-26" x="165.35" y="1101.81" width="3.49" height="4.41"/>
                <path d="M169.16,1106.55h-4.13v-5.06h4.13v5.06ZM165.67,1105.91h2.85v-3.78h-2.85v3.78Z"/>
              </g>
              <g>
                <g>
                  <rect class="cls-26" x="118.47" y="1101.81" width="3.49" height="4.41"/>
                  <path d="M122.28,1106.55h-4.13v-5.06h4.13v5.06ZM118.79,1105.91h2.85v-3.78h-2.85v3.78Z"/>
                </g>
                <g>
                  <rect class="cls-26" x="146.64" y="1101.81" width="3.49" height="4.41"/>
                  <path d="M150.45,1106.55h-4.13v-5.06h4.13v5.06ZM146.96,1105.91h2.85v-3.78h-2.85v3.78Z"/>
                </g>
              </g>
              <g>
                <rect class="cls-12" x="99.34" y="1106.23" width="4.34" height="12.37"/>
                <path d="M103.67,1118.92h-4.34c-.18,0-.32-.14-.32-.32v-12.37c0-.18.14-.32.32-.32h4.34c.18,0,.32.14.32.32v12.37c0,.18-.14.32-.32.32ZM99.66,1118.28h3.7v-11.73h-3.7v11.73Z"/>
              </g>
              <g>
                <rect class="cls-12" x="164.93" y="1106.23" width="4.34" height="12.37"/>
                <path d="M169.27,1118.92h-4.34c-.18,0-.32-.14-.32-.32v-12.37c0-.18.14-.32.32-.32h4.34c.18,0,.32.14.32.32v12.37c0,.18-.14.32-.32.32ZM165.25,1118.28h3.7v-11.73h-3.7v11.73Z"/>
              </g>
              <g>
                <g>
                  <rect class="cls-12" x="118.05" y="1106.23" width="4.34" height="12.37"/>
                  <path d="M122.38,1118.92h-4.34c-.18,0-.32-.14-.32-.32v-12.37c0-.18.14-.32.32-.32h4.34c.18,0,.32.14.32.32v12.37c0,.18-.14.32-.32.32ZM118.37,1118.28h3.7v-11.73h-3.7v11.73Z"/>
                </g>
                <g>
                  <rect class="cls-12" x="146.22" y="1106.23" width="4.34" height="12.37"/>
                  <path d="M150.55,1118.92h-4.34c-.18,0-.32-.14-.32-.32v-12.37c0-.18.14-.32.32-.32h4.34c.18,0,.32.14.32.32v12.37c0,.18-.14.32-.32.32ZM146.54,1118.28h3.7v-11.73h-3.7v11.73Z"/>
                </g>
              </g>
              <g>
                <rect class="cls-31" x="99.76" y="1062.1" width="69.08" height="4.48"/>
                <path d="M169.16,1066.9h-69.72v-5.12h69.72v5.12ZM100.08,1066.26h68.44v-3.84h-68.44v3.84Z"/>
              </g>
              <g>
                <polygon class="cls-11" points="81.77 1052.51 99.76 1062.1 168.84 1062.1 186.83 1052.51 81.77 1052.51"/>
                <path d="M168.92,1062.42l-69.31-.04-19.12-10.19h107.62l-19.19,10.23ZM99.84,1061.78h68.92l16.79-8.95h-102.49l16.79,8.95Z"/>
              </g>
              <g>
                <path class="cls-11" d="M168.84,1057.62l17.99-5.11c1.09-.31,1.04-1.87-.07-2.11-10.94-2.33-39.31-8.93-47.7-16.18h-9.52c-8.39,7.26-36.76,13.85-47.7,16.18-1.11.24-1.16,1.8-.07,2.11l17.99,5.11h69.08Z"/>
                <path d="M168.89,1057.94h-69.21s-17.99-5.12-17.99-5.12c-.63-.18-1.04-.74-1.02-1.4s.47-1.19,1.11-1.33c11.55-2.46,39.29-8.96,47.55-16.11l.09-.08h9.76l.09.08c8.26,7.15,36.01,13.65,47.56,16.11.64.14,1.09.67,1.11,1.33.02.66-.39,1.22-1.02,1.4l-18.03,5.12ZM99.8,1057.3h68.99l17.95-5.09c.42-.12.57-.47.56-.76,0-.29-.17-.63-.6-.72-11.55-2.46-39.27-8.96-47.75-16.18h-9.29c-8.49,7.22-36.2,13.71-47.75,16.18-.43.09-.6.43-.61.72,0,.29.13.64.56.76l17.95,5.09Z"/>
              </g>
              <g>
                <rect class="cls-11" x="129.54" y="1029.83" width="9.52" height="4.39"/>
                <path d="M139.38,1034.54h-10.16v-5.03h10.16v5.03ZM129.86,1033.9h8.89v-3.75h-8.89v3.75Z"/>
              </g>
              <g>
                <polygon class="cls-11" points="137.03 1029.83 131.57 1029.83 130.71 1027.63 137.89 1027.63 137.03 1029.83"/>
                <path d="M137.25,1030.15h-5.89l-1.11-2.84h8.11l-1.11,2.84ZM131.79,1029.51h5.02l.61-1.56h-6.24l.61,1.56Z"/>
              </g>
              <g>
                <path class="cls-11" d="M131.42,1027.63c0-1.28,1.04-2.32,2.31-2.32h1.14c1.27,0,2.31,1.04,2.31,2.32h-5.77Z"/>
                <path d="M137.5,1027.95h-6.41v-.32c0-1.46,1.18-2.64,2.63-2.64h1.14c1.45,0,2.63,1.18,2.63,2.64v.32ZM131.76,1027.31h5.08c-.15-.95-.98-1.68-1.97-1.68h-1.14c-.99,0-1.82.73-1.97,1.68Z"/>
              </g>
              <g>
                <rect class="cls-11" x="133.09" y="1023.53" width="2.41" height="2.42" rx=".33" ry=".33"/>
                <path d="M134.72,1026.27h-.84c-.61,0-1.11-.5-1.11-1.11v-.84c0-.61.5-1.11,1.11-1.11h.84c.61,0,1.11.5,1.11,1.11v.84c0,.61-.5,1.11-1.11,1.11ZM133.88,1023.85c-.26,0-.47.21-.47.47v.84c0,.26.21.47.47.47h.84c.26,0,.47-.21.47-.47v-.84c0-.26-.21-.47-.47-.47h-.84Z"/>
              </g>
              <g>
                <rect class="cls-11" x="133.52" y="1022.1" width="1.56" height="1.56" rx=".21" ry=".21"/>
                <path d="M134.57,1023.99h-.54c-.46,0-.83-.37-.83-.83v-.54c0-.46.37-.83.83-.83h.54c.46,0,.83.37.83.83v.54c0,.46-.37.83-.83.83ZM134.03,1022.42c-.1,0-.19.09-.19.19v.54c0,.1.09.19.19.19h.54c.1,0,.19-.09.19-.19v-.54c0-.1-.09-.19-.19-.19h-.54Z"/>
              </g>
            </g>
            <path class="cls-27" d="M179.83,1125.63c1.87-2.49,4.42-4.6,7.55-5.21s5.82.69,8.43,2.33c2.37,1.48,4.78,2.94,7.68,2.8s5.24-1.56,7.19-3.49c.36-.36-.2-.92-.56-.56-2.4,2.38-5.67,3.89-9.08,3.01-3.15-.82-5.54-3.31-8.57-4.44-5.19-1.94-10.24,1.05-13.33,5.16-.31.41.38.8.68.4h0Z"/>
            <path class="cls-27" d="M156.72,1132.05c1.87-2.49,4.42-4.6,7.55-5.21s5.82.69,8.43,2.33c2.37,1.48,4.78,2.94,7.68,2.8s5.24-1.56,7.19-3.49c.36-.36-.2-.92-.56-.56-2.4,2.38-5.67,3.89-9.08,3.01-3.15-.82-5.54-3.31-8.57-4.44-5.19-1.94-10.24,1.05-13.33,5.16-.31.41.38.8.68.4h0Z"/>
            <path class="cls-27" d="M80.44,1130.38c1.87-2.49,4.42-4.6,7.55-5.21s5.82.69,8.43,2.33c2.37,1.48,4.78,2.94,7.68,2.8s5.24-1.56,7.19-3.49c.36-.36-.2-.92-.56-.56-2.4,2.38-5.67,3.89-9.08,3.01-3.15-.82-5.54-3.31-8.57-4.44-5.19-1.94-10.24,1.05-13.33,5.16-.31.41.38.8.68.4h0Z"/>
          </g>
          <g>
            <path class="cls-19" d="M760.21,767.55c1.51-1.72,2.14-3.61,1.5-5.16-.64-1.55-2.42-2.44-4.7-2.59.74-2.17.6-4.16-.59-5.34-1.18-1.19-3.16-1.33-5.33-.59-.15-2.29-1.04-4.07-2.58-4.71-1.55-.64-3.43-.01-5.15,1.5-1.01-2.06-2.51-3.36-4.18-3.36s-3.17,1.3-4.18,3.36c-1.72-1.51-3.6-2.14-5.15-1.5-1.55.64-2.43,2.42-2.58,4.71-2.17-.74-4.15-.6-5.33.59-1.18,1.19-1.32,3.17-.59,5.34-2.28.15-4.06,1.04-4.7,2.59-.64,1.55-.01,3.44,1.5,5.16-2.05,1.01-3.35,2.52-3.35,4.19,0,3.05,4.3,5.53,9.6,5.53h29.59c5.3,0,9.6-2.47,9.6-5.53,0-1.68-1.3-3.18-3.35-4.19Z"/>
            <g>
              <rect class="cls-24" x="666.44" y="753.21" width="6.09" height="29.19"/>
              <rect class="cls-3" x="655.78" y="712.19" width="27.4" height="53.6" rx="13.7" ry="13.7"/>
            </g>
            <g>
              <rect class="cls-24" x="670.4" y="821.22" width="5.34" height="29.09"/>
              <path class="cls-4" d="M691.63,814.62c-1.07-1-2.63-1.33-4.43-1.07.07-1.09.11-2.19.11-3.31,0-14.87-6.38-26.92-14.24-26.92s-14.24,12.05-14.24,26.92c0,1.12.04,2.23.11,3.31-1.8-.26-3.36.07-4.43,1.07-2.92,2.73-1.13,9.41,4,14.92,3.12,3.36,6.76,5.51,9.79,6.06,1.49,1,3.1,1.55,4.78,1.55s3.28-.55,4.78-1.55c3.03-.55,6.67-2.7,9.79-6.06,5.13-5.52,6.92-12.2,4-14.92Z"/>
            </g>
          </g>
          <g>
            <path class="cls-19" d="M941.04,1084.79c1.51-1.72,2.14-3.61,1.5-5.16s-2.42-2.44-4.7-2.59c.74-2.17.6-4.16-.59-5.34-1.18-1.19-3.16-1.33-5.33-.59-.15-2.29-1.04-4.07-2.58-4.71-1.55-.64-3.43-.01-5.15,1.5-1.01-2.06-2.51-3.36-4.18-3.36s-3.17,1.3-4.18,3.36c-1.72-1.51-3.6-2.14-5.15-1.5-1.55.64-2.43,2.42-2.58,4.71-2.17-.74-4.15-.6-5.33.59-1.18,1.19-1.32,3.17-.59,5.34-2.28.15-4.06,1.04-4.7,2.59s-.01,3.44,1.5,5.16c-2.05,1.01-3.35,2.52-3.35,4.19,0,3.05,4.3,5.53,9.6,5.53h29.59c5.3,0,9.6-2.47,9.6-5.53,0-1.68-1.3-3.18-3.35-4.19Z"/>
            <g>
              <rect class="cls-24" x="877.12" y="963.95" width="6.09" height="29.19"/>
              <rect class="cls-3" x="866.46" y="922.94" width="27.4" height="53.6" rx="13.7" ry="13.7"/>
            </g>
            <g>
              <rect class="cls-24" x="954.02" y="901.69" width="5.34" height="29.09"/>
              <path class="cls-4" d="M975.26,895.09c-1.07-1-2.63-1.33-4.43-1.07.07-1.09.11-2.19.11-3.31,0-14.87-6.38-26.92-14.24-26.92s-14.24,12.05-14.24,26.92c0,1.12.04,2.23.11,3.31-1.8-.26-3.36.07-4.43,1.07-2.92,2.73-1.13,9.41,4,14.92,3.12,3.36,6.76,5.51,9.79,6.06,1.49,1,3.1,1.55,4.78,1.55s3.28-.55,4.78-1.55c3.03-.55,6.67-2.7,9.79-6.06,5.13-5.52,6.92-12.2,4-14.92Z"/>
            </g>
            <path class="cls-3" d="M975.37,1005.85c0-2.76-2.23-5-4.99-5s-4.99,2.24-4.99,5c0-2.76-2.23-5-4.99-5s-4.99,2.24-4.99,5c0-2.76-2.23-5-4.99-5s-4.99,2.24-4.99,5c0-2.76-2.23-5-4.99-5s-4.99,2.24-4.99,5c0,0-.75,10.36,9.97,10.36h19.95c10.73,0,9.97-10.36,9.97-10.36Z"/>
          </g>
          <g>
            <path class="cls-19" d="M84.69,1494.52c1.51-1.72,2.14-3.61,1.5-5.16-.64-1.55-2.42-2.44-4.7-2.59.74-2.17.6-4.16-.59-5.34-1.18-1.19-3.16-1.33-5.33-.59-.15-2.29-1.04-4.07-2.58-4.71-1.55-.64-3.43-.01-5.15,1.5-1.01-2.06-2.51-3.36-4.18-3.36s-3.17,1.3-4.18,3.36c-1.72-1.51-3.6-2.14-5.15-1.5-1.55.64-2.43,2.42-2.58,4.71-2.17-.74-4.15-.6-5.33.59s-1.32,3.17-.59,5.34c-2.28.15-4.06,1.04-4.7,2.59-.64,1.55-.01,3.44,1.5,5.16-2.05,1.01-3.35,2.52-3.35,4.19,0,3.05,4.3,5.53,9.6,5.53h29.59c5.3,0,9.6-2.47,9.6-5.53,0-1.68-1.3-3.18-3.35-4.19Z"/>
            <g>
              <rect class="cls-24" x="76.05" y="1441.72" width="6.09" height="29.19"/>
              <rect class="cls-3" x="65.39" y="1400.71" width="27.4" height="53.6" rx="13.7" ry="13.7"/>
            </g>
            <path class="cls-3" d="M174.3,1483.61c0-2.76-2.23-5-4.99-5s-4.99,2.24-4.99,5c0-2.76-2.23-5-4.99-5s-4.99,2.24-4.99,5c0-2.76-2.23-5-4.99-5s-4.99,2.24-4.99,5c0-2.76-2.23-5-4.99-5s-4.99,2.24-4.99,5c0,0-.75,10.36,9.97,10.36h19.95c10.73,0,9.97-10.36,9.97-10.36Z"/>
          </g>
          <g>
            <g>
              <rect class="cls-24" x="140.98" y="621.19" width="53.52" height="20.56"/>
              <path d="M194.74,642h-54v-21.04h54v21.04ZM141.22,641.51h53.04v-20.08h-53.04v20.08Z"/>
            </g>
            <path class="cls-8" d="M139.17,641.76h57.57c.25,0,.46.21.46.46v3.66h-58.49v-3.66c0-.25.21-.46.46-.46Z"/>
            <g>
              <rect class="cls-25" x="163.36" y="626.15" width="8.75" height="15.61"/>
              <path d="M172.36,642h-9.24v-16.09h9.24v16.09ZM163.6,641.51h8.27v-15.13h-8.27v15.13Z"/>
            </g>
            <g>
              <rect class="cls-9" x="140.98" y="621.19" width="1.66" height="20.56"/>
              <path d="M142.88,642h-2.14v-21.04h2.14v21.04ZM141.22,641.51h1.18v-20.08h-1.18v20.08Z"/>
            </g>
            <g>
              <rect class="cls-9" x="153.83" y="621.19" width="1.66" height="20.56"/>
              <path d="M155.73,642h-2.14v-21.04h2.14v21.04ZM154.07,641.51h1.18v-20.08h-1.18v20.08Z"/>
            </g>
            <g>
              <rect class="cls-9" x="179.99" y="621.19" width="1.66" height="20.56" transform="translate(361.64 1262.95) rotate(180)"/>
              <path d="M181.89,642h-2.14v-21.04h2.14v21.04ZM180.23,641.51h1.18v-20.08h-1.18v20.08Z"/>
            </g>
            <g>
              <rect class="cls-9" x="192.84" y="621.19" width="1.66" height="20.56" transform="translate(387.34 1262.95) rotate(180)"/>
              <path d="M194.74,642h-2.14v-21.04h2.14v21.04ZM193.08,641.51h1.18v-20.08h-1.18v20.08Z"/>
            </g>
            <path class="cls-6" d="M132.88,621.76c-1.16,0-1.92-1.21-1.42-2.26,2.57-5.33,11.36-18.22,36.28-18.22,24.92,0,33.71,12.89,36.28,18.22.5,1.05-.26,2.26-1.42,2.26h-69.72Z"/>
            <g>
              <path class="cls-14" d="M198.05,619.9c-.36,0-.71-.21-.88-.56-2.13-4.66-9.26-15.51-29.44-15.51s-27.31,10.85-29.44,15.51c-.22.48-.79.7-1.28.48-.48-.22-.7-.79-.48-1.28,2.28-5,9.9-16.64,31.19-16.64s28.9,11.64,31.19,16.64c.22.49,0,1.06-.48,1.28-.13.06-.27.09-.4.09Z"/>
              <path class="cls-14" d="M192.06,619.9c-.39,0-.76-.24-.9-.63-1.7-4.64-7.39-15.45-23.42-15.45s-21.72,10.8-23.42,15.45c-.18.5-.74.75-1.24.57-.5-.18-.76-.74-.57-1.24,1.84-5.02,7.98-16.71,25.23-16.71s23.38,11.69,25.23,16.71c.18.5-.07,1.06-.57,1.24-.11.04-.22.06-.33.06Z"/>
              <path class="cls-14" d="M185.15,619.9c-.43,0-.82-.29-.93-.72-1.21-4.62-5.24-15.36-16.48-15.36s-15.27,10.74-16.48,15.36c-.13.51-.66.83-1.18.69-.51-.13-.82-.66-.69-1.18,1.32-5.05,5.76-16.8,18.34-16.8s17.02,11.75,18.34,16.8c.14.52-.17,1.04-.69,1.18-.08.02-.16.03-.25.03Z"/>
              <path class="cls-14" d="M177.12,619.9c-.47,0-.88-.35-.95-.83-.51-3.58-2.61-15.25-8.43-15.25s-7.92,11.67-8.43,15.25c-.07.53-.56.9-1.09.82-.53-.07-.89-.56-.82-1.09.72-5.08,3.16-16.91,10.34-16.91s9.62,11.83,10.34,16.91c.07.53-.29,1.02-.82,1.09-.05,0-.09.01-.14.01Z"/>
              <path class="cls-14" d="M170.88,619.9c-.51,0-.94-.4-.96-.92-.48-10.19-1.56-14.14-2.18-15.03-.62.89-1.69,4.84-2.18,15.03-.03.53-.47.96-1.01.92-.53-.02-.94-.48-.92-1.01.8-17,3.03-17,4.1-17s3.3,0,4.1,17c.02.53-.39.98-.92,1.01-.02,0-.03,0-.05,0Z"/>
            </g>
          </g>
          <g>
            <g>
              <rect class="cls-24" x="83.12" y="609.73" width="41.54" height="15.96"/>
              <path d="M124.85,625.88h-41.92v-16.34h41.92v16.34ZM83.31,625.5h41.17v-15.59h-41.17v15.59Z"/>
            </g>
            <path class="cls-8" d="M81.82,625.69h44.48c.25,0,.46.21.46.46v2.74h-45.4v-2.74c0-.25.21-.46.46-.46Z"/>
            <g>
              <rect class="cls-25" x="100.49" y="613.57" width="6.8" height="12.12"/>
              <path d="M107.48,625.88h-7.17v-12.49h7.17v12.49ZM100.68,625.5h6.42v-11.74h-6.42v11.74Z"/>
            </g>
            <g>
              <rect class="cls-9" x="83.12" y="609.73" width="1.29" height="15.96"/>
              <path d="M84.59,625.88h-1.66v-16.34h1.66v16.34ZM83.31,625.5h.92v-15.59h-.92v15.59Z"/>
            </g>
            <g>
              <rect class="cls-9" x="93.09" y="609.73" width="1.29" height="15.96"/>
              <path d="M94.57,625.88h-1.66v-16.34h1.66v16.34ZM93.28,625.5h.92v-15.59h-.92v15.59Z"/>
            </g>
            <g>
              <rect class="cls-9" x="113.4" y="609.73" width="1.29" height="15.96" transform="translate(228.09 1235.42) rotate(180)"/>
              <path d="M114.88,625.88h-1.66v-16.34h1.66v16.34ZM113.59,625.5h.92v-15.59h-.92v15.59Z"/>
            </g>
            <g>
              <rect class="cls-9" x="123.38" y="609.73" width="1.29" height="15.96" transform="translate(248.04 1235.42) rotate(180)"/>
              <path d="M124.85,625.88h-1.66v-16.34h1.66v16.34ZM123.56,625.5h.92v-15.59h-.92v15.59Z"/>
            </g>
            <path class="cls-6" d="M76.83,610.17c-.9,0-1.49-.94-1.1-1.76,1.99-4.14,8.82-14.14,28.16-14.14,19.34,0,26.17,10.01,28.16,14.14.39.81-.2,1.76-1.1,1.76h-54.12Z"/>
            <g>
              <path class="cls-14" d="M127.42,608.72c-.28,0-.55-.16-.68-.44-1.65-3.62-7.19-12.04-22.85-12.04s-21.2,8.42-22.85,12.04c-.17.38-.62.54-.99.37-.38-.17-.54-.62-.37-.99,1.77-3.88,7.68-12.92,24.21-12.92s22.43,9.03,24.21,12.92c.17.38,0,.82-.37.99-.1.05-.21.07-.31.07Z"/>
              <path class="cls-14" d="M122.77,608.72c-.3,0-.59-.19-.7-.49-1.32-3.61-5.74-11.99-18.18-11.99s-16.86,8.38-18.18,11.99c-.14.39-.57.59-.96.45-.39-.14-.59-.57-.44-.96,1.43-3.9,6.2-12.97,19.58-12.97s18.15,9.07,19.58,12.97c.14.39-.06.82-.44.96-.08.03-.17.05-.26.05Z"/>
              <path class="cls-14" d="M117.41,608.72c-.33,0-.63-.22-.72-.56-.94-3.59-4.07-11.92-12.79-11.92s-11.85,8.34-12.79,11.92c-.1.4-.51.64-.91.53-.4-.1-.64-.51-.53-.92,1.03-3.92,4.47-13.04,14.24-13.04s13.21,9.12,14.24,13.04c.11.4-.13.81-.53.92-.06.02-.13.03-.19.03Z"/>
              <path class="cls-14" d="M111.17,608.72c-.37,0-.69-.27-.74-.64-.39-2.78-2.02-11.84-6.54-11.84s-6.15,9.06-6.54,11.84c-.06.41-.44.69-.84.64-.41-.06-.69-.44-.63-.85.56-3.95,2.46-13.12,8.02-13.12s7.47,9.18,8.02,13.12c.06.41-.23.79-.63.85-.04,0-.07,0-.11,0Z"/>
              <path class="cls-14" d="M106.33,608.72c-.4,0-.73-.31-.75-.71-.37-7.91-1.21-10.98-1.69-11.67-.48.69-1.32,3.76-1.69,11.67-.02.41-.37.74-.78.71-.41-.02-.73-.37-.71-.78.62-13.19,2.35-13.19,3.18-13.19s2.56,0,3.18,13.19c.02.41-.3.76-.71.78-.01,0-.02,0-.04,0Z"/>
            </g>
          </g>
          <path class="cls-30" d="M1.37,1206.44v-.42"/>
          <g>
            <g>
              <path class="cls-27" d="M473.46,1752.29c4.09-5.47,10.76-9.69,17.78-7.79,3.76,1.02,6.87,3.57,10.21,5.44s6.62,2.87,10.29,2.44c4.22-.5,7.91-2.68,10.88-5.65,1.15-1.15-.63-2.93-1.78-1.78-2.68,2.69-6.12,4.78-9.99,5s-7.26-1.58-10.52-3.61-6.42-4.08-10.23-4.63c-3.2-.47-6.39.05-9.35,1.34-3.87,1.69-6.98,4.63-9.48,7.97-.97,1.3,1.22,2.56,2.18,1.27h0Z"/>
              <path class="cls-27" d="M524.83,1761.43c4.02-5.38,10.57-9.48,17.46-7.56,3.69,1.03,6.74,3.56,10.04,5.38,3.1,1.71,6.45,2.71,10.01,2.27,4.08-.51,7.66-2.64,10.53-5.52,1.15-1.15-.63-2.93-1.78-1.78-2.59,2.59-5.9,4.62-9.63,4.87s-7.17-1.52-10.38-3.52-6.15-3.93-9.77-4.5c-3.22-.5-6.43-.02-9.41,1.29-3.77,1.66-6.8,4.52-9.25,7.79-.97,1.3,1.22,2.56,2.18,1.27h0Z"/>
              <path class="cls-27" d="M586.64,1791.63c4.09-5.47,10.76-9.69,17.78-7.79,3.76,1.02,6.87,3.57,10.21,5.44s6.62,2.87,10.29,2.44c4.22-.5,7.91-2.68,10.88-5.65,1.15-1.15-.63-2.93-1.78-1.78-2.68,2.69-6.12,4.78-9.99,5s-7.26-1.58-10.52-3.61-6.42-4.08-10.23-4.63c-3.2-.47-6.39.05-9.35,1.34-3.87,1.69-6.98,4.63-9.48,7.97-.97,1.3,1.22,2.56,2.18,1.27h0Z"/>
            </g>
            <g>
              <path class="cls-27" d="M752.89,967.91c-1.73-6.67-.93-14.63,5.06-18.96,3.28-2.37,7.39-3.21,11.06-4.77,3.25-1.38,6.05-3.42,7.91-6.47,2.15-3.5,2.73-7.72,2.28-11.75-.18-1.59-2.7-1.61-2.52,0,.4,3.62,0,7.33-1.94,10.48-2.07,3.38-5.47,5.04-9.07,6.35s-7.32,2.45-10.29,4.99c-2.53,2.17-4.28,5.15-5.16,8.35-1.11,4.08-.83,8.4.22,12.45.41,1.57,2.84.9,2.43-.67h0Z"/>
              <path class="cls-27" d="M757.7,929.65c-1.71-6.61-.87-14.5,5.17-18.67,3.17-2.19,7.06-3,10.57-4.49,3.21-1.37,6-3.41,7.81-6.44,2.04-3.41,2.61-7.49,2.17-11.39-.18-1.59-2.7-1.61-2.52,0,.4,3.54-.01,7.18-1.91,10.26s-5.2,4.83-8.64,6.08-7.25,2.4-10.19,4.9c-2.47,2.09-4.2,4.99-5.07,8.09-1.14,4.03-.86,8.31.18,12.33.41,1.57,2.84.9,2.43-.67h0Z"/>
              <path class="cls-27" d="M915.94,1443.01c-4.19-5.78-6.32-13.58-2.07-19.94,2.04-3.06,5.22-5.2,7.86-7.7s4.66-5.34,5.39-8.87c.89-4.31-.12-8.65-2.14-12.49-.75-1.44-2.93-.16-2.18,1.27,1.85,3.53,2.76,7.6,1.65,11.51-1.03,3.63-3.71,6.16-6.47,8.56s-5.47,4.66-7.13,7.86c-1.5,2.9-2.11,6.21-1.78,9.46.43,4.25,2.2,8.18,4.69,11.62.94,1.3,3.13.05,2.18-1.27h0Z"/>
            </g>
            <g>
              <path class="cls-27" d="M51.01,1290.03c4.09-5.47,10.76-9.69,17.78-7.79,3.76,1.02,6.87,3.57,10.21,5.44s6.62,2.87,10.29,2.44c4.22-.5,7.91-2.68,10.88-5.65,1.15-1.15-.63-2.93-1.78-1.78-2.68,2.69-6.12,4.78-9.99,5s-7.26-1.58-10.52-3.61-6.42-4.08-10.23-4.63c-3.2-.47-6.39.05-9.35,1.34-3.87,1.69-6.98,4.63-9.48,7.97-.97,1.3,1.22,2.56,2.18,1.27h0Z"/>
              <path class="cls-27" d="M93.41,1312.64c4.02-5.38,10.57-9.48,17.46-7.56,3.69,1.03,6.74,3.56,10.04,5.38,3.1,1.71,6.45,2.71,10.01,2.27,4.08-.51,7.66-2.64,10.53-5.52,1.15-1.15-.63-2.93-1.78-1.78-2.59,2.59-5.9,4.62-9.63,4.87s-7.17-1.52-10.38-3.52-6.15-3.93-9.77-4.5c-3.22-.5-6.43-.02-9.41,1.29-3.77,1.66-6.8,4.52-9.25,7.79-.97,1.3,1.22,2.56,2.18,1.27h0Z"/>
            </g>
          </g>
        </g>
      </g>
    </g>
  </g>
</svg>