<?xml version="1.0" encoding="UTF-8"?>
<svg id="_레이어_2" data-name="레이어_2" xmlns="http://www.w3.org/2000/svg" viewBox="0 0 155.47 155.47">
  <defs>
    <style>
      .cls-1 {
        fill: #1f7510;
      }

      .cls-2 {
        fill: #beeaa4;
        stroke: #fff;
        stroke-width: 2.26px;
      }

      .cls-2, .cls-3 {
        stroke-linecap: round;
        stroke-linejoin: round;
      }

      .cls-3 {
        fill: none;
        stroke: #000;
        stroke-width: 1.51px;
      }

      .cls-4 {
        fill: #6def30;
      }

      .cls-5 {
        fill: #46bf00;
      }
    </style>
  </defs>
  <g id="button">
    <g>
      <circle class="cls-2" cx="77.73" cy="77.73" r="76.6"/>
      <g>
        <path class="cls-5" d="M83.22,84.5s4.91-14.9,17.44-22.35c9.73-5.79,29.63-1.52,29.63-1.52,0,0-5.09,13.41-15.56,21.26-15.42,11.56-31.51,2.61-31.51,2.61Z"/>
        <path class="cls-5" d="M79.44,73.02s-6.95-12.36-4.29-25.26c2.07-10.02,17.03-20.7,17.03-20.7,0,0,5.85,11.56,4.71,23.34-1.68,17.33-17.45,22.62-17.45,22.62Z"/>
        <path class="cls-1" d="M63.4,70.68s14.15,7.39,4.46,44.65l8.11,1.43s1.76-18.44,6.09-25.29c6.4-10.13,18.81-22.51,26.66-26.09-5.4-1.72-29.9,22.72-29.9,22.72,0,0,2.88-22.45,8.4-39.92-8.39,16.14-12.78,39.62-12.78,39.62,0,0,.02-9.95-9.16-18.72l-1.87,1.6Z"/>
        <g>
          <path class="cls-4" d="M29.83,55.44s16.51-11.82,29.34-5.86c11.78,5.48,10.46,20.57,10.46,20.57-14.48-16.93-39.8-14.71-39.8-14.71Z"/>
          <path class="cls-5" d="M66.17,58.29c-10.08-5.74-36.34-2.85-36.34-2.85,36.69,7.81,40.75,29.02,40.75,29.02,0,0,7.57-19.34-4.42-26.17Z"/>
        </g>
        <path class="cls-3" d="M100.66,62.14c-10.56,6.28-15.71,17.85-17.07,21.34-2.87,2.71-4.78,4.62-4.78,4.62,0,0,.88-6.85,2.59-15.92,4.28-2.07,14.18-8.26,15.49-21.79,1.14-11.77-4.71-23.34-4.71-23.34,0,0-14.97,10.68-17.03,20.7-2.03,9.86,1.54,19.39,3.35,23.34-2.69,9.32-4.07,16.7-4.07,16.7,0,0,0-3.9-2.24-8.97,1.18-5.69,1.72-14.31-4.07-19.19-1.4-3.83-4.03-7.78-8.94-10.06-12.82-5.96-29.34,5.86-29.34,5.86,36.69,7.81,40.75,29.02,40.75,29.02,0,0,.01-.04.04-.1,1.16,6.77.95,16.67-2.77,30.96l8.11,1.43s1.76-18.44,6.09-25.29c1.17-1.85,2.54-3.78,4.05-5.71,5.31,1.97,17.15,4.72,28.63-3.88,10.47-7.85,15.56-21.26,15.56-21.26,0,0-19.9-4.27-29.63,1.52Z"/>
      </g>
    </g>
  </g>
</svg>