<?xml version="1.0" encoding="UTF-8"?>
<svg id="_레이어_2" data-name="레이어_2" xmlns="http://www.w3.org/2000/svg" viewBox="0 0 116.79 61.89">
  <defs>
    <style>
      .cls-1 {
        fill: #fff;
        stroke: #a3a3a3;
        stroke-linecap: round;
        stroke-linejoin: round;
        stroke-width: 2.52px;
      }
    </style>
  </defs>
  <g id="button">
    <g>
      <rect class="cls-1" x="1.26" y="1.26" width="114.27" height="59.37" rx="29.69" ry="29.69"/>
      <g>
        <path d="M42.48,34.1c-1.04-.27-2.09-.67-3.13-1.21-1.04-.54-2.05-1.19-3.02-1.95-.97-.76-1.85-1.62-2.64-2.57-.79-.95-1.43-1.97-1.9-3.04-.42,1.16-1.01,2.26-1.79,3.29-.78,1.03-1.63,1.97-2.57,2.82-.94.85-1.94,1.59-3,2.22-1.06.63-2.08,1.13-3.07,1.52l-2.55-2.6c1.58-.57,3.04-1.34,4.36-2.31,1.33-.97,2.48-2.08,3.45-3.34.97-1.25,1.73-2.6,2.28-4.05.55-1.45.83-2.93.83-4.45v-.09h-8.59v-3.31h8.59v-3.49h3.85v3.49h8.51v3.31h-8.51v.09c0,1.52.33,3,.98,4.43.66,1.43,1.51,2.72,2.57,3.87,1.06,1.15,2.25,2.13,3.58,2.95,1.33.82,2.68,1.4,4.05,1.72l-2.28,2.69ZM41.99,53.44c-1.34,0-2.62-.24-3.83-.72-1.21-.48-2.28-1.12-3.2-1.92-.93-.81-1.66-1.75-2.19-2.84-.54-1.09-.81-2.26-.81-3.51s.27-2.43.81-3.54c.54-1.1,1.26-2.06,2.17-2.86.91-.81,1.97-1.45,3.18-1.92,1.21-.48,2.5-.72,3.87-.72s2.62.24,3.83.72c1.21.48,2.27,1.12,3.18,1.92.91.81,1.63,1.76,2.17,2.86.54,1.1.81,2.28.81,3.54s-.27,2.38-.81,3.47c-.54,1.09-1.26,2.04-2.17,2.84-.91.81-1.97,1.45-3.18,1.92-1.21.48-2.48.73-3.83.76ZM41.99,38.62c-.87,0-1.67.15-2.42.45-.75.3-1.41.72-1.99,1.25-.58.54-1.04,1.16-1.37,1.86-.33.7-.49,1.45-.49,2.26s.16,1.51.49,2.22c.33.7.78,1.31,1.34,1.84.57.52,1.23.94,1.99,1.25.76.31,1.57.47,2.44.47s1.68-.16,2.44-.47c.76-.31,1.42-.73,1.97-1.25.55-.52.99-1.13,1.32-1.84.33-.7.49-1.44.49-2.22s-.16-1.56-.49-2.26c-.33-.7-.77-1.32-1.32-1.86-.55-.54-1.21-.95-1.97-1.25-.76-.3-1.57-.45-2.44-.45ZM49.46,36.47v-10.7h-9.36v-3.36h9.36v-10.25h3.67v24.31h-3.67Z"/>
        <path d="M82.59,42.25c-.98-.42-2-.95-3.04-1.59-1.04-.64-2.04-1.39-3-2.26-.96-.87-1.84-1.86-2.66-3-.82-1.13-1.52-2.4-2.08-3.81-.45,1.43-1.04,2.75-1.77,3.94-.73,1.19-1.55,2.27-2.46,3.22-.91.96-1.89,1.8-2.93,2.53-1.04.73-2.1,1.38-3.18,1.95l-2.55-2.46c1.4-.75,2.75-1.65,4.05-2.71,1.3-1.06,2.45-2.3,3.45-3.72,1-1.42,1.8-3.04,2.39-4.88.6-1.84.9-3.9.9-6.2v-4.57h-8.42v-3.54h21.22v3.49l-8.86.04v4.52c0,2.3.38,4.36,1.14,6.2.76,1.84,1.71,3.44,2.84,4.81,1.13,1.37,2.38,2.52,3.74,3.45,1.36.93,2.63,1.61,3.83,2.06l-2.6,2.51ZM91.81,30.79v22.29h-3.67V12.16h3.67v15.09h6.18v3.54h-6.18Z"/>
      </g>
    </g>
  </g>
</svg>