<?xml version="1.0" encoding="UTF-8"?>
<svg id="_레이어_2" data-name="레이어_2" xmlns="http://www.w3.org/2000/svg" viewBox="0 0 155.47 155.47">
  <defs>
    <style>
      .cls-1 {
        fill: #fff;
      }

      .cls-2 {
        fill: #c7ddff;
        stroke: #fff;
        stroke-width: 2.26px;
      }

      .cls-2, .cls-3 {
        stroke-linecap: round;
        stroke-linejoin: round;
      }

      .cls-4 {
        fill: #606060;
      }

      .cls-5 {
        fill: #8e8e8e;
      }

      .cls-3 {
        fill: none;
        stroke: #000;
        stroke-width: 1.51px;
      }

      .cls-6 {
        fill: #a5a5a5;
      }

      .cls-7 {
        fill: #ededed;
      }
    </style>
  </defs>
  <g id="button">
    <g>
      <circle class="cls-2" cx="77.73" cy="77.73" r="76.6"/>
      <g>
        <polygon class="cls-6" points="98.36 36.65 31.69 59 58.02 80.68 123.22 57.74 98.36 36.65"/>
        <polygon class="cls-4" points="31.69 59 21.02 85.12 53.16 112.74 58.02 80.68 31.69 59"/>
        <path class="cls-5" d="M58.02,80.68l-4.85,32.06,77.89-28.1c2.06-.74,3.04-3.08,2.13-5.07l-9.97-21.82-65.2,22.93Z"/>
        <polygon class="cls-7" points="75.2 45.13 70.3 76.39 82.35 72.25 87.06 40.42 75.2 45.13"/>
        <polygon class="cls-7" points="62.95 48.71 58.06 79.97 64.27 78.08 68.42 46.07 62.95 48.71"/>
        <path class="cls-1" d="M58.02,81.24c-.13,0-.26-.04-.36-.13l-26.2-21.68c-.24-.2-.27-.55-.07-.79.2-.24.55-.27.79-.07l25.96,21.48,64.91-22.08c.29-.1.61.06.71.35.1.29-.06.61-.35.71l-65.2,22.18c-.06.02-.12.03-.18.03Z"/>
        <path class="cls-3" d="M123.22,57.74l-22.33-18.95c-1.57-1.33-3.72-1.75-5.68-1.09l-60.27,20.2c-2.07.69-3.73,2.25-4.55,4.27l-8.11,19.84c-.76,1.85-.24,3.98,1.27,5.28l26.9,23.11c1.67,1.44,3.99,1.86,6.06,1.11l74.06-26.72c2.31-.83,3.42-3.47,2.4-5.71l-9.75-21.35Z"/>
      </g>
    </g>
  </g>
</svg>