<?xml version="1.0" encoding="UTF-8"?>
<svg id="_레이어_2" data-name="레이어_2" xmlns="http://www.w3.org/2000/svg" viewBox="0 0 69.74 69.74">
  <defs>
    <style>
      .cls-1 {
        fill: #fff;
        stroke: #a3a3a3;
        stroke-linecap: round;
        stroke-linejoin: round;
        stroke-width: 2.52px;
      }
    </style>
  </defs>
  <g id="button">
    <g>
      <circle class="cls-1" cx="34.87" cy="34.87" r="33.61"/>
      <path d="M38.87,45.94c-.98-.42-1.98-.95-3-1.59-1.01-.64-1.98-1.41-2.89-2.31-.91-.9-1.77-1.91-2.57-3.04-.81-1.13-1.51-2.42-2.1-3.85-.42,1.46-.99,2.79-1.72,3.98-.73,1.19-1.55,2.28-2.46,3.25-.91.97-1.88,1.82-2.91,2.55-1.03.73-2.04,1.37-3.02,1.9l-2.87-2.37c1.4-.78,2.75-1.69,4.05-2.75,1.3-1.06,2.45-2.31,3.47-3.74,1.01-1.43,1.82-3.06,2.42-4.88.6-1.82.9-3.88.9-6.18v-2.28h-8.77v-3.54h8.77v-5.19h3.94v5.19h8.95v3.54h-8.95v2.24c0,2.3.39,4.36,1.16,6.2.78,1.84,1.74,3.45,2.89,4.83,1.15,1.39,2.4,2.54,3.76,3.47,1.36.93,2.62,1.63,3.78,2.1l-2.82,2.46ZM48.31,34.03v22.29h-3.67V15.41h3.67v15.09h6.18v3.54h-6.18Z"/>
    </g>
  </g>
</svg>