<?xml version="1.0" encoding="UTF-8"?>
<svg id="_레이어_2" data-name="레이어_2" xmlns="http://www.w3.org/2000/svg" viewBox="0 0 69.74 69.74">
  <defs>
    <style>
      .cls-1 {
        fill: #fff;
        stroke: #a3a3a3;
        stroke-linecap: round;
        stroke-linejoin: round;
        stroke-width: 2.52px;
      }
    </style>
  </defs>
  <g id="button">
    <g>
      <circle class="cls-1" cx="34.87" cy="34.87" r="33.61"/>
      <path d="M39.03,35.48c-1.01-.21-2.05-.54-3.11-.98-1.06-.45-2.08-1.01-3.07-1.68-.98-.67-1.89-1.47-2.71-2.39-.82-.92-1.5-1.95-2.04-3.09-.42,1.16-1.02,2.24-1.81,3.22-.79.98-1.68,1.87-2.66,2.66-.98.79-2.03,1.47-3.13,2.04-1.1.57-2.16,1-3.18,1.3l-2.15-2.6c1.52-.48,2.92-1.11,4.21-1.9,1.28-.79,2.39-1.71,3.34-2.75.94-1.04,1.69-2.2,2.26-3.47.57-1.27.9-2.62.98-4.05h-8.51v-3.27h8.59v-3.54h3.85v3.54h8.55v3.27h-8.46c.12,1.43.52,2.75,1.21,3.96.69,1.21,1.54,2.29,2.57,3.25,1.03.96,2.18,1.76,3.45,2.42,1.27.66,2.54,1.13,3.83,1.43l-2.01,2.64ZM25.87,56.83v-10.65h19.74v-3.89h-19.74v-3.36h23.41v10.52h-19.7v4.07h20.59v3.31h-24.31ZM45.79,37.85v-9.98h-9.45v-3.36h9.45v-8.33h3.67v21.67h-3.67Z"/>
    </g>
  </g>
</svg>