<?xml version="1.0" encoding="UTF-8"?>
<svg id="_레이어_2" width="356.39" height="253.22" data-name="레이어_2" xmlns="http://www.w3.org/2000/svg" xmlns:xlink="http://www.w3.org/1999/xlink" viewBox="0 0 356.39 253.22">
  <defs>
    <style>
      .cls-1 {
        fill: #c18d5d;
      }

      .cls-2, .cls-3, .cls-4, .cls-5, .cls-6 {
        stroke: #000;
        stroke-width: 1.2px;
      }

      .cls-2, .cls-4 {
        fill: #dfbf68;
      }

      .cls-2, .cls-5 {
        stroke-miterlimit: 10;
      }

      .cls-3, .cls-7 {
        fill: none;
      }

      .cls-3, .cls-4, .cls-6 {
        stroke-linecap: round;
        stroke-linejoin: round;
      }

      .cls-8 {
        fill: #88644a;
      }

      .cls-9 {
        fill: #bf3a25;
      }

      .cls-10 {
        fill: #eda400;
      }

      .cls-11 {
        fill: #c9c9c9;
      }

      .cls-12 {
        fill: #c49c4e;
      }

      .cls-13 {
        fill: #e2e2e2;
      }

      .cls-14 {
        fill: #8e8e8e;
      }

      .cls-15 {
        clip-path: url(#clippath-1);
      }

      .cls-16 {
        fill: #70522e;
      }

      .cls-17 {
        fill: #c39d7e;
      }

      .cls-18 {
        fill: #333;
      }

      .cls-19 {
        fill: #e7e3c4;
      }

      .cls-20 {
        fill: #d6bc96;
      }

      .cls-21 {
        fill: #ef4300;
      }

      .cls-22 {
        fill: #a5a5a5;
      }

      .cls-23 {
        clip-path: url(#clippath-2);
      }

      .cls-24 {
        font-family: HakgyoansimSantteutdotumM, 'Hakgyoansim Santteutdotumthic';
        font-size: 29.89px;
      }

      .cls-25 {
        fill: #b78349;
      }

      .cls-26 {
        fill: #966223;
      }

      .cls-5 {
        fill: #d9c5b8;
      }

      .cls-6 {
        fill: #fff;
      }

      .cls-27 {
        fill: #663e12;
      }

      .cls-28 {
        clip-path: url(#clippath);
      }

      .cls-29 {
        fill: #876b46;
      }
    </style>
    <clipPath id="clippath">
      <path class="cls-7" d="M264.51,80.53c0,2.15-5.2,3.89-11.62,3.89s-11.62-1.74-11.62-3.89,5.2-14.11,11.62-14.11,11.62,11.96,11.62,14.11Z"/>
    </clipPath>
    <clipPath id="clippath-1">
      <path class="cls-7" d="M322.5,114.29c0,2.77-6.69,5.01-14.95,5.01s-14.95-2.24-14.95-5.01,6.69-18.17,14.95-18.17,14.95,15.4,14.95,18.17Z"/>
    </clipPath>
    <clipPath id="clippath-2">
      <polygon class="cls-7" points="129.25 80.94 95.37 101.41 96.61 119.98 116.19 119.98 139.08 91 129.25 80.94"/>
    </clipPath>
  </defs>
  <g id="Layer_6">
    <g>
      <g>
        <ellipse class="cls-19" cx="189.78" cy="144.1" rx="151.55" ry="59.62"/>
        <g>
          <g>
            <rect class="cls-17" x="173.06" y="70.64" width="80.7" height="30.93"/>
            <path d="M254.13,101.93h-81.43v-31.66h81.43v31.66ZM173.42,101.2h79.98v-30.21h-79.98v30.21Z"/>
          </g>
          <path class="cls-5" d="M170.18,101.57h87.11c.3,0,.54.24.54.54v5.65h-88.2v-5.65c0-.3.24-.54.54-.54Z"/>
          <g>
            <rect class="cls-18" x="206.81" y="78.09" width="13.2" height="23.48"/>
            <path d="M220.37,101.93h-13.93v-24.2h13.93v24.2ZM207.17,101.2h12.48v-22.75h-12.48v22.75Z"/>
          </g>
          <g>
            <rect class="cls-8" x="173.06" y="70.64" width="2.5" height="30.93"/>
            <path d="M175.92,101.93h-3.23v-31.66h3.23v31.66ZM173.42,101.2h1.78v-30.21h-1.78v30.21Z"/>
          </g>
          <g>
            <rect class="cls-8" x="192.44" y="70.64" width="2.5" height="30.93"/>
            <path d="M195.3,101.93h-3.23v-31.66h3.23v31.66ZM192.8,101.2h1.78v-30.21h-1.78v30.21Z"/>
          </g>
          <g>
            <rect class="cls-8" x="231.88" y="70.64" width="2.5" height="30.93" transform="translate(466.27 172.2) rotate(180)"/>
            <path d="M234.75,101.93h-3.23v-31.66h3.23v31.66ZM232.24,101.2h1.78v-30.21h-1.78v30.21Z"/>
          </g>
          <g>
            <rect class="cls-8" x="251.26" y="70.64" width="2.5" height="30.93" transform="translate(505.02 172.2) rotate(180)"/>
            <path d="M254.13,101.93h-3.23v-31.66h3.23v31.66ZM251.62,101.2h1.78v-30.21h-1.78v30.21Z"/>
          </g>
          <path class="cls-2" d="M160.84,71.49c-1.75,0-2.9-1.83-2.14-3.4,3.87-8.01,17.13-27.4,54.71-27.4,37.58,0,50.83,19.39,54.71,27.4.76,1.58-.39,3.4-2.14,3.4h-105.14Z"/>
          <g>
            <path class="cls-12" d="M259.12,68.69c-.55,0-1.08-.32-1.32-.85-3.21-7.02-13.96-23.34-44.39-23.34s-41.17,16.32-44.39,23.34c-.33.73-1.2,1.05-1.92.72-.73-.33-1.05-1.2-.72-1.92,3.44-7.53,14.92-25.03,47.03-25.03s43.58,17.51,47.03,25.03c.33.73.01,1.59-.72,1.92-.2.09-.4.13-.6.13Z"/>
            <path class="cls-12" d="M176.74,68.69c-.17,0-.33-.03-.5-.09-.75-.28-1.14-1.11-.86-1.86,2.77-7.56,12.04-25.14,38.04-25.14s35.26,17.58,38.04,25.14c.28.75-.11,1.59-.86,1.86-.75.27-1.59-.11-1.86-.86-2.57-6.99-11.14-23.23-35.31-23.23s-32.75,16.25-35.31,23.23c-.22.59-.77.95-1.36.95Z"/>
            <path class="cls-12" d="M239.66,68.69c-.64,0-1.23-.43-1.4-1.08-1.83-6.95-7.9-23.1-24.85-23.1s-23.02,16.16-24.85,23.1c-.2.77-.99,1.24-1.77,1.03-.78-.2-1.24-1-1.03-1.77,2-7.6,8.69-25.27,27.66-25.27s25.66,17.67,27.66,25.27c.2.78-.26,1.57-1.03,1.77-.12.03-.25.05-.37.05Z"/>
            <path class="cls-12" d="M227.56,68.69c-.71,0-1.33-.52-1.43-1.25-.76-5.38-3.93-22.94-12.71-22.94s-11.95,17.56-12.71,22.94c-.11.79-.86,1.34-1.64,1.23-.79-.11-1.35-.85-1.23-1.64,1.08-7.65,4.77-25.43,15.59-25.43s14.5,17.79,15.59,25.43c.11.79-.44,1.53-1.23,1.64-.07,0-.14.02-.21.02Z"/>
            <path class="cls-12" d="M218.14,68.69c-.77,0-1.41-.61-1.45-1.38-.73-15.33-2.35-21.27-3.28-22.61-.93,1.34-2.56,7.28-3.28,22.61-.04.8-.73,1.43-1.52,1.38-.8-.04-1.42-.72-1.38-1.52,1.21-25.57,4.57-25.57,6.18-25.57s4.97,0,6.18,25.57c.04.8-.58,1.48-1.38,1.52-.02,0-.05,0-.07,0Z"/>
          </g>
        </g>
        <g>
          <g>
            <rect class="cls-17" x="72.94" y="75.47" width="63.47" height="24.32"/>
            <path d="M136.69,100.08h-64.04v-24.89h64.04v24.89ZM73.23,99.51h62.9v-23.75h-62.9v23.75Z"/>
          </g>
          <path class="cls-5" d="M70.79,99.8h68.27c.3,0,.54.24.54.54v4.33h-69.36v-4.33c0-.3.24-.54.54-.54Z"/>
          <g>
            <rect class="cls-18" x="99.48" y="81.33" width="10.38" height="18.46"/>
            <path d="M110.15,100.08h-10.95v-19.03h10.95v19.03ZM99.77,99.51h9.81v-17.89h-9.81v17.89Z"/>
          </g>
          <g>
            <rect class="cls-8" x="72.94" y="75.47" width="1.97" height="24.32"/>
            <path d="M75.2,100.08h-2.54v-24.89h2.54v24.89ZM73.23,99.51h1.4v-23.75h-1.4v23.75Z"/>
          </g>
          <g>
            <rect class="cls-8" x="88.18" y="75.47" width="1.97" height="24.32"/>
            <path d="M90.44,100.08h-2.54v-24.89h2.54v24.89ZM88.47,99.51h1.4v-23.75h-1.4v23.75Z"/>
          </g>
          <g>
            <rect class="cls-8" x="119.2" y="75.47" width="1.97" height="24.32" transform="translate(240.37 175.27) rotate(180)"/>
            <path d="M121.45,100.08h-2.54v-24.89h2.54v24.89ZM119.49,99.51h1.4v-23.75h-1.4v23.75Z"/>
          </g>
          <g>
            <rect class="cls-8" x="134.44" y="75.47" width="1.97" height="24.32" transform="translate(270.85 175.27) rotate(180)"/>
            <path d="M136.69,100.08h-2.54v-24.89h2.54v24.89ZM134.73,99.51h1.4v-23.75h-1.4v23.75Z"/>
          </g>
          <path class="cls-4" d="M63.34,76.15c-1.38,0-2.28-1.44-1.68-2.68,3.05-6.3,13.47-21.55,43.02-21.55,29.55,0,39.98,15.25,43.02,21.55.6,1.24-.31,2.68-1.68,2.68H63.34Z"/>
          <g>
            <path class="cls-12" d="M140.62,73.94c-.43,0-.85-.25-1.04-.67-2.53-5.52-10.98-18.35-34.91-18.35s-32.38,12.83-34.91,18.35c-.26.57-.94.82-1.51.56-.57-.26-.83-.94-.56-1.51,2.71-5.92,11.74-19.69,36.98-19.69s34.27,13.77,36.98,19.69c.26.57,0,1.25-.56,1.51-.15.07-.32.1-.47.1Z"/>
            <path class="cls-12" d="M133.52,73.94c-.47,0-.9-.29-1.07-.75-2.02-5.49-8.76-18.27-27.77-18.27s-25.75,12.78-27.77,18.27c-.22.59-.88.89-1.47.68-.59-.22-.9-.87-.68-1.47,2.18-5.94,9.47-19.77,29.91-19.77s27.73,13.83,29.91,19.77c.22.59-.09,1.25-.68,1.47-.13.05-.26.07-.39.07Z"/>
            <path class="cls-12" d="M125.32,73.94c-.51,0-.97-.34-1.1-.85-1.44-5.46-6.21-18.17-19.54-18.17s-18.11,12.71-19.54,18.17c-.16.61-.78.98-1.39.81-.61-.16-.97-.78-.81-1.39,1.57-5.97,6.83-19.87,21.75-19.87s20.18,13.9,21.75,19.87c.16.61-.2,1.24-.81,1.39-.1.03-.2.04-.29.04Z"/>
            <path class="cls-12" d="M115.8,73.94c-.56,0-1.05-.41-1.13-.98-.6-4.23-3.09-18.04-10-18.04s-9.4,13.81-10,18.04c-.09.62-.67,1.06-1.29.97-.62-.09-1.06-.67-.97-1.29.85-6.01,3.75-20,12.26-20s11.41,13.99,12.26,20c.09.63-.35,1.2-.97,1.29-.05,0-.11.01-.16.01Z"/>
            <path class="cls-12" d="M108.4,73.94c-.61,0-1.11-.48-1.14-1.09-.57-12.06-1.85-16.73-2.58-17.78-.73,1.05-2.01,5.72-2.58,17.78-.03.63-.56,1.13-1.19,1.09-.63-.03-1.12-.56-1.09-1.19.95-20.11,3.59-20.11,4.86-20.11s3.91,0,4.86,20.11c.03.63-.46,1.17-1.09,1.19-.02,0-.04,0-.06,0Z"/>
          </g>
        </g>
        <g>
          <g>
            <rect class="cls-17" x="12.08" y="103.06" width="63.47" height="24.32"/>
            <path d="M75.83,127.67H11.79v-24.89h64.04v24.89ZM12.36,127.1h62.9v-23.75H12.36v23.75Z"/>
          </g>
          <path class="cls-5" d="M9.93,127.38h68.27c.3,0,.54.24.54.54v4.33H9.39v-4.33c0-.3.24-.54.54-.54Z"/>
          <g>
            <rect class="cls-18" x="38.62" y="108.92" width="10.38" height="18.46"/>
            <path d="M49.29,127.67h-10.95v-19.03h10.95v19.03ZM38.91,127.1h9.81v-17.89h-9.81v17.89Z"/>
          </g>
          <g>
            <rect class="cls-8" x="12.08" y="103.06" width="1.97" height="24.32"/>
            <path d="M14.33,127.67h-2.54v-24.89h2.54v24.89ZM12.36,127.1h1.4v-23.75h-1.4v23.75Z"/>
          </g>
          <g>
            <rect class="cls-8" x="27.32" y="103.06" width="1.97" height="24.32"/>
            <path d="M29.57,127.67h-2.54v-24.89h2.54v24.89ZM27.6,127.1h1.4v-23.75h-1.4v23.75Z"/>
          </g>
          <g>
            <rect class="cls-8" x="58.34" y="103.06" width="1.97" height="24.32" transform="translate(118.64 230.44) rotate(180)"/>
            <path d="M60.59,127.67h-2.54v-24.89h2.54v24.89ZM58.62,127.1h1.4v-23.75h-1.4v23.75Z"/>
          </g>
          <g>
            <rect class="cls-8" x="73.58" y="103.06" width="1.97" height="24.32" transform="translate(149.12 230.44) rotate(180)"/>
            <path d="M75.83,127.67h-2.54v-24.89h2.54v24.89ZM73.86,127.1h1.4v-23.75h-1.4v23.75Z"/>
          </g>
          <path class="cls-4" d="M2.47,103.73c-1.38,0-2.28-1.44-1.68-2.68,3.05-6.3,13.47-21.55,43.02-21.55,29.55,0,39.98,15.25,43.02,21.55.6,1.24-.31,2.68-1.68,2.68H2.47Z"/>
          <g>
            <path class="cls-12" d="M79.76,101.52c-.43,0-.85-.25-1.04-.67-2.53-5.52-10.98-18.35-34.91-18.35s-32.38,12.83-34.91,18.35c-.26.57-.94.82-1.51.56-.57-.26-.83-.94-.56-1.51,2.71-5.92,11.74-19.69,36.98-19.69s34.27,13.77,36.98,19.69c.26.57,0,1.25-.56,1.51-.15.07-.32.1-.47.1Z"/>
            <path class="cls-12" d="M72.65,101.52c-.47,0-.9-.29-1.07-.75-2.02-5.49-8.76-18.27-27.77-18.27s-25.75,12.78-27.77,18.27c-.22.59-.88.89-1.47.68-.59-.22-.9-.87-.68-1.47,2.18-5.94,9.47-19.77,29.91-19.77s27.73,13.83,29.91,19.77c.22.59-.09,1.25-.68,1.47-.13.05-.26.07-.39.07Z"/>
            <path class="cls-12" d="M64.46,101.52c-.51,0-.97-.34-1.1-.85-1.44-5.46-6.21-18.17-19.54-18.17s-18.11,12.71-19.54,18.17c-.16.61-.78.98-1.39.81-.61-.16-.97-.78-.81-1.39,1.57-5.97,6.83-19.87,21.75-19.87s20.18,13.9,21.75,19.87c.16.61-.2,1.24-.81,1.39-.1.03-.2.04-.29.04Z"/>
            <path class="cls-12" d="M54.94,101.52c-.56,0-1.05-.41-1.13-.98-.6-4.23-3.09-18.04-10-18.04s-9.4,13.81-10,18.04c-.09.62-.67,1.06-1.29.97-.62-.09-1.06-.67-.97-1.29.85-6.01,3.75-20,12.26-20s11.41,13.99,12.26,20c.09.63-.35,1.2-.97,1.29-.05,0-.11.01-.16.01Z"/>
            <path class="cls-12" d="M47.53,101.52c-.61,0-1.11-.48-1.14-1.09-.57-12.06-1.85-16.73-2.58-17.78-.73,1.05-2.01,5.72-2.58,17.78-.03.63-.56,1.13-1.19,1.09-.63-.03-1.12-.56-1.09-1.19.95-20.11,3.59-20.11,4.86-20.11s3.91,0,4.86,20.11c.03.63-.46,1.17-1.09,1.19-.02,0-.04,0-.06,0Z"/>
          </g>
        </g>
        <g>
          <path class="cls-26" d="M268.08,79.56l-29.36-.16c-13.95,15.76-20,49.96-20,49.96-.04.18-.06.36-.06.54,0,5.07,15.25,9.18,34.06,9.18s34.06-4.11,34.06-9.18c0-.18-3.79-32.66-18.71-50.34Z"/>
          <ellipse class="cls-25" cx="253.3" cy="80.77" rx="15.25" ry="5.11"/>
          <path class="cls-3" d="M268.26,79.78c-1.38-2.35-7.55-4.12-14.96-4.12s-13.78,1.83-15.02,4.23c-13.64,15.97-19.56,49.46-19.56,49.46-.04.18-.06.36-.06.54,0,5.07,15.25,9.18,34.06,9.18s34.06-4.11,34.06-9.18c0-.18-3.76-32.39-18.52-50.12Z"/>
          <ellipse class="cls-9" cx="252.9" cy="80.53" rx="11.62" ry="3.89"/>
          <g class="cls-28">
            <path class="cls-21" d="M242.69,85.79c.84-2.25,2.39-4.14,3.65-6.19s1.8-6.79,1.8-6.79c0,0,.61,3.39.92,5.08.92-3.5,1.84-6.99,2.76-10.49.84,3.5,1.68,7,2.51,10.5.53-1.64.83-3.35.9-5.07.32,1.92.63,3.84.95,5.76.7-1.58,1.4-3.15,2.1-4.73,1.77,3.99,3.55,7.99,5.32,11.98l-20.92-.06Z"/>
            <path class="cls-10" d="M246.88,86.66c-.51-.71-.3-1.73.19-2.45s1.22-1.24,1.83-1.86c1.3-1.32,2.09-3.13,2.19-4.98.52,1.87,1.03,3.74,1.55,5.61l.34-2.75c.41.98,1,1.88,1.72,2.66l.33-3.83c.34,1.18.82,2.32,1.42,3.39l.72-3.35c1.4,3.29,2.86,7.59,2.86,7.59l-13.16-.03Z"/>
            <path class="cls-21" d="M246.43,75.5c.02.78.03,1.57-.03,2.36-.03.38-.84,1.58-.84,1.58,0,0,.04-1.51.12-1.92.07-.36.18-.72.31-1.06.09-.24.45-.72.44-.95Z"/>
          </g>
          <path class="cls-27" d="M246.63,136.76c-1.38-2.23-.13-15.89,5.87-15.95s7.87,16.13,5.74,16.41c-1.93.3-11.09.3-11.58-.43l-.03-.04Z"/>
          <path class="cls-9" d="M248.3,135.88c-1-1.61-.1-11.47,4.24-11.51s5.68,11.65,4.15,11.85c-1.39.21-8.01.22-8.36-.31l-.02-.03Z"/>
        </g>
        <g>
          <g>
            <polygon class="cls-14" points="277.06 154.47 278.4 148.82 292.79 148.82 294.36 154.47 277.06 154.47"/>
            <polygon class="cls-22" points="278.48 148.82 279.38 145.06 291.25 145.06 292.79 148.82 278.48 148.82"/>
            <path class="cls-13" d="M293.2,149.09h-14.72c-.14,0-.25-.12-.25-.27s.11-.27.25-.27h14.72c.14,0,.25.12.25.27s-.11.27-.25.27Z"/>
            <polygon class="cls-3" points="293.2 148.73 291.25 145.06 279.38 145.06 278.05 148.8 277.06 154.47 294.36 154.47 293.2 148.73"/>
          </g>
          <g>
            <polygon class="cls-14" points="243.9 154.47 245.24 148.82 259.63 148.82 261.2 154.47 243.9 154.47"/>
            <polygon class="cls-22" points="245.32 148.82 246.21 145.06 258.09 145.06 259.63 148.82 245.32 148.82"/>
            <path class="cls-13" d="M260.04,149.09h-14.72c-.14,0-.25-.12-.25-.27s.11-.27.25-.27h14.72c.14,0,.25.12.25.27s-.11.27-.25.27Z"/>
            <polygon class="cls-3" points="260.04 148.73 258.09 145.06 246.21 145.06 244.88 148.8 243.9 154.47 261.2 154.47 260.04 148.73"/>
          </g>
          <g>
            <polygon class="cls-14" points="260.12 154.47 261.46 148.82 275.85 148.82 277.42 154.47 260.12 154.47"/>
            <polygon class="cls-22" points="261.53 148.82 262.43 145.06 274.3 145.06 275.85 148.82 261.53 148.82"/>
            <path class="cls-13" d="M276.26,149.09h-14.72c-.14,0-.25-.12-.25-.27s.11-.27.25-.27h14.72c.14,0,.25.12.25.27s-.11.27-.25.27Z"/>
            <polygon class="cls-3" points="276.26 148.73 274.3 145.06 262.43 145.06 261.1 148.8 260.12 154.47 277.42 154.47 276.26 148.73"/>
          </g>
          <g>
            <polygon class="cls-14" points="250.2 147.98 251.53 142.32 265.92 142.32 267.5 147.98 250.2 147.98"/>
            <polygon class="cls-22" points="251.61 142.32 252.51 138.56 264.38 138.56 265.92 142.32 251.61 142.32"/>
            <path class="cls-13" d="M266.34,142.59h-14.72c-.14,0-.25-.12-.25-.27s.11-.27.25-.27h14.72c.14,0,.25.12.25.27s-.11.27-.25.27Z"/>
            <polygon class="cls-3" points="266.34 142.24 264.38 138.56 252.51 138.56 251.18 142.3 250.2 147.98 267.5 147.98 266.34 142.24"/>
          </g>
          <g>
            <polygon class="cls-14" points="267.81 147.98 269.15 142.32 283.54 142.32 285.11 147.98 267.81 147.98"/>
            <polygon class="cls-22" points="269.23 142.32 270.13 138.56 282 138.56 283.54 142.32 269.23 142.32"/>
            <path class="cls-13" d="M283.95,142.59h-14.72c-.14,0-.25-.12-.25-.27s.11-.27.25-.27h14.72c.14,0,.25.12.25.27s-.11.27-.25.27Z"/>
            <polygon class="cls-3" points="283.95 142.24 282 138.56 270.13 138.56 268.79 142.3 267.81 147.98 285.11 147.98 283.95 142.24"/>
          </g>
          <g>
            <polygon class="cls-14" points="259 141 260.34 135.35 274.73 135.35 276.3 141 259 141"/>
            <polygon class="cls-22" points="260.42 135.35 261.32 131.59 273.19 131.59 274.73 135.35 260.42 135.35"/>
            <path class="cls-13" d="M275.14,135.62h-14.72c-.14,0-.25-.12-.25-.27s.11-.27.25-.27h14.72c.14,0,.25.12.25.27s-.11.27-.25.27Z"/>
            <polygon class="cls-3" points="275.14 135.27 273.19 131.59 261.32 131.59 259.99 135.33 259 141 276.3 141 275.14 135.27"/>
          </g>
        </g>
        <g>
          <path class="cls-26" d="M327.08,113.04l-37.79-.21c-17.96,20.29-25.74,64.32-25.74,64.32-.05.23-.08.46-.08.7,0,6.53,19.63,11.82,43.85,11.82s43.85-5.29,43.85-11.82c0-.23-4.88-42.05-24.08-64.8Z"/>
          <ellipse class="cls-25" cx="308.07" cy="114.6" rx="19.63" ry="6.58"/>
          <path class="cls-3" d="M327.32,113.33c-1.78-3.02-9.72-5.3-19.25-5.3s-17.74,2.35-19.33,5.45c-17.56,20.56-25.18,63.67-25.18,63.67-.05.23-.08.46-.08.7,0,6.53,19.63,11.82,43.85,11.82s43.85-5.29,43.85-11.82c0-.23-4.84-41.7-23.85-64.52Z"/>
          <ellipse class="cls-9" cx="307.55" cy="114.29" rx="14.95" ry="5.01"/>
          <g class="cls-15">
            <path class="cls-21" d="M294.41,121.06c1.08-2.89,3.08-5.33,4.7-7.96s2.32-8.75,2.32-8.75c0,0,.79,4.36,1.18,6.54,1.18-4.5,2.37-9,3.55-13.5,1.08,4.5,2.16,9.01,3.24,13.51.68-2.11,1.07-4.31,1.16-6.53.41,2.47.81,4.95,1.22,7.42.9-2.03,1.8-4.06,2.71-6.08,2.28,5.14,4.57,10.28,6.85,15.43l-26.93-.08Z"/>
            <path class="cls-10" d="M299.8,122.19c-.65-.91-.38-2.22.25-3.15s1.56-1.6,2.35-2.4c1.67-1.7,2.7-4.03,2.82-6.41.66,2.41,1.33,4.82,1.99,7.22l.44-3.54c.53,1.26,1.29,2.42,2.22,3.42l.43-4.93c.44,1.52,1.05,2.98,1.82,4.36.31-1.44.62-2.87.93-4.31,1.81,4.24,3.69,9.77,3.69,9.77l-16.94-.04Z"/>
            <path class="cls-21" d="M299.23,107.82c.02,1.01.04,2.02-.04,3.03-.04.49-1.09,2.03-1.09,2.03,0,0,.05-1.94.16-2.47.1-.46.23-.92.4-1.36.11-.3.58-.93.57-1.23Z"/>
          </g>
          <path class="cls-27" d="M299.39,187.47c-1.76-2.89.01-20.46,7.74-20.46s9.95,20.86,7.2,21.19c-2.49.36-14.28.26-14.9-.69l-.04-.05Z"/>
          <path class="cls-9" d="M302.1,185.49c-1.14-1.88,0-13.28,5.03-13.28s6.46,13.54,4.68,13.76c-1.62.23-9.27.17-9.68-.45l-.02-.03Z"/>
        </g>
        <g>
          <g>
            <polygon class="cls-14" points="338.49 203.58 339.82 197.93 354.21 197.93 355.78 203.58 338.49 203.58"/>
            <polygon class="cls-22" points="339.9 197.93 340.8 194.17 352.67 194.17 354.21 197.93 339.9 197.93"/>
            <path class="cls-13" d="M354.62,198.2h-14.72c-.14,0-.25-.12-.25-.27s.11-.27.25-.27h14.72c.14,0,.25.12.25.27s-.11.27-.25.27Z"/>
            <polygon class="cls-3" points="354.63 197.85 352.67 194.17 340.8 194.17 339.47 197.91 338.49 203.58 355.78 203.58 354.63 197.85"/>
          </g>
          <g>
            <polygon class="cls-14" points="305.32 203.58 306.66 197.93 321.05 197.93 322.62 203.58 305.32 203.58"/>
            <polygon class="cls-22" points="306.74 197.93 307.64 194.17 319.51 194.17 321.05 197.93 306.74 197.93"/>
            <path class="cls-13" d="M321.46,198.2h-14.72c-.14,0-.25-.12-.25-.27s.11-.27.25-.27h14.72c.14,0,.25.12.25.27s-.11.27-.25.27Z"/>
            <polygon class="cls-3" points="321.46 197.85 319.51 194.17 307.64 194.17 306.31 197.91 305.32 203.58 322.62 203.58 321.46 197.85"/>
          </g>
          <g>
            <polygon class="cls-14" points="321.54 203.58 322.88 197.93 337.27 197.93 338.84 203.58 321.54 203.58"/>
            <polygon class="cls-22" points="322.96 197.93 323.86 194.17 335.73 194.17 337.27 197.93 322.96 197.93"/>
            <path class="cls-13" d="M337.68,198.2h-14.72c-.14,0-.25-.12-.25-.27s.11-.27.25-.27h14.72c.14,0,.25.12.25.27s-.11.27-.25.27Z"/>
            <polygon class="cls-3" points="337.68 197.85 335.73 194.17 323.86 194.17 322.53 197.91 321.54 203.58 338.84 203.58 337.68 197.85"/>
          </g>
          <g>
            <polygon class="cls-14" points="311.62 197.09 312.96 191.43 327.35 191.43 328.92 197.09 311.62 197.09"/>
            <polygon class="cls-22" points="313.04 191.43 313.94 187.67 325.81 187.67 327.35 191.43 313.04 191.43"/>
            <path class="cls-13" d="M327.76,191.7h-14.72c-.14,0-.25-.12-.25-.27s.11-.27.25-.27h14.72c.14,0,.25.12.25.27s-.11.27-.25.27Z"/>
            <polygon class="cls-3" points="327.76 191.35 325.81 187.67 313.94 187.67 312.6 191.41 311.62 197.09 328.92 197.09 327.76 191.35"/>
          </g>
          <g>
            <polygon class="cls-14" points="329.23 197.09 330.57 191.43 344.96 191.43 346.53 197.09 329.23 197.09"/>
            <polygon class="cls-22" points="330.65 191.43 331.55 187.67 343.42 187.67 344.96 191.43 330.65 191.43"/>
            <path class="cls-13" d="M345.37,191.7h-14.72c-.14,0-.25-.12-.25-.27s.11-.27.25-.27h14.72c.14,0,.25.12.25.27s-.11.27-.25.27Z"/>
            <polygon class="cls-3" points="345.37 191.35 343.42 187.67 331.55 187.67 330.22 191.41 329.23 197.09 346.53 197.09 345.37 191.35"/>
          </g>
          <g>
            <polygon class="cls-14" points="320.43 190.12 321.76 184.46 336.15 184.46 337.73 190.12 320.43 190.12"/>
            <polygon class="cls-22" points="321.84 184.46 322.74 180.7 334.61 180.7 336.15 184.46 321.84 184.46"/>
            <path class="cls-13" d="M336.57,184.73h-14.72c-.14,0-.25-.12-.25-.27s.11-.27.25-.27h14.72c.14,0,.25.12.25.27s-.11.27-.25.27Z"/>
            <polygon class="cls-3" points="336.57 184.38 334.61 180.7 322.74 180.7 321.41 184.44 320.43 190.12 337.73 190.12 336.57 184.38"/>
          </g>
        </g>
        <g>
          <g>
            <rect class="cls-1" x="66.16" y="129.16" width="10.65" height="49.8"/>
            <polygon class="cls-20" points="66.16 129.16 90.95 103.22 100.14 103.22 76.82 129.16 66.16 129.16"/>
            <polygon class="cls-16" points="76.82 129.16 76.82 178.03 100.14 143.52 100.14 103.22 76.82 129.16"/>
            <polygon class="cls-3" points="90.95 103.22 66.16 129.16 66.16 178.96 76.82 178.96 100.14 143.52 100.14 103.22 90.95 103.22"/>
          </g>
          <polygon class="cls-20" points="118.65 87.03 86.12 126.16 119.09 126.16 148.99 87.03 118.65 87.03"/>
          <polygon class="cls-1" points="86.12 126.16 78.97 188.26 126.13 188.26 119.09 126.16 86.12 126.16"/>
          <polygon class="cls-29" points="119.09 126.16 126.13 188.26 159.1 131.87 148.99 87.03 119.09 126.16"/>
          <polygon class="cls-3" points="148.99 87.03 118.65 87.03 86.12 126.16 78.97 188.26 126.13 188.26 159.1 131.87 148.99 87.03"/>
          <polygon class="cls-9" points="120.82 91 96.61 119.98 116.19 119.98 139.08 91 120.82 91"/>
          <path class="cls-11" d="M105.68,113.83c-3.63-2.04-6.14-5.96-6.48-10.12-.33-4.16,1.52-8.43,4.79-11.02-3.01-3.59-4.17-8.65-3.03-13.19,1.14-4.54,4.56-8.45,8.92-10.19-1.97-2.91-1.99-7-.06-9.93s5.7-4.53,9.15-3.88c-2.38-5.69-1.92-12.49,1.21-17.81,3.12-5.32,8.84-9.03,14.97-9.73-1.09-3.72-.11-7.98,2.49-10.84s6.75-4.24,10.56-3.51c-.45-3.38,1.07-6.85,3.54-9.19s5.8-3.66,9.17-4.17c4.46-.68,9.22,0,13.02,2.45,3.8,2.44,6.48,6.76,6.43,11.27s-3.12,8.98-7.48,10.15c.97,7.2.06,14.78-3.39,21.18-3.45,6.4-9.57,11.49-16.7,12.92,1.89,7.91-4.02,16.79-12.05,18.09.85,3.29.14,6.95-1.88,9.69-2.02,2.74-5.3,4.5-8.7,4.67,2.38,5.51-.92,12.74-6.66,14.54"/>
          <g class="cls-23">
            <path class="cls-21" d="M102.03,120.77c.84-5.9,2.59-13.97,3.43-19.88.74,2.73,1.48,5.46,2.21,8.19.35-1.32.71-2.64,1.06-3.96.84,1.79,1.68,3.58,2.52,5.37.52-5.03,1.44-10.02,2.77-14.91,1.27,1.63,2.08,3.62,2.3,5.68.43-2.21.86-4.41,1.29-6.62.63,1.28,1.26,2.57,1.89,3.85.78-3.44,1.09-6.98.91-10.5,1.33,3.23,2.24,6.64,2.69,10.1-.01-2.04.82-4.08,2.27-5.52.12,1.98.25,3.95.37,5.93,1.73-3.77,2.41-8,1.95-12.12,1.01,3.84,2.01,7.67,3.02,11.51.5-2.77,1.01-5.55,1.51-8.32.94,3.02,1.5,6.15,1.68,9.31l-3.07,16.94-25.41,11.12-3.4-6.18Z"/>
            <path class="cls-10" d="M103.39,121.59c1.55-3.36,2.43-7.04,2.56-10.74.73,2.07,1.15,4.26,1.24,6.45.42-1.13.84-2.26,1.27-3.39.64,1.47,1.28,2.94,1.91,4.41.03-1.61.36-3.21.97-4.7.18,1.06.93,2.02,1.92,2.44.95-4.1,1.56-8.27,1.83-12.46.31,1.71.63,3.42.94,5.13.42-1.81.84-3.62,1.27-5.43.64,1.4,1.57,2.67,2.71,3.7.88-2.27,1.41-4.67,1.56-7.1.24,1.65.88,3.23,1.83,4.6.57-1.62,1.14-3.24,1.71-4.86-.34,1.11,1.92,2.19,1.92,2.19l1.1-2.7.4,2.07s.83-1.43,1.24-2.14c.34,2.07.68,4.15,1.03,6.22l-12.49,15.76-14.91.55Z"/>
            <path class="cls-10" d="M113.69,103.1c.01.79.25,1.55.48,2.31.18-1.11.36-2.22.54-3.34.08-.46-.33-1.63-.33-1.63,0,0-.7,2.05-.69,2.66Z"/>
            <path class="cls-10" d="M121.15,97.56c.05.48.23.94.42,1.4.05-.69.1-1.39.16-2.08.02-.29-.29-.99-.29-.99,0,0-.32,1.3-.29,1.67Z"/>
            <path class="cls-10" d="M127.9,96.86c.05.48.23.94.42,1.4.05-.69.1-1.39.16-2.08.02-.29-.29-.99-.29-.99,0,0-.32,1.3-.29,1.67Z"/>
          </g>
          <g>
            <g>
              <polygon class="cls-14" points="182.32 146.84 183.66 141.19 198.04 141.19 199.62 146.84 182.32 146.84"/>
              <polygon class="cls-22" points="183.73 141.19 184.63 137.43 196.5 137.43 198.04 141.19 183.73 141.19"/>
              <path class="cls-13" d="M198.46,141.46h-14.72c-.14,0-.25-.12-.25-.27s.11-.27.25-.27h14.72c.14,0,.25.12.25.27s-.11.27-.25.27Z"/>
              <polygon class="cls-3" points="198.46 141.11 196.5 137.43 184.63 137.43 183.3 141.17 182.32 146.84 199.62 146.84 198.46 141.11"/>
            </g>
            <g>
              <polygon class="cls-14" points="149.16 146.84 150.49 141.19 164.88 141.19 166.45 146.84 149.16 146.84"/>
              <polygon class="cls-22" points="150.57 141.19 151.47 137.43 163.34 137.43 164.88 141.19 150.57 141.19"/>
              <path class="cls-13" d="M165.29,141.46h-14.72c-.14,0-.25-.12-.25-.27s.11-.27.25-.27h14.72c.14,0,.25.12.25.27s-.11.27-.25.27Z"/>
              <polygon class="cls-3" points="165.29 141.11 163.34 137.43 151.47 137.43 150.14 141.17 149.16 146.84 166.45 146.84 165.29 141.11"/>
            </g>
            <g>
              <polygon class="cls-14" points="165.38 146.84 166.71 141.19 181.1 141.19 182.67 146.84 165.38 146.84"/>
              <polygon class="cls-22" points="166.79 141.19 167.69 137.43 179.56 137.43 181.1 141.19 166.79 141.19"/>
              <path class="cls-13" d="M181.51,141.46h-14.72c-.14,0-.25-.12-.25-.27s.11-.27.25-.27h14.72c.14,0,.25.12.25.27s-.11.27-.25.27Z"/>
              <polygon class="cls-3" points="181.51 141.11 179.56 137.43 167.69 137.43 166.36 141.17 165.38 146.84 182.67 146.84 181.51 141.11"/>
            </g>
            <g>
              <polygon class="cls-14" points="155.45 140.35 156.79 134.69 171.18 134.69 172.75 140.35 155.45 140.35"/>
              <polygon class="cls-22" points="156.87 134.69 157.77 130.93 169.64 130.93 171.18 134.69 156.87 134.69"/>
              <path class="cls-13" d="M171.59,134.96h-14.72c-.14,0-.25-.12-.25-.27s.11-.27.25-.27h14.72c.14,0,.25.12.25.27s-.11.27-.25.27Z"/>
              <polygon class="cls-3" points="171.59 134.61 169.64 130.93 157.77 130.93 156.44 134.67 155.45 140.35 172.75 140.35 171.59 134.61"/>
            </g>
            <g>
              <polygon class="cls-14" points="173.07 140.35 174.4 134.69 188.79 134.69 190.37 140.35 173.07 140.35"/>
              <polygon class="cls-22" points="174.48 134.69 175.38 130.93 187.25 130.93 188.79 134.69 174.48 134.69"/>
              <path class="cls-13" d="M189.21,134.96h-14.72c-.14,0-.25-.12-.25-.27s.11-.27.25-.27h14.72c.14,0,.25.12.25.27s-.11.27-.25.27Z"/>
              <polygon class="cls-3" points="189.21 134.61 187.25 130.93 175.38 130.93 174.05 134.67 173.07 140.35 190.37 140.35 189.21 134.61"/>
            </g>
            <g>
              <polygon class="cls-14" points="164.26 133.38 165.6 127.72 179.99 127.72 181.56 133.38 164.26 133.38"/>
              <polygon class="cls-22" points="165.68 127.72 166.58 123.96 178.45 123.96 179.99 127.72 165.68 127.72"/>
              <path class="cls-13" d="M180.4,127.99h-14.72c-.14,0-.25-.12-.25-.27s.11-.27.25-.27h14.72c.14,0,.25.12.25.27s-.11.27-.25.27Z"/>
              <polygon class="cls-3" points="180.4 127.64 178.45 123.96 166.57 123.96 165.24 127.7 164.26 133.38 181.56 133.38 180.4 127.64"/>
            </g>
          </g>
        </g>
      </g>
      <g>
        <rect class="cls-6" x="6.92" y="195.97" width="157.66" height="56.65" rx="12.04" ry="12.04"/>
        <text class="cls-24" transform="translate(94.23 233.62)"><tspan x="0" y="0">철소</tspan></text>
        <g>
          <circle class="cls-3" cx="37.94" cy="224.69" r="12.65"/>
          <circle class="cls-3" cx="73.04" cy="224.69" r="12.65"/>
        </g>
      </g>
    </g>
  </g>
</svg>