<?xml version="1.0" encoding="UTF-8"?>
<svg id="_레이어_2" width="109.36" height="208.65" data-name="레이어_2" xmlns="http://www.w3.org/2000/svg" xmlns:xlink="http://www.w3.org/1999/xlink" viewBox="0 0 109.36 208.65">
  <defs>
    <style>
      .cls-1 {
        fill: #ffd2be;
      }

      .cls-2 {
        fill: #ffcfbd;
      }

      .cls-3 {
        fill: #a88e6c;
      }

      .cls-3, .cls-4, .cls-5, .cls-6, .cls-7, .cls-8, .cls-9, .cls-10 {
        stroke: #000;
        stroke-linecap: round;
        stroke-linejoin: round;
        stroke-width: 1.63px;
      }

      .cls-11 {
        fill: #ffd8c0;
      }

      .cls-12, .cls-9 {
        fill: #fff;
      }

      .cls-13 {
        fill: #ffccbc;
      }

      .cls-14 {
        fill: #ffd6bf;
      }

      .cls-4 {
        fill: #ffe3bd;
      }

      .cls-15 {
        fill: #ffcbbc;
      }

      .cls-16 {
        fill: #ffd7bf;
      }

      .cls-17 {
        fill: #ffcabc;
      }

      .cls-18 {
        fill: #ffd3be;
      }

      .cls-5 {
        fill: #ead786;
      }

      .cls-19 {
        fill: #ffd5bf;
      }

      .cls-20 {
        clip-path: url(#clippath-1);
      }

      .cls-6, .cls-21 {
        fill: #9e7630;
      }

      .cls-22 {
        fill: #ffcebd;
      }

      .cls-23 {
        fill: #ffd1be;
      }

      .cls-24 {
        fill: #ffc8bb;
      }

      .cls-7 {
        fill: #fff4c5;
      }

      .cls-25 {
        fill: #ffd4bf;
      }

      .cls-8, .cls-26 {
        fill: #ffd9c0;
      }

      .cls-27 {
        fill: #ffcdbc;
      }

      .cls-28 {
        fill: #ffd0bd;
      }

      .cls-10 {
        fill: none;
      }

      .cls-29 {
        fill: #ffc9bb;
      }

      .cls-30 {
        clip-path: url(#clippath);
      }
    </style>
    <clipPath id="clippath">
      <path class="cls-6" d="M38.4,196.76c-1.91-.47-3.76-1.57-4.68-3.3-.32-.61-.5-1.31-.53-2-1.23,1.38-2.18,2.79-2.17,4.69.01,2.39.65,4.91,4.92,6,4.24,1.08,7.6-.83,9.3-2.71,1.5-1.66,2.21-3.36,2.57-5.1-.75.68-1.58,1.26-2.49,1.7-2.14,1.02-4.63,1.28-6.93.72Z"/>
    </clipPath>
    <clipPath id="clippath-1">
      <path class="cls-6" d="M72.46,198.07c1.91-.47,3.76-1.57,4.68-3.3.32-.61.5-1.31.53-2,1.23,1.38,2.18,2.79,2.17,4.69-.01,2.39-.65,4.91-4.92,6-4.24,1.08-7.6-.83-9.3-2.71-1.5-1.66-2.21-3.36-2.57-5.1.75.68,1.58,1.26,2.49,1.7,2.14,1.02,4.63,1.28,6.93.72Z"/>
    </clipPath>
  </defs>
  <g id="Layer_6">
    <g>
      <g>
        <path d="M72.47,206.62c-3.37,0-6.73-1.48-8.97-3.95-1.68-1.85-2.71-3.89-3.25-6.42-.32-1.5-.42-3.01-.51-4.35-.07-1.01-.14-2.03-.29-2.99-.18-1.15-.29-3.01-.32-5.67-1.7-1.36-2.88-3.1-3.72-4.87-.84,1.77-2.03,3.52-3.74,4.88-.05,1.96-.15,3.39-.29,4.34-.15.97-.22,1.99-.29,2.99-.09,1.4-.19,2.85-.51,4.35,0,.02,0,.04-.01.06-.53,2.47-1.56,4.51-3.24,6.36-2.25,2.48-5.6,3.95-8.97,3.95-1.04,0-2.1-.13-3.14-.4-4.66-1.19-7.04-4.13-7.06-8.75-.02-2.94,1.45-4.99,2.89-6.6.37-.42.76-.83,1.16-1.25.4-.42.75-.79,1.1-1.17.96-1.07,1.65-2.5,2.02-4.16-.23-.21-.44-.42-.64-.65-3.41-3.78-3.11-9.27-2.94-12.21.02-.3.03-.58.04-.81l.61-18.17c-.73-.2-1.42-.41-2.1-.62-1.44-.45-2.28-1.94-1.91-3.41.24-.97.52-1.98.82-3.01-.04,0-.07,0-.1,0-.83-.09-1.7-.23-2.59-.4-.03.39-.07.78-.12,1.16-.24,1.76-.94,3.32-1.55,4.7-.46,1.03-.85,1.92-1.04,2.77-.04.17-.06.35-.08.53-.07.51-.15,1.09-.36,1.73-.61,1.84-2.13,3.11-3.87,3.25-.12,0-.22.01-.32.01-1.53,0-2.95-.89-3.74-2.27-.74.36-1.57.55-2.42.55-.47,0-.93-.06-1.38-.18-1.02-.27-1.94-.84-2.68-1.62-.8,0-1.6-.22-2.29-.61-1.26-.7-2.1-1.85-2.4-3.22-.47-.46-.93-1.06-1.2-1.8-.34-.94-.45-1.79-.47-2.47-.58-1.06-.74-2.45-.47-4.14.44-2.73,2.58-5.1,4.72-6.46-.02-.01-.04-.02-.05-.03-1.19-.74-1.66-2.27-1.1-3.55l14.28-32.78c.9-2.07,5.42-10.26,11.44-14.71-3.23-2.78-5.81-6.29-7.7-10.49-.18,0-.36.01-.54.01-2.34,0-4.61-.77-6.4-2.17-3.5-2.76-4.85-7.77-3.21-11.92.93-2.33,2.71-4.22,4.88-5.18.5-.22,1.03-.39,1.57-.51-.13-1.37-.2-2.75-.2-4.12-.04-.02-.08-.04-.12-.06-.77-.41-1.32-1.19-1.45-2.06-.14-.93-1.29-9.22,2.78-13.1.24-.23.49-.46.76-.68,2.16-7.33,7.8-13.8,15.21-17.39,1.93-.93,4.01-1.69,6.2-2.24-.17-.77-.25-1.56-.25-2.35,0-5.65,4.23-10.25,9.44-10.25s9.44,4.6,9.44,10.25c0,.82-.09,1.63-.27,2.43,1.99.52,3.88,1.21,5.65,2.04,7.54,3.57,13.29,10.1,15.47,17.52.56.62,1.04,1.28,1.43,1.96,2.73,4.69,2.36,10.89,2.31,11.58-.06.83-.48,1.58-1.13,2.07.07,1.44.07,2.88,0,4.33.69.11,1.37.31,2,.59,2.17.96,3.95,2.84,4.88,5.18,1.65,4.15.3,9.16-3.2,11.92-1.78,1.4-4.05,2.17-6.4,2.17-.52,0-1.05-.04-1.56-.12-1.53,3.26-3.5,6.12-5.87,8.55,7.63,3.2,13.73,13.79,15.02,16.75l14.28,32.78c.56,1.28.08,2.81-1.11,3.55-.04.02-.52.32-1.35.8.19.12.36.24.52.34,2.26,1.48,4.73,4.55,4.8,7.8.04,1.72-.31,3.07-1.03,4.04-.11.67-.34,1.5-.8,2.38-.37.7-.91,1.23-1.43,1.62-.48,1.32-1.47,2.34-2.81,2.87-.55.22-1.14.33-1.73.33h0c-.21,0-.42-.01-.62-.04-.83.67-1.83,1.11-2.87,1.24-.22.03-.43.04-.64.04-1.1,0-2.17-.34-3.07-.93-.85,1.1-2.12,1.77-3.47,1.77-.3,0-.59-.03-.87-.09-1.7-.38-3.03-1.85-3.39-3.75-.12-.65-.12-1.24-.12-1.71,0-.24,0-.41-.01-.58-.08-.87-.35-1.84-.65-2.87-.42-1.46-.89-3.1-.89-4.88,0-.04,0-.08,0-.12-.52.09-1.03.17-1.53.23l1.08,2.42c.32.71.33,1.53.03,2.25-.3.72-.89,1.29-1.62,1.57,0,0-.87.33-2.44.78l.61,18.23c0,.23.02.51.04.81.16,2.95.47,8.43-2.94,12.22-.26.29-.55.57-.85.83.28,2.15,1.04,3.98,2.23,5.3.35.4.72.78,1.08,1.15.45.47.83.87,1.19,1.27,1.44,1.61,2.9,3.66,2.89,6.6-.02,4.61-2.4,7.56-7.06,8.75-1.04.27-2.1.4-3.14.4Z"/>
        <path class="cls-12" d="M52.42,4.07c4.09,0,7.41,3.68,7.41,8.22,0,1.41-.32,2.74-.89,3.9,2.59.51,5.1,1.3,7.43,2.41,7.28,3.45,12.63,9.73,14.52,16.71.64.66,1.13,1.32,1.5,1.96,2.46,4.23,2.06,10.16,2.04,10.41-.02.27-.17.51-.4.64-.13.07-.27.11-.41.11-.12,0-.24-.03-.35-.08,0,0-.04-.02-.09-.04.24,2.62.23,5.28-.03,7.9.28-.04.56-.06.84-.06.85,0,1.72.17,2.53.53,1.69.74,3.08,2.23,3.81,4.07,1.32,3.33.24,7.35-2.57,9.57-1.47,1.16-3.3,1.74-5.14,1.74-.93,0-1.86-.15-2.74-.45-2.04,4.94-5.09,9.01-8.98,12.03,0,0,0,0,0,0,8.49.03,16.26,13.73,17.44,16.45l14.28,32.77c.16.37.03.8-.32,1.02-.17.11-1.79,1.11-4.27,2.38,1.16.74,2.58,1.65,3.39,2.18,1.89,1.24,3.83,3.75,3.88,6.14.04,1.87-.47,2.72-.95,3.12-.02.53-.15,1.37-.65,2.32-.33.62-.95,1.04-1.39,1.28-.13.78-.61,1.79-1.8,2.26-.32.13-.66.19-.99.19-.43,0-.85-.1-1.23-.29-.61.81-1.53,1.38-2.52,1.5-.13.02-.26.02-.39.02-1.31,0-2.57-.76-3.1-1.93-.53-1.17-.24-2.6.63-3.48-.12-.41-.27-.81-.52-1.08-.16-.18-.42-.29-.61-.29-.08,0-.15.02-.2.06-.25.19-.23.88-.23,1.17l.04,2.41c.01.73.03,1.63-.36,2.46-.37.8-1.21,1.51-2.18,1.51h0c-.14,0-.29-.02-.43-.05-.9-.2-1.62-1.04-1.82-2.14-.09-.47-.08-.91-.08-1.35,0-.25,0-.51-.02-.76-.09-1.07-.4-2.13-.72-3.26-.4-1.39-.81-2.82-.81-4.32,0-.97.1-1.87.24-2.68-1.44.36-2.9.64-4.34.8-.03,0-.06,0-.09,0-.36,0-.68-.24-.78-.58-1.12-3.82-2.46-8.18-3.82-12.53l-1.21,4.67c-.04.16-.12.29-.24.4l5.9,13.28c.09.2.09.44,0,.64-.09.21-.25.37-.46.45-.05.02-1.41.52-3.8,1.15l.67,19.83c0,.25.02.53.04.86.15,2.65.42,7.58-2.42,10.74-.43.48-.92.89-1.46,1.25,0,.15.01.31.03.45.24,2.89,1.21,5.36,2.81,7.15.38.42.77.83,1.15,1.23.38.4.76.79,1.11,1.19,1.24,1.39,2.38,2.99,2.37,5.24-.01,2.31-.6,5.53-5.53,6.79-.91.23-1.79.34-2.64.34-3.25,0-5.9-1.56-7.47-3.29-1.43-1.58-2.31-3.32-2.77-5.48,0,0,0,0,0,0-.29-1.35-.38-2.73-.47-4.06-.07-1.04-.14-2.12-.31-3.17-.21-1.37-.29-3.88-.3-6.4-4-2.59-5.15-7.72-5.74-11.03-.59,3.3-1.74,8.44-5.75,11.03-.03,2.04-.11,3.95-.29,5.08-.16,1.05-.24,2.13-.31,3.17-.09,1.33-.18,2.71-.47,4.06,0,0,0,0,0,0-.46,2.16-1.34,3.9-2.77,5.48-1.56,1.72-4.21,3.29-7.47,3.29-.84,0-1.72-.1-2.64-.34-4.93-1.26-5.52-4.48-5.53-6.79-.01-2.25,1.13-3.85,2.37-5.24.35-.4.73-.79,1.12-1.19.38-.4.77-.8,1.15-1.23,1.45-1.62,2.37-3.81,2.71-6.35-.49-.34-.94-.73-1.34-1.18-2.85-3.16-2.57-8.09-2.42-10.74.02-.32.03-.61.04-.86l.66-19.78c-1.18-.31-2.38-.64-3.58-1.02-.41-.13-.65-.56-.55-.97,1.1-4.39,2.93-9.7,4.25-13.31-.31-.04-.48-.06-.5-.07-.33-.05-.6-.29-.67-.62l-.38-1.57c-.98,3.15-1.98,6.45-2.86,9.45-.1.35-.43.58-.78.58-.03,0-.06,0-.09,0-1.61-.18-3.24-.51-4.85-.93.07.98.09,2.17-.09,3.43-.2,1.48-.81,2.84-1.4,4.16-.48,1.07-.93,2.09-1.16,3.13-.06.25-.09.5-.12.75-.06.43-.12.87-.27,1.32-.35,1.06-1.18,1.79-2.1,1.87-.05,0-.11,0-.16,0-1.1,0-1.94-.89-2.23-1.82-.27-.88-.13-1.77-.02-2.49l.37-2.39c.04-.29.15-.96-.07-1.19-.06-.06-.16-.09-.27-.09-.18,0-.4.07-.57.21-.29.24-.49.61-.67,1,.74.99.83,2.45.15,3.53-.6.95-1.73,1.52-2.87,1.52-.29,0-.57-.04-.86-.11-.96-.25-1.79-.94-2.29-1.83-.28.09-.57.14-.87.14-.46,0-.92-.11-1.34-.35-1.12-.63-1.45-1.69-1.48-2.49-.4-.29-.96-.8-1.2-1.46-.36-1.01-.38-1.85-.33-2.38-.42-.46-.81-1.38-.51-3.22.38-2.36,2.64-4.58,4.69-5.55.59-.28,1.47-.69,2.37-1.1-1.93-1.03-3.16-1.79-3.31-1.88-.34-.21-.48-.65-.32-1.02l14.28-32.77c.99-2.28,6.47-12.03,13.14-15.35-4.41-3.03-7.8-7.39-9.99-12.87-.59.13-1.2.19-1.81.19-1.84,0-3.67-.58-5.14-1.74-2.81-2.22-3.9-6.24-2.57-9.57.73-1.84,2.12-3.32,3.81-4.07.81-.36,1.68-.53,2.54-.53.1,0,.21,0,.31,0,0-.23-.01-.46-.01-.7s0-.44.01-.67c-.25-2.2-.32-4.43-.21-6.64-.32.13-.5.21-.51.21-.11.05-.22.07-.34.07-.13,0-.27-.03-.39-.1-.22-.12-.38-.34-.42-.59-.05-.33-1.21-8.09,2.18-11.31.34-.33.72-.66,1.14-.99,1.84-6.95,7.11-13.23,14.31-16.72,2.48-1.2,5.18-2.05,7.96-2.57-.55-1.15-.86-2.46-.86-3.85,0-4.54,3.32-8.22,7.41-8.22M52.42,0c-6.33,0-11.47,5.51-11.47,12.29,0,.29,0,.58.03.87-1.69.52-3.3,1.15-4.83,1.89-7.72,3.74-13.65,10.43-16.09,18.07-.13.12-.26.24-.39.36-4.72,4.49-3.66,13.18-3.39,14.88.17,1.12.74,2.14,1.57,2.89.01.53.04,1.07.07,1.6-.08.03-.16.07-.24.1-2.66,1.17-4.83,3.46-5.95,6.29-1.97,4.96-.36,10.96,3.84,14.26,1.95,1.53,4.37,2.44,6.9,2.59,1.58,3.19,3.55,5.98,5.91,8.36-5.45,4.85-9.31,11.91-10.22,14l-14.28,32.78c-.58,1.33-.51,2.82.09,4.07-1.85,1.65-3.39,3.9-3.8,6.46-.35,2.18-.05,3.8.47,4.97.05.77.21,1.68.57,2.66.28.77.71,1.49,1.28,2.14.53,1.68,1.66,3.09,3.23,3.97.74.42,1.56.69,2.41.8.88.76,1.91,1.32,3.03,1.62.62.16,1.26.25,1.9.25.58,0,1.15-.07,1.71-.2,1.18,1.19,2.77,1.91,4.45,1.91.16,0,.31,0,.47-.02,2.57-.2,4.78-2.02,5.65-4.64.27-.81.37-1.53.44-2.06.02-.16.03-.28.06-.4.15-.65.5-1.45.91-2.37.04-.1.09-.2.13-.3.58,1.1,1.58,1.98,2.86,2.37.2.06.41.13.62.19l-.56,16.59c0,.22-.02.48-.04.76-.17,2.98-.51,9.15,3.34,13.55-.31.88-.73,1.64-1.26,2.23-.34.38-.68.74-1.02,1.1-.45.47-.85.9-1.24,1.33-1.59,1.79-3.42,4.31-3.4,7.96.04,7.41,5.4,9.89,8.59,10.7,1.21.31,2.43.46,3.64.46,3.99,0,7.81-1.68,10.48-4.62,1.89-2.09,3.11-4.48,3.72-7.3,0-.02,0-.04.01-.06h0c.35-1.64.45-3.23.55-4.63.06-.95.13-1.92.27-2.81.14-.88.23-2.09.29-3.69.65-.6,1.22-1.24,1.73-1.91.5.66,1.06,1.29,1.7,1.88.05,2.28.15,3.93.33,5.04.14.86.2,1.79.26,2.78.09,1.41.2,2.98.53,4.6v.07h.01c.6,2.86,1.83,5.27,3.73,7.37,2.66,2.94,6.48,4.62,10.48,4.62,1.21,0,2.43-.16,3.64-.46,3.19-.82,8.55-3.29,8.59-10.7.02-3.65-1.81-6.17-3.4-7.96-.38-.43-.78-.85-1.19-1.28-.37-.39-.73-.76-1.08-1.15-.73-.82-1.26-1.92-1.55-3.23.06-.06.11-.12.17-.19,3.98-4.41,3.63-10.68,3.46-13.68-.02-.29-.03-.55-.04-.77l-.56-16.68c.71-.23,1.08-.37,1.09-.37.29-.11.56-.24.82-.4,0,.03,0,.05,0,.08,0,.12,0,.23,0,.34v.06c0,.52,0,1.25.15,2.1.5,2.71,2.45,4.81,4.95,5.36.43.09.87.14,1.31.14,1.4,0,2.74-.48,3.85-1.33.84.32,1.75.49,2.69.49.29,0,.58-.02.87-.05,1.15-.14,2.26-.55,3.24-1.19,0,0,.02,0,.03,0,.85,0,1.69-.16,2.48-.47,1.67-.65,2.99-1.9,3.74-3.49.66-.57,1.18-1.22,1.56-1.94.48-.92.77-1.8.93-2.55.67-1.09,1.19-2.65,1.14-4.86-.07-3.12-1.82-6.02-3.91-8.01,1.27-1.39,1.66-3.45.88-5.24l-14.28-32.78c-.06-.15-5.48-11.51-13.62-16.54,1.45-1.76,2.72-3.7,3.81-5.8.12,0,.24,0,.36,0,2.8,0,5.52-.93,7.65-2.61,4.19-3.3,5.81-9.3,3.84-14.26-1.12-2.83-3.29-5.12-5.95-6.29-.24-.11-.49-.2-.74-.29,0-.65,0-1.3-.02-1.95.63-.77,1.02-1.72,1.09-2.74.06-.75.46-7.52-2.58-12.75-.39-.67-.85-1.32-1.37-1.94-2.44-7.79-8.51-14.6-16.42-18.35-1.35-.64-2.77-1.2-4.25-1.67.02-.32.04-.64.04-.97,0-6.77-5.15-12.29-11.47-12.29h0Z"/>
      </g>
      <path class="cls-12" d="M60.94,5.8c.11,0,.22,0,.32,0,.37,0,.73.02,1.1.02-.47,0-.95-.02-1.42-.02ZM99.54,156.88c-.1,0-.21,0-.31,0,.31.02.62-.02.92-.05-.2.02-.41.06-.61.06Z"/>
      <g>
        <path class="cls-8" d="M85.96,135.58c.99,1.17.85,2.81.85,2.81,0,0-1.04,2.49-1.04,5.54,0,2.53,1.32,4.99,1.53,7.51.06.67-.03,1.36.09,2.02s.54,1.34,1.2,1.49c.7.15,1.4-.37,1.7-1.02s.29-1.39.28-2.11c-.01-.8-.03-1.61-.04-2.41-.01-.66.02-1.41.54-1.82.56-.44,1.43-.2,1.91.32s.67,1.24.85,1.93c-.91.57-1.26,1.86-.81,2.85s1.59,1.57,2.66,1.44,2.01-.93,2.38-1.94c.45.68,1.4.89,2.16.59,1.38-.54,1.33-2.04,1.33-2.04,0,0,1.06-.4,1.44-1.12.71-1.34.55-2.41.55-2.41,0,0,1.02-.11.96-2.62-.04-2.05-1.8-4.35-3.51-5.48-1.53-1.01-5.24-3.36-5.24-3.36,0,0-.31-1.99-.72-3.36-7.23-.09-8.98,3.28-9.05,3.2Z"/>
        <path class="cls-8" d="M93.61,148.97c.42,1,.67,2.07.71,3.16"/>
        <path class="cls-8" d="M97.76,152.78c.64-2.18.37-4.61-.73-6.59"/>
        <path class="cls-8" d="M100.84,152.34c.51-.37.63-1.08.65-1.72.04-1.57-.41-3.8-1.02-5.24"/>
        <path class="cls-8" d="M103.2,149.08s.7-1.66-.63-4.75"/>
      </g>
      <g>
        <path class="cls-8" d="M24.55,136.15c-1.14,1.03-1.23,2.67-1.23,2.67,0,0,.69,2.61.27,5.63-.35,2.5-1.99,4.76-2.55,7.23-.15.66-.15,1.35-.37,1.99s-.72,1.26-1.39,1.31c-.71.06-1.34-.56-1.55-1.24s-.1-1.42,0-2.12c.12-.8.25-1.59.37-2.39.1-.65.17-1.4-.28-1.88-.49-.51-1.39-.4-1.94.05s-.84,1.14-1.11,1.79c.83.69.99,2.02.41,2.93s-1.79,1.34-2.83,1.06-1.86-1.2-2.09-2.25c-.54.61-1.51.69-2.22.29-1.29-.72-1.04-2.2-1.04-2.2,0,0-.99-.54-1.27-1.31-.52-1.43-.21-2.47-.21-2.47,0,0-.99-.25-.6-2.73.32-2.02,2.38-4.07,4.23-4.95,1.66-.79,5.66-2.61,5.66-2.61,0,0,.58-1.93,1.18-3.23,7.18.9,8.45,4.48,8.52,4.41Z"/>
        <path class="cls-8" d="M15.14,148.36c-.56.93-.94,1.96-1.14,3.03"/>
        <path class="cls-8" d="M10.5,151.57c-.33-2.25.27-4.61,1.63-6.43"/>
        <path class="cls-8" d="M7.51,150.71c-.46-.44-.47-1.16-.4-1.79.17-1.56.92-3.7,1.73-5.05"/>
        <path class="cls-8" d="M5.62,147.15s-.46-1.74,1.28-4.62"/>
      </g>
      <g>
        <g>
          <path class="cls-21" d="M38.4,196.76c-1.91-.47-3.76-1.57-4.68-3.3-.32-.61-.5-1.31-.53-2-1.23,1.38-2.18,2.79-2.17,4.69.01,2.39.65,4.91,4.92,6,4.24,1.08,7.6-.83,9.3-2.71,1.5-1.66,2.21-3.36,2.57-5.1-.75.68-1.58,1.26-2.49,1.7-2.14,1.02-4.63,1.28-6.93.72Z"/>
          <g class="cls-30">
            <line class="cls-6" x1="28.36" y1="199.62" x2="35.58" y2="193.48"/>
            <line class="cls-6" x1="32.78" y1="203.23" x2="38.47" y2="194.11"/>
            <path class="cls-6" d="M39.28,204.49c0-.18.99-8.67.99-8.67"/>
            <path class="cls-6" d="M43.71,194.83c0,.36.63,8.21.63,8.21"/>
          </g>
          <path class="cls-10" d="M38.4,196.76c-1.91-.47-3.76-1.57-4.68-3.3-.32-.61-.5-1.31-.53-2-1.23,1.38-2.18,2.79-2.17,4.69.01,2.39.65,4.91,4.92,6,4.24,1.08,7.6-.83,9.3-2.71,1.5-1.66,2.21-3.36,2.57-5.1-.75.68-1.58,1.26-2.49,1.7-2.14,1.02-4.63,1.28-6.93.72Z"/>
        </g>
        <path class="cls-8" d="M48.78,173.48l-10.85-.28s.77,5.48.54,8.21c-.23,2.74-1.11,5.49-3.01,7.62-.76.85-1.55,1.63-2.26,2.42.03.7.2,1.39.53,2,.92,1.74,2.77,2.84,4.68,3.3,2.3.56,4.79.3,6.93-.72.91-.44,1.75-1.02,2.49-1.7.5-2.34.38-4.74.76-7.19.52-3.29.2-13.67.2-13.67Z"/>
      </g>
      <path class="cls-7" d="M101.86,133.17c-4.76-10.92-9.52-21.85-14.28-32.77-1.48-3.39-9.17-16.09-16.84-15.96-1.65-.62-3.43-.91-5.21-.73l-17.06-2.54c-3.19.47-6.15,1.63-8.77,3.28-7.76-.43-15.61,12.53-17.1,15.96-4.76,10.92-9.52,21.85-14.28,32.77,0,0,11.22,6.99,21.1,8.09,1.15-3.93,2.54-8.42,3.98-13.06,1.02,2.27,1.79,3.76,1.79,3.76l38.25-.84s1.05-2.38,2.35-6.01c1.79,5.72,3.54,11.35,4.95,16.15,9.88-1.1,21.1-8.09,21.1-8.09Z"/>
      <path class="cls-8" d="M24.51,57.68c-1.44-.9-3.33-.95-4.88-.27-1.55.68-2.76,2.05-3.38,3.62-1.18,2.97-.19,6.66,2.32,8.63s6.33,2.08,8.93.23l-3-12.22Z"/>
      <path class="cls-8" d="M81.3,57.68c1.44-.9,3.33-.95,4.88-.27s2.76,2.05,3.38,3.62c1.18,2.97.19,6.66-2.32,8.63s-6.33,2.08-8.93.23l3-12.22Z"/>
      <polygon class="cls-4" points="47.85 84.43 53.66 97.58 59.48 83.93 47.85 84.43"/>
      <polygon class="cls-5" points="45.32 80.13 39.38 83.42 51.89 104.27 56.7 99.09 45.32 80.13"/>
      <polygon class="cls-5" points="58.46 84.94 38.22 130.66 43.65 132.97 65.54 83.7 58.46 84.94"/>
      <path class="cls-8" d="M82.01,55.44c0,18.42-10.33,33.36-29.97,33.36s-29.09-14.93-29.09-33.36,9.45-33.36,29.09-33.36,29.97,14.93,29.97,33.36Z"/>
      <path d="M22.24,44.67c-.78,5.81-.29,11.9,1.41,17.38,2.28-6.81,4.96-13.4,8.03-19.68l-9.43,2.3Z"/>
      <path d="M22.92,39.65c.5-8.57,6.36-16.75,15-20.94,8.64-4.19,19.76-4.23,28.45-.12,8.68,4.12,14.64,12.26,15.23,20.82l-58.68.24Z"/>
      <path d="M82.99,46.63c.78,5.81.29,11.9-1.41,17.38-2.28-6.81-4.96-13.4-8.03-19.68l9.43,2.3Z"/>
      <path class="cls-7" d="M23.03,37.01c-3.12,2.96-1.93,10.6-1.93,10.6,0,0,11.92-5.42,31.58-5.42s30.94,5.42,30.94,5.42c0,0,.43-5.88-1.93-9.94s-9.67-8.49-28.68-8.49-26.86,4.87-29.97,7.83Z"/>
      <path class="cls-10" d="M51.69,60.15c.33,2.72.03,5.51-.87,8.09-.2.59-.44,1.2-.33,1.81.23,1.27,1.74,1.78,2.99,2.05"/>
      <g>
        <circle class="cls-26" cx="36.49" cy="68.47" r="8.31"/>
        <circle class="cls-11" cx="36.48" cy="68.44" r="8.04"/>
        <circle class="cls-16" cx="36.48" cy="68.41" r="7.76"/>
        <circle class="cls-14" cx="36.47" cy="68.38" r="7.49"/>
        <circle class="cls-19" cx="36.46" cy="68.35" r="7.21"/>
        <circle class="cls-25" cx="36.46" cy="68.32" r="6.94"/>
        <circle class="cls-18" cx="36.45" cy="68.29" r="6.67"/>
        <circle class="cls-1" cx="36.45" cy="68.26" r="6.39"/>
        <circle class="cls-23" cx="36.44" cy="68.23" r="6.12"/>
        <circle class="cls-23" cx="36.43" cy="68.2" r="5.84"/>
        <circle class="cls-28" cx="36.43" cy="68.17" r="5.57"/>
        <circle class="cls-2" cx="36.42" cy="68.14" r="5.29"/>
        <circle class="cls-22" cx="36.42" cy="68.11" r="5.02"/>
        <circle class="cls-27" cx="36.41" cy="68.08" r="4.75"/>
        <circle class="cls-13" cx="36.4" cy="68.05" r="4.47"/>
        <circle class="cls-15" cx="36.4" cy="68.02" r="4.2"/>
        <circle class="cls-17" cx="36.39" cy="67.99" r="3.92"/>
        <circle class="cls-29" cx="36.39" cy="67.96" r="3.65"/>
        <circle class="cls-24" cx="36.38" cy="67.93" r="3.37"/>
      </g>
      <g>
        <circle class="cls-26" cx="68.31" cy="68.91" r="8.31"/>
        <circle class="cls-11" cx="68.3" cy="68.88" r="8.04"/>
        <circle class="cls-16" cx="68.3" cy="68.85" r="7.76"/>
        <circle class="cls-14" cx="68.29" cy="68.82" r="7.49"/>
        <circle class="cls-19" cx="68.29" cy="68.79" r="7.21"/>
        <circle class="cls-25" cx="68.28" cy="68.76" r="6.94"/>
        <circle class="cls-18" cx="68.27" cy="68.73" r="6.67"/>
        <circle class="cls-1" cx="68.27" cy="68.7" r="6.39"/>
        <circle class="cls-23" cx="68.26" cy="68.67" r="6.12"/>
        <circle class="cls-23" cx="68.26" cy="68.64" r="5.84"/>
        <circle class="cls-28" cx="68.25" cy="68.61" r="5.57"/>
        <circle class="cls-2" cx="68.24" cy="68.58" r="5.29"/>
        <circle class="cls-22" cx="68.24" cy="68.55" r="5.02"/>
        <circle class="cls-27" cx="68.23" cy="68.52" r="4.75"/>
        <circle class="cls-13" cx="68.23" cy="68.49" r="4.47"/>
        <circle class="cls-15" cx="68.22" cy="68.46" r="4.2"/>
        <circle class="cls-17" cx="68.21" cy="68.43" r="3.92"/>
        <circle class="cls-29" cx="68.21" cy="68.4" r="3.65"/>
        <circle class="cls-24" cx="68.2" cy="68.36" r="3.37"/>
      </g>
      <g>
        <g>
          <path class="cls-21" d="M72.46,198.07c1.91-.47,3.76-1.57,4.68-3.3.32-.61.5-1.31.53-2,1.23,1.38,2.18,2.79,2.17,4.69-.01,2.39-.65,4.91-4.92,6-4.24,1.08-7.6-.83-9.3-2.71-1.5-1.66-2.21-3.36-2.57-5.1.75.68,1.58,1.26,2.49,1.7,2.14,1.02,4.63,1.28,6.93.72Z"/>
          <g class="cls-20">
            <line class="cls-6" x1="82.49" y1="200.93" x2="75.27" y2="194.8"/>
            <line class="cls-6" x1="78.07" y1="204.54" x2="72.38" y2="195.43"/>
            <path class="cls-6" d="M71.57,205.81c0-.18-.99-8.67-.99-8.67"/>
            <path class="cls-6" d="M67.14,196.15c0,.36-.63,8.21-.63,8.21"/>
          </g>
          <path class="cls-10" d="M72.46,198.07c1.91-.47,3.76-1.57,4.68-3.3.32-.61.5-1.31.53-2,1.23,1.38,2.18,2.79,2.17,4.69-.01,2.39-.65,4.91-4.92,6-4.24,1.08-7.6-.83-9.3-2.71-1.5-1.66-2.21-3.36-2.57-5.1.75.68,1.58,1.26,2.49,1.7,2.14,1.02,4.63,1.28,6.93.72Z"/>
        </g>
        <path class="cls-8" d="M62.08,174.79l10.85-.28s-.77,5.48-.54,8.21c.23,2.74,1.11,5.49,3.01,7.62.76.85,1.55,1.63,2.26,2.42-.03.7-.2,1.39-.53,2-.92,1.74-2.77,2.84-4.68,3.3-2.3.56-4.79.3-6.93-.72-.91-.44-1.75-1.02-2.49-1.7-.5-2.34-.38-4.74-.76-7.19-.52-3.29-.2-13.67-.2-13.67Z"/>
      </g>
      <path class="cls-3" d="M76.2,169.4c-.29-8.72-.59-17.45-.88-26.17l-19.9.49-19.9-.49c-.29,8.72-.59,17.45-.88,26.17-.11,3.21-1.5,13.1,8.37,13.57,9.88.47,11.07-8.94,11.83-13.23.25-1.39.43-4.62.57-8.34.14,3.72.33,6.95.57,8.34.77,4.29,1.96,13.7,11.83,13.23,9.88-.47,8.48-10.36,8.37-13.57Z"/>
      <path class="cls-10" d="M47.54,76.93c1.45,1.37,3.45,2.16,5.45,2.15,2,0,3.99-.82,5.43-2.2"/>
      <ellipse class="cls-9" cx="41.1" cy="61.16" rx="6.42" ry="6.95"/>
      <ellipse class="cls-9" cx="62.58" cy="60.99" rx="6.42" ry="6.95"/>
      <ellipse cx="43.48" cy="60.81" rx="3.73" ry="4.06"/>
      <ellipse cx="60.16" cy="60.92" rx="3.73" ry="4.06"/>
      <path class="cls-7" d="M36.95,130.44s-3.93,9.94-5.78,17.36c26.45,8.26,48.7-.17,48.7-.17l-8.17-18.39-34.75,1.2Z"/>
      <path class="cls-4" d="M33.93,49.52c1.76-1.7,4.15-2.74,6.59-2.87s4.93.63,6.87,2.12"/>
      <path class="cls-4" d="M55.33,48.75c1.76-1.7,4.15-2.74,6.59-2.87s4.93.63,6.87,2.12"/>
      <path class="cls-7" d="M31.41,98.02c-2.19,9.95-1.41,20.54,2.2,30.06"/>
      <polygon class="cls-5" points="42.28 133.13 38.88 150.25 46.23 151.35 48.31 133.79 42.28 133.13"/>
      <path class="cls-7" d="M75.53,97.14c2.52,9.83,2.28,20.35-.67,30.07"/>
      <path class="cls-5" d="M32.68,126.88l1.57,6.54s21.57,3.15,39.92,0l1.83-7.03s-17.74,4.36-43.31.48Z"/>
      <path class="cls-10" d="M52.43,157.86s2.19-.11,2.71.86.44,2.15.34,3.25"/>
      <ellipse cx="52.42" cy="12.29" rx="7.41" ry="8.22"/>
    </g>
  </g>
</svg>