<?xml version="1.0" encoding="UTF-8"?>
<svg id="_레이어_2" width="155.47" height="155.47" data-name="레이어_2" xmlns="http://www.w3.org/2000/svg" viewBox="0 0 155.47 155.47">
  <defs>
    <style>
      .cls-1 {
        fill: #d7fffb;
        stroke: #fff;
        stroke-width: 2.26px;
      }

      .cls-1, .cls-2 {
        stroke-linecap: round;
        stroke-linejoin: round;
      }

      .cls-3 {
        fill: #bdf4e4;
      }

      .cls-2 {
        fill: #a1d7c9;
        stroke: #000;
        stroke-width: 1.51px;
      }
    </style>
  </defs>
  <g id="button">
    <g>
      <circle class="cls-1" cx="77.73" cy="77.73" r="76.6"/>
      <g>
        <g>
          <rect class="cls-2" x="70.33" y="26.35" width="15.23" height="11.64"/>
          <rect class="cls-2" x="67.86" y="23.41" width="20.15" height="4.36"/>
        </g>
        <path class="cls-2" d="M97.45,35.99c-5.52-3.63-12.7-3.9-19.51-3.73-6.81-.17-13.99.1-19.51,3.73-6.2,4.07-8.85,11.65-8.48,18.71.38,7.05,3.32,13.75,6.39,20.21,3.07,6.46,6.33,12.97,7.42,19.96,1.6,10.33-1.7,20.93-4.95,30.92,6.04.07,32.23.07,38.27,0-3.26-9.99-6.55-20.59-4.95-30.92,1.08-6.99,4.35-13.5,7.42-19.96,3.07-6.46,6.01-13.15,6.39-20.21s-2.28-14.63-8.48-18.71Z"/>
        <g>
          <path class="cls-3" d="M56.86,46.1c-.29.78-.54,1.59-.5,2.41s.38,1.67,1.09,2.17c1.21.85,2.95.41,4.29-.25,2.37-1.16,4.41-2.91,5.85-5.02.95-1.4,1.66-3.05,1.41-4.69-.56-3.68-4.07-3.67-6.66-1.93s-4.41,4.47-5.47,7.31Z"/>
          <ellipse class="cls-3" cx="56.93" cy="55.69" rx="2.91" ry="2.71"/>
        </g>
      </g>
    </g>
  </g>
</svg>