<?xml version="1.0" encoding="UTF-8"?>
<svg id="_레이어_2" width="357.67" height="155.19" data-name="레이어_2" xmlns="http://www.w3.org/2000/svg" xmlns:xlink="http://www.w3.org/1999/xlink" viewBox="0 0 357.67 155.19">
  <defs>
    <style>
      .cls-1 {
        stroke: #8cf772;
      }

      .cls-1, .cls-2, .cls-3, .cls-4, .cls-5, .cls-6, .cls-7 {
        stroke-linecap: round;
        stroke-linejoin: round;
      }

      .cls-1, .cls-2, .cls-4, .cls-6, .cls-7 {
        stroke-width: 1.22px;
      }

      .cls-1, .cls-3, .cls-8, .cls-4 {
        fill: none;
      }

      .cls-9 {
        fill: #d6a76e;
      }

      .cls-10 {
        fill: #88644a;
      }

      .cls-11 {
        fill: #dfbf68;
      }

      .cls-2 {
        fill: #68ce5d;
      }

      .cls-2, .cls-3, .cls-4, .cls-5, .cls-6, .cls-7 {
        stroke: #000;
      }

      .cls-12 {
        fill: #d9c5b8;
      }

      .cls-13 {
        fill: #c49c4e;
      }

      .cls-3, .cls-5 {
        stroke-width: .61px;
      }

      .cls-14 {
        clip-path: url(#clippath-1);
      }

      .cls-5, .cls-7, .cls-15 {
        fill: #b29166;
      }

      .cls-16 {
        fill: #c39d7e;
      }

      .cls-17 {
        fill: #333;
      }

      .cls-6 {
        fill: #fff;
      }

      .cls-18 {
        fill: #e7e3c4;
      }

      .cls-19 {
        font-family: HakgyoansimSantteutdotumM, 'Hakgyoansim Santteutdotumthic';
        font-size: 32.3px;
      }

      .cls-20 {
        clip-path: url(#clippath-2);
      }

      .cls-21 {
        clip-path: url(#clippath);
      }
    </style>
    <clipPath id="clippath">
      <path class="cls-8" d="M88.44,40.48c0,3.16-7.69,5.72-17.17,5.72s-17.17-2.56-17.17-5.72,7.69-8.75,17.17-8.75,17.17,5.59,17.17,8.75Z"/>
    </clipPath>
    <clipPath id="clippath-1">
      <path class="cls-8" d="M346.1,77.9c0,2.34-5.71,4.24-12.75,4.24s-12.75-1.9-12.75-4.24,5.71-6.49,12.75-6.49,12.75,4.15,12.75,6.49Z"/>
    </clipPath>
    <clipPath id="clippath-2">
      <path class="cls-8" d="M135.44,53.91c0,3.16-7.69,5.72-17.17,5.72s-17.17-2.56-17.17-5.72,7.69-8.75,17.17-8.75,17.17,5.59,17.17,8.75Z"/>
    </clipPath>
  </defs>
  <g id="Layer_6">
    <g>
      <ellipse class="cls-18" cx="178.84" cy="92.16" rx="178.84" ry="43.95"/>
      <g>
        <g>
          <g>
            <rect class="cls-16" x="277.71" y="59.16" width="64.9" height="24.87"/>
            <path d="M342.9,84.33h-65.48v-25.46h65.48v25.46ZM278,83.75h64.31v-24.29h-64.31v24.29Z"/>
          </g>
          <g>
            <path class="cls-12" d="M275.51,84.04h69.82c.3,0,.55.25.55.55v4.43h-70.92v-4.43c0-.3.25-.55.55-.55Z"/>
            <path d="M346.17,89.31h-71.51v-4.24c0-.73.59-1.32,1.32-1.32h68.86c.73,0,1.32.59,1.32,1.32v4.24ZM275.25,88.73h70.34v-3.66c0-.41-.33-.74-.74-.74h-68.86c-.41,0-.74.33-.74.74v3.66Z"/>
          </g>
          <g>
            <rect class="cls-17" x="304.85" y="65.16" width="10.62" height="18.88"/>
            <path d="M315.76,84.33h-11.2v-19.46h11.2v19.46ZM305.14,83.75h10.03v-18.3h-10.03v18.3Z"/>
          </g>
          <g>
            <rect class="cls-10" x="277.71" y="59.16" width="2.01" height="24.87"/>
            <path d="M280.02,84.33h-2.6v-25.46h2.6v25.46ZM278,83.75h1.43v-24.29h-1.43v24.29Z"/>
          </g>
          <g>
            <rect class="cls-10" x="293.29" y="59.16" width="2.01" height="24.87"/>
            <path d="M295.6,84.33h-2.6v-25.46h2.6v25.46ZM293.59,83.75h1.43v-24.29h-1.43v24.29Z"/>
          </g>
          <g>
            <rect class="cls-10" x="325.01" y="59.16" width="2.01" height="24.87" transform="translate(652.04 143.2) rotate(180)"/>
            <path d="M327.32,84.33h-2.6v-25.46h2.6v25.46ZM325.3,83.75h1.43v-24.29h-1.43v24.29Z"/>
          </g>
          <g>
            <rect class="cls-10" x="340.59" y="59.16" width="2.01" height="24.87" transform="translate(683.2 143.2) rotate(180)"/>
            <path d="M342.9,84.33h-2.6v-25.46h2.6v25.46ZM340.89,83.75h1.43v-24.29h-1.43v24.29Z"/>
          </g>
          <g>
            <path class="cls-11" d="M267.89,59.85c-1.41,0-2.33-1.47-1.72-2.74,3.12-6.44,13.77-22.04,43.99-22.04,30.22,0,40.88,15.59,43.99,22.04.61,1.27-.31,2.74-1.72,2.74h-84.54Z"/>
            <path d="M352.43,60.15h-84.54c-.76,0-1.46-.39-1.87-1.03-.4-.64-.45-1.44-.12-2.12,3.23-6.68,14-22.2,44.25-22.2s41.03,15.53,44.25,22.2c.33.69.29,1.48-.12,2.12-.41.65-1.1,1.03-1.87,1.03ZM310.16,35.37c-29.92,0-40.55,15.3-43.73,21.87-.24.5-.21,1.09.09,1.56.3.47.81.76,1.37.76h84.54c.56,0,1.07-.28,1.37-.76.3-.47.33-1.06.09-1.56-3.18-6.58-13.8-21.87-43.73-21.87Z"/>
          </g>
          <g>
            <path class="cls-13" d="M346.91,57.6c-.44,0-.87-.25-1.06-.68-2.58-5.64-11.23-18.77-35.69-18.77s-33.11,13.12-35.69,18.77c-.27.59-.96.84-1.55.58-.59-.27-.84-.96-.58-1.55,2.77-6.05,12-20.13,37.82-20.13s35.05,14.08,37.82,20.13c.27.59.01,1.28-.58,1.55-.16.07-.32.11-.49.11Z"/>
            <path class="cls-13" d="M280.67,57.6c-.13,0-.27-.02-.4-.07-.61-.22-.92-.89-.69-1.5,2.23-6.08,9.68-20.21,30.59-20.21s28.36,14.14,30.59,20.21c.22.6-.09,1.28-.69,1.5-.61.22-1.28-.09-1.5-.69-2.06-5.62-8.96-18.68-28.4-18.68s-26.33,13.07-28.4,18.68c-.17.47-.62.77-1.1.77Z"/>
            <path class="cls-13" d="M331.27,57.6c-.52,0-.99-.35-1.13-.87-1.47-5.59-6.35-18.58-19.98-18.58s-18.51,12.99-19.98,18.58c-.16.62-.8,1-1.43.83-.62-.16-1-.8-.83-1.43,1.61-6.11,6.99-20.32,22.24-20.32s20.64,14.21,22.24,20.32c.16.62-.21,1.26-.83,1.43-.1.03-.2.04-.3.04Z"/>
            <path class="cls-13" d="M321.54,57.6c-.57,0-1.07-.42-1.15-1-.61-4.33-3.16-18.45-10.22-18.45s-9.61,14.12-10.22,18.45c-.09.64-.69,1.08-1.32.99-.64-.09-1.08-.68-.99-1.32.87-6.15,3.84-20.45,12.53-20.45s11.66,14.3,12.53,20.45c.09.64-.35,1.23-.99,1.32-.06,0-.11.01-.17.01Z"/>
            <path class="cls-13" d="M313.96,57.6c-.62,0-1.14-.49-1.17-1.11-.59-12.33-1.89-17.11-2.64-18.18-.75,1.08-2.06,5.85-2.64,18.18-.03.64-.58,1.15-1.22,1.11-.64-.03-1.14-.58-1.11-1.22.98-20.56,3.68-20.56,4.97-20.56s4,0,4.97,20.56c.03.64-.47,1.19-1.11,1.22-.02,0-.04,0-.06,0Z"/>
          </g>
        </g>
        <g>
          <g>
            <rect class="cls-16" x="130.58" y="30.84" width="82.11" height="31.47"/>
            <path d="M213.05,62.68h-82.84V30.47h82.84v32.21ZM130.95,61.94h81.37v-30.73h-81.37v30.73Z"/>
          </g>
          <g>
            <path class="cls-12" d="M127.65,62.31h88.63c.3,0,.55.25.55.55v5.75h-89.73v-5.75c0-.3.25-.55.55-.55Z"/>
            <path d="M217.19,68.98h-90.47v-5.37c0-.92.75-1.68,1.68-1.68h87.11c.92,0,1.68.75,1.68,1.68v5.37ZM127.46,68.24h88.99v-4.63c0-.52-.42-.94-.94-.94h-87.11c-.52,0-.94.42-.94.94v4.63Z"/>
          </g>
          <g>
            <rect class="cls-17" x="164.91" y="38.42" width="13.43" height="23.89"/>
            <path d="M178.71,62.68h-14.17v-24.62h14.17v24.62ZM165.28,61.94h12.69v-23.15h-12.69v23.15Z"/>
          </g>
          <g>
            <rect class="cls-10" x="130.58" y="30.84" width="2.55" height="31.47"/>
            <path d="M133.49,62.68h-3.28V30.47h3.28v32.21ZM130.95,61.94h1.81v-30.73h-1.81v30.73Z"/>
          </g>
          <g>
            <rect class="cls-10" x="150.29" y="30.84" width="2.55" height="31.47"/>
            <path d="M153.21,62.68h-3.28V30.47h3.28v32.21ZM150.66,61.94h1.81v-30.73h-1.81v30.73Z"/>
          </g>
          <g>
            <rect class="cls-10" x="190.42" y="30.84" width="2.55" height="31.47" transform="translate(383.39 93.15) rotate(180)"/>
            <path d="M193.34,62.68h-3.28V30.47h3.28v32.21ZM190.79,61.94h1.81v-30.73h-1.81v30.73Z"/>
          </g>
          <g>
            <rect class="cls-10" x="210.14" y="30.84" width="2.55" height="31.47" transform="translate(422.82 93.15) rotate(180)"/>
            <path d="M213.05,62.68h-3.28V30.47h3.28v32.21ZM210.5,61.94h1.81v-30.73h-1.81v30.73Z"/>
          </g>
          <g>
            <path class="cls-11" d="M118.15,31.71c-1.78,0-2.95-1.86-2.18-3.46C119.91,20.1,133.4.37,171.63.37c38.23,0,51.71,19.73,55.66,27.88.77,1.6-.4,3.46-2.18,3.46h-106.96Z"/>
            <path d="M225.11,32.08h-106.96c-.97,0-1.85-.49-2.36-1.31-.51-.81-.57-1.82-.15-2.69,4.08-8.45,17.71-28.09,55.99-28.09s51.91,19.64,55.99,28.09c.42.87.36,1.87-.15,2.69-.51.82-1.39,1.31-2.36,1.31ZM171.63.74c-37.86,0-51.3,19.35-55.32,27.67-.31.64-.27,1.37.11,1.97s1.03.96,1.73.96h106.96c.71,0,1.36-.36,1.73-.96s.42-1.34.11-1.97c-4.02-8.32-17.47-27.67-55.32-27.67Z"/>
          </g>
          <g>
            <path class="cls-13" d="M218.13,28.86c-.56,0-1.1-.32-1.34-.86-3.27-7.14-14.21-23.74-45.16-23.74s-41.89,16.6-45.16,23.74c-.34.74-1.22,1.07-1.96.73-.74-.34-1.07-1.22-.73-1.96,3.5-7.66,15.18-25.47,47.84-25.47s44.34,17.81,47.84,25.47c.34.74.01,1.62-.73,1.96-.2.09-.41.13-.61.13Z"/>
            <path class="cls-13" d="M208.94,28.86c-.6,0-1.17-.37-1.39-.97-2.61-7.11-11.34-23.64-35.93-23.64s-33.32,16.53-35.93,23.64c-.28.77-1.13,1.16-1.9.88-.77-.28-1.16-1.13-.88-1.9,2.82-7.69,12.25-25.58,38.7-25.58s35.87,17.89,38.7,25.58c.28.76-.11,1.61-.88,1.9-.17.06-.34.09-.51.09Z"/>
            <path class="cls-13" d="M198.34,28.86c-.66,0-1.25-.44-1.43-1.1-1.86-7.07-8.04-23.51-25.28-23.51s-23.42,16.44-25.28,23.51c-.21.79-1.01,1.27-1.8,1.05-.79-.21-1.26-1.02-1.05-1.8,2.03-7.73,8.84-25.71,28.14-25.71s26.11,17.98,28.14,25.71c.21.79-.26,1.6-1.05,1.8-.13.03-.25.05-.38.05Z"/>
            <path class="cls-13" d="M186.02,28.86c-.72,0-1.36-.53-1.46-1.27-.78-5.47-4-23.34-12.93-23.34s-12.16,17.86-12.93,23.34c-.11.81-.87,1.37-1.67,1.25-.81-.11-1.37-.86-1.25-1.67,1.1-7.78,4.85-25.88,15.86-25.88s14.75,18.1,15.86,25.88c.11.81-.45,1.56-1.25,1.67-.07,0-.14.02-.21.02Z"/>
            <path class="cls-13" d="M176.44,28.85c-.78,0-1.44-.62-1.47-1.41-.74-15.6-2.39-21.64-3.34-23-.95,1.36-2.6,7.4-3.34,23-.04.81-.73,1.47-1.55,1.4-.81-.04-1.44-.73-1.41-1.55,1.23-26.01,4.65-26.01,6.29-26.01s5.06,0,6.29,26.01c.04.82-.59,1.51-1.41,1.55-.02,0-.05,0-.07,0Z"/>
          </g>
        </g>
        <g>
          <path class="cls-15" d="M92.14,41.54c.96,2.49,1.48,5.19,1.48,8.01,0,12.41-4.06,22.47-22.62,22.47-16.7,0-22.62-10.06-22.62-22.47,0-2.68.47-5.25,1.34-7.64l42.42-.37Z"/>
          <ellipse class="cls-9" cx="71" cy="42.03" rx="21.3" ry="7.09"/>
          <ellipse class="cls-7" cx="71.27" cy="40.79" rx="17.17" ry="5.72"/>
          <g class="cls-21">
            <path class="cls-2" d="M53.44,41.02c1.26-2.03,3.63-3.4,6.13-3.54.04.38.07.77.11,1.15,1.65-1.05,2.9-2.66,3.45-4.47.16.75.32,1.49.49,2.24.93-.85,2.09-1.48,3.34-1.82l-.24,1.02c2.75-.83,5.73-.97,8.55-.4l.1,1.21c.55-.55,1.29-.92,2.09-1.03.38.64.76,1.29,1.15,1.93.45-.53,1.05-.94,1.73-1.18l1.88,2.31,1.14-1.49.61,1.66c.77-.36,1.65-.51,2.51-.42l-.79,1.29,2.44.15.23,1.93s-1.12,7.01-17.86,7.53-17.05-8.07-17.05-8.07Z"/>
            <g>
              <path class="cls-1" d="M70.34,41.31c-.43-.87-1.54-1.33-2.46-1.02.08.44.17.89.39,1.29s.58.73,1.02.8"/>
              <path class="cls-1" d="M75.67,41.24c.06-1.17.93-2.25,2.06-2.56.25.88.27,1.83.05,2.72"/>
              <path class="cls-1" d="M59.76,42.21c-.47-.74-.82-1.55-1.03-2.4,1.11.06,2.18.63,2.84,1.53"/>
              <path class="cls-1" d="M61.26,41.03c.02-.87.29-1.74.76-2.48.68.39,1.26.97,1.65,1.65"/>
              <path class="cls-1" d="M63.44,40.87l.76-1.45c.31.27.62.55.93.82"/>
              <path class="cls-1" d="M77.19,42.69c0-.6.34-1.16.77-1.58s.97-.71,1.5-1.01c.45.73.62,1.63.47,2.48-.1-.78.31-1.6.99-2,.43.42.79.93,1.04,1.49"/>
              <path class="cls-1" d="M70.15,38.97c.04-.88.39-1.75.97-2.41.63.71,1.12,1.53,1.45,2.42.24-.43.48-.86.72-1.3.71.47.81,1.29.81,1.29"/>
            </g>
          </g>
          <path class="cls-4" d="M88.44,40.79c0,3.16-7.69,5.72-17.17,5.72s-17.17-2.56-17.17-5.72"/>
          <g>
            <path class="cls-5" d="M52.83,48.28s-1.94,9.82,5.1,16.99"/>
            <path class="cls-5" d="M57.26,50.54s-.87,9.13,5.82,15.55"/>
            <path class="cls-3" d="M50.65,51.36s5.27,5.06,14.77,4.13"/>
            <path class="cls-3" d="M50.96,56.53s5.27,5.06,14.77,4.13"/>
          </g>
          <path class="cls-4" d="M92.3,41.99c-.07-3.9-9.58-7.05-21.3-7.05s-21.21,3.14-21.3,7.04c-.85,2.37-1.32,4.92-1.32,7.58,0,12.41,5.92,22.47,22.62,22.47,18.56,0,22.62-10.06,22.62-22.47,0-2.65-.47-5.2-1.32-7.56Z"/>
        </g>
        <g>
          <path class="cls-15" d="M348.84,78.69c.71,1.85,1.1,3.85,1.1,5.95,0,9.21-3.02,16.68-16.79,16.68-12.4,0-16.79-7.47-16.79-16.68,0-1.99.35-3.9,1-5.67l31.49-.28Z"/>
          <ellipse class="cls-9" cx="333.15" cy="79.05" rx="15.82" ry="5.27"/>
          <ellipse class="cls-7" cx="333.35" cy="78.13" rx="12.75" ry="4.24"/>
          <g class="cls-14">
            <path class="cls-2" d="M320.11,78.3c.93-1.51,2.7-2.52,4.55-2.63.03.29.05.57.08.86,1.23-.78,2.15-1.97,2.56-3.32.12.55.24,1.11.36,1.66.69-.63,1.55-1.1,2.48-1.35l-.18.76c2.04-.62,4.25-.72,6.35-.3l.08.9c.41-.41.96-.68,1.55-.77.28.48.57.95.85,1.43.34-.39.78-.7,1.28-.87l1.4,1.71.85-1.1.45,1.23c.57-.27,1.23-.38,1.86-.31l-.59.96,1.81.11.17,1.43s-.83,5.21-13.26,5.59c-12.42.38-12.66-5.99-12.66-5.99Z"/>
            <g>
              <path class="cls-1" d="M332.66,78.52c-.32-.64-1.15-.98-1.83-.75.06.33.13.66.29.95s.43.55.76.6"/>
              <path class="cls-1" d="M336.61,78.46c.04-.87.69-1.67,1.53-1.9.19.65.2,1.36.04,2.02"/>
              <path class="cls-1" d="M324.81,79.19c-.35-.55-.61-1.15-.77-1.78.82.04,1.62.47,2.11,1.13"/>
              <path class="cls-1" d="M325.92,78.31c.02-.65.21-1.29.56-1.84.51.29.94.72,1.23,1.22"/>
              <path class="cls-1" d="M327.54,78.19l.56-1.08c.23.2.46.41.69.61"/>
              <path class="cls-1" d="M337.75,79.54c0-.45.25-.86.57-1.18s.72-.53,1.11-.75c.34.54.46,1.21.35,1.84-.07-.58.23-1.19.73-1.49.32.31.59.69.77,1.1"/>
              <path class="cls-1" d="M332.52,76.78c.03-.66.29-1.3.72-1.79.47.52.83,1.14,1.08,1.79.18-.32.36-.64.53-.96.53.35.6.96.6.96"/>
            </g>
          </g>
          <path class="cls-4" d="M346.1,78.13c0,2.34-5.71,4.24-12.75,4.24s-12.75-1.9-12.75-4.24"/>
          <g>
            <path class="cls-5" d="M319.66,83.69s-1.44,7.29,3.79,12.62"/>
            <path class="cls-5" d="M322.95,85.37s-.65,6.78,4.32,11.55"/>
            <path class="cls-3" d="M318.04,85.98s3.91,3.76,10.97,3.07"/>
            <path class="cls-3" d="M318.27,89.82s3.91,3.76,10.97,3.07"/>
          </g>
          <path class="cls-4" d="M348.96,79.02c-.05-2.89-7.11-5.24-15.81-5.24s-15.74,2.33-15.81,5.22c-.63,1.76-.98,3.65-.98,5.63,0,9.21,4.4,16.68,16.79,16.68,13.78,0,16.79-7.47,16.79-16.68,0-1.97-.35-3.86-.98-5.62Z"/>
        </g>
        <g>
          <path class="cls-15" d="M139.14,54.97c.96,2.49,1.48,5.19,1.48,8.01,0,12.41-4.06,22.47-22.62,22.47-16.7,0-22.62-10.06-22.62-22.47,0-2.68.47-5.25,1.34-7.64l42.42-.37Z"/>
          <ellipse class="cls-9" cx="118" cy="55.46" rx="21.3" ry="7.09"/>
          <ellipse class="cls-7" cx="118.27" cy="54.22" rx="17.17" ry="5.72"/>
          <g class="cls-20">
            <path class="cls-2" d="M100.44,54.45c1.26-2.03,3.63-3.4,6.13-3.54.04.38.07.77.11,1.15,1.65-1.05,2.9-2.66,3.45-4.47.16.75.32,1.49.49,2.24.93-.85,2.09-1.48,3.34-1.82l-.24,1.02c2.75-.83,5.73-.97,8.55-.4l.1,1.21c.55-.55,1.29-.92,2.09-1.03.38.64.76,1.29,1.15,1.93.45-.53,1.05-.94,1.73-1.18l1.88,2.31,1.14-1.49.61,1.66c.77-.36,1.65-.51,2.51-.42l-.79,1.29,2.44.15.23,1.93s-1.12,7.01-17.86,7.53c-16.73.52-17.05-8.07-17.05-8.07Z"/>
            <g>
              <path class="cls-1" d="M117.34,54.74c-.43-.87-1.54-1.33-2.46-1.02.08.44.17.89.39,1.29s.58.73,1.02.8"/>
              <path class="cls-1" d="M122.66,54.66c.06-1.17.93-2.25,2.06-2.56.25.88.27,1.83.05,2.72"/>
              <path class="cls-1" d="M106.76,55.64c-.47-.74-.82-1.55-1.03-2.4,1.11.06,2.18.63,2.84,1.53"/>
              <path class="cls-1" d="M108.26,54.46c.02-.87.29-1.74.76-2.48.68.39,1.26.97,1.65,1.65"/>
              <path class="cls-1" d="M110.44,54.3l.76-1.45c.31.27.62.55.93.82"/>
              <path class="cls-1" d="M124.19,56.11c0-.6.34-1.16.77-1.58s.97-.71,1.5-1.01c.45.73.62,1.63.47,2.48-.1-.78.31-1.6.99-2,.43.42.79.93,1.04,1.49"/>
              <path class="cls-1" d="M117.15,52.39c.04-.88.39-1.75.97-2.41.63.71,1.12,1.53,1.45,2.42.24-.43.48-.86.72-1.3.71.47.81,1.29.81,1.29"/>
            </g>
          </g>
          <path class="cls-4" d="M135.44,54.22c0,3.16-7.69,5.72-17.17,5.72s-17.17-2.56-17.17-5.72"/>
          <g>
            <path class="cls-5" d="M99.83,61.71s-1.94,9.82,5.1,16.99"/>
            <path class="cls-5" d="M104.26,63.96s-.87,9.13,5.82,15.55"/>
            <path class="cls-3" d="M97.65,64.79s5.27,5.06,14.77,4.13"/>
            <path class="cls-3" d="M97.96,69.96s5.27,5.06,14.77,4.13"/>
          </g>
          <path class="cls-4" d="M139.3,55.42c-.07-3.9-9.58-7.05-21.3-7.05s-21.21,3.14-21.3,7.04c-.85,2.37-1.32,4.92-1.32,7.58,0,12.41,5.92,22.47,22.62,22.47,18.56,0,22.62-10.06,22.62-22.47,0-2.65-.47-5.2-1.32-7.56Z"/>
        </g>
        <g>
          <g>
            <rect class="cls-16" x="207.66" y="76.19" width="82.11" height="31.47"/>
            <path d="M290.13,108.03h-82.84v-32.21h82.84v32.21ZM208.02,107.29h81.37v-30.73h-81.37v30.73Z"/>
          </g>
          <g>
            <path class="cls-12" d="M204.72,107.66h88.63c.3,0,.55.25.55.55v5.75h-89.73v-5.75c0-.3.25-.55.55-.55Z"/>
            <path d="M294.27,114.34h-90.47v-5.37c0-.92.75-1.68,1.68-1.68h87.11c.92,0,1.68.75,1.68,1.68v5.37ZM204.54,113.6h88.99v-4.63c0-.52-.42-.94-.94-.94h-87.11c-.52,0-.94.42-.94.94v4.63Z"/>
          </g>
          <g>
            <rect class="cls-17" x="241.99" y="83.78" width="13.43" height="23.89"/>
            <path d="M255.79,108.03h-14.17v-24.63h14.17v24.63ZM242.36,107.29h12.69v-23.15h-12.69v23.15Z"/>
          </g>
          <g>
            <rect class="cls-10" x="207.66" y="76.19" width="2.55" height="31.47"/>
            <path d="M210.57,108.03h-3.28v-32.21h3.28v32.21ZM208.02,107.29h1.81v-30.73h-1.81v30.73Z"/>
          </g>
          <g>
            <rect class="cls-10" x="227.37" y="76.19" width="2.55" height="31.47"/>
            <path d="M230.29,108.03h-3.28v-32.21h3.28v32.21ZM227.74,107.29h1.81v-30.73h-1.81v30.73Z"/>
          </g>
          <g>
            <rect class="cls-10" x="267.5" y="76.19" width="2.55" height="31.47" transform="translate(537.55 183.86) rotate(180)"/>
            <path d="M270.42,108.03h-3.28v-32.21h3.28v32.21ZM267.87,107.29h1.81v-30.73h-1.81v30.73Z"/>
          </g>
          <g>
            <rect class="cls-10" x="287.21" y="76.19" width="2.55" height="31.47" transform="translate(576.98 183.86) rotate(180)"/>
            <path d="M290.13,108.03h-3.28v-32.21h3.28v32.21ZM287.58,107.29h1.81v-30.73h-1.81v30.73Z"/>
          </g>
          <g>
            <path class="cls-11" d="M195.23,77.07c-1.78,0-2.95-1.86-2.18-3.46,3.94-8.15,17.43-27.88,55.66-27.88,38.23,0,51.71,19.73,55.66,27.88.77,1.6-.4,3.46-2.18,3.46h-106.96Z"/>
            <path d="M302.19,77.44h-106.96c-.97,0-1.85-.49-2.36-1.31-.51-.82-.57-1.82-.15-2.69,4.08-8.45,17.71-28.09,55.99-28.09s51.91,19.64,55.99,28.09c.42.87.36,1.87-.15,2.69-.51.82-1.39,1.31-2.36,1.31ZM248.71,46.09c-37.86,0-51.3,19.35-55.32,27.67-.31.64-.27,1.37.11,1.97.38.6,1.03.96,1.73.96h106.96c.71,0,1.36-.36,1.73-.96.38-.6.42-1.33.11-1.97-4.02-8.32-17.47-27.67-55.32-27.67Z"/>
          </g>
          <g>
            <path class="cls-13" d="M295.21,74.21c-.56,0-1.1-.32-1.34-.86-3.27-7.14-14.21-23.74-45.16-23.74s-41.89,16.6-45.16,23.74c-.34.74-1.22,1.07-1.96.73-.74-.34-1.07-1.22-.73-1.96,3.5-7.66,15.18-25.47,47.84-25.47s44.34,17.81,47.84,25.47c.34.74.01,1.62-.73,1.96-.2.09-.41.13-.61.13Z"/>
            <path class="cls-13" d="M211.4,74.21c-.17,0-.34-.03-.51-.09-.77-.28-1.16-1.13-.88-1.9,2.82-7.69,12.25-25.57,38.7-25.57s35.87,17.89,38.7,25.57c.28.76-.11,1.61-.88,1.9-.77.28-1.62-.11-1.9-.88-2.61-7.11-11.34-23.64-35.93-23.64s-33.32,16.53-35.93,23.64c-.22.6-.78.97-1.39.97Z"/>
            <path class="cls-13" d="M275.42,74.21c-.66,0-1.25-.44-1.43-1.1-1.86-7.07-8.04-23.5-25.28-23.5s-23.42,16.44-25.28,23.5c-.21.79-1.01,1.27-1.8,1.05-.79-.21-1.26-1.02-1.05-1.8,2.03-7.73,8.84-25.71,28.14-25.71s26.11,17.98,28.14,25.71c.21.79-.26,1.6-1.05,1.8-.13.03-.25.05-.38.05Z"/>
            <path class="cls-13" d="M263.1,74.21c-.72,0-1.36-.53-1.46-1.27-.78-5.47-4-23.34-12.93-23.34s-12.16,17.86-12.93,23.34c-.11.81-.87,1.37-1.67,1.25-.81-.11-1.37-.86-1.25-1.67,1.1-7.78,4.85-25.88,15.86-25.88s14.75,18.1,15.86,25.88c.11.81-.45,1.56-1.25,1.67-.07,0-.14.02-.21.02Z"/>
            <path class="cls-13" d="M253.52,74.21c-.78,0-1.44-.62-1.47-1.41-.74-15.6-2.39-21.64-3.34-23-.95,1.36-2.6,7.4-3.34,23-.04.81-.74,1.46-1.55,1.4-.81-.04-1.44-.73-1.41-1.55,1.23-26.01,4.65-26.01,6.29-26.01s5.06,0,6.29,26.01c.04.82-.59,1.51-1.41,1.55-.02,0-.05,0-.07,0Z"/>
          </g>
        </g>
        <g>
          <rect class="cls-6" x="21.67" y="93.36" width="170.39" height="61.22" rx="12.21" ry="12.21"/>
          <text class="cls-19" transform="translate(116.04 134.06)"><tspan x="0" y="0">다소</tspan></text>
          <g>
            <circle class="cls-4" cx="55.2" cy="124.4" r="13.67"/>
            <circle class="cls-4" cx="93.14" cy="124.4" r="13.67"/>
          </g>
        </g>
      </g>
    </g>
  </g>
</svg>