<?xml version="1.0" encoding="UTF-8"?>
<svg id="_레이어_2" width="96.74" height="208.98" data-name="레이어_2" xmlns="http://www.w3.org/2000/svg" xmlns:xlink="http://www.w3.org/1999/xlink" viewBox="0 0 96.74 208.98">
  <defs>
    <style>
      .cls-1 {
        fill: #ffd2be;
      }

      .cls-2 {
        fill: #ffcfbd;
      }

      .cls-3, .cls-4, .cls-5, .cls-6, .cls-7, .cls-8, .cls-9 {
        stroke: #000;
        stroke-linecap: round;
        stroke-linejoin: round;
        stroke-width: 1.51px;
      }

      .cls-3, .cls-10 {
        fill: #9e7630;
      }

      .cls-11 {
        fill: #ffd8c0;
      }

      .cls-4 {
        fill: #fff4c5;
      }

      .cls-12 {
        fill: #fff;
      }

      .cls-13 {
        fill: #ffccbc;
      }

      .cls-14 {
        fill: #ffd6bf;
      }

      .cls-15 {
        fill: #ffcbbc;
      }

      .cls-16 {
        fill: #ffd7bf;
      }

      .cls-17 {
        fill: #ffcabc;
      }

      .cls-18 {
        fill: #ffd3be;
      }

      .cls-19 {
        fill: #ffd5bf;
      }

      .cls-20 {
        clip-path: url(#clippath-1);
      }

      .cls-21 {
        fill: #ffcebd;
      }

      .cls-22 {
        fill: #ffd1be;
      }

      .cls-23 {
        fill: #ffc8bb;
      }

      .cls-24 {
        fill: #ffd4bf;
      }

      .cls-5 {
        fill: #d3c484;
      }

      .cls-25 {
        fill: #ffcdbc;
      }

      .cls-6 {
        fill: #ffe3bd;
      }

      .cls-26 {
        fill: #ffd0bd;
      }

      .cls-7 {
        fill: none;
      }

      .cls-8, .cls-27 {
        fill: #ffd9c0;
      }

      .cls-9 {
        fill: #afafaf;
      }

      .cls-28 {
        fill: #ffc9bb;
      }

      .cls-29 {
        fill: #7a7a7a;
      }

      .cls-30 {
        clip-path: url(#clippath);
      }
    </style>
    <clipPath id="clippath">
      <path class="cls-3" d="M37.24,196.66c-1.91-.47-3.76-1.57-4.68-3.31-.32-.61-.5-1.31-.53-2-1.23,1.38-2.18,2.79-2.17,4.7.01,2.39.66,4.92,4.93,6.01,4.25,1.08,7.6-.83,9.31-2.71,1.5-1.66,2.21-3.36,2.58-5.11-.75.68-1.58,1.26-2.5,1.7-2.14,1.02-4.63,1.28-6.93.72Z"/>
    </clipPath>
    <clipPath id="clippath-1">
      <path class="cls-3" d="M67.6,197.98c1.91-.47,3.76-1.57,4.68-3.31.32-.61.5-1.31.53-2,1.23,1.38,2.18,2.79,2.17,4.7-.01,2.39-.66,4.92-4.93,6.01-4.25,1.08-7.6-.83-9.31-2.71-1.5-1.66-2.21-3.36-2.58-5.11.75.68,1.58,1.26,2.5,1.7,2.14,1.02,4.63,1.28,6.93.72Z"/>
    </clipPath>
  </defs>
  <g id="Layer_6">
    <g>
      <g>
        <path class="cls-12" d="M67.62,206.71c-3.42,0-6.83-1.5-9.11-4.02-1.71-1.88-2.75-3.95-3.3-6.51-.32-1.52-.42-3.04-.51-4.38-.07-1-.13-2.02-.28-2.98-.16-1.04-.26-2.63-.31-4.86-.73-.42-1.38-.88-1.94-1.34-.46.4-.95.78-1.47,1.13-.05,1.66-.14,2.89-.28,3.75-.15.95-.22,1.97-.28,2.96-.09,1.36-.19,2.87-.51,4.39-.54,2.56-1.59,4.63-3.29,6.51-2.28,2.51-5.69,4.02-9.11,4.02-1.06,0-2.13-.14-3.19-.41-4.75-1.21-7.18-4.22-7.2-8.92-.02-3.01,1.47-5.09,2.93-6.72.38-.42.77-.84,1.18-1.26.36-.38.73-.76,1.09-1.17.77-.86,1.37-1.97,1.76-3.25-4.97-3.27-8.7-9.28-10.32-16.7-1.04-4.75-1.18-9.61-1.1-13.93-.4-.1-.81-.2-1.22-.31-.79-.21-1.47-.74-1.87-1.45-.4-.71-.5-1.57-.26-2.35,1.18-3.98,3.06-8.67,4.6-12.28-6.16-.99-17.27-4.53-18.43-17.26-1.2-13.1,4.17-21.72,8.89-26.64,2.67-2.79,5.4-4.7,7.8-6.02-3.66-2.72-6.63-6.14-8.86-10.23-.11,0-.21,0-.32,0-2.4,0-4.71-.77-6.5-2.18-3.56-2.8-4.92-7.89-3.25-12.09.87-2.19,2.48-4,4.47-5.02-.01-.06-.03-.12-.04-.18-.63-3.24-2.26-13.75,1.86-18.04.68-6.4,4.75-22.67,28.35-25.97-.1-1.46.08-2.92.54-4.31.63-1.9,1.73-3.5,3.18-4.62,1.5-1.16,3.44-1.83,5.32-1.83.32,0,.64.02.95.06,2.17.26,4.24,1.48,5.54,3.26.99,1.36,1.57,3.01,1.77,5.05.08.76.09,1.54.05,2.32,23.12,3.02,29.48,18.6,31.2,25.97.22.25.42.5.6.75,3.51,4.86,1.73,14.64,1.34,16.55-.03.15-.07.29-.12.42.28.09.56.19.82.31,2.21.97,4.02,2.89,4.96,5.26,1.67,4.2.3,9.29-3.25,12.09-1.79,1.41-4.1,2.18-6.5,2.18-.62,0-1.24-.05-1.84-.15-1.89,3.32-4.32,6.23-7.26,8.69,2.94,1.27,5.92,3.36,8.6,6.1,6.46,6.59,9.99,15.3,9.69,23.92-.4,11.53-8.53,17.66-16.45,19.73l-.48,1.57c-.02.07-.04.14-.07.21l6.16,11.65c.42.8.47,1.73.13,2.56-.34.83-1.03,1.47-1.88,1.74-.01,0-.75.24-2.12.59.59,8.52-.01,21.69-7.98,28.63,0,.24.01.45.03.63.2,2.41.98,4.44,2.26,5.87.36.4.73.79,1.09,1.17,0,0,.07.07.07.07.38.4.75.79,1.11,1.19,1.46,1.64,2.95,3.72,2.94,6.72-.03,4.71-2.45,7.71-7.2,8.92-1.05.27-2.13.41-3.18.41Z"/>
        <path class="cls-12" d="M46.64,4.54c.23,0,.46.01.68.04,1.68.2,3.12,1.16,3.98,2.34s1.21,2.56,1.35,3.93c.13,1.37.05,2.75-.22,4.1,23.88,2.15,30.06,17.56,31.65,25.06.34.34.62.68.84.99,3.08,4.27,1.04,14.34.96,14.77-.05.24-.21.44-.43.54-.09.04-.19.06-.29.06-.12,0-.23-.03-.34-.08.02.75,0,1.51-.05,2.26.21-.02.41-.03.62-.03.84,0,1.7.17,2.5.52,1.67.73,3.04,2.2,3.77,4.02,1.29,3.24.19,7.31-2.55,9.47-1.43,1.13-3.26,1.7-5.09,1.7-1.02,0-2.04-.18-2.99-.54-2.53,5.07-6.35,9.22-11.25,12.26,3.83.38,8.28,2.84,12.13,6.77,6.02,6.14,9.32,14.26,9.05,22.25-.47,13.75-12.54,17.19-15.97,17.9l-.86,2.82c-.09.28-.32.48-.61.53-.01,0-.02,0-.03,0l6.9,13.05c.1.2.12.43.03.64-.08.21-.26.37-.47.43-.06.02-1.43.44-3.85,1,.67,6.97,1.03,22.55-7.82,29.3-.02.7-.02,1.36.03,1.9.24,2.9,1.22,5.39,2.82,7.19.38.42.76.83,1.14,1.22.38.4.76.8,1.12,1.2,0,0,0,0,0,0,1.23,1.38,2.37,2.97,2.36,5.2-.01,2.49-.65,5.5-5.5,6.74-.91.23-1.79.34-2.62.34-3.24,0-5.87-1.56-7.43-3.27-1.42-1.57-2.3-3.3-2.76-5.46-.29-1.35-.38-2.73-.47-4.06-.07-1.04-.14-2.12-.31-3.18-.2-1.28-.28-3.56-.3-5.9-2.03-.9-3.5-2.27-4.29-3.15-.98,1.27-2.22,2.28-3.61,3.04-.03,1.9-.12,3.64-.28,4.69-.17,1.06-.24,2.14-.31,3.18-.09,1.33-.18,2.7-.47,4.05-.46,2.15-1.33,3.89-2.76,5.46-1.56,1.72-4.2,3.27-7.43,3.27-.84,0-1.71-.1-2.62-.34-4.85-1.24-5.48-4.25-5.49-6.74-.01-2.23,1.13-3.82,2.36-5.2,0,0,0,0,0,0,.36-.4.74-.8,1.12-1.2.38-.4.77-.8,1.14-1.22,1.36-1.52,2.26-3.54,2.65-5.89-.16-.08-.32-.16-.47-.25-4.91-2.78-8.63-8.55-10.22-15.82-1.1-5.01-1.16-10.16-1-15.23-.98-.23-1.96-.46-2.96-.72-.2-.05-.37-.18-.47-.36-.1-.18-.12-.39-.07-.59,1.32-4.43,3.53-9.79,5.09-13.38-.26-.06-.47-.26-.55-.52l-.3-1.07c-5.2-.58-16.87-3.24-17.98-15.43-1.12-12.25,3.88-20.28,8.27-24.86,3.46-3.61,7.35-5.96,10.88-7.24-5.75-3.2-9.74-7.79-12.27-12.99-.53.1-1.08.16-1.62.16-1.83,0-3.66-.57-5.09-1.7-2.74-2.16-3.84-6.23-2.55-9.47.73-1.82,2.1-3.29,3.77-4.02.57-.25,1.16-.4,1.76-.47-.06-.46-.1-.91-.13-1.37-.04,0-.08.02-.11.02-.1,0-.19-.02-.28-.05-.24-.1-.41-.31-.46-.56-.26-1.35-2.42-13.27,1.68-16.41.04-.03.09-.06.13-.09.42-6.2,3.89-22.69,28.82-25.1-.55-1.83-.55-3.76.05-5.57.44-1.32,1.19-2.59,2.41-3.54,1.05-.81,2.48-1.35,3.93-1.35M46.64,0c-2.37,0-4.82.84-6.7,2.3-1.81,1.4-3.17,3.37-3.94,5.7-.33,1-.54,2.04-.63,3.08C12.68,15.05,8.02,30.87,7.09,38.02c-3.63,4.5-3.08,12.63-2.17,18.08-1.78,1.31-3.21,3.15-4.06,5.29-2.03,5.12-.37,11.31,3.96,14.72,1.93,1.52,4.34,2.43,6.88,2.63,1.73,2.92,3.84,5.5,6.3,7.73-1.8,1.23-3.69,2.78-5.54,4.71-5.04,5.26-10.78,14.47-9.51,28.41.86,9.48,7.31,16.26,17.52,18.74-1.3,3.17-2.67,6.77-3.61,9.95-.41,1.36-.24,2.86.46,4.11.61,1.09,1.61,1.93,2.77,2.37-.01,3.99.22,8.36,1.17,12.68,1.58,7.23,5.07,13.25,9.76,17-.2.36-.43.68-.68.96-.34.38-.69.74-1.03,1.1-.42.44-.84.88-1.23,1.32-.02.02-.03.03-.05.05-1.63,1.84-3.48,4.43-3.46,8.19.04,7.31,4.87,10.08,8.91,11.11,1.24.32,2.5.48,3.75.48,4.11,0,8.05-1.74,10.79-4.76,1.96-2.16,3.21-4.64,3.83-7.57.32-1.51.44-2.97.53-4.28.02.29.04.59.06.9.09,1.42.2,3.02.55,4.7.62,2.93,1.88,5.41,3.83,7.57,2.74,3.03,6.68,4.76,10.79,4.76,1.25,0,2.51-.16,3.75-.48,4.04-1.03,8.87-3.8,8.91-11.11.02-3.76-1.82-6.35-3.46-8.19-.02-.02-.04-.04-.05-.06h0c-.38-.42-.78-.85-1.19-1.27l-.04-.04c-.35-.36-.7-.73-1.04-1.11-.86-.97-1.43-2.37-1.64-4.06,7.34-7.18,8.38-19.22,8.01-27.85.29-.08.44-.13.44-.13,1.49-.47,2.69-1.58,3.29-3.03.6-1.46.52-3.09-.22-4.48l-5.6-10.59c8.26-2.62,16.29-9.35,16.71-21.43.32-9.23-3.45-18.56-10.34-25.58-1.98-2.02-4.12-3.72-6.31-5.04,1.72-1.75,3.24-3.67,4.55-5.76.21.01.42.01.64.01,2.91,0,5.72-.95,7.9-2.67,4.33-3.41,5.99-9.6,3.96-14.71-1.04-2.61-2.94-4.78-5.29-6.07.66-3.92,1.5-12.15-1.98-16.97-.11-.16-.23-.31-.36-.47-1.96-7.84-8.63-23.17-31.03-26.89-.01-.19-.03-.39-.05-.58-.24-2.45-.96-4.47-2.2-6.17-1.69-2.31-4.27-3.83-7.1-4.17-.4-.05-.82-.07-1.23-.07h0Z"/>
      </g>
      <path class="cls-4" d="M90.2,114.95c.53-15.48-12.77-28.42-21.56-28.29-1.89-.62-3.93-.91-5.97-.73l-19.54-2.53c-3.65.47-7.04,1.63-10.04,3.26-8.89-.42-26.86,10.61-24.86,32.45,1.38,15.13,19.7,14.9,19.7,14.9l40.49,7.98,5.58-9.71s15.68-1.85,16.21-17.33Z"/>
      <path class="cls-8" d="M14.01,60c-1.43-.89-3.32-.95-4.86-.27s-2.75,2.04-3.37,3.61c-1.18,2.96-.19,6.63,2.31,8.6,2.5,1.97,6.3,2.07,8.9.23l-2.98-12.18Z"/>
      <path class="cls-8" d="M82.73,60c1.43-.89,3.32-.95,4.86-.27s2.75,2.04,3.37,3.61c1.18,2.96.19,6.63-2.31,8.6-2.5,1.97-6.3,2.07-8.9.23l2.98-12.18Z"/>
      <polygon class="cls-6" points="42.99 86.66 48.78 99.76 54.57 86.16 42.99 86.66"/>
      <polygon class="cls-5" points="40.47 82.38 34.55 85.65 47.02 106.43 51.8 101.27 40.47 82.38"/>
      <polygon class="cls-5" points="53.56 87.16 33.39 132.73 38.8 135.02 60.61 85.93 53.56 87.16"/>
      <path class="cls-8" d="M83.8,57.78c0,18.36-12.64,33.24-36.67,33.24S11.53,76.13,11.53,57.78,23.1,24.54,47.13,24.54s36.67,14.88,36.67,33.24Z"/>
      <g>
        <g>
          <g>
            <path class="cls-10" d="M37.24,196.66c-1.91-.47-3.76-1.57-4.68-3.31-.32-.61-.5-1.31-.53-2-1.23,1.38-2.18,2.79-2.17,4.7.01,2.39.66,4.92,4.93,6.01,4.25,1.08,7.6-.83,9.31-2.71,1.5-1.66,2.21-3.36,2.58-5.11-.75.68-1.58,1.26-2.5,1.7-2.14,1.02-4.63,1.28-6.93.72Z"/>
            <g class="cls-30">
              <line class="cls-3" x1="27.19" y1="199.52" x2="34.42" y2="193.38"/>
              <line class="cls-3" x1="31.62" y1="203.14" x2="37.31" y2="194.01"/>
              <path class="cls-3" d="M38.13,204.4c0-.18.99-8.68.99-8.68"/>
              <path class="cls-3" d="M42.55,194.73c0,.36.63,8.22.63,8.22"/>
            </g>
            <path class="cls-7" d="M37.24,196.66c-1.91-.47-3.76-1.57-4.68-3.31-.32-.61-.5-1.31-.53-2-1.23,1.38-2.18,2.79-2.17,4.7.01,2.39.66,4.92,4.93,6.01,4.25,1.08,7.6-.83,9.31-2.71,1.5-1.66,2.21-3.36,2.58-5.11-.75.68-1.58,1.26-2.5,1.7-2.14,1.02-4.63,1.28-6.93.72Z"/>
          </g>
          <path class="cls-8" d="M47.63,173.35l-10.87-.28s.77,5.48.54,8.22c-.23,2.74-1.11,5.5-3.01,7.63-.76.85-1.56,1.63-2.26,2.42.03.7.2,1.39.53,2,.92,1.74,2.77,2.84,4.68,3.31,2.3.56,4.8.3,6.93-.72.91-.44,1.75-1.02,2.5-1.7.5-2.34.38-4.75.77-7.19.52-3.3.2-13.69.2-13.69Z"/>
        </g>
        <g>
          <g>
            <path class="cls-10" d="M67.6,197.98c1.91-.47,3.76-1.57,4.68-3.31.32-.61.5-1.31.53-2,1.23,1.38,2.18,2.79,2.17,4.7-.01,2.39-.66,4.92-4.93,6.01-4.25,1.08-7.6-.83-9.31-2.71-1.5-1.66-2.21-3.36-2.58-5.11.75.68,1.58,1.26,2.5,1.7,2.14,1.02,4.63,1.28,6.93.72Z"/>
            <g class="cls-20">
              <line class="cls-3" x1="77.64" y1="200.84" x2="70.41" y2="194.7"/>
              <line class="cls-3" x1="73.22" y1="204.46" x2="67.52" y2="195.33"/>
              <path class="cls-3" d="M66.71,205.72c0-.18-.99-8.68-.99-8.68"/>
              <path class="cls-3" d="M62.28,196.05c0,.36-.63,8.22-.63,8.22"/>
            </g>
            <path class="cls-7" d="M67.6,197.98c1.91-.47,3.76-1.57,4.68-3.31.32-.61.5-1.31.53-2,1.23,1.38,2.18,2.79,2.17,4.7-.01,2.39-.66,4.92-4.93,6.01-4.25,1.08-7.6-.83-9.31-2.71-1.5-1.66-2.21-3.36-2.58-5.11.75.68,1.58,1.26,2.5,1.7,2.14,1.02,4.63,1.28,6.93.72Z"/>
          </g>
          <path class="cls-8" d="M57.21,174.67l10.87-.28s-.77,5.48-.54,8.22c.23,2.74,1.11,5.5,3.01,7.63.76.85,1.56,1.63,2.26,2.42-.03.7-.2,1.39-.53,2-.92,1.74-2.77,2.84-4.68,3.31-2.3.56-4.8.3-6.93-.72-.91-.44-1.75-1.02-2.5-1.7-.5-2.34-.38-4.75-.77-7.19-.52-3.3-.2-13.69-.2-13.69Z"/>
        </g>
        <path class="cls-4" d="M25.62,146.98c-.29,6.47-.56,13.04.81,19.33,1.37,6.29,4.66,12.38,9.86,15.32,5.2,2.95,12.4,1.86,15.74-3.46,0,0,4.76,6.93,12.63,3.69,14.95-6.16,10.25-33.85,10.25-33.85l-49.28-1.04Z"/>
        <path class="cls-7" d="M47.03,162.55c1.75-.35,3.36,1.55,3.89,3.64.54,2.09.32,4.34.3,6.54-.01,2.19.25,4.57,1.5,6.13"/>
      </g>
      <path d="M10.77,51.2c-.78,4.54-.29,9.29,1.4,13.58,2.27-5.32,4.95-10.47,8-15.38l-9.4,1.8Z"/>
      <path d="M11.41,42.45s-2.22-27.75,35.25-27.75,37.98,29.41,37.98,29.41l-73.23-1.66Z"/>
      <path d="M84.48,52.73c.78,4.54.29,9.29-1.4,13.58-2.27-5.32-4.95-10.47-8-15.38l9.4,1.8Z"/>
      <path class="cls-9" d="M11.77,40.79c-3.85,2.95-1.4,15.67-1.4,15.67,0,0,12.77-9.07,38.07-9.07,22.42,0,36.7,8.23,36.7,8.23,0,0,2.09-10.13-.83-14.17-2.92-4.05-12.96-8.34-36.48-8.34s-32.22,4.74-36.07,7.69Z"/>
      <g>
        <circle class="cls-27" cx="31.67" cy="70.76" r="8.28"/>
        <circle class="cls-11" cx="31.66" cy="70.73" r="8.01"/>
        <circle class="cls-16" cx="31.66" cy="70.7" r="7.74"/>
        <circle class="cls-14" cx="31.65" cy="70.67" r="7.46"/>
        <circle class="cls-19" cx="31.64" cy="70.64" r="7.19"/>
        <circle class="cls-24" cx="31.64" cy="70.61" r="6.92"/>
        <circle class="cls-18" cx="31.63" cy="70.58" r="6.64"/>
        <circle class="cls-1" cx="31.62" cy="70.55" r="6.37"/>
        <circle class="cls-22" cx="31.62" cy="70.52" r="6.1"/>
        <circle class="cls-22" cx="31.61" cy="70.49" r="5.82"/>
        <circle class="cls-26" cx="31.61" cy="70.46" r="5.55"/>
        <circle class="cls-2" cx="31.6" cy="70.43" r="5.28"/>
        <circle class="cls-21" cx="31.59" cy="70.4" r="5"/>
        <circle class="cls-25" cx="31.59" cy="70.36" r="4.73"/>
        <circle class="cls-13" cx="31.58" cy="70.33" r="4.46"/>
        <circle class="cls-15" cx="31.58" cy="70.3" r="4.18"/>
        <circle class="cls-17" cx="31.57" cy="70.27" r="3.91"/>
        <circle class="cls-28" cx="31.56" cy="70.24" r="3.64"/>
        <circle class="cls-23" cx="31.56" cy="70.21" r="3.36"/>
      </g>
      <g>
        <circle class="cls-27" cx="63.38" cy="71.2" r="8.28"/>
        <circle class="cls-11" cx="63.37" cy="71.17" r="8.01"/>
        <circle class="cls-16" cx="63.36" cy="71.14" r="7.74"/>
        <circle class="cls-14" cx="63.36" cy="71.11" r="7.46"/>
        <circle class="cls-19" cx="63.35" cy="71.08" r="7.19"/>
        <circle class="cls-24" cx="63.35" cy="71.05" r="6.92"/>
        <circle class="cls-18" cx="63.34" cy="71.01" r="6.64"/>
        <circle class="cls-1" cx="63.33" cy="70.98" r="6.37"/>
        <circle class="cls-22" cx="63.33" cy="70.95" r="6.1"/>
        <circle class="cls-22" cx="63.32" cy="70.92" r="5.82"/>
        <circle class="cls-26" cx="63.32" cy="70.89" r="5.55"/>
        <circle class="cls-2" cx="63.31" cy="70.86" r="5.28"/>
        <circle class="cls-21" cx="63.3" cy="70.83" r="5"/>
        <circle class="cls-25" cx="63.3" cy="70.8" r="4.73"/>
        <circle class="cls-13" cx="63.29" cy="70.77" r="4.46"/>
        <circle class="cls-15" cx="63.28" cy="70.74" r="4.18"/>
        <circle class="cls-17" cx="63.28" cy="70.71" r="3.91"/>
        <circle class="cls-28" cx="63.27" cy="70.68" r="3.64"/>
        <circle class="cls-23" cx="63.27" cy="70.65" r="3.36"/>
      </g>
      <path class="cls-7" d="M43.63,78.43c1.29,1.22,3.05,1.91,4.82,1.91s3.53-.72,4.8-1.95"/>
      <path d="M40.68,71.82c-3.45,1.84-4.99,7.6-4.99,7.6,0,0,4.87-3.5,7.31-4.47,2.44-.97,5.17-1.49,7.78-1.03,3.57.62,6.47,2.94,9.18,5.17,0-2.6-1.02-5.29-3.58-7.2-2.56-1.9-12.25-1.92-15.7-.08Z"/>
      <path class="cls-4" d="M28.79,132.5s-4.66,9.91-6.86,17.3c31.38,8.23,57.77-.17,57.77-.17l-9.69-18.33-41.22,1.2Z"/>
      <path class="cls-7" d="M29.12,56.61c1.76-1.69,4.13-2.73,6.57-2.86s4.91.63,6.85,2.11"/>
      <path class="cls-7" d="M50.44,56.42c1.76-1.69,4.13-2.73,6.57-2.86s4.91.63,6.85,2.11"/>
      <path class="cls-7" d="M22.92,100.2c-2.61,9.92-1.69,20.46,2.63,29.96"/>
      <polygon class="cls-5" points="35.11 135.19 31.08 152.25 39.8 153.34 42.27 135.84 35.11 135.19"/>
      <path class="cls-7" d="M75.56,99.32c3,9.8,2.72,20.28-.8,29.96"/>
      <path class="cls-5" d="M24.64,128.95l1.84,6.52s25.35,3.14,46.92,0l2.15-7s-20.85,4.35-50.9.48Z"/>
      <path class="cls-7" d="M46.88,64.21c-1.38.24-2.47,1.6-2.42,3s1.26,2.66,2.65,2.79"/>
      <path class="cls-7" d="M29.23,64.07c3.91-1.01,8.11-.82,11.91.54"/>
      <path class="cls-7" d="M52.99,64.3c3.72-1.56,8.02-1.69,11.83-.37"/>
      <path d="M43.82,83.93h10.47s-2.56,9.19-5.34,9.19-5.13-9.19-5.13-9.19Z"/>
      <path d="M42.67,19.15c-2.56-2.73-3.45-6.42-2.36-9.72.43-1.32,1.19-2.59,2.41-3.54s2.94-1.51,4.61-1.31c1.68.2,3.12,1.16,3.98,2.34s1.21,2.56,1.35,3.93c.29,3-.4,6.07-2.01,8.79l-7.98-.49Z"/>
      <path class="cls-29" d="M16.88,32.49c-.26.68-.43,1.58.16,2.01.57.41,1.35,0,1.9-.42,3.39-2.64,6.05-6.71,10.28-7.48-.62.22-1.01.95-.85,1.6s.85,1.1,1.51,1.01c.35-.05.66-.24.96-.42l8.69-5.21c.24-.14.49-.3.61-.54.27-.52-.17-1.18-.73-1.36s-1.17-.02-1.73.13c-3.24.9-6.48,1.8-9.72,2.7,1.21-1.08,2.42-2.16,3.64-3.23,2.11-1.87-.34-2.2-1.88-1.61-1.93.74-3.75,1.8-5.39,3.05-3.29,2.51-5.92,5.91-7.44,9.77Z"/>
    </g>
  </g>
</svg>