<?xml version="1.0" encoding="UTF-8"?>
<svg id="_레이어_2" width="103.63" height="200.77" data-name="레이어_2" xmlns="http://www.w3.org/2000/svg" xmlns:xlink="http://www.w3.org/1999/xlink" viewBox="0 0 103.63 200.77">
  <defs>
    <style>
      .cls-1 {
        fill: #ffd2be;
      }

      .cls-2 {
        fill: #ffcfbd;
      }

      .cls-3 {
        fill: #e5e4c3;
      }

      .cls-3, .cls-4, .cls-5, .cls-6, .cls-7, .cls-8, .cls-9, .cls-10 {
        stroke: #000;
        stroke-linecap: round;
        stroke-linejoin: round;
        stroke-width: 1.4px;
      }

      .cls-11 {
        fill: #ffd8c0;
      }

      .cls-12, .cls-5 {
        fill: #fff;
      }

      .cls-13 {
        fill: #ffccbc;
      }

      .cls-14 {
        fill: #ffd6bf;
      }

      .cls-15 {
        fill: #ffcbbc;
      }

      .cls-16 {
        fill: #ffd7bf;
      }

      .cls-17 {
        fill: #ffcabc;
      }

      .cls-18 {
        fill: #ffd3be;
      }

      .cls-19 {
        fill: #ffd5bf;
      }

      .cls-4 {
        fill: #c9c9c5;
      }

      .cls-20 {
        clip-path: url(#clippath-1);
      }

      .cls-21 {
        fill: #ffcebd;
      }

      .cls-22 {
        fill: #ffd1be;
      }

      .cls-23 {
        fill: #ffc8bb;
      }

      .cls-6, .cls-24 {
        fill: #ffd9c0;
      }

      .cls-25, .cls-10 {
        fill: #9e7630;
      }

      .cls-26 {
        fill: #ffd4bf;
      }

      .cls-27 {
        fill: #ffcdbc;
      }

      .cls-7 {
        fill: #d8d5a9;
      }

      .cls-8 {
        fill: none;
      }

      .cls-28 {
        fill: #ffd0bd;
      }

      .cls-29 {
        fill: #ffc9bb;
      }

      .cls-9 {
        fill: #ffe3bd;
      }

      .cls-30 {
        clip-path: url(#clippath);
      }
    </style>
    <clipPath id="clippath">
      <path class="cls-10" d="M36.25,189.85c-1.83-.45-3.59-1.5-4.47-3.16-.31-.58-.47-1.25-.5-1.91-1.17,1.32-2.08,2.67-2.07,4.48.01,2.28.63,4.7,4.7,5.74,4.06,1.04,7.26-.79,8.89-2.59,1.44-1.58,2.11-3.21,2.46-4.88-.71.65-1.51,1.21-2.38,1.62-2.04.98-4.42,1.23-6.62.69Z"/>
    </clipPath>
    <clipPath id="clippath-1">
      <path class="cls-10" d="M68.81,191.11c1.83-.45,3.59-1.5,4.47-3.16.31-.58.47-1.25.5-1.91,1.17,1.32,2.08,2.67,2.07,4.48-.01,2.28-.63,4.7-4.7,5.74-4.06,1.04-7.26-.79-8.89-2.59-1.44-1.58-2.11-3.21-2.46-4.88.71.65,1.51,1.21,2.38,1.62,2.04.98,4.42,1.23,6.62.69Z"/>
    </clipPath>
  </defs>
  <g id="Layer_6">
    <g>
      <g>
        <path class="cls-12" d="M68.83,199.01c-3.15,0-6.28-1.38-8.38-3.69-1.57-1.74-2.54-3.65-3.04-6.01-.3-1.41-.39-2.79-.48-4.12-.06-.96-.13-1.95-.28-2.88-.17-1.11-.27-2.92-.3-5.52-1.8-1.41-3-3.28-3.82-5.18-.82,1.9-2.02,3.79-3.84,5.2-.04,1.93-.14,3.32-.28,4.23-.15.93-.21,1.91-.27,2.86-.09,1.29-.18,2.73-.48,4.14-.5,2.37-1.47,4.28-3.04,6.02-2.1,2.31-5.23,3.69-8.38,3.69-.98,0-1.96-.13-2.93-.38-6.51-1.66-6.54-6.51-6.55-8.1-.01-2.72,1.35-4.63,2.69-6.13.35-.4.73-.79,1.11-1.19.38-.39.72-.75,1.05-1.12.98-1.09,1.67-2.55,2.03-4.26-.25-.22-.49-.46-.71-.7-3.19-3.54-2.9-8.7-2.74-11.48.02-.34.03-.58.04-.78l.59-17.58c-.76-.21-1.49-.43-2.2-.65-1.24-.38-1.96-1.67-1.65-2.93.26-1.03.56-2.11.88-3.21-.05,0-.1,0-.15,0-.07,0-.21,0-.28-.01-.88-.1-1.8-.24-2.75-.44-.02.47-.07.94-.13,1.4-.23,1.65-.89,3.13-1.46,4.43-.42.95-.82,1.85-1.01,2.69-.04.18-.06.37-.09.55-.06.46-.14,1-.33,1.58-.55,1.65-1.91,2.8-3.46,2.93-.1,0-.19,0-.29,0-1.45,0-2.79-.9-3.47-2.26-.73.4-1.56.62-2.42.62-.42,0-.84-.05-1.25-.16-.96-.26-1.84-.8-2.51-1.56-.03,0-.05,0-.08,0-.74,0-1.46-.19-2.1-.54-1.15-.64-1.91-1.7-2.17-2.97-.45-.42-.89-.99-1.15-1.69-.32-.9-.43-1.7-.43-2.34-.55-.96-.71-2.25-.45-3.85.43-2.69,2.66-5,4.77-6.21-.19-.12-.33-.2-.42-.25-1.03-.64-1.44-1.96-.96-3.06l13.65-31.34c.88-2.01,5.29-10,11.13-14.16-3.23-2.7-5.79-6.17-7.64-10.34-.22.02-.45.02-.67.02-2.2,0-4.32-.71-5.96-2-3.21-2.53-4.49-7.29-2.98-11.08.86-2.17,2.51-3.92,4.52-4.8.55-.24,1.13-.42,1.72-.53.02-1.36.09-2.71.22-4.02-.12-.04-.24-.09-.35-.16-.68-.36-1.16-1.04-1.27-1.82-.22-1.53-1.12-9.34,2.59-12.86.3-.29.64-.58.99-.86,1.24-6.12,5.41-11.83,11.28-15.37,2.99-1.8,6.38-3.07,10.09-3.79-.03-.16-.05-.31-.08-.46-.6-3.83.28-7.43,2.42-9.87,1.59-1.82,3.98-2.9,6.39-2.9,1.47,0,2.86.42,4,1.21,2.61,1.81,3.42,4.97,3.65,7.3.16,1.69.1,3.4-.2,5.11,4.87,1.19,9.3,3.4,12.92,6.44,4.5,3.79,6.09,8.53,6.6,12.06.75.73,1.37,1.5,1.83,2.3,2.56,4.39,2.22,10.79,2.18,11.5-.06.83-.52,1.57-1.24,1.98-.28.16-.58.26-.89.3.13,1.26.21,2.53.24,3.81.87.06,1.74.28,2.53.63,2.01.89,3.66,2.64,4.52,4.8,1.51,3.79.23,8.56-2.98,11.08-1.64,1.29-3.75,2-5.96,2-.58,0-1.16-.05-1.72-.15-1.17,2.51-2.59,4.77-4.24,6.75-.53.63-1.08,1.24-1.66,1.82,7.41,2.78,13.39,13.18,14.64,16.05l13.65,31.33c.48,1.11.07,2.42-.95,3.06-.17.1-.75.46-1.67.98.33.21.62.4.86.56,2.11,1.38,4.4,4.24,4.47,7.24.03,1.62-.29,2.87-.97,3.75-.09.63-.31,1.42-.75,2.26-.35.66-.86,1.16-1.37,1.52-.43,1.23-1.33,2.17-2.55,2.65-.5.19-1.02.29-1.56.29h0c-.23,0-.45-.02-.67-.05-.77.66-1.71,1.08-2.7,1.2-.2.02-.39.04-.59.04-1.09,0-2.14-.37-2.98-1-.75,1.11-1.97,1.8-3.25,1.8-.26,0-.53-.03-.78-.09-1.52-.33-2.71-1.66-3.02-3.37-.11-.6-.11-1.15-.11-1.59,0-.2,0-.39-.01-.58-.07-.86-.34-1.8-.63-2.8-.39-1.37-.84-2.93-.84-4.59,0-.14,0-.29,0-.43-.71.13-1.4.23-2.06.3-.02,0-.04,0-.07,0l1.18,2.65c.27.62.28,1.32.02,1.94-.26.62-.77,1.11-1.39,1.35-.05.02-.93.34-2.51.8l.59,17.64c0,.21.02.46.04.73.16,2.83.45,8-2.74,11.53-.27.3-.57.59-.9.86.26,2.18,1.02,4.02,2.21,5.36.35.39.7.76,1.05,1.12.39.41.76.8,1.11,1.19,1.34,1.5,2.71,3.41,2.7,6.13,0,1.59-.04,6.44-6.55,8.1-.97.25-1.96.38-2.93.38h0Z"/>
        <path class="cls-12" d="M51.3,3.5c1.06,0,2.11.28,3,.9,1.89,1.31,2.68,3.73,2.9,6.03.2,2.1,0,4.24-.54,6.28,5.11.97,9.96,3.15,13.88,6.45,4.42,3.72,5.72,8.49,6.07,11.58.81.71,1.48,1.48,1.98,2.33,2.34,4.02,1.96,10.25,1.94,10.51-.02.24-.15.45-.35.56-.11.06-.23.09-.34.09-.11,0-.22-.03-.32-.08-.02-.01-.52-.27-1.46-.66.39,2.33.6,4.76.6,7.27,0,.29-.01.57-.02.86.39-.08.79-.12,1.19-.12.81,0,1.62.16,2.39.5,1.6.7,2.91,2.11,3.6,3.85,1.23,3.1.18,7-2.44,9.06-1.37,1.08-3.12,1.62-4.87,1.62-.93,0-1.86-.16-2.73-.47-1.18,2.87-2.72,5.47-4.58,7.7-1.24,1.49-2.61,2.8-4.1,3.95.07.02.14.04.21.06,8.08.01,15.49,13.09,16.62,15.68l13.65,31.33c.14.32.02.69-.27.87-.17.1-1.76,1.09-4.19,2.33,1.13.72,2.56,1.63,3.36,2.16,1.79,1.17,3.63,3.55,3.67,5.81.04,1.79-.46,2.59-.91,2.94-.02.5-.13,1.3-.62,2.21-.31.6-.92,1-1.33,1.21-.1.62-.45,1.66-1.68,2.14-.3.12-.61.17-.92.17-.42,0-.83-.1-1.19-.3-.57.79-1.45,1.34-2.39,1.46-.13.02-.25.02-.38.02-1.22,0-2.39-.72-2.88-1.8-.5-1.1-.21-2.46.62-3.27-.12-.42-.27-.83-.53-1.11-.17-.19-.43-.3-.64-.3-.09,0-.18.02-.24.07-.23.18-.26.7-.25,1.18l.04,2.31c.01.69.03,1.54-.34,2.32-.35.74-1.12,1.4-2.01,1.4-.13,0-.26-.01-.4-.04-.83-.18-1.49-.96-1.68-1.98-.08-.44-.08-.86-.08-1.27,0-.24,0-.49-.02-.73-.09-1.03-.38-2.05-.69-3.13-.38-1.32-.77-2.69-.77-4.1,0-.97.1-1.87.25-2.66-1.41.36-2.84.63-4.25.79-.02,0-.05,0-.07,0-.31,0-.59-.2-.68-.5-1.19-4.08-2.66-8.82-4.11-13.46-.89,2.36-1.54,3.83-1.55,3.85-.09.2-.26.34-.46.39l6.59,14.83c.08.18.08.38,0,.55-.07.18-.22.32-.4.39-.05.02-1.37.51-3.69,1.12l.64,19.02c0,.24.02.51.04.82.14,2.52.4,7.22-2.3,10.21-.42.46-.89.86-1.42,1.2,0,.17.01.33.03.48.23,2.78,1.16,5.16,2.7,6.88.36.41.73.79,1.1,1.18.37.38.72.76,1.06,1.14h0s0,0,0,0c1.17,1.32,2.26,2.83,2.25,4.95-.01,2.37-.62,5.24-5.23,6.41-.87.22-1.7.32-2.5.32-3.09,0-5.6-1.48-7.08-3.12-1.36-1.5-2.19-3.15-2.63-5.2-.27-1.29-.36-2.6-.45-3.87-.07-1-.13-2.03-.29-3.04-.21-1.32-.28-3.74-.29-6.15-4-2.57-5.02-7.82-5.56-10.93-.55,3.12-1.56,8.38-5.58,10.94-.03,1.96-.11,3.8-.28,4.88-.16,1.01-.23,2.04-.29,3.04-.08,1.27-.17,2.58-.44,3.87-.43,2.05-1.27,3.7-2.63,5.2-1.48,1.64-4,3.12-7.08,3.12h0c-.8,0-1.63-.1-2.49-.32-4.61-1.18-5.22-4.05-5.23-6.41-.01-2.12,1.07-3.64,2.25-4.96,0,0,0,0,0,0,.34-.38.7-.76,1.07-1.14.36-.38.73-.77,1.09-1.17,1.4-1.57,2.3-3.69,2.62-6.16-.48-.33-.92-.7-1.31-1.14-2.7-2.99-2.44-7.69-2.3-10.21.02-.31.03-.58.04-.82l.64-18.97c-1.15-.3-2.31-.63-3.48-.99-.35-.11-.56-.48-.47-.84,1.22-4.89,3.4-10.97,4.64-14.28h-.07s-.03,0-.04,0c-.28,0-.48-.15-.6-.38-.02-.04-.4-.77-.96-1.96-1.08,3.48-2.25,7.29-3.26,10.73-.09.3-.36.5-.67.5-.03,0-.05,0-.08,0-1.57-.17-3.16-.5-4.73-.92.08.95.09,2.12-.08,3.37-.19,1.4-.77,2.7-1.33,3.96-.46,1.03-.89,2-1.12,3.01-.05.24-.09.48-.12.72-.05.4-.11.82-.25,1.25-.33.98-1.09,1.66-1.94,1.73-.05,0-.1,0-.15,0-1.01,0-1.79-.83-2.06-1.68-.25-.82-.12-1.67-.01-2.34l.36-2.28c.07-.47.12-.99-.08-1.2-.07-.07-.19-.11-.32-.11-.19,0-.42.07-.59.21-.3.24-.5.63-.68,1.02.72.92.81,2.31.17,3.33-.56.89-1.61,1.42-2.67,1.42-.27,0-.54-.03-.8-.1-.91-.24-1.71-.91-2.17-1.77-.27.1-.57.15-.87.15-.42,0-.85-.1-1.24-.32-1.14-.64-1.35-1.72-1.37-2.35-.38-.27-.92-.75-1.15-1.38-.35-.97-.36-1.78-.31-2.28-.4-.41-.78-1.27-.5-3.04.36-2.23,2.5-4.33,4.44-5.25.59-.28,1.5-.7,2.41-1.12-1.92-1.02-3.15-1.78-3.3-1.87-.29-.18-.41-.56-.27-.87l13.65-31.33c.95-2.19,6.24-11.59,12.64-14.69-4.28-2.9-7.56-7.11-9.67-12.42-.58.13-1.17.19-1.76.19-1.75,0-3.5-.54-4.87-1.62-2.62-2.06-3.67-5.96-2.44-9.06.69-1.74,2.01-3.14,3.6-3.85.77-.34,1.59-.5,2.4-.5.12,0,.25,0,.37.01,0-.25-.01-.49-.01-.75,0-2.45.17-4.79.48-7-.57.24-.88.39-.9.4-.1.05-.2.07-.31.07-.11,0-.23-.03-.33-.08-.2-.1-.33-.3-.37-.52-.05-.34-1.14-8.3,2.06-11.35.4-.38.86-.77,1.38-1.16,1-6.05,5.13-11.55,10.58-14.84,3.43-2.07,7.31-3.31,11.32-3.87-.2-.71-.37-1.43-.49-2.16-.46-2.95.03-6.2,2-8.44,1.26-1.43,3.19-2.3,5.07-2.3M51.3,0h0c-2.9,0-5.78,1.31-7.7,3.5-2.25,2.57-3.31,6.21-2.97,10.12-3.28.79-6.31,2.02-9.04,3.66-6.09,3.67-10.47,9.54-11.96,15.9-.21.18-.42.37-.61.55-4.32,4.11-3.35,12.7-3.11,14.38.15,1.06.7,2.02,1.53,2.68-.04.57-.07,1.14-.1,1.71-.24.08-.48.18-.71.28-2.43,1.07-4.41,3.17-5.44,5.76-1.81,4.56-.33,10.07,3.52,13.11,1.83,1.44,4.16,2.28,6.6,2.37,1.58,3.27,3.6,6.1,6.04,8.48-5.33,4.57-9.13,11.52-10.02,13.55l-13.65,31.33c-.55,1.26-.42,2.68.24,3.81-1.82,1.53-3.36,3.68-3.76,6.15-.32,2.03-.04,3.51.44,4.57.04.72.19,1.57.52,2.5.29.79.73,1.44,1.2,1.97.45,1.54,1.45,2.81,2.9,3.63.7.39,1.47.64,2.27.73.81.73,1.77,1.26,2.82,1.54.56.15,1.13.22,1.7.22.61,0,1.21-.08,1.78-.24,1.06,1.16,2.54,1.88,4.11,1.88.14,0,.28,0,.42-.02,2.26-.18,4.22-1.8,4.99-4.12.24-.73.33-1.39.4-1.88.02-.16.03-.29.06-.42.15-.67.5-1.45.9-2.36.19-.43.39-.87.58-1.33.33,1.41,1.38,2.6,2.84,3.06.31.1.61.19.92.28l-.54,16.22c0,.19-.02.41-.03.66v.09c-.16,2.81-.49,8.67,3.19,12.75.02.02.04.05.06.07-.32,1.01-.78,1.88-1.38,2.55-.32.36-.65.7-.97,1.04l-.04.05c-.38.4-.76.8-1.12,1.2-.01.01-.02.02-.03.03-1.47,1.65-3.16,3.97-3.14,7.31.03,6.44,4.3,8.88,7.87,9.79,1.11.28,2.24.43,3.36.43,3.7,0,7.23-1.56,9.68-4.27,1.77-1.95,2.9-4.18,3.46-6.83.32-1.54.42-3.04.51-4.36.07-.98.13-1.88.26-2.73.13-.86.23-2.06.28-3.67.82-.73,1.52-1.55,2.12-2.4.58.84,1.27,1.64,2.08,2.37.04,2.26.14,3.89.31,4.96.13.85.19,1.76.26,2.72.09,1.34.19,2.84.51,4.37.56,2.65,1.69,4.88,3.46,6.83,2.46,2.71,5.98,4.27,9.67,4.27,1.13,0,2.26-.15,3.37-.43,3.57-.91,7.83-3.35,7.86-9.79.02-3.33-1.66-5.64-3.12-7.29-.01-.01-.02-.03-.03-.04-.36-.4-.74-.8-1.12-1.2-.36-.37-.69-.72-1.02-1.09-.8-.89-1.36-2.1-1.64-3.54.11-.11.22-.23.32-.34,3.68-4.08,3.35-9.94,3.19-12.75-.02-.31-.03-.54-.04-.75l-.55-16.29c.83-.26,1.29-.43,1.32-.44.48-.18.92-.45,1.3-.78.07.31.12.6.14.86.01.13,0,.27,0,.41,0,.5,0,1.17.14,1.93.44,2.41,2.16,4.28,4.37,4.76.37.08.76.13,1.15.13,1.32,0,2.59-.49,3.6-1.35.82.35,1.72.55,2.63.55.27,0,.54-.02.81-.05,1.07-.13,2.1-.53,3-1.14.05,0,.1,0,.15,0,.75,0,1.49-.14,2.19-.41,1.55-.61,2.72-1.73,3.38-3.2.54-.46,1.07-1.04,1.46-1.79.46-.87.72-1.69.86-2.4.63-.98,1.11-2.41,1.07-4.46-.06-3.03-1.87-5.83-3.94-7.66,1.35-1.18,1.82-3.15,1.09-4.84l-13.65-31.33c-.06-.14-5.41-11.38-13.35-15.92.04-.04.07-.09.11-.13,1.49-1.79,2.81-3.8,3.93-5.99.23.01.46.02.69.02,2.6,0,5.1-.84,7.04-2.37,3.85-3.03,5.34-8.55,3.52-13.11-1.03-2.59-3.01-4.69-5.44-5.76-.49-.22-1.01-.39-1.54-.52-.02-.38-.04-.77-.07-1.15,1.17-.71,1.92-1.94,2.01-3.31.05-.78.41-7.67-2.41-12.51-.46-.78-1.03-1.54-1.71-2.25-.65-3.77-2.44-8.63-7.12-12.57-3.44-2.9-7.58-5.08-12.11-6.4.13-1.33.13-2.66,0-3.98-.37-3.87-1.89-6.83-4.39-8.57C54.86.53,53.13,0,51.3,0h0Z"/>
      </g>
      <g>
        <g>
          <path class="cls-6" d="M81.72,131.37c.95,1.12.81,2.69.81,2.69,0,0-1,2.38-1,5.3,0,2.42,1.26,4.77,1.47,7.18.06.64-.03,1.3.09,1.93s.51,1.29,1.15,1.42c.67.15,1.34-.35,1.63-.97s.28-1.33.27-2.01c-.01-.77-.03-1.54-.04-2.31-.01-.63.02-1.35.51-1.74.53-.42,1.37-.2,1.83.3s.64,1.19.81,1.84c-.87.55-1.2,1.78-.78,2.72s1.52,1.5,2.54,1.37,1.92-.89,2.28-1.86c.43.65,1.34.85,2.06.56,1.32-.52,1.27-1.95,1.27-1.95,0,0,1.01-.38,1.37-1.07.67-1.28.52-2.31.52-2.31,0,0,.97-.1.92-2.51-.04-1.96-1.72-4.16-3.36-5.24-1.47-.96-5.01-3.21-5.01-3.21,0,0-.29-1.9-.69-3.21-6.91-.09-8.59,3.13-8.65,3.06Z"/>
          <path class="cls-6" d="M89.03,144.17c.41.95.64,1.98.68,3.02"/>
          <path class="cls-6" d="M93,147.81c.61-2.08.35-4.4-.7-6.3"/>
          <path class="cls-6" d="M95.95,147.39c.49-.36.6-1.04.62-1.64.04-1.5-.39-3.63-.98-5.01"/>
          <path class="cls-6" d="M98.2,144.27s.67-1.59-.61-4.54"/>
        </g>
        <g>
          <path class="cls-6" d="M23.01,131.91c-1.09.98-1.17,2.55-1.17,2.55,0,0,.66,2.5.26,5.39-.33,2.39-1.9,4.55-2.44,6.91-.14.63-.15,1.29-.35,1.9s-.69,1.2-1.33,1.25c-.68.05-1.28-.53-1.48-1.18s-.1-1.36,0-2.03c.12-.76.24-1.52.36-2.28.1-.62.16-1.34-.27-1.79-.47-.49-1.33-.38-1.85.05s-.8,1.09-1.06,1.72c.79.66.95,1.93.4,2.8s-1.71,1.28-2.7,1.01c-.99-.26-1.78-1.14-2-2.15-.52.58-1.44.66-2.12.28-1.24-.69-.99-2.11-.99-2.11,0,0-.95-.51-1.21-1.25-.49-1.36-.2-2.36-.2-2.36,0,0-.95-.23-.57-2.61.31-1.94,2.27-3.89,4.05-4.73,1.58-.75,5.41-2.49,5.41-2.49,0,0,.55-1.84,1.13-3.09,6.86.86,8.08,4.28,8.15,4.22Z"/>
          <path class="cls-6" d="M14.01,143.59c-.53.89-.9,1.88-1.09,2.9"/>
          <path class="cls-6" d="M9.58,146.65c-.32-2.15.26-4.41,1.56-6.15"/>
          <path class="cls-6" d="M6.72,145.83c-.44-.42-.45-1.11-.39-1.71.17-1.49.88-3.54,1.65-4.83"/>
          <path class="cls-6" d="M4.92,142.43s-.44-1.66,1.22-4.41"/>
        </g>
        <g>
          <g>
            <path class="cls-25" d="M36.25,189.85c-1.83-.45-3.59-1.5-4.47-3.16-.31-.58-.47-1.25-.5-1.91-1.17,1.32-2.08,2.67-2.07,4.48.01,2.28.63,4.7,4.7,5.74,4.06,1.04,7.26-.79,8.89-2.59,1.44-1.58,2.11-3.21,2.46-4.88-.71.65-1.51,1.21-2.38,1.62-2.04.98-4.42,1.23-6.62.69Z"/>
            <g class="cls-30">
              <line class="cls-10" x1="26.65" y1="192.59" x2="33.56" y2="186.72"/>
              <line class="cls-10" x1="30.88" y1="196.04" x2="36.32" y2="187.32"/>
              <path class="cls-10" d="M37.1,197.25c0-.17.95-8.29.95-8.29"/>
              <path class="cls-10" d="M41.33,188.01c0,.35.6,7.85.6,7.85"/>
            </g>
            <path class="cls-8" d="M36.25,189.85c-1.83-.45-3.59-1.5-4.47-3.16-.31-.58-.47-1.25-.5-1.91-1.17,1.32-2.08,2.67-2.07,4.48.01,2.28.63,4.7,4.7,5.74,4.06,1.04,7.26-.79,8.89-2.59,1.44-1.58,2.11-3.21,2.46-4.88-.71.65-1.51,1.21-2.38,1.62-2.04.98-4.42,1.23-6.62.69Z"/>
          </g>
          <path class="cls-6" d="M46.17,167.6l-10.38-.27s.73,5.23.52,7.85c-.22,2.62-1.06,5.25-2.88,7.29-.73.81-1.49,1.56-2.16,2.31.03.67.19,1.33.5,1.91.88,1.66,2.65,2.71,4.47,3.16,2.2.54,4.58.29,6.62-.69.87-.42,1.67-.97,2.38-1.62.47-2.24.37-4.54.73-6.87.49-3.15.19-13.07.19-13.07Z"/>
        </g>
        <path class="cls-3" d="M96.92,129.06c-4.55-10.44-9.1-20.89-13.65-31.33-1.41-3.24-8.76-15.38-16.1-15.26-1.58-.6-3.28-.87-4.98-.7l-16.31-2.43c-3.05.45-5.88,1.56-8.38,3.13-7.42-.41-14.92,11.98-16.35,15.26-4.55,10.44-9.1,20.89-13.65,31.33,0,0,10.73,6.68,20.17,7.73,1.1-3.76,2.43-8.05,3.81-12.48.97,2.17,1.71,3.59,1.71,3.59l36.57-.81s1.01-2.27,2.25-5.75c1.71,5.47,3.39,10.85,4.73,15.44,9.44-1.05,20.17-7.73,20.17-7.73Z"/>
        <path class="cls-6" d="M22.97,56.89c-1.38-.86-3.18-.91-4.66-.26s-2.63,1.96-3.23,3.47c-1.13,2.84-.18,6.36,2.22,8.25,2.4,1.89,6.05,1.99,8.54.22l-2.86-11.69Z"/>
        <path class="cls-6" d="M77.26,56.89c1.38-.86,3.18-.91,4.66-.26,1.48.65,2.63,1.96,3.23,3.47,1.13,2.84.18,6.36-2.22,8.25-2.4,1.89-6.05,1.99-8.54.22l2.86-11.69Z"/>
        <polygon class="cls-9" points="45.28 82.46 50.84 95.03 56.4 81.98 45.28 82.46"/>
        <polygon class="cls-4" points="42.87 78.36 37.19 81.5 49.15 101.44 53.74 96.48 42.87 78.36"/>
        <polygon class="cls-4" points="55.43 82.95 36.08 126.67 41.27 128.87 62.2 81.76 55.43 82.95"/>
        <path class="cls-6" d="M77.94,54.75c0,17.61-9.88,31.89-28.65,31.89s-27.81-14.28-27.81-31.89,9.04-31.89,27.81-31.89,28.65,14.28,28.65,31.89Z"/>
        <path d="M20.8,44.85c-.75,5.44-.28,11.13,1.34,16.26,2.18-6.37,4.75-12.53,7.67-18.42l-9.02,2.15Z"/>
        <path d="M22.57,37.87c.02-7.1,4.54-13.82,10.82-17.6,6.28-3.78,14.08-4.84,21.42-3.87,5.79.76,11.33,3.06,15.72,6.75,7.13,6,6.15,14.72,6.15,14.72H22.57Z"/>
        <path d="M78.88,46.68c.75,5.44.28,11.13-1.34,16.26-2.18-6.37-4.75-12.53-7.67-18.42l9.02,2.15Z"/>
        <path class="cls-3" d="M21.91,36.78c-2.98,2.83-1.85,10.74-1.85,10.74,0,0,11.4-5.6,30.19-5.6s29.58,5.6,29.58,5.6c0,0,.41-6.23-1.85-10.11-2.26-3.88-9.24-7.63-27.42-7.63s-25.68,4.17-28.65,7Z"/>
        <path class="cls-8" d="M47.8,54.76c.32,2.6.03,5.27-.83,7.73-.2.56-.42,1.14-.32,1.73.22,1.21,1.66,1.7,2.86,1.96"/>
        <g>
          <circle class="cls-24" cx="34.42" cy="67.21" r="7.95"/>
          <circle class="cls-11" cx="34.42" cy="67.18" r="7.68"/>
          <circle class="cls-16" cx="34.41" cy="67.15" r="7.42"/>
          <circle class="cls-14" cx="34.41" cy="67.12" r="7.16"/>
          <circle class="cls-19" cx="34.4" cy="67.09" r="6.9"/>
          <circle class="cls-26" cx="34.4" cy="67.06" r="6.64"/>
          <circle class="cls-18" cx="34.39" cy="67.04" r="6.37"/>
          <circle class="cls-1" cx="34.38" cy="67.01" r="6.11"/>
          <circle class="cls-22" cx="34.38" cy="66.98" r="5.85"/>
          <circle class="cls-22" cx="34.37" cy="66.95" r="5.59"/>
          <circle class="cls-28" cx="34.37" cy="66.92" r="5.32"/>
          <circle class="cls-2" cx="34.36" cy="66.89" r="5.06"/>
          <circle class="cls-21" cx="34.35" cy="66.86" r="4.8"/>
          <circle class="cls-27" cx="34.35" cy="66.83" r="4.54"/>
          <circle class="cls-13" cx="34.34" cy="66.8" r="4.27"/>
          <circle class="cls-15" cx="34.34" cy="66.77" r="4.01"/>
          <circle class="cls-17" cx="34.33" cy="66.74" r="3.75"/>
          <circle class="cls-29" cx="34.33" cy="66.71" r="3.49"/>
          <circle class="cls-23" cx="34.32" cy="66.69" r="3.23"/>
        </g>
        <g>
          <circle class="cls-24" cx="64.85" cy="67.63" r="7.95"/>
          <circle class="cls-11" cx="64.84" cy="67.6" r="7.68"/>
          <circle class="cls-16" cx="64.84" cy="67.57" r="7.42"/>
          <circle class="cls-14" cx="64.83" cy="67.54" r="7.16"/>
          <circle class="cls-19" cx="64.82" cy="67.51" r="6.9"/>
          <circle class="cls-26" cx="64.82" cy="67.48" r="6.64"/>
          <circle class="cls-18" cx="64.81" cy="67.45" r="6.37"/>
          <circle class="cls-1" cx="64.81" cy="67.43" r="6.11"/>
          <circle class="cls-22" cx="64.8" cy="67.4" r="5.85"/>
          <circle class="cls-22" cx="64.79" cy="67.37" r="5.59"/>
          <circle class="cls-28" cx="64.79" cy="67.34" r="5.32"/>
          <circle class="cls-2" cx="64.78" cy="67.31" r="5.06"/>
          <circle class="cls-21" cx="64.78" cy="67.28" r="4.8"/>
          <circle class="cls-27" cx="64.77" cy="67.25" r="4.54"/>
          <circle class="cls-13" cx="64.77" cy="67.22" r="4.27"/>
          <circle class="cls-15" cx="64.76" cy="67.19" r="4.01"/>
          <circle class="cls-17" cx="64.75" cy="67.16" r="3.75"/>
          <circle class="cls-29" cx="64.75" cy="67.13" r="3.49"/>
          <circle class="cls-23" cx="64.74" cy="67.11" r="3.23"/>
        </g>
        <g>
          <g>
            <path class="cls-25" d="M68.81,191.11c1.83-.45,3.59-1.5,4.47-3.16.31-.58.47-1.25.5-1.91,1.17,1.32,2.08,2.67,2.07,4.48-.01,2.28-.63,4.7-4.7,5.74-4.06,1.04-7.26-.79-8.89-2.59-1.44-1.58-2.11-3.21-2.46-4.88.71.65,1.51,1.21,2.38,1.62,2.04.98,4.42,1.23,6.62.69Z"/>
            <g class="cls-20">
              <line class="cls-10" x1="78.4" y1="193.85" x2="71.5" y2="187.98"/>
              <line class="cls-10" x1="74.18" y1="197.3" x2="68.74" y2="188.58"/>
              <path class="cls-10" d="M67.96,198.51c0-.17-.95-8.29-.95-8.29"/>
              <path class="cls-10" d="M63.73,189.27c0,.35-.6,7.85-.6,7.85"/>
            </g>
            <path class="cls-8" d="M68.81,191.11c1.83-.45,3.59-1.5,4.47-3.16.31-.58.47-1.25.5-1.91,1.17,1.32,2.08,2.67,2.07,4.48-.01,2.28-.63,4.7-4.7,5.74-4.06,1.04-7.26-.79-8.89-2.59-1.44-1.58-2.11-3.21-2.46-4.88.71.65,1.51,1.21,2.38,1.62,2.04.98,4.42,1.23,6.62.69Z"/>
          </g>
          <path class="cls-6" d="M58.89,168.86l10.38-.27s-.73,5.23-.52,7.85c.22,2.62,1.06,5.25,2.88,7.29.73.81,1.49,1.56,2.16,2.31-.03.67-.19,1.33-.5,1.91-.88,1.66-2.65,2.71-4.47,3.16-2.2.54-4.58.29-6.62-.69-.87-.42-1.67-.97-2.38-1.62-.47-2.24-.37-4.54-.73-6.87-.49-3.15-.19-13.07-.19-13.07Z"/>
        </g>
        <path class="cls-7" d="M72.39,163.7c-.28-8.34-.56-16.68-.84-25.02l-19.02.46-19.02-.46c-.28,8.34-.56,16.68-.84,25.02-.1,3.07-1.44,12.52,8,12.97,9.44.45,10.58-8.55,11.31-12.65.24-1.33.42-4.41.55-7.97.13,3.56.31,6.64.55,7.97.73,4.1,1.87,13.1,11.31,12.65,9.44-.45,8.11-9.9,8-12.97Z"/>
        <path class="cls-8" d="M43.3,73.54c1.93,1.82,4.57,2.87,7.23,2.86,2.65-.01,5.29-1.08,7.2-2.92"/>
        <path d="M43.07,68.23c-3.31,1.76-4.79,7.29-4.79,7.29,0,0,4.67-3.36,7.01-4.29,2.34-.93,4.96-1.43,7.47-.99,3.43.6,6.21,2.82,8.81,4.97,0-2.49-.98-5.08-3.44-6.9-2.46-1.82-11.76-1.84-15.06-.08Z"/>
        <ellipse class="cls-5" cx="38.83" cy="57.39" rx="6.14" ry="6.65"/>
        <ellipse class="cls-5" cx="59.37" cy="57.23" rx="6.14" ry="6.65"/>
        <ellipse cx="41.11" cy="57.06" rx="3.57" ry="3.88"/>
        <ellipse cx="57.06" cy="57.17" rx="3.57" ry="3.88"/>
        <path class="cls-3" d="M34.86,126.45s-3.75,9.51-5.53,16.59c25.29,7.89,46.56-.16,46.56-.16l-7.81-17.58-33.23,1.15Z"/>
        <path class="cls-9" d="M31.98,49.08c1.69-1.62,3.97-2.62,6.3-2.75s4.71.6,6.57,2.03"/>
        <path class="cls-9" d="M52.44,48.35c1.69-1.62,3.97-2.62,6.3-2.75,2.34-.13,4.71.6,6.57,2.03"/>
        <path class="cls-8" d="M29.57,95.46c-2.09,9.51-1.35,19.63,2.11,28.74"/>
        <polygon class="cls-4" points="39.96 129.03 36.71 145.39 43.73 146.44 45.73 129.66 39.96 129.03"/>
        <path class="cls-8" d="M71.75,94.62c2.4,9.4,2.18,19.46-.64,28.74"/>
        <path class="cls-4" d="M30.78,123.04l1.5,6.25s20.62,3.01,38.16,0l1.75-6.72s-16.96,4.17-41.41.46Z"/>
        <path class="cls-8" d="M49.66,152.66s2.1-.11,2.59.82c.49.93.42,2.06.33,3.11"/>
        <path d="M47.28,22.64c-1.29-2.69-2.6-5.44-3.06-8.39s.04-6.2,2-8.44c1.97-2.25,5.61-3.11,8.07-1.41,1.89,1.31,2.68,3.73,2.9,6.03.42,4.37-.84,8.88-3.48,12.39l-6.44-.18Z"/>
        <g>
          <circle class="cls-23" cx="34.32" cy="66.69" r="3.23"/>
          <circle class="cls-23" cx="64.74" cy="67.11" r="3.23"/>
        </g>
      </g>
    </g>
  </g>
</svg>