<?xml version="1.0" encoding="UTF-8"?>
<svg id="_레이어_2" width="354.12" height="197.23" data-name="레이어_2" xmlns="http://www.w3.org/2000/svg" viewBox="0 0 354.12 197.23">
  <defs>
    <style>
      .cls-1 {
        fill: #fff;
      }

      .cls-1, .cls-2, .cls-3, .cls-4, .cls-5, .cls-6 {
        stroke: #000;
      }

      .cls-1, .cls-2, .cls-3, .cls-4, .cls-6 {
        stroke-linecap: round;
        stroke-linejoin: round;
      }

      .cls-1, .cls-2, .cls-5, .cls-6 {
        stroke-width: 1.23px;
      }

      .cls-2, .cls-7 {
        fill: #dfbf68;
      }

      .cls-8 {
        fill: #a57850;
      }

      .cls-9 {
        fill: #88644a;
      }

      .cls-3 {
        fill: #d1aa71;
      }

      .cls-3, .cls-4 {
        stroke-width: .61px;
      }

      .cls-4 {
        fill: #3a3a3a;
      }

      .cls-10 {
        fill: #494848;
      }

      .cls-11 {
        font-family: HakgyoansimSantteutdotumM, 'Hakgyoansim Santteutdotumthic';
        font-size: 31.9px;
      }

      .cls-5 {
        fill: #d9c5b8;
        stroke-miterlimit: 10;
      }

      .cls-12 {
        fill: #c49c4e;
      }

      .cls-13 {
        fill: #b2905b;
      }

      .cls-14 {
        fill: #c39d7e;
      }

      .cls-6 {
        fill: none;
      }

      .cls-15 {
        fill: #333;
      }

      .cls-16 {
        fill: #e7e3c4;
      }
    </style>
  </defs>
  <g id="Layer_6">
    <g>
      <ellipse class="cls-16" cx="199.94" cy="82.05" rx="154.18" ry="60.65"/>
      <g>
        <g>
          <rect class="cls-14" x="64.36" y="24.57" width="64.57" height="24.75"/>
          <path d="M129.22,49.61h-65.15v-25.33h65.15v25.33ZM64.65,49.03h63.99v-24.17h-63.99v24.17Z"/>
        </g>
        <path class="cls-5" d="M62.18,49.32h69.46c.31,0,.55.25.55.55v4.41H61.62v-4.41c0-.31.25-.55.55-.55Z"/>
        <g>
          <rect class="cls-15" x="91.37" y="30.54" width="10.56" height="18.78"/>
          <path d="M102.22,49.61h-11.14v-19.36h11.14v19.36ZM91.66,49.03h9.98v-18.2h-9.98v18.2Z"/>
        </g>
        <g>
          <rect class="cls-9" x="64.36" y="24.57" width="2" height="24.75"/>
          <path d="M66.65,49.61h-2.58v-25.33h2.58v25.33ZM64.65,49.03h1.42v-24.17h-1.42v24.17Z"/>
        </g>
        <g>
          <rect class="cls-9" x="79.87" y="24.57" width="2" height="24.75"/>
          <path d="M82.16,49.61h-2.58v-25.33h2.58v25.33ZM80.16,49.03h1.42v-24.17h-1.42v24.17Z"/>
        </g>
        <g>
          <rect class="cls-9" x="111.42" y="24.57" width="2" height="24.75" transform="translate(224.85 73.9) rotate(180)"/>
          <path d="M113.72,49.61h-2.58v-25.33h2.58v25.33ZM111.71,49.03h1.42v-24.17h-1.42v24.17Z"/>
        </g>
        <g>
          <rect class="cls-9" x="126.93" y="24.57" width="2" height="24.75" transform="translate(255.86 73.9) rotate(180)"/>
          <path d="M129.22,49.61h-2.58v-25.33h2.58v25.33ZM127.22,49.03h1.42v-24.17h-1.42v24.17Z"/>
        </g>
        <path class="cls-2" d="M54.59,25.26c-1.4,0-2.32-1.46-1.71-2.72,3.1-6.41,13.71-21.93,43.77-21.93,30.06,0,40.67,15.51,43.77,21.93.61,1.26-.31,2.72-1.71,2.72H54.59Z"/>
        <g>
          <path class="cls-12" d="M133.21,23.01c-.44,0-.86-.25-1.06-.68-2.57-5.61-11.17-18.67-35.51-18.67s-32.94,13.06-35.51,18.67c-.27.58-.96.84-1.54.57-.58-.27-.84-.96-.57-1.54,2.76-6.02,11.94-20.03,37.62-20.03s34.87,14.01,37.62,20.03c.27.58.01,1.27-.57,1.54-.16.07-.32.11-.48.11Z"/>
          <path class="cls-12" d="M125.99,23.01c-.47,0-.92-.29-1.09-.76-2.05-5.59-8.91-18.59-28.25-18.59s-26.2,13-28.25,18.59c-.22.6-.89.91-1.49.69-.6-.22-.91-.89-.69-1.49,2.22-6.05,9.63-20.11,30.43-20.11s28.21,14.07,30.43,20.11c.22.6-.09,1.27-.69,1.49-.13.05-.27.07-.4.07Z"/>
          <path class="cls-12" d="M117.65,23.01c-.52,0-.99-.35-1.12-.87-1.46-5.56-6.32-18.48-19.88-18.48s-18.42,12.93-19.88,18.48c-.16.62-.79,1-1.42.83-.62-.16-.99-.8-.83-1.42,1.6-6.08,6.95-20.22,22.13-20.22s20.53,14.14,22.13,20.22c.16.62-.21,1.26-.83,1.42-.1.03-.2.04-.3.04Z"/>
          <path class="cls-12" d="M107.96,23.01c-.57,0-1.07-.42-1.15-1-.61-4.31-3.15-18.35-10.17-18.35s-9.56,14.05-10.17,18.35c-.09.63-.68,1.08-1.31.99-.63-.09-1.08-.68-.99-1.31.87-6.12,3.82-20.35,12.47-20.35s11.6,14.23,12.47,20.35c.09.64-.35,1.22-.99,1.31-.06,0-.11.01-.16.01Z"/>
          <path class="cls-12" d="M100.43,23.01c-.62,0-1.13-.48-1.16-1.11-.58-12.27-1.88-17.02-2.63-18.09-.75,1.07-2.04,5.82-2.63,18.09-.03.64-.57,1.15-1.22,1.1-.64-.03-1.14-.57-1.11-1.22.97-20.46,3.66-20.46,4.95-20.46s3.98,0,4.95,20.46c.03.64-.46,1.19-1.11,1.22-.02,0-.04,0-.06,0Z"/>
        </g>
      </g>
      <g>
        <g>
          <rect class="cls-14" x="12.29" y="55.82" width="64.57" height="24.75"/>
          <path d="M77.15,80.86H12v-25.33h65.15v25.33ZM12.58,80.27h63.99v-24.17H12.58v24.17Z"/>
        </g>
        <path class="cls-5" d="M10.1,80.57h69.46c.31,0,.55.25.55.55v4.41H9.55v-4.41c0-.31.25-.55.55-.55Z"/>
        <g>
          <rect class="cls-15" x="39.29" y="61.78" width="10.56" height="18.78"/>
          <path d="M50.14,80.86h-11.14v-19.36h11.14v19.36ZM39.58,80.27h9.98v-18.2h-9.98v18.2Z"/>
        </g>
        <g>
          <rect class="cls-9" x="12.29" y="55.82" width="2" height="24.75"/>
          <path d="M14.58,80.86h-2.58v-25.33h2.58v25.33ZM12.58,80.27h1.42v-24.17h-1.42v24.17Z"/>
        </g>
        <g>
          <rect class="cls-9" x="27.79" y="55.82" width="2" height="24.75"/>
          <path d="M30.08,80.86h-2.58v-25.33h2.58v25.33ZM28.08,80.27h1.42v-24.17h-1.42v24.17Z"/>
        </g>
        <g>
          <rect class="cls-9" x="59.35" y="55.82" width="2" height="24.75" transform="translate(120.7 136.38) rotate(180)"/>
          <path d="M61.64,80.86h-2.58v-25.33h2.58v25.33ZM59.64,80.27h1.42v-24.17h-1.42v24.17Z"/>
        </g>
        <g>
          <rect class="cls-9" x="74.85" y="55.82" width="2" height="24.75" transform="translate(151.71 136.38) rotate(180)"/>
          <path d="M77.15,80.86h-2.58v-25.33h2.58v25.33ZM75.14,80.27h1.42v-24.17h-1.42v24.17Z"/>
        </g>
        <path class="cls-2" d="M2.51,56.5c-1.4,0-2.32-1.46-1.71-2.72,3.1-6.41,13.71-21.93,43.77-21.93,30.06,0,40.67,15.51,43.77,21.93.61,1.26-.31,2.72-1.71,2.72H2.51Z"/>
        <g>
          <path class="cls-12" d="M81.14,54.26c-.44,0-.86-.25-1.06-.68-2.57-5.61-11.17-18.67-35.51-18.67S11.63,47.97,9.06,53.58c-.27.58-.96.84-1.54.57-.58-.27-.84-.96-.57-1.54,2.76-6.02,11.94-20.03,37.62-20.03s34.87,14.01,37.62,20.03c.27.58.01,1.27-.57,1.54-.16.07-.32.11-.48.11Z"/>
          <path class="cls-12" d="M73.91,54.26c-.47,0-.92-.29-1.09-.76-2.05-5.59-8.91-18.59-28.25-18.59s-26.2,13-28.25,18.59c-.22.6-.89.91-1.49.69-.6-.22-.91-.89-.69-1.49,2.22-6.05,9.63-20.11,30.43-20.11s28.21,14.07,30.43,20.11c.22.6-.09,1.27-.69,1.49-.13.05-.27.07-.4.07Z"/>
          <path class="cls-12" d="M65.58,54.26c-.52,0-.99-.35-1.12-.87-1.46-5.56-6.32-18.48-19.88-18.48s-18.42,12.93-19.88,18.48c-.16.62-.79,1-1.42.83-.62-.16-.99-.8-.83-1.42,1.6-6.08,6.95-20.22,22.13-20.22s20.53,14.14,22.13,20.22c.16.62-.21,1.26-.83,1.42-.1.03-.2.04-.3.04Z"/>
          <path class="cls-12" d="M55.89,54.26c-.57,0-1.07-.42-1.15-1-.61-4.31-3.15-18.35-10.17-18.35s-9.56,14.05-10.17,18.35c-.09.63-.68,1.08-1.31.99-.63-.09-1.08-.68-.99-1.31.87-6.12,3.82-20.35,12.47-20.35s11.6,14.23,12.47,20.35c.09.64-.35,1.22-.99,1.31-.06,0-.11.01-.16.01Z"/>
          <path class="cls-12" d="M48.36,54.26c-.62,0-1.13-.48-1.16-1.11-.58-12.27-1.88-17.02-2.63-18.09-.75,1.07-2.04,5.82-2.63,18.09-.03.64-.57,1.15-1.22,1.1-.64-.03-1.14-.57-1.11-1.22.97-20.46,3.66-20.46,4.95-20.46s3.98,0,4.95,20.46c.03.64-.46,1.19-1.11,1.22-.02,0-.04,0-.06,0Z"/>
        </g>
      </g>
      <g>
        <g>
          <rect class="cls-14" x="272.64" y="36.06" width="48.05" height="18.41"/>
          <path d="M320.9,54.69h-48.48v-18.85h48.48v18.85ZM272.85,54.26h47.62v-17.98h-47.62v17.98Z"/>
        </g>
        <path class="cls-5" d="M271.15,54.47h51.4c.31,0,.55.25.55.55v3.14h-52.51v-3.14c0-.31.25-.55.55-.55Z"/>
        <g>
          <rect class="cls-15" x="292.73" y="40.49" width="7.86" height="13.98"/>
          <path d="M300.81,54.69h-8.29v-14.41h8.29v14.41ZM292.95,54.26h7.43v-13.55h-7.43v13.55Z"/>
        </g>
        <g>
          <rect class="cls-9" x="272.64" y="36.06" width="1.49" height="18.41"/>
          <path d="M274.34,54.69h-1.92v-18.85h1.92v18.85ZM272.85,54.26h1.06v-17.98h-1.06v17.98Z"/>
        </g>
        <g>
          <rect class="cls-9" x="284.17" y="36.06" width="1.49" height="18.41"/>
          <path d="M285.88,54.69h-1.92v-18.85h1.92v18.85ZM284.39,54.26h1.06v-17.98h-1.06v17.98Z"/>
        </g>
        <g>
          <rect class="cls-9" x="307.66" y="36.06" width="1.49" height="18.41" transform="translate(616.8 90.53) rotate(180)"/>
          <path d="M309.36,54.69h-1.92v-18.85h1.92v18.85ZM307.87,54.26h1.06v-17.98h-1.06v17.98Z"/>
        </g>
        <g>
          <rect class="cls-9" x="319.19" y="36.06" width="1.49" height="18.41" transform="translate(639.88 90.53) rotate(180)"/>
          <path d="M320.9,54.69h-1.92v-18.85h1.92v18.85ZM319.41,54.26h1.06v-17.98h-1.06v17.98Z"/>
        </g>
        <path class="cls-2" d="M265.36,36.57c-1.04,0-1.73-1.09-1.27-2.03,2.31-4.77,10.2-16.32,32.57-16.32,22.37,0,30.26,11.54,32.57,16.32.45.94-.23,2.03-1.27,2.03h-62.59Z"/>
        <g>
          <path class="cls-12" d="M323.87,34.9c-.33,0-.64-.19-.79-.5-1.91-4.18-8.31-13.89-26.43-13.89s-24.51,9.72-26.43,13.89c-.2.43-.71.62-1.15.43-.43-.2-.63-.71-.43-1.15,2.05-4.48,8.88-14.9,28-14.9s25.95,10.42,28,14.9c.2.43,0,.95-.43,1.15-.12.05-.24.08-.36.08Z"/>
          <path class="cls-12" d="M318.49,34.9c-.35,0-.68-.22-.81-.57-1.53-4.16-6.63-13.83-21.02-13.83s-19.5,9.67-21.02,13.83c-.16.45-.66.68-1.11.51-.45-.16-.68-.66-.51-1.11,1.65-4.5,7.17-14.97,22.65-14.97s20.99,10.47,22.65,14.97c.16.45-.07.94-.51,1.11-.1.04-.2.05-.3.05Z"/>
          <path class="cls-12" d="M312.29,34.9c-.38,0-.73-.26-.84-.64-1.09-4.14-4.7-13.76-14.8-13.76s-13.71,9.62-14.8,13.76c-.12.46-.59.74-1.06.62-.46-.12-.74-.59-.62-1.06,1.19-4.52,5.17-15.04,16.47-15.04s15.28,10.52,16.47,15.04c.12.46-.15.94-.62,1.06-.07.02-.15.03-.22.03Z"/>
          <path class="cls-12" d="M305.08,34.9c-.42,0-.79-.31-.85-.74-.45-3.2-2.34-13.66-7.57-13.66s-7.11,10.45-7.57,13.66c-.07.47-.51.8-.98.73-.47-.07-.8-.5-.73-.98.64-4.55,2.84-15.14,9.28-15.14s8.63,10.59,9.28,15.14c.07.47-.26.91-.73.98-.04,0-.08,0-.12,0Z"/>
          <path class="cls-12" d="M299.48,34.89c-.46,0-.84-.36-.86-.82-.43-9.13-1.4-12.66-1.95-13.46-.56.8-1.52,4.33-1.95,13.46-.02.48-.43.86-.9.82-.48-.02-.84-.43-.82-.9.72-15.22,2.72-15.22,3.68-15.22s2.96,0,3.68,15.22c.02.48-.35.88-.82.9-.01,0-.03,0-.04,0Z"/>
        </g>
      </g>
      <g>
        <rect class="cls-3" x="91.87" y="86.73" width="4.18" height="24.27"/>
        <rect class="cls-3" x="138.61" y="86.51" width="4.02" height="23.95"/>
        <rect class="cls-3" x="89.7" y="109.6" width="54.87" height="3.33"/>
        <rect class="cls-3" x="89.7" y="97.36" width="54.87" height="3.25"/>
        <g>
          <rect class="cls-4" x="94.97" y="82.18" width="6.18" height="4.09"/>
          <rect class="cls-4" x="104.56" y="82.12" width="6.18" height="4.09"/>
          <rect class="cls-4" x="114.16" y="82.06" width="6.18" height="4.09"/>
          <rect class="cls-4" x="123.76" y="82" width="6.18" height="4.09"/>
          <rect class="cls-4" x="133.36" y="81.93" width="6.18" height="4.09"/>
        </g>
        <g>
          <rect class="cls-4" x="95.2" y="93.38" width="6.18" height="4.09"/>
          <rect class="cls-4" x="104.8" y="93.32" width="6.18" height="4.09"/>
          <rect class="cls-4" x="114.39" y="93.26" width="6.18" height="4.09"/>
          <rect class="cls-4" x="123.99" y="93.2" width="6.18" height="4.09"/>
          <rect class="cls-4" x="133.59" y="93.13" width="6.18" height="4.09"/>
        </g>
        <g>
          <rect class="cls-4" x="95.2" y="105.36" width="6.18" height="4.09"/>
          <rect class="cls-4" x="104.8" y="105.3" width="6.18" height="4.09"/>
          <rect class="cls-4" x="114.39" y="105.24" width="6.18" height="4.09"/>
          <rect class="cls-4" x="123.99" y="105.18" width="6.18" height="4.09"/>
          <rect class="cls-4" x="133.59" y="105.12" width="6.18" height="4.09"/>
        </g>
        <rect class="cls-3" x="89.7" y="85.66" width="54.87" height="3.56"/>
      </g>
      <g>
        <g>
          <g>
            <path class="cls-7" d="M275.46,86.71h27.48c.19,0,.34.15.34.34v23.1h-28.17v-23.1c0-.19.15-.34.34-.34Z"/>
            <path d="M303.85,110.71h-29.29v-22.78c0-.98.8-1.78,1.78-1.78h25.72c.98,0,1.78.8,1.78,1.78v22.78ZM275.68,109.59h27.05v-21.66c0-.37-.3-.66-.66-.66h-25.72c-.37,0-.66.3-.66.66v21.66Z"/>
          </g>
          <path class="cls-12" d="M298.82,90.56h-19.23c-.31,0-.56-.25-.56-.56s.25-.56.56-.56h19.23c.31,0,.56.25.56.56s-.25.56-.56.56Z"/>
          <path class="cls-12" d="M298.82,93.62h-19.23c-.31,0-.56-.25-.56-.56s.25-.56.56-.56h19.23c.31,0,.56.25.56.56s-.25.56-.56.56Z"/>
          <path class="cls-12" d="M298.82,96.69h-19.23c-.31,0-.56-.25-.56-.56s.25-.56.56-.56h19.23c.31,0,.56.25.56.56s-.25.56-.56.56Z"/>
          <path class="cls-12" d="M298.82,99.76h-19.23c-.31,0-.56-.25-.56-.56s.25-.56.56-.56h19.23c.31,0,.56.25.56.56s-.25.56-.56.56Z"/>
          <path class="cls-12" d="M298.82,102.82h-19.23c-.31,0-.56-.25-.56-.56s.25-.56.56-.56h19.23c.31,0,.56.25.56.56s-.25.56-.56.56Z"/>
          <path class="cls-12" d="M298.82,105.89h-19.23c-.31,0-.56-.25-.56-.56s.25-.56.56-.56h19.23c.31,0,.56.25.56.56s-.25.56-.56.56Z"/>
        </g>
        <g>
          <rect class="cls-13" x="142.24" y="43.07" width="8.24" height="70.89"/>
          <path d="M151.04,114.52h-9.36V42.51h9.36v72.01ZM142.8,113.4h7.12V43.63h-7.12v69.77Z"/>
        </g>
        <g>
          <rect class="cls-13" x="267.93" y="43.07" width="8.24" height="70.89" transform="translate(544.1 157.03) rotate(-180)"/>
          <path d="M276.73,114.52h-9.36V42.51h9.36v72.01ZM268.49,113.4h7.12V43.63h-7.12v69.77Z"/>
        </g>
        <g>
          <rect class="cls-8" x="150.48" y="55.31" width="117.44" height="48.61"/>
          <path d="M268.49,104.48h-118.56v-49.73h118.56v49.73ZM151.04,103.37h116.32v-47.49h-116.32v47.49Z"/>
        </g>
        <rect class="cls-9" x="164.68" y="43.27" width="5.48" height="60.05"/>
        <rect class="cls-9" x="248.25" y="43.27" width="5.48" height="60.05" transform="translate(501.98 146.6) rotate(-180)"/>
        <g>
          <g>
            <polygon class="cls-4" points="169.24 79.26 157.58 80.03 157.58 76.06 169.24 75.29 169.24 79.26"/>
            <polygon class="cls-4" points="169.37 86.82 157.77 85.41 157.77 81.44 169.37 82.85 169.37 86.82"/>
          </g>
          <g>
            <polygon class="cls-4" points="169.09 67.89 157.44 68.66 157.44 64.69 169.09 63.92 169.09 67.89"/>
            <polygon class="cls-4" points="169.22 75.45 157.63 74.04 157.63 70.07 169.22 71.48 169.22 75.45"/>
          </g>
          <g>
            <polygon class="cls-4" points="169.5 91.95 157.84 92.72 157.84 88.74 169.5 87.97 169.5 91.95"/>
            <polygon class="cls-4" points="169.63 99.51 158.03 98.1 158.03 94.13 169.63 95.53 169.63 99.51"/>
          </g>
          <path class="cls-3" d="M163.6,99.43h0c-.37,0-.66-.3-.66-.66v-42.08c0-.37.3-.66.67-.66h0c.37,0,.66.3.66.66v42.08c0,.37-.3.66-.67.66Z"/>
          <circle class="cls-3" cx="163.64" cy="99.44" r=".69"/>
          <circle class="cls-3" cx="163.53" cy="90.45" r=".69"/>
          <circle class="cls-3" cx="163.64" cy="84.09" r=".69"/>
          <circle class="cls-3" cx="163.69" cy="77.95" r=".69"/>
          <circle class="cls-3" cx="163.64" cy="72.52" r=".69"/>
          <circle class="cls-3" cx="163.58" cy="66.15" r=".69"/>
        </g>
        <g>
          <g>
            <polygon class="cls-4" points="246.58 78.6 234.92 79.37 234.92 75.39 246.58 74.63 246.58 78.6"/>
            <polygon class="cls-4" points="246.7 86.16 235.11 84.75 235.11 80.78 246.7 82.19 246.7 86.16"/>
          </g>
          <g>
            <polygon class="cls-4" points="246.43 67.23 234.77 68 234.77 64.02 246.43 63.26 246.43 67.23"/>
            <polygon class="cls-4" points="246.56 74.79 234.96 73.38 234.96 69.41 246.56 70.81 246.56 74.79"/>
          </g>
          <g>
            <polygon class="cls-4" points="246.83 91.28 235.17 92.05 235.17 88.08 246.83 87.31 246.83 91.28"/>
            <polygon class="cls-4" points="246.96 98.84 235.36 97.43 235.36 93.46 246.96 94.87 246.96 98.84"/>
          </g>
          <path class="cls-3" d="M240.93,98.77h0c-.37,0-.66-.3-.66-.66v-42.08c0-.37.3-.66.67-.66h0c.37,0,.66.3.66.66v42.08c0,.37-.3.66-.67.66Z"/>
          <circle class="cls-3" cx="240.97" cy="98.78" r=".69"/>
          <circle class="cls-3" cx="240.86" cy="89.78" r=".69"/>
          <circle class="cls-3" cx="240.97" cy="83.43" r=".69"/>
          <circle class="cls-3" cx="241.02" cy="77.28" r=".69"/>
          <circle class="cls-3" cx="240.97" cy="71.86" r=".69"/>
          <circle class="cls-3" cx="240.91" cy="65.49" r=".69"/>
        </g>
        <g>
          <g>
            <polygon class="cls-4" points="262.3 78.38 250.64 79.14 250.64 75.17 262.3 74.4 262.3 78.38"/>
            <polygon class="cls-4" points="262.43 85.94 250.83 84.53 250.83 80.55 262.43 81.96 262.43 85.94"/>
          </g>
          <g>
            <polygon class="cls-4" points="262.15 67.01 250.49 67.77 250.49 63.8 262.15 63.03 262.15 67.01"/>
            <polygon class="cls-4" points="262.28 74.57 250.69 73.16 250.69 69.18 262.28 70.59 262.28 74.57"/>
          </g>
          <g>
            <polygon class="cls-4" points="262.56 91.06 250.9 91.83 250.9 87.86 262.56 87.09 262.56 91.06"/>
            <polygon class="cls-4" points="262.69 98.62 251.09 97.21 251.09 93.24 262.69 94.65 262.69 98.62"/>
          </g>
          <path class="cls-3" d="M256.66,98.55h0c-.37,0-.66-.3-.66-.66v-42.08c0-.37.3-.66.67-.66h0c.37,0,.66.3.66.66v42.08c0,.37-.3.66-.67.66Z"/>
          <circle class="cls-3" cx="256.7" cy="98.56" r=".69"/>
          <circle class="cls-3" cx="256.59" cy="89.56" r=".69"/>
          <circle class="cls-3" cx="256.7" cy="83.21" r=".69"/>
          <circle class="cls-3" cx="256.75" cy="77.06" r=".69"/>
          <circle class="cls-3" cx="256.7" cy="71.63" r=".69"/>
          <circle class="cls-3" cx="256.64" cy="65.27" r=".69"/>
        </g>
        <g>
          <g>
            <polygon class="cls-4" points="215.34 67.3 203.68 68.07 203.68 64.1 215.34 63.33 215.34 67.3"/>
            <polygon class="cls-4" points="215.25 72.28 203.66 70.87 203.66 66.9 215.25 68.3 215.25 72.28"/>
          </g>
          <g>
            <polygon class="cls-4" points="215.2 55.93 203.54 56.7 203.54 52.73 215.2 51.96 215.2 55.93"/>
            <polygon class="cls-4" points="215.33 63.49 203.73 62.08 203.73 58.11 215.33 59.52 215.33 63.49"/>
          </g>
          <g>
            <polygon class="cls-4" points="203.94 79.62 215.6 80.39 215.6 76.41 203.94 75.64 203.94 79.62"/>
            <polygon class="cls-4" points="203.95 77.06 215.45 75.66 215.45 71.69 203.95 73.09 203.95 77.06"/>
            <polygon class="cls-4" points="215.73 85.85 204.13 84.44 204.13 80.47 215.73 81.88 215.73 85.85"/>
          </g>
          <path class="cls-3" d="M209.7,87.47h0c-.37,0-.66-.3-.66-.66v-42.08c0-.37.3-.66.67-.66h0c.37,0,.66.3.66.66v42.08c0,.37-.3.66-.67.66Z"/>
          <circle class="cls-3" cx="209.74" cy="87.48" r=".69"/>
          <circle class="cls-3" cx="209.63" cy="78.49" r=".69"/>
          <circle class="cls-3" cx="209.74" cy="72.13" r=".69"/>
          <circle class="cls-3" cx="209.79" cy="65.99" r=".69"/>
          <circle class="cls-3" cx="209.74" cy="60.56" r=".69"/>
          <circle class="cls-3" cx="209.68" cy="54.19" r=".69"/>
        </g>
        <g>
          <g>
            <polygon class="cls-4" points="184.78 72.32 173.12 73.09 173.12 69.12 184.78 68.35 184.78 72.32"/>
            <polygon class="cls-4" points="184.69 77.3 173.09 75.89 173.09 71.92 184.69 73.33 184.69 77.3"/>
          </g>
          <g>
            <polygon class="cls-4" points="184.63 60.95 172.97 61.72 172.97 57.75 184.63 56.98 184.63 60.95"/>
            <polygon class="cls-4" points="184.76 68.51 173.16 67.1 173.16 63.13 184.76 64.54 184.76 68.51"/>
          </g>
          <g>
            <polygon class="cls-4" points="173.37 84.64 185.03 85.41 185.03 81.43 173.37 80.67 173.37 84.64"/>
            <polygon class="cls-4" points="173.38 82.08 184.89 80.68 184.89 76.71 173.38 78.11 173.38 82.08"/>
            <polygon class="cls-4" points="185.16 90.87 173.57 89.46 173.57 85.49 185.16 86.9 185.16 90.87"/>
          </g>
          <path class="cls-3" d="M179.13,92.49h0c-.37,0-.66-.3-.66-.66v-42.08c0-.37.3-.66.67-.66h0c.37,0,.66.3.66.66v42.08c0,.37-.3.66-.67.66Z"/>
          <circle class="cls-3" cx="179.17" cy="92.5" r=".69"/>
          <circle class="cls-3" cx="179.06" cy="83.51" r=".69"/>
          <circle class="cls-3" cx="179.17" cy="77.15" r=".69"/>
          <circle class="cls-3" cx="179.23" cy="71.01" r=".69"/>
          <circle class="cls-3" cx="179.17" cy="65.58" r=".69"/>
          <circle class="cls-3" cx="179.12" cy="59.21" r=".69"/>
        </g>
        <g>
          <g>
            <polygon class="cls-4" points="231.59 73.8 219.93 74.57 219.93 70.6 231.59 69.83 231.59 73.8"/>
            <polygon class="cls-4" points="231.49 78.77 219.9 77.36 219.9 73.39 231.49 74.8 231.49 78.77"/>
          </g>
          <g>
            <polygon class="cls-4" points="231.44 62.43 219.78 63.2 219.78 59.22 231.44 58.46 231.44 62.43"/>
            <polygon class="cls-4" points="231.57 69.99 219.97 68.58 219.97 64.61 231.57 66.02 231.57 69.99"/>
          </g>
          <g>
            <polygon class="cls-4" points="220.18 86.11 231.84 86.88 231.84 82.91 220.18 82.14 220.18 86.11"/>
            <polygon class="cls-4" points="220.19 83.56 231.7 82.16 231.7 78.19 220.19 79.59 220.19 83.56"/>
            <polygon class="cls-4" points="231.97 92.34 220.38 90.94 220.38 86.96 231.97 88.37 231.97 92.34"/>
          </g>
          <path class="cls-3" d="M225.94,93.97h0c-.37,0-.66-.3-.66-.66v-42.08c0-.37.3-.66.67-.66h0c.37,0,.66.3.66.66v42.08c0,.37-.3.66-.67.66Z"/>
          <circle class="cls-3" cx="225.98" cy="93.98" r=".69"/>
          <circle class="cls-3" cx="225.87" cy="84.98" r=".69"/>
          <circle class="cls-3" cx="225.98" cy="78.63" r=".69"/>
          <circle class="cls-3" cx="226.04" cy="72.48" r=".69"/>
          <circle class="cls-3" cx="225.98" cy="67.06" r=".69"/>
          <circle class="cls-3" cx="225.93" cy="60.69" r=".69"/>
        </g>
        <g>
          <g>
            <path class="cls-10" d="M209.2,62.71c31.46,0,77.25-4.56,92.59-6.19,1.97-.21,2.71-2.68,1.19-3.94l-26.82-22.41h-66.96s-66.96,0-66.96,0l-26.82,22.41c-1.52,1.27-.77,3.74,1.19,3.94,15.34,1.63,61.13,6.19,92.59,6.19Z"/>
            <path d="M209.2,63.27c-31.82,0-78.96-4.74-92.65-6.2-1.13-.12-2.05-.87-2.38-1.96-.33-1.1,0-2.23.89-2.97l26.98-22.54h134.33l26.98,22.54c.88.74,1.22,1.87.89,2.97-.33,1.09-1.24,1.84-2.38,1.96-13.69,1.45-60.83,6.2-92.65,6.2ZM142.44,30.72l-26.66,22.28c-.63.53-.69,1.27-.53,1.78.16.51.61,1.09,1.42,1.17,13.68,1.45,60.77,6.19,92.53,6.19s78.86-4.74,92.54-6.19c.81-.09,1.27-.66,1.42-1.17.16-.51.1-1.25-.53-1.78l-26.66-22.28h-133.52Z"/>
          </g>
          <g>
            <path class="cls-10" d="M276.17,30.16l-6.34-22.83s-37.13,5.92-60.62,5.92c-23.5,0-60.62-5.92-60.62-5.92l-6.34,22.83h133.93Z"/>
            <path d="M276.91,30.72h-135.4l6.67-24.02.49.08c.37.06,37.35,5.91,60.54,5.91s60.16-5.85,60.54-5.91l.49-.08,6.67,24.02ZM142.98,29.6h132.46l-6.01-21.64c-4.49.7-38.41,5.85-60.22,5.85s-55.73-5.15-60.22-5.85l-6.01,21.64Z"/>
          </g>
        </g>
      </g>
      <g>
        <rect class="cls-1" x="119.25" y="138.99" width="160.4" height="57.63" rx="12.25" ry="12.25"/>
        <text class="cls-11" transform="translate(208.82 177.61)"><tspan x="0" y="0">묵소</tspan></text>
        <g>
          <circle class="cls-6" cx="148.75" cy="168.07" r="13.5"/>
          <circle class="cls-6" cx="186.21" cy="168.07" r="13.5"/>
        </g>
      </g>
    </g>
  </g>
</svg>