<?xml version="1.0" encoding="UTF-8"?>
<svg id="_레이어_2" width="294.39" height="188.65" data-name="레이어_2" xmlns="http://www.w3.org/2000/svg" viewBox="0 0 294.39 188.65">
  <defs>
    <style>
      .cls-1 {
        fill: #a1d7c9;
      }

      .cls-1, .cls-2, .cls-3, .cls-4, .cls-5 {
        stroke: #000;
        stroke-linecap: round;
        stroke-linejoin: round;
      }

      .cls-1, .cls-2, .cls-3, .cls-5 {
        stroke-width: 1.17px;
      }

      .cls-2 {
        fill: #fff;
      }

      .cls-3 {
        fill: #d7c471;
      }

      .cls-6 {
        fill: #f06c71;
      }

      .cls-7 {
        font-family: HakgyoansimSantteutdotumM, 'Hakgyoansim Santteutdotumthic';
        font-size: 33.16px;
      }

      .cls-8, .cls-5 {
        fill: #d0a57b;
      }

      .cls-9 {
        fill: #e4e2a3;
      }

      .cls-4 {
        fill: none;
        stroke-width: .76px;
      }

      .cls-10 {
        fill: #e7e3c4;
      }

      .cls-11 {
        fill: #fbeb7c;
      }

      .cls-12 {
        fill: #3f3021;
      }

      .cls-13 {
        fill: #8a6339;
      }
    </style>
  </defs>
  <g id="Layer_6">
    <g>
      <ellipse class="cls-10" cx="147.2" cy="82.78" rx="147.2" ry="57.9"/>
      <g>
        <g>
          <rect class="cls-2" x="48.54" y="132.32" width="193.15" height="55.74" rx="11.7" ry="11.7"/>
          <text class="cls-7" transform="translate(138.94 169.96)"><tspan x="0" y="0">자기소</tspan></text>
          <g>
            <circle class="cls-4" cx="76.47" cy="160.04" r="14.04"/>
            <circle class="cls-4" cx="115.43" cy="160.04" r="14.04"/>
          </g>
        </g>
        <g>
          <g>
            <path class="cls-5" d="M152.98,85.71c0-4.27.46-11.3.77-15.59.21-2.91.69-5.8,1.43-8.63,3.23-12.33,13.78-43.52,37.96-43.52,24.18,0,34.73,31.19,37.96,43.52.74,2.83,1.22,5.71,1.43,8.63.31,4.29.77,11.32.77,15.59h-80.31Z"/>
            <g>
              <g>
                <path class="cls-12" d="M207.2,64.67v21.03h-28.14v-21.03c0-7.77,6.3-14.07,14.07-14.07s14.07,6.3,14.07,14.07Z"/>
                <path d="M207.39,85.9h-28.52v-21.22c0-7.86,6.4-14.26,14.26-14.26s14.26,6.4,14.26,14.26v21.22ZM179.26,85.51h27.75v-20.84c0-7.65-6.23-13.88-13.88-13.88s-13.88,6.23-13.88,13.88v20.84Z"/>
              </g>
              <path class="cls-8" d="M216.75,64.67v21.03h-9.55v-21.03c0-.12,0-.24,0-.37-.04-1.43-.29-2.81-.72-4.1-.08-.23-.16-.46-.25-.69-.52-1.31-1.22-2.52-2.09-3.61-.15-.19-.31-.38-.47-.56-.92-1.04-2-1.95-3.19-2.68-.21-.13-.42-.25-.63-.37-1.21-.66-2.52-1.14-3.91-1.42-.24-.05-.48-.09-.72-.13-.68-.1-1.38-.15-2.08-.15s-1.4.05-2.08.15c-.24.04-.48.08-.72.13-1.39.28-2.71.77-3.91,1.42-.21.12-.42.24-.63.37-1.19.73-2.27,1.64-3.19,2.68-.16.18-.32.37-.47.56-.86,1.08-1.57,2.3-2.09,3.61-.09.23-.17.46-.25.69-.43,1.29-.68,2.67-.72,4.1,0,.12,0,.24,0,.37v21.03h-9.55v-21.03c0-.68.03-1.36.09-2.03.12-1.39.36-2.76.72-4.1.28-1.04.63-2.06,1.05-3.06.11-.26.22-.51.34-.77.59-1.27,1.28-2.47,2.08-3.61.78-1.11,1.65-2.15,2.62-3.11,0,0,.01-.01.02-.02.99-.99,2.04-1.87,3.17-2.66,1.11-.78,2.29-1.46,3.52-2.03.27-.13.54-.24.81-.36,1.02-.43,2.05-.78,3.11-1.07,1.31-.35,2.65-.59,4.01-.7.69-.06,1.38-.09,2.08-.09s1.39.03,2.08.09c1.36.12,2.7.35,4.01.7,1.05.28,2.09.64,3.11,1.07.27.12.54.23.81.36,1.24.58,2.41,1.26,3.52,2.03,1.13.79,2.19,1.68,3.17,2.66,0,0,.01.01.02.02.97.97,1.84,2.01,2.62,3.11.8,1.14,1.49,2.34,2.08,3.61.12.25.23.51.34.77.42,1,.77,2.02,1.05,3.06.36,1.34.6,2.71.72,4.1.06.67.09,1.35.09,2.03Z"/>
              <g>
                <path class="cls-13" d="M195.41,50.98l-.22-.03c-1.35-.2-2.76-.2-4.11,0l-.22.03v-10.01l.17-.02c1.38-.12,2.82-.12,4.2,0l.17.02v10.01ZM191.24,41.33v9.21c1.25-.17,2.54-.17,3.78,0v-9.21c-1.25-.1-2.54-.1-3.78,0Z"/>
                <path class="cls-13" d="M186.31,52.58l-3.42-9.4.16-.07c.27-.13.54-.25.82-.36,1.02-.43,2.07-.79,3.13-1.07l.17-.05,3.42,9.41-.22.04c-1.35.27-2.65.75-3.86,1.4l-.19.11ZM183.37,43.38l3.15,8.66c1.12-.59,2.32-1.02,3.56-1.29l-3.15-8.66c-.99.27-1.97.61-2.91,1.01-.22.09-.43.19-.64.28Z"/>
                <path class="cls-13" d="M182.59,55.65l-6.42-7.66.11-.12c1.02-1.02,2.09-1.92,3.22-2.71l.14-.1,6.43,7.67-.19.12c-1.17.72-2.23,1.61-3.15,2.64l-.15.17ZM176.68,48.01l5.92,7.06c.86-.94,1.83-1.76,2.9-2.43l-5.92-7.06c-1.02.72-1.99,1.54-2.9,2.44Z"/>
                <path class="cls-13" d="M180.14,59.79l-8.67-5,.07-.16c.59-1.27,1.3-2.5,2.1-3.64l.1-.14.15.09,8.52,4.92-.14.17c-.86,1.08-1.55,2.28-2.06,3.56l-.08.21ZM171.97,54.64l7.98,4.61c.48-1.17,1.12-2.27,1.89-3.27l-7.98-4.61c-.71,1.03-1.35,2.13-1.89,3.28Z"/>
                <path class="cls-13" d="M179.25,64.54l-9.86-1.74v-.17c.13-1.4.38-2.79.74-4.14l.05-.17,9.86,1.74-.07.21c-.44,1.3-.68,2.66-.71,4.05v.22ZM169.81,62.48l9.08,1.6c.05-1.27.27-2.52.65-3.73l-9.08-1.6c-.32,1.22-.54,2.47-.65,3.73Z"/>
                <path class="cls-13" d="M179.26,69.23h-9.93v-4.55h9.93v4.55ZM169.71,68.85h9.16v-3.78h-9.16v3.78Z"/>
                <path class="cls-13" d="M179.26,73.4h-9.93v-4.55h9.93v4.55ZM169.71,73.02h9.16v-3.78h-9.16v3.78Z"/>
                <path class="cls-13" d="M179.26,77.57h-9.93v-4.55h9.93v4.55ZM169.71,77.18h9.16v-3.78h-9.16v3.78Z"/>
                <path class="cls-13" d="M179.26,81.73h-9.93v-4.55h9.93v4.55ZM169.71,81.35h9.16v-3.78h-9.16v3.78Z"/>
                <path class="cls-13" d="M179.26,85.9h-9.93v-4.55h9.93v4.55ZM169.71,85.51h9.16v-3.78h-9.16v3.78Z"/>
                <path class="cls-13" d="M199.95,52.58l-.19-.11c-1.21-.66-2.51-1.13-3.86-1.4l-.22-.04,3.42-9.41.17.05c1.06.28,2.11.64,3.13,1.07.27.12.55.24.82.36l.16.07-3.42,9.4ZM196.19,50.74c1.24.27,2.43.71,3.56,1.29l3.15-8.66c-.21-.1-.43-.19-.64-.28-.95-.4-1.93-.74-2.91-1.01l-3.15,8.66Z"/>
                <path class="cls-13" d="M203.68,55.65l-.15-.17c-.92-1.03-1.97-1.92-3.15-2.64l-.19-.12,6.43-7.67.14.1c1.13.79,2.2,1.69,3.2,2.68l.12.12-.1.15-6.32,7.53ZM200.77,52.63c1.07.68,2.04,1.5,2.9,2.43l5.92-7.06c-.91-.9-1.88-1.71-2.9-2.44l-5.92,7.06Z"/>
                <path class="cls-13" d="M206.13,59.79l-.08-.21c-.5-1.28-1.2-2.48-2.06-3.56l-.14-.17,8.67-5,.1.14c.8,1.14,1.51,2.37,2.1,3.64l.07.16-8.67,5ZM204.43,55.97c.78,1.01,1.41,2.11,1.9,3.27l7.98-4.61c-.54-1.14-1.18-2.24-1.89-3.28l-7.98,4.61Z"/>
                <path class="cls-13" d="M207.01,64.54v-.22c-.04-1.38-.28-2.74-.72-4.05l-.07-.21,9.86-1.74.05.17c.36,1.35.61,2.74.73,4.14v.17s-9.84,1.74-9.84,1.74ZM206.73,60.36c.38,1.21.6,2.46.65,3.73l9.08-1.6c-.12-1.26-.34-2.51-.65-3.73l-9.08,1.6Z"/>
                <path class="cls-13" d="M216.94,69.23h-9.93v-4.55h9.93v4.55ZM207.39,68.85h9.16v-3.78h-9.16v3.78Z"/>
                <path class="cls-13" d="M216.94,73.4h-9.93v-4.55h9.93v4.55ZM207.39,73.02h9.16v-3.78h-9.16v3.78Z"/>
                <path class="cls-13" d="M216.94,77.57h-9.93v-4.55h9.93v4.55ZM207.39,77.18h9.16v-3.78h-9.16v3.78Z"/>
                <path class="cls-13" d="M216.94,81.73h-9.93v-4.55h9.93v4.55ZM207.39,81.35h9.16v-3.78h-9.16v3.78Z"/>
                <path class="cls-13" d="M216.94,85.9h-9.93v-4.55h9.93v4.55ZM207.39,85.51h9.16v-3.78h-9.16v3.78Z"/>
              </g>
              <path d="M217.31,86.27h-10.68v-21.95c-.04-1.35-.27-2.67-.7-3.94-.07-.22-.15-.44-.24-.66-.49-1.24-1.16-2.41-2-3.46-.15-.18-.3-.36-.45-.54-.89-1.01-1.92-1.87-3.06-2.57-.2-.12-.4-.24-.61-.35-1.18-.64-2.44-1.1-3.76-1.37-.23-.05-.46-.09-.69-.12-1.32-.2-2.69-.2-4,0-.23.03-.46.07-.69.12-1.31.27-2.58.73-3.76,1.37-.21.11-.41.23-.61.35-1.14.7-2.17,1.57-3.06,2.57-.15.18-.31.35-.45.54-.84,1.05-1.51,2.22-2,3.46-.09.22-.17.44-.24.66-.42,1.27-.66,2.59-.69,3.94v.35s0,21.6,0,21.6h-10.68v-21.6c0-.7.03-1.39.09-2.08.12-1.42.37-2.83.74-4.2.28-1.06.65-2.11,1.08-3.13.11-.26.23-.53.35-.78.6-1.29,1.32-2.54,2.13-3.69.79-1.13,1.69-2.2,2.68-3.19,1.02-1.02,2.12-1.94,3.27-2.74,1.13-.79,2.34-1.49,3.61-2.08.27-.13.55-.25.83-.37,1.03-.44,2.1-.8,3.18-1.09,1.34-.36,2.72-.6,4.1-.72,1.41-.12,2.85-.12,4.26,0,1.38.12,2.76.36,4.1.72,1.08.29,2.15.65,3.18,1.09.28.12.55.24.83.37,1.26.59,2.47,1.29,3.61,2.08,1.15.8,2.24,1.72,3.25,2.73,1,1.01,1.9,2.08,2.7,3.21.82,1.16,1.53,2.41,2.13,3.69.12.26.24.52.35.78.43,1.01.79,2.07,1.08,3.13.37,1.37.62,2.79.74,4.2.06.69.09,1.38.09,2.08v21.6ZM207.77,85.14h8.42v-20.47c0-.67-.03-1.33-.08-1.99-.11-1.35-.35-2.7-.7-4.01-.27-1.01-.62-2.02-1.03-2.98-.11-.25-.22-.5-.33-.75-.57-1.23-1.26-2.42-2.03-3.52-.76-1.07-1.61-2.1-2.55-3.04-.98-.98-2.02-1.85-3.11-2.62-1.08-.76-2.24-1.43-3.44-1.99-.26-.12-.52-.24-.79-.35-.99-.42-2-.77-3.03-1.04-1.28-.34-2.59-.57-3.91-.69-1.35-.12-2.72-.12-4.07,0-1.32.11-2.63.35-3.91.69-1.03.27-2.05.62-3.03,1.04-.27.11-.53.23-.79.35-1.2.56-2.36,1.23-3.44,1.99-1.09.76-2.14,1.64-3.1,2.6-.96.96-1.82,1.98-2.57,3.06-.78,1.1-1.46,2.29-2.03,3.52-.12.25-.23.5-.33.75-.41.97-.76,1.98-1.03,2.98-.35,1.3-.59,2.65-.7,4-.06.66-.08,1.32-.08,1.99v20.47h8.42v-20.85c.04-1.45.29-2.89.75-4.26.08-.24.17-.48.26-.72.53-1.35,1.26-2.61,2.17-3.75.16-.2.32-.39.49-.58.96-1.09,2.08-2.03,3.32-2.79.21-.13.43-.26.66-.38,1.28-.7,2.65-1.19,4.07-1.48.25-.05.5-.09.75-.13,1.42-.21,2.91-.21,4.33,0,.25.04.5.08.75.13,1.43.29,2.8.79,4.07,1.48.22.12.44.25.66.38,1.24.76,2.35,1.7,3.32,2.79.17.19.33.38.49.58.91,1.14,1.64,2.4,2.17,3.75.09.24.18.47.26.71.46,1.38.71,2.81.75,4.27v.38s0,20.47,0,20.47Z"/>
              <path class="cls-6" d="M184.96,85.71s-4.68-6.8-3.86-12.9c0,0,2.81,1.13,4.68,3.68,0,0-1.67-5.54,1.87-10.1,3.54-4.56,1.34-9.63,1.34-9.63,0,0,5.11,6.89,3.41,11.58s.99,6,.99,6c0,0,5.32-5.28,3.23-9.53,0,0,4.5,9.22,2.16,13.19,0,0,4.91-1.21,5.36-4.97,0,0,1.73,8.08-3.66,12.68h-15.52Z"/>
              <path class="cls-11" d="M187.25,77.52s-.36-1.26-.33-2.98c.05-2.22.7-4.15,1.94-5.75.97-1.25,1.57-2.52,1.92-3.75.44,1.43.64,2.98.19,4.24-.85,2.35-.88,4.36-.07,5.97.66,1.31,1.64,1.84,1.83,1.93l.98.48.77-.77c.06-.06,1.47-1.47,2.62-3.45.11-.19.22-.38.31-.57.68,2.68.7,4.73.06,5.81l-1.85,3.13,3.53-.87c.13-.03,1.95-.5,3.64-1.72-.3,2.7-1.92,4.85-3.54,6.42h-13.44c-.87-1.45-2.85-5.05-3.21-8.73.66.49,1.37,1.14,1.96,1.95,0,0,1.59,1.78,2.54,2.37,0,0,1.06-1.08.16-3.71Z"/>
              <path class="cls-6" d="M198.76,63.95s-2.05-1.95-.33-4.22c1.42-1.87-.64-2.94-.64-2.94,0,0,2.89.43,1.95,3.45-.35,1.11-1.43,1.1-.98,3.7Z"/>
              <rect x="179.06" y="85.51" width="28.14" height=".38"/>
            </g>
            <g>
              <path class="cls-13" d="M156.76,79.42c-.09,0-.17-.07-.19-.16-.02-.1.05-.2.16-.22.24-.04.76-.1,1.04-.02.1.03.16.13.13.24s-.14.16-.24.13c-.17-.05-.58-.02-.87.03-.01,0-.02,0-.03,0Z"/>
              <path class="cls-13" d="M161.08,77.5h-.71c-.11,0-.19-.09-.19-.19s.09-.19.19-.19h.71c.11,0,.19.09.19.19s-.09.19-.19.19Z"/>
              <path class="cls-13" d="M160.38,73.68h-.71c-.11,0-.19-.09-.19-.19s.09-.19.19-.19h.71c.11,0,.19.09.19.19s-.09.19-.19.19Z"/>
              <path class="cls-13" d="M155.37,71.4c-.09,0-.17-.06-.19-.15-.02-.1.04-.2.15-.23l.68-.14c.1-.02.2.04.23.15.02.1-.04.2-.15.23l-.68.14s-.03,0-.04,0Z"/>
              <path class="cls-13" d="M164.56,68.22h-1.13c-.11,0-.19-.09-.19-.19s.09-.19.19-.19h1.13c.11,0,.19.09.19.19s-.09.19-.19.19Z"/>
              <path class="cls-13" d="M167.04,72.47h-.85c-.11,0-.19-.09-.19-.19s.09-.19.19-.19h.85c.11,0,.19.09.19.19s-.09.19-.19.19Z"/>
              <path class="cls-13" d="M167.32,81.11s-.02,0-.04,0l-.78-.15c-.1-.02-.17-.12-.15-.22s.11-.17.22-.15l.78.15c.1.02.17.12.15.22-.02.09-.1.15-.19.15Z"/>
              <path class="cls-13" d="M159.65,66.5c-.29,0-.58-.04-.85-.12-.1-.03-.16-.14-.13-.24.03-.1.14-.16.24-.13.33.1.68.13,1.02.09.1,0,.2.06.21.17.01.1-.06.2-.17.21-.11.01-.22.02-.32.02Z"/>
              <path class="cls-13" d="M160.77,82.52c-.17,0-.34-.01-.5-.04-.1-.02-.17-.12-.16-.22.02-.1.12-.17.22-.16.42.07.85.04,1.25-.09.11-.03.21.02.24.12.03.1-.02.21-.12.24-.3.1-.62.15-.93.15Z"/>
              <path class="cls-13" d="M167.04,63.86h-.6c-.11,0-.19-.09-.19-.19s.09-.19.19-.19h.6c.11,0,.19.09.19.19s-.09.19-.19.19Z"/>
              <path class="cls-13" d="M158.32,62.42s0,0,0,0c-.28-.01-.55-.07-.8-.17-.1-.04-.15-.15-.11-.25.04-.1.15-.14.25-.11.22.08.44.13.68.14.1,0,.19.09.18.2,0,.1-.09.18-.19.18Z"/>
              <path class="cls-13" d="M164.06,61.13h-1.49c-.11,0-.19-.09-.19-.19s.09-.19.19-.19h1.49c.11,0,.19.09.19.19s-.09.19-.19.19Z"/>
              <path class="cls-13" d="M168.42,57.48s-.03,0-.04,0c-.14-.03-.29-.04-.44-.02-.12,0-.2-.06-.21-.17-.01-.1.06-.2.17-.21.19-.02.37-.01.56.03.1.02.17.12.15.23-.02.09-.1.15-.19.15Z"/>
              <path class="cls-13" d="M158.18,58.23c-.27,0-.54-.01-.8-.04-.1-.01-.18-.11-.17-.21.01-.1.11-.18.21-.17.31.03.62.04.93.04.1,0,.19.08.2.19,0,.11-.08.19-.19.2-.06,0-.12,0-.18,0Z"/>
              <path class="cls-13" d="M162.5,56.03h-.6c-.11,0-.19-.09-.19-.19s.09-.19.19-.19h.6c.11,0,.19.09.19.19s-.09.19-.19.19Z"/>
              <path class="cls-13" d="M160.66,51.57h-.89c-.11,0-.19-.09-.19-.19s.09-.19.19-.19h.89c.11,0,.19.09.19.19s-.09.19-.19.19Z"/>
              <path class="cls-13" d="M166.26,53.3s-.01,0-.02,0c-.35-.04-.72-.05-1.07-.03,0,0,0,0,0,0-.1,0-.19-.08-.19-.18,0-.11.08-.19.18-.2.37-.02.75,0,1.13.04.1.01.18.1.17.21-.01.1-.09.17-.19.17Z"/>
              <path class="cls-13" d="M171.04,51.64h-.39c-.11,0-.19-.09-.19-.19s.09-.19.19-.19h.39c.11,0,.19.09.19.19s-.09.19-.19.19Z"/>
              <path class="cls-13" d="M163.78,50.02c-.25,0-.5-.04-.73-.12-.1-.03-.15-.14-.12-.24.03-.1.14-.16.24-.12.27.09.56.12.84.08.11-.01.2.06.21.17s-.06.2-.17.21c-.09.01-.18.02-.27.02Z"/>
              <path class="cls-13" d="M167.92,48.39c-.1,0-.18-.08-.19-.18,0-.1.07-.2.18-.2l.6-.04s0,0,.01,0c.1,0,.18.08.19.18,0,.1-.07.2-.18.2l-.6.04s0,0-.01,0Z"/>
              <path class="cls-13" d="M174.2,48.07c-.23,0-.46-.04-.68-.12-.1-.04-.15-.15-.11-.25.04-.1.14-.15.25-.11.23.09.48.12.73.09.1,0,.2.06.21.17.01.1-.06.2-.17.21-.08,0-.15.01-.23.01Z"/>
              <path class="cls-13" d="M164.02,46.32s0,0,0,0l-1.17-.04c-.11,0-.19-.09-.18-.2,0-.11.08-.21.2-.18l1.17.03c.11,0,.19.09.19.2,0,.1-.09.19-.19.19Z"/>
              <path class="cls-13" d="M168.45,44.38s0,0-.01,0l-1.1-.07c-.1,0-.19-.1-.18-.2,0-.1.08-.18.2-.18l1.1.07c.11,0,.19.1.18.2,0,.1-.09.18-.19.18Z"/>
              <path class="cls-13" d="M173.06,44.52c-.1,0-.19-.08-.19-.18,0-.11.07-.2.18-.2l.74-.04c.11,0,.2.08.2.18,0,.11-.07.2-.18.2l-.74.04s0,0-.01,0Z"/>
              <path class="cls-13" d="M178.87,44.24c-.1,0-.18-.08-.19-.18,0-.1.07-.2.18-.2l.53-.03c.1,0,.2.07.2.18,0,.1-.07.2-.18.2l-.53.03s0,0-.01,0Z"/>
              <path class="cls-13" d="M165.44,41.12c-.13,0-.27,0-.4-.01-.1,0-.19-.09-.18-.2,0-.1.09-.18.19-.18,0,0,0,0,.01,0,.33.02.67.01,1-.02.1,0,.2.07.21.17,0,.1-.07.2-.17.21-.22.02-.43.03-.65.03Z"/>
              <path class="cls-13" d="M171.36,40.27h-1.24c-.11,0-.19-.09-.19-.19s.09-.19.19-.19h1.24c.11,0,.19.09.19.19s-.09.19-.19.19Z"/>
              <path class="cls-13" d="M167.52,37.01c-.07,0-.14,0-.21,0-.11,0-.19-.1-.18-.2,0-.11.1-.18.2-.18.27.02.54,0,.79-.06.11-.02.21.04.23.14.02.1-.04.21-.14.23-.23.05-.46.08-.7.08Z"/>
              <path class="cls-13" d="M176.35,41.62c-.27,0-.53-.01-.8-.04-.1-.01-.18-.1-.17-.21s.09-.18.21-.17c.35.04.71.05,1.07.03,0,0,0,0,0,0,.1,0,.19.08.19.18,0,.1-.08.19-.18.2-.11,0-.22,0-.33,0Z"/>
              <path class="cls-13" d="M184.96,40.97h-1.24c-.11,0-.19-.09-.19-.19s.09-.19.19-.19h1.24c.11,0,.19.09.19.19s-.09.19-.19.19Z"/>
              <path class="cls-13" d="M180.89,39.24h-1.45c-.11,0-.19-.09-.19-.19s.09-.19.19-.19h1.45c.11,0,.19.09.19.19s-.09.19-.19.19Z"/>
              <path class="cls-13" d="M174.34,36.05s-.01,0-.02,0l-.74-.07c-.1-.01-.18-.1-.17-.21.01-.1.09-.17.21-.17l.74.07c.1.01.18.1.17.21,0,.1-.09.17-.19.17Z"/>
              <path class="cls-13" d="M169.69,32.72c-.1,0-.18-.07-.19-.17-.01-.1.07-.2.17-.21.37-.04.75-.05,1.12-.04.11,0,.19.09.19.2,0,.1-.09.19-.19.19h0c-.36-.01-.72,0-1.07.03,0,0-.01,0-.02,0Z"/>
              <path class="cls-13" d="M178.69,33.18h-1.1c-.11,0-.19-.09-.19-.19s.09-.19.19-.19h1.1c.11,0,.19.09.19.19s-.09.19-.19.19Z"/>
              <path class="cls-13" d="M182.87,36.57c-.08,0-.15-.05-.18-.13-.03-.1.02-.21.12-.24.39-.14.79-.2,1.21-.18.11,0,.19.09.18.2,0,.1-.1.21-.2.18-.36-.01-.72.04-1.06.16-.02,0-.04.01-.06.01Z"/>
              <path class="cls-13" d="M189.88,38.62c-.1,0-.21-.01-.31-.03s-.17-.12-.15-.23c.02-.1.11-.17.23-.15.19.04.39.03.57-.03.1-.03.21.02.24.12.03.1-.02.21-.12.24-.15.05-.3.07-.46.07Z"/>
              <path class="cls-13" d="M187.41,34.25s0,0-.01,0l-1.24-.08c-.1,0-.18-.1-.18-.2,0-.1.08-.18.2-.18l1.24.08c.1,0,.18.1.18.2,0,.1-.09.18-.19.18Z"/>
              <path class="cls-13" d="M174.74,29.93c-.18,0-.37,0-.55-.01-.1,0-.19-.09-.18-.2,0-.1.09-.18.19-.18,0,0,0,0,0,0,.49.02.98.01,1.47-.02,0,0,0,0,.01,0,.1,0,.18.08.19.18,0,.11-.07.2-.18.2-.32.02-.64.03-.96.03Z"/>
              <path class="cls-13" d="M182.24,28.29h-1.17c-.11,0-.19-.09-.19-.19s.09-.19.19-.19h1.17c.11,0,.19.09.19.19s-.09.19-.19.19Z"/>
              <path class="cls-13" d="M185.67,30.63c-.1,0-.18-.07-.19-.17,0-.11.07-.2.17-.21l.71-.06c.13,0,.2.07.21.17,0,.11-.07.2-.17.21l-.71.06s-.01,0-.02,0Z"/>
              <path class="cls-13" d="M178.23,26.21s0,0-.01,0c-.4-.03-.79-.12-1.16-.28-.1-.04-.14-.15-.1-.25.04-.1.15-.14.25-.1.33.14.68.22,1.03.25.1,0,.18.1.18.2,0,.1-.09.18-.19.18Z"/>
              <path class="cls-13" d="M183.72,22.8c-.1,0-.19-.08-.19-.19,0-.11.08-.19.18-.2l1.13-.03s0,0,0,0c.1,0,.19.08.19.19,0,.11-.08.19-.18.2l-1.13.03s0,0,0,0Z"/>
              <path class="cls-13" d="M189.61,26.7h-1.31c-.11,0-.19-.09-.19-.19s.09-.19.19-.19h1.31c.11,0,.19.09.19.19s-.09.19-.19.19Z"/>
              <path class="cls-13" d="M192,20.36c-.33,0-.66-.01-.99-.04-.1,0-.18-.1-.17-.21,0-.1.11-.17.21-.17.44.04.88.05,1.32.03.1-.03.19.08.2.18,0,.11-.08.19-.18.2-.13,0-.25,0-.38,0Z"/>
              <path class="cls-13" d="M195.77,23.79h-.74c-.11,0-.19-.09-.19-.19s.09-.19.19-.19h.74c.11,0,.19.09.19.19s-.09.19-.19.19Z"/>
              <path class="cls-13" d="M193.33,29.64h-1.1c-.11,0-.19-.09-.19-.19s.09-.19.19-.19h1.1c.11,0,.19.09.19.19s-.09.19-.19.19Z"/>
              <path class="cls-13" d="M193.92,33.7c-.27,0-.54-.02-.8-.07-.1-.02-.17-.12-.15-.22s.12-.17.22-.15c.43.08.86.09,1.29.03.11-.02.2.06.22.16.01.1-.06.2-.16.22-.2.03-.4.04-.61.04Z"/>
              <path class="cls-13" d="M196.59,38.36s0,0-.01,0l-.78-.04c-.11,0-.19-.1-.18-.2,0-.1.08-.19.2-.18l.78.04c.11,0,.19.1.18.2,0,.1-.09.18-.19.18Z"/>
              <path class="cls-13" d="M199.74,31.59c-.18,0-.35-.01-.53-.04-.1-.02-.17-.12-.16-.22.02-.1.11-.18.22-.16.21.03.41.04.63.03,0,0,0,0,.01,0,.1,0,.19.08.19.18,0,.1-.07.2-.18.2-.06,0-.13,0-.19,0Z"/>
              <path class="cls-13" d="M200.7,27.12h-.74c-.11,0-.19-.09-.19-.19s.09-.19.19-.19h.74c.11,0,.19.09.19.19s-.09.19-.19.19Z"/>
              <path class="cls-13" d="M199.28,21.56h-.96c-.11,0-.19-.09-.19-.19s.09-.19.19-.19h.96c.11,0,.19.09.19.19s-.09.19-.19.19Z"/>
              <path class="cls-13" d="M205.2,23.94s-.01,0-.01,0l-.53-.04-.02-.19.05-.19.53.04c.1,0,.18.1.18.21,0,.1-.09.18-.19.18ZM204.63,23.71v-.19s0,.19,0,.19Z"/>
              <path class="cls-13" d="M210.21,27.2c-.35,0-.71-.04-1.06-.11-.1-.02-.17-.12-.15-.23.02-.1.12-.17.23-.15.41.09.84.12,1.26.09.09-.02.2.07.2.18,0,.11-.07.2-.18.2-.1,0-.21,0-.31,0Z"/>
              <path class="cls-13" d="M205.05,29.95c-.1,0-.19-.08-.19-.19,0-.1.08-.19.19-.19.23,0,.46-.02.67-.07.11-.02.2.05.22.15.02.1-.05.2-.15.22-.24.05-.49.07-.74.07h0Z"/>
              <path class="cls-13" d="M214.16,30.73h-1.1c-.11,0-.19-.09-.19-.19s.09-.19.19-.19h1.1c.11,0,.19.09.19.19s-.09.19-.19.19Z"/>
              <path class="cls-13" d="M210.19,34.31h-1.31c-.11,0-.19-.09-.19-.19s.09-.19.19-.19h1.31c.11,0,.19.09.19.19s-.09.19-.19.19Z"/>
              <path class="cls-13" d="M202.54,35.45h0c-.42,0-.85-.03-1.29-.06-.11,0-.19-.1-.18-.2,0-.11.11-.18.2-.18.43.03.86.05,1.27.06.11,0,.19.09.19.19,0,.1-.09.19-.19.19Z"/>
              <path class="cls-13" d="M218.27,36.71s-.01,0-.02,0l-.99-.09c-.1-.01-.18-.1-.17-.21,0-.1.1-.17.21-.17l.99.09c.1.01.18.1.17.21,0,.1-.09.17-.19.17Z"/>
              <path class="cls-13" d="M206.29,39.06h-1.84c-.11,0-.19-.09-.19-.19s.09-.19.19-.19h1.84c.11,0,.19.09.19.19s-.09.19-.19.19Z"/>
              <path class="cls-13" d="M212.07,39.13c-.11,0-.19-.09-.19-.19s.09-.19.19-.19c.47,0,.95-.04,1.42-.11.11-.01.2.06.22.16.02.1-.06.2-.16.22-.49.07-.99.11-1.48.11Z"/>
              <path class="cls-13" d="M221.14,41.44c-.11,0-.22-.08-.22-.19,0-.1.09-.19.19-.19,0,0,.02,0,.03,0,.13,0,.26-.01.39-.04.1-.02.21.04.23.15.02.1-.04.2-.15.23-.15.03-.31.05-.47.05Z"/>
              <path class="cls-13" d="M209.38,43.2s-.01,0-.02,0c-.35-.04-.72-.05-1.07-.03-.11.03-.19-.08-.2-.18,0-.11.08-.19.18-.2.38-.02.75,0,1.13.03.1.01.18.1.17.21-.01.1-.09.17-.19.17Z"/>
              <path class="cls-13" d="M216.47,42.72c-.11,0-.22,0-.33-.01-.1,0-.18-.1-.18-.2,0-.1.07-.18.2-.18.28.02.57.01.85-.02.11-.02.2.06.21.17.01.1-.06.2-.17.21-.2.02-.39.03-.59.03Z"/>
              <path class="cls-13" d="M213.31,47.11c-.09,0-.17-.06-.19-.15-.02-.1.04-.21.14-.23.38-.09.77-.13,1.18-.12.1,0,.19.09.18.2,0,.1-.09.19-.19.19-.03,0-.09,0-.13,0-.32,0-.64.04-.96.11-.02,0-.03,0-.04,0Z"/>
              <path class="cls-13" d="M222.27,46.93h-.85c-.11,0-.19-.09-.19-.19s.09-.19.19-.19h.85c.11,0,.19.09.19.19s-.09.19-.19.19Z"/>
              <path class="cls-13" d="M218.39,50.83c-.08,0-.16,0-.24,0-.1,0-.19-.1-.18-.2,0-.1.11-.18.2-.18.35.02.7,0,1.04-.1.1-.03.21.04.23.14.03.1-.04.21-.14.23-.3.08-.61.11-.92.11Z"/>
              <path class="cls-13" d="M226.56,51.64h-.64c-.11,0-.19-.09-.19-.19s.09-.19.19-.19h.64c.11,0,.19.09.19.19s-.09.19-.19.19Z"/>
              <path class="cls-13" d="M221.64,55.5c-.1,0-.19-.08-.19-.19,0-.11.08-.19.19-.2.43-.01.86-.06,1.28-.16.11-.03.2.04.23.14s-.04.21-.14.23c-.44.1-.9.16-1.35.17h0Z"/>
              <path class="cls-13" d="M218.27,61.07c-.1,0-.19-.08-.19-.19,0-.1.08-.19.19-.2l1.63-.04h0c.1,0,.19.08.19.19,0,.1-.08.19-.19.2l-1.63.04h0Z"/>
              <path class="cls-13" d="M228.72,60.71h-.67c-.11,0-.19-.09-.19-.19s.09-.19.19-.19h.67c.11,0,.19.09.19.19s-.09.19-.19.19Z"/>
              <path class="cls-13" d="M224.27,66.24s-.08,0-.12,0c-.11,0-.19-.09-.18-.2,0-.1.09-.19.19-.19.04,0,.08,0,.11,0,.22,0,.44-.02.66-.07.1-.02.21.04.23.15.02.1-.04.2-.15.23-.24.05-.49.08-.74.08Z"/>
              <path class="cls-13" d="M230.18,66.82c-.1,0-.21,0-.32-.02-.1-.01-.18-.11-.17-.21.01-.11.11-.18.21-.17.28.04.55.02.82-.05.1-.03.21.03.23.14.03.1-.04.21-.14.23-.21.05-.43.08-.64.08Z"/>
              <path class="cls-13" d="M218.52,69.83c-.1,0-.18-.08-.19-.18,0-.1.07-.2.18-.2l1.84-.12c.12,0,.2.07.2.18s-.07.2-.18.2l-1.84.12s0,0-.01,0Z"/>
              <path class="cls-13" d="M226.42,73.15h-1.1c-.11,0-.19-.09-.19-.19s.09-.19.19-.19h1.1c.11,0,.19.09.19.19s-.09.19-.19.19Z"/>
              <path class="cls-13" d="M231.1,76.55h-.76c-.11,0-.19-.09-.19-.19s.09-.19.19-.19h.76c.11,0,.19.09.19.19s-.09.19-.19.19Z"/>
              <path class="cls-13" d="M219.75,76.77c-.37,0-.74-.01-1.1-.04-.1,0-.18-.1-.18-.2,0-.1.1-.18.2-.18.53.04,1.07.05,1.61.03.12-.01.2.08.2.18,0,.11-.08.19-.18.2-.18,0-.37.01-.55.01Z"/>
              <path class="cls-13" d="M223.05,80.73h-1.35c-.11,0-.19-.09-.19-.19s.09-.19.19-.19h1.35c.11,0,.19.09.19.19s-.09.19-.19.19Z"/>
              <path class="cls-13" d="M227.59,82.66c-.09,0-.17-.06-.19-.16-.02-.1.05-.2.15-.22.46-.09.91-.12,1.38-.13.11,0,.19.09.19.19,0,.11-.09.19-.19.19h0c-.44,0-.88.04-1.31.12-.01,0-.02,0-.04,0Z"/>
              <path class="cls-13" d="M219.64,84.53c-.22,0-.44,0-.66-.01-.11,0-.19-.09-.19-.2,0-.1.09-.19.19-.19,0,0,0,0,0,0,.63.02,1.27.01,1.9-.03.1,0,.2.07.2.18,0,.1-.07.2-.18.2-.42.02-.84.04-1.27.04Z"/>
            </g>
          </g>
          <g>
            <path class="cls-5" d="M60.69,85.71c0-4.27.46-11.3.77-15.59.21-2.91.69-5.8,1.43-8.63,3.23-12.33,13.78-43.52,37.96-43.52,24.18,0,34.73,31.19,37.96,43.52.74,2.83,1.22,5.71,1.43,8.63.31,4.29.77,11.32.77,15.59H60.69Z"/>
            <g>
              <g>
                <path class="cls-12" d="M114.92,64.67v21.03h-28.14v-21.03c0-7.77,6.3-14.07,14.07-14.07s14.07,6.3,14.07,14.07Z"/>
                <path d="M115.11,85.9h-28.52v-21.22c0-7.86,6.4-14.26,14.26-14.26s14.26,6.4,14.26,14.26v21.22ZM86.97,85.51h27.75v-20.84c0-7.65-6.23-13.88-13.88-13.88s-13.88,6.23-13.88,13.88v20.84Z"/>
              </g>
              <path class="cls-8" d="M124.46,64.67v21.03h-9.55v-21.03c0-.12,0-.24,0-.37-.04-1.43-.29-2.81-.72-4.1-.08-.23-.16-.46-.25-.69-.52-1.31-1.22-2.52-2.09-3.61-.15-.19-.31-.38-.47-.56-.92-1.04-2-1.95-3.19-2.68-.21-.13-.42-.25-.63-.37-1.21-.66-2.52-1.14-3.91-1.42-.24-.05-.48-.09-.72-.13-.68-.1-1.38-.15-2.08-.15s-1.4.05-2.08.15c-.24.04-.48.08-.72.13-1.39.28-2.71.77-3.91,1.42-.21.12-.42.24-.63.37-1.19.73-2.27,1.64-3.19,2.68-.16.18-.32.37-.47.56-.86,1.08-1.57,2.3-2.09,3.61-.09.23-.17.46-.25.69-.43,1.29-.68,2.67-.72,4.1,0,.12,0,.24,0,.37v21.03h-9.55v-21.03c0-.68.03-1.36.09-2.03.12-1.39.36-2.76.72-4.1.28-1.04.63-2.06,1.05-3.06.11-.26.22-.51.34-.77.59-1.27,1.28-2.47,2.08-3.61.78-1.11,1.65-2.15,2.62-3.11,0,0,.01-.01.02-.02.99-.99,2.04-1.87,3.17-2.66,1.11-.78,2.29-1.46,3.52-2.03.27-.13.54-.24.81-.36,1.02-.43,2.05-.78,3.11-1.07,1.31-.35,2.65-.59,4.01-.7.69-.06,1.38-.09,2.08-.09s1.39.03,2.08.09c1.36.12,2.7.35,4.01.7,1.05.28,2.09.64,3.11,1.07.27.12.54.23.81.36,1.24.58,2.41,1.26,3.52,2.03,1.13.79,2.19,1.68,3.17,2.66,0,0,.01.01.02.02.97.97,1.84,2.01,2.62,3.11.8,1.14,1.49,2.34,2.08,3.61.12.25.23.51.34.77.42,1,.77,2.02,1.05,3.06.36,1.34.6,2.71.72,4.1.06.67.09,1.35.09,2.03Z"/>
              <g>
                <path class="cls-13" d="M98.57,50.98v-10.01l.17-.02c1.38-.12,2.82-.12,4.2,0l.17.02v10.01l-.22-.03c-1.35-.2-2.76-.2-4.11,0l-.22.03ZM100.85,50.41c.63,0,1.27.04,1.89.12v-9.21c-1.25-.1-2.53-.1-3.78,0v9.21c.62-.08,1.26-.12,1.89-.12Z"/>
                <path class="cls-13" d="M94.03,52.58l-3.42-9.4.16-.07c.27-.13.54-.25.82-.36,1.02-.43,2.07-.79,3.13-1.07l.17-.05,3.42,9.41-.22.04c-1.35.27-2.65.75-3.86,1.4l-.19.11ZM91.08,43.38l3.15,8.66c1.12-.59,2.32-1.02,3.56-1.29l-3.15-8.66c-.99.27-1.96.61-2.91,1.01-.22.09-.43.19-.64.28Z"/>
                <path class="cls-13" d="M90.3,55.65l-6.42-7.66.11-.12c1.02-1.02,2.1-1.92,3.22-2.71l.14-.1,6.43,7.67-.19.12c-1.17.72-2.23,1.61-3.15,2.64l-.15.17ZM84.39,48l5.92,7.06c.86-.94,1.83-1.75,2.9-2.43l-5.92-7.06c-1.02.72-1.99,1.54-2.9,2.43Z"/>
                <path class="cls-13" d="M87.85,59.79l-8.67-5,.07-.16c.59-1.27,1.3-2.49,2.1-3.64l.1-.14.15.09,8.52,4.92-.14.17c-.86,1.08-1.55,2.28-2.06,3.56l-.08.21ZM79.68,54.64l7.98,4.61c.48-1.17,1.12-2.27,1.9-3.27l-7.98-4.61c-.72,1.04-1.35,2.14-1.89,3.28Z"/>
                <path class="cls-13" d="M86.97,64.54l-9.85-1.74v-.17c.13-1.4.38-2.79.74-4.14l.05-.17,9.86,1.74-.07.21c-.44,1.3-.68,2.66-.71,4.05v.22ZM77.52,62.48l9.08,1.6c.05-1.27.27-2.52.65-3.73l-9.08-1.6c-.32,1.22-.54,2.47-.65,3.73Z"/>
                <path class="cls-13" d="M86.97,69.23h-9.93v-4.55h9.93v4.55ZM77.42,68.85h9.16v-3.78h-9.16v3.78Z"/>
                <path class="cls-13" d="M86.97,73.4h-9.93v-4.55h9.93v4.55ZM77.42,73.02h9.16v-3.78h-9.16v3.78Z"/>
                <path class="cls-13" d="M86.97,77.57h-9.93v-4.55h9.93v4.55ZM77.42,77.18h9.16v-3.78h-9.16v3.78Z"/>
                <path class="cls-13" d="M86.97,81.73h-9.93v-4.55h9.93v4.55ZM77.42,81.35h9.16v-3.78h-9.16v3.78Z"/>
                <path class="cls-13" d="M86.97,85.9h-9.93v-4.55h9.93v4.55ZM77.42,85.51h9.16v-3.78h-9.16v3.78Z"/>
                <path class="cls-13" d="M107.67,52.58l-.19-.11c-1.21-.66-2.51-1.13-3.86-1.4l-.22-.04,3.42-9.41.17.05c1.06.28,2.11.64,3.13,1.07.27.12.55.24.82.36l.16.07-3.42,9.4ZM103.9,50.74c1.24.27,2.43.71,3.56,1.29l3.15-8.66c-.21-.1-.43-.19-.64-.28-.95-.4-1.92-.74-2.91-1.01l-3.15,8.66Z"/>
                <path class="cls-13" d="M111.39,55.65l-.15-.17c-.92-1.03-1.97-1.92-3.15-2.64l-.19-.12,6.43-7.67.14.1c1.13.79,2.21,1.69,3.2,2.68l.12.12-.1.15-6.32,7.53ZM108.48,52.63c1.07.68,2.04,1.49,2.9,2.43l5.92-7.06c-.9-.89-1.88-1.71-2.9-2.44l-5.92,7.06Z"/>
                <path class="cls-13" d="M113.84,59.79l-.08-.21c-.5-1.28-1.2-2.48-2.06-3.56l-.14-.17,8.67-5,.1.14c.8,1.14,1.51,2.36,2.1,3.64l.07.16-8.67,5ZM112.14,55.97c.78,1.01,1.41,2.11,1.89,3.27l7.98-4.61c-.54-1.14-1.18-2.24-1.89-3.28l-7.98,4.61Z"/>
                <path class="cls-13" d="M114.73,64.54v-.22c-.04-1.38-.28-2.74-.72-4.05l-.07-.21,9.86-1.74.05.17c.36,1.35.61,2.74.73,4.14v.17s-9.84,1.74-9.84,1.74ZM114.44,60.36c.38,1.21.6,2.46.65,3.73l9.08-1.6c-.12-1.26-.34-2.51-.65-3.73l-9.08,1.6Z"/>
                <path class="cls-13" d="M124.65,69.23h-9.93v-4.55h9.93v4.55ZM115.11,68.85h9.16v-3.78h-9.16v3.78Z"/>
                <path class="cls-13" d="M124.65,73.4h-9.93v-4.55h9.93v4.55ZM115.11,73.02h9.16v-3.78h-9.16v3.78Z"/>
                <path class="cls-13" d="M124.65,77.57h-9.93v-4.55h9.93v4.55ZM115.11,77.18h9.16v-3.78h-9.16v3.78Z"/>
                <path class="cls-13" d="M124.65,81.73h-9.93v-4.55h9.93v4.55ZM115.11,81.35h9.16v-3.78h-9.16v3.78Z"/>
                <path class="cls-13" d="M124.65,85.9h-9.93v-4.55h9.93v4.55ZM115.11,85.51h9.16v-3.78h-9.16v3.78Z"/>
              </g>
              <path d="M125.03,86.27h-10.68v-21.94c-.04-1.35-.27-2.67-.7-3.94-.07-.22-.15-.44-.24-.66-.49-1.24-1.16-2.41-2-3.46-.14-.18-.3-.36-.45-.54-.89-1.01-1.92-1.87-3.06-2.57-.2-.12-.4-.24-.61-.35-1.18-.64-2.44-1.1-3.76-1.37-.23-.05-.46-.09-.69-.12-1.32-.2-2.69-.2-4,0-.23.03-.46.07-.69.12-1.31.27-2.58.72-3.76,1.37-.21.11-.41.23-.61.35-1.14.7-2.17,1.57-3.06,2.57-.15.17-.3.35-.45.54-.84,1.05-1.51,2.22-2,3.46-.09.22-.17.44-.24.66-.42,1.27-.66,2.59-.69,3.94v.35s0,21.6,0,21.6h-10.68v-21.6c0-.7.03-1.39.09-2.08.12-1.42.37-2.83.74-4.2.29-1.06.65-2.12,1.08-3.13.11-.26.23-.53.35-.78.6-1.29,1.32-2.53,2.13-3.69.79-1.13,1.69-2.2,2.68-3.19,1.03-1.03,2.12-1.94,3.26-2.74,1.13-.79,2.35-1.49,3.61-2.08.27-.13.55-.25.83-.37,1.03-.44,2.1-.8,3.18-1.09,1.34-.36,2.72-.6,4.1-.72,1.41-.12,2.85-.12,4.26,0,1.38.12,2.76.36,4.1.72,1.08.29,2.15.65,3.18,1.09.28.12.56.24.83.37,1.26.59,2.47,1.29,3.61,2.08,1.15.8,2.24,1.72,3.25,2.73,1,1.01,1.9,2.08,2.7,3.21.82,1.16,1.53,2.4,2.13,3.69.12.26.24.52.35.78.43,1.02.79,2.07,1.08,3.13.37,1.37.62,2.78.74,4.2.06.69.09,1.38.09,2.08v21.6ZM115.48,85.14h8.42v-20.47c0-.67-.03-1.33-.08-1.99-.12-1.35-.35-2.7-.7-4-.27-1.01-.62-2.01-1.03-2.98-.11-.25-.22-.5-.33-.75-.57-1.23-1.26-2.42-2.03-3.52-.75-1.07-1.61-2.1-2.55-3.04-.98-.98-2.02-1.85-3.11-2.62-1.08-.76-2.24-1.42-3.44-1.99-.26-.12-.52-.24-.79-.35-.98-.42-2-.77-3.03-1.04-1.28-.34-2.59-.57-3.91-.69-1.35-.12-2.72-.12-4.07,0-1.32.11-2.63.35-3.91.69-1.03.27-2.05.62-3.03,1.04-.27.11-.53.23-.79.35-1.2.56-2.36,1.23-3.44,1.99-1.09.76-2.13,1.64-3.1,2.6-.96.96-1.81,1.98-2.57,3.06-.78,1.11-1.46,2.29-2.03,3.52-.12.25-.23.5-.33.75-.41.97-.75,1.97-1.03,2.98-.35,1.31-.59,2.65-.7,4-.06.66-.08,1.32-.08,1.99v20.47h8.42v-20.85c.04-1.46.29-2.89.75-4.27.08-.24.17-.48.26-.72.53-1.35,1.26-2.61,2.17-3.75.16-.2.32-.39.49-.58.96-1.09,2.08-2.03,3.32-2.79.22-.13.43-.26.66-.38,1.28-.7,2.65-1.19,4.07-1.48.25-.05.5-.09.75-.13,1.42-.21,2.9-.21,4.33,0,.25.04.5.08.75.13,1.43.29,2.8.79,4.07,1.48.22.12.44.25.66.38,1.24.76,2.35,1.69,3.32,2.79.17.19.33.38.49.58.91,1.14,1.64,2.4,2.17,3.75.09.24.18.47.26.71.46,1.37.71,2.81.75,4.27v.38s0,20.47,0,20.47Z"/>
              <path class="cls-6" d="M92.68,85.71s-4.68-6.8-3.86-12.9c0,0,2.81,1.13,4.68,3.68,0,0-1.67-5.54,1.87-10.1,3.54-4.56,1.34-9.63,1.34-9.63,0,0,5.11,6.89,3.41,11.58s.99,6,.99,6c0,0,5.32-5.28,3.23-9.53,0,0,4.5,9.22,2.16,13.19,0,0,4.91-1.21,5.36-4.97,0,0,1.73,8.08-3.66,12.68h-15.52Z"/>
              <path class="cls-11" d="M94.96,77.52s-.36-1.26-.33-2.98c.05-2.22.7-4.15,1.94-5.75.97-1.25,1.57-2.52,1.92-3.75.44,1.43.64,2.98.19,4.24-.85,2.35-.88,4.36-.07,5.97.66,1.31,1.64,1.84,1.83,1.93l.98.48.77-.77c.06-.06,1.47-1.47,2.62-3.45.11-.19.22-.38.31-.57.68,2.68.7,4.73.06,5.81l-1.85,3.13,3.53-.87c.13-.03,1.95-.5,3.64-1.72-.3,2.7-1.92,4.85-3.54,6.42h-13.44c-.87-1.45-2.85-5.05-3.21-8.73.66.49,1.37,1.14,1.96,1.95,0,0,1.59,1.78,2.54,2.37,0,0,1.06-1.08.16-3.71Z"/>
              <path class="cls-6" d="M106.47,63.95s-2.05-1.95-.33-4.22c1.42-1.87-.64-2.94-.64-2.94,0,0,2.89.43,1.95,3.45-.35,1.11-1.43,1.1-.98,3.7Z"/>
              <rect x="86.78" y="85.51" width="28.14" height=".38"/>
            </g>
            <g>
              <path class="cls-13" d="M64.48,79.42c-.09,0-.17-.07-.19-.16-.02-.1.05-.2.16-.22.24-.04.76-.09,1.04-.02.1.03.16.13.13.24s-.14.16-.24.13c-.17-.05-.58-.02-.87.03-.01,0-.02,0-.03,0Z"/>
              <path class="cls-13" d="M68.8,77.5h-.71c-.11,0-.19-.09-.19-.19s.09-.19.19-.19h.71c.11,0,.19.09.19.19s-.09.19-.19.19Z"/>
              <path class="cls-13" d="M68.09,73.68h-.71c-.11,0-.19-.09-.19-.19s.09-.19.19-.19h.71c.11,0,.19.09.19.19s-.09.19-.19.19Z"/>
              <path class="cls-13" d="M63.08,71.4c-.09,0-.17-.06-.19-.15-.02-.1.04-.2.15-.23l.68-.14c.1-.02.2.04.23.15.02.1-.04.2-.15.23l-.68.14s-.03,0-.04,0Z"/>
              <path class="cls-13" d="M72.27,68.22h-1.13c-.11,0-.19-.09-.19-.19s.09-.19.19-.19h1.13c.11,0,.19.09.19.19s-.09.19-.19.19Z"/>
              <path class="cls-13" d="M74.75,72.47h-.85c-.11,0-.19-.09-.19-.19s.09-.19.19-.19h.85c.11,0,.19.09.19.19s-.09.19-.19.19Z"/>
              <path class="cls-13" d="M75.03,81.11s-.02,0-.04,0l-.78-.15c-.1-.02-.17-.12-.15-.22s.11-.17.22-.15l.78.15c.1.02.17.12.15.22-.02.09-.1.15-.19.15Z"/>
              <path class="cls-13" d="M67.36,66.5c-.29,0-.58-.04-.85-.12-.1-.03-.16-.14-.13-.24.03-.1.14-.16.24-.13.33.1.68.13,1.02.09.1,0,.2.06.21.17.01.1-.06.2-.17.21-.11.01-.22.02-.32.02Z"/>
              <path class="cls-13" d="M68.49,82.52c-.17,0-.34-.01-.5-.04-.1-.02-.17-.12-.16-.22.02-.1.12-.17.22-.16.42.07.85.04,1.25-.09.1-.03.21.02.24.12.03.1-.02.21-.12.24-.3.1-.62.15-.93.15Z"/>
              <path class="cls-13" d="M74.75,63.86h-.6c-.11,0-.19-.09-.19-.19s.09-.19.19-.19h.6c.11,0,.19.09.19.19s-.09.19-.19.19Z"/>
              <path class="cls-13" d="M66.03,62.42s0,0,0,0c-.28-.01-.54-.07-.8-.17-.1-.04-.15-.15-.11-.25.04-.1.15-.14.25-.11.22.08.45.13.68.14.1,0,.19.09.18.2,0,.1-.09.18-.19.18Z"/>
              <path class="cls-13" d="M71.77,61.13h-1.49c-.11,0-.19-.09-.19-.19s.09-.19.19-.19h1.49c.11,0,.19.09.19.19s-.09.19-.19.19Z"/>
              <path class="cls-13" d="M76.13,57.48s-.03,0-.04,0c-.14-.03-.29-.04-.44-.02-.11,0-.2-.06-.21-.17-.01-.1.06-.2.17-.21.19-.02.38-.01.56.03.1.02.17.12.15.23-.02.09-.1.15-.19.15Z"/>
              <path class="cls-13" d="M65.89,58.23c-.27,0-.54-.01-.8-.04-.1-.01-.18-.11-.17-.21.01-.1.11-.18.21-.17.3.03.61.04.93.04.1,0,.19.08.2.19,0,.11-.08.19-.19.2-.06,0-.12,0-.18,0Z"/>
              <path class="cls-13" d="M70.22,56.03h-.6c-.11,0-.19-.09-.19-.19s.09-.19.19-.19h.6c.11,0,.19.09.19.19s-.09.19-.19.19Z"/>
              <path class="cls-13" d="M68.37,51.57h-.89c-.11,0-.19-.09-.19-.19s.09-.19.19-.19h.89c.11,0,.19.09.19.19s-.09.19-.19.19Z"/>
              <path class="cls-13" d="M73.97,53.3s-.01,0-.02,0c-.35-.04-.71-.05-1.07-.03-.1.03-.19-.08-.2-.18,0-.11.08-.19.18-.2.37-.02.75,0,1.13.04.1.01.18.1.17.21-.01.1-.09.17-.19.17Z"/>
              <path class="cls-13" d="M78.75,51.64h-.39c-.11,0-.19-.09-.19-.19s.09-.19.19-.19h.39c.11,0,.19.09.19.19s-.09.19-.19.19Z"/>
              <path class="cls-13" d="M71.49,50.02c-.25,0-.5-.04-.73-.12-.1-.03-.15-.14-.12-.24.03-.1.14-.16.24-.12.27.09.56.12.84.08.11-.01.2.06.21.17.01.1-.06.2-.17.21-.09.01-.18.02-.27.02Z"/>
              <path class="cls-13" d="M75.64,48.39c-.1,0-.18-.08-.19-.18,0-.1.07-.2.18-.2l.6-.04s0,0,.01,0c.1,0,.18.08.19.18,0,.1-.07.2-.18.2l-.6.04s0,0-.01,0Z"/>
              <path class="cls-13" d="M81.91,48.07c-.23,0-.46-.04-.68-.12-.1-.04-.15-.15-.11-.25.04-.1.15-.15.25-.11.23.09.48.12.73.09.1,0,.2.06.21.17.01.1-.06.2-.17.21-.08,0-.15.01-.23.01Z"/>
              <path class="cls-13" d="M71.74,46.32s0,0,0,0l-1.17-.04c-.11,0-.19-.09-.18-.2,0-.1.09-.19.19-.19,0,0,0,0,0,0l1.17.03c.11,0,.19.09.19.2,0,.1-.09.19-.19.19Z"/>
              <path class="cls-13" d="M76.17,44.38s0,0-.01,0l-1.1-.07c-.1,0-.19-.1-.18-.2,0-.1.09-.18.2-.18l1.1.07c.11,0,.19.1.18.2,0,.1-.09.18-.19.18Z"/>
              <path class="cls-13" d="M80.77,44.52c-.1,0-.19-.08-.19-.18,0-.1.07-.2.18-.2l.74-.04c.11,0,.2.08.2.18s-.07.2-.18.2l-.74.04s0,0-.01,0Z"/>
              <path class="cls-13" d="M86.58,44.24c-.1,0-.18-.08-.19-.18,0-.1.07-.2.18-.2l.53-.03c.11,0,.2.07.2.18,0,.1-.07.2-.18.2l-.53.03s0,0-.01,0Z"/>
              <path class="cls-13" d="M73.16,41.12c-.13,0-.27,0-.4-.01-.1,0-.19-.09-.18-.2,0-.1.09-.18.19-.18,0,0,0,0,.01,0,.34.02.67.01,1-.02.11,0,.2.07.21.17,0,.1-.07.2-.17.21-.22.02-.43.03-.65.03Z"/>
              <path class="cls-13" d="M79.07,40.27h-1.24c-.11,0-.19-.09-.19-.19s.09-.19.19-.19h1.24c.11,0,.19.09.19.19s-.09.19-.19.19Z"/>
              <path class="cls-13" d="M75.23,37.01c-.07,0-.14,0-.21,0-.11,0-.19-.1-.18-.2,0-.11.1-.18.2-.18.27.02.54,0,.79-.06.11-.02.21.04.23.14.02.1-.04.21-.14.23-.23.05-.46.08-.7.08Z"/>
              <path class="cls-13" d="M84.07,41.62c-.27,0-.53-.01-.8-.04-.1-.01-.18-.1-.17-.21s.09-.18.21-.17c.35.04.71.05,1.07.03,0,0,0,0,0,0,.1,0,.19.08.19.18,0,.1-.08.19-.18.2-.11,0-.22,0-.33,0Z"/>
              <path class="cls-13" d="M92.68,40.97h-1.24c-.11,0-.19-.09-.19-.19s.09-.19.19-.19h1.24c.11,0,.19.09.19.19s-.09.19-.19.19Z"/>
              <path class="cls-13" d="M88.6,39.24h-1.45c-.11,0-.19-.09-.19-.19s.09-.19.19-.19h1.45c.11,0,.19.09.19.19s-.09.19-.19.19Z"/>
              <path class="cls-13" d="M82.05,36.05s-.01,0-.02,0l-.74-.07c-.1-.01-.18-.1-.17-.21.01-.1.1-.17.21-.17l.74.07c.1.01.18.1.17.21,0,.1-.09.17-.19.17Z"/>
              <path class="cls-13" d="M77.41,32.72c-.1,0-.18-.07-.19-.17-.01-.1.07-.2.17-.21.37-.04.75-.05,1.12-.04.11,0,.19.09.19.2,0,.1-.09.19-.19.19h0c-.36-.01-.72,0-1.08.03,0,0-.01,0-.02,0Z"/>
              <path class="cls-13" d="M86.41,33.18h-1.1c-.11,0-.19-.09-.19-.19s.09-.19.19-.19h1.1c.11,0,.19.09.19.19s-.09.19-.19.19Z"/>
              <path class="cls-13" d="M90.59,36.57c-.08,0-.15-.05-.18-.13-.03-.1.02-.21.12-.24.38-.13.8-.2,1.21-.18.11,0,.19.09.18.2,0,.1-.08.21-.2.18-.36-.02-.73.04-1.06.16-.02,0-.04.01-.06.01Z"/>
              <path class="cls-13" d="M97.59,38.62c-.1,0-.21-.01-.31-.03s-.17-.12-.15-.23c.02-.1.11-.17.23-.15.19.04.39.03.58-.03.1-.03.21.02.24.12.03.1-.02.21-.12.24-.15.05-.3.07-.46.07Z"/>
              <path class="cls-13" d="M95.12,34.25s0,0-.01,0l-1.24-.08c-.1,0-.18-.1-.18-.2,0-.1.07-.18.2-.18l1.24.08c.1,0,.18.1.18.2,0,.1-.09.18-.19.18Z"/>
              <path class="cls-13" d="M82.45,29.93c-.18,0-.37,0-.55-.01-.1,0-.19-.09-.18-.2,0-.1.09-.18.19-.18,0,0,0,0,0,0,.49.02.98.01,1.47-.02,0,0,0,0,.01,0,.1,0,.18.08.19.18,0,.11-.07.2-.18.2-.32.02-.64.03-.96.03Z"/>
              <path class="cls-13" d="M89.95,28.29h-1.17c-.11,0-.19-.09-.19-.19s.09-.19.19-.19h1.17c.11,0,.19.09.19.19s-.09.19-.19.19Z"/>
              <path class="cls-13" d="M93.39,30.63c-.1,0-.18-.07-.19-.17,0-.1.07-.2.17-.21l.71-.06c.11,0,.2.07.21.17,0,.1-.07.2-.17.21l-.71.06s-.01,0-.02,0Z"/>
              <path class="cls-13" d="M85.95,26.21s0,0-.01,0c-.4-.03-.79-.12-1.16-.28-.1-.04-.14-.15-.1-.25.04-.1.15-.14.25-.1.33.14.68.22,1.03.25.1,0,.18.1.18.2,0,.1-.09.18-.19.18Z"/>
              <path class="cls-13" d="M91.44,22.8c-.1,0-.19-.08-.19-.19,0-.11.08-.19.18-.2l1.13-.03s0,0,0,0c.1,0,.19.08.19.19,0,.11-.08.19-.18.2l-1.13.03s0,0,0,0Z"/>
              <path class="cls-13" d="M97.32,26.7h-1.31c-.11,0-.19-.09-.19-.19s.09-.19.19-.19h1.31c.11,0,.19.09.19.19s-.09.19-.19.19Z"/>
              <path class="cls-13" d="M99.71,20.36c-.33,0-.66-.01-.99-.04-.1,0-.18-.1-.17-.21,0-.1.1-.17.21-.17.44.04.88.05,1.32.03.1-.03.19.08.2.18,0,.11-.08.19-.18.2-.13,0-.25,0-.38,0Z"/>
              <path class="cls-13" d="M103.48,23.79h-.74c-.11,0-.19-.09-.19-.19s.09-.19.19-.19h.74c.11,0,.19.09.19.19s-.09.19-.19.19Z"/>
              <path class="cls-13" d="M101.04,29.64h-1.1c-.11,0-.19-.09-.19-.19s.09-.19.19-.19h1.1c.11,0,.19.09.19.19s-.09.19-.19.19Z"/>
              <path class="cls-13" d="M101.63,33.7c-.27,0-.54-.02-.8-.07-.1-.02-.17-.12-.15-.22.02-.1.12-.17.22-.15.43.08.86.09,1.29.03.11-.02.2.06.22.16.01.1-.06.2-.16.22-.2.03-.4.04-.61.04Z"/>
              <path class="cls-13" d="M104.3,38.36s0,0-.01,0l-.78-.04c-.11,0-.19-.1-.18-.2,0-.1.08-.19.2-.18l.78.04c.11,0,.19.1.18.2,0,.1-.09.18-.19.18Z"/>
              <path class="cls-13" d="M107.45,31.59c-.18,0-.35-.01-.53-.04-.1-.02-.17-.12-.16-.22.02-.1.11-.18.22-.16.21.03.42.04.63.03,0,0,0,0,.01,0,.1,0,.18.08.19.18,0,.1-.07.2-.18.2-.06,0-.13,0-.19,0Z"/>
              <path class="cls-13" d="M108.41,27.12h-.74c-.11,0-.19-.09-.19-.19s.09-.19.19-.19h.74c.11,0,.19.09.19.19s-.09.19-.19.19Z"/>
              <path class="cls-13" d="M106.99,21.56h-.96c-.11,0-.19-.09-.19-.19s.09-.19.19-.19h.96c.11,0,.19.09.19.19s-.09.19-.19.19Z"/>
              <path class="cls-13" d="M112.91,23.94s-.01,0-.01,0l-.57-.04c-.11,0-.18-.1-.18-.2,0-.1.1-.19.2-.18l.57.04c.1,0,.18.1.18.21,0,.1-.09.18-.19.18Z"/>
              <path class="cls-13" d="M117.93,27.2c-.35,0-.71-.04-1.06-.11-.1-.02-.17-.12-.15-.23.02-.1.12-.17.23-.15.41.09.84.12,1.26.09.11-.02.2.07.2.18,0,.11-.07.2-.18.2-.1,0-.21,0-.31,0Z"/>
              <path class="cls-13" d="M112.77,29.95c-.1,0-.19-.08-.19-.19,0-.1.08-.19.19-.19.23,0,.46-.02.67-.07.11-.02.2.05.22.15.02.1-.05.2-.15.22-.24.05-.49.07-.74.07h0Z"/>
              <path class="cls-13" d="M121.87,30.73h-1.1c-.11,0-.19-.09-.19-.19s.09-.19.19-.19h1.1c.11,0,.19.09.19.19s-.09.19-.19.19Z"/>
              <path class="cls-13" d="M117.91,34.31h-1.31c-.11,0-.19-.09-.19-.19s.09-.19.19-.19h1.31c.11,0,.19.09.19.19s-.09.19-.19.19Z"/>
              <path class="cls-13" d="M110.25,35.45h0c-.42,0-.85-.03-1.29-.06-.11,0-.19-.1-.18-.2,0-.11.11-.18.2-.18.43.03.86.05,1.27.06.11,0,.19.09.19.19,0,.1-.09.19-.19.19Z"/>
              <path class="cls-13" d="M125.99,36.71s-.01,0-.02,0l-.99-.09c-.1-.01-.18-.1-.17-.21.01-.1.09-.17.21-.17l.99.09c.1.01.18.1.17.21,0,.1-.09.17-.19.17Z"/>
              <path class="cls-13" d="M114.01,39.06h-1.84c-.11,0-.19-.09-.19-.19s.09-.19.19-.19h1.84c.11,0,.19.09.19.19s-.09.19-.19.19Z"/>
              <path class="cls-13" d="M119.78,39.13c-.11,0-.19-.09-.19-.19s.09-.19.19-.19c.47,0,.95-.04,1.43-.11.1-.01.2.06.22.16.02.1-.06.2-.16.22-.49.07-.99.11-1.48.11Z"/>
              <path class="cls-13" d="M128.85,41.44c-.11,0-.22-.08-.22-.19,0-.1.09-.19.19-.19,0,0,.02,0,.03,0,.13,0,.26-.01.39-.04.1-.02.21.04.23.15.02.1-.04.2-.15.23-.15.03-.31.05-.47.05Z"/>
              <path class="cls-13" d="M117.09,43.2s-.01,0-.02,0c-.35-.04-.71-.05-1.07-.03,0,0,0,0,0,0-.1,0-.19-.08-.19-.18,0-.11.08-.19.18-.2.38-.02.75,0,1.13.03.1.01.18.1.17.21-.01.1-.09.17-.19.17Z"/>
              <path class="cls-13" d="M124.18,42.72c-.11,0-.22,0-.33-.01-.1,0-.18-.1-.18-.2,0-.1.09-.18.19-.18,0,0,0,0,.01,0,.28.02.57.01.85-.02.11-.02.2.06.21.17.01.1-.06.2-.17.21-.2.02-.39.03-.59.03Z"/>
              <path class="cls-13" d="M121.03,47.11c-.09,0-.17-.06-.19-.15-.02-.1.04-.21.14-.23.39-.09.79-.13,1.18-.12.1,0,.19.09.18.2,0,.1-.09.19-.19.19-.03,0-.09,0-.13,0-.32,0-.64.04-.95.11-.02,0-.03,0-.04,0Z"/>
              <path class="cls-13" d="M129.99,46.93h-.85c-.11,0-.19-.09-.19-.19s.09-.19.19-.19h.85c.11,0,.19.09.19.19s-.09.19-.19.19Z"/>
              <path class="cls-13" d="M126.11,50.83c-.08,0-.16,0-.24,0-.1,0-.19-.1-.18-.2s.1-.18.2-.18c.35.02.7,0,1.04-.1.11-.03.21.04.23.14.03.1-.04.21-.14.23-.3.08-.61.11-.92.11Z"/>
              <path class="cls-13" d="M134.27,51.64h-.64c-.11,0-.19-.09-.19-.19s.09-.19.19-.19h.64c.11,0,.19.09.19.19s-.09.19-.19.19Z"/>
              <path class="cls-13" d="M129.35,55.5c-.1,0-.19-.08-.19-.19,0-.11.08-.19.19-.2.43-.01.86-.06,1.28-.16.1-.03.21.04.23.14.02.1-.04.21-.14.23-.44.1-.9.16-1.35.17h0Z"/>
              <path class="cls-13" d="M125.98,61.07c-.1,0-.19-.08-.19-.19,0-.1.08-.19.19-.2l1.63-.04h0c.1,0,.19.08.19.19,0,.1-.08.19-.19.2l-1.63.04h0Z"/>
              <path class="cls-13" d="M136.44,60.71h-.67c-.11,0-.19-.09-.19-.19s.09-.19.19-.19h.67c.11,0,.19.09.19.19s-.09.19-.19.19Z"/>
              <path class="cls-13" d="M131.98,66.24s-.08,0-.12,0c-.11,0-.19-.09-.18-.2,0-.1.09-.19.19-.19.04,0,.08,0,.11,0,.22,0,.44-.02.66-.07.1-.02.21.04.23.15.02.1-.04.2-.15.23-.24.05-.49.08-.74.08Z"/>
              <path class="cls-13" d="M137.89,66.82c-.1,0-.21,0-.31-.02-.1-.01-.18-.11-.17-.21.01-.11.11-.18.21-.17.27.03.55.01.82-.05.1-.03.21.03.23.14.03.1-.03.21-.14.23-.21.05-.43.08-.65.08Z"/>
              <path class="cls-13" d="M126.23,69.83c-.1,0-.18-.08-.19-.18,0-.1.07-.2.18-.2l1.84-.12c.11,0,.2.07.2.18,0,.1-.07.2-.18.2l-1.84.12s0,0-.01,0Z"/>
              <path class="cls-13" d="M134.13,73.15h-1.1c-.11,0-.19-.09-.19-.19s.09-.19.19-.19h1.1c.11,0,.19.09.19.19s-.09.19-.19.19Z"/>
              <path class="cls-13" d="M138.81,76.55h-.76c-.11,0-.19-.09-.19-.19s.09-.19.19-.19h.76c.11,0,.19.09.19.19s-.09.19-.19.19Z"/>
              <path class="cls-13" d="M127.46,76.77c-.37,0-.74-.01-1.1-.04-.1,0-.18-.1-.18-.2,0-.1.1-.18.2-.18.53.04,1.07.05,1.61.03.11-.01.2.08.2.18,0,.11-.08.19-.18.2-.18,0-.37.01-.55.01Z"/>
              <path class="cls-13" d="M130.77,80.73h-1.35c-.11,0-.19-.09-.19-.19s.09-.19.19-.19h1.35c.11,0,.19.09.19.19s-.09.19-.19.19Z"/>
              <path class="cls-13" d="M135.3,82.66c-.09,0-.17-.06-.19-.16-.02-.1.05-.2.15-.22.44-.08.9-.13,1.35-.13.11,0,.23.08.23.19,0,.11-.09.19-.19.19h0c-.42,0-.88.04-1.31.12-.01,0-.02,0-.04,0Z"/>
              <path class="cls-13" d="M127.35,84.53c-.22,0-.44,0-.66-.01-.11,0-.19-.09-.19-.2,0-.1.09-.19.19-.19,0,0,0,0,0,0,.63.02,1.27,0,1.9-.03.09,0,.2.07.2.18,0,.1-.07.2-.18.2-.42.02-.84.04-1.27.04Z"/>
            </g>
          </g>
        </g>
        <g>
          <rect class="cls-3" x="37.45" y="13.8" width="10.16" height="81.32"/>
          <rect class="cls-3" x="246.37" y="13.8" width="10.16" height="81.32"/>
        </g>
        <path class="cls-1" d="M57.17,67.32h-3.24s0,1.51,0,1.51c-9.04,5.68-8,5.21-8,12.51,0,6.75,6.72,12.87,6.72,12.87v2.31s4.52,0,4.52,0h4.52s0-2.31,0-2.31c0,0,6.72-6.12,6.72-12.87,0-7.3,1.04-6.83-8-12.51v-1.51s-3.24,0-3.24,0Z"/>
        <path class="cls-1" d="M133.22,74.51h-3.57s0,1.66,0,1.66c-9.95,6.25-8.8,5.73-8.8,13.77,0,7.43,7.39,14.16,7.39,14.16v2.55s4.97,0,4.97,0h4.97s0-2.55,0-2.55c0,0,7.4-6.73,7.4-14.16,0-8.03,1.15-7.52-8.8-13.77v-1.66s-3.57,0-3.57,0Z"/>
        <path class="cls-3" d="M268.58,32.49H25.4c-1.94,0-3.09-2.17-2-3.77L42.53.58h208.93l19.12,28.13c1.09,1.6-.06,3.77-2,3.77Z"/>
        <g>
          <path class="cls-9" d="M52.8,27.71h-21.48c-.44,0-.81-.36-.81-.81s.36-.81.81-.81h21.48c.44,0,.81.36.81.81s-.36.81-.81.81Z"/>
          <path class="cls-9" d="M106.04,27.71h-36c-.44,0-.81-.36-.81-.81s.36-.81.81-.81h36c.44,0,.81.36.81.81s-.36.81-.81.81Z"/>
          <path class="cls-9" d="M163.42,27.71h-42.3c-.44,0-.81-.36-.81-.81s.36-.81.81-.81h42.3c.44,0,.81.36.81.81s-.36.81-.81.81Z"/>
          <path class="cls-9" d="M193.7,27.71h-21.48c-.44,0-.81-.36-.81-.81s.36-.81.81-.81h21.48c.44,0,.81.36.81.81s-.36.81-.81.81Z"/>
          <path class="cls-9" d="M244.79,27.71h-35.59c-.44,0-.81-.36-.81-.81s.36-.81.81-.81h35.59c.44,0,.81.36.81.81s-.36.81-.81.81Z"/>
        </g>
        <g>
          <path class="cls-9" d="M59.83,20.68h-10.74c-.44,0-.81-.36-.81-.81s.36-.81.81-.81h10.74c.44,0,.81.36.81.81s-.36.81-.81.81Z"/>
          <path class="cls-9" d="M95.06,20.68h-18c-.44,0-.81-.36-.81-.81s.36-.81.81-.81h18c.44,0,.81.36.81.81s-.36.81-.81.81Z"/>
          <path class="cls-9" d="M146.67,20.68h-27.39c-.44,0-.81-.36-.81-.81s.36-.81.81-.81h27.39c.44,0,.81.36.81.81s-.36.81-.81.81Z"/>
          <path class="cls-9" d="M225.32,20.68h-46.08c-.44,0-.81-.36-.81-.81s.36-.81.81-.81h46.08c.44,0,.81.36.81.81s-.36.81-.81.81Z"/>
          <path class="cls-9" d="M259.67,20.68h-26.38c-.44,0-.81-.36-.81-.81s.36-.81.81-.81h26.38c.44,0,.81.36.81.81s-.36.81-.81.81Z"/>
        </g>
        <g>
          <path class="cls-1" d="M237.5,87.23c.89-5.82,4.56-7.2,4.56-16.29s-4.68-10.99-4.68-10.99h-11.91s-4.68,1.9-4.68,10.99,3.67,10.47,4.56,16.29-3.29,8.45-3.29,8.45h18.74s-4.18-2.63-3.29-8.45Z"/>
          <rect class="cls-1" x="225.04" y="57.56" width="12.77" height="2.39"/>
        </g>
        <g>
          <path class="cls-9" d="M57.29,13.66h-11.92c-.44,0-.81-.36-.81-.81s.36-.81.81-.81h11.92c.44,0,.81.36.81.81s-.36.81-.81.81Z"/>
          <path class="cls-9" d="M120.08,13.66h-52.15c-.44,0-.81-.36-.81-.81s.36-.81.81-.81h52.15c.44,0,.81.36.81.81s-.36.81-.81.81Z"/>
          <path class="cls-9" d="M177.47,13.66h-33.64c-.44,0-.81-.36-.81-.81s.36-.81.81-.81h33.64c.44,0,.81.36.81.81s-.36.81-.81.81Z"/>
          <path class="cls-9" d="M214.44,13.66h-21.67c-.44,0-.81-.36-.81-.81s.36-.81.81-.81h21.67c.44,0,.81.36.81.81s-.36.81-.81.81Z"/>
          <path class="cls-9" d="M233.29,13.66h-10.04c-.44,0-.81-.36-.81-.81s.36-.81.81-.81h10.04c.44,0,.81.36.81.81s-.36.81-.81.81Z"/>
        </g>
        <g>
          <path class="cls-9" d="M73.88,6.63h-21.48c-.44,0-.81-.36-.81-.81s.36-.81.81-.81h21.48c.44,0,.81.36.81.81s-.36.81-.81.81Z"/>
          <path class="cls-9" d="M127.11,6.63h-43.27c-.44,0-.81-.36-.81-.81s.36-.81.81-.81h43.27c.44,0,.81.36.81.81s-.36.81-.81.81Z"/>
          <path class="cls-9" d="M162.86,6.63h-26.76c-.44,0-.81-.36-.81-.81s.36-.81.81-.81h26.76c.44,0,.81.36.81.81s-.36.81-.81.81Z"/>
          <path class="cls-9" d="M214.77,6.63h-41.34c-.44,0-.81-.36-.81-.81s.36-.81.81-.81h41.34c.44,0,.81.36.81.81s-.36.81-.81.81Z"/>
          <path class="cls-9" d="M241.04,6.63h-15.72c-.44,0-.81-.36-.81-.81s.36-.81.81-.81h15.72c.44,0,.81.36.81.81s-.36.81-.81.81Z"/>
        </g>
        <g>
          <rect class="cls-1" x="212.32" y="101.91" width="10.46" height="5.34"/>
          <path class="cls-1" d="M217.55,103.87c12.9,0,14.14-15.02,14.14-15.02h-14.14s-14.53,0-14.53,0c0,0,1.63,15.02,14.53,15.02Z"/>
        </g>
        <g>
          <path class="cls-1" d="M81.68,100.91c.89-5.82,4.56-7.2,4.56-16.29s-4.68-10.99-4.68-10.99h-11.91s-4.68,1.9-4.68,10.99,3.67,10.47,4.56,16.29c.89,5.82-3.29,8.45-3.29,8.45h18.74s-4.18-2.63-3.29-8.45Z"/>
          <rect class="cls-1" x="69.22" y="71.25" width="12.77" height="2.39"/>
        </g>
      </g>
    </g>
  </g>
</svg>