<?xml version="1.0" encoding="UTF-8"?>
<svg id="_레이어_2" width="110.21" height="210.87" data-name="레이어_2" xmlns="http://www.w3.org/2000/svg" xmlns:xlink="http://www.w3.org/1999/xlink" viewBox="0 0 110.21 210.87">
  <defs>
    <style>
      .cls-1 {
        fill: #ffd2be;
      }

      .cls-2 {
        fill: #ffcfbd;
      }

      .cls-3 {
        fill: #ffe3bd;
      }

      .cls-3, .cls-4, .cls-5, .cls-6, .cls-7, .cls-8, .cls-9 {
        stroke: #000;
        stroke-linecap: round;
        stroke-linejoin: round;
        stroke-width: 1.47px;
      }

      .cls-4 {
        fill: #afafaf;
      }

      .cls-5 {
        fill: none;
      }

      .cls-10 {
        fill: #ffd8c0;
      }

      .cls-11 {
        fill: #fff;
      }

      .cls-12 {
        fill: #ffccbc;
      }

      .cls-6 {
        fill: #a88e6c;
      }

      .cls-13 {
        fill: #ffd6bf;
      }

      .cls-14 {
        fill: #ffcbbc;
      }

      .cls-15 {
        fill: #ffd7bf;
      }

      .cls-16 {
        fill: #ffcabc;
      }

      .cls-7, .cls-17 {
        fill: #ffd9c0;
      }

      .cls-18 {
        fill: #ffd3be;
      }

      .cls-19 {
        fill: #ffd5bf;
      }

      .cls-20 {
        clip-path: url(#clippath-1);
      }

      .cls-21 {
        fill: #ffcebd;
      }

      .cls-22 {
        fill: #ffd1be;
      }

      .cls-23 {
        fill: #ffc8bb;
      }

      .cls-24, .cls-9 {
        fill: #9e7630;
      }

      .cls-25 {
        fill: #ffd4bf;
      }

      .cls-8 {
        fill: #825f36;
      }

      .cls-26 {
        fill: #ffcdbc;
      }

      .cls-27 {
        fill: #ffd0bd;
      }

      .cls-28 {
        fill: #ffc9bb;
      }

      .cls-29 {
        clip-path: url(#clippath);
      }
    </style>
    <clipPath id="clippath">
      <path class="cls-9" d="M38.77,198.69c-1.92-.47-3.77-1.57-4.69-3.31-.33-.61-.5-1.31-.53-2.01-1.23,1.38-2.18,2.8-2.17,4.71.01,2.4.66,4.93,4.94,6.02,4.26,1.09,7.62-.83,9.33-2.72,1.51-1.66,2.21-3.37,2.58-5.12-.75.68-1.59,1.27-2.5,1.7-2.14,1.03-4.64,1.29-6.95.72Z"/>
    </clipPath>
    <clipPath id="clippath-1">
      <path class="cls-9" d="M72.93,200.01c1.92-.47,3.77-1.57,4.69-3.31.33-.61.5-1.31.53-2.01,1.23,1.38,2.18,2.8,2.17,4.71-.01,2.4-.66,4.93-4.94,6.02-4.26,1.09-7.62-.83-9.33-2.72-1.51-1.66-2.21-3.37-2.58-5.12.75.68,1.59,1.27,2.5,1.7,2.14,1.03,4.64,1.29,6.95.72Z"/>
    </clipPath>
  </defs>
  <g id="Layer_6">
    <g>
      <g>
        <path class="cls-11" d="M72.95,208.67c-3.41,0-6.79-1.49-9.06-4-1.7-1.87-2.74-3.93-3.28-6.48-.32-1.51-.42-2.96-.51-4.37-.07-1-.14-2.03-.29-2.99-.18-1.16-.29-3.02-.32-5.66-1.64-1.32-2.8-3-3.64-4.73-.84,1.74-2.01,3.42-3.67,4.75-.05,1.95-.15,3.37-.29,4.33-.15.96-.22,1.99-.29,2.99-.09,1.42-.19,2.87-.51,4.37-.54,2.55-1.58,4.61-3.28,6.48-2.27,2.5-5.66,4-9.06,4-1.05,0-2.12-.14-3.17-.41-4.72-1.2-7.12-4.18-7.15-8.85-.02-2.98,1.47-5.05,2.92-6.68.37-.42.77-.83,1.17-1.25.37-.38.74-.77,1.1-1.17.94-1.05,1.62-2.45,1.99-4.09-.22-.2-.42-.41-.61-.62-3.45-3.82-3.14-9.35-2.97-12.31.02-.31.03-.58.04-.81l.61-18.16c-.7-.2-1.37-.4-2.04-.61-1.49-.46-2.35-2.01-1.98-3.52.24-.94.5-1.93.79-2.93-.03,0-.05,0-.07,0-.77-.08-1.58-.21-2.44-.37-.03.36-.06.72-.11,1.07-.25,1.78-.95,3.36-1.56,4.75-.45,1.02-.85,1.91-1.04,2.75-.04.18-.06.36-.09.55-.07.49-.15,1.09-.36,1.73-.62,1.87-2.17,3.18-3.95,3.32-.12,0-.23.01-.33.01-1.54,0-2.97-.88-3.79-2.25-.74.34-1.55.53-2.39.53-.48,0-.95-.06-1.41-.18-1.02-.27-1.96-.84-2.7-1.62-.81-.01-1.6-.23-2.3-.62-1.27-.71-2.12-1.87-2.43-3.26-.47-.47-.94-1.08-1.21-1.83-.34-.94-.46-1.79-.47-2.48-.59-1.07-.74-2.48-.47-4.19.44-2.72,2.54-5.08,4.67-6.46-1.18-.77-1.64-2.32-1.08-3.63l14.32-32.88c.91-2.09,5.41-10.24,11.42-14.73-3.2-2.78-5.77-6.27-7.66-10.45-.16,0-.31.01-.47.01-2.4,0-4.7-.77-6.48-2.17-3.54-2.79-4.91-7.86-3.24-12.05.94-2.36,2.74-4.27,4.94-5.24.51-.22,1.04-.4,1.59-.52.02-1.01.07-2.03.15-3.06-.1-.53-.19-1.07-.26-1.6-.04-.02-.09-.04-.13-.06-.91-.46-1.51-1.32-1.62-2.32-.31-2.9-1.04-12.63,2.84-16.32.63-.59,1.32-1.17,2.07-1.72,2.6-5.86,7.76-10.77,14.24-13.52,1.61-.68,3.31-1.24,5.08-1.66-.62-2.4-.42-4.91.6-7.18.97-2.15,2.56-3.84,4.59-4.89,1.46-.76,3.21-1.18,4.93-1.18,1.09,0,2.12.17,3.06.5,2.92,1.03,4.79,3.47,5.26,6.88.28,2,.14,4.06-.38,6.07,2.59.66,5.04,1.57,7.3,2.73,4.84,2.49,8.94,6.1,11.88,10.47,2.11,1.36,3.71,2.97,4.78,4.8,2.72,4.68,2.38,13.8,2.34,14.82-.04.83-.43,1.6-1.06,2.12-.09,1.47-.29,2.92-.6,4.34,0,.21.02.41.02.62.84.1,1.68.32,2.45.66,2.2.97,4,2.88,4.94,5.24,1.67,4.19.3,9.26-3.24,12.05-1.78,1.4-4.08,2.17-6.48,2.17-.54,0-1.07-.04-1.59-.12-1.21,2.56-2.68,4.88-4.38,6.91-.44.53-.9,1.04-1.38,1.54,7.66,3.25,13.76,13.85,15.06,16.83l14.32,32.88c.58,1.33.09,2.91-1.14,3.67-.03.02-.48.3-1.24.74.15.09.28.18.4.26,2.29,1.5,4.78,4.61,4.85,7.89.04,1.74-.31,3.11-1.04,4.09-.11.68-.34,1.51-.81,2.39-.37.71-.92,1.25-1.45,1.65-.5,1.34-1.5,2.36-2.85,2.89-.56.22-1.16.33-1.77.33h0c-.2,0-.4-.01-.6-.04-.84.67-1.84,1.11-2.9,1.24-.22.03-.44.04-.66.04-1.09,0-2.15-.33-3.05-.91-.86,1.09-2.15,1.75-3.5,1.75-.3,0-.6-.03-.89-.1-1.74-.39-3.1-1.89-3.46-3.83-.12-.67-.12-1.26-.12-1.74,0-.22,0-.39-.01-.57-.07-.87-.34-1.79-.65-2.86-.42-1.47-.9-3.13-.9-4.93v-.02c-.45.08-.89.14-1.32.2l1.03,2.33c.33.74.34,1.58.03,2.33-.31.74-.92,1.33-1.68,1.62-.01,0-.86.32-2.39.77l.61,18.22c0,.24.02.51.04.81.17,2.97.47,8.49-2.97,12.31-.25.28-.53.55-.83.81.28,2.12,1.04,3.92,2.21,5.23.35.4.72.78,1.07,1.15.43.45.82.86,1.2,1.28,1.45,1.63,2.93,3.7,2.92,6.68-.02,4.67-2.43,7.65-7.15,8.85-1.05.27-2.12.41-3.17.41Z"/>
        <path class="cls-11" d="M52.84,4.41c.8,0,1.6.12,2.33.37,2.54.89,3.53,3.1,3.81,5.1.34,2.48-.04,5.01-1.09,7.39,3.24.6,6.36,1.62,9.18,3.07,4.77,2.45,8.64,6.01,11.31,10.13,2.25,1.37,3.63,2.88,4.45,4.3,2.45,4.21,2.06,13.23,2.04,13.61-.01.26-.16.5-.4.62-.1.05-.22.08-.33.08-.1,0-.19-.02-.29-.06,0,1.92-.22,3.85-.66,5.72.03.73.06,1.46.06,2.2,0,.3-.01.6-.02.9.41-.08.83-.13,1.25-.13.85,0,1.7.17,2.5.52,1.67.74,3.05,2.21,3.78,4.04,1.29,3.25.19,7.34-2.56,9.51-1.44,1.13-3.27,1.7-5.11,1.7-.98,0-1.95-.17-2.86-.49-1.24,3.01-2.85,5.73-4.81,8.08-1.3,1.56-2.74,2.94-4.31,4.14.07.02.14.04.22.07,8.48.01,16.25,13.74,17.43,16.45l14.32,32.88c.15.33.02.72-.29.92-.18.11-1.85,1.14-4.4,2.45,1.18.75,2.68,1.71,3.52,2.26,1.88,1.23,3.81,3.72,3.86,6.09.04,1.88-.48,2.72-.95,3.09-.02.52-.14,1.36-.65,2.32-.33.63-.97,1.05-1.4,1.27-.11.65-.48,1.74-1.76,2.24-.31.12-.64.18-.97.18-.44,0-.88-.11-1.25-.31-.6.83-1.52,1.41-2.51,1.53-.13.02-.26.02-.39.02-1.28,0-2.51-.75-3.03-1.89-.52-1.15-.23-2.58.65-3.43-.12-.44-.29-.87-.56-1.16-.18-.2-.46-.31-.68-.31-.1,0-.18.02-.25.07-.25.19-.27.73-.26,1.24l.04,2.42c.01.72.03,1.62-.35,2.43-.36.78-1.17,1.47-2.11,1.47-.14,0-.28-.01-.42-.05-.88-.19-1.57-1.01-1.77-2.08-.09-.46-.08-.9-.08-1.33,0-.26,0-.51-.02-.77-.09-1.08-.4-2.15-.73-3.29-.4-1.39-.81-2.82-.81-4.31,0-1.01.11-1.96.26-2.79-1.48.37-2.98.67-4.46.83-.03,0-.06,0-.08,0-.32,0-.61-.21-.7-.53-1.14-3.9-2.52-8.38-3.91-12.84l-1.29,4.96c-.04.16-.14.29-.26.39l5.94,13.38c.08.18.08.39,0,.58-.08.19-.23.33-.42.4-.06.02-1.44.53-3.87,1.17l.67,19.96c0,.25.02.54.04.86.15,2.65.42,7.57-2.41,10.71-.44.49-.94.9-1.49,1.26,0,.17.02.34.03.5.24,2.91,1.22,5.41,2.84,7.22.38.42.77.83,1.15,1.23.39.4.76.8,1.12,1.2,1.23,1.38,2.37,2.97,2.36,5.2-.01,2.48-.65,5.49-5.49,6.73-.91.23-1.79.34-2.62.34-3.24,0-5.87-1.56-7.43-3.27-1.42-1.57-2.3-3.31-2.76-5.46-.29-1.35-.38-2.73-.47-4.06-.07-1.05-.14-2.13-.31-3.19-.22-1.38-.29-3.92-.3-6.46-4.2-2.69-5.27-8.2-5.84-11.47-.57,3.27-1.64,8.79-5.85,11.48-.03,2.06-.11,3.99-.29,5.13-.17,1.06-.24,2.14-.31,3.18-.09,1.33-.18,2.71-.47,4.06-.46,2.15-1.33,3.89-2.76,5.46-1.56,1.72-4.19,3.27-7.43,3.27-.84,0-1.71-.1-2.62-.34-4.84-1.24-5.48-4.25-5.49-6.73-.01-2.23,1.13-3.82,2.36-5.2.36-.4.73-.8,1.12-1.2.38-.4.77-.81,1.15-1.23,1.47-1.65,2.41-3.88,2.75-6.47-.51-.34-.97-.74-1.37-1.19-2.83-3.14-2.56-8.07-2.41-10.71.02-.32.03-.61.04-.86l.67-19.91c-1.21-.31-2.42-.66-3.65-1.04-.37-.12-.59-.5-.49-.88,1.11-4.44,2.97-9.82,4.29-13.43-.37-.05-.58-.08-.6-.08-.3-.04-.54-.26-.61-.56l-.45-1.86c-1,3.24-2.05,6.65-2.96,9.76-.09.32-.38.53-.71.53-.03,0-.05,0-.08,0-1.64-.18-3.31-.52-4.96-.96.08,1,.1,2.23-.08,3.54-.2,1.47-.81,2.83-1.4,4.15-.48,1.08-.93,2.1-1.17,3.16-.06.25-.09.5-.12.76-.06.43-.12.86-.26,1.31-.34,1.03-1.14,1.75-2.03,1.82-.05,0-.11,0-.16,0-1.06,0-1.88-.87-2.16-1.77-.26-.86-.13-1.75-.01-2.46l.37-2.39c.08-.5.13-1.04-.09-1.26-.07-.08-.19-.11-.33-.11-.2,0-.44.08-.62.22-.31.25-.53.66-.71,1.07.75.96.85,2.42.17,3.49-.59.93-1.69,1.49-2.8,1.49-.28,0-.57-.04-.84-.11-.96-.26-1.79-.96-2.28-1.86-.29.11-.6.16-.91.16-.44,0-.9-.11-1.3-.34-1.2-.67-1.42-1.8-1.43-2.46-.4-.28-.97-.79-1.21-1.45-.37-1.02-.38-1.87-.32-2.39-.42-.43-.82-1.33-.52-3.19.38-2.34,2.63-4.55,4.65-5.51.62-.3,1.58-.74,2.52-1.17-2.01-1.07-3.31-1.86-3.46-1.96-.31-.19-.43-.58-.29-.92l14.32-32.88c1-2.29,6.54-12.17,13.26-15.41-4.49-3.05-7.93-7.46-10.14-13.03-.61.13-1.23.2-1.85.2-1.84,0-3.68-.57-5.11-1.7-2.75-2.17-3.85-6.25-2.56-9.51.73-1.83,2.1-3.3,3.78-4.04.81-.35,1.67-.53,2.52-.53.13,0,.26,0,.39.01,0-.26-.01-.52-.01-.78,0-1.52.07-2.99.18-4.42-.25-1.25-.42-2.52-.48-3.79-.28.15-.44.24-.45.25-.12.07-.25.1-.38.1-.11,0-.22-.03-.33-.08-.22-.11-.38-.33-.4-.58-.13-1.15-1.13-11.35,2.16-14.48.65-.62,1.42-1.25,2.33-1.88,2.25-5.49,7.09-10.28,13.32-12.92,2.29-.97,4.73-1.64,7.23-2.04-1.37-2.51-1.56-5.35-.4-7.92.67-1.49,1.82-2.92,3.59-3.84,1.12-.58,2.53-.93,3.91-.93M52.84,0h0c-2.06,0-4.17.51-5.94,1.42-2.48,1.28-4.41,3.34-5.58,5.94-.93,2.06-1.29,4.28-1.1,6.48-1.18.36-2.33.77-3.44,1.24-6.8,2.88-12.26,7.98-15.15,14.12-.65.5-1.26,1.02-1.82,1.55-4.32,4.11-4.05,13.14-3.51,18.15.15,1.39.85,2.63,1.92,3.48.02.13.04.26.07.39-.03.43-.06.86-.08,1.29-.11.04-.22.09-.33.14-2.73,1.2-4.95,3.55-6.1,6.45-2.02,5.08-.37,11.22,3.93,14.6,1.93,1.52,4.36,2.44,6.91,2.61,1.54,3.09,3.46,5.82,5.73,8.16-5.4,4.89-9.2,11.86-10.12,13.96l-14.32,32.88c-.58,1.35-.54,2.84.01,4.12-1.84,1.68-3.35,3.94-3.76,6.51-.36,2.22-.06,3.88.47,5.09.06.79.22,1.7.58,2.68.28.79.73,1.53,1.31,2.2.55,1.72,1.72,3.16,3.33,4.06.75.42,1.58.7,2.43.82.9.76,1.95,1.32,3.09,1.62.64.17,1.31.26,1.98.26.55,0,1.1-.06,1.63-.17,1.22,1.18,2.84,1.89,4.54,1.89.16,0,.33,0,.5-.02,2.67-.21,4.97-2.1,5.87-4.82.28-.84.38-1.58.45-2.12.02-.14.03-.26.06-.37.14-.6.46-1.34.84-2.19.63.96,1.58,1.71,2.76,2.07.15.05.29.09.44.14l-.55,16.45c0,.22-.02.47-.04.75-.17,3.01-.51,9.18,3.32,13.67-.29.79-.68,1.48-1.17,2.02-.35.39-.7.76-1.05,1.12-.42.44-.83.87-1.23,1.31-1.63,1.83-3.5,4.41-3.48,8.16.04,7.23,4.81,9.96,8.81,10.98,1.23.31,2.48.47,3.71.47,4.08,0,7.98-1.72,10.7-4.72,1.94-2.14,3.19-4.6,3.8-7.51.35-1.66.46-3.26.55-4.68.07-1,.13-1.94.26-2.8.14-.87.23-2.07.29-3.63.55-.51,1.04-1.05,1.49-1.62.44.55.92,1.08,1.46,1.58.05,2.24.16,3.88.33,4.98.14.87.2,1.8.26,2.8.09,1.41.2,3.02.55,4.68.62,2.91,1.86,5.36,3.8,7.51,2.72,3,6.62,4.72,10.69,4.72,1.24,0,2.49-.16,3.72-.47,3.99-1.02,8.77-3.75,8.8-10.98.02-3.75-1.85-6.33-3.48-8.16-.39-.44-.8-.87-1.22-1.31-.35-.36-.7-.73-1.05-1.12-.68-.76-1.18-1.78-1.47-2.99.03-.03.06-.06.08-.09,4.06-4.51,3.71-10.86,3.54-13.91-.02-.29-.03-.54-.04-.76l-.56-16.54c.56-.19.87-.3.9-.31.18-.07.35-.14.52-.23v.03c0,.57,0,1.31.16,2.18.52,2.82,2.54,5.01,5.15,5.58.45.1.91.15,1.37.15,1.41,0,2.77-.47,3.89-1.3.84.3,1.73.46,2.65.46.31,0,.62-.02.93-.06,1.17-.14,2.29-.55,3.28-1.19.87,0,1.71-.17,2.52-.48,1.72-.67,3.07-1.95,3.85-3.57.59-.52,1.16-1.17,1.6-2,.49-.93.78-1.81.94-2.58.69-1.13,1.21-2.73,1.16-4.98-.07-3.12-1.77-6.01-3.83-8.04,1.21-1.46,1.56-3.54.77-5.35l-14.32-32.88c-.06-.15-5.34-11.49-13.56-16.62,1.33-1.66,2.51-3.49,3.55-5.46.09,0,.19,0,.29,0,2.89,0,5.67-.94,7.84-2.65,4.29-3.38,5.94-9.52,3.93-14.6-1.15-2.89-3.37-5.24-6.1-6.44-.3-.13-.6-.25-.91-.35.12-.76.22-1.53.29-2.31.66-.83,1.06-1.86,1.12-2.95.08-1.78.35-10.92-2.63-16.04-1.18-2.02-2.89-3.8-5.11-5.29-3.12-4.51-7.41-8.24-12.45-10.83-1.81-.93-3.73-1.71-5.75-2.34.22-1.6.23-3.22,0-4.8-.58-4.21-3.03-7.36-6.71-8.66-1.17-.41-2.45-.62-3.79-.62h0Z"/>
      </g>
      <g>
        <path class="cls-7" d="M86.47,137.32c.99,1.18.85,2.82.85,2.82,0,0-1.05,2.5-1.05,5.56,0,2.54,1.32,5,1.54,7.53.06.68-.03,1.36.09,2.03s.54,1.35,1.2,1.49c.7.15,1.41-.37,1.71-1.02s.3-1.4.28-2.11c-.01-.81-.03-1.61-.04-2.42-.01-.66.02-1.42.54-1.83.56-.44,1.43-.2,1.92.32s.68,1.24.85,1.94c-.92.57-1.26,1.87-.81,2.85s1.59,1.57,2.66,1.44,2.01-.93,2.39-1.95c.45.68,1.4.89,2.16.59,1.39-.54,1.33-2.05,1.33-2.05,0,0,1.06-.4,1.44-1.13.71-1.35.55-2.42.55-2.42,0,0,1.02-.11.97-2.63-.04-2.06-1.8-4.37-3.52-5.5-1.54-1.01-5.26-3.37-5.26-3.37,0,0-.31-2-.73-3.37-7.25-.09-9.01,3.29-9.07,3.21Z"/>
        <path class="cls-7" d="M94.15,150.76c.43,1,.67,2.08.71,3.17"/>
        <path class="cls-7" d="M98.32,154.58c.64-2.19.37-4.62-.73-6.61"/>
        <path class="cls-7" d="M101.4,154.14c.52-.37.63-1.09.65-1.72.04-1.57-.41-3.81-1.02-5.26"/>
        <path class="cls-7" d="M103.77,150.86s.7-1.67-.64-4.76"/>
      </g>
      <g>
        <path class="cls-7" d="M24.88,137.89c-1.14,1.03-1.23,2.68-1.23,2.68,0,0,.7,2.62.28,5.65-.35,2.51-1.99,4.78-2.56,7.25-.15.66-.16,1.35-.37,2s-.72,1.26-1.4,1.32c-.71.06-1.34-.56-1.55-1.24s-.1-1.42,0-2.13c.12-.8.25-1.6.37-2.39.1-.65.17-1.41-.28-1.88-.49-.51-1.39-.4-1.94.05s-.84,1.14-1.11,1.8c.83.69.99,2.03.42,2.94s-1.79,1.34-2.84,1.06-1.87-1.2-2.1-2.26c-.54.61-1.51.69-2.22.29-1.3-.73-1.04-2.21-1.04-2.21,0,0-.99-.54-1.27-1.31-.52-1.43-.21-2.47-.21-2.47,0,0-1-.25-.6-2.74.33-2.03,2.39-4.08,4.24-4.96,1.66-.79,5.67-2.62,5.67-2.62,0,0,.58-1.93,1.18-3.24,7.2.9,8.47,4.49,8.55,4.42Z"/>
        <path class="cls-7" d="M15.44,150.15c-.56.93-.95,1.97-1.14,3.04"/>
        <path class="cls-7" d="M10.79,153.36c-.33-2.25.27-4.63,1.63-6.45"/>
        <path class="cls-7" d="M7.79,152.5c-.46-.44-.48-1.16-.4-1.8.17-1.57.93-3.72,1.73-5.07"/>
        <path class="cls-7" d="M5.89,148.93s-.46-1.75,1.28-4.63"/>
      </g>
      <g>
        <g>
          <path class="cls-24" d="M38.77,198.69c-1.92-.47-3.77-1.57-4.69-3.31-.33-.61-.5-1.31-.53-2.01-1.23,1.38-2.18,2.8-2.17,4.71.01,2.4.66,4.93,4.94,6.02,4.26,1.09,7.62-.83,9.33-2.72,1.51-1.66,2.21-3.37,2.58-5.12-.75.68-1.59,1.27-2.5,1.7-2.14,1.03-4.64,1.29-6.95.72Z"/>
          <g class="cls-29">
            <line class="cls-9" x1="28.7" y1="201.56" x2="35.94" y2="195.4"/>
            <line class="cls-9" x1="33.14" y1="205.18" x2="38.84" y2="196.03"/>
            <path class="cls-9" d="M39.66,206.45c0-.18,1-8.69,1-8.69"/>
            <path class="cls-9" d="M44.09,196.76c0,.36.63,8.24.63,8.24"/>
          </g>
          <path class="cls-5" d="M38.77,198.69c-1.92-.47-3.77-1.57-4.69-3.31-.33-.61-.5-1.31-.53-2.01-1.23,1.38-2.18,2.8-2.17,4.71.01,2.4.66,4.93,4.94,6.02,4.26,1.09,7.62-.83,9.33-2.72,1.51-1.66,2.21-3.37,2.58-5.12-.75.68-1.59,1.27-2.5,1.7-2.14,1.03-4.64,1.29-6.95.72Z"/>
        </g>
        <path class="cls-7" d="M49.18,175.34l-10.89-.28s.77,5.49.54,8.24c-.23,2.74-1.11,5.51-3.02,7.65-.76.85-1.56,1.63-2.27,2.43.03.7.2,1.4.53,2.01.93,1.74,2.78,2.85,4.69,3.31,2.31.56,4.81.3,6.95-.72.91-.44,1.75-1.02,2.5-1.7.5-2.35.38-4.76.77-7.21.52-3.3.2-13.72.2-13.72Z"/>
      </g>
      <path class="cls-6" d="M102.43,134.9c-4.77-10.96-9.55-21.92-14.32-32.88-1.48-3.4-9.2-16.14-16.89-16.01-1.66-.62-3.44-.92-5.22-.73l-17.11-2.55c-3.2.47-6.17,1.64-8.79,3.29-7.78-.43-15.65,12.57-17.15,16.01-4.77,10.96-9.55,21.92-14.32,32.88,0,0,11.26,7.01,21.16,8.11,1.16-3.95,2.55-8.45,4-13.1,1.02,2.28,1.79,3.77,1.79,3.77l38.37-.85s1.06-2.38,2.36-6.03c1.8,5.73,3.55,11.38,4.97,16.2,9.91-1.1,21.16-8.11,21.16-8.11Z"/>
      <path class="cls-7" d="M24.84,59.18c-1.44-.9-3.34-.95-4.89-.27-1.56.69-2.76,2.06-3.39,3.64-1.18,2.98-.19,6.68,2.33,8.66s6.35,2.08,8.96.24l-3-12.26Z"/>
      <path class="cls-7" d="M81.8,59.18c1.44-.9,3.34-.95,4.89-.27s2.76,2.06,3.39,3.64c1.18,2.98.19,6.68-2.33,8.66-2.52,1.98-6.35,2.08-8.96.24l3-12.26Z"/>
      <polygon class="cls-3" points="48.25 86.01 54.08 99.2 59.91 85.51 48.25 86.01"/>
      <polygon class="cls-8" points="45.71 81.7 39.75 85 52.3 105.92 57.12 100.72 45.71 81.7"/>
      <polygon class="cls-8" points="58.9 86.52 38.59 132.39 44.04 134.7 65.99 85.28 58.9 86.52"/>
      <path class="cls-7" d="M82.52,56.94c0,18.48-10.36,33.46-30.06,33.46s-29.18-14.98-29.18-33.46,9.48-33.46,29.18-33.46,30.06,14.98,30.06,33.46Z"/>
      <path d="M22.56,43.11c-.78,4.57-.29,9.36,1.41,13.67,2.28-5.36,4.98-10.54,8.05-15.48l-9.46,1.81Z"/>
      <path d="M23.81,39.37c-.29-8.32,5.8-16.46,14.69-20.23s20.08-3.16,28.57,1.2,14.12,12.22,15.21,20.5l-58.46-1.47Z"/>
      <path d="M83.5,44.65c.78,4.57.29,9.36-1.41,13.67-2.28-5.36-4.98-10.54-8.05-15.48l9.46,1.81Z"/>
      <path class="cls-4" d="M23.35,34.48c-3.12,2.97-1.94,13.87-1.94,13.87,0,0,11.96-7.19,31.68-7.19s31.03,7.19,31.03,7.19c0,0,.43-9.14-1.94-13.21-2.37-4.07-9.7-8.68-28.77-8.68s-26.94,5.05-30.06,8.02Z"/>
      <g>
        <circle class="cls-17" cx="36.85" cy="70.01" r="8.34"/>
        <circle class="cls-10" cx="36.85" cy="69.98" r="8.06"/>
        <circle class="cls-15" cx="36.84" cy="69.95" r="7.79"/>
        <circle class="cls-13" cx="36.84" cy="69.92" r="7.51"/>
        <circle class="cls-19" cx="36.83" cy="69.89" r="7.24"/>
        <circle class="cls-25" cx="36.82" cy="69.86" r="6.96"/>
        <circle class="cls-18" cx="36.82" cy="69.83" r="6.69"/>
        <circle class="cls-1" cx="36.81" cy="69.8" r="6.41"/>
        <circle class="cls-22" cx="36.8" cy="69.76" r="6.14"/>
        <circle class="cls-22" cx="36.8" cy="69.73" r="5.86"/>
        <circle class="cls-27" cx="36.79" cy="69.7" r="5.59"/>
        <circle class="cls-2" cx="36.79" cy="69.67" r="5.31"/>
        <circle class="cls-21" cx="36.78" cy="69.64" r="5.04"/>
        <circle class="cls-26" cx="36.77" cy="69.61" r="4.76"/>
        <circle class="cls-12" cx="36.77" cy="69.58" r="4.49"/>
        <circle class="cls-14" cx="36.76" cy="69.55" r="4.21"/>
        <circle class="cls-16" cx="36.76" cy="69.52" r="3.93"/>
        <circle class="cls-28" cx="36.75" cy="69.49" r="3.66"/>
        <circle class="cls-23" cx="36.74" cy="69.46" r="3.38"/>
      </g>
      <g>
        <circle class="cls-17" cx="68.77" cy="70.45" r="8.34"/>
        <circle class="cls-10" cx="68.77" cy="70.42" r="8.06"/>
        <circle class="cls-15" cx="68.76" cy="70.39" r="7.79"/>
        <circle class="cls-13" cx="68.76" cy="70.36" r="7.51"/>
        <circle class="cls-19" cx="68.75" cy="70.33" r="7.24"/>
        <circle class="cls-25" cx="68.74" cy="70.3" r="6.96"/>
        <circle class="cls-18" cx="68.74" cy="70.27" r="6.69"/>
        <circle class="cls-1" cx="68.73" cy="70.24" r="6.41"/>
        <circle class="cls-22" cx="68.72" cy="70.21" r="6.14"/>
        <circle class="cls-22" cx="68.72" cy="70.17" r="5.86"/>
        <circle class="cls-27" cx="68.71" cy="70.14" r="5.59"/>
        <circle class="cls-2" cx="68.71" cy="70.11" r="5.31"/>
        <circle class="cls-21" cx="68.7" cy="70.08" r="5.04"/>
        <circle class="cls-26" cx="68.69" cy="70.05" r="4.76"/>
        <circle class="cls-12" cx="68.69" cy="70.02" r="4.49"/>
        <circle class="cls-14" cx="68.68" cy="69.99" r="4.21"/>
        <circle class="cls-16" cx="68.68" cy="69.96" r="3.93"/>
        <circle class="cls-28" cx="68.67" cy="69.93" r="3.66"/>
        <circle class="cls-23" cx="68.66" cy="69.9" r="3.38"/>
      </g>
      <g>
        <g>
          <path class="cls-24" d="M72.93,200.01c1.92-.47,3.77-1.57,4.69-3.31.33-.61.5-1.31.53-2.01,1.23,1.38,2.18,2.8,2.17,4.71-.01,2.4-.66,4.93-4.94,6.02-4.26,1.09-7.62-.83-9.33-2.72-1.51-1.66-2.21-3.37-2.58-5.12.75.68,1.59,1.27,2.5,1.7,2.14,1.03,4.64,1.29,6.95.72Z"/>
          <g class="cls-20">
            <line class="cls-9" x1="83" y1="202.88" x2="75.75" y2="196.72"/>
            <line class="cls-9" x1="78.56" y1="206.5" x2="72.86" y2="197.35"/>
            <path class="cls-9" d="M72.04,207.77c0-.18-1-8.69-1-8.69"/>
            <path class="cls-9" d="M67.6,198.08c0,.36-.63,8.24-.63,8.24"/>
          </g>
          <path class="cls-5" d="M72.93,200.01c1.92-.47,3.77-1.57,4.69-3.31.33-.61.5-1.31.53-2.01,1.23,1.38,2.18,2.8,2.17,4.71-.01,2.4-.66,4.93-4.94,6.02-4.26,1.09-7.62-.83-9.33-2.72-1.51-1.66-2.21-3.37-2.58-5.12.75.68,1.59,1.27,2.5,1.7,2.14,1.03,4.64,1.29,6.95.72Z"/>
        </g>
        <path class="cls-7" d="M62.52,176.66l10.89-.28s-.77,5.49-.54,8.24c.23,2.74,1.11,5.51,3.02,7.65.76.85,1.56,1.63,2.27,2.43-.03.7-.2,1.4-.53,2.01-.93,1.74-2.78,2.85-4.69,3.31-2.31.56-4.81.3-6.95-.72-.91-.44-1.75-1.02-2.5-1.7-.5-2.35-.38-4.76-.77-7.21-.52-3.3-.2-13.72-.2-13.72Z"/>
      </g>
      <path class="cls-6" d="M76.69,171.24c-.29-8.75-.59-17.5-.88-26.25l-19.96.49-19.96-.49c-.29,8.75-.59,17.5-.88,26.25-.11,3.22-1.51,13.14,8.4,13.61,9.91.47,11.1-8.97,11.87-13.27.25-1.4.44-4.63.58-8.36.14,3.73.33,6.97.58,8.36.77,4.31,1.96,13.74,11.87,13.27,9.91-.47,8.5-10.39,8.4-13.61Z"/>
      <path class="cls-5" d="M45.24,76.65c2.02,1.91,4.8,3.01,7.58,3,2.79-.01,5.55-1.14,7.56-3.07"/>
      <path class="cls-6" d="M37.31,132.16s-3.94,9.97-5.8,17.41c26.53,8.28,48.85-.17,48.85-.17l-8.19-18.45-34.86,1.21Z"/>
      <path class="cls-5" d="M31.76,99.65c-2.2,9.98-1.42,20.6,2.21,30.16"/>
      <polygon class="cls-8" points="42.66 134.87 39.25 152.04 46.62 153.14 48.71 135.53 42.66 134.87"/>
      <path class="cls-5" d="M76.02,98.76c2.52,9.86,2.29,20.42-.67,30.16"/>
      <path class="cls-8" d="M33.03,128.59l1.57,6.56s21.63,3.16,40.04,0l1.83-7.05s-17.8,4.37-43.44.49Z"/>
      <path class="cls-5" d="M52.84,159.67s2.2-.11,2.71.86.44,2.16.34,3.26"/>
      <g>
        <path class="cls-5" d="M34.44,59.87c3.04-1.19,6.32-1.54,9.52-1.01"/>
        <path class="cls-5" d="M59.3,59.04c3.16-.82,6.46-.77,9.57.14"/>
        <path class="cls-5" d="M34.46,52.86c3.04-1.02,6.28-1.12,9.36-.31"/>
        <path class="cls-5" d="M59.12,52.39c3.04-1.02,6.28-1.12,9.36-.31"/>
      </g>
      <path d="M42.77,69.69c-2.44,1.05-4.47,2.85-6.44,4.63,2.48.36,5.01.68,7.48.27,1.92-.32,7.74-4.71,7.74-4.71,0,0-7.19-.86-8.77-.19Z"/>
      <path d="M62.62,69.2c-2.64-.3-5.29.26-7.89.83,1.97,1.54,4.01,3.07,6.36,3.94,1.83.68,9.06-.26,9.06-.26,0,0-5.82-4.32-7.52-4.51Z"/>
      <path class="cls-5" d="M51.6,58.3s-3.31,5.35-3.02,7.56c.29,2.21,3.95,2.38,3.95,2.38"/>
      <path d="M47.76,19.75c-3.09-2.99-4.02-7.04-2.43-10.57.67-1.49,1.82-2.92,3.59-3.84s4.26-1.25,6.24-.56c2.54.89,3.53,3.1,3.81,5.1.46,3.37-.4,6.83-2.47,9.88l-8.74-.02Z"/>
    </g>
  </g>
</svg>