<svg xmlns="http://www.w3.org/2000/svg" width="546.284" height="67.408" viewBox="0 0 546.284 67.408">
  <g id="그룹_3416" data-name="그룹 3416" transform="translate(-199.944 -2022.246)">
    <path id="패스_7855" data-name="패스 7855" d="M134.327,5.557c27.4-.089,54.863,1.136,82.208-.7,16.225-1.176,32.251.353,48.36.7,7.957,4.1,15.894,7.2,23.9.3h2.231a6.571,6.571,0,0,1,1.169,3.581c-.71,5.24-2.342,11.048-4.918,14.016-3.664,4.234-.412,8.034-1.42,11.7a4.48,4.48,0,0,1-1.913,2.795c-4.029-1.136-7.723-5.459-12.2-2.142a4.918,4.918,0,0,1-3.86-2.226c-3.647-2.137-1.93-11.875-8.254-10.127-1.582-1.922-3.779-1.006-5.973.872-5.215,4.368-8.518,2.137-9.491-5.893-.213-1.877-.842-4.238-2.245-3.8-2.062.568-.23.787.264,1.046a3.2,3.2,0,0,1,1.551,1.749c-6.222,14.409-17.032,14.494-27.578,15.5a30.757,30.757,0,0,0-6.669-.219c-.413-.13-.842-.349-1.254-.479a7.037,7.037,0,0,1-1.254-2.794,6.733,6.733,0,0,1,.412-3.058c-1.386-.219-2.278,1.748-3.664,1.529-1.8-.219-3.945-.523-4.11-3.317-.213-3.89,2.957-3.058,4.458-4.672,2.938-1.27,5.645-3.452,9.836-5.021-4.752.568-7.344,4.189-10.546,5.454-12.445-8.382-26.243-5.324-39.348-8.119-3.694-.129-7.375-.044-11.056,0h-3.235c-2.214,0-4.374-.044-6.554-.129a12.521,12.521,0,0,1-3.367-.219c-2.491-1.091-6.057-.568-5.479-6.331" transform="translate(92.52 2017.828)" fill="#cbff77"/>
    <path id="패스_7856" data-name="패스 7856" d="M406.34,63.057c-11.06.349-22.15,1.006-33.223,1.046-7.94,0-15.863-.827-23.8-1.22-2.18-.13-4.374.089-5.925-2.491,1.93-3.97,4.62-5.02,7.936-3.751,2.41,2.616,4.046,1.4,5.861-2.36-2,1.354-2.741,3.755-4.556,3.666-1.585-3.751-8.4-3.318-4.952-11.481.825-1.963-2.194-2.531-3.962-2.312-.493,0-.956.085-1.433.085a3.533,3.533,0,0,1-2.2-2.226c2.164-10.171,3.894-20.477,11.949-25.891,5.347,2.356,5.6,14.235,14.129,12.009,3.053-.877,1.024,5.892.561,9.21.494,1.573,1.437,1.614,2.559,1.354a6.415,6.415,0,0,1,2.41-.219c1.436.479,2.211,1.789,2.589,3.581-.493,5.106,3.83,7.552,3.218,10.695-.973-3.143-2.738-7.815-3.928-12.836,1.981-9.559,5.73-13.229,12.247-5.982,5.925,6.55,12.445-1.659,18.435,1.574,2.809,1.4,3.782,3.755,2.461,7.511a10.081,10.081,0,0,1-2.045,2.266,18.151,18.151,0,0,0-2.955,3.233c-.5.961-1.007,1.878-1.5,2.794a14.359,14.359,0,0,1-2.737,4.1c-1.174,1.225-2.725.742-3.915,1.529,3.022.872,6.142-.523,9.177.568,1.964,1,4.161,1.659,3.6,5.544" transform="translate(92.52 2017.828)" fill="#c4ff73"/>
    <path id="패스_7857" data-name="패스 7857" d="M245.3,17.128c.034,4.015,1.916,6.112,4.6,6.809a3.042,3.042,0,0,0,2.758-1.4c1.071-1.619,1.037-2.664-.859-4.1-3.613-2.794-.578-6.2.974-7.426,1.93-1.484,4.884.308,4.7,3.407-.281,4.149,1.781,5.9,3.069,8.472-.115.568-.2,1.046-.281,1.569a22.792,22.792,0,0,0-.395,6.55c1.433,7.118-1.751,13.144-2.643,19.689-.328,1.445-2.113,1.923-1.42,4.02a5.219,5.219,0,0,0,3.519,1.878c2.525.348,5.726-1.225,6.733,3.795a10.083,10.083,0,0,1-.629,3.671c-1.335,1.918-2.738,3.577-4.952,2.267-.726-.13-1.467-.175-2.16-.349a6.513,6.513,0,0,1-1.3.089c-1.8.219-3.4,1.44-5.216,1.44-2.342-.219-4.752.568-7.014-1-1.8-2.754-1.683-6.116-1.933-9.518-.412-5.723-10.975-15.152-12.706-11.615-7.528,15.281-14.92,4.368-22.414,1.22-3.038-.782-6.3-1.22-7.081-6.415a12.1,12.1,0,0,1,1.453-5.719,16.323,16.323,0,0,1,2.16-2.883c.43-.349.893-.653,1.322-.961a2.239,2.239,0,0,1,2.724.876c3.333,3.751,4.587-.876,6.487-2.794,1.73-.09,4.124,4.667,4.952.084.855-4.672,1.3-6.9,3.958-2.1,2.792,5.155,5.861,3.232,8.088.348,3.367-4.318,7.775-6.156,11.338-9.907.7-1.006,1.436-1.006,2.163,0" transform="translate(92.52 2017.828)" fill="#c3ff74"/>
    <path id="패스_7858" data-name="패스 7858" d="M591.555,63.535c-8.748,3.322-17.431-1.788-26.176-.478-.5-5.763,3.63-5.459,5.807-7.86,5.713-3.143,5.76-9.344,4.242-16.81.927,8.691-1.747,13.537-7.821,14.539-5.05-2.312-13.156-1.4-8.535-13.972,2.065-5.021,1.9-11.391,5.432-15.5,3.268-1.095,6.023-4.323,9.555-4.193,3.269,4.059,7.444,4.193,11.588,4.627a2.209,2.209,0,0,1,.973.568c7.375,12.706,7.375,12.706,12.757,0a3.9,3.9,0,0,1,2.89.219c3.958,2.794,5.526,8.687,8.845,12.268a11.091,11.091,0,0,1,3.58,6.071,9.363,9.363,0,0,1-.858,5.589c-2.177,3.1-3.959-2.58-6.088-.568,1.2,2.227,3.1,3.711,3.86,6.46,1.518,3.582-4.506,3.363-2.062,7.377-5.712,5.195-12.229-3.84-17.989,1.659" transform="translate(92.52 2017.828)" fill="#caff76"/>
    <path id="패스_7859" data-name="패스 7859" d="M147.449,68.994c-9.045,0-18.108.174-27.119-.13C108.415,68.6,105.2,63.057,108.844,47.95c2.525-10.346,7.115-19.516,12.23-28.073a8.941,8.941,0,0,1,1.487.13c5.05,2.665,3.695,6.988,1.254,10.828-3.286,5.285-4.59,11.222-4.739,17.857-.757,8.6,2,10.564,7.446,6.679,2.968-2.092,4.587-5.982,6.139-9.777,1.764-4.02,3.779-7.686,7.477-8.866,5.215-.349,3.549,5.459,4.62,8.866a8.573,8.573,0,0,0,1.765,2.356c4.887,2.445,12.411.438,11.735,12.227-1.2,8.03-4.82,11.043-10.809,8.817" transform="translate(92.52 2017.828)" fill="#bfff70"/>
    <path id="패스_7860" data-name="패스 7860" d="M208.318,43.059c2.113.174,4.124.089,6.057,2.186,7.163,8.034,8.748,7.507,12.757-2.839a33.342,33.342,0,0,1,2.312-4.149c4.11,7.556,10.759,6.331,15.843,8.473V65.981c-5.875-1-1.914-7.377-3.448-10.565-.068-2.137-1.768,1.44-.5.524,3.154,11.485-2.772,11.266-8.4,11.351-1.1,1.484-.909-6.241-2.673-.653-1.42,1.221-3.367.434-4.574,2.312-5.793-.085-11.6-.175-17.411-.215-5.891-4.981-10.231-11-7.957-21.353,1.139-6.241,6.686,1.529,7.991-4.323" transform="translate(92.52 2017.828)" fill="#bdff6e"/>
    <path id="패스_7861" data-name="패스 7861" d="M349.811,5.687c16.7.089,33.406.089,50.09.174,2.576,10.131-.693,18.3-4.867,26.195-1.734.657-3.12-.259-4.408-1.7-3.8-4.98-1.781-9.782.693-14.713-5.577,10.823-11.3-.22-16.65.916-.927.215-1.849.434-2.776.653-1.848.568-3.647,1.355-5.512,1.793a4.607,4.607,0,0,1-4.077-1.529c-2.21.393,1.058-9.912-4.124-3.582a9.732,9.732,0,0,1-4.441.653,57.451,57.451,0,0,0-16.157-1.131c-6.784-2.271-13.764.608-20.565-1.18-.892,0-1.781-.13-2.69-.219-1.272.174-2.543.438-3.847.742a6.348,6.348,0,0,1-2.556-.174c-1.27-.349-2.528-.787-3.813-1.136a9.938,9.938,0,0,1-3.829-1.44c-.348-.348-.676-.787-1.024-1.135a2.923,2.923,0,0,1,.463-3.1c16.7,0,33.389-.089,50.09-.089" transform="translate(92.52 2017.828)" fill="#d2ff80"/>
    <path id="패스_7862" data-name="패스 7862" d="M351.974,57.423c-2.839,1.006-5.729,1.967-8.582,2.969-8.748,1.484-17.726-1.221-26.375,2.445-3.036-1.529-6.321-2.53-6.007-8.338.281-4.8,2.376-6.679,5.611-7.118,1.947-.3,3.333-1.658,4.391-3.755,2.359-4.364,4.884-5.5,7.609-.608a2.961,2.961,0,0,1,.131,2.052c.545-.264.741-.916.578-1.922.856-3.666,2.16-6.68,5.263-7.337a3.963,3.963,0,0,1,2.444,1.136,8.708,8.708,0,0,1,.446,4.672,2.483,2.483,0,0,0,.724,2.4c-.048-1.175.3-1.833,1.139-2.181.794-.13,1.355.219,1.717,1.18.727,0,1.47.04,2.2.04.71-2.226,1.815-4.931,3.414-4.712,3.235.568,1.849,5.937,3.863,8.119-4.373,4.8,1.6,7.162,1.437,10.958" transform="translate(92.52 2017.828)" fill="#bdff6d"/>
    <path id="패스_7863" data-name="패스 7863" d="M280.112,66.07c-1.453.085-2.856.085-4.293.13-4.225,2.968-8.315,5.11-11.056-2.665l.331-.563c2.674-4.1,7.409-3.671,10.232-8.169-9.475,9.827-9.458-.956-11.026-8.338a10.167,10.167,0,0,1,.165-3.885c1.866-3.013,3.549-6.42,7.065-6.067,4.306-.044,8.582,1.874,12.956.742v.085c4.8-6.549,6.784-3.187,6.24,3.8-.331,4.014-1.339,8.034-.812,12.223a60.291,60.291,0,0,1-.578,11.481c-2.738,4.806-6.087,1.484-9.224,1.225" transform="translate(92.52 2017.828)" fill="#bfff71"/>
    <path id="패스_7864" data-name="패스 7864" d="M554.353,63.4c-6.47,1.44-12.939,2.007-19.345-.13-2.129,2.008-3.86,1.266-5.381-1.18,2.393-8.383-6.733-11.919-4.833-20.083a8.179,8.179,0,0,1,2.721-1.748,14.168,14.168,0,0,1,5.81-1.136A5.225,5.225,0,0,1,535.7,41.18c.927,1.1.545,4.284.991,3.89,1.19-1.27,1.619-3.671,2.444-5.5a9.881,9.881,0,0,1,1.849-2.879,3.134,3.134,0,0,1,2.7-.353c2.839,1.793,5.661,3.452,8.981,2.052a5.831,5.831,0,0,1,2.822.528c3.745,15.236,1.616,19.122-10.712,19.3,3.367,1.225,8.485-3.143,9.573,5.195" transform="translate(92.52 2017.828)" fill="#caff76"/>
    <path id="패스_7865" data-name="패스 7865" d="M554.353,63.4c-3.647-6.46-9.789-.434-15.549-6.241,5.547,1,8.106-5.549,13.2-1.444,2.18,1.7,2.18-3.666,2.559-6.2.6-3.671,3.63-8.472-2.342-9.344-4.127,5.459-6.521,1.833-8.7-2.839a4.032,4.032,0,0,1-.909-3.1,15.072,15.072,0,0,1,2.61-6.027,3.508,3.508,0,0,1,2.542-.523,19.3,19.3,0,0,1,2.342,1.659c1.633,1.22,3.417.478,5.165.263a4.636,4.636,0,0,1,3.846,1.659c-3.846,4.627,4.077,4.887,1.849,8.906-.709,3.317-4.62,8.338,2.441,7.726,1.3-.175,2.724,2.4,4.08,3.8a9.779,9.779,0,0,1,4.34,5.718c-1.241,3.756-5.152,2.012-6.453,5.633-3.651.832-7.281,3.233-11.026.349" transform="translate(92.52 2017.828)" fill="#c7ff72"/>
    <path id="패스_7866" data-name="패스 7866" d="M471.533,63.276a4.13,4.13,0,0,1-1.93.13,6.043,6.043,0,0,1-1.139-3.363c.378-3.446,2.44-4.975,4.357-6.634.311-14.8.544-15.281,11.337-11.571,3.911,1.44,6.24.3,7.707-4.582.976-3.148,2.511-7.033,5.333-5.549,3.367,1.878,3.959,6.769,3.316,11.222-.659,4.543-3.434,8.6-1.751,13.712a19.423,19.423,0,0,0,.068,2.008,3.515,3.515,0,0,1-1.913,2.879c-4.012,1.006-8.3-1.265-12.216,1.529a4.081,4.081,0,0,1-2.062.13c-3.7-2.137-7.4,4.323-11.107.089" transform="translate(92.52 2017.828)" fill="#c5ff73"/>
    <path id="패스_7867" data-name="패스 7867" d="M323.669,45.942c-1.139,3.143-2.789,5.369-5.7,5.544-1.632.045-3.745-2.227-4.718.787a7.24,7.24,0,0,0,1.45,7.6,32.832,32.832,0,0,1,2.312,2.968c-4.293.134-8.582.264-12.875.349a11.955,11.955,0,0,1-2.555-1.788c-6.653-2.884-14.576-4.1-13.224-17.6,3.154-4.189,7.018-4.537,11.111-3.447,2.1.045,2.8,4.06,5.263,3.058.71-.612,1.453-1.135,2.18-1.7,6.487-4.806,11.9-2.142,16.752,4.234" transform="translate(92.52 2017.828)" fill="#bfff71"/>
    <path id="패스_7868" data-name="패스 7868" d="M195.247,65.547c-6.686,1.31-13.007,5.414-20.186,2.226-3.286-1.444-6.355,4.628-10.266,3.014a2.111,2.111,0,0,1-.6-1.7,2.055,2.055,0,0,1,.213-1.006c-1.186,2.1-2.062.787-2.954-.438-1.467-4.1-1.6-8.557-2.011-12.92a8.07,8.07,0,0,1,.875-3.666,3.95,3.95,0,0,1,4.29-.747,9.1,9.1,0,0,1,3.7,5.852,8.057,8.057,0,0,1-.71,4.891c.71-.523,1.318-1.31,2.062-1.792,2.707-.609,5.313-.434,7.625,1.792,1.058,0-.3,3.054,1.586,2.052.3-.263.625-.567.923-.786.348-.13.692-.264,1.057-.439h1.089a6.509,6.509,0,0,0,3.035.09,9.355,9.355,0,0,0,1.849-1.31,9.947,9.947,0,0,1,1.934-1.4,9.409,9.409,0,0,1,1.1-.215,4.811,4.811,0,0,1,2.278.7,11.368,11.368,0,0,1,2.887,2.8,3.973,3.973,0,0,1,.216,3.013" transform="translate(92.52 2017.828)" fill="#bfff70"/>
    <path id="패스_7869" data-name="패스 7869" d="M469.518,60.392c.017.917.051,2.012.051,2.928-7.1,6.546-15.052,2.62-21.589.215-8.2-3.009-16.14-2.879-24.263-3.009-.213-6.027,3.485-5.678,6.24-6.769a43.86,43.86,0,0,1,13.912.742c6.521,2.491,13.322,2.7,20.021,3.537a11.913,11.913,0,0,1,3.069.174,5.185,5.185,0,0,1,2.559,2.182" transform="translate(92.52 2017.828)" fill="#ddff75"/>
    <path id="패스_7870" data-name="패스 7870" d="M232.33,65.981c1.7-.478,3.451-1.35,5.182-1.35,2.113-.134,3.37-.877,3.4-3.975.017-2.49-.165-4.453-2.805-4.582-1.9-.135-3.448-2.142-1.7-4.762,1.535-2.271,3.286-.349,4.756.961,3.827,3.233.1,10.48,4.124,13.708,2.907,0,5.844.089,8.748.089,1.271-1.573,2.609-1.529,3.995-.3l.3.215c-2.015,3.756-5,3.188-7.859,3.188-8.251,0-16.519-.175-24.773-.219a4.272,4.272,0,0,1,4.326-2.88c.758-1.225,1.518-1.135,2.309-.089" transform="translate(92.52 2017.828)" fill="#c7ff73"/>
    <path id="패스_7871" data-name="패스 7871" d="M484.7,63.057c3.847-4.976,8.748-1.748,13.088-2.969a22.194,22.194,0,0,1,2.494-2.141,18.867,18.867,0,0,1,7.393-.957c.974-.045,1.964-.045,2.937,0,1.471-.045,2.873,0,4.344.085,1.467-.085,2.887,0,4.34,0,.99-.085,1.964-.085,2.937-.085s1.964.085,2.937.174a6.382,6.382,0,0,1,5.267,3.228c1.037,2.316,2.771,2.71,4.57,2.884-.923.787-1.964,2.271-2.725,2.137-15.744-4.144-31.719-1-47.582-2.356" transform="translate(92.52 2017.828)" fill="#ddff75"/>
    <path id="패스_7872" data-name="패스 7872" d="M288.792,5.861c-8,10.609-13.879,10.565-23.9-.3q11.982.195,23.9.3" transform="translate(92.52 2017.828)" fill="#d0ff7c"/>
    <path id="패스_7873" data-name="패스 7873" d="M402.047,43.059h2.2c2.275,2.754,4.175-1.878,6.4-.653a6.86,6.86,0,0,1,1.386,3.188c.2,5.15,2.691,10.694-1.4,15.147a14.8,14.8,0,0,1-2.1,2.535c-.743-.089-1.466-.174-2.193-.219-.957-2.316-2.593-2.665-4.327-2.749-1.93-2.142-2.44-5.111-2.738-8.164a3.991,3.991,0,0,1,.6-3.322h-.034c1.336-1.525.957-4.189,2.211-5.763" transform="translate(92.52 2017.828)" fill="#c7ff78"/>
    <path id="패스_7874" data-name="패스 7874" d="M164.876,69.083c-.034.568-.047,1.136-.081,1.7-5.844.215-11.834,3.1-17.347-1.792,4.935-1.136,9.194-3.143,8.6-11.571a1.7,1.7,0,0,1,1.883-1.136l1,.309.6-1.18c0-.045.892-.828.892-.828,4.127,3.273.2,10.914,4.272,14.187Z" transform="translate(92.52 2017.828)" fill="#bfff71"/>
    <path id="패스_7875" data-name="패스 7875" d="M591.555,63.535c4.076-5.893,8.366-9.165,13.7-2.137,1.19,1.574,2.61.7,3.583-1.091a1.639,1.639,0,0,1,2.559-.264,3.543,3.543,0,0,1-.281,3.452c-6.52,4.453-13.04,3.053-19.557.04" transform="translate(92.52 2017.828)" fill="#ccff78"/>
    <path id="패스_7876" data-name="패스 7876" d="M195.247,65.547c-.034-.787-.051-1.574-.1-2.361.067-.478.148-1.09.216-1.658.3-1.046.642-2.093,1.007-3.143.132-.568.295-1.091.43-1.659.625-2.879.561-5.982,1.483-8.821.825-1.659,1.8-2.879,3.482-1.963-2.011,9.693,4.34,15.237,6.52,22.793-4.671,1.35-8.8-1.31-13.037-3.188" transform="translate(92.52 2017.828)" fill="#bfff71"/>
    <path id="패스_7877" data-name="패스 7877" d="M628.443,65.851c-5.152-.568-10.647,2.226-15.481-2.137.28-.613.493-1.1.71-1.619a7.655,7.655,0,0,1,5.215-1.7c2.721.134,1.8-2.969,2.342-4.757,6.075-5.459,8.681-2.794,8.634,6.241a11.787,11.787,0,0,1-1.42,3.975" transform="translate(92.52 2017.828)" fill="#d1ff78"/>
    <path id="패스_7878" data-name="패스 7878" d="M121.073,19.877c1.535-6.331,2.376-13.359,8.846-14.41,3.319,4.628-1.981,7.118-1.552,11-1.4,3.885-3.366,6.112-6.767,3.885Z" transform="translate(92.52 2017.828)" fill="#bfff70"/>
    <path id="패스_7879" data-name="패스 7879" d="M408.534,63.276c.034-1.006.051-1.967.085-2.969,2.9-1.877,4.668-6.026,8.085-6.9a8.011,8.011,0,0,1,5.134,3.232,3.089,3.089,0,0,1-.182,3.318c-4.425.7-8.238,5.807-13.122,3.317" transform="translate(92.52 2017.828)" fill="#c4ff73"/>
    <path id="패스_7880" data-name="패스 7880" d="M127.776,14.244c-1.437-3.8,3.235-5.021,2.143-8.776,1.47,0,2.941,0,4.407.089,1.488,3.537,4.094,2.794,6.487,2.969a3.333,3.333,0,0,1-.3,3.93c-4.077,2.66-8.153,5.673-12.74,1.788" transform="translate(92.52 2017.828)" fill="#b7ff6a"/>
    <path id="패스_7881" data-name="패스 7881" d="M302.13,65.766c-2.461-3.5-5.993-1.793-8.93-3.013a2.894,2.894,0,0,1,.808-3.8c3.566-2.227,6.851-1.355,10,1.31.051,1.006.1,2.007.132,2.924-.676.876-1.318,1.792-2.011,2.579" transform="translate(92.52 2017.828)" fill="#bdff6d"/>
    <path id="패스_7882" data-name="패스 7882" d="M471.533,63.276c3.711,1.659,7.375-5.11,11.107-.089-3.7,2.226-7.4,4.806-11.107.089" transform="translate(92.52 2017.828)" fill="#ddff75"/>
    <path id="패스_7883" data-name="패스 7883" d="M421.655,59.958c0-.876-.034-1.748-.034-2.535,2.806-7.377,5.679-7.247,8.65-.219-2.427.219-5.067-.215-6.554,3.322a2.291,2.291,0,0,1-2.062-.568" transform="translate(92.52 2017.828)" fill="#c0ff71"/>
    <path id="패스_7884" data-name="패스 7884" d="M299.72,5.776v2.75a5.458,5.458,0,0,1-2.691,2.271,5.078,5.078,0,0,1-6.006-2.271V5.861c2.887,0,5.79-.085,8.7-.085" transform="translate(92.52 2017.828)" fill="#d0ff7c"/>
    <path id="패스_7885" data-name="패스 7885" d="M634.49,65.3H425.555c-2.449,0-4.435-2.626-4.435-5.866V11.854c0-3.239,1.986-5.866,4.435-5.866H649.273c2.449,0,4.435,2.627,4.435,5.866l-14.783,47.58c0,3.24-1.986,5.866-4.435,5.866" transform="translate(92.52 2017.828)" fill="#d2ff80"/>
    <path id="패스_7886" data-name="패스 7886" d="M611.112,63.495c-.051-1.006-.051-2.1-.1-3.188,1.784-.657,2.541.3,2.231,2.75l-.281.657c-.646-.089-1.254-.179-1.849-.219" transform="translate(92.52 2017.828)" fill="#ccff70"/>
    <path id="패스_7887" data-name="패스 7887" d="M628.443,65.851V63.186c.757-1,1.467-.916,2.177,0V65.94c-.71,0-1.467-.089-2.177-.089" transform="translate(92.52 2017.828)" fill="#ccff70"/>
    <path id="패스_7888" data-name="패스 7888" d="M203.961,34.372c-.727,1.006-1.453,1.963-2.2,2.969-.328-.219-.642-.438-1.007-.653-1.271-.787-2.194.349-3.151,1.046a2.305,2.305,0,0,1-2.2-.045,11.252,11.252,0,0,1-1.483-1.439c-.247,1.439.148,2.879-.4,4.149a15.162,15.162,0,0,1-1.785,2.311c-1.747,2.1-1.632,5.37-2.8,7.815-6.9,6.858-13.548,3.885-14.657-6.679-.148-1.485-.2-3.492,1.075-4.672-1.768.742-.926,4.542-3.17,4.627-4.8-2.794-12.03,2.361-14.64-7.77a19.127,19.127,0,0,1,1.684-8.821,4.259,4.259,0,0,0,.48-5.5c-1.683-6.6-.349-11.178,5-13.14,8.123,0,15.927,3.751,24.394,2.092,5.25-1.091,10.861,3.452,14.839,9.344-.842,1.529-2.609,3.362-2.345,4.234.76,2.665,2.94,1.136,4.505,1.529q1.116-1.636,2.18,0V28.7a14.537,14.537,0,0,1-2.18,2.8c-.693,1-1.45,1.962-2.143,2.879" transform="translate(92.52 2017.828)" fill="#bfff71"/>
    <path id="패스_7889" data-name="패스 7889" d="M158.258,34.461c1.734,5.105,4.935,6.545,8.765,5.325,2.525-.872,4.127-.742,4.276,3.272a7.244,7.244,0,0,1-2.394,2.406c-2.214,3.576-9.16-4.1-8.484,6.241v2.883c-.808.828-.858,2.616-2.163,2.835h-2.211c-.3-2.835-.645-5.369-3.7-4.8a8.455,8.455,0,0,1-9.357-3.8c-1.768-1.439-1.98-3.447-1.092-5.763.893-2.266.71-4.318-1.037-5.718-.183-.523-.348-1.006-.514-1.529a5.088,5.088,0,0,1,1.254-2.53c1.768-.568.859-2.271.842-3.666a14.35,14.35,0,0,1,1.98-4.064c.413-.783.842-1.614,1.19-2.4a1.934,1.934,0,0,0-1.024-2.138,11.035,11.035,0,0,1-2.393-3.317,11.808,11.808,0,0,1-.757-3.058,10.743,10.743,0,0,1,.429-3.272,5.256,5.256,0,0,1,1.136-2.8h6.5c.974,1.176,2.245,1.744,3.3,2.75,1.551,2.1,3.383,3.885,3.978,6.943,0,3.1-1.832,5.455-1.849,8.513a16.9,16.9,0,0,0,.842,2.7c.676,1.225,1.386,2.361,2.028,3.582.132.438.28.871.446,1.4" transform="translate(92.52 2017.828)" fill="#b7ff6a"/>
    <path id="패스_7890" data-name="패스 7890" d="M291.023,8.526h6.517c3.566,3.8-.71,8.164.446,12.138a15.147,15.147,0,0,1-.544,2.356,7.387,7.387,0,0,1,1.4-1.658,3.769,3.769,0,0,1,3.728,1.18c3.2,4.279,1.436,9.952,2.278,14.928-.03,2.71-.842,4.717-2.954,5.589-4.357.876-9.241-2.356-13.037,2.883a9.029,9.029,0,0,1-.034,8.647c-3.069-4.5-2.724-8.866-.493-13.886,1.666-3.8,1.284-4.19-3.847-3.362a47.315,47.315,0,0,0-.412-5.674c-.413-2.62-10.844-6.9.807-7.073.463-6.375,3.7-11,6.142-16.068" transform="translate(92.52 2017.828)" fill="#c3ff71"/>
    <path id="패스_7891" data-name="패스 7891" d="M264.895,43.059c0,.961,0,1.967.034,2.884-.233.523-.413.916-.629,1.439a37.342,37.342,0,0,0-2.261,3.93c-.808,3.318-1.484,6.724-3.664,9-2.853-.045-4.29-2.008-4.374-5.719.2-1.748,1.47-1.967,2.2-2.883-1.007-7.99,2.525-15.192,2.177-23.1-1.552-3.362,1.092-4.015,2.18-5.718,6.52-3.536,5.594,6.156,8.68,8.6-.774,4.318-3.579,7.247-4.34,11.566" transform="translate(92.52 2017.828)" fill="#c3ff71"/>
    <path id="패스_7892" data-name="패스 7892" d="M284.486,37.255a20.979,20.979,0,0,1-.166,4.234c-.791,3.317-1.666,1.529-2.606,0-2.18-3.233-4.194-5.678-6.124.568-.481,1.529-1.221,1.175-4.145-4.717a1.869,1.869,0,0,1-.659-1.963c.217-.657.43-.916.659-.916,5.351-5.33,6.784-4.981,13.041,2.794" transform="translate(92.52 2017.828)" fill="#c3ff71"/>
    <path id="패스_7893" data-name="패스 7893" d="M156.047,17.128c-2.822-.089-4.259-2.012-4.34-5.763a1.876,1.876,0,0,1-.544-1.837c.2-.653.378-.957.574-.957H164.71c-4.918,2.968-2.606,9.693-4.289,14.32-.463.219-.892.349-1.356.568-2.822-.658-.659-5.33-3.018-6.331" transform="translate(92.52 2017.828)" fill="#b7ff6a"/>
    <path id="패스_7894" data-name="패스 7894" d="M202.69,21.581c9.556-11.919,9.556-11.919,15.843-3.143-5.463-.219-10.083.13-15.843,3.143" transform="translate(92.52 2017.828)" fill="#c0ff71"/>
    <path id="패스_7895" data-name="패스 7895" d="M271.445,34.461V37.34c-2.292,1.7-3.15,6.157-6.551,5.718-1.764-3.272-7.706-7.68,1.3-8.029,1.055,0,2.028-2.316,3.036-3.537.743,1,1.47,1.963,2.21,2.969" transform="translate(92.52 2017.828)" fill="#c3ff74"/>
    <path id="패스_7896" data-name="패스 7896" d="M245.3,17.128h-2.163c-2.441-.134-5.081.568-6.882-2.49,7.808-5.325,7.808-5.325,9.045,2.49" transform="translate(92.52 2017.828)" fill="#c0ff75"/>
    <path id="패스_7897" data-name="패스 7897" d="M214.8,28.7a31.138,31.138,0,0,1-1.058,5.41c-.757,1.922-1.2,5.24-3.417,4.5-2.836-.872-1.684-4.5-2.011-7.113,2.078-1.136,4.042-3.013,6.486-2.794" transform="translate(92.52 2017.828)" fill="#bdff6e"/>
    <path id="패스_7898" data-name="패스 7898" d="M208.284,25.77H206.1c.629-1.529,1.3-2.88,2.856-1.963-.213.653-.429,1.31-.676,1.963" transform="translate(92.52 2017.828)" fill="#bdff6e"/>
    <path id="패스_7899" data-name="패스 7899" d="M143.007,8.571c0,.957-.014,1.873-.014,2.879-.709.917-1.453.872-2.146-.085,0-1.006-.034-1.837-.034-2.839.727,0,1.471.045,2.194.045" transform="translate(92.52 2017.828)" fill="#bfff71"/>
    <path id="패스_7900" data-name="패스 7900" d="M151.738,8.571c-.03.957-.03,1.873-.03,2.794-.727-.921-1.471-1.837-2.2-2.794Z" transform="translate(92.52 2017.828)" fill="#bfff71"/>
    <path id="패스_7901" data-name="패스 7901" d="M206.1,31.493c.744-.922,1.47-1.878,2.18-2.794.034.916.034,1.872.034,2.794Z" transform="translate(92.52 2017.828)" fill="#bdff6e"/>
    <path id="패스_7902" data-name="패스 7902" d="M428.223,5.861c1.254,2.49,3.451,4.5,5.249,3.885,5.892-2.226,7.278,2.839,8.417,8.383,3.748-.653,4.969-5.589,8.072-6.764.939,1.439,2.278,1.439,3.549,1.658a2.779,2.779,0,0,1,1.467,2.446c-.477,2.749.051,5.673-.94,8.338-1.5,2.311-1.173,5.544-2.129,8.208-2.492,2.924-5.016,5.718-8.383,6.81a5.226,5.226,0,0,1-2.758-1.136c-3.5-5.848-9.573-8.119-11.422-16.591-1.169-5.325-4.786-4.887-7.74-1-2.971,3.228-5.99.259-9.373.04,3.5,4.413,6.486,2.665,9.474-.129,7.524,3.666,2.954,8.557.379,12.357-2.329,3.447-6.139,5.021-7.839,9.559-.314.568-.629,1.006-.926,1.574a1.66,1.66,0,0,1-2.559-.439c-2.194-1.046-4.34,9-6.517,0,2.194-1.918,2.194-3.885-.034-5.8a7.38,7.38,0,0,1-1.487-3.232c-2.555-9.255-4.4-18.554-.71-28.117,8.748,0,17.462,0,26.21-.045" transform="translate(92.52 2017.828)" fill="#cfff7a"/>
    <path id="패스_7903" data-name="패스 7903" d="M402.013,5.906c-.872,9.738,2.708,18.862,2.2,28.555-4.242,3.711-8.828,1.266-13.253,1.046-1.437,0-2.36-2.141-1.3-4.014.956-1.664,2.444-1.136,3.7,0,3.447-7.95,4.242-17.159,6.55-25.632l1.06-.174Z" transform="translate(92.52 2017.828)" fill="#c8ff72"/>
    <path id="패스_7904" data-name="패스 7904" d="M367.222,17.128c.926-2.316,2.542-2.794,4.343-2.884,1.765,4.105,5.182,4.846,7.937,6.9a4.85,4.85,0,0,1,1.355,3.317,42.766,42.766,0,0,1-11.472,15.72c-1.436,1.614-2.9,1.743-4.34,0,.3-2.227-4.8-2.8-1.041-5.893,1.207-.921,2.937-1.489,1.917-3.845-.795-1.833-2.427-1.529-3.813-1.091-2.312.872-4.208,3.581-7.2,2.575-2.181-4.363,2.193-11.351-2.938-14.8a5.093,5.093,0,0,1,2.211-2.012,5.53,5.53,0,0,1,2.657-.085,7.9,7.9,0,0,1,2.328,1.31c1,.872,1.782,2.137,3.019,2.531a13.69,13.69,0,0,1,2.278.263c1.369.349,1.964-1.006,2.755-2.007" transform="translate(92.52 2017.828)" fill="#c8ff73"/>
    <path id="패스_7905" data-name="패스 7905" d="M354.151,17.128h-2.177c-2.657,4.189-5.067,7.815-5.513,14.231-.165,2.664-5.182,6.156-5.4,11.66-.709.04-1.436.04-2.146.04-1.765-1.221-.957-4.145-2.177-5.718.331-8.079,3.184-16.2-.463-24.1.132-.652.3-1.265.463-1.873,5.811-3.845,11.6-.7,17.411,0a4.831,4.831,0,0,1,0,5.763" transform="translate(92.52 2017.828)" fill="#d0ff7c"/>
    <path id="패스_7906" data-name="패스 7906" d="M369.385,40.179C373,34.461,376.649,28.7,380.279,22.89c4.57-1.18,7.261,3.8,10.878,5.718.723,1.006,1.45,1.963,2.193,2.884-.892.563-3.417,1.744-1.5,2.441,3.894,1.31,8.234.438,12.362.528v2.794c-4.391,4.015-10.516-1.31-14.724,4.757-.774,1.136-2.525-.832-3.614-2.1-5.989-7.2-5.989-7.2-12.131.264Z" transform="translate(92.52 2017.828)" fill="#c8ff79"/>
    <path id="패스_7907" data-name="패스 7907" d="M399.837,51.616c2.589,2.1,2.129,5.548,2.177,8.691-4.949.872-9.424-2.007-14.538-2.794,2.559-5.459,8.068-.523,10.215-5.808.709-.961,1.419-1.006,2.146-.089" transform="translate(92.52 2017.828)" fill="#b8ff6b"/>
    <path id="패스_7908" data-name="패스 7908" d="M355.273,48.3c2.444,2.445,7.791,1.967,5.81,7.9-1.041,3.054-4.884,5.674-7.426,2.969-2.988-3.232,2.011-6.635,1.616-10.873" transform="translate(92.52 2017.828)" fill="#bdff6d"/>
    <path id="패스_7909" data-name="패스 7909" d="M373.793,39.831C378,45.505,377.126,53.713,382.72,56.2c-7.277-1.006-10.232-6.679-8.927-16.372" transform="translate(92.52 2017.828)" fill="#c8ff79"/>
    <path id="패스_7910" data-name="패스 7910" d="M365.045,40.179h4.34c-.76,1.878-1.322,4.408-3.417,3.536-.544-.219-.626-2.316-.923-3.536" transform="translate(92.52 2017.828)" fill="#c8ff79"/>
    <path id="패스_7911" data-name="패스 7911" d="M402.047,43.059c-.064,2.405-.446,4.542-2.211,5.763.065-2.356.447-4.538,2.211-5.763" transform="translate(92.52 2017.828)" fill="#cfff7a"/>
    <path id="패스_7912" data-name="패스 7912" d="M399.837,51.616a17.181,17.181,0,0,1-2.146.089c.743-.961,1.453-1.962,2.18-2.884-.034.922-.034,1.923-.034,2.8" transform="translate(92.52 2017.828)" fill="#cfff7a"/>
    <path id="패스_7913" data-name="패스 7913" d="M193.05,40.179c-.625-2.491-1.93-5.065-1.764-7.511.263-4.06,2.112-3.84,3.961-1.176a2.026,2.026,0,0,0-.561,1.963c.179.653.379,1.006.561,1.006.741.916,1.433,1.873,2.177,2.879,1.437,1.265,2.9-1.833,4.34,0,.2,5.808,3.367,5.718,6.554,5.718.477,2.754,3.069,4.194,2.772,7.556-4.489,3.232-5.446-5.982-9.326-4.672-.727.916-1.437,1.878-2.177,2.879-2.227,3.322-.99,7.82-2.163,11.486q-1.065,1.442-2.13,2.749l-.148.13a4.248,4.248,0,0,1-4.273-2.879c-1.683-2.924-.48-6.814-1.818-9.823-.115-.568-.213-1.1-.328-1.663.808-2.794-3.63-7.989,2.146-8.642q1.11,1.5,2.177,0" transform="translate(92.52 2017.828)" fill="#b3ff6c"/>
    <path id="패스_7914" data-name="패스 7914" d="M258.374,60.307c.71-3.8,1.47-7.686,2.18-11.486,1.386-1.131,3.418-.563,4.374-2.879,6.236.13,1.981,7.118,2.988,9.867,5.446,2.052,5.131-8.732,10.1-6.111-1.883,9.384-1.883,9.384-12.922,13.274-.859-7.118-4.492-1.7-6.72-2.665" transform="translate(92.52 2017.828)" fill="#b3ff6b"/>
    <path id="패스_7915" data-name="패스 7915" d="M260.555,22.89c-.744,1.918-1.47,3.885-2.18,5.719-3.316-4.583-.578-5.151,2.18-5.719" transform="translate(92.52 2017.828)" fill="#cbff77"/>
    <path id="패스_7916" data-name="패스 7916" d="M256.2,51.705c-.727.916-1.47,1.922-2.2,2.883-1.8-4.412,1.338-2.186,2.2-2.883" transform="translate(92.52 2017.828)" fill="#b3ff6b"/>
    <path id="패스_7917" data-name="패스 7917" d="M258.03,65.766c-1.339.085-2.674.175-3.995.3,1.22-2.575,2.525-3.536,3.995-.3" transform="translate(92.52 2017.828)" fill="#bdff6e"/>
    <path id="패스_7918" data-name="패스 7918" d="M203.961,34.372c.71-.917,1.45-1.878,2.143-2.879-.693,1-1.433,1.962-2.143,2.879" transform="translate(92.52 2017.828)" fill="#bdff6e"/>
    <path id="패스_7919" data-name="패스 7919" d="M630.619,63.186h-2.177c-.263-3.1.609-7.113-2.775-7.989-2.822-.7-3.465,2.186-3.745,5.11-.166,1.743-1.569,1.788-2.228,2.879-2.163-.085-4.292-.085-6.452-.13-.761-.961-1.471-1.788-2.231-2.749h-2.177c-2.278-3.886,2.491-3.143,2.177-5.719a7.281,7.281,0,0,1,2.163-5.767V43.058c.71-3.1,5.283,2.446,5.05-4.931-.314-7.771,5.76-11.222,10.218-15.237,2.937-1.091,3.15,1.7,3.532,4.319a18.688,18.688,0,0,1-.544,3.93c-.76,2.535-1.19,5.329-3.153,6.988,4.076-3.317,8.318-4.323,12.229.045,2.559,2.879,1.19,5.673-1.187,7.77-5.763,3.232-4.951,12.268-8.7,17.244" transform="translate(92.52 2017.828)" fill="#c5ff75"/>
    <path id="패스_7920" data-name="패스 7920" d="M554.4,11.365a4.275,4.275,0,0,0,4.391,2.879,15.753,15.753,0,0,1,6.04,6.988c.165.479.331,1.091.48,1.659-1.518,5.718-1.071,12.353-4.341,17.289-1.354-2.576-4.721-4.369-2.179-8.687-3.134-4.149-7.758,1.22-10.909-2.8H545.7c-1.466,1.659-2.87,1.659-4.339,0-1.041-2.883-1.255-5.11,1.469-6.9,2.161-1.444,5.974-2.142,3.037-8.034-.876-1.878.973-3.188,8.531-2.4" transform="translate(92.52 2017.828)" fill="#d0ff7b"/>
    <path id="패스_7921" data-name="패스 7921" d="M580.529,14.244c.281-3.1,1.734-7.028,3.745-5.021,3.813,3.8,7.724,2.1,10.712.742,6.355-2.879,11.239-.827,16.025,4.279v5.763c-2.393,3.317-5.594,4.368-8.7,5.763h-2.177c-3.914-6.286-8.748,0-12.973-1.614a9.255,9.255,0,0,1-2.771-.7c-2.181-1.658-3.269-4.238-3.864-7.426Z" transform="translate(92.52 2017.828)" fill="#ccff78"/>
    <path id="패스_7922" data-name="패스 7922" d="M584.869,22.89c2.393-2.754,8.268,1.7,8.055-6.9-.068-1.31,2.657-.438,3.465,1.135,1.419,2.75,2.508,5.763,3.748,8.643-4.935,4.716.923,7.949.99,12.357a7.913,7.913,0,0,1-8.862,2.271,9.8,9.8,0,0,1-5.547-6.156c-.544-2.75,2.606-6.854-1.849-8.472a2.086,2.086,0,0,1-.544-1.878c.23-.653.395-1,.544-1" transform="translate(92.52 2017.828)" fill="#d0ff7b"/>
    <path id="패스_7923" data-name="패스 7923" d="M628.443,22.89c-1.471,7.945-9.177,10.475-9.509,19.909-.1,2.705-3.745-.219-5.759.259a4.134,4.134,0,0,0-4.34-2.879c-1.569-2.226-.217-5.808-1.518-7.73-5.547-7.989-1.734-9.21,3.694-9.559h2.164q3.27,4.842,6.52,0Z" transform="translate(92.52 2017.828)" fill="#ccff78"/>
    <path id="패스_7924" data-name="패스 7924" d="M571.832,57.423c-2.822-.04-4.293-2.007-4.34-5.718,4.455-2.884,7.179-7.118,5.641-14.191-.476-2.271.166-4.149,1.751-4.278,1.305-.175,3.8,1.439,3.745,1.877-.659,5.285,1.254,10.48.595,15.5a7.525,7.525,0,0,1-7.392,6.809" transform="translate(92.52 2017.828)" fill="#b5ff6e"/>
    <path id="패스_7925" data-name="패스 7925" d="M611.011,22.89c-1.038,2.924-7.061,3.143-2.606,9.255,1.071,1.529.314,5.325.429,8.034-2.18-4.8-5.33-8.821-6.52-14.409.71-7.726,5.266-5.2,8.7-5.763Z" transform="translate(92.52 2017.828)" fill="#d0ff7f"/>
    <path id="패스_7926" data-name="패스 7926" d="M613.174,48.821c-.051,2.361-.379,4.543-2.163,5.767-4.357-1.4-5.824-5.852-6.75-10.872,4.408-2.665,6.307,2.356,8.913,5.1" transform="translate(92.52 2017.828)" fill="#ccff78"/>
    <path id="패스_7927" data-name="패스 7927" d="M584.869,22.89v2.88c-4.391.7-9.654,4.148-10.86-5.763A3.03,3.03,0,0,1,573.251,18c.048-.742.115-1.18.281-1.18a5.294,5.294,0,0,1,4.817-2.575h2.18c-2.937,6.768,1.254,7.292,4.34,8.646" transform="translate(92.52 2017.828)" fill="#ccff78"/>
    <path id="패스_7928" data-name="패스 7928" d="M574.009,17.128v2.879c-2.822,1.529-4.884,6.769-8.7,2.884.825-7.422,4.026-8.472,8.7-5.763" transform="translate(92.52 2017.828)" fill="#d4ff7f"/>
    <path id="패스_7929" data-name="패스 7929" d="M140.847,11.365a17.967,17.967,0,0,1,2.146.085v2.794c-1.5,1.748-2.146,3.452.082,5.021,1.189,1.748,3.069,2.052,4.292,3.626,0,1,0,1.918-.034,2.879-1.355,1.619-3.2,1.833-4.8,2.227-6.669,1.265-3.6,5.369-1.751,9.259l.085.085c-2.163,2.839-4.34,5.807-6.52,8.686-6.156-2.879-11.587,2.231-17.462,2.794-.727-8.248.493-15.54,5.892-20.824,3.481-3.447-.464-5.2-1.174-7.641,2.891-.568,5.054-2.446,6.176-6.112,4.34-.916,8.451-3.8,13.071-2.879" transform="translate(92.52 2017.828)" fill="#a8ff64"/>
    <path id="패스_7930" data-name="패스 7930" d="M116.882,48.821c7.69-8.861,11.307-9.429,17.462-2.794-.081,7.82-4.557,11.486-8.914,14.016a6.04,6.04,0,0,1-7.74-1.439c-3-3.537-2.194-6.331-.808-9.783" transform="translate(92.52 2017.828)" fill="#a1ff66"/>
    <path id="패스_7931" data-name="패스 7931" d="M232.33,65.981a19.747,19.747,0,0,0-2.309.089c-.76-3.317-3.366-6.33-.794-9.911.281-.439,1.437-.3,1.849.129,2.525,2.754,2.64,6.116,1.254,9.693" transform="translate(92.52 2017.828)" fill="#c6ff75"/>
    <path id="패스_7932" data-name="패스 7932" d="M304.094,37.34c-1.271-.3-3.749-.827-2.691-2.531,2.657-4.193.43-7.989.511-11.919,1.419-4.627,3.286-8.691,6.52-11.526h2.177a22.47,22.47,0,0,1,1.981,1.44,4.036,4.036,0,0,0,2.261.3,9.607,9.607,0,0,1,2.495-.349c3.664.349,6.057,2.446,5.925,7.815-.25,6.55,7.112,16.328-4.374,18.121a10.769,10.769,0,0,1-2.856.652c-7.477-2.007-7.031-6.9-2.61-13.095a1.284,1.284,0,0,1,1.9-.483.355.355,0,0,0-.051-.393c-1.22-.782-1.849.613-2.657,1.31-1.8,2.1-3.613,3.885-3.778,7.6-.2,4.06-1.849,5.629-4.753,3.054" transform="translate(92.52 2017.828)" fill="#bfff71"/>
    <path id="패스_7933" data-name="패스 7933" d="M391.157,28.609c-4.374.653-8.238-.568-10.878-5.719h-.016c-2.725-2.185-6.882-2.445-6.555-8.691,2.691-4.627,5.348-1,7.329.787,3.944,3.581,6.817,5.37,8.186-2.879.463-2.754,2.164-4.019,4.013-2.884,1.879,1.136,1.22,4.194,1.122,6.246-.2,4.668-6.686,6.765-3.2,13.14" transform="translate(92.52 2017.828)" fill="#c8ff73"/>
    <path id="패스_7934" data-name="패스 7934" d="M308.434,11.365c-.463,1.31-1.4,2.66-1.254,3.84.859,5.893-2.278,6.595-5.266,7.686h-4.34c-1.339-2.884-6.717-5.459-.362-9.125.575-.309.247-3.452.328-5.24h2.18c1.467,1.833,2.9,1.788,4.374,0a4.267,4.267,0,0,1,4.34,2.839" transform="translate(92.52 2017.828)" fill="#cbff77"/>
    <path id="패스_7935" data-name="패스 7935" d="M321.505,20.007c.216-6.679-4.753-3.013-6.551-5.763a4.947,4.947,0,0,1-.017-5.718c5.067,1,10.117,1.918,15.248.349,2.394-.743,4.9-.787,6.554,2.49-3.069,9.125-9.64,7.287-15.234,8.642" transform="translate(92.52 2017.828)" fill="#d0ff7c"/>
    <path id="패스_7936" data-name="패스 7936" d="M373.708,14.2c2.18,2.928,4.374,5.808,6.554,8.691a12.985,12.985,0,0,1-7.23-1.878c-2.856-1.658-2.359-3.974-1.467-6.768.71,0,1.42,0,2.143-.045" transform="translate(92.52 2017.828)" fill="#c4ff73"/>
    <path id="패스_7937" data-name="패스 7937" d="M358.491,11.365c5.334-3.232,4.212,2.181,4.36,5.763.758.653,1,1.31.758,1.962-.247.613-.494.917-.758.917-2.528,1.923-3.1-1.355-4.36-2.879a4.832,4.832,0,0,1,0-5.763" transform="translate(92.52 2017.828)" fill="#c8ff73"/>
    <rect id="사각형_2996" data-name="사각형 2996" width="4.34" height="5.763" transform="translate(446.671 2029.192)" fill="#c4ff73"/>
    <path id="패스_7938" data-name="패스 7938" d="M362.851,20.007V17.128h4.371c-.295,2.092.841,5.021-1.136,6.022-.7.308-2.13-2.007-3.235-3.143" transform="translate(92.52 2017.828)" fill="#c4ff73"/>
    <path id="패스_7939" data-name="패스 7939" d="M304.094,8.526c-1.47,2.924-2.907,2.924-4.374,0Z" transform="translate(92.52 2017.828)" fill="#d0ff7c"/>
    <path id="패스_7940" data-name="패스 7940" d="M310.611,14.244V11.365c.727-.921,1.47-1.838,2.2-2.839,1.3,1.788,1.055,3.711.51,5.718a1.611,1.611,0,0,1-2.707,0" transform="translate(92.52 2017.828)" fill="#cbff77"/>
    <path id="패스_7941" data-name="패스 7941" d="M312.808,14.244V8.526h2.129c0,1.918.017,3.8.017,5.718h.031q-1.11,1.509-2.177,0" transform="translate(92.52 2017.828)" fill="#bfff71"/>
    <path id="패스_7942" data-name="패스 7942" d="M321.505,20.007c2.41-2.137,3.7-7.422,7.791-4.891,3.367,2.012,4.868-2.794,7.443-3.751,6.091,10,6.091,15.979,0,25.975-4.323.045-4.969,4.936-6.554,8.6-.723,1.31-1.433,1.31-2.16,0-.743-1.877-1.3-4.368-3.434-3.536-.544.219-.612,2.226-.923,3.536-5.81-.916-11.621-7.9-17.414,0-.724-1.006-1.433-1.091-2.16,0-3.269,2.357-1.636-1.7-2.2-2.883.727-1.918,1.453-3.885,2.2-5.719,1.352-.219,3.235-.438,2.9-2.749-.922-6.55,2.525-8.995,5.794-11.7.642,1.047,2.062,1.136,2.163,2.88-.25,1.265-.182,2.928-.76,3.8-4.455,6.331-.808,7.028,2.937,7.77,1.4-3.621,4.374-2.226,7.278-4.1-3.35-3.621-6.568-7.466-2.9-13.229" transform="translate(92.52 2017.828)" fill="#c4ff73"/>
    <path id="패스_7943" data-name="패스 7943" d="M336.74,37.34c1.764,1.225,2.146,3.362,2.177,5.718-.74.961-1.433,1.967-2.177,2.884a9.629,9.629,0,0,1,0-8.6" transform="translate(92.52 2017.828)" fill="#c4ff73"/>
    <path id="패스_7944" data-name="패스 7944" d="M328.026,45.942h2.16c.5,2.316,2.478,5.982-.51,6.331-2.772.348-1.14-4.1-1.65-6.331" transform="translate(92.52 2017.828)" fill="#a4ff69"/>
    <path id="패스_7945" data-name="패스 7945" d="M343.26,43.059l.923.657-.413.568Z" transform="translate(92.52 2017.828)" fill="#c4ff73"/>
    <path id="패스_7946" data-name="패스 7946" d="M336.74,45.942a4.717,4.717,0,0,1-.5,1.135c-.723-.218-.561-.612.5-1.135" transform="translate(92.52 2017.828)" fill="#c4ff73"/>
    <path id="패스_7947" data-name="패스 7947" d="M288.826,54.589c.034-2.883.034-5.767.034-8.646,2.163,5.02,2.839,12.223,9.721,8.995,2.326-1.091,4.374,2.137,5.429,5.325-3.58,0-7.2.045-10.81.045-1.055,2.007-3.269.961-4.34,2.794l-.034.085c-3.448-2.879-.544-5.763,0-8.6" transform="translate(92.52 2017.828)" fill="#b1ff6d"/>
    <path id="패스_7948" data-name="패스 7948" d="M521.755,60.262h-2.177c-1.47-2.052-2.937-2.969-4.34,0-1.47,0-2.89,0-4.36.045-.693-1.051-1.467-1.051-2.16,0-2.938-.045-5.828-.13-8.748-.22a12.07,12.07,0,0,1-2.13-2.664c4.672-8.034,3.269-21.612,12.99-25.148.71-.609,1.467-1.266,2.228-1.834a6.9,6.9,0,0,0,2.18-1.833c5.212-1.354,3.911,9.344,8.893,8.428,1.636,1.44,3.1,3.013,1.964,6.022-.973.961-1.42,2.58-.328,3.233,7.278,4.234,7.278,4.193,4.672,14.1-2.164-.085-4.344-.085-6.521-.085-1.139-1.355-1.024-3.1-.926-4.8-.213,1.659-.047,3.536-1.237,4.757" transform="translate(92.52 2017.828)" fill="#c5ff73"/>
    <path id="패스_7949" data-name="패스 7949" d="M526.095,43.059c-.71-1.918-1.42-3.885-2.177-5.718a12.3,12.3,0,0,0,.115-1.53c-.659-1.22-1.734-2.007-2.444-3.227-.825-3.671-5.33-4.543-4.191-9.693V20.007c3.863-5.1,9.343,3.143,13.04-2.879.758-.916,1.468-1.922,2.178-2.884,7.608,4.105-.494,12.139,2.558,17.464a11.205,11.205,0,0,1,.595,7.032,15.147,15.147,0,0,1-.926,1.44h-2.177c-1.139,1.833-3.252,1-4.391,2.879Z" transform="translate(92.52 2017.828)" fill="#caff78"/>
    <path id="패스_7950" data-name="패스 7950" d="M539.183,37.34h2.18c.923,6.505-3.532,9.474-6.023,16.506-.233-6.026-.4-9.827-.5-13.667,1.139-1.7,2.559-2.839,4.34-2.839" transform="translate(92.52 2017.828)" fill="#d0ff7b"/>
    <path id="패스_7951" data-name="패스 7951" d="M528.275,43.059a4.234,4.234,0,0,1,4.391-2.879,4.293,4.293,0,0,1-4.391,2.879" transform="translate(92.52 2017.828)" fill="#c5ff73"/>
    <path id="패스_7952" data-name="패스 7952" d="M541.363,37.34V34.461c.71-1.006,1.47-1.1,2.163,0V37.34Z" transform="translate(92.52 2017.828)" fill="#d0ff7b"/>
    <path id="패스_7953" data-name="패스 7953" d="M547.883,28.7c3.911-.921,7.987-3.1,10.909,2.794H554.4c-2.177,2.008-4.341,1.963-6.518,0Z" transform="translate(92.52 2017.828)" fill="#caff76"/>
    <path id="패스_7954" data-name="패스 7954" d="M543.527,34.461h-2.163V28.7h4.34c-.048,2.312-.43,4.538-2.177,5.763" transform="translate(92.52 2017.828)" fill="#caff76"/>
    <path id="패스_7955" data-name="패스 7955" d="M547.883,31.493H554.4q-3.266,5.625-6.518,0" transform="translate(92.52 2017.828)" fill="#d0ff7b"/>
    <path id="패스_7956" data-name="패스 7956" d="M552.224,40.179l-.875-.613.4-.612Z" transform="translate(92.52 2017.828)" fill="#caff76"/>
    <path id="패스_7957" data-name="패스 7957" d="M513.058,31.493c-.595,2.311,1.024,7.55-2.062,6.241-4.242-1.7-5.81-2.839-5.215,4.672.591,7.337-3.418,11.745-7.94,15.018-2.164-2.575-4.506-5.281-1.518-9.255,3.813-5.022,2.342-9.782.493-14.8-2.227,1.006-2.508,2.665-2.886,4.586-2,10-4.293,11.527-11.026,7.512-1.254-.832-2.228-2.405-3.418-3.407-1.369-1.135-2.721-.876-3.826.786a5.565,5.565,0,0,0-.743,5.2c.9,2.924,4.025,4.014,3.829,7.9-2,1.573-3.252-.962-4.854-1.351-2.9-2.839-2.9-2.839-6.55,5.719h-2.181c-4.85,1.175-4.752-5.111-6.865-8.035a11.98,11.98,0,0,1-.513-3.8c.25-2.659.628-5.194,1.058-7.68a9.241,9.241,0,0,1,2.312-4.98c4.306-2.576,8.994-3.756,13.415-5.456-8.96-3.669-8.96-3.669-10.167-11.135,2.427-4.19,4.952-7.991,9.491-4.978,2.789-5.369,6.6-6.24,11.29-5.238,11.256,2.315,11.256,2.1,20.761,13.009,2.924-1.31-.544-6.68,2.775-7.771,1.947,1.091,3.367,2.576,2.16,5.764v8.6c.71,1.006,2.014,1.221,2.18,2.884" transform="translate(92.52 2017.828)" fill="#caff78"/>
    <path id="패스_7958" data-name="패스 7958" d="M467.341,60.307c.889-5.719,2.722-11.352.494-19.909,5.612,4.628,2.164,11.875,6.057,14.19-1.466,1.919-2.938,3.841-4.374,5.8a18.474,18.474,0,0,1-2.177-.085" transform="translate(92.52 2017.828)" fill="#c1ff72"/>
    <path id="패스_7959" data-name="패스 7959" d="M497.841,57.423c.71.876,1.42,1.833,2.129,2.664h-2.18c0-.831.051-1.788.051-2.664" transform="translate(92.52 2017.828)" fill="#caff78"/>
    <path id="패스_7960" data-name="패스 7960" d="M304.094,45.942c.727-2.007,1.437-2.007,2.16,0Z" transform="translate(92.52 2017.828)" fill="#c3ff71"/>
    <path id="패스_7961" data-name="패스 7961" d="M169.118,43.059h2.18c3.086-2.052,1.271-7.158,3.414-9.822,3.235,2.052,1.092,5.718.761,7.9-1.008,6.59,3.877,7.028,5.759,10.475,3.333,6.2,4.557-3.447,7.494-2.794,2.36,3.8,1.93,7.685,0,11.486-.76.961-1.487,1.877-2.2,2.879-1.433,1.658-2.9,1.658-4.357,0-1.153-1.311-1.021-3.144-1.071-4.887-.082,1.743.081,3.576-1.089,4.887-.743.876-1.436.916-2.18,0q-4.354-1.375-8.714-2.879c-1.3-.22-1.352-2.008-2.177-2.884-.71-1.918-1.47-3.8-2.163-5.718-4.357-7.99,5.131-3.8,4.34-8.647" transform="translate(92.52 2017.828)" fill="#b7ff6b"/>
    <path id="패스_7962" data-name="패스 7962" d="M169.118,43.059c.544,1.18,1.058,2.405,1.65,3.536.973,1.793,2.775,3.8.5,5.763-1.717,1.4-2.1-1.439-2.954-2.66-2.541-3.626-3.3-1.618-3.532,2.008h-4.357c-1.785-1.4-4.753-1.878-4.753-4.891-.016-3.448,2.806-3.537,4.885-3.667,2.856-.219,5.709-.089,8.565-.089" transform="translate(92.52 2017.828)" fill="#bfff71"/>
    <path id="패스_7963" data-name="패스 7963" d="M188.727,60.307V48.821c7.014,1.793,3.5,6.988,2.146,11.486Z" transform="translate(92.52 2017.828)" fill="#bfff71"/>
    <path id="패스_7964" data-name="패스 7964" d="M166.942,57.423c.74.961,1.433,1.967,2.177,2.884-3.286,2.4-1.6-1.7-2.177-2.884" transform="translate(92.52 2017.828)" fill="#bfff71"/>
    <path id="패스_7965" data-name="패스 7965" d="M180.013,63.186c.081-1.35-.051-3.536,1.088-3.577,1.14,0,.974,2.227,1.072,3.577Z" transform="translate(92.52 2017.828)" fill="#bdff6e"/>
    <path id="패스_7966" data-name="패스 7966" d="M182.173,63.186h4.356c-1.433,3.013-2.9,2.969-4.356,0" transform="translate(92.52 2017.828)" fill="#bdff6e"/>
    <path id="패스_7967" data-name="패스 7967" d="M186.529,63.186c.728-.917,1.47-1.878,2.2-2.879-.728,1-1.47,1.962-2.2,2.879" transform="translate(92.52 2017.828)" fill="#bdff6e"/>
    <path id="패스_7968" data-name="패스 7968" d="M177.832,63.186h2.18c-.743,1.748-1.436,1.748-2.18,0" transform="translate(92.52 2017.828)" fill="#bdff6e"/>
    <path id="패스_7969" data-name="패스 7969" d="M164.694,68.775c.183-.349.429-1.046.561-1.046.761.219.629.787-.378,1.354Z" transform="translate(92.52 2017.828)" fill="#bfff71"/>
    <path id="패스_7970" data-name="패스 7970" d="M460.855,37.34c-.034,1.833-.034,3.8-.068,5.718-1.352,1.529-.892,4.194-2.146,5.763-.477,1.1-1.072,1.225-1.832.483a2.476,2.476,0,0,0-1.582-1.614c.132,1.569,2.177.568,2.011,2.615a8.681,8.681,0,0,1,.183,3.452c-3.005,6.635-7.329,5.763-11.868,3.755-5.084-.089-10.181-.219-15.265-.308-2.937-3.8-5.81-3.8-8.667.219a4.212,4.212,0,0,1-4.373-2.835,3.776,3.776,0,0,1-.71-2.186c0-.787.067-1.135.165-1.135,2.343-2.88,2.478-9.868,7.694-7.333.327.872.294,2.312.922,2.576,1.335.652-.3.742.247-1.046a5.132,5.132,0,0,1,2.146-1.664,7.36,7.36,0,0,1,3.877,0,19.439,19.439,0,0,1,2.593.613c2.921,1.225,5.067-1.265,7.443-2.7,6.733,6.112,9.525-3.143,13.93-6.246,1.947-.433,4.722-4.757,5.3,1.878" transform="translate(92.52 2017.828)" fill="#beff6d"/>
    <path id="패스_7971" data-name="패스 7971" d="M445.553,57.513c4.888-.13,10.333.917,10.894-8.692h2.194c3.137,2.884,4.161,7.905,6.52,11.486-5.313,1.176-14.277-.13-19.608-2.794" transform="translate(92.52 2017.828)" fill="#c4ff6f"/>
    <path id="패스_7972" data-name="패스 7972" d="M515.238,60.262c-.382-2.052-2.609-5.195-.99-5.982,3.316-1.57,5,1.7,5.33,5.982Z" transform="translate(92.52 2017.828)" fill="#caff76"/>
    <path id="패스_7973" data-name="패스 7973" d="M521.755,60.262c.1-1.4,0-2.839,1.139-3.666.314,1.22.693,2.486,1.024,3.711-.71,0-1.4,0-2.163-.045" transform="translate(92.52 2017.828)" fill="#caff76"/>
    <path id="패스_7974" data-name="패스 7974" d="M508.718,60.307c.693-1.659,1.467-1.659,2.16,0Z" transform="translate(92.52 2017.828)" fill="#caff76"/>
    <path id="패스_7975" data-name="패스 7975" d="M417.282,51.705c0,.916,0,1.922-.034,2.883-2.988,1.57-4.85,6.153-8.629,5.719,4.718-3.711.294-9.823,2.143-14.365a22.2,22.2,0,0,1,2.18-2.884c4.9-.214,4.306,4.453,4.34,8.647" transform="translate(92.52 2017.828)" fill="#c0ff71"/>
    <path id="패스_7976" data-name="패스 7976" d="M412.941,43.059c-.743.961-1.47,1.878-2.179,2.884V43.059Z" transform="translate(92.52 2017.828)" fill="#c6ff75"/>
    <path id="패스_7977" data-name="패스 7977" d="M158.258,57.423c.693-.917,1.437-1.918,2.163-2.835-.017,1.351.034,2.7-.1,4.06-.084.742-.628,2.007-.828,2.007-1.3-.348-1.1-1.922-1.237-3.232" transform="translate(92.52 2017.828)" fill="#bfff70"/>
    <path id="패스_7978" data-name="패스 7978" d="M197.424,60.307c-1.93-4.672-.923-8.383,2.163-11.486-.3,3.93,1.038,8.473-2.163,11.486" transform="translate(92.52 2017.828)" fill="#bdff6e"/>
    <path id="패스_7979" data-name="패스 7979" d="M195.294,63.057q1.065-1.308,2.129-2.75-1.063,1.443-2.129,2.75" transform="translate(92.52 2017.828)" fill="#bdff6e"/>
    <path id="패스_7980" data-name="패스 7980" d="M288.86,63.1c.923-2.271,2.542-2.709,4.34-2.794v2.445c-1.436.13-2.887.3-4.34.349" transform="translate(92.52 2017.828)" fill="#bfff71"/>
    <path id="패스_7981" data-name="패스 7981" d="M619.7,63.186c.757-1,1.467-1.918,2.227-2.879,1.751,4.323-1.3,2.182-2.227,2.879" transform="translate(92.52 2017.828)" fill="#ccff70"/>
    <path id="패스_7982" data-name="패스 7982" d="M180.77,18.438c1.815,4.1,1.734,7.726,1.934,11.392-.795.174-1.67.657-2.015.308-3.732-3.8-3.333-7.466.081-11.7" transform="translate(92.52 2017.828)" fill="#b7ff66"/>
    <path id="패스_7983" data-name="패스 7983" d="M201.764,37.34c-1.437-1.833-2.9,9.692-4.34,0,.051-1.4,0-2.75.166-4.06.229-1.833.774-3.71,2.491-3.058.676.264,1.254,1.923,1.518,3.058a22.969,22.969,0,0,1,.165,4.06" transform="translate(92.52 2017.828)" fill="#bdff6e"/>
    <path id="패스_7984" data-name="패스 7984" d="M153.9,31.577c0-1.006-.017-1.963-.017-2.969-.328-5.937,2.576-4.716,5.233-4.059.446.393.875.787,1.3,1.22-.084,3.233.379,6.595-2.163,8.692-1.122-1.878-3.184-1.225-4.357-2.884" transform="translate(92.52 2017.828)" fill="#b7ff6a"/>
    <path id="패스_7985" data-name="패스 7985" d="M160.421,22.89c1.518.434,3.945.13,3.35,3.1-.413,2.141-2.18,0-3.35-.219-.761-.653-1.007-1.221-.761-1.878s.5-1,.761-1" transform="translate(92.52 2017.828)" fill="#b7ff6a"/>
    <path id="패스_7986" data-name="패스 7986" d="M195.247,34.461c-1.487-1.006-1.487-1.967,0-2.969Z" transform="translate(92.52 2017.828)" fill="#bdff6e"/>
    <path id="패스_7987" data-name="패스 7987" d="M193.05,40.179q-1.065,2.944-2.177,0Z" transform="translate(92.52 2017.828)" fill="#bdff6e"/>
    <path id="패스_7988" data-name="패스 7988" d="M140.779,37.255c-2.079-4.542-5.692-3.8-10.907-2.794,6.452-6.684,11.5-9.434,17.461-8.692-1.436,1.923-2.89,3.845-4.326,5.723a2.123,2.123,0,0,1,.463,1.963c-.166.653-.345.916-.511.916-.71,1.006-1.436,1.963-2.18,2.884" transform="translate(92.52 2017.828)" fill="#9dff66"/>
    <path id="패스_7989" data-name="패스 7989" d="M160.421,22.89v2.88c-2.393.134-4.969-.524-6.537,2.839-1.684-.265-3.979-.265-2.309-3.8,1.271-2.7,2.985-5.105,4.472-7.681.166-.876.081-2.1.494-2.49,1.173-1.4,1.551,0,1.636,1.18.165,2.75.179,5.5,2.244,7.073" transform="translate(92.52 2017.828)" fill="#bfff71"/>
    <path id="패스_7990" data-name="패스 7990" d="M142.993,20.007c-1.67-.653-4.654,1.574-4.739-2.311-.047-3.058,2.758-3.148,4.739-3.452,0,.961.014,1.967.047,2.884.264.523.578.916.876,1.439-.3.523-.612,1-.923,1.44" transform="translate(92.52 2017.828)" fill="#9cff64"/>
    <path id="패스_7991" data-name="패스 7991" d="M147.367,22.89c-1.8-.089-3.434-.527-4.374-2.883.723-1,1.45-1,2.194-.085.892.782,4-1.27,2.18,2.968" transform="translate(92.52 2017.828)" fill="#9cff64"/>
    <path id="패스_7992" data-name="패스 7992" d="M153.9,31.577a4.1,4.1,0,0,1,4.357,2.884c-1.8-.09-3.431-.568-4.357-2.884" transform="translate(92.52 2017.828)" fill="#bfff71"/>
    <path id="패스_7993" data-name="패스 7993" d="M145.187,19.922a19.108,19.108,0,0,1-2.194.085c.014-.917.014-1.963.048-2.879.709.916,1.436,1.877,2.146,2.794" transform="translate(92.52 2017.828)" fill="#a8ff64"/>
    <path id="패스_7994" data-name="패스 7994" d="M142.96,34.372c.033-.917.033-1.878.047-2.879,1.52,1.091,1.471,2.007-.047,2.879" transform="translate(92.52 2017.828)" fill="#bfff70"/>
    <path id="패스_7995" data-name="패스 7995" d="M142.993,48.821l.51-1.22.413.568Z" transform="translate(92.52 2017.828)" fill="#bfff70"/>
    <path id="패스_7996" data-name="패스 7996" d="M296.137,27.388c-.791-.393-1.717-.568-1.849-1.051-.362-1.439.314-2.62,1.322-2.794.463-.085,2.014-2.4,1.764.613a10.819,10.819,0,0,1-1.237,3.232" transform="translate(92.52 2017.828)" fill="#cbff77"/>
    <path id="패스_7997" data-name="패스 7997" d="M264.928,45.942c.081,5.021-2,4.364-4.373,2.879a4.183,4.183,0,0,1,4.373-2.879" transform="translate(92.52 2017.828)" fill="#c3ff74"/>
    <path id="패스_7998" data-name="패스 7998" d="M473.892,14.244c-3.813-.438-5.709,4.194-8.731,5.763-2.113,6.246-4.85,10.131-10.052,4.587-.264-.568-.562-1.136-.842-1.7-3-2.883-3.035-5.762,0-8.646,2.014-1.659,3.765-4.364,6.554-2.879q1.065,3.078,2.177,0c.71-.832,1.436-.921,2.163,0h4.357c.727-1.006,1.47-1.006,2.163,0,.744.957,1.467,1.962,2.211,2.879" transform="translate(92.52 2017.828)" fill="#c6ff75"/>
    <path id="패스_7999" data-name="패스 7999" d="M574.009,17.128a11.243,11.243,0,0,0-8.7,5.763c-4.293-.09-4.986-4.981-6.52-8.647,2.46-3.013,4.62-6.9,8.7-5.718,1.731,2.7,4.719.259,6.517,2.839h2.18a20.844,20.844,0,0,0,2.16,2.879,4.088,4.088,0,0,1-4.34,2.884" transform="translate(92.52 2017.828)" fill="#caff76"/>
    <path id="패스_8000" data-name="패스 8000" d="M534.843,31.493c-2.342,1.569-4.621,2.226-6.683-.658,7.014-6.242,7.014-6.242,4.456-16.592.114-3.709,1.517-5.673,4.34-5.718,1.3,1.571.926,4.234,2.227,5.718-.808,4.847-3.086,9.215-2.16,14.366a5.073,5.073,0,0,1-1.207,2.4,5.008,5.008,0,0,1-.973.484" transform="translate(92.52 2017.828)" fill="#caff76"/>
    <path id="패스_8001" data-name="패스 8001" d="M517.4,22.89c3.749,2.267,5.81,6.242,6.52,11.571a2.1,2.1,0,0,1,.494,1.873c-.162.613-.328,1.006-.494,1.006-1.9,1.484-3.748,6.814-5.594-.393-.71-2.839-.595-6.5-3.086-8.338.047-2.357.426-4.5,2.16-5.719" transform="translate(92.52 2017.828)" fill="#caff76"/>
    <path id="패스_8002" data-name="패스 8002" d="M530.439,17.128c-.267,5.021-2.66,6.241-5.861,5.414a74.239,74.239,0,0,1-7.18-2.535c2.015-4.323,3.749-9.344,8.7-5.763a4.167,4.167,0,0,0,4.343,2.884" transform="translate(92.52 2017.828)" fill="#caff76"/>
    <path id="패스_8003" data-name="패스 8003" d="M611.011,14.244c4.293-5.808,4.773,4.672,8.2,2.446-4.455,6.634-5.662-.872-8.2-2.446" transform="translate(92.52 2017.828)" fill="#ccff78"/>
    <path id="패스_8004" data-name="패스 8004" d="M619.7,22.89c-.264,3.014-.808,5.719-3.749,5.24-2.274-.353-2.491-2.884-2.771-5.24Z" transform="translate(92.52 2017.828)" fill="#d0ff7f"/>
    <path id="패스_8005" data-name="패스 8005" d="M460.822,11.365c-2.114,1.221-4.077,3.054-6.554,2.879a1.747,1.747,0,0,1-.694-1.922c.216-.653.464-.957.694-.957,2.18-.7,4.357-4.587,6.554,0" transform="translate(92.52 2017.828)" fill="#caff78"/>
    <path id="패스_8006" data-name="패스 8006" d="M510.878,20.007c-.693-1.878-1.467-3.8-2.16-5.763,1.467-1.569,2.87-1.659,4.34,0,1.089,3.1,1.684,5.893-2.18,5.763" transform="translate(92.52 2017.828)" fill="#caff76"/>
    <path id="패스_8007" data-name="패스 8007" d="M539.183,37.34a4.262,4.262,0,0,1-4.34,2.839V31.492c.71-1.006,1.4-1.006,2.18,0v2.969c.757.827,1.288,2.052,2.16,2.879" transform="translate(92.52 2017.828)" fill="#caff76"/>
    <path id="패스_8008" data-name="패스 8008" d="M574.009,11.365c-2.393-.045-4.935.523-6.517-2.839,2.393.045,4.949-.523,6.517,2.839" transform="translate(92.52 2017.828)" fill="#ccff78"/>
    <path id="패스_8009" data-name="패스 8009" d="M454.267,11.365v2.879a4.118,4.118,0,0,1-4.306-2.879Z" transform="translate(92.52 2017.828)" fill="#c6ff75"/>
    <path id="패스_8010" data-name="패스 8010" d="M513.058,14.244h-4.34c1.467-1.946,2.87-1.946,4.34,0" transform="translate(92.52 2017.828)" fill="#caff78"/>
    <path id="패스_8011" data-name="패스 8011" d="M539.183,14.244c-1.731-1.221-2.113-3.362-2.228-5.718,1.8,1.22,2.181,3.362,2.228,5.718" transform="translate(92.52 2017.828)" fill="#d0ff7b"/>
    <path id="패스_8012" data-name="패스 8012" d="M537.023,31.493h-2.18c.71-.922,1.4-1.878,2.18-2.884,1.453,1.006,1.453,1.962,0,2.884" transform="translate(92.52 2017.828)" fill="#d0ff7b"/>
    <path id="패스_8013" data-name="패스 8013" d="M465.161,11.365H463c.71-1.922,1.436-2.012,2.163,0" transform="translate(92.52 2017.828)" fill="#caff78"/>
    <path id="패스_8014" data-name="패스 8014" d="M471.682,11.365h-2.163c.726-2.012,1.47-1.922,2.163,0" transform="translate(92.52 2017.828)" fill="#caff78"/>
    <path id="패스_8015" data-name="패스 8015" d="M554.4,11.365l.548-1.225.378.612Z" transform="translate(92.52 2017.828)" fill="#d0ff7b"/>
    <path id="패스_8016" data-name="패스 8016" d="M526.095,14.244c.166-.349.429-1.136.548-1.136.709.219.544.658-.548,1.136" transform="translate(92.52 2017.828)" fill="#caff76"/>
    <path id="패스_8017" data-name="패스 8017" d="M578.349,14.244c-.693-.917-1.45-1.922-2.16-2.879.71.957,1.467,1.962,2.16,2.879" transform="translate(92.52 2017.828)" fill="#ccff78"/>
    <path id="패스_8018" data-name="패스 8018" d="M513.058,31.493c-.71-.922-1.47-1.878-2.18-2.884h2.18a2.3,2.3,0,0,1,.494,1.962c-.163.658-.328.922-.494.922" transform="translate(92.52 2017.828)" fill="#c5ff73"/>
    <path id="패스_8019" data-name="패스 8019" d="M513.058,31.493V28.609h2.18c-.71,1.006-1.47,1.962-2.18,2.884" transform="translate(92.52 2017.828)" fill="#caff78"/>
    <path id="패스_8020" data-name="패스 8020" d="M539.183,37.34c-.757-1.006-1.467-1.963-2.16-2.879.693.916,1.4,1.873,2.16,2.879" transform="translate(92.52 2017.828)" fill="#d0ff7b"/>
    <path id="패스_8021" data-name="패스 8021" d="M417.282,51.705c-2.806-1.748-1.551-6.988-4.34-8.647-1.207-3.228-1.717-6.156,1.4-8.163a35.11,35.11,0,0,0,6.52-4.628c2.971-2.879,4.208-6.33.757-10.26.247-3.188-.429-7.028,2.907-8.119,2.738-.917,4.753.085,5.925,4.014.758,2.535,3.316,4.673,3.316,6.9.034,5.808,1.765,7.2,5.811,7.028,6.006-.129,1.9,4.632,1.649,7.426-2.41,3.751-2.707,11.218-8.714,8.687-3.451-1.659-1.768-6.376-3.234-10-2.576,2.8.875,8.861-3.286,10h-.017c-.74,1.31-1.45,1.31-2.143,0-1.156-1.355-2-.916-2.18.917-.379,3.447-1.981,4.672-4.374,4.846" transform="translate(92.52 2017.828)" fill="#c6ff75"/>
    <path id="패스_8022" data-name="패스 8022" d="M456.447,37.34c-3.2,4.8-7.625,8.383-8.467,15.849-3.745-2.575-1.42-10.828-6.767-10.131-1.254-3.228.939-4.144,2.2-5.718,2.474-3.1,4.651-6.984,8.7-5.848a7.118,7.118,0,0,0,1.169.742,15.162,15.162,0,0,1,2.674,3.492c.2.523.331,1.091.5,1.614" transform="translate(92.52 2017.828)" fill="#c6ff75"/>
    <path id="패스_8023" data-name="패스 8023" d="M460.855,37.34c-1.471-3.232-2.938-.3-4.408,0l-.034-.085a16.606,16.606,0,0,1-4.306-5.763c-4.242-6.335-4.208-6.465,2.16-8.6,2.609,4.234,5.712,6.112,10,5.544,4.046-.523,8.4-1.4,11.786,3.058-4.424,4.976-9.687,5.978-15.2,5.848" transform="translate(92.52 2017.828)" fill="#c6ff75"/>
    <path id="패스_8024" data-name="패스 8024" d="M421.622,20.007c-4.688,9.693-6.385,10.042-12.412,2.794a3.961,3.961,0,0,1-.808-4.672c.71-1.7,1.6-3.362,3.252-2.794,3.448,1.091,6.223,4.587,9.968,4.672" transform="translate(92.52 2017.828)" fill="#c6ff75"/>
    <path id="패스_8025" data-name="패스 8025" d="M443.41,37.34c-.727,1.833-1.47,3.8-2.2,5.718-1.518,8.209-4.868,6.858-8.7,2.884,2.014-2.008,5.543-1.659,5.05-7.466-.4-4.757,2.342-1.091,3.664-1.221.743,0,1.453.085,2.18.085" transform="translate(92.52 2017.828)" fill="#c0ff71"/>
    <path id="패스_8026" data-name="패스 8026" d="M358.491,17.128c1.47,1,2.907,1.962,4.36,2.879-3.451,4.368-3.914.787-4.36-2.879" transform="translate(92.52 2017.828)" fill="#c4ff73"/>
    <path id="패스_8027" data-name="패스 8027" d="M584.869,22.89h-3.086c-2.772,0-5.381,0-2.062-4.761.592-.872.544-2.575.808-3.885,2.444,2.007,3.1,5.633,4.34,8.646" transform="translate(92.52 2017.828)" fill="#caff76"/>
    <path id="패스_8028" data-name="패스 8028" d="M630.619,28.7c.926.563,2.065,2.531,1.568,2.794-2.491,1.4-1.024-1.877-1.568-2.794" transform="translate(92.52 2017.828)" fill="#c5ff75"/>
    <path id="패스_8029" data-name="패스 8029" d="M312.808,14.244h2.177c-.328,2.1-.3,4.976-2.691,4.408-1.416-.389-1.551-2.62-1.683-4.408Z" transform="translate(92.52 2017.828)" fill="#d0ff7c"/>
    <path id="패스_8030" data-name="패스 8030" d="M314.955,25.77c-.71-.961-1.437-1.878-2.163-2.88.892.783,3.978-1.443,2.163,2.88" transform="translate(92.52 2017.828)" fill="#c3ff71"/>
    <path id="패스_8031" data-name="패스 8031" d="M317.132,37.34l.926.613-.416.523Z" transform="translate(92.52 2017.828)" fill="#bfff71"/>
    <path id="패스_8032" data-name="패스 8032" d="M523.918,37.34V34.461q2.277,1.374,0,2.879" transform="translate(92.52 2017.828)" fill="#c5ff73"/>
    <path id="패스_8033" data-name="패스 8033" d="M476.056,31.493c-4.225.174-8.335-1.489-12.71-.264-4.62,1.354-8.666-.612-9.078-8.339,4.82,1.569,4.82,1.569,10.893-2.883.28,3.014,1.207,5.151,3.78,5.678,4.276.781,8.483,1.7,12.909,2.75-1.505,4.279-3.915,2.574-5.794,3.058" transform="translate(92.52 2017.828)" fill="#d1ff7e"/>
    <path id="패스_8034" data-name="패스 8034" d="M495.677,20.007c1.568,2.665,5.216,5.24,1.024,8.472-3.532,2.66-7.328,3.577-10.316-2.226-2.721-5.155,1.139-9.041,2.542-10.7,2.609-3.013,6.206-1.748,6.686,4.453Z" transform="translate(92.52 2017.828)" fill="#d0ff7d"/>
    <path id="패스_8035" data-name="패스 8035" d="M458.641,48.821c.034-2.356.412-4.538,2.147-5.763-.018,2.406-.379,4.543-2.147,5.763" transform="translate(92.52 2017.828)" fill="#c4ff6f"/>
    <path id="패스_8036" data-name="패스 8036" d="M426,45.942c3.613-5.589-3.417-6.027-2.772-10.7a36.329,36.329,0,0,1,3.316-2.53c1.964-1.221,4.672-2.357,6.01-.438a7.128,7.128,0,0,1-.5,8.557c-1.305,1.574.2,3.407.463,5.11Z" transform="translate(92.52 2017.828)" fill="#c0ff71"/>
    <path id="패스_8037" data-name="패스 8037" d="M423.836,45.942h2.143c.132,1.569,1.785,3.885.183,4.453-2.262.742-2.1-2.446-2.326-4.453" transform="translate(92.52 2017.828)" fill="#c0ff71"/>
    <path id="패스_8038" data-name="패스 8038" d="M456.447,48.821h-2.18c.084-1.439-.014-3.577,1.092-3.577,1.139,0,1.007,2.227,1.088,3.577" transform="translate(92.52 2017.828)" fill="#c4ff6f"/>
    <path id="패스_8039" data-name="패스 8039" d="M454.267,48.821c-.149.354-.379,1.136-.476,1.136-.71-.215-.545-.653.476-1.136" transform="translate(92.52 2017.828)" fill="#c4ff6f"/>
    <path id="패스_8040" data-name="패스 8040" d="M452.107,31.493a9.073,9.073,0,0,1,4.306,5.763q-4.233-.134-4.306-5.763" transform="translate(92.52 2017.828)" fill="#cfff7a"/>
    <path id="패스_8041" data-name="패스 8041" d="M495.677,20.007c-.872,1.878-1.913,3.013-3.482,1.31a2.148,2.148,0,0,1-.263-1.395c1.237-2.58,2.491.085,3.681.085Z" transform="translate(92.52 2017.828)" fill="#caff78"/>
  </g>
</svg>
