<svg xmlns="http://www.w3.org/2000/svg" width="165.599" height="171.715" viewBox="0 0 165.599 171.715">
  <g id="오브제_강릉단오제_건물" transform="translate(-1013.799 -461.668)">
    <rect id="사각형_82" data-name="사각형 82" width="14.884" height="26.3" transform="translate(1125.051 486.949)" fill="#d1d1d1"/>
    <rect id="사각형_83" data-name="사각형 83" width="26.912" height="26.3" transform="translate(1136.877 486.949)" fill="#bcb5b3"/>
    <path id="패스_246" data-name="패스 246" d="M1074.024,753.017H1046.7V626.052l27.32-6.219Z" transform="translate(35.941 -120.602)" fill="#d1d1d1"/>
    <path id="패스_247" data-name="패스 247" d="M1089.111,738.21H1046.7v-86.8l42.406,16.607Z" transform="translate(35.941 -104.826)" fill="#bcb5b3"/>
    <rect id="사각형_84" data-name="사각형 84" width="53.823" height="134.15" transform="translate(1109.966 499.232)" fill="#bcb5b3"/>
    <rect id="사각형_85" data-name="사각형 85" width="45.26" height="3.976" transform="translate(1116.081 503.463)" fill="#a39d9b"/>
    <rect id="사각형_86" data-name="사각형 86" width="45.26" height="3.976" transform="translate(1116.081 513.249)" fill="#a39d9b"/>
    <rect id="사각형_87" data-name="사각형 87" width="45.26" height="3.976" transform="translate(1116.081 523.034)" fill="#a39d9b"/>
    <rect id="사각형_88" data-name="사각형 88" width="45.26" height="3.976" transform="translate(1116.081 532.821)" fill="#a39d9b"/>
    <rect id="사각형_89" data-name="사각형 89" width="45.26" height="3.976" transform="translate(1116.081 542.607)" fill="#a39d9b"/>
    <rect id="사각형_90" data-name="사각형 90" width="45.26" height="3.976" transform="translate(1116.081 552.394)" fill="#a39d9b"/>
    <rect id="사각형_91" data-name="사각형 91" width="45.26" height="3.976" transform="translate(1116.081 562.179)" fill="#a39d9b"/>
    <rect id="사각형_92" data-name="사각형 92" width="45.26" height="3.976" transform="translate(1116.081 571.966)" fill="#a39d9b"/>
    <rect id="사각형_93" data-name="사각형 93" width="45.26" height="3.976" transform="translate(1116.081 581.752)" fill="#a39d9b"/>
    <rect id="사각형_94" data-name="사각형 94" width="45.26" height="3.976" transform="translate(1116.081 591.537)" fill="#a39d9b"/>
    <rect id="사각형_95" data-name="사각형 95" width="45.26" height="3.976" transform="translate(1116.081 601.324)" fill="#a39d9b"/>
    <rect id="사각형_96" data-name="사각형 96" width="45.26" height="3.976" transform="translate(1116.081 611.11)" fill="#a39d9b"/>
    <rect id="사각형_97" data-name="사각형 97" width="9.787" height="4.281" transform="translate(1145.44 484.299)" fill="#bcb5b3"/>
    <rect id="사각형_98" data-name="사각형 98" width="1.326" height="23.751" transform="translate(1149.517 461.668)" fill="#bcb5b3"/>
    <path id="패스_248" data-name="패스 248" d="M1041.245,628.04v-8.206H1019.6l-10.785,3.712v4.495l-8.023,2.573V753.984h48.472V628.04Z" transform="translate(13.004 -120.602)" fill="#d1d1d1"/>
    <rect id="사각형_99" data-name="사각형 99" width="15.611" height="70.26" transform="translate(1163.787 563.122)" fill="#bcb5b3"/>
    <rect id="사각형_100" data-name="사각형 100" width="27.524" height="60.181" transform="translate(1062.271 573.201)" fill="#bcb5b3"/>
    <path id="패스_249" data-name="패스 249" d="M1045.447,628.04v-8.206h-29.664v8.206h-7.339V753.984h44.342V628.04Z" transform="translate(16.825 -120.602)" fill="#bcb5b3"/>
    <path id="패스_250" data-name="패스 250" d="M1035.924,627.77H1017.1v64.808h1.785V633.862h17.04Z" transform="translate(21.149 -116.637)" fill="#a39d9b"/>
    <path id="패스_251" data-name="패스 251" d="M1011.916,628.435h3.914v-.664h-5.156v5.156h1.242Z" transform="translate(17.939 -116.637)" fill="#a39d9b"/>
    <path id="패스_252" data-name="패스 252" d="M1011.916,633.873h3.914v-.664h-5.156v5.156h1.242Z" transform="translate(17.939 -113.919)" fill="#a39d9b"/>
    <path id="패스_253" data-name="패스 253" d="M1011.916,639.311h3.914v-.664h-5.156V643.8h1.242Z" transform="translate(17.939 -111.202)" fill="#a39d9b"/>
    <path id="패스_254" data-name="패스 254" d="M1011.916,644.749h3.914v-.664h-5.156v5.156h1.242Z" transform="translate(17.939 -108.486)" fill="#a39d9b"/>
    <path id="패스_255" data-name="패스 255" d="M1011.916,650.748h3.914v-.664h-5.156v5.156h1.242Z" transform="translate(17.939 -105.488)" fill="#a39d9b"/>
    <path id="패스_256" data-name="패스 256" d="M1011.916,656.186h3.914v-.664h-5.156v5.156h1.242Z" transform="translate(17.939 -102.771)" fill="#a39d9b"/>
    <path id="패스_257" data-name="패스 257" d="M1011.916,661.624h3.914v-.664h-5.156v5.156h1.242Z" transform="translate(17.939 -100.054)" fill="#a39d9b"/>
    <path id="패스_258" data-name="패스 258" d="M1011.916,667.062h3.914V666.4h-5.156v5.156h1.242Z" transform="translate(17.939 -97.337)" fill="#a39d9b"/>
    <path id="패스_259" data-name="패스 259" d="M1033.193,628.389h3.914v-.664h-5.156v5.156h1.242Z" transform="translate(28.569 -116.659)" fill="#a39d9b"/>
    <path id="패스_260" data-name="패스 260" d="M1033.193,633.828h3.914v-.664h-5.156v5.156h1.242Z" transform="translate(28.569 -113.942)" fill="#a39d9b"/>
    <path id="패스_261" data-name="패스 261" d="M1033.193,639.266h3.914V638.6h-5.156v5.156h1.242Z" transform="translate(28.569 -111.225)" fill="#a39d9b"/>
    <path id="패스_262" data-name="패스 262" d="M1033.193,644.7h3.914v-.664h-5.156V649.2h1.242Z" transform="translate(28.569 -108.508)" fill="#a39d9b"/>
    <path id="패스_263" data-name="패스 263" d="M1033.193,650.7h3.914v-.664h-5.156v5.156h1.242Z" transform="translate(28.569 -105.511)" fill="#a39d9b"/>
    <path id="패스_264" data-name="패스 264" d="M1033.193,656.141h3.914v-.664h-5.156v5.156h1.242Z" transform="translate(28.569 -102.794)" fill="#a39d9b"/>
    <path id="패스_265" data-name="패스 265" d="M1033.193,661.579h3.914v-.664h-5.156v5.156h1.242Z" transform="translate(28.569 -100.077)" fill="#a39d9b"/>
    <path id="패스_266" data-name="패스 266" d="M1033.193,667.017h3.914v-.664h-5.156v5.156h1.242Z" transform="translate(28.569 -97.36)" fill="#a39d9b"/>
  </g>
</svg>
