<svg xmlns="http://www.w3.org/2000/svg" width="579.003" height="606.573" viewBox="0 0 193.001 202.191">
  <g id="오브제_강릉단오제" transform="translate(-848.553 -429.602)">
    <path id="패스_81" data-name="패스 81" d="M970.713,705.793a41.667,41.667,0,0,1-12.395-3.071l-.276-4.065,8.128-1.366c1.474,4.576,5.412,6.243,8.723,7.261a3.225,3.225,0,0,1-1.147.861,6.629,6.629,0,0,1-3.034.381" transform="translate(-8.357 -81.903)" fill="#ececec"/>
    <path id="패스_82" data-name="패스 82" d="M958.228,700.912a41.621,41.621,0,0,0,12.394,3.071,6.634,6.634,0,0,0,3.034-.381,3.217,3.217,0,0,0,1.146-.861c2.8.862,5.16,1.257,5.189,2.551.055,2.512-11.48.88-18.993-.9a3.581,3.581,0,0,1-2.753-3.244Z" transform="translate(-8.264 -80.093)" fill="#ffe081"/>
    <path id="패스_83" data-name="패스 83" d="M945.5,624.24l-2.161,17.744,37.513,1.984.264-16.226Z" transform="translate(-15.702 -118.4)" fill="#252525"/>
    <path id="패스_84" data-name="패스 84" d="M954.033,679.648c.094.63,2.149,24.3,2.149,24.3l4.033,4.122,7.809-.964,4.308-4.089-.828-21.8Z" transform="translate(-10.36 -90.717)" fill="#fff7ec"/>
    <path id="패스_85" data-name="패스 85" d="M941.3,706.289a41.654,41.654,0,0,0,11.781-4.922l-.345-4.059-8.239-.114c-.762,4.746-4.4,6.994-7.518,8.5a3.223,3.223,0,0,0,1.264.676,6.65,6.65,0,0,0,3.056-.085" transform="translate(-18.883 -81.951)" fill="#ececec"/>
    <path id="패스_86" data-name="패스 86" d="M954.658,699.977a41.658,41.658,0,0,1-11.781,4.922,6.625,6.625,0,0,1-3.055.084,3.21,3.21,0,0,1-1.264-.675c-2.641,1.278-4.908,2.026-4.74,3.31.327,2.491,11.478-.877,18.633-3.778a3.582,3.582,0,0,0,2.227-3.625Z" transform="translate(-20.465 -80.56)" fill="#ffe081"/>
    <path id="패스_87" data-name="패스 87" d="M952.621,658.938q-1.82,15.7-3.638,31.4a1.077,1.077,0,0,0,.125.817,1.066,1.066,0,0,0,.795.274q6,.355,12.013.129a.59.59,0,0,0,.679-.748l-.307-31.228Z" transform="translate(-12.895 -101.065)" fill="#e9e0d7"/>
    <path id="패스_88" data-name="패스 88" d="M940.681,681.1c.006.637-.933,21.479-.933,21.479l3.413,4.646,7.867.143,4.839-3.445,2.242-21.7Z" transform="translate(-17.497 -89.99)" fill="#fff7ec"/>
    <path id="패스_89" data-name="패스 89" d="M914.569,645.2a9.108,9.108,0,0,0-3.71,1.116,3.109,3.109,0,0,0-1.474,3.326,3.738,3.738,0,0,0,2.419,2.113,9.807,9.807,0,0,0,6.19.221Z" transform="translate(-32.719 -107.926)" fill="#fdebd4"/>
    <path id="패스_90" data-name="패스 90" d="M958.9,633.817a102.222,102.222,0,0,1-46.433,15.949q.587,18.351,1.174,36.7a121.862,121.862,0,0,0,22.123-4.6c2.783-.855,5.637-1.869,7.712-3.911,3.619-3.557,3.349-9.3,4.9-14.128,3.709-11.576,11.73-14.1,11.73-14.1s-.984-14.162-1.2-15.914" transform="translate(-31.126 -113.615)" fill="#c0f6ff"/>
    <path id="패스_91" data-name="패스 91" d="M966.2,633.727a102.207,102.207,0,0,0,46.709,15.121q-.261,18.36-.522,36.718a121.843,121.843,0,0,1-22.2-4.2c-2.8-.805-5.669-1.769-7.782-3.773-3.682-3.493-3.512-9.236-5.147-14.039-3.912-11.508-11.979-13.891-11.979-13.891s.732-14.178.921-15.932" transform="translate(-4.739 -113.661)" fill="#c0f6ff"/>
    <path id="패스_92" data-name="패스 92" d="M949.839,648.005l-14.23,57.9a65.877,65.877,0,0,0,24.172,4.434l4.91-60.153Z" transform="translate(-19.565 -106.527)" fill="#c0f6ff"/>
    <path id="패스_93" data-name="패스 93" d="M968.712,647.71,981.193,706a65.921,65.921,0,0,1-24.3,3.715l-3.1-60.273Z" transform="translate(-10.476 -106.674)" fill="#c0f6ff"/>
    <path id="패스_94" data-name="패스 94" d="M951.073,630.662l-7.66,4.7,1.105,17.078,1.035,3.809a33.318,33.318,0,0,0,14.3,3.872,66.1,66.1,0,0,0,13.985-1.306l2.148-3.927,3.977-17.805-7.623-4.949Z" transform="translate(-15.666 -115.192)" fill="#c0f6ff"/>
    <path id="패스_95" data-name="패스 95" d="M959.5,646.924l-5.126-15.07-2.389.228,5.942,15.792Z" transform="translate(-11.384 -114.596)" fill="#f1f1f1"/>
    <path id="패스_96" data-name="패스 96" d="M953.011,632.006l-3.08.294,5.951,17.354,3.071-1.855Z" transform="translate(-12.41 -114.52)" fill="#7cdae6"/>
    <path id="패스_97" data-name="패스 97" d="M963.047,633.23,949.3,657.236l1.987.856L965.106,633.4Z" transform="translate(-12.723 -113.909)" fill="#f1f1f1"/>
    <path id="패스_98" data-name="패스 98" d="M967.952,633.636l-3.508-.292-13.816,24.691,3.266,1.407Z" transform="translate(-12.061 -113.852)" fill="#7cdae6"/>
    <path id="패스_99" data-name="패스 99" d="M1005.664,620.78a93.44,93.44,0,0,1,.118-9.394c.063-1.021.283-2.244,1.233-2.626a1.859,1.859,0,0,1,2.006.622,4.717,4.717,0,0,1,.891,2.035,23.308,23.308,0,0,1,.131,10.367Z" transform="translate(15.403 -126.185)" fill="#fdebd4"/>
    <path id="패스_100" data-name="패스 100" d="M1016.08,615.638l-11.285-1.536c-.178,1.745-.367,3.433-.564,5.072l14.093,1.738a47.044,47.044,0,0,0-2.245-5.274" transform="translate(14.72 -123.466)" fill="#c10b1e"/>
    <path id="패스_101" data-name="패스 101" d="M1007,617.484c-3.122,26.015-8.323,38.455-8.323,38.455l5.9,9.037c25.645-11.081,20.393-35.1,16.518-45.752Z" transform="translate(11.948 -121.776)" fill="#f8ed6e"/>
    <path id="패스_102" data-name="패스 102" d="M1001.9,664.184l-33.741,59.259s20.12,12,45.007,11.781c23.994-.213,31.534-7.812,31.534-7.812s2.947-41.4-16.575-73.218Z" transform="translate(-3.303 -103.434)" fill="#c10b1e"/>
    <path id="패스_103" data-name="패스 103" d="M1006.19,655.789s11.624,19.167,9.571,54.088" transform="translate(15.699 -102.638)" fill="none" stroke="#a60b1a" stroke-miterlimit="10" stroke-width="0.5"/>
    <path id="패스_104" data-name="패스 104" d="M1003.674,657.4s4.43,8.273,4.332,22.289" transform="translate(14.441 -101.834)" fill="none" stroke="#a60b1a" stroke-miterlimit="10" stroke-width="0.5"/>
    <path id="패스_105" data-name="패스 105" d="M998.921,660.99a155.075,155.075,0,0,1-18.912,43.575" transform="translate(2.618 -100.039)" fill="none" stroke="#a60b1a" stroke-miterlimit="10" stroke-width="0.5"/>
    <path id="패스_106" data-name="패스 106" d="M988.529,649.746c0,.546-.34,23.09-.34,23.09s17.994-.341,31.155-12.82l-15.971-17.492Z" transform="translate(6.705 -109.265)" fill="#f8ed6e"/>
    <path id="패스_107" data-name="패스 107" d="M1000.913,651.953l-8.984-5.988-1.892,1.476L1000.1,653.6Z" transform="translate(7.628 -107.546)" fill="#f1f1f1"/>
    <path id="패스_108" data-name="패스 108" d="M990.849,646.95l-2.44,1.9,10.905,7.47,1.594-3.215Z" transform="translate(6.815 -107.054)" fill="#c10b1e"/>
    <path id="패스_109" data-name="패스 109" d="M969.333,661.911q-4.474,1.435-8.791,3.313c-.939.409-2.013,1.033-2.049,2.056a1.86,1.86,0,0,0,1.27,1.674,4.722,4.722,0,0,0,2.216.144,23.311,23.311,0,0,0,9.79-3.413Z" transform="translate(-8.132 -99.579)" fill="#fdebd4"/>
    <path id="패스_110" data-name="패스 110" d="M995.573,645.18l-.562,13.992,2.135-.345.255-14.608Z" transform="translate(10.113 -108.418)" fill="#f1f1f1"/>
    <path id="패스_111" data-name="패스 111" d="M999.806,643.127l-3.116,1.638-.255,14.608,3.51-.567Z" transform="translate(10.825 -108.964)" fill="#c10b1e"/>
    <path id="패스_112" data-name="패스 112" d="M998.807,648.044s-11.091,10.317-32.071,19.309c1.117,3.157,2.825,8,4.071,11.523a28.806,28.806,0,0,0,16.269-2.278c12.016-5.4,17.685-22.934,17.685-22.934Z" transform="translate(-4.013 -106.507)" fill="#f8ed6e"/>
    <path id="패스_113" data-name="패스 113" d="M964.03,662.649l2.488,8.251a22.454,22.454,0,0,0,5.641,1.543c-1.245-3.526-2.954-8.365-4.071-11.523Z" transform="translate(-5.366 -100.074)" fill="#c10b1e"/>
    <path id="패스_114" data-name="패스 114" d="M1011.987,629.957c5.781,11.6,2.014,25.219-8.413,30.414s-23.567,0-29.346-11.6-.934-23.052,9.493-28.247,22.487-2.169,28.266,9.434" transform="translate(-1.505 -121.482)" fill="#252525"/>
    <path id="패스_115" data-name="패스 115" d="M978.344,641.1a2.177,2.177,0,0,0-2.657.759,3.294,3.294,0,0,0-.322,2.89,7.106,7.106,0,0,0,1.6,2.524,8.708,8.708,0,0,0,4.488,2.885,4.439,4.439,0,0,0,4.728-1.837Z" transform="translate(0.204 -110.073)" fill="#fdebd4"/>
    <path id="패스_116" data-name="패스 116" d="M998.854,630.848a2.174,2.174,0,0,1,2.206-1.663,3.3,3.3,0,0,1,2.5,1.482,7.082,7.082,0,0,1,1.048,2.8,8.7,8.7,0,0,1-.4,5.319,4.439,4.439,0,0,1-4.314,2.669Z" transform="translate(12.033 -115.93)" fill="#fdebd4"/>
    <path id="패스_117" data-name="패스 117" d="M1010.6,630.854c4.4,8.83,5.417,24.267-6.445,30.177s-24.075-3.95-28.473-12.78-.15-19.884,9.494-24.687,21.025-1.54,25.425,7.29" transform="translate(-0.414 -119.845)" fill="#fdebd4"/>
    <path id="패스_118" data-name="패스 118" d="M997.273,642.228c-.7,1.966-2.5,4.686-7.014,3.9a.483.483,0,0,1-.039-.942,14.682,14.682,0,0,0,6.271-3.472.481.481,0,0,1,.781.516" transform="translate(7.541 -109.739)" fill="#fd8686"/>
    <path id="패스_119" data-name="패스 119" d="M977.956,640.358s2.128-4.662,9.215-5.688a34.734,34.734,0,0,0-9.215,5.688" transform="translate(1.592 -113.189)" fill="#252525"/>
    <path id="패스_120" data-name="패스 120" d="M988.734,633.619s2.873-4.244,10.032-4.076a34.747,34.747,0,0,0-10.032,4.076" transform="translate(6.977 -115.753)" fill="#252525"/>
    <path id="패스_121" data-name="패스 121" d="M989.363,641.5a.283.283,0,0,1,.175-.52,3.482,3.482,0,0,0,1.725-.325,2.607,2.607,0,0,0,1.333-1.308.284.284,0,0,1,.543.108,2.172,2.172,0,0,1-1.257,2.243,2.545,2.545,0,0,1-2.519-.2" transform="translate(7.226 -110.938)" fill="#e2be88"/>
    <path id="패스_122" data-name="패스 122" d="M987.681,642.376a2.084,2.084,0,1,1-2.8-.936,2.085,2.085,0,0,1,2.8.936" transform="translate(4.477 -109.917)" fill="#fdcdc5"/>
    <path id="패스_123" data-name="패스 123" d="M988.125,630.917a2.084,2.084,0,1,1-2.8-.936,2.085,2.085,0,0,1,2.8.936" transform="translate(4.699 -115.642)" fill="#fdcdc5"/>
    <path id="패스_124" data-name="패스 124" d="M998.3,637.085a2.084,2.084,0,1,1-2.8-.936,2.085,2.085,0,0,1,2.8.936" transform="translate(9.784 -112.56)" fill="#fdcdc5"/>
    <path id="패스_125" data-name="패스 125" d="M981.565,625.937l-2.3-5.106,3.629,4.421" transform="translate(2.246 -120.104)" fill="#fdebd4"/>
    <path id="패스_126" data-name="패스 126" d="M989.107,638.7a7.562,7.562,0,0,0-6.183,2.5,5.736,5.736,0,0,1-3.088,1.386,4.441,4.441,0,0,0,2.615.176c1.176-.172,2.629-3.125,6.753-3.434.362-.027.262-.619-.1-.627" transform="translate(2.532 -111.178)" fill="#252525"/>
    <path id="패스_127" data-name="패스 127" d="M991.309,637.608A7.567,7.567,0,0,1,997,634.123a5.728,5.728,0,0,0,2.948-1.659,4.426,4.426,0,0,1-1.413,2.207c-.838.841-4.077.256-6.777,3.388-.236.273-.654-.158-.445-.452" transform="translate(8.235 -114.292)" fill="#252525"/>
    <line id="선_3" data-name="선 3" x1="0.171" y2="12.366" transform="translate(995.036 546.568)" fill="none" stroke="#f6c500" stroke-miterlimit="10" stroke-width="0.5"/>
    <line id="선_4" data-name="선 4" x2="4.317" y2="5.052" transform="translate(1014.021 537.223)" fill="none" stroke="#f6c500" stroke-miterlimit="10" stroke-width="0.5"/>
    <path id="패스_128" data-name="패스 128" d="M995.936,655.205l1.5,3.824,4.239-2.038-1.773-3.62Z" transform="translate(10.576 -103.846)" fill="#c10b1e"/>
    <path id="패스_129" data-name="패스 129" d="M998.323,655.378l6.91-4.833,2.41,5.16-8.02,2.707Z" transform="translate(11.768 -105.258)" fill="#c10b1e"/>
    <path id="패스_130" data-name="패스 130" d="M999.557,654.968a3.717,3.717,0,0,0-1.837,3.016c-.162,2.183-.457,20.047-8.2,38.248l3.881,2.011s9.314-25.851,7.405-41.241Z" transform="translate(7.368 -103.048)" fill="#c10b1e"/>
    <path id="패스_131" data-name="패스 131" d="M994.126,690.4l.087.027a38.212,38.212,0,0,0,3.75.916c1.554-9.047,3.472-24.292.988-34.331l-1.479-1.872a3.721,3.721,0,0,0-1.465,3.214,116.323,116.323,0,0,1-1.882,32.045" transform="translate(9.671 -102.963)" fill="#c10b1e"/>
    <path id="패스_132" data-name="패스 132" d="M961.211,602.741s-7.443-13.692-3.04-29.339c0,0,5.715,21.328,3.04,29.339" transform="translate(-8.989 -143.8)" fill="#a37b1f"/>
    <path id="패스_133" data-name="패스 133" d="M959.9,598.857s-1.476-10,4.7-18.54c0,0-1.281,14.26-4.7,18.54" transform="translate(-7.508 -140.345)" fill="#725313"/>
    <path id="패스_134" data-name="패스 134" d="M946.844,618.948a2.2,2.2,0,0,0-2.644-.916,3.339,3.339,0,0,0-1.948,2.206,7.193,7.193,0,0,0-.138,3.026,8.815,8.815,0,0,0,2.04,5,4.5,4.5,0,0,0,4.988,1.23Z" transform="translate(-16.362 -121.565)" fill="#fdebd4"/>
    <path id="패스_135" data-name="패스 135" d="M971.127,622.426a2.2,2.2,0,0,1,2.8-.094,3.34,3.34,0,0,1,1.21,2.683,7.2,7.2,0,0,1-.762,2.932,8.816,8.816,0,0,1-3.427,4.175,4.493,4.493,0,0,1-5.129-.3Z" transform="translate(-4.473 -119.58)" fill="#fdebd4"/>
    <path id="패스_136" data-name="패스 136" d="M983.59,626.831c-1.492,9.876-9.631,23.261-22.9,21.257s-17.652-17.28-16.16-27.157S955.976,604.37,966.763,606s18.319,10.956,16.827,20.833" transform="translate(-15.246 -127.637)" fill="#fdebd4"/>
    <path id="패스_137" data-name="패스 137" d="M948.365,619.368c1.578-.91,4.938-2.107,8.845.933a.267.267,0,0,1-.243.466,20.585,20.585,0,0,0-8.438-.906.265.265,0,0,1-.163-.493" transform="translate(-13.259 -121.343)" fill="#252525"/>
    <path id="패스_138" data-name="패스 138" d="M962.194,629.973c-1.695,1.308-4.953,2.828-8.486-.8a.43.43,0,0,1,.453-.705,14.876,14.876,0,0,0,7.7.741.429.429,0,0,1,.338.762" transform="translate(-10.585 -116.301)" fill="#fd8686"/>
    <path id="패스_139" data-name="패스 139" d="M947.578,615.651s4.475-2.626,10.946.648a35.155,35.155,0,0,0-10.946-.648" transform="translate(-13.585 -123.19)" fill="#252525"/>
    <path id="패스_140" data-name="패스 140" d="M960.135,616.665s4.85-1.844,10.685,2.459a35.155,35.155,0,0,0-10.685-2.459" transform="translate(-7.311 -122.381)" fill="#252525"/>
    <path id="패스_141" data-name="패스 141" d="M960.349,620.64c1.705-.835,4.964-1.674,8.366,1.522a.336.336,0,0,1-.352.559,19.018,19.018,0,0,0-7.849-1.447.335.335,0,0,1-.165-.634" transform="translate(-7.299 -120.58)" fill="#252525"/>
    <path id="패스_142" data-name="패스 142" d="M954.805,624.705a.4.4,0,0,1,.618-.454,4.868,4.868,0,0,0,2.23,1.012,3.646,3.646,0,0,0,2.572-.425.4.4,0,0,1,.532.558,3.031,3.031,0,0,1-3.235,1.554,3.553,3.553,0,0,1-2.717-2.245" transform="translate(-9.99 -118.441)" fill="#fdd794"/>
    <path id="패스_143" data-name="패스 143" d="M944.252,625.013c1.266,2.107,4.6-8.005,19.873-6.452s18.682,11.849,20.711,10.58-12.954-36.268-17.447-36.726-24.4,30.49-23.138,32.6" transform="translate(-15.276 -134.303)" fill="#252525"/>
    <path id="패스_144" data-name="패스 144" d="M954.14,626.8c-.669.133-1.29.366-1.956.505a3.818,3.818,0,0,1-2.065-.056,4.165,4.165,0,0,0,3.161,1.179,13.133,13.133,0,0,0,3.152-.853,5.781,5.781,0,0,1,2.215-.213,7.749,7.749,0,0,0-4.508-.562" transform="translate(-12.316 -117.187)" fill="#252525"/>
    <path id="패스_145" data-name="패스 145" d="M962.274,627.822c.629.266,1.189.618,1.815.889a3.832,3.832,0,0,0,2.032.361,4.169,4.169,0,0,1-3.334.517,13.217,13.217,0,0,1-2.915-1.47,5.789,5.789,0,0,0-2.126-.657,7.747,7.747,0,0,1,4.529.358" transform="translate(-8.506 -116.879)" fill="#252525"/>
    <path id="패스_146" data-name="패스 146" d="M952.621,633.075s1.479,7.639,3.962,8.09,5.97-6.982,5.97-6.982a14.664,14.664,0,0,1-5.015.22,15.2,15.2,0,0,1-4.917-1.329" transform="translate(-11.066 -113.986)" fill="#252525"/>
    <path id="패스_147" data-name="패스 147" d="M944.885,647.3a67.517,67.517,0,0,0,29.2,2.285l.576,3.449a58.534,58.534,0,0,1-30.468-2Z" transform="translate(-15.278 -106.877)" fill="#7cdae6"/>
    <path id="패스_148" data-name="패스 148" d="M952.707,648.653l.553,4.538,5.136-1.014-.9-4.394Z" transform="translate(-11.023 -106.638)" fill="#7cdae6"/>
    <path id="패스_149" data-name="패스 149" d="M955.509,649.23l8.792-3.281,1.158,6.229-9.4.682Z" transform="translate(-9.623 -107.554)" fill="#7cdae6"/>
    <path id="패스_150" data-name="패스 150" d="M960.336,648.843a4.134,4.134,0,0,0-2.819,2.737c-.783,2.308-6.081,21.47-19.5,38.923l3.622,3.248s17.238-25.257,19.469-42.369Z" transform="translate(-18.361 -106.108)" fill="#7cdae6"/>
    <path id="패스_151" data-name="패스 151" d="M944.055,686.121l.086.054c1.215.759,2.5,1.4,3.785,2.032,4.2-9.316,10.511-25.206,10.632-36.712l-1.074-2.428a4.136,4.136,0,0,0-2.471,3.053,129.539,129.539,0,0,1-10.958,34" transform="translate(-15.346 -105.996)" fill="#7cdae6"/>
    <path id="패스_152" data-name="패스 152" d="M941.968,634.615A30.636,30.636,0,0,0,890.6,656l31.182.925,1.153-.454Z" transform="translate(-42.051 -117.265)" fill="#fff"/>
  </g>
</svg>
