<svg xmlns="http://www.w3.org/2000/svg" width="180.329" height="95.372" viewBox="0 0 180.329 95.372">
  <g id="오브제_인삼_건물" transform="translate(-220.467 -533.586)">
    <rect id="사각형_463" data-name="사각형 463" width="41.724" height="95.372" transform="translate(220.467 533.586)" fill="#d1d1d1"/>
    <rect id="사각형_464" data-name="사각형 464" width="41.726" height="95.372" transform="translate(234.076 533.586)" fill="#a39b99"/>
    <path id="패스_486" data-name="패스 486" d="M642.832,713.91H484.719V673.751l16.721-17.646H634.354l8.477,17.646Z" transform="translate(-244.841 -102.48)" fill="#d1d1d1"/>
    <rect id="사각형_465" data-name="사각형 465" width="158.113" height="57.686" transform="translate(239.878 571.271)" fill="#a39b99"/>
    <rect id="사각형_466" data-name="사각형 466" width="5.97" height="57.686" transform="translate(267.204 571.271)" fill="#8e8887"/>
    <rect id="사각형_467" data-name="사각형 467" width="5.97" height="57.686" transform="translate(297.887 571.271)" fill="#8e8887"/>
    <rect id="사각형_468" data-name="사각형 468" width="5.97" height="57.686" transform="translate(328.568 571.271)" fill="#8e8887"/>
    <rect id="사각형_469" data-name="사각형 469" width="5.968" height="57.686" transform="translate(359.25 571.271)" fill="#8e8887"/>
    <path id="패스_487" data-name="패스 487" d="M600.244,731.437H575.572V672.72l6.9-16.614h11.609l6.16,17.124Z" transform="translate(-199.448 -102.48)" fill="#d1d1d1"/>
    <rect id="사각형_470" data-name="사각형 470" width="3.76" height="4.923" transform="translate(314.359 610.127)" fill="#8e8887"/>
    <rect id="사각형_471" data-name="사각형 471" width="3.76" height="4.923" transform="translate(314.359 603.074)" fill="#8e8887"/>
    <rect id="사각형_472" data-name="사각형 472" width="3.76" height="4.656" transform="translate(314.359 582.319)" fill="#8e8887"/>
    <rect id="사각형_473" data-name="사각형 473" width="3.76" height="4.79" transform="translate(314.359 589.105)" fill="#8e8887"/>
    <rect id="사각형_474" data-name="사각형 474" width="3.76" height="5.322" transform="translate(314.359 617.178)" fill="#8e8887"/>
    <rect id="사각형_475" data-name="사각형 475" width="3.76" height="4.923" transform="translate(314.359 596.023)" fill="#8e8887"/>
    <rect id="사각형_476" data-name="사각형 476" width="3.76" height="4.923" transform="translate(344.693 608.663)" fill="#8e8887"/>
    <rect id="사각형_477" data-name="사각형 477" width="3.76" height="4.923" transform="translate(344.693 601.61)" fill="#8e8887"/>
    <rect id="사각형_478" data-name="사각형 478" width="3.76" height="4.656" transform="translate(344.693 580.855)" fill="#8e8887"/>
    <rect id="사각형_479" data-name="사각형 479" width="3.76" height="4.79" transform="translate(344.693 587.641)" fill="#8e8887"/>
    <rect id="사각형_480" data-name="사각형 480" width="3.76" height="5.322" transform="translate(344.693 615.714)" fill="#8e8887"/>
    <rect id="사각형_481" data-name="사각형 481" width="3.76" height="4.923" transform="translate(344.693 594.559)" fill="#8e8887"/>
    <rect id="사각형_482" data-name="사각형 482" width="3.76" height="4.923" transform="translate(283.093 610.127)" fill="#8e8887"/>
    <rect id="사각형_483" data-name="사각형 483" width="3.76" height="4.923" transform="translate(283.093 603.074)" fill="#8e8887"/>
    <rect id="사각형_484" data-name="사각형 484" width="3.76" height="4.656" transform="translate(283.093 582.319)" fill="#8e8887"/>
    <rect id="사각형_485" data-name="사각형 485" width="3.76" height="4.79" transform="translate(283.093 589.105)" fill="#8e8887"/>
    <rect id="사각형_486" data-name="사각형 486" width="3.76" height="5.322" transform="translate(283.093 617.178)" fill="#8e8887"/>
    <rect id="사각형_487" data-name="사각형 487" width="3.76" height="4.923" transform="translate(283.093 596.023)" fill="#8e8887"/>
    <rect id="사각형_488" data-name="사각형 488" width="3.76" height="4.923" transform="translate(253.024 610.127)" fill="#8e8887"/>
    <rect id="사각형_489" data-name="사각형 489" width="3.76" height="4.923" transform="translate(253.024 603.074)" fill="#8e8887"/>
    <rect id="사각형_490" data-name="사각형 490" width="3.76" height="4.656" transform="translate(253.024 582.319)" fill="#8e8887"/>
    <rect id="사각형_491" data-name="사각형 491" width="3.76" height="4.79" transform="translate(253.024 589.105)" fill="#8e8887"/>
    <rect id="사각형_492" data-name="사각형 492" width="3.76" height="5.322" transform="translate(253.024 617.178)" fill="#8e8887"/>
    <rect id="사각형_493" data-name="사각형 493" width="3.76" height="4.923" transform="translate(253.024 596.023)" fill="#8e8887"/>
  </g>
</svg>
