<svg id="g티켓" xmlns="http://www.w3.org/2000/svg" xmlns:xlink="http://www.w3.org/1999/xlink" width="250" height="429.095" viewBox="0 0 250 429.095">
  <defs>
    <clipPath id="clip-path">
      <rect id="사각형_408" data-name="사각형 408" width="250" height="429.095" fill="rgba(0,0,0,0)"/>
    </clipPath>
  </defs>
  <g id="그룹_362" data-name="그룹 362" clip-path="url(#clip-path)">
    <path id="패스_1027" data-name="패스 1027" d="M7.569,296.946h7.589a7.69,7.69,0,0,1,7.569-7.681,7.69,7.69,0,0,1,7.569,7.681h7.589a7.57,7.57,0,1,1,15.139,0h7.588a7.57,7.57,0,1,1,15.139,0H83.34a7.57,7.57,0,1,1,15.138,0h7.589a7.57,7.57,0,1,1,15.138,0h7.589a7.57,7.57,0,1,1,15.139,0h7.589a7.57,7.57,0,1,1,15.138,0h7.589a7.57,7.57,0,1,1,15.138,0h7.589a7.57,7.57,0,1,1,15.138,0H219.7a7.57,7.57,0,1,1,15.139,0h7.589A7.69,7.69,0,0,1,250,289.265V15.629A15.4,15.4,0,0,0,234.848,0H143.939c0,10.789-8.479,19.536-18.939,19.536S106.06,10.789,106.06,0H15.151A15.4,15.4,0,0,0,0,15.629V289.265a7.69,7.69,0,0,1,7.569,7.681" fill="#fff"/>
    <path id="패스_1028" data-name="패스 1028" d="M209.473,263.192H40.527a16.135,16.135,0,0,1-16.135-16.135V52.711A16.135,16.135,0,0,1,40.527,36.575H209.473a16.135,16.135,0,0,1,16.135,16.136V247.057a16.135,16.135,0,0,1-16.135,16.135" fill="#bcd44a"/>
    <path id="패스_1029" data-name="패스 1029" d="M242.424,296.364c0-.038.006-.075.007-.114h-7.589c0,.039.006.076.006.114,0,3.668-3.392,6.642-7.576,6.642s-7.575-2.974-7.575-6.642c0-.038.006-.075.006-.114h-7.589c0,.039.007.076.007.114,0,3.668-3.392,6.642-7.576,6.642s-7.576-2.974-7.576-6.642c0-.038.006-.075.007-.114h-7.589c0,.039.007.076.007.114,0,3.668-3.392,6.642-7.576,6.642s-7.576-2.974-7.576-6.642c0-.038.006-.075.007-.114H166.66c0,.039.006.076.006.114,0,3.668-3.391,6.642-7.575,6.642s-7.576-2.974-7.576-6.642c0-.038.006-.075.006-.114h-7.588c0,.039.006.076.006.114,0,3.668-3.392,6.642-7.576,6.642s-7.575-2.974-7.575-6.642c0-.038.005-.075.006-.114h-7.589c0,.039.007.076.007.114,0,3.668-3.392,6.642-7.576,6.642s-7.576-2.974-7.576-6.642c0-.038.006-.075.007-.114H98.478c0,.039.007.076.007.114,0,3.668-3.392,6.642-7.576,6.642s-7.576-2.974-7.576-6.642c0-.038.006-.075.007-.114H75.751c0,.039.006.076.006.114,0,3.668-3.391,6.642-7.575,6.642s-7.576-2.974-7.576-6.642c0-.038.006-.075.006-.114H53.024c0,.039.006.076.006.114,0,3.668-3.392,6.642-7.576,6.642s-7.575-2.974-7.575-6.642c0-.038,0-.075.006-.114H30.3c0,.039.007.076.007.114,0,3.668-3.392,6.642-7.576,6.642s-7.576-2.974-7.576-6.642c0-.038.006-.075.007-.114H7.569c0,.039.007.076.007.114,0,3.668-3.392,6.642-7.576,6.642v112.8C0,423.147,6.783,429.1,15.151,429.1H106.06c0-9.171,8.48-16.606,18.94-16.606s18.939,7.435,18.939,16.606h90.909c8.368,0,15.152-5.948,15.152-13.285v-112.8c-4.184,0-7.576-2.974-7.576-6.642" fill="#bcd44a"/>
    <rect id="사각형_375" data-name="사각형 375" width="2.96" height="54.701" transform="translate(61.318 326.491)"/>
    <rect id="사각형_376" data-name="사각형 376" width="1.782" height="54.701" transform="translate(81.402 326.491)"/>
    <rect id="사각형_377" data-name="사각형 377" width="2.372" height="54.701" transform="translate(71.336 326.491)"/>
    <rect id="사각형_378" data-name="사각형 378" width="1.149" height="54.701" transform="translate(77.03 326.491)"/>
    <rect id="사각형_379" data-name="사각형 379" width="1.882" height="54.701" transform="translate(66.258 326.491)"/>
    <rect id="사각형_380" data-name="사각형 380" width="3.603" height="54.701" transform="translate(24.293 326.491)"/>
    <rect id="사각형_381" data-name="사각형 381" width="6.274" height="54.701" transform="translate(46.808 326.491)"/>
    <rect id="사각형_382" data-name="사각형 382" width="2.34" height="54.701" transform="translate(31.826 326.491)"/>
    <rect id="사각형_383" data-name="사각형 383" width="1.678" height="54.701" transform="translate(40.638 326.491)"/>
    <rect id="사각형_384" data-name="사각형 384" width="3.545" height="54.701" transform="translate(55.693 326.491)"/>
    <rect id="사각형_385" data-name="사각형 385" width="3.572" height="54.701" transform="translate(124.066 326.491)"/>
    <rect id="사각형_386" data-name="사각형 386" width="2.365" height="54.701" transform="translate(135.935 326.491)"/>
    <rect id="사각형_387" data-name="사각형 387" width="3.579" height="54.701" transform="translate(88.928 326.491)"/>
    <rect id="사각형_388" data-name="사각형 388" width="3.559" height="54.701" transform="translate(194.342 326.491)"/>
    <rect id="사각형_389" data-name="사각형 389" width="2.964" height="54.701" transform="translate(148.525 326.491)"/>
    <rect id="사각형_390" data-name="사각형 390" width="1.157" height="54.701" transform="translate(187.975 326.491)"/>
    <rect id="사각형_391" data-name="사각형 391" width="2.305" height="54.701" transform="translate(206.89 326.491)"/>
    <rect id="사각형_392" data-name="사각형 392" width="1.774" height="54.701" transform="translate(201.886 326.491)"/>
    <rect id="사각형_393" data-name="사각형 393" width="1.048" height="54.701" transform="translate(161.727 326.491)"/>
    <rect id="사각형_394" data-name="사각형 394" width="6.901" height="54.701" transform="translate(171.035 326.491)"/>
    <rect id="사각형_395" data-name="사각형 395" width="2.29" height="54.701" transform="translate(156.077 326.491)"/>
    <rect id="사각형_396" data-name="사각형 396" width="1.044" height="54.701" transform="translate(165.494 326.491)"/>
    <rect id="사각형_397" data-name="사각형 397" width="1.795" height="54.701" transform="translate(180.52 326.491)"/>
    <rect id="사각형_398" data-name="사각형 398" width="1.049" height="54.701" transform="translate(213.174 326.491)"/>
    <rect id="사각형_399" data-name="사각형 399" width="1.049" height="54.701" transform="translate(224.658 326.491)"/>
    <rect id="사각형_400" data-name="사각형 400" width="3.559" height="54.701" transform="translate(218.185 326.491)"/>
    <rect id="사각형_401" data-name="사각형 401" width="2.329" height="54.701" transform="translate(144.765 326.491)"/>
    <rect id="사각형_402" data-name="사각형 402" width="1.05" height="54.701" transform="translate(141.022 326.491)"/>
    <rect id="사각형_403" data-name="사각형 403" width="2.315" height="54.701" transform="translate(130.969 326.491)"/>
    <rect id="사각형_404" data-name="사각형 404" width="5.457" height="54.701" transform="translate(112.776 326.491)"/>
    <rect id="사각형_405" data-name="사각형 405" width="1.671" height="54.701" transform="translate(100.866 326.491)"/>
    <rect id="사각형_406" data-name="사각형 406" width="1.634" height="54.701" transform="translate(95.832 326.491)"/>
    <rect id="사각형_407" data-name="사각형 407" width="1.774" height="54.701" transform="translate(106.42 326.491)"/>
  </g>
</svg>
