<?xml version="1.0" encoding="UTF-8"?>
<svg id="_레이어_2" data-name="레이어 2" xmlns="http://www.w3.org/2000/svg" width="845" height="876.3" xmlns:xlink="http://www.w3.org/1999/xlink" viewBox="0 0 845 876.3">
  <defs>
    <clipPath id="clippath">
      <polygon points="634.1 463.1 708.4 462.7 748.5 483.8 734.7 498.3 673.8 497.3 615.7 499.1 599 484.7 634.1 463.1" fill="#275380" stroke-width="0"/>
    </clipPath>
    <clipPath id="clippath-1">
      <polygon points="640.3 422.7 702.4 422.3 736 439.9 724.4 452.1 673.5 451.3 624.9 452.7 611 440.7 640.3 422.7" fill="#275380" stroke-width="0"/>
    </clipPath>
    <clipPath id="clippath-2">
      <polygon points="643.7 383.6 702.7 383.3 734.5 400 723.5 411.5 675.3 410.7 629.1 412.1 615.9 400.8 643.7 383.6" fill="#275380" stroke-width="0"/>
    </clipPath>
    <clipPath id="clippath-3">
      <polygon points="643.1 347.4 699.1 347.1 729.3 363 718.9 373.9 673 373.2 629.2 374.5 616.6 363.7 643.1 347.4" fill="#275380" stroke-width="0"/>
    </clipPath>
    <clipPath id="clippath-4">
      <polygon points="646.5 311.9 697.2 311.6 724.5 326 715.1 335.9 673.6 335.2 634 336.4 622.6 326.6 646.5 311.9" fill="#275380" stroke-width="0"/>
    </clipPath>
    <clipPath id="clippath-5">
      <polygon points="649.9 283.5 693.9 283.2 717.7 295.7 709.5 304.3 673.4 303.7 639 304.8 629.1 296.3 649.9 283.5" fill="#275380" stroke-width="0"/>
    </clipPath>
    <clipPath id="clippath-6">
      <polygon points="651.3 256.9 692.3 256.7 714.5 268.3 706.8 276.3 673.2 275.8 641.2 276.7 631.9 268.8 651.3 256.9" fill="#275380" stroke-width="0"/>
    </clipPath>
    <clipPath id="clippath-7">
      <polygon points="655 234 688.8 233.8 707.1 243.4 700.8 250 673.1 249.6 646.6 250.4 639 243.8 655 234" fill="#275380" stroke-width="0"/>
    </clipPath>
    <clipPath id="clippath-8">
      <polygon points="656.3 215.4 687.4 215.2 704.3 224 698.5 230.1 673 229.7 648.6 230.4 641.6 224.4 656.3 215.4" fill="#275380" stroke-width="0"/>
    </clipPath>
    <clipPath id="clippath-9">
      <rect x="152.5" y="385" width="396.9" height="187.5" fill="none" stroke-width="0"/>
    </clipPath>
    <clipPath id="clippath-10">
      <path d="m677.9,441.6c-38.2,4.4-81.9-20.1-81.9-20.1v-52.6c0,0-61.6,11.7-129.9,11.8s-129.9-11.5-129.9-11.5v52.6c0,0-43.6,24.6-81.8,20.3l-6.6,14.6s18.3,7.1,55.5,9.4c18.3,1.2,307.3.8,325.6-.4,37.2-2.4,55.5-9.5,55.5-9.5l-6.6-14.6Z" fill="#275380" stroke-width="0"/>
    </clipPath>
    <clipPath id="clippath-11">
      <polygon points="379.1 229.9 62.6 229.9 62.6 58.5 377.6 58.5 379.1 229.9" fill="none" stroke-width="0"/>
    </clipPath>
    <clipPath id="clippath-12">
      <rect x="100.6" y="229.7" width="447.8" height="155.3" fill="none" stroke-width="0"/>
    </clipPath>
    <clipPath id="clippath-13">
      <rect x="57.7" y="229.7" width="156.7" height="155.3" fill="none" stroke-width="0"/>
    </clipPath>
  </defs>
  <g id="_상" data-name="상">
    <g>
      <path d="m845,599.7V45.3c0-20.5-14.3-37.3-31.9-37.3h-341.8c-6.8,23.8-26,40.9-48.7,40.9s-41.9-17.2-48.7-40.9H31.9C14.4,8,0,24.8,0,45.3v447.7h0v346.7c0,20.1,14.1,36.6,31.3,36.6h15.7c0-6,4.2-10.9,9.3-10.9s9.3,4.9,9.3,10.9h11.9c0-6,4.2-10.9,9.3-10.9s9.3,4.9,9.3,10.9h11.9c0-6,4.2-10.9,9.3-10.9s9.3,4.9,9.3,10.9h11.9c0-6,4.2-10.9,9.3-10.9s9.3,4.9,9.3,10.9h11.9c0-6,4.2-10.9,9.3-10.9s9.3,4.9,9.3,10.9h11.9c0-6,4.2-10.9,9.3-10.9s9.3,4.9,9.3,10.9h11.9c0-6,4.2-10.9,9.3-10.9s9.3,4.9,9.3,10.9h11.9c0-6,4.2-10.9,9.3-10.9s9.3,4.9,9.3,10.9h11.9c0-6,4.2-10.9,9.3-10.9s9.3,4.9,9.3,10.9h11.9c0-6,4.2-10.9,9.3-10.9s9.3,4.9,9.3,10.9h11.9c0-6,4.2-10.9,9.3-10.9s9.3,4.9,9.3,10.9h11.9c0-6,4.2-10.9,9.3-10.9s9.3,4.9,9.3,10.9h11.9c0-6,4.2-10.9,9.3-10.9s9.3,4.9,9.3,10.9h11.9c0-6,4.2-10.9,9.3-10.9s9.3,4.9,9.3,10.9h11.9c0-6,4.2-10.9,9.3-10.9s9.3,4.9,9.3,10.9h11.9c0-6,4.2-10.9,9.3-10.9s9.3,4.9,9.3,10.9h11.9c0-6,4.2-10.9,9.3-10.9s9.3,4.9,9.3,10.9h11.9c0-6,4.2-10.9,9.3-10.9s9.3,4.9,9.3,10.9h11.9c0-6,4.2-10.9,9.3-10.9s9.3,4.9,9.3,10.9h11.9c0-6,4.2-10.9,9.3-10.9s9.3,4.9,9.3,10.9h11.9c0-6,4.2-10.9,9.3-10.9s9.3,4.9,9.3,10.9h11.9c0-6,4.2-10.9,9.3-10.9s9.3,4.9,9.3,10.9h11.9c0-6,4.2-10.9,9.3-10.9s9.3,4.9,9.3,10.9h11.9c0-6,4.2-10.9,9.3-10.9s9.3,4.9,9.3,10.9h11.9c0-6,4.2-10.9,9.3-10.9s9.3,4.9,9.3,10.9h15.1c17.2,0,31.3-16.5,31.3-36.6v-240h0Z" fill="#4d7da6" stroke-width="0"/>
      <g>
        <rect x="67.3" y="59" width="743.2" height="536.8" fill="#72bbff" stroke-width="0"/>
        <g>
          <rect x="405.3" y="201.9" width="536.8" height="250.9" transform="translate(1001.1 -346.3) rotate(90)" fill="#3c92d8" stroke-width="0"/>
          <g>
            <polygon points="727.9 544.2 620.4 544.9 653.8 228.5 693.4 228.2 727.9 544.2" fill="#275380" stroke-width="0"/>
            <rect x="612.7" y="501.6" width="122.4" height="12" transform="translate(-3.2 4.3) rotate(-.4)" fill="#275380" stroke-width="0"/>
            <path d="m747.4,565.5l-146.3.9v-4.6c0-9.3,7.4-16.9,16.7-16.9l112.7-.7c9.3,0,16.9,7.4,16.9,16.7v4.6Z" fill="#275380" stroke-width="0"/>
            <g>
              <polygon points="634.1 463.1 708.4 462.7 748.5 483.8 734.7 498.3 673.8 497.3 615.7 499.1 599 484.7 634.1 463.1" fill="#275380"/>
              <g clip-path="url(#clippath)">
                <line x1="650.2" y1="459.6" x2="646.4" y2="489.4" fill="none" stroke="#faf8f5" stroke-miterlimit="10" stroke-width="1.5"/>
                <line x1="698" y1="460.6" x2="703.9" y2="489" fill="none" stroke="#faf8f5" stroke-miterlimit="10" stroke-width="1.5"/>
              </g>
            </g>
            <path d="m599,484.4l6.4,18.6,138.4-.9,4.7-18.6s-23.3,20.5-45.5.3c0,0-30.6,18.5-57.2.4,0,0-15.2,20.5-46.9.3Z" fill="#69baff" stroke-width="0"/>
            <g>
              <polygon points="640.3 422.7 702.4 422.3 736 439.9 724.4 452.1 673.5 451.3 624.9 452.7 611 440.7 640.3 422.7" fill="#275380"/>
              <g clip-path="url(#clippath-1)">
                <line x1="652.1" y1="422.6" x2="650.9" y2="443.1" fill="none" stroke="#faf8f5" stroke-miterlimit="10" stroke-width="1.5"/>
                <line x1="695.1" y1="418.6" x2="698.9" y2="446.3" fill="none" stroke="#faf8f5" stroke-miterlimit="10" stroke-width="1.5"/>
              </g>
            </g>
            <path d="m611,440.5l5.3,15.5,115.7-.7,3.9-15.6s-19.5,17.1-38,.2c0,0-25.6,15.5-47.8.3,0,0-12.7,17.1-39.2.2Z" fill="#69baff" stroke-width="0"/>
            <g>
              <polygon points="643.7 383.6 702.7 383.3 734.5 400 723.5 411.5 675.3 410.7 629.1 412.1 615.9 400.8 643.7 383.6" fill="#275380"/>
              <g clip-path="url(#clippath-2)">
                <line x1="654.9" y1="383.6" x2="653.8" y2="403" fill="none" stroke="#faf8f5" stroke-miterlimit="10" stroke-width="1.5"/>
                <line x1="695.7" y1="379.8" x2="699.3" y2="406.1" fill="none" stroke="#faf8f5" stroke-miterlimit="10" stroke-width="1.5"/>
              </g>
            </g>
            <path d="m615.9,400.5l5.1,14.7,109.8-.7,3.7-14.8s-18.5,16.3-36.1.2c0,0-24.3,14.7-45.3.3,0,0-12,16.2-37.2.2Z" fill="#69baff" stroke-width="0"/>
            <g>
              <polygon points="643.1 347.4 699.1 347.1 729.3 363 718.9 373.9 673 373.2 629.2 374.5 616.6 363.7 643.1 347.4" fill="#275380"/>
              <g clip-path="url(#clippath-3)">
                <line x1="653.7" y1="347.4" x2="652.6" y2="365.8" fill="none" stroke="#faf8f5" stroke-miterlimit="10" stroke-width="1.5"/>
                <line x1="692.4" y1="343.7" x2="695.9" y2="368.7" fill="none" stroke="#faf8f5" stroke-miterlimit="10" stroke-width="1.5"/>
              </g>
            </g>
            <path d="m616.6,363.4l4.8,14,104.4-.7,3.5-14s-17.6,15.5-34.3.2c0,0-23.1,14-43.1.3,0,0-11.4,15.4-35.4.2Z" fill="#69baff" stroke-width="0"/>
            <g>
              <polygon points="646.5 311.9 697.2 311.6 724.5 326 715.1 335.9 673.6 335.2 634 336.4 622.6 326.6 646.5 311.9" fill="#275380"/>
              <g clip-path="url(#clippath-4)">
                <line x1="656.1" y1="311.9" x2="655.1" y2="328.6" fill="none" stroke="#faf8f5" stroke-miterlimit="10" stroke-width="1.5"/>
                <line x1="691.2" y1="308.6" x2="694.3" y2="331.2" fill="none" stroke="#faf8f5" stroke-miterlimit="10" stroke-width="1.5"/>
              </g>
            </g>
            <path d="m622.6,326.4l4.4,12.7,94.4-.6,3.2-12.7s-15.9,14-31,.2c0,0-20.9,12.6-39,.2,0,0-10.4,13.9-32,.2Z" fill="#69baff" stroke-width="0"/>
            <g>
              <polygon points="649.9 283.5 693.9 283.2 717.7 295.7 709.5 304.3 673.4 303.7 639 304.8 629.1 296.3 649.9 283.5" fill="#275380"/>
              <g clip-path="url(#clippath-5)">
                <line x1="658.2" y1="283.4" x2="657.4" y2="298" fill="none" stroke="#faf8f5" stroke-miterlimit="10" stroke-width="1.5"/>
                <line x1="688.7" y1="280.6" x2="691.4" y2="300.2" fill="none" stroke="#faf8f5" stroke-miterlimit="10" stroke-width="1.5"/>
              </g>
            </g>
            <path d="m629.1,296.1l3.8,11,82-.5,2.8-11s-13.8,12.1-26.9.2c0,0-18.1,11-33.9.2,0,0-9,12.1-27.8.2Z" fill="#69baff" stroke-width="0"/>
            <g>
              <polygon points="651.3 256.9 692.3 256.7 714.5 268.3 706.8 276.3 673.2 275.8 641.2 276.7 631.9 268.8 651.3 256.9" fill="#275380"/>
              <g clip-path="url(#clippath-6)">
                <line x1="659.1" y1="256.9" x2="658.3" y2="270.4" fill="none" stroke="#faf8f5" stroke-miterlimit="10" stroke-width="1.5"/>
                <line x1="687.4" y1="254.2" x2="690" y2="272.5" fill="none" stroke="#faf8f5" stroke-miterlimit="10" stroke-width="1.5"/>
              </g>
            </g>
            <path d="m631.9,268.6l3.5,10.2,76.4-.5,2.6-10.3s-12.9,11.3-25.1.2c0,0-16.9,10.2-31.5.2,0,0-8.4,11.3-25.9.2Z" fill="#69baff" stroke-width="0"/>
            <g>
              <polygon points="655 234 688.8 233.8 707.1 243.4 700.8 250 673.1 249.6 646.6 250.4 639 243.8 655 234" fill="#275380"/>
              <g clip-path="url(#clippath-7)">
                <line x1="661.4" y1="234" x2="660.7" y2="245.1" fill="none" stroke="#faf8f5" stroke-miterlimit="10" stroke-width="1.5"/>
                <line x1="684.8" y1="231.8" x2="686.9" y2="246.9" fill="none" stroke="#faf8f5" stroke-miterlimit="10" stroke-width="1.5"/>
              </g>
            </g>
            <path d="m639,243.7l2.9,8.5,63.1-.4,2.1-8.5s-10.6,9.3-20.7.1c0,0-13.9,8.4-26.1.2,0,0-6.9,9.3-21.4.1Z" fill="#69baff" stroke-width="0"/>
            <g>
              <polygon points="656.3 215.4 687.4 215.2 704.3 224 698.5 230.1 673 229.7 648.6 230.4 641.6 224.4 656.3 215.4" fill="#275380"/>
              <g clip-path="url(#clippath-8)">
                <line x1="662.2" y1="215.3" x2="661.6" y2="225.6" fill="none" stroke="#faf8f5" stroke-miterlimit="10" stroke-width="1.5"/>
                <line x1="683.7" y1="213.3" x2="685.7" y2="227.2" fill="none" stroke="#faf8f5" stroke-miterlimit="10" stroke-width="1.5"/>
              </g>
            </g>
            <path d="m641.6,224.3l2.7,7.8,58-.4,2-7.8s-9.8,8.6-19.1.1c0,0-12.8,7.8-24,.2,0,0-6.4,8.6-19.7.1Z" fill="#69baff" stroke-width="0"/>
            <polygon points="679.4 219.9 665.3 220 666.9 174.6 677 174.5 679.4 219.9" fill="#275380" stroke-width="0"/>
            <rect x="657.9" y="206.3" width="28.7" height="10.2" transform="translate(-1.3 4.2) rotate(-.4)" fill="#275380" stroke-width="0"/>
            <circle cx="620.9" cy="379.4" r="3.4" fill="#275380" stroke-width="0"/>
            <circle cx="726.8" cy="378.7" r="3.4" fill="#275380" stroke-width="0"/>
            <circle cx="626.1" cy="341.9" r="3.4" fill="#275380" stroke-width="0"/>
            <circle cx="721.3" cy="341.3" r="3.4" fill="#275380" stroke-width="0"/>
            <circle cx="631.5" cy="310.1" r="3.4" fill="#275380" stroke-width="0"/>
            <circle cx="714.7" cy="309.5" r="3.4" fill="#275380" stroke-width="0"/>
            <circle cx="634.7" cy="282.3" r="3.4" fill="#275380" stroke-width="0"/>
            <circle cx="712.4" cy="281.3" r="3.4" fill="#275380" stroke-width="0"/>
            <circle cx="640.3" cy="254.4" r="3.4" fill="#275380" stroke-width="0"/>
            <circle cx="706.4" cy="254" r="3.4" fill="#275380" stroke-width="0"/>
            <circle cx="619" cy="417.8" r="3.4" fill="#275380" stroke-width="0"/>
            <circle cx="732.4" cy="417" r="3.4" fill="#275380" stroke-width="0"/>
            <circle cx="615.8" cy="459.8" r="3.4" fill="#275380" stroke-width="0"/>
            <circle cx="732.7" cy="459.1" r="3.4" fill="#275380" stroke-width="0"/>
            <line x1="629.5" y1="513.9" x2="724.3" y2="513.3" fill="none" stroke="#faf8f5" stroke-miterlimit="10" stroke-width="1.5"/>
            <rect x="660.5" y="174.5" width="23" height="6.6" transform="translate(-1.1 4.2) rotate(-.4)" fill="#275380" stroke-width="0"/>
            <circle cx="671.6" cy="151.1" r="4.6" fill="#275380" stroke-width="0"/>
            <circle cx="671.7" cy="165.6" r="4.6" fill="#275380" stroke-width="0"/>
            <rect x="670.3" y="151.1" width="2.9" height="35.4" transform="translate(-1.1 4.2) rotate(-.4)" fill="#275380" stroke-width="0"/>
          </g>
        </g>
        <rect x="57.7" y="385" width="490.7" height="211.5" fill="#69b8f1" stroke-width="0"/>
        <g clip-path="url(#clippath-9)">
          <g>
            <rect x="307.4" y="472.3" width="315.9" height="81.1" transform="translate(-.6 .6) rotate(0)" fill="#cfae81" stroke-width="0"/>
            <rect x="309.1" y="494.4" width="313.2" height="50.2" transform="translate(-1.1 1) rotate(-.1)" fill="#ad8962" stroke-width="0"/>
            <polygon points="253.4 457.3 292.7 475.6 643.2 475.2 684.5 456.2 253.4 457.3" fill="#163c5b" stroke-width="0"/>
            <path d="m681.4,431.8s-38.2,9.2-81-15.6l.9-58.2s-51.4,14.1-135.1,14.3c-83.7,0-135.2-13.9-135.2-13.9l1,58.2c-42.7,24.9-80.9,15.8-80.9,15.8l5.8,15.7,208.3,9.7h0c0,.1,1,0,1,0h1s0,0,0,0l208.3-10.2,5.8-15.7Z" fill="#fbfbf6" stroke-width="0"/>
            <g>
              <path d="m677.9,441.6c-38.2,4.4-81.9-20.1-81.9-20.1v-52.6c0,0-61.6,11.7-129.9,11.8s-129.9-11.5-129.9-11.5v52.6c0,0-43.6,24.6-81.8,20.3l-6.6,14.6s18.3,7.1,55.5,9.4c18.3,1.2,307.3.8,325.6-.4,37.2-2.4,55.5-9.5,55.5-9.5l-6.6-14.6Z" fill="#275380"/>
              <g clip-path="url(#clippath-10)">
                <rect x="269.6" y="331.8" width="3.9" height="177.3" transform="translate(-.5 .3) rotate(0)" fill="#163c5b" stroke-width="0"/>
                <rect x="279.7" y="331.8" width="3.9" height="177.3" transform="translate(-.5 .3) rotate(0)" fill="#163c5b" stroke-width="0"/>
                <rect x="289.8" y="331.7" width="3.9" height="177.3" transform="translate(-.5 .4) rotate(0)" fill="#163c5b" stroke-width="0"/>
                <rect x="239.3" y="331.8" width="3.9" height="177.3" transform="translate(-.5 .3) rotate(0)" fill="#163c5b" stroke-width="0"/>
                <rect x="249.4" y="331.8" width="3.9" height="177.3" transform="translate(-.5 .3) rotate(0)" fill="#163c5b" stroke-width="0"/>
                <rect x="259.5" y="331.8" width="3.9" height="177.3" transform="translate(-.5 .3) rotate(0)" fill="#163c5b" stroke-width="0"/>
                <rect x="299.9" y="331.7" width="3.9" height="177.3" transform="translate(-.5 .4) rotate(0)" fill="#163c5b" stroke-width="0"/>
                <rect x="309.9" y="331.7" width="3.9" height="177.3" transform="translate(-.5 .4) rotate(0)" fill="#163c5b" stroke-width="0"/>
                <rect x="320" y="331.7" width="3.9" height="177.3" transform="translate(-.5 .4) rotate(0)" fill="#163c5b" stroke-width="0"/>
                <rect x="330.1" y="331.7" width="3.9" height="177.3" transform="translate(-.5 .4) rotate(0)" fill="#163c5b" stroke-width="0"/>
                <rect x="340.2" y="331.7" width="3.9" height="177.3" transform="translate(-.5 .4) rotate(0)" fill="#163c5b" stroke-width="0"/>
                <rect x="350.3" y="331.7" width="3.9" height="177.3" transform="translate(-.5 .4) rotate(0)" fill="#163c5b" stroke-width="0"/>
                <rect x="360.4" y="331.7" width="3.9" height="177.3" transform="translate(-.5 .4) rotate(0)" fill="#163c5b" stroke-width="0"/>
                <rect x="370.5" y="331.6" width="3.9" height="177.3" transform="translate(-.5 .4) rotate(0)" fill="#163c5b" stroke-width="0"/>
                <rect x="380.6" y="331.6" width="3.9" height="177.3" transform="translate(-.5 .5) rotate(0)" fill="#163c5b" stroke-width="0"/>
                <rect x="390.7" y="331.6" width="3.9" height="177.3" transform="translate(-.5 .5) rotate(0)" fill="#163c5b" stroke-width="0"/>
                <rect x="400.8" y="331.6" width="3.9" height="177.3" transform="translate(-.5 .5) rotate(0)" fill="#163c5b" stroke-width="0"/>
                <rect x="410.9" y="331.6" width="3.9" height="177.3" transform="translate(-.5 .5) rotate(0)" fill="#163c5b" stroke-width="0"/>
                <rect x="421" y="331.6" width="3.9" height="177.3" transform="translate(-.5 .5) rotate(0)" fill="#163c5b" stroke-width="0"/>
                <rect x="431.1" y="331.6" width="3.9" height="177.3" transform="translate(-.5 .5) rotate(0)" fill="#163c5b" stroke-width="0"/>
                <rect x="441.2" y="331.6" width="3.9" height="177.3" transform="translate(-.5 .5) rotate(0)" fill="#163c5b" stroke-width="0"/>
                <rect x="451.3" y="331.5" width="3.9" height="177.3" transform="translate(-.5 .5) rotate(0)" fill="#163c5b" stroke-width="0"/>
                <rect x="461.4" y="331.5" width="3.9" height="177.3" transform="translate(-.5 .6) rotate(0)" fill="#163c5b" stroke-width="0"/>
                <rect x="471.5" y="331.5" width="3.9" height="177.3" transform="translate(-.5 .6) rotate(0)" fill="#163c5b" stroke-width="0"/>
                <rect x="481.6" y="331.5" width="3.9" height="177.3" transform="translate(-.5 .6) rotate(0)" fill="#163c5b" stroke-width="0"/>
                <rect x="491.7" y="331.5" width="3.9" height="177.3" transform="translate(-.5 .6) rotate(0)" fill="#163c5b" stroke-width="0"/>
                <rect x="501.8" y="331.5" width="3.9" height="177.3" transform="translate(-.5 .6) rotate(0)" fill="#163c5b" stroke-width="0"/>
                <rect x="511.9" y="331.5" width="3.9" height="177.3" transform="translate(-.5 .6) rotate(0)" fill="#163c5b" stroke-width="0"/>
                <rect x="522" y="331.5" width="3.9" height="177.3" transform="translate(-.5 .6) rotate(0)" fill="#163c5b" stroke-width="0"/>
                <rect x="532.1" y="331.5" width="3.9" height="177.3" transform="translate(-.5 .6) rotate(0)" fill="#163c5b" stroke-width="0"/>
                <rect x="542.2" y="331.4" width="3.9" height="177.3" transform="translate(-.5 .7) rotate(0)" fill="#163c5b" stroke-width="0"/>
                <rect x="552.3" y="331.4" width="3.9" height="177.3" transform="translate(-.5 .7) rotate(0)" fill="#163c5b" stroke-width="0"/>
                <rect x="562.4" y="331.4" width="3.9" height="177.3" transform="translate(-.5 .7) rotate(0)" fill="#163c5b" stroke-width="0"/>
                <rect x="572.5" y="331.4" width="3.9" height="177.3" transform="translate(-.5 .7) rotate(0)" fill="#163c5b" stroke-width="0"/>
                <rect x="582.6" y="331.4" width="3.9" height="177.3" transform="translate(-.5 .7) rotate(0)" fill="#163c5b" stroke-width="0"/>
                <rect x="592.7" y="331.4" width="3.9" height="177.3" transform="translate(-.5 .7) rotate(0)" fill="#163c5b" stroke-width="0"/>
                <rect x="602.8" y="331.4" width="3.9" height="177.3" transform="translate(-.5 .7) rotate(0)" fill="#163c5b" stroke-width="0"/>
                <rect x="612.9" y="331.4" width="3.9" height="177.3" transform="translate(-.5 .7) rotate(0)" fill="#163c5b" stroke-width="0"/>
                <rect x="623" y="331.3" width="3.9" height="177.3" transform="translate(-.5 .8) rotate(0)" fill="#163c5b" stroke-width="0"/>
                <rect x="633.1" y="331.3" width="3.9" height="177.3" transform="translate(-.5 .8) rotate(0)" fill="#163c5b" stroke-width="0"/>
                <rect x="643.1" y="331.3" width="3.9" height="177.3" transform="translate(-.5 .8) rotate(0)" fill="#163c5b" stroke-width="0"/>
                <rect x="653.2" y="331.3" width="3.9" height="177.3" transform="translate(-.5 .8) rotate(0)" fill="#163c5b" stroke-width="0"/>
                <rect x="663.3" y="331.3" width="3.9" height="177.3" transform="translate(-.5 .8) rotate(0)" fill="#163c5b" stroke-width="0"/>
                <rect x="673.4" y="331.3" width="3.9" height="177.3" transform="translate(-.5 .8) rotate(0)" fill="#163c5b" stroke-width="0"/>
                <rect x="683.5" y="331.3" width="3.9" height="177.3" transform="translate(-.5 .8) rotate(0)" fill="#163c5b" stroke-width="0"/>
              </g>
            </g>
            <rect x="267.1" y="553" width="393.7" height="25.8" transform="translate(-.7 .6) rotate(0)" fill="#8b9ca8" stroke-width="0"/>
            <rect x="573.3" y="501.1" width="15.9" height="36.8" transform="translate(-.6 .7) rotate(0)" fill="#f2e6d6" stroke-width="0"/>
            <rect x="593.7" y="501" width="15.9" height="36.8" transform="translate(-.6 .7) rotate(0)" fill="#f2e6d6" stroke-width="0"/>
            <rect x="378.5" y="501.3" width="10.7" height="36.8" transform="translate(-.6 .5) rotate(0)" fill="#f2e6d6" stroke-width="0"/>
            <rect x="393.3" y="501.3" width="10.7" height="36.8" transform="translate(-.6 .5) rotate(0)" fill="#f2e6d6" stroke-width="0"/>
            <rect x="408" y="501.3" width="10.7" height="36.8" transform="translate(-.6 .5) rotate(0)" fill="#f2e6d6" stroke-width="0"/>
            <rect x="443.7" y="501.2" width="10.7" height="36.8" transform="translate(-.6 .5) rotate(0)" fill="#f2e6d6" stroke-width="0"/>
            <rect x="458.5" y="501.2" width="10.7" height="36.8" transform="translate(-.6 .6) rotate(0)" fill="#f2e6d6" stroke-width="0"/>
            <rect x="473.2" y="501.2" width="10.7" height="36.8" transform="translate(-.6 .6) rotate(0)" fill="#f2e6d6" stroke-width="0"/>
            <rect x="508.7" y="501.1" width="10.7" height="36.8" transform="translate(-.6 .6) rotate(0)" fill="#f2e6d6" stroke-width="0"/>
            <rect x="523.5" y="501.1" width="10.7" height="36.8" transform="translate(-.6 .6) rotate(0)" fill="#f2e6d6" stroke-width="0"/>
            <rect x="538.2" y="501.1" width="10.7" height="36.8" transform="translate(-.6 .7) rotate(0)" fill="#f2e6d6" stroke-width="0"/>
            <rect x="320.1" y="501.4" width="15.9" height="36.8" transform="translate(-.6 .4) rotate(0)" fill="#f2e6d6" stroke-width="0"/>
            <rect x="340.5" y="501.3" width="15.9" height="36.8" transform="translate(-.6 .4) rotate(0)" fill="#f2e6d6" stroke-width="0"/>
            <polygon points="313.5 553.1 297.5 553.1 299.2 475.1 310.9 475 313.5 553.1" fill="#8c6944" stroke-width="0"/>
            <polygon points="377.1 553.2 361.1 553.2 362.8 474.9 374.5 474.9 377.1 553.2" fill="#8c6944" stroke-width="0"/>
            <polygon points="440.7 553 424.7 553.1 426.4 474.8 438 474.8 440.7 553" fill="#8c6944" stroke-width="0"/>
            <polygon points="504.3 552.9 488.3 552.9 490 474.6 501.6 474.6 504.3 552.9" fill="#8c6944" stroke-width="0"/>
            <polygon points="567.9 552.8 551.9 552.8 553.6 474.5 565.2 474.5 567.9 552.8" fill="#8c6944" stroke-width="0"/>
            <polygon points="631.5 552.6 615.5 552.7 617.2 474.4 628.8 474.3 631.5 552.6" fill="#8c6944" stroke-width="0"/>
            <rect x="316.1" y="478.9" width="40.2" height="11.5" transform="translate(-1 .7) rotate(-.1)" fill="#e6c193" stroke-width="0"/>
            <rect x="379.8" y="478.8" width="40.2" height="11.5" transform="translate(-1 .9) rotate(-.1)" fill="#e6c193" stroke-width="0"/>
            <rect x="443.5" y="478.6" width="40.2" height="11.5" transform="translate(-1 1) rotate(-.1)" fill="#e6c193" stroke-width="0"/>
            <rect x="507.2" y="478.5" width="40.2" height="11.5" transform="translate(-1 1.1) rotate(-.1)" fill="#e6c193" stroke-width="0"/>
            <rect x="570.9" y="478.4" width="40.2" height="11.5" transform="translate(-1 1.3) rotate(-.1)" fill="#e6c193" stroke-width="0"/>
            <rect x="297.4" y="475" width="15.9" height="5.8" transform="translate(-1 .7) rotate(-.1)" fill="#8c6944" stroke-width="0"/>
            <rect x="295" y="545.8" width="21.3" height="5.8" transform="translate(-1.2 .7) rotate(-.1)" fill="#8c6944" stroke-width="0"/>
            <rect x="361" y="474.9" width="15.9" height="5.8" transform="translate(-1 .8) rotate(-.1)" fill="#8c6944" stroke-width="0"/>
            <rect x="358.6" y="545.7" width="21.3" height="5.8" transform="translate(-1.2 .8) rotate(-.1)" fill="#8c6944" stroke-width="0"/>
            <rect x="424.5" y="474.8" width="15.9" height="5.8" transform="translate(-1 .9) rotate(-.1)" fill="#8c6944" stroke-width="0"/>
            <rect x="422.1" y="545.5" width="21.3" height="5.8" transform="translate(-1.2 .9) rotate(-.1)" fill="#8c6944" stroke-width="0"/>
            <rect x="488.1" y="474.6" width="15.9" height="5.8" transform="translate(-1 1.1) rotate(-.1)" fill="#8c6944" stroke-width="0"/>
            <rect x="485.7" y="545.4" width="21.3" height="5.8" transform="translate(-1.2 1.1) rotate(-.1)" fill="#8c6944" stroke-width="0"/>
            <rect x="551.7" y="474.5" width="15.9" height="5.8" transform="translate(-1 1.2) rotate(-.1)" fill="#8c6944" stroke-width="0"/>
            <rect x="549.3" y="545.2" width="21.3" height="5.8" transform="translate(-1.2 1.2) rotate(-.1)" fill="#8c6944" stroke-width="0"/>
            <rect x="615.2" y="474.4" width="15.9" height="5.8" transform="translate(-1 1.3) rotate(-.1)" fill="#8c6944" stroke-width="0"/>
            <rect x="612.9" y="545.1" width="21.3" height="5.8" transform="translate(-1.2 1.3) rotate(-.1)" fill="#8c6944" stroke-width="0"/>
            <rect x="267.1" y="551.4" width="393.7" height="2.8" transform="translate(-.7 .6) rotate(0)" fill="#fff" stroke-width="0"/>
            <line x1="313.5" y1="553.7" x2="313.5" y2="579.4" fill="none" stroke="#fff" stroke-miterlimit="10" stroke-width="1.7"/>
            <line x1="353.7" y1="553.2" x2="353.7" y2="579" fill="none" stroke="#fff" stroke-miterlimit="10" stroke-width="1.7"/>
            <line x1="313.5" y1="559.4" x2="353.7" y2="559.3" fill="none" stroke="#fff" stroke-miterlimit="10" stroke-width="1.7"/>
            <line x1="313.5" y1="567" x2="353.7" y2="566.9" fill="none" stroke="#fff" stroke-miterlimit="10" stroke-width="1.7"/>
            <line x1="313.5" y1="574.6" x2="353.7" y2="574.5" fill="none" stroke="#fff" stroke-miterlimit="10" stroke-width="1.7"/>
            <line x1="443.7" y1="553.6" x2="443.7" y2="579.3" fill="none" stroke="#fff" stroke-miterlimit="10" stroke-width="1.7"/>
            <line x1="483.9" y1="553.1" x2="483.9" y2="578.9" fill="none" stroke="#fff" stroke-miterlimit="10" stroke-width="1.7"/>
            <line x1="443.7" y1="559.2" x2="483.9" y2="559.2" fill="none" stroke="#fff" stroke-miterlimit="10" stroke-width="1.7"/>
            <line x1="443.7" y1="566.8" x2="483.9" y2="566.8" fill="none" stroke="#fff" stroke-miterlimit="10" stroke-width="1.7"/>
            <line x1="443.7" y1="574.5" x2="483.9" y2="574.4" fill="none" stroke="#fff" stroke-miterlimit="10" stroke-width="1.7"/>
            <line x1="573.9" y1="553.5" x2="573.9" y2="579.2" fill="none" stroke="#fff" stroke-miterlimit="10" stroke-width="1.7"/>
            <line x1="614.1" y1="553" x2="614.1" y2="578.7" fill="none" stroke="#fff" stroke-miterlimit="10" stroke-width="1.7"/>
            <line x1="573.9" y1="559.1" x2="614.1" y2="559.1" fill="none" stroke="#fff" stroke-miterlimit="10" stroke-width="1.7"/>
            <line x1="573.9" y1="566.7" x2="614.1" y2="566.7" fill="none" stroke="#fff" stroke-miterlimit="10" stroke-width="1.7"/>
            <line x1="573.9" y1="574.3" x2="614.1" y2="574.3" fill="none" stroke="#fff" stroke-miterlimit="10" stroke-width="1.7"/>
          </g>
        </g>
        <g>
          <rect x="59.7" y="58.5" width="321.6" height="171.3" fill="#25a6ff" stroke-width="0"/>
          <g clip-path="url(#clippath-11)">
            <g>
              <rect x="135.2" y="98.2" width="291.6" height="148.6" transform="translate(-1.6 2.6) rotate(-.5)" fill="#275380" stroke-width="0"/>
              <rect x="166.6" y="99.3" width="5.7" height="140.9" transform="translate(-1.6 1.6) rotate(-.5)" fill="#164163" stroke-width="0"/>
              <polygon points="192 120.6 423.7 118.5 423.7 113 187 115.2 188.4 269 193.4 269 192 120.6" fill="#164163" stroke-width="0"/>
              <path d="m220.8,149.4c-1.1,0-2.2,0-3.3,0,1.4-1.5,2.8-2.9,4.1-4.4.6-.7.2-2-.8-1.9-1.4,0-2.9,0-4.3,0,1.5-1.9,3.1-3.8,4.7-5.7.8-.9,0-2-1.1-1.9-1.5.2-3.1.3-4.6.2-1.4-.1-1.4,2.1,0,2.2.8,0,1.5,0,2.3,0-1.5,1.8-3,3.5-4.4,5.3-.6.8-.2,1.8.8,1.9,1.3.1,2.6.2,4,.2-1.4,1.5-2.7,2.9-4.1,4.4-.6.7-.2,1.9.8,1.9,2,0,3.9,0,5.9,0,1.4,0,1.4-2.2,0-2.2Z" fill="#164163" stroke-width="0"/>
              <path d="m221.1,169.7c-1.1,0-2.2,0-3.3,0,1.4-1.5,2.8-2.9,4.1-4.4.6-.7.2-2-.8-1.9-1.4,0-2.9,0-4.3,0,1.5-1.9,3.1-3.8,4.7-5.7.8-.9,0-2-1.1-1.9-1.5.2-3.1.3-4.6.2-1.4-.1-1.4,2.1,0,2.2.8,0,1.5,0,2.3,0-1.5,1.8-3,3.5-4.4,5.3-.6.8-.2,1.8.8,1.9,1.3.1,2.6.2,4,.2-1.4,1.5-2.7,2.9-4.1,4.4-.6.7-.2,1.9.8,1.9,2,0,3.9,0,5.9,0,1.4,0,1.4-2.2,0-2.2Z" fill="#164163" stroke-width="0"/>
              <path d="m221.3,190.1c-1.1,0-2.2,0-3.3,0,1.4-1.5,2.8-2.9,4.1-4.4.6-.7.2-2-.8-1.9-1.4,0-2.9,0-4.3,0,1.5-1.9,3.1-3.8,4.7-5.7.8-.9,0-2-1.1-1.9-1.5.2-3.1.3-4.6.2-1.4-.1-1.4,2.1,0,2.2.8,0,1.5,0,2.3,0-1.5,1.8-3,3.5-4.4,5.3-.6.8-.2,1.8.8,1.9,1.3.1,2.6.2,4,.2-1.4,1.5-2.7,2.9-4.1,4.4-.6.7-.2,1.9.8,1.9,2,0,3.9,0,5.9,0,1.4,0,1.4-2.2,0-2.2Z" fill="#164163" stroke-width="0"/>
              <path d="m221.6,210.4c-1.1,0-2.2,0-3.3,0,1.4-1.5,2.8-2.9,4.1-4.4.6-.7.2-2-.8-1.9-1.4,0-2.9,0-4.3,0,1.5-1.9,3.1-3.8,4.7-5.7.8-.9,0-2-1.1-1.9-1.5.2-3.1.3-4.6.2-1.4-.1-1.4,2.1,0,2.2.8,0,1.5,0,2.3,0-1.5,1.8-3,3.5-4.4,5.3-.6.8-.2,1.8.8,1.9,1.3.1,2.6.2,4,.2-1.4,1.5-2.7,2.9-4.1,4.4-.6.7-.2,1.9.8,1.9,2,0,3.9,0,5.9,0,1.4,0,1.4-2.2,0-2.2Z" fill="#164163" stroke-width="0"/>
              <path d="m222,250.7c-1.1,0-2.2,0-3.3,0,1.4-1.5,2.8-2.9,4.1-4.4.6-.7.2-2-.8-1.9-1.4,0-2.9,0-4.3,0,1.5-1.9,3.1-3.8,4.7-5.7.8-.9,0-2-1.1-1.9-1.5.2-3.1.3-4.6.2-1.4-.1-1.4,2.1,0,2.2.8,0,1.5,0,2.3,0-1.5,1.8-3,3.5-4.4,5.3-.6.8-.2,1.8.8,1.9,1.3.1,2.6.2,4,.2-1.4,1.5-2.7,2.9-4.1,4.4-.6.7-.2,1.9.8,1.9,2,0,3.9,0,5.9,0,1.4,0,1.4-2.2,0-2.2Z" fill="#164163" stroke-width="0"/>
              <path d="m261.1,149c-1.1,0-2.2,0-3.3,0,1.4-1.5,2.8-2.9,4.1-4.4.6-.7.2-2-.8-1.9-1.4,0-2.9,0-4.3,0,1.5-1.9,3.1-3.8,4.7-5.7.8-.9,0-2-1.1-1.9-1.5.2-3.1.3-4.6.2-1.4-.1-1.4,2.1,0,2.2.8,0,1.5,0,2.3,0-1.5,1.8-3,3.5-4.4,5.3-.6.8-.2,1.8.8,1.9,1.3.1,2.6.2,4,.2-1.4,1.5-2.7,2.9-4.1,4.4-.6.7-.2,1.9.8,1.9,2,0,3.9,0,5.9,0,1.4,0,1.4-2.2,0-2.2Z" fill="#164163" stroke-width="0"/>
              <path d="m261.4,169.3c-1.1,0-2.2,0-3.3,0,1.4-1.5,2.8-2.9,4.1-4.4.6-.7.2-2-.8-1.9-1.4,0-2.9,0-4.3,0,1.5-1.9,3.1-3.8,4.7-5.7.8-.9,0-2-1.1-1.9-1.5.2-3.1.3-4.6.2-1.4-.1-1.4,2.1,0,2.2.8,0,1.5,0,2.3,0-1.5,1.8-3,3.5-4.4,5.3-.6.8-.2,1.8.8,1.9,1.3.1,2.6.2,4,.2-1.4,1.5-2.7,2.9-4.1,4.4-.6.7-.2,1.9.8,1.9,2,0,3.9,0,5.9,0,1.4,0,1.4-2.2,0-2.2Z" fill="#164163" stroke-width="0"/>
              <path d="m261.7,189.7c-1.1,0-2.2,0-3.3,0,1.4-1.5,2.8-2.9,4.1-4.4.6-.7.2-2-.8-1.9-1.4,0-2.9,0-4.3,0,1.5-1.9,3.1-3.8,4.7-5.7.8-.9,0-2-1.1-1.9-1.5.2-3.1.3-4.6.2-1.4-.1-1.4,2.1,0,2.2.8,0,1.5,0,2.3,0-1.5,1.8-3,3.5-4.4,5.3-.6.8-.2,1.8.8,1.9,1.3.1,2.6.2,4,.2-1.4,1.5-2.7,2.9-4.1,4.4-.6.7-.2,1.9.8,1.9,2,0,3.9,0,5.9,0,1.4,0,1.4-2.2,0-2.2Z" fill="#164163" stroke-width="0"/>
              <path d="m262,210c-1.1,0-2.2,0-3.3,0,1.4-1.5,2.8-2.9,4.1-4.4.6-.7.2-2-.8-1.9-1.4,0-2.9,0-4.3,0,1.5-1.9,3.1-3.8,4.7-5.7.8-.9,0-2-1.1-1.9-1.5.2-3.1.3-4.6.2-1.4-.1-1.4,2.1,0,2.2.8,0,1.5,0,2.3,0-1.5,1.8-3,3.5-4.4,5.3-.6.8-.2,1.8.8,1.9,1.3.1,2.6.2,4,.2-1.4,1.5-2.7,2.9-4.1,4.4-.6.7-.2,1.9.8,1.9,2,0,3.9,0,5.9,0,1.4,0,1.4-2.2,0-2.2Z" fill="#164163" stroke-width="0"/>
              <path d="m262,230.1c-1.1,0-2.2,0-3.3,0,1.4-1.5,2.8-2.9,4.1-4.4.6-.7.2-2-.8-1.9-1.4,0-2.9,0-4.3,0,1.5-1.9,3.1-3.8,4.7-5.7.8-.9,0-2-1.1-1.9-1.5.2-3.1.3-4.6.2-1.4-.1-1.4,2.1,0,2.2.8,0,1.5,0,2.3,0-1.5,1.8-3,3.5-4.4,5.3-.6.8-.2,1.8.8,1.9,1.3.1,2.6.2,4,.2-1.4,1.5-2.7,2.9-4.1,4.4-.6.7-.2,1.9.8,1.9,2,0,3.9,0,5.9,0,1.4,0,1.4-2.2,0-2.2Z" fill="#164163" stroke-width="0"/>
              <path d="m262.3,250.3c-1.1,0-2.2,0-3.3,0,1.4-1.5,2.8-2.9,4.1-4.4.6-.7.2-2-.8-1.9-1.4,0-2.9,0-4.3,0,1.5-1.9,3.1-3.8,4.7-5.7.8-.9,0-2-1.1-1.9-1.5.2-3.1.3-4.6.2-1.4-.1-1.4,2.1,0,2.2.8,0,1.5,0,2.3,0-1.5,1.8-3,3.5-4.4,5.3-.6.8-.2,1.8.8,1.9,1.3.1,2.6.2,4,.2-1.4,1.5-2.7,2.9-4.1,4.4-.6.7-.2,1.9.8,1.9,2,0,3.9,0,5.9,0,1.4,0,1.4-2.2,0-2.2Z" fill="#164163" stroke-width="0"/>
              <path d="m278,148.9c-1.1,0-2.2,0-3.3,0,1.4-1.5,2.8-2.9,4.1-4.4.6-.7.2-2-.8-1.9-1.4,0-2.9,0-4.3,0,1.5-1.9,3.1-3.8,4.7-5.7.8-.9,0-2-1.1-1.9-1.5.2-3.1.3-4.6.2-1.4-.1-1.4,2.1,0,2.2.8,0,1.5,0,2.3,0-1.5,1.8-3,3.5-4.4,5.3-.6.8-.2,1.8.8,1.9,1.3.1,2.6.2,4,.2-1.4,1.5-2.7,2.9-4.1,4.4-.6.7-.2,1.9.8,1.9,2,0,3.9,0,5.9,0,1.4,0,1.4-2.2,0-2.2Z" fill="#164163" stroke-width="0"/>
              <path d="m278.3,169.2c-1.1,0-2.2,0-3.3,0,1.4-1.5,2.8-2.9,4.1-4.4.6-.7.2-2-.8-1.9-1.4,0-2.9,0-4.3,0,1.5-1.9,3.1-3.8,4.7-5.7.8-.9,0-2-1.1-1.9-1.5.2-3.1.3-4.6.2-1.4-.1-1.4,2.1,0,2.2.8,0,1.5,0,2.3,0-1.5,1.8-3,3.5-4.4,5.3-.6.8-.2,1.8.8,1.9,1.3.1,2.6.2,4,.2-1.4,1.5-2.7,2.9-4.1,4.4-.6.7-.2,1.9.8,1.9,2,0,3.9,0,5.9,0,1.4,0,1.4-2.2,0-2.2Z" fill="#164163" stroke-width="0"/>
              <path d="m278.6,189.6c-1.1,0-2.2,0-3.3,0,1.4-1.5,2.8-2.9,4.1-4.4.6-.7.2-2-.8-1.9-1.4,0-2.9,0-4.3,0,1.5-1.9,3.1-3.8,4.7-5.7.8-.9,0-2-1.1-1.9-1.5.2-3.1.3-4.6.2-1.4-.1-1.4,2.1,0,2.2.8,0,1.5,0,2.3,0-1.5,1.8-3,3.5-4.4,5.3-.6.8-.2,1.8.8,1.9,1.3.1,2.6.2,4,.2-1.4,1.5-2.7,2.9-4.1,4.4-.6.7-.2,1.9.8,1.9,2,0,3.9,0,5.9,0,1.4,0,1.4-2.2,0-2.2Z" fill="#164163" stroke-width="0"/>
              <path d="m278.9,209.9c-1.1,0-2.2,0-3.3,0,1.4-1.5,2.8-2.9,4.1-4.4.6-.7.2-2-.8-1.9-1.4,0-2.9,0-4.3,0,1.5-1.9,3.1-3.8,4.7-5.7.8-.9,0-2-1.1-1.9-1.5.2-3.1.3-4.6.2-1.4-.1-1.4,2.1,0,2.2.8,0,1.5,0,2.3,0-1.5,1.8-3,3.5-4.4,5.3-.6.8-.2,1.8.8,1.9,1.3.1,2.6.2,4,.2-1.4,1.5-2.7,2.9-4.1,4.4-.6.7-.2,1.9.8,1.9,2,0,3.9,0,5.9,0,1.4,0,1.4-2.2,0-2.2Z" fill="#164163" stroke-width="0"/>
              <path d="m278.9,229.9c-1.1,0-2.2,0-3.3,0,1.4-1.5,2.8-2.9,4.1-4.4.6-.7.2-2-.8-1.9-1.4,0-2.9,0-4.3,0,1.5-1.9,3.1-3.8,4.7-5.7.8-.9,0-2-1.1-1.9-1.5.2-3.1.3-4.6.2-1.4-.1-1.4,2.1,0,2.2.8,0,1.5,0,2.3,0-1.5,1.8-3,3.5-4.4,5.3-.6.8-.2,1.8.8,1.9,1.3.1,2.6.2,4,.2-1.4,1.5-2.7,2.9-4.1,4.4-.6.7-.2,1.9.8,1.9,2,0,3.9,0,5.9,0,1.4,0,1.4-2.2,0-2.2Z" fill="#164163" stroke-width="0"/>
              <path d="m279.2,250.2c-1.1,0-2.2,0-3.3,0,1.4-1.5,2.8-2.9,4.1-4.4.6-.7.2-2-.8-1.9-1.4,0-2.9,0-4.3,0,1.5-1.9,3.1-3.8,4.7-5.7.8-.9,0-2-1.1-1.9-1.5.2-3.1.3-4.6.2-1.4-.1-1.4,2.1,0,2.2.8,0,1.5,0,2.3,0-1.5,1.8-3,3.5-4.4,5.3-.6.8-.2,1.8.8,1.9,1.3.1,2.6.2,4,.2-1.4,1.5-2.7,2.9-4.1,4.4-.6.7-.2,1.9.8,1.9,2,0,3.9,0,5.9,0,1.4,0,1.4-2.2,0-2.2Z" fill="#164163" stroke-width="0"/>
              <path d="m294.9,148.7c-1.1,0-2.2,0-3.3,0,1.4-1.5,2.8-2.9,4.1-4.4.6-.7.2-2-.8-1.9-1.4,0-2.9,0-4.3,0,1.5-1.9,3.1-3.8,4.7-5.7.8-.9,0-2-1.1-1.9-1.5.2-3.1.3-4.6.2-1.4-.1-1.4,2.1,0,2.2.8,0,1.5,0,2.3,0-1.5,1.8-3,3.5-4.4,5.3-.6.8-.2,1.8.8,1.9,1.3.1,2.6.2,4,.2-1.4,1.5-2.7,2.9-4.1,4.4-.6.7-.2,1.9.8,1.9,2,0,3.9,0,5.9,0,1.4,0,1.4-2.2,0-2.2Z" fill="#164163" stroke-width="0"/>
              <path d="m295.2,169c-1.1,0-2.2,0-3.3,0,1.4-1.5,2.8-2.9,4.1-4.4.6-.7.2-2-.8-1.9-1.4,0-2.9,0-4.3,0,1.5-1.9,3.1-3.8,4.7-5.7.8-.9,0-2-1.1-1.9-1.5.2-3.1.3-4.6.2-1.4-.1-1.4,2.1,0,2.2.8,0,1.5,0,2.3,0-1.5,1.8-3,3.5-4.4,5.3-.6.8-.2,1.8.8,1.9,1.3.1,2.6.2,4,.2-1.4,1.5-2.7,2.9-4.1,4.4-.6.7-.2,1.9.8,1.9,2,0,3.9,0,5.9,0,1.4,0,1.4-2.2,0-2.2Z" fill="#164163" stroke-width="0"/>
              <path d="m295.5,189.4c-1.1,0-2.2,0-3.3,0,1.4-1.5,2.8-2.9,4.1-4.4.6-.7.2-2-.8-1.9-1.4,0-2.9,0-4.3,0,1.5-1.9,3.1-3.8,4.7-5.7.8-.9,0-2-1.1-1.9-1.5.2-3.1.3-4.6.2-1.4-.1-1.4,2.1,0,2.2.8,0,1.5,0,2.3,0-1.5,1.8-3,3.5-4.4,5.3-.6.8-.2,1.8.8,1.9,1.3.1,2.6.2,4,.2-1.4,1.5-2.7,2.9-4.1,4.4-.6.7-.2,1.9.8,1.9,2,0,3.9,0,5.9,0,1.4,0,1.4-2.2,0-2.2Z" fill="#164163" stroke-width="0"/>
              <path d="m295.8,209.7c-1.1,0-2.2,0-3.3,0,1.4-1.5,2.8-2.9,4.1-4.4.6-.7.2-2-.8-1.9-1.4,0-2.9,0-4.3,0,1.5-1.9,3.1-3.8,4.7-5.7.8-.9,0-2-1.1-1.9-1.5.2-3.1.3-4.6.2-1.4-.1-1.4,2.1,0,2.2.8,0,1.5,0,2.3,0-1.5,1.8-3,3.5-4.4,5.3-.6.8-.2,1.8.8,1.9,1.3.1,2.6.2,4,.2-1.4,1.5-2.7,2.9-4.1,4.4-.6.7-.2,1.9.8,1.9,2,0,3.9,0,5.9,0,1.4,0,1.4-2.2,0-2.2Z" fill="#164163" stroke-width="0"/>
              <path d="m295.8,229.7c-1.1,0-2.2,0-3.3,0,1.4-1.5,2.8-2.9,4.1-4.4.6-.7.2-2-.8-1.9-1.4,0-2.9,0-4.3,0,1.5-1.9,3.1-3.8,4.7-5.7.8-.9,0-2-1.1-1.9-1.5.2-3.1.3-4.6.2-1.4-.1-1.4,2.1,0,2.2.8,0,1.5,0,2.3,0-1.5,1.8-3,3.5-4.4,5.3-.6.8-.2,1.8.8,1.9,1.3.1,2.6.2,4,.2-1.4,1.5-2.7,2.9-4.1,4.4-.6.7-.2,1.9.8,1.9,2,0,3.9,0,5.9,0,1.4,0,1.4-2.2,0-2.2Z" fill="#164163" stroke-width="0"/>
              <path d="m296.1,250c-1.1,0-2.2,0-3.3,0,1.4-1.5,2.8-2.9,4.1-4.4.6-.7.2-2-.8-1.9-1.4,0-2.9,0-4.3,0,1.5-1.9,3.1-3.8,4.7-5.7.8-.9,0-2-1.1-1.9-1.5.2-3.1.3-4.6.2-1.4-.1-1.4,2.1,0,2.2.8,0,1.5,0,2.3,0-1.5,1.8-3,3.5-4.4,5.3-.6.8-.2,1.8.8,1.9,1.3.1,2.6.2,4,.2-1.4,1.5-2.7,2.9-4.1,4.4-.6.7-.2,1.9.8,1.9,2,0,3.9,0,5.9,0,1.4,0,1.4-2.2,0-2.2Z" fill="#164163" stroke-width="0"/>
              <path d="m311.8,148.6c-1.1,0-2.2,0-3.3,0,1.4-1.5,2.8-2.9,4.1-4.4.6-.7.2-2-.8-1.9-1.4,0-2.9,0-4.3,0,1.5-1.9,3.1-3.8,4.7-5.7.8-.9,0-2-1.1-1.9-1.5.2-3.1.3-4.6.2-1.4-.1-1.4,2.1,0,2.2.8,0,1.5,0,2.3,0-1.5,1.8-3,3.5-4.4,5.3-.6.8-.2,1.8.8,1.9,1.3.1,2.6.2,4,.2-1.4,1.5-2.7,2.9-4.1,4.4-.6.7-.2,1.9.8,1.9,2,0,3.9,0,5.9,0,1.4,0,1.4-2.2,0-2.2Z" fill="#164163" stroke-width="0"/>
              <path d="m312.1,168.8c-1.1,0-2.2,0-3.3,0,1.4-1.5,2.8-2.9,4.1-4.4.6-.7.2-2-.8-1.9-1.4,0-2.9,0-4.3,0,1.5-1.9,3.1-3.8,4.7-5.7.8-.9,0-2-1.1-1.9-1.5.2-3.1.3-4.6.2-1.4-.1-1.4,2.1,0,2.2.8,0,1.5,0,2.3,0-1.5,1.8-3,3.5-4.4,5.3-.6.8-.2,1.8.8,1.9,1.3.1,2.6.2,4,.2-1.4,1.5-2.7,2.9-4.1,4.4-.6.7-.2,1.9.8,1.9,2,0,3.9,0,5.9,0,1.4,0,1.4-2.2,0-2.2Z" fill="#164163" stroke-width="0"/>
              <path d="m312.4,189.3c-1.1,0-2.2,0-3.3,0,1.4-1.5,2.8-2.9,4.1-4.4.6-.7.2-2-.8-1.9-1.4,0-2.9,0-4.3,0,1.5-1.9,3.1-3.8,4.7-5.7.8-.9,0-2-1.1-1.9-1.5.2-3.1.3-4.6.2-1.4-.1-1.4,2.1,0,2.2.8,0,1.5,0,2.3,0-1.5,1.8-3,3.5-4.4,5.3-.6.8-.2,1.8.8,1.9,1.3.1,2.6.2,4,.2-1.4,1.5-2.7,2.9-4.1,4.4-.6.7-.2,1.9.8,1.9,2,0,3.9,0,5.9,0,1.4,0,1.4-2.2,0-2.2Z" fill="#164163" stroke-width="0"/>
              <path d="m312.7,209.5c-1.1,0-2.2,0-3.3,0,1.4-1.5,2.8-2.9,4.1-4.4.6-.7.2-2-.8-1.9-1.4,0-2.9,0-4.3,0,1.5-1.9,3.1-3.8,4.7-5.7.8-.9,0-2-1.1-1.9-1.5.2-3.1.3-4.6.2-1.4-.1-1.4,2.1,0,2.2.8,0,1.5,0,2.3,0-1.5,1.8-3,3.5-4.4,5.3-.6.8-.2,1.8.8,1.9,1.3.1,2.6.2,4,.2-1.4,1.5-2.7,2.9-4.1,4.4-.6.7-.2,1.9.8,1.9,2,0,3.9,0,5.9,0,1.4,0,1.4-2.2,0-2.2Z" fill="#164163" stroke-width="0"/>
              <path d="m312.7,229.6c-1.1,0-2.2,0-3.3,0,1.4-1.5,2.8-2.9,4.1-4.4.6-.7.2-2-.8-1.9-1.4,0-2.9,0-4.3,0,1.5-1.9,3.1-3.8,4.7-5.7.8-.9,0-2-1.1-1.9-1.5.2-3.1.3-4.6.2-1.4-.1-1.4,2.1,0,2.2.8,0,1.5,0,2.3,0-1.5,1.8-3,3.5-4.4,5.3-.6.8-.2,1.8.8,1.9,1.3.1,2.6.2,4,.2-1.4,1.5-2.7,2.9-4.1,4.4-.6.7-.2,1.9.8,1.9,2,0,3.9,0,5.9,0,1.4,0,1.4-2.2,0-2.2Z" fill="#164163" stroke-width="0"/>
              <path d="m313.1,249.9c-1.1,0-2.2,0-3.3,0,1.4-1.5,2.8-2.9,4.1-4.4.6-.7.2-2-.8-1.9-1.4,0-2.9,0-4.3,0,1.5-1.9,3.1-3.8,4.7-5.7.8-.9,0-2-1.1-1.9-1.5.2-3.1.3-4.6.2-1.4-.1-1.4,2.1,0,2.2.8,0,1.5,0,2.3,0-1.5,1.8-3,3.5-4.4,5.3-.6.8-.2,1.8.8,1.9,1.3.1,2.6.2,4,.2-1.4,1.5-2.7,2.9-4.1,4.4-.6.7-.2,1.9.8,1.9,2,0,3.9,0,5.9,0,1.4,0,1.4-2.2,0-2.2Z" fill="#164163" stroke-width="0"/>
              <path d="m328.7,148.4c-1.1,0-2.2,0-3.3,0,1.4-1.5,2.8-2.9,4.1-4.4.6-.7.2-2-.8-1.9-1.4,0-2.9,0-4.3,0,1.5-1.9,3.1-3.8,4.7-5.7.8-.9,0-2-1.1-1.9-1.5.2-3.1.3-4.6.2-1.4-.1-1.4,2.1,0,2.2.8,0,1.5,0,2.3,0-1.5,1.8-3,3.5-4.4,5.3-.6.8-.2,1.8.8,1.9,1.3.1,2.6.2,4,.2-1.4,1.5-2.7,2.9-4.1,4.4-.6.7-.2,1.9.8,1.9,2,0,3.9,0,5.9,0,1.4,0,1.4-2.2,0-2.2Z" fill="#164163" stroke-width="0"/>
              <path d="m329,168.7c-1.1,0-2.2,0-3.3,0,1.4-1.5,2.8-2.9,4.1-4.4.6-.7.2-2-.8-1.9-1.4,0-2.9,0-4.3,0,1.5-1.9,3.1-3.8,4.7-5.7.8-.9,0-2-1.1-1.9-1.5.2-3.1.3-4.6.2-1.4-.1-1.4,2.1,0,2.2.8,0,1.5,0,2.3,0-1.5,1.8-3,3.5-4.4,5.3-.6.8-.2,1.8.8,1.9,1.3.1,2.6.2,4,.2-1.4,1.5-2.7,2.9-4.1,4.4-.6.7-.2,1.9.8,1.9,2,0,3.9,0,5.9,0,1.4,0,1.4-2.2,0-2.2Z" fill="#164163" stroke-width="0"/>
              <path d="m329.3,189.1c-1.1,0-2.2,0-3.3,0,1.4-1.5,2.8-2.9,4.1-4.4.6-.7.2-2-.8-1.9-1.4,0-2.9,0-4.3,0,1.5-1.9,3.1-3.8,4.7-5.7.8-.9,0-2-1.1-1.9-1.5.2-3.1.3-4.6.2-1.4-.1-1.4,2.1,0,2.2.8,0,1.5,0,2.3,0-1.5,1.8-3,3.5-4.4,5.3-.6.8-.2,1.8.8,1.9,1.3.1,2.6.2,4,.2-1.4,1.5-2.7,2.9-4.1,4.4-.6.7-.2,1.9.8,1.9,2,0,3.9,0,5.9,0,1.4,0,1.4-2.2,0-2.2Z" fill="#164163" stroke-width="0"/>
              <path d="m329.6,209.4c-1.1,0-2.2,0-3.3,0,1.4-1.5,2.8-2.9,4.1-4.4.6-.7.2-2-.8-1.9-1.4,0-2.9,0-4.3,0,1.5-1.9,3.1-3.8,4.7-5.7.8-.9,0-2-1.1-1.9-1.5.2-3.1.3-4.6.2-1.4-.1-1.4,2.1,0,2.2.8,0,1.5,0,2.3,0-1.5,1.8-3,3.5-4.4,5.3-.6.8-.2,1.8.8,1.9,1.3.1,2.6.2,4,.2-1.4,1.5-2.7,2.9-4.1,4.4-.6.7-.2,1.9.8,1.9,2,0,3.9,0,5.9,0,1.4,0,1.4-2.2,0-2.2Z" fill="#164163" stroke-width="0"/>
              <path d="m329.7,229.4c-1.1,0-2.2,0-3.3,0,1.4-1.5,2.8-2.9,4.1-4.4.6-.7.2-2-.8-1.9-1.4,0-2.9,0-4.3,0,1.5-1.9,3.1-3.8,4.7-5.7.8-.9,0-2-1.1-1.9-1.5.2-3.1.3-4.6.2-1.4-.1-1.4,2.1,0,2.2.8,0,1.5,0,2.3,0-1.5,1.8-3,3.5-4.4,5.3-.6.8-.2,1.8.8,1.9,1.3.1,2.6.2,4,.2-1.4,1.5-2.7,2.9-4.1,4.4-.6.7-.2,1.9.8,1.9,2,0,3.9,0,5.9,0,1.4,0,1.4-2.2,0-2.2Z" fill="#164163" stroke-width="0"/>
              <path d="m330,249.7c-1.1,0-2.2,0-3.3,0,1.4-1.5,2.8-2.9,4.1-4.4.6-.7.2-2-.8-1.9-1.4,0-2.9,0-4.3,0,1.5-1.9,3.1-3.8,4.7-5.7.8-.9,0-2-1.1-1.9-1.5.2-3.1.3-4.6.2-1.4-.1-1.4,2.1,0,2.2.8,0,1.5,0,2.3,0-1.5,1.8-3,3.5-4.4,5.3-.6.8-.2,1.8.8,1.9,1.3.1,2.6.2,4,.2-1.4,1.5-2.7,2.9-4.1,4.4-.6.7-.2,1.9.8,1.9,2,0,3.9,0,5.9,0,1.4,0,1.4-2.2,0-2.2Z" fill="#164163" stroke-width="0"/>
              <path d="m345.9,147.5c-1.1,0-2.2,0-3.3,0,1.4-1.5,2.8-2.9,4.1-4.4.6-.7.2-2-.8-1.9-1.4,0-2.9,0-4.3,0,1.5-1.9,3.1-3.8,4.7-5.7.8-.9,0-2-1.1-1.9-1.5.2-3.1.3-4.6.2-1.4-.1-1.4,2.1,0,2.2.8,0,1.5,0,2.3,0-1.5,1.8-3,3.5-4.4,5.3-.6.8-.2,1.8.8,1.9,1.3.1,2.6.2,4,.2-1.4,1.5-2.7,2.9-4.1,4.4-.6.7-.2,1.9.8,1.9,2,0,3.9,0,5.9,0,1.4,0,1.4-2.2,0-2.2Z" fill="#164163" stroke-width="0"/>
              <path d="m346.2,167.8c-1.1,0-2.2,0-3.3,0,1.4-1.5,2.8-2.9,4.1-4.4.6-.7.2-2-.8-1.9-1.4,0-2.9,0-4.3,0,1.5-1.9,3.1-3.8,4.7-5.7.8-.9,0-2-1.1-1.9-1.5.2-3.1.3-4.6.2-1.4-.1-1.4,2.1,0,2.2.8,0,1.5,0,2.3,0-1.5,1.8-3,3.5-4.4,5.3-.6.8-.2,1.8.8,1.9,1.3.1,2.6.2,4,.2-1.4,1.5-2.7,2.9-4.1,4.4-.6.7-.2,1.9.8,1.9,2,0,3.9,0,5.9,0,1.4,0,1.4-2.2,0-2.2Z" fill="#164163" stroke-width="0"/>
              <path d="m346.4,188.2c-1.1,0-2.2,0-3.3,0,1.4-1.5,2.8-2.9,4.1-4.4.6-.7.2-2-.8-1.9-1.4,0-2.9,0-4.3,0,1.5-1.9,3.1-3.8,4.7-5.7.8-.9,0-2-1.1-1.9-1.5.2-3.1.3-4.6.2-1.4-.1-1.4,2.1,0,2.2.8,0,1.5,0,2.3,0-1.5,1.8-3,3.5-4.4,5.3-.6.8-.2,1.8.8,1.9,1.3.1,2.6.2,4,.2-1.4,1.5-2.7,2.9-4.1,4.4-.6.7-.2,1.9.8,1.9,2,0,3.9,0,5.9,0,1.4,0,1.4-2.2,0-2.2Z" fill="#164163" stroke-width="0"/>
              <path d="m346.7,208.5c-1.1,0-2.2,0-3.3,0,1.4-1.5,2.8-2.9,4.1-4.4.6-.7.2-2-.8-1.9-1.4,0-2.9,0-4.3,0,1.5-1.9,3.1-3.8,4.7-5.7.8-.9,0-2-1.1-1.9-1.5.2-3.1.3-4.6.2-1.4-.1-1.4,2.1,0,2.2.8,0,1.5,0,2.3,0-1.5,1.8-3,3.5-4.4,5.3-.6.8-.2,1.8.8,1.9,1.3.1,2.6.2,4,.2-1.4,1.5-2.7,2.9-4.1,4.4-.6.7-.2,1.9.8,1.9,2,0,3.9,0,5.9,0,1.4,0,1.4-2.2,0-2.2Z" fill="#164163" stroke-width="0"/>
              <path d="m346.8,228.5c-1.1,0-2.2,0-3.3,0,1.4-1.5,2.8-2.9,4.1-4.4.6-.7.2-2-.8-1.9-1.4,0-2.9,0-4.3,0,1.5-1.9,3.1-3.8,4.7-5.7.8-.9,0-2-1.1-1.9-1.5.2-3.1.3-4.6.2-1.4-.1-1.4,2.1,0,2.2.8,0,1.5,0,2.3,0-1.5,1.8-3,3.5-4.4,5.3-.6.8-.2,1.8.8,1.9,1.3.1,2.6.2,4,.2-1.4,1.5-2.7,2.9-4.1,4.4-.6.7-.2,1.9.8,1.9,2,0,3.9,0,5.9,0,1.4,0,1.4-2.2,0-2.2Z" fill="#164163" stroke-width="0"/>
              <path d="m347.1,248.8c-1.1,0-2.2,0-3.3,0,1.4-1.5,2.8-2.9,4.1-4.4.6-.7.2-2-.8-1.9-1.4,0-2.9,0-4.3,0,1.5-1.9,3.1-3.8,4.7-5.7.8-.9,0-2-1.1-1.9-1.5.2-3.1.3-4.6.2-1.4-.1-1.4,2.1,0,2.2.8,0,1.5,0,2.3,0-1.5,1.8-3,3.5-4.4,5.3-.6.8-.2,1.8.8,1.9,1.3.1,2.6.2,4,.2-1.4,1.5-2.7,2.9-4.1,4.4-.6.7-.2,1.9.8,1.9,2,0,3.9,0,5.9,0,1.4,0,1.4-2.2,0-2.2Z" fill="#164163" stroke-width="0"/>
              <path d="m361.8,147.5c-1.1,0-2.2,0-3.3,0,1.4-1.5,2.8-2.9,4.1-4.4.6-.7.2-2-.8-1.9-1.4,0-2.9,0-4.3,0,1.5-1.9,3.1-3.8,4.7-5.7.8-.9,0-2-1.1-1.9-1.5.2-3.1.3-4.6.2-1.4-.1-1.4,2.1,0,2.2.8,0,1.5,0,2.3,0-1.5,1.8-3,3.5-4.4,5.3-.6.8-.2,1.8.8,1.9,1.3.1,2.6.2,4,.2-1.4,1.5-2.7,2.9-4.1,4.4-.6.7-.2,1.9.8,1.9,2,0,3.9,0,5.9,0,1.4,0,1.4-2.2,0-2.2Z" fill="#164163" stroke-width="0"/>
              <path d="m362.1,167.8c-1.1,0-2.2,0-3.3,0,1.4-1.5,2.8-2.9,4.1-4.4.6-.7.2-2-.8-1.9-1.4,0-2.9,0-4.3,0,1.5-1.9,3.1-3.8,4.7-5.7.8-.9,0-2-1.1-1.9-1.5.2-3.1.3-4.6.2-1.4-.1-1.4,2.1,0,2.2.8,0,1.5,0,2.3,0-1.5,1.8-3,3.5-4.4,5.3-.6.8-.2,1.8.8,1.9,1.3.1,2.6.2,4,.2-1.4,1.5-2.7,2.9-4.1,4.4-.6.7-.2,1.9.8,1.9,2,0,3.9,0,5.9,0,1.4,0,1.4-2.2,0-2.2Z" fill="#164163" stroke-width="0"/>
              <path d="m362.4,188.2c-1.1,0-2.2,0-3.3,0,1.4-1.5,2.8-2.9,4.1-4.4.6-.7.2-2-.8-1.9-1.4,0-2.9,0-4.3,0,1.5-1.9,3.1-3.8,4.7-5.7.8-.9,0-2-1.1-1.9-1.5.2-3.1.3-4.6.2-1.4-.1-1.4,2.1,0,2.2.8,0,1.5,0,2.3,0-1.5,1.8-3,3.5-4.4,5.3-.6.8-.2,1.8.8,1.9,1.3.1,2.6.2,4,.2-1.4,1.5-2.7,2.9-4.1,4.4-.6.7-.2,1.9.8,1.9,2,0,3.9,0,5.9,0,1.4,0,1.4-2.2,0-2.2Z" fill="#164163" stroke-width="0"/>
              <path d="m362.7,208.5c-1.1,0-2.2,0-3.3,0,1.4-1.5,2.8-2.9,4.1-4.4.6-.7.2-2-.8-1.9-1.4,0-2.9,0-4.3,0,1.5-1.9,3.1-3.8,4.7-5.7.8-.9,0-2-1.1-1.9-1.5.2-3.1.3-4.6.2-1.4-.1-1.4,2.1,0,2.2.8,0,1.5,0,2.3,0-1.5,1.8-3,3.5-4.4,5.3-.6.8-.2,1.8.8,1.9,1.3.1,2.6.2,4,.2-1.4,1.5-2.7,2.9-4.1,4.4-.6.7-.2,1.9.8,1.9,2,0,3.9,0,5.9,0,1.4,0,1.4-2.2,0-2.2Z" fill="#164163" stroke-width="0"/>
              <path d="m362.8,228.6c-1.1,0-2.2,0-3.3,0,1.4-1.5,2.8-2.9,4.1-4.4.6-.7.2-2-.8-1.9-1.4,0-2.9,0-4.3,0,1.5-1.9,3.1-3.8,4.7-5.7.8-.9,0-2-1.1-1.9-1.5.2-3.1.3-4.6.2-1.4-.1-1.4,2.1,0,2.2.8,0,1.5,0,2.3,0-1.5,1.8-3,3.5-4.4,5.3-.6.8-.2,1.8.8,1.9,1.3.1,2.6.2,4,.2-1.4,1.5-2.7,2.9-4.1,4.4-.6.7-.2,1.9.8,1.9,2,0,3.9,0,5.9,0,1.4,0,1.4-2.2,0-2.2Z" fill="#164163" stroke-width="0"/>
              <path d="m363.1,248.9c-1.1,0-2.2,0-3.3,0,1.4-1.5,2.8-2.9,4.1-4.4.6-.7.2-2-.8-1.9-1.4,0-2.9,0-4.3,0,1.5-1.9,3.1-3.8,4.7-5.7.8-.9,0-2-1.1-1.9-1.5.2-3.1.3-4.6.2-1.4-.1-1.4,2.1,0,2.2.8,0,1.5,0,2.3,0-1.5,1.8-3,3.5-4.4,5.3-.6.8-.2,1.8.8,1.9,1.3.1,2.6.2,4,.2-1.4,1.5-2.7,2.9-4.1,4.4-.6.7-.2,1.9.8,1.9,2,0,3.9,0,5.9,0,1.4,0,1.4-2.2,0-2.2Z" fill="#164163" stroke-width="0"/>
              <path d="m378.1,147.2c-1.1,0-2.2,0-3.3,0,1.4-1.5,2.8-2.9,4.1-4.4.6-.7.2-2-.8-1.9-1.4,0-2.9,0-4.3,0,1.5-1.9,3.1-3.8,4.7-5.7.8-.9,0-2-1.1-1.9-1.5.2-3.1.3-4.6.2-1.4-.1-1.4,2.1,0,2.2.8,0,1.5,0,2.3,0-1.5,1.8-3,3.5-4.4,5.3-.6.8-.2,1.8.8,1.9,1.3.1,2.6.2,4,.2-1.4,1.5-2.7,2.9-4.1,4.4-.6.7-.2,1.9.8,1.9,2,0,3.9,0,5.9,0,1.4,0,1.4-2.2,0-2.2Z" fill="#164163" stroke-width="0"/>
              <path d="m378.4,167.5c-1.1,0-2.2,0-3.3,0,1.4-1.5,2.8-2.9,4.1-4.4.6-.7.2-2-.8-1.9-1.4,0-2.9,0-4.3,0,1.5-1.9,3.1-3.8,4.7-5.7.8-.9,0-2-1.1-1.9-1.5.2-3.1.3-4.6.2-1.4-.1-1.4,2.1,0,2.2.8,0,1.5,0,2.3,0-1.5,1.8-3,3.5-4.4,5.3-.6.8-.2,1.8.8,1.9,1.3.1,2.6.2,4,.2-1.4,1.5-2.7,2.9-4.1,4.4-.6.7-.2,1.9.8,1.9,2,0,3.9,0,5.9,0,1.4,0,1.4-2.2,0-2.2Z" fill="#164163" stroke-width="0"/>
              <path d="m378.7,187.9c-1.1,0-2.2,0-3.3,0,1.4-1.5,2.8-2.9,4.1-4.4.6-.7.2-2-.8-1.9-1.4,0-2.9,0-4.3,0,1.5-1.9,3.1-3.8,4.7-5.7.8-.9,0-2-1.1-1.9-1.5.2-3.1.3-4.6.2-1.4-.1-1.4,2.1,0,2.2.8,0,1.5,0,2.3,0-1.5,1.8-3,3.5-4.4,5.3-.6.8-.2,1.8.8,1.9,1.3.1,2.6.2,4,.2-1.4,1.5-2.7,2.9-4.1,4.4-.6.7-.2,1.9.8,1.9,2,0,3.9,0,5.9,0,1.4,0,1.4-2.2,0-2.2Z" fill="#164163" stroke-width="0"/>
              <path d="m379,208.2c-1.1,0-2.2,0-3.3,0,1.4-1.5,2.8-2.9,4.1-4.4.6-.7.2-2-.8-1.9-1.4,0-2.9,0-4.3,0,1.5-1.9,3.1-3.8,4.7-5.7.8-.9,0-2-1.1-1.9-1.5.2-3.1.3-4.6.2-1.4-.1-1.4,2.1,0,2.2.8,0,1.5,0,2.3,0-1.5,1.8-3,3.5-4.4,5.3-.6.8-.2,1.8.8,1.9,1.3.1,2.6.2,4,.2-1.4,1.5-2.7,2.9-4.1,4.4-.6.7-.2,1.9.8,1.9,2,0,3.9,0,5.9,0,1.4,0,1.4-2.2,0-2.2Z" fill="#164163" stroke-width="0"/>
              <path d="m379.1,228.2c-1.1,0-2.2,0-3.3,0,1.4-1.5,2.8-2.9,4.1-4.4.6-.7.2-2-.8-1.9-1.4,0-2.9,0-4.3,0,1.5-1.9,3.1-3.8,4.7-5.7.8-.9,0-2-1.1-1.9-1.5.2-3.1.3-4.6.2-1.4-.1-1.4,2.1,0,2.2.8,0,1.5,0,2.3,0-1.5,1.8-3,3.5-4.4,5.3-.6.8-.2,1.8.8,1.9,1.3.1,2.6.2,4,.2-1.4,1.5-2.7,2.9-4.1,4.4-.6.7-.2,1.9.8,1.9,2,0,3.9,0,5.9,0,1.4,0,1.4-2.2,0-2.2Z" fill="#164163" stroke-width="0"/>
              <path d="m379.4,248.5c-1.1,0-2.2,0-3.3,0,1.4-1.5,2.8-2.9,4.1-4.4.6-.7.2-2-.8-1.9-1.4,0-2.9,0-4.3,0,1.5-1.9,3.1-3.8,4.7-5.7.8-.9,0-2-1.1-1.9-1.5.2-3.1.3-4.6.2-1.4-.1-1.4,2.1,0,2.2.8,0,1.5,0,2.3,0-1.5,1.8-3,3.5-4.4,5.3-.6.8-.2,1.8.8,1.9,1.3.1,2.6.2,4,.2-1.4,1.5-2.7,2.9-4.1,4.4-.6.7-.2,1.9.8,1.9,2,0,3.9,0,5.9,0,1.4,0,1.4-2.2,0-2.2Z" fill="#164163" stroke-width="0"/>
              <path d="m395.9,147.4c-1.1,0-2.2,0-3.3,0,1.4-1.5,2.8-2.9,4.1-4.4.6-.7.2-2-.8-1.9-1.4,0-2.9,0-4.3,0,1.5-1.9,3.1-3.8,4.7-5.7.8-.9,0-2-1.1-1.9-1.5.2-3.1.3-4.6.2-1.4-.1-1.4,2.1,0,2.2.8,0,1.5,0,2.3,0-1.5,1.8-3,3.5-4.4,5.3-.6.8-.2,1.8.8,1.9,1.3.1,2.6.2,4,.2-1.4,1.5-2.7,2.9-4.1,4.4-.6.7-.2,1.9.8,1.9,2,0,3.9,0,5.9,0,1.4,0,1.4-2.2,0-2.2Z" fill="#164163" stroke-width="0"/>
              <path d="m396.2,167.7c-1.1,0-2.2,0-3.3,0,1.4-1.5,2.8-2.9,4.1-4.4.6-.7.2-2-.8-1.9-1.4,0-2.9,0-4.3,0,1.5-1.9,3.1-3.8,4.7-5.7.8-.9,0-2-1.1-1.9-1.5.2-3.1.3-4.6.2-1.4-.1-1.4,2.1,0,2.2.8,0,1.5,0,2.3,0-1.5,1.8-3,3.5-4.4,5.3-.6.8-.2,1.8.8,1.9,1.3.1,2.6.2,4,.2-1.4,1.5-2.7,2.9-4.1,4.4-.6.7-.2,1.9.8,1.9,2,0,3.9,0,5.9,0,1.4,0,1.4-2.2,0-2.2Z" fill="#164163" stroke-width="0"/>
              <path d="m396.4,188.1c-1.1,0-2.2,0-3.3,0,1.4-1.5,2.8-2.9,4.1-4.4.6-.7.2-2-.8-1.9-1.4,0-2.9,0-4.3,0,1.5-1.9,3.1-3.8,4.7-5.7.8-.9,0-2-1.1-1.9-1.5.2-3.1.3-4.6.2-1.4-.1-1.4,2.1,0,2.2.8,0,1.5,0,2.3,0-1.5,1.8-3,3.5-4.4,5.3-.6.8-.2,1.8.8,1.9,1.3.1,2.6.2,4,.2-1.4,1.5-2.7,2.9-4.1,4.4-.6.7-.2,1.9.8,1.9,2,0,3.9,0,5.9,0,1.4,0,1.4-2.2,0-2.2Z" fill="#164163" stroke-width="0"/>
              <path d="m396.7,208.4c-1.1,0-2.2,0-3.3,0,1.4-1.5,2.8-2.9,4.1-4.4.6-.7.2-2-.8-1.9-1.4,0-2.9,0-4.3,0,1.5-1.9,3.1-3.8,4.7-5.7.8-.9,0-2-1.1-1.9-1.5.2-3.1.3-4.6.2-1.4-.1-1.4,2.1,0,2.2.8,0,1.5,0,2.3,0-1.5,1.8-3,3.5-4.4,5.3-.6.8-.2,1.8.8,1.9,1.3.1,2.6.2,4,.2-1.4,1.5-2.7,2.9-4.1,4.4-.6.7-.2,1.9.8,1.9,2,0,3.9,0,5.9,0,1.4,0,1.4-2.2,0-2.2Z" fill="#164163" stroke-width="0"/>
              <path d="m396.8,228.4c-1.1,0-2.2,0-3.3,0,1.4-1.5,2.8-2.9,4.1-4.4.6-.7.2-2-.8-1.9-1.4,0-2.9,0-4.3,0,1.5-1.9,3.1-3.8,4.7-5.7.8-.9,0-2-1.1-1.9-1.5.2-3.1.3-4.6.2-1.4-.1-1.4,2.1,0,2.2.8,0,1.5,0,2.3,0-1.5,1.8-3,3.5-4.4,5.3-.6.8-.2,1.8.8,1.9,1.3.1,2.6.2,4,.2-1.4,1.5-2.7,2.9-4.1,4.4-.6.7-.2,1.9.8,1.9,2,0,3.9,0,5.9,0,1.4,0,1.4-2.2,0-2.2Z" fill="#164163" stroke-width="0"/>
              <path d="m397.1,248.7c-1.1,0-2.2,0-3.3,0,1.4-1.5,2.8-2.9,4.1-4.4.6-.7.2-2-.8-1.9-1.4,0-2.9,0-4.3,0,1.5-1.9,3.1-3.8,4.7-5.7.8-.9,0-2-1.1-1.9-1.5.2-3.1.3-4.6.2-1.4-.1-1.4,2.1,0,2.2.8,0,1.5,0,2.3,0-1.5,1.8-3,3.5-4.4,5.3-.6.8-.2,1.8.8,1.9,1.3.1,2.6.2,4,.2-1.4,1.5-2.7,2.9-4.1,4.4-.6.7-.2,1.9.8,1.9,2,0,3.9,0,5.9,0,1.4,0,1.4-2.2,0-2.2Z" fill="#164163" stroke-width="0"/>
              <path d="m411.9,147.5c-1.1,0-2.2,0-3.3,0,1.4-1.5,2.8-2.9,4.1-4.4.6-.7.2-2-.8-1.9-1.4,0-2.9,0-4.3,0,1.5-1.9,3.1-3.8,4.7-5.7.8-.9,0-2-1.1-1.9-1.5.2-3.1.3-4.6.2-1.4-.1-1.4,2.1,0,2.2.8,0,1.5,0,2.3,0-1.5,1.8-3,3.5-4.4,5.3-.6.8-.2,1.8.8,1.9,1.3.1,2.6.2,4,.2-1.4,1.5-2.7,2.9-4.1,4.4-.6.7-.2,1.9.8,1.9,2,0,3.9,0,5.9,0,1.4,0,1.4-2.2,0-2.2Z" fill="#164163" stroke-width="0"/>
              <path d="m412.2,167.7c-1.1,0-2.2,0-3.3,0,1.4-1.5,2.8-2.9,4.1-4.4.6-.7.2-2-.8-1.9-1.4,0-2.9,0-4.3,0,1.5-1.9,3.1-3.8,4.7-5.7.8-.9,0-2-1.1-1.9-1.5.2-3.1.3-4.6.2-1.4-.1-1.4,2.1,0,2.2.8,0,1.5,0,2.3,0-1.5,1.8-3,3.5-4.4,5.3-.6.8-.2,1.8.8,1.9,1.3.1,2.6.2,4,.2-1.4,1.5-2.7,2.9-4.1,4.4-.6.7-.2,1.9.8,1.9,2,0,3.9,0,5.9,0,1.4,0,1.4-2.2,0-2.2Z" fill="#164163" stroke-width="0"/>
              <path d="m412.5,188.2c-1.1,0-2.2,0-3.3,0,1.4-1.5,2.8-2.9,4.1-4.4.6-.7.2-2-.8-1.9-1.4,0-2.9,0-4.3,0,1.5-1.9,3.1-3.8,4.7-5.7.8-.9,0-2-1.1-1.9-1.5.2-3.1.3-4.6.2-1.4-.1-1.4,2.1,0,2.2.8,0,1.5,0,2.3,0-1.5,1.8-3,3.5-4.4,5.3-.6.8-.2,1.8.8,1.9,1.3.1,2.6.2,4,.2-1.4,1.5-2.7,2.9-4.1,4.4-.6.7-.2,1.9.8,1.9,2,0,3.9,0,5.9,0,1.4,0,1.4-2.2,0-2.2Z" fill="#164163" stroke-width="0"/>
              <path d="m412.8,208.4c-1.1,0-2.2,0-3.3,0,1.4-1.5,2.8-2.9,4.1-4.4.6-.7.2-2-.8-1.9-1.4,0-2.9,0-4.3,0,1.5-1.9,3.1-3.8,4.7-5.7.8-.9,0-2-1.1-1.9-1.5.2-3.1.3-4.6.2-1.4-.1-1.4,2.1,0,2.2.8,0,1.5,0,2.3,0-1.5,1.8-3,3.5-4.4,5.3-.6.8-.2,1.8.8,1.9,1.3.1,2.6.2,4,.2-1.4,1.5-2.7,2.9-4.1,4.4-.6.7-.2,1.9.8,1.9,2,0,3.9,0,5.9,0,1.4,0,1.4-2.2,0-2.2Z" fill="#164163" stroke-width="0"/>
              <path d="m412.8,228.5c-1.1,0-2.2,0-3.3,0,1.4-1.5,2.8-2.9,4.1-4.4.6-.7.2-2-.8-1.9-1.4,0-2.9,0-4.3,0,1.5-1.9,3.1-3.8,4.7-5.7.8-.9,0-2-1.1-1.9-1.5.2-3.1.3-4.6.2-1.4-.1-1.4,2.1,0,2.2.8,0,1.5,0,2.3,0-1.5,1.8-3,3.5-4.4,5.3-.6.8-.2,1.8.8,1.9,1.3.1,2.6.2,4,.2-1.4,1.5-2.7,2.9-4.1,4.4-.6.7-.2,1.9.8,1.9,2,0,3.9,0,5.9,0,1.4,0,1.4-2.2,0-2.2Z" fill="#164163" stroke-width="0"/>
              <path d="m413.1,248.8c-1.1,0-2.2,0-3.3,0,1.4-1.5,2.8-2.9,4.1-4.4.6-.7.2-2-.8-1.9-1.4,0-2.9,0-4.3,0,1.5-1.9,3.1-3.8,4.7-5.7.8-.9,0-2-1.1-1.9-1.5.2-3.1.3-4.6.2-1.4-.1-1.4,2.1,0,2.2.8,0,1.5,0,2.3,0-1.5,1.8-3,3.5-4.4,5.3-.6.8-.2,1.8.8,1.9,1.3.1,2.6.2,4,.2-1.4,1.5-2.7,2.9-4.1,4.4-.6.7-.2,1.9.8,1.9,2,0,3.9,0,5.9,0,1.4,0,1.4-2.2,0-2.2Z" fill="#164163" stroke-width="0"/>
              <path d="m219.1,148.1c-1.1,0-2.2,0-3.3,0,1.4-1.5,2.8-2.9,4.1-4.4.6-.7.2-2-.8-1.9-1.4,0-2.9,0-4.3,0,1.5-1.9,3.1-3.8,4.7-5.7.8-.9,0-2-1.1-1.9-1.5.2-3.1.3-4.6.2-1.4-.1-1.4,2.1,0,2.2.8,0,1.5,0,2.3,0-1.5,1.8-3,3.5-4.4,5.3-.6.8-.2,1.8.8,1.9,1.3.1,2.6.2,4,.2-1.4,1.5-2.7,2.9-4.1,4.4-.6.7-.2,1.9.8,1.9,2,0,3.9,0,5.9,0,1.4,0,1.4-2.2,0-2.2Z" fill="#116791" stroke-width="0"/>
              <path d="m219.5,168.4c-1.1,0-2.2,0-3.3,0,1.4-1.5,2.8-2.9,4.1-4.4.6-.7.2-2-.8-1.9-1.4,0-2.9,0-4.3,0,1.5-1.9,3.1-3.8,4.7-5.7.8-.9,0-2-1.1-1.9-1.5.2-3.1.3-4.6.2-1.4-.1-1.4,2.1,0,2.2.8,0,1.5,0,2.3,0-1.5,1.8-3,3.5-4.4,5.3-.6.8-.2,1.8.8,1.9,1.3.1,2.6.2,4,.2-1.4,1.5-2.7,2.9-4.1,4.4-.6.7-.2,1.9.8,1.9,2,0,3.9,0,5.9,0,1.4,0,1.4-2.2,0-2.2Z" fill="#116791" stroke-width="0"/>
              <path d="m219.7,188.8c-1.1,0-2.2,0-3.3,0,1.4-1.5,2.8-2.9,4.1-4.4.6-.7.2-2-.8-1.9-1.4,0-2.9,0-4.3,0,1.5-1.9,3.1-3.8,4.7-5.7.8-.9,0-2-1.1-1.9-1.5.2-3.1.3-4.6.2-1.4-.1-1.4,2.1,0,2.2.8,0,1.5,0,2.3,0-1.5,1.8-3,3.5-4.4,5.3-.6.8-.2,1.8.8,1.9,1.3.1,2.6.2,4,.2-1.4,1.5-2.7,2.9-4.1,4.4-.6.7-.2,1.9.8,1.9,2,0,3.9,0,5.9,0,1.4,0,1.4-2.2,0-2.2Z" fill="#116791" stroke-width="0"/>
              <path d="m220,209.1c-1.1,0-2.2,0-3.3,0,1.4-1.5,2.8-2.9,4.1-4.4.6-.7.2-2-.8-1.9-1.4,0-2.9,0-4.3,0,1.5-1.9,3.1-3.8,4.7-5.7.8-.9,0-2-1.1-1.9-1.5.2-3.1.3-4.6.2-1.4-.1-1.4,2.1,0,2.2.8,0,1.5,0,2.3,0-1.5,1.8-3,3.5-4.4,5.3-.6.8-.2,1.8.8,1.9,1.3.1,2.6.2,4,.2-1.4,1.5-2.7,2.9-4.1,4.4-.6.7-.2,1.9.8,1.9,2,0,3.9,0,5.9,0,1.4,0,1.4-2.2,0-2.2Z" fill="#116791" stroke-width="0"/>
              <path d="m220.4,249.4c-1.1,0-2.2,0-3.3,0,1.4-1.5,2.8-2.9,4.1-4.4.6-.7.2-2-.8-1.9-1.4,0-2.9,0-4.3,0,1.5-1.9,3.1-3.8,4.7-5.7.8-.9,0-2-1.1-1.9-1.5.2-3.1.3-4.6.2-1.4-.1-1.4,2.1,0,2.2.8,0,1.5,0,2.3,0-1.5,1.8-3,3.5-4.4,5.3-.6.8-.2,1.8.8,1.9,1.3.1,2.6.2,4,.2-1.4,1.5-2.7,2.9-4.1,4.4-.6.7-.2,1.9.8,1.9,2,0,3.9,0,5.9,0,1.4,0,1.4-2.2,0-2.2Z" fill="#116791" stroke-width="0"/>
              <path d="m259.5,147.8c-1.1,0-2.2,0-3.3,0,1.4-1.5,2.8-2.9,4.1-4.4.6-.7.2-2-.8-1.9-1.4,0-2.9,0-4.3,0,1.5-1.9,3.1-3.8,4.7-5.7.8-.9,0-2-1.1-1.9-1.5.2-3.1.3-4.6.2-1.4-.1-1.4,2.1,0,2.2.8,0,1.5,0,2.3,0-1.5,1.8-3,3.5-4.4,5.3-.6.8-.2,1.8.8,1.9,1.3.1,2.6.2,4,.2-1.4,1.5-2.7,2.9-4.1,4.4-.6.7-.2,1.9.8,1.9,2,0,3.9,0,5.9,0,1.4,0,1.4-2.2,0-2.2Z" fill="#116791" stroke-width="0"/>
              <path d="m259.8,168c-1.1,0-2.2,0-3.3,0,1.4-1.5,2.8-2.9,4.1-4.4.6-.7.2-2-.8-1.9-1.4,0-2.9,0-4.3,0,1.5-1.9,3.1-3.8,4.7-5.7.8-.9,0-2-1.1-1.9-1.5.2-3.1.3-4.6.2-1.4-.1-1.4,2.1,0,2.2.8,0,1.5,0,2.3,0-1.5,1.8-3,3.5-4.4,5.3-.6.8-.2,1.8.8,1.9,1.3.1,2.6.2,4,.2-1.4,1.5-2.7,2.9-4.1,4.4-.6.7-.2,1.9.8,1.9,2,0,3.9,0,5.9,0,1.4,0,1.4-2.2,0-2.2Z" fill="#116791" stroke-width="0"/>
              <path d="m260,188.5c-1.1,0-2.2,0-3.3,0,1.4-1.5,2.8-2.9,4.1-4.4.6-.7.2-2-.8-1.9-1.4,0-2.9,0-4.3,0,1.5-1.9,3.1-3.8,4.7-5.7.8-.9,0-2-1.1-1.9-1.5.2-3.1.3-4.6.2-1.4-.1-1.4,2.1,0,2.2.8,0,1.5,0,2.3,0-1.5,1.8-3,3.5-4.4,5.3-.6.8-.2,1.8.8,1.9,1.3.1,2.6.2,4,.2-1.4,1.5-2.7,2.9-4.1,4.4-.6.7-.2,1.9.8,1.9,2,0,3.9,0,5.9,0,1.4,0,1.4-2.2,0-2.2Z" fill="#116791" stroke-width="0"/>
              <path d="m260.4,208.7c-1.1,0-2.2,0-3.3,0,1.4-1.5,2.8-2.9,4.1-4.4.6-.7.2-2-.8-1.9-1.4,0-2.9,0-4.3,0,1.5-1.9,3.1-3.8,4.7-5.7.8-.9,0-2-1.1-1.9-1.5.2-3.1.3-4.6.2-1.4-.1-1.4,2.1,0,2.2.8,0,1.5,0,2.3,0-1.5,1.8-3,3.5-4.4,5.3-.6.8-.2,1.8.8,1.9,1.3.1,2.6.2,4,.2-1.4,1.5-2.7,2.9-4.1,4.4-.6.7-.2,1.9.8,1.9,2,0,3.9,0,5.9,0,1.4,0,1.4-2.2,0-2.2Z" fill="#116791" stroke-width="0"/>
              <path d="m260.4,228.8c-1.1,0-2.2,0-3.3,0,1.4-1.5,2.8-2.9,4.1-4.4.6-.7.2-2-.8-1.9-1.4,0-2.9,0-4.3,0,1.5-1.9,3.1-3.8,4.7-5.7.8-.9,0-2-1.1-1.9-1.5.2-3.1.3-4.6.2-1.4-.1-1.4,2.1,0,2.2.8,0,1.5,0,2.3,0-1.5,1.8-3,3.5-4.4,5.3-.6.8-.2,1.8.8,1.9,1.3.1,2.6.2,4,.2-1.4,1.5-2.7,2.9-4.1,4.4-.6.7-.2,1.9.8,1.9,2,0,3.9,0,5.9,0,1.4,0,1.4-2.2,0-2.2Z" fill="#116791" stroke-width="0"/>
              <path d="m260.7,249.1c-1.1,0-2.2,0-3.3,0,1.4-1.5,2.8-2.9,4.1-4.4.6-.7.2-2-.8-1.9-1.4,0-2.9,0-4.3,0,1.5-1.9,3.1-3.8,4.7-5.7.8-.9,0-2-1.1-1.9-1.5.2-3.1.3-4.6.2-1.4-.1-1.4,2.1,0,2.2.8,0,1.5,0,2.3,0-1.5,1.8-3,3.5-4.4,5.3-.6.8-.2,1.8.8,1.9,1.3.1,2.6.2,4,.2-1.4,1.5-2.7,2.9-4.1,4.4-.6.7-.2,1.9.8,1.9,2,0,3.9,0,5.9,0,1.4,0,1.4-2.2,0-2.2Z" fill="#116791" stroke-width="0"/>
              <path d="m276.4,147.6c-1.1,0-2.2,0-3.3,0,1.4-1.5,2.8-2.9,4.1-4.4.6-.7.2-2-.8-1.9-1.4,0-2.9,0-4.3,0,1.5-1.9,3.1-3.8,4.7-5.7.8-.9,0-2-1.1-1.9-1.5.2-3.1.3-4.6.2-1.4-.1-1.4,2.1,0,2.2.8,0,1.5,0,2.3,0-1.5,1.8-3,3.5-4.4,5.3-.6.8-.2,1.8.8,1.9,1.3.1,2.6.2,4,.2-1.4,1.5-2.7,2.9-4.1,4.4-.6.7-.2,1.9.8,1.9,2,0,3.9,0,5.9,0,1.4,0,1.4-2.2,0-2.2Z" fill="#116791" stroke-width="0"/>
              <path d="m276.7,167.9c-1.1,0-2.2,0-3.3,0,1.4-1.5,2.8-2.9,4.1-4.4.6-.7.2-2-.8-1.9-1.4,0-2.9,0-4.3,0,1.5-1.9,3.1-3.8,4.7-5.7.8-.9,0-2-1.1-1.9-1.5.2-3.1.3-4.6.2-1.4-.1-1.4,2.1,0,2.2.8,0,1.5,0,2.3,0-1.5,1.8-3,3.5-4.4,5.3-.6.8-.2,1.8.8,1.9,1.3.1,2.6.2,4,.2-1.4,1.5-2.7,2.9-4.1,4.4-.6.7-.2,1.9.8,1.9,2,0,3.9,0,5.9,0,1.4,0,1.4-2.2,0-2.2Z" fill="#116791" stroke-width="0"/>
              <path d="m277,188.3c-1.1,0-2.2,0-3.3,0,1.4-1.5,2.8-2.9,4.1-4.4.6-.7.2-2-.8-1.9-1.4,0-2.9,0-4.3,0,1.5-1.9,3.1-3.8,4.7-5.7.8-.9,0-2-1.1-1.9-1.5.2-3.1.3-4.6.2-1.4-.1-1.4,2.1,0,2.2.8,0,1.5,0,2.3,0-1.5,1.8-3,3.5-4.4,5.3-.6.8-.2,1.8.8,1.9,1.3.1,2.6.2,4,.2-1.4,1.5-2.7,2.9-4.1,4.4-.6.7-.2,1.9.8,1.9,2,0,3.9,0,5.9,0,1.4,0,1.4-2.2,0-2.2Z" fill="#116791" stroke-width="0"/>
              <path d="m277.3,208.6c-1.1,0-2.2,0-3.3,0,1.4-1.5,2.8-2.9,4.1-4.4.6-.7.2-2-.8-1.9-1.4,0-2.9,0-4.3,0,1.5-1.9,3.1-3.8,4.7-5.7.8-.9,0-2-1.1-1.9-1.5.2-3.1.3-4.6.2-1.4-.1-1.4,2.1,0,2.2.8,0,1.5,0,2.3,0-1.5,1.8-3,3.5-4.4,5.3-.6.8-.2,1.8.8,1.9,1.3.1,2.6.2,4,.2-1.4,1.5-2.7,2.9-4.1,4.4-.6.7-.2,1.9.8,1.9,2,0,3.9,0,5.9,0,1.4,0,1.4-2.2,0-2.2Z" fill="#116791" stroke-width="0"/>
              <path d="m277.3,228.6c-1.1,0-2.2,0-3.3,0,1.4-1.5,2.8-2.9,4.1-4.4.6-.7.2-2-.8-1.9-1.4,0-2.9,0-4.3,0,1.5-1.9,3.1-3.8,4.7-5.7.8-.9,0-2-1.1-1.9-1.5.2-3.1.3-4.6.2-1.4-.1-1.4,2.1,0,2.2.8,0,1.5,0,2.3,0-1.5,1.8-3,3.5-4.4,5.3-.6.8-.2,1.8.8,1.9,1.3.1,2.6.2,4,.2-1.4,1.5-2.7,2.9-4.1,4.4-.6.7-.2,1.9.8,1.9,2,0,3.9,0,5.9,0,1.4,0,1.4-2.2,0-2.2Z" fill="#116791" stroke-width="0"/>
              <path d="m277.6,248.9c-1.1,0-2.2,0-3.3,0,1.4-1.5,2.8-2.9,4.1-4.4.6-.7.2-2-.8-1.9-1.4,0-2.9,0-4.3,0,1.5-1.9,3.1-3.8,4.7-5.7.8-.9,0-2-1.1-1.9-1.5.2-3.1.3-4.6.2-1.4-.1-1.4,2.1,0,2.2.8,0,1.5,0,2.3,0-1.5,1.8-3,3.5-4.4,5.3-.6.8-.2,1.8.8,1.9,1.3.1,2.6.2,4,.2-1.4,1.5-2.7,2.9-4.1,4.4-.6.7-.2,1.9.8,1.9,2,0,3.9,0,5.9,0,1.4,0,1.4-2.2,0-2.2Z" fill="#116791" stroke-width="0"/>
              <path d="m293.3,147.4c-1.1,0-2.2,0-3.3,0,1.4-1.5,2.8-2.9,4.1-4.4.6-.7.2-2-.8-1.9-1.4,0-2.9,0-4.3,0,1.5-1.9,3.1-3.8,4.7-5.7.8-.9,0-2-1.1-1.9-1.5.2-3.1.3-4.6.2-1.4-.1-1.4,2.1,0,2.2.8,0,1.5,0,2.3,0-1.5,1.8-3,3.5-4.4,5.3-.6.8-.2,1.8.8,1.9,1.3.1,2.6.2,4,.2-1.4,1.5-2.7,2.9-4.1,4.4-.6.7-.2,1.9.8,1.9,2,0,3.9,0,5.9,0,1.4,0,1.4-2.2,0-2.2Z" fill="#116791" stroke-width="0"/>
              <path d="m293.6,167.7c-1.1,0-2.2,0-3.3,0,1.4-1.5,2.8-2.9,4.1-4.4.6-.7.2-2-.8-1.9-1.4,0-2.9,0-4.3,0,1.5-1.9,3.1-3.8,4.7-5.7.8-.9,0-2-1.1-1.9-1.5.2-3.1.3-4.6.2-1.4-.1-1.4,2.1,0,2.2.8,0,1.5,0,2.3,0-1.5,1.8-3,3.5-4.4,5.3-.6.8-.2,1.8.8,1.9,1.3.1,2.6.2,4,.2-1.4,1.5-2.7,2.9-4.1,4.4-.6.7-.2,1.9.8,1.9,2,0,3.9,0,5.9,0,1.4,0,1.4-2.2,0-2.2Z" fill="#116791" stroke-width="0"/>
              <path d="m293.9,188.1c-1.1,0-2.2,0-3.3,0,1.4-1.5,2.8-2.9,4.1-4.4.6-.7.2-2-.8-1.9-1.4,0-2.9,0-4.3,0,1.5-1.9,3.1-3.8,4.7-5.7.8-.9,0-2-1.1-1.9-1.5.2-3.1.3-4.6.2-1.4-.1-1.4,2.1,0,2.2.8,0,1.5,0,2.3,0-1.5,1.8-3,3.5-4.4,5.3-.6.8-.2,1.8.8,1.9,1.3.1,2.6.2,4,.2-1.4,1.5-2.7,2.9-4.1,4.4-.6.7-.2,1.9.8,1.9,2,0,3.9,0,5.9,0,1.4,0,1.4-2.2,0-2.2Z" fill="#116791" stroke-width="0"/>
              <path d="m294.2,208.4c-1.1,0-2.2,0-3.3,0,1.4-1.5,2.8-2.9,4.1-4.4.6-.7.2-2-.8-1.9-1.4,0-2.9,0-4.3,0,1.5-1.9,3.1-3.8,4.7-5.7.8-.9,0-2-1.1-1.9-1.5.2-3.1.3-4.6.2-1.4-.1-1.4,2.1,0,2.2.8,0,1.5,0,2.3,0-1.5,1.8-3,3.5-4.4,5.3-.6.8-.2,1.8.8,1.9,1.3.1,2.6.2,4,.2-1.4,1.5-2.7,2.9-4.1,4.4-.6.7-.2,1.9.8,1.9,2,0,3.9,0,5.9,0,1.4,0,1.4-2.2,0-2.2Z" fill="#116791" stroke-width="0"/>
              <path d="m294.2,228.5c-1.1,0-2.2,0-3.3,0,1.4-1.5,2.8-2.9,4.1-4.4.6-.7.2-2-.8-1.9-1.4,0-2.9,0-4.3,0,1.5-1.9,3.1-3.8,4.7-5.7.8-.9,0-2-1.1-1.9-1.5.2-3.1.3-4.6.2-1.4-.1-1.4,2.1,0,2.2.8,0,1.5,0,2.3,0-1.5,1.8-3,3.5-4.4,5.3-.6.8-.2,1.8.8,1.9,1.3.1,2.6.2,4,.2-1.4,1.5-2.7,2.9-4.1,4.4-.6.7-.2,1.9.8,1.9,2,0,3.9,0,5.9,0,1.4,0,1.4-2.2,0-2.2Z" fill="#116791" stroke-width="0"/>
              <path d="m294.5,248.8c-1.1,0-2.2,0-3.3,0,1.4-1.5,2.8-2.9,4.1-4.4.6-.7.2-2-.8-1.9-1.4,0-2.9,0-4.3,0,1.5-1.9,3.1-3.8,4.7-5.7.8-.9,0-2-1.1-1.9-1.5.2-3.1.3-4.6.2-1.4-.1-1.4,2.1,0,2.2.8,0,1.5,0,2.3,0-1.5,1.8-3,3.5-4.4,5.3-.6.8-.2,1.8.8,1.9,1.3.1,2.6.2,4,.2-1.4,1.5-2.7,2.9-4.1,4.4-.6.7-.2,1.9.8,1.9,2,0,3.9,0,5.9,0,1.4,0,1.4-2.2,0-2.2Z" fill="#116791" stroke-width="0"/>
              <path d="m310.2,147.3c-1.1,0-2.2,0-3.3,0,1.4-1.5,2.8-2.9,4.1-4.4.6-.7.2-2-.8-1.9-1.4,0-2.9,0-4.3,0,1.5-1.9,3.1-3.8,4.7-5.7.8-.9,0-2-1.1-1.9-1.5.2-3.1.3-4.6.2-1.4-.1-1.4,2.1,0,2.2.8,0,1.5,0,2.3,0-1.5,1.8-3,3.5-4.4,5.3-.6.8-.2,1.8.8,1.9,1.3.1,2.6.2,4,.2-1.4,1.5-2.7,2.9-4.1,4.4-.6.7-.2,1.9.8,1.9,2,0,3.9,0,5.9,0,1.4,0,1.4-2.2,0-2.2Z" fill="#116791" stroke-width="0"/>
              <path d="m310.5,167.6c-1.1,0-2.2,0-3.3,0,1.4-1.5,2.8-2.9,4.1-4.4.6-.7.2-2-.8-1.9-1.4,0-2.9,0-4.3,0,1.5-1.9,3.1-3.8,4.7-5.7.8-.9,0-2-1.1-1.9-1.5.2-3.1.3-4.6.2-1.4-.1-1.4,2.1,0,2.2.8,0,1.5,0,2.3,0-1.5,1.8-3,3.5-4.4,5.3-.6.8-.2,1.8.8,1.9,1.3.1,2.6.2,4,.2-1.4,1.5-2.7,2.9-4.1,4.4-.6.7-.2,1.9.8,1.9,2,0,3.9,0,5.9,0,1.4,0,1.4-2.2,0-2.2Z" fill="#116791" stroke-width="0"/>
              <path d="m310.8,188c-1.1,0-2.2,0-3.3,0,1.4-1.5,2.8-2.9,4.1-4.4.6-.7.2-2-.8-1.9-1.4,0-2.9,0-4.3,0,1.5-1.9,3.1-3.8,4.7-5.7.8-.9,0-2-1.1-1.9-1.5.2-3.1.3-4.6.2-1.4-.1-1.4,2.1,0,2.2.8,0,1.5,0,2.3,0-1.5,1.8-3,3.5-4.4,5.3-.6.8-.2,1.8.8,1.9,1.3.1,2.6.2,4,.2-1.4,1.5-2.7,2.9-4.1,4.4-.6.7-.2,1.9.8,1.9,2,0,3.9,0,5.9,0,1.4,0,1.4-2.2,0-2.2Z" fill="#116791" stroke-width="0"/>
              <path d="m311.1,208.3c-1.1,0-2.2,0-3.3,0,1.4-1.5,2.8-2.9,4.1-4.4.6-.7.2-2-.8-1.9-1.4,0-2.9,0-4.3,0,1.5-1.9,3.1-3.8,4.7-5.7.8-.9,0-2-1.1-1.9-1.5.2-3.1.3-4.6.2-1.4-.1-1.4,2.1,0,2.2.8,0,1.5,0,2.3,0-1.5,1.8-3,3.5-4.4,5.3-.6.8-.2,1.8.8,1.9,1.3.1,2.6.2,4,.2-1.4,1.5-2.7,2.9-4.1,4.4-.6.7-.2,1.9.8,1.9,2,0,3.9,0,5.9,0,1.4,0,1.4-2.2,0-2.2Z" fill="#116791" stroke-width="0"/>
              <path d="m311.1,228.3c-1.1,0-2.2,0-3.3,0,1.4-1.5,2.8-2.9,4.1-4.4.6-.7.2-2-.8-1.9-1.4,0-2.9,0-4.3,0,1.5-1.9,3.1-3.8,4.7-5.7.8-.9,0-2-1.1-1.9-1.5.2-3.1.3-4.6.2-1.4-.1-1.4,2.1,0,2.2.8,0,1.5,0,2.3,0-1.5,1.8-3,3.5-4.4,5.3-.6.8-.2,1.8.8,1.9,1.3.1,2.6.2,4,.2-1.4,1.5-2.7,2.9-4.1,4.4-.6.7-.2,1.9.8,1.9,2,0,3.9,0,5.9,0,1.4,0,1.4-2.2,0-2.2Z" fill="#116791" stroke-width="0"/>
              <path d="m311.5,248.6c-1.1,0-2.2,0-3.3,0,1.4-1.5,2.8-2.9,4.1-4.4.6-.7.2-2-.8-1.9-1.4,0-2.9,0-4.3,0,1.5-1.9,3.1-3.8,4.7-5.7.8-.9,0-2-1.1-1.9-1.5.2-3.1.3-4.6.2-1.4-.1-1.4,2.1,0,2.2.8,0,1.5,0,2.3,0-1.5,1.8-3,3.5-4.4,5.3-.6.8-.2,1.8.8,1.9,1.3.1,2.6.2,4,.2-1.4,1.5-2.7,2.9-4.1,4.4-.6.7-.2,1.9.8,1.9,2,0,3.9,0,5.9,0,1.4,0,1.4-2.2,0-2.2Z" fill="#116791" stroke-width="0"/>
              <path d="m327.1,147.1c-1.1,0-2.2,0-3.3,0,1.4-1.5,2.8-2.9,4.1-4.4.6-.7.2-2-.8-1.9-1.4,0-2.9,0-4.3,0,1.5-1.9,3.1-3.8,4.7-5.7.8-.9,0-2-1.1-1.9-1.5.2-3.1.3-4.6.2-1.4-.1-1.4,2.1,0,2.2.8,0,1.5,0,2.3,0-1.5,1.8-3,3.5-4.4,5.3-.6.8-.2,1.8.8,1.9,1.3.1,2.6.2,4,.2-1.4,1.5-2.7,2.9-4.1,4.4-.6.7-.2,1.9.8,1.9,2,0,3.9,0,5.9,0,1.4,0,1.4-2.2,0-2.2Z" fill="#116791" stroke-width="0"/>
              <path d="m327.4,167.4c-1.1,0-2.2,0-3.3,0,1.4-1.5,2.8-2.9,4.1-4.4.6-.7.2-2-.8-1.9-1.4,0-2.9,0-4.3,0,1.5-1.9,3.1-3.8,4.7-5.7.8-.9,0-2-1.1-1.9-1.5.2-3.1.3-4.6.2-1.4-.1-1.4,2.1,0,2.2.8,0,1.5,0,2.3,0-1.5,1.8-3,3.5-4.4,5.3-.6.8-.2,1.8.8,1.9,1.3.1,2.6.2,4,.2-1.4,1.5-2.7,2.9-4.1,4.4-.6.7-.2,1.9.8,1.9,2,0,3.9,0,5.9,0,1.4,0,1.4-2.2,0-2.2Z" fill="#116791" stroke-width="0"/>
              <path d="m327.7,187.8c-1.1,0-2.2,0-3.3,0,1.4-1.5,2.8-2.9,4.1-4.4.6-.7.2-2-.8-1.9-1.4,0-2.9,0-4.3,0,1.5-1.9,3.1-3.8,4.7-5.7.8-.9,0-2-1.1-1.9-1.5.2-3.1.3-4.6.2-1.4-.1-1.4,2.1,0,2.2.8,0,1.5,0,2.3,0-1.5,1.8-3,3.5-4.4,5.3-.6.8-.2,1.8.8,1.9,1.3.1,2.6.2,4,.2-1.4,1.5-2.7,2.9-4.1,4.4-.6.7-.2,1.9.8,1.9,2,0,3.9,0,5.9,0,1.4,0,1.4-2.2,0-2.2Z" fill="#116791" stroke-width="0"/>
              <path d="m328,208.1c-1.1,0-2.2,0-3.3,0,1.4-1.5,2.8-2.9,4.1-4.4.6-.7.2-2-.8-1.9-1.4,0-2.9,0-4.3,0,1.5-1.9,3.1-3.8,4.7-5.7.8-.9,0-2-1.1-1.9-1.5.2-3.1.3-4.6.2-1.4-.1-1.4,2.1,0,2.2.8,0,1.5,0,2.3,0-1.5,1.8-3,3.5-4.4,5.3-.6.8-.2,1.8.8,1.9,1.3.1,2.6.2,4,.2-1.4,1.5-2.7,2.9-4.1,4.4-.6.7-.2,1.9.8,1.9,2,0,3.9,0,5.9,0,1.4,0,1.4-2.2,0-2.2Z" fill="#116791" stroke-width="0"/>
              <path d="m328.1,228.2c-1.1,0-2.2,0-3.3,0,1.4-1.5,2.8-2.9,4.1-4.4.6-.7.2-2-.8-1.9-1.4,0-2.9,0-4.3,0,1.5-1.9,3.1-3.8,4.7-5.7.8-.9,0-2-1.1-1.9-1.5.2-3.1.3-4.6.2-1.4-.1-1.4,2.1,0,2.2.8,0,1.5,0,2.3,0-1.5,1.8-3,3.5-4.4,5.3-.6.8-.2,1.8.8,1.9,1.3.1,2.6.2,4,.2-1.4,1.5-2.7,2.9-4.1,4.4-.6.7-.2,1.9.8,1.9,2,0,3.9,0,5.9,0,1.4,0,1.4-2.2,0-2.2Z" fill="#116791" stroke-width="0"/>
              <path d="m328.4,248.4c-1.1,0-2.2,0-3.3,0,1.4-1.5,2.8-2.9,4.1-4.4.6-.7.2-2-.8-1.9-1.4,0-2.9,0-4.3,0,1.5-1.9,3.1-3.8,4.7-5.7.8-.9,0-2-1.1-1.9-1.5.2-3.1.3-4.6.2-1.4-.1-1.4,2.1,0,2.2.8,0,1.5,0,2.3,0-1.5,1.8-3,3.5-4.4,5.3-.6.8-.2,1.8.8,1.9,1.3.1,2.6.2,4,.2-1.4,1.5-2.7,2.9-4.1,4.4-.6.7-.2,1.9.8,1.9,2,0,3.9,0,5.9,0,1.4,0,1.4-2.2,0-2.2Z" fill="#116791" stroke-width="0"/>
              <path d="m343.3,147.4c-1.1,0-2.2,0-3.3,0,1.4-1.5,2.8-2.9,4.1-4.4.6-.7.2-2-.8-1.9-1.4,0-2.9,0-4.3,0,1.5-1.9,3.1-3.8,4.7-5.7.8-.9,0-2-1.1-1.9-1.5.2-3.1.3-4.6.2-1.4-.1-1.4,2.1,0,2.2.8,0,1.5,0,2.3,0-1.5,1.8-3,3.5-4.4,5.3-.6.8-.2,1.8.8,1.9,1.3.1,2.6.2,4,.2-1.4,1.5-2.7,2.9-4.1,4.4-.6.7-.2,1.9.8,1.9,2,0,3.9,0,5.9,0,1.4,0,1.4-2.2,0-2.2Z" fill="#116791" stroke-width="0"/>
              <path d="m343.7,167.6c-1.1,0-2.2,0-3.3,0,1.4-1.5,2.8-2.9,4.1-4.4.6-.7.2-2-.8-1.9-1.4,0-2.9,0-4.3,0,1.5-1.9,3.1-3.8,4.7-5.7.8-.9,0-2-1.1-1.9-1.5.2-3.1.3-4.6.2-1.4-.1-1.4,2.1,0,2.2.8,0,1.5,0,2.3,0-1.5,1.8-3,3.5-4.4,5.3-.6.8-.2,1.8.8,1.9,1.3.1,2.6.2,4,.2-1.4,1.5-2.7,2.9-4.1,4.4-.6.7-.2,1.9.8,1.9,2,0,3.9,0,5.9,0,1.4,0,1.4-2.2,0-2.2Z" fill="#116791" stroke-width="0"/>
              <path d="m343.9,188.1c-1.1,0-2.2,0-3.3,0,1.4-1.5,2.8-2.9,4.1-4.4.6-.7.2-2-.8-1.9-1.4,0-2.9,0-4.3,0,1.5-1.9,3.1-3.8,4.7-5.7.8-.9,0-2-1.1-1.9-1.5.2-3.1.3-4.6.2-1.4-.1-1.4,2.1,0,2.2.8,0,1.5,0,2.3,0-1.5,1.8-3,3.5-4.4,5.3-.6.8-.2,1.8.8,1.9,1.3.1,2.6.2,4,.2-1.4,1.5-2.7,2.9-4.1,4.4-.6.7-.2,1.9.8,1.9,2,0,3.9,0,5.9,0,1.4,0,1.4-2.2,0-2.2Z" fill="#116791" stroke-width="0"/>
              <path d="m344.2,208.3c-1.1,0-2.2,0-3.3,0,1.4-1.5,2.8-2.9,4.1-4.4.6-.7.2-2-.8-1.9-1.4,0-2.9,0-4.3,0,1.5-1.9,3.1-3.8,4.7-5.7.8-.9,0-2-1.1-1.9-1.5.2-3.1.3-4.6.2-1.4-.1-1.4,2.1,0,2.2.8,0,1.5,0,2.3,0-1.5,1.8-3,3.5-4.4,5.3-.6.8-.2,1.8.8,1.9,1.3.1,2.6.2,4,.2-1.4,1.5-2.7,2.9-4.1,4.4-.6.7-.2,1.9.8,1.9,2,0,3.9,0,5.9,0,1.4,0,1.4-2.2,0-2.2Z" fill="#116791" stroke-width="0"/>
              <path d="m344.3,228.4c-1.1,0-2.2,0-3.3,0,1.4-1.5,2.8-2.9,4.1-4.4.6-.7.2-2-.8-1.9-1.4,0-2.9,0-4.3,0,1.5-1.9,3.1-3.8,4.7-5.7.8-.9,0-2-1.1-1.9-1.5.2-3.1.3-4.6.2-1.4-.1-1.4,2.1,0,2.2.8,0,1.5,0,2.3,0-1.5,1.8-3,3.5-4.4,5.3-.6.8-.2,1.8.8,1.9,1.3.1,2.6.2,4,.2-1.4,1.5-2.7,2.9-4.1,4.4-.6.7-.2,1.9.8,1.9,2,0,3.9,0,5.9,0,1.4,0,1.4-2.2,0-2.2Z" fill="#116791" stroke-width="0"/>
              <path d="m344.6,248.7c-1.1,0-2.2,0-3.3,0,1.4-1.5,2.8-2.9,4.1-4.4.6-.7.2-2-.8-1.9-1.4,0-2.9,0-4.3,0,1.5-1.9,3.1-3.8,4.7-5.7.8-.9,0-2-1.1-1.9-1.5.2-3.1.3-4.6.2-1.4-.1-1.4,2.1,0,2.2.8,0,1.5,0,2.3,0-1.5,1.8-3,3.5-4.4,5.3-.6.8-.2,1.8.8,1.9,1.3.1,2.6.2,4,.2-1.4,1.5-2.7,2.9-4.1,4.4-.6.7-.2,1.9.8,1.9,2,0,3.9,0,5.9,0,1.4,0,1.4-2.2,0-2.2Z" fill="#116791" stroke-width="0"/>
              <path d="m359.6,147.6c-1.1,0-2.2,0-3.3,0,1.4-1.5,2.8-2.9,4.1-4.4.6-.7.2-2-.8-1.9-1.4,0-2.9,0-4.3,0,1.5-1.9,3.1-3.8,4.7-5.7.8-.9,0-2-1.1-1.9-1.5.2-3.1.3-4.6.2-1.4-.1-1.4,2.1,0,2.2.8,0,1.5,0,2.3,0-1.5,1.8-3,3.5-4.4,5.3-.6.8-.2,1.8.8,1.9,1.3.1,2.6.2,4,.2-1.4,1.5-2.7,2.9-4.1,4.4-.6.7-.2,1.9.8,1.9,2,0,3.9,0,5.9,0,1.4,0,1.4-2.2,0-2.2Z" fill="#116791" stroke-width="0"/>
              <path d="m359.9,167.9c-1.1,0-2.2,0-3.3,0,1.4-1.5,2.8-2.9,4.1-4.4.6-.7.2-2-.8-1.9-1.4,0-2.9,0-4.3,0,1.5-1.9,3.1-3.8,4.7-5.7.8-.9,0-2-1.1-1.9-1.5.2-3.1.3-4.6.2-1.4-.1-1.4,2.1,0,2.2.8,0,1.5,0,2.3,0-1.5,1.8-3,3.5-4.4,5.3-.6.8-.2,1.8.8,1.9,1.3.1,2.6.2,4,.2-1.4,1.5-2.7,2.9-4.1,4.4-.6.7-.2,1.9.8,1.9,2,0,3.9,0,5.9,0,1.4,0,1.4-2.2,0-2.2Z" fill="#116791" stroke-width="0"/>
              <path d="m360.1,188.3c-1.1,0-2.2,0-3.3,0,1.4-1.5,2.8-2.9,4.1-4.4.6-.7.2-2-.8-1.9-1.4,0-2.9,0-4.3,0,1.5-1.9,3.1-3.8,4.7-5.7.8-.9,0-2-1.1-1.9-1.5.2-3.1.3-4.6.2-1.4-.1-1.4,2.1,0,2.2.8,0,1.5,0,2.3,0-1.5,1.8-3,3.5-4.4,5.3-.6.8-.2,1.8.8,1.9,1.3.1,2.6.2,4,.2-1.4,1.5-2.7,2.9-4.1,4.4-.6.7-.2,1.9.8,1.9,2,0,3.9,0,5.9,0,1.4,0,1.4-2.2,0-2.2Z" fill="#116791" stroke-width="0"/>
              <path d="m360.4,208.6c-1.1,0-2.2,0-3.3,0,1.4-1.5,2.8-2.9,4.1-4.4.6-.7.2-2-.8-1.9-1.4,0-2.9,0-4.3,0,1.5-1.9,3.1-3.8,4.7-5.7.8-.9,0-2-1.1-1.9-1.5.2-3.1.3-4.6.2-1.4-.1-1.4,2.1,0,2.2.8,0,1.5,0,2.3,0-1.5,1.8-3,3.5-4.4,5.3-.6.8-.2,1.8.8,1.9,1.3.1,2.6.2,4,.2-1.4,1.5-2.7,2.9-4.1,4.4-.6.7-.2,1.9.8,1.9,2,0,3.9,0,5.9,0,1.4,0,1.4-2.2,0-2.2Z" fill="#116791" stroke-width="0"/>
              <path d="m360.5,228.6c-1.1,0-2.2,0-3.3,0,1.4-1.5,2.8-2.9,4.1-4.4.6-.7.2-2-.8-1.9-1.4,0-2.9,0-4.3,0,1.5-1.9,3.1-3.8,4.7-5.7.8-.9,0-2-1.1-1.9-1.5.2-3.1.3-4.6.2-1.4-.1-1.4,2.1,0,2.2.8,0,1.5,0,2.3,0-1.5,1.8-3,3.5-4.4,5.3-.6.8-.2,1.8.8,1.9,1.3.1,2.6.2,4,.2-1.4,1.5-2.7,2.9-4.1,4.4-.6.7-.2,1.9.8,1.9,2,0,3.9,0,5.9,0,1.4,0,1.4-2.2,0-2.2Z" fill="#116791" stroke-width="0"/>
              <path d="m360.8,248.9c-1.1,0-2.2,0-3.3,0,1.4-1.5,2.8-2.9,4.1-4.4.6-.7.2-2-.8-1.9-1.4,0-2.9,0-4.3,0,1.5-1.9,3.1-3.8,4.7-5.7.8-.9,0-2-1.1-1.9-1.5.2-3.1.3-4.6.2-1.4-.1-1.4,2.1,0,2.2.8,0,1.5,0,2.3,0-1.5,1.8-3,3.5-4.4,5.3-.6.8-.2,1.8.8,1.9,1.3.1,2.6.2,4,.2-1.4,1.5-2.7,2.9-4.1,4.4-.6.7-.2,1.9.8,1.9,2,0,3.9,0,5.9,0,1.4,0,1.4-2.2,0-2.2Z" fill="#116791" stroke-width="0"/>
              <path d="m375.8,147.8c-1.1,0-2.2,0-3.3,0,1.4-1.5,2.8-2.9,4.1-4.4.6-.7.2-2-.8-1.9-1.4,0-2.9,0-4.3,0,1.5-1.9,3.1-3.8,4.7-5.7.8-.9,0-2-1.1-1.9-1.5.2-3.1.3-4.6.2-1.4-.1-1.4,2.1,0,2.2.8,0,1.5,0,2.3,0-1.5,1.8-3,3.5-4.4,5.3-.6.8-.2,1.8.8,1.9,1.3.1,2.6.2,4,.2-1.4,1.5-2.7,2.9-4.1,4.4-.6.7-.2,1.9.8,1.9,2,0,3.9,0,5.9,0,1.4,0,1.4-2.2,0-2.2Z" fill="#116791" stroke-width="0"/>
              <path d="m376.1,168.1c-1.1,0-2.2,0-3.3,0,1.4-1.5,2.8-2.9,4.1-4.4.6-.7.2-2-.8-1.9-1.4,0-2.9,0-4.3,0,1.5-1.9,3.1-3.8,4.7-5.7.8-.9,0-2-1.1-1.9-1.5.2-3.1.3-4.6.2-1.4-.1-1.4,2.1,0,2.2.8,0,1.5,0,2.3,0-1.5,1.8-3,3.5-4.4,5.3-.6.8-.2,1.8.8,1.9,1.3.1,2.6.2,4,.2-1.4,1.5-2.7,2.9-4.1,4.4-.6.7-.2,1.9.8,1.9,2,0,3.9,0,5.9,0,1.4,0,1.4-2.2,0-2.2Z" fill="#116791" stroke-width="0"/>
              <path d="m376.4,188.5c-1.1,0-2.2,0-3.3,0,1.4-1.5,2.8-2.9,4.1-4.4.6-.7.2-2-.8-1.9-1.4,0-2.9,0-4.3,0,1.5-1.9,3.1-3.8,4.7-5.7.8-.9,0-2-1.1-1.9-1.5.2-3.1.3-4.6.2-1.4-.1-1.4,2.1,0,2.2.8,0,1.5,0,2.3,0-1.5,1.8-3,3.5-4.4,5.3-.6.8-.2,1.8.8,1.9,1.3.1,2.6.2,4,.2-1.4,1.5-2.7,2.9-4.1,4.4-.6.7-.2,1.9.8,1.9,2,0,3.9,0,5.9,0,1.4,0,1.4-2.2,0-2.2Z" fill="#116791" stroke-width="0"/>
              <path d="m376.7,208.8c-1.1,0-2.2,0-3.3,0,1.4-1.5,2.8-2.9,4.1-4.4.6-.7.2-2-.8-1.9-1.4,0-2.9,0-4.3,0,1.5-1.9,3.1-3.8,4.7-5.7.8-.9,0-2-1.1-1.9-1.5.2-3.1.3-4.6.2-1.4-.1-1.4,2.1,0,2.2.8,0,1.5,0,2.3,0-1.5,1.8-3,3.5-4.4,5.3-.6.8-.2,1.8.8,1.9,1.3.1,2.6.2,4,.2-1.4,1.5-2.7,2.9-4.1,4.4-.6.7-.2,1.9.8,1.9,2,0,3.9,0,5.9,0,1.4,0,1.4-2.2,0-2.2Z" fill="#116791" stroke-width="0"/>
              <path d="m376.7,228.8c-1.1,0-2.2,0-3.3,0,1.4-1.5,2.8-2.9,4.1-4.4.6-.7.2-2-.8-1.9-1.4,0-2.9,0-4.3,0,1.5-1.9,3.1-3.8,4.7-5.7.8-.9,0-2-1.1-1.9-1.5.2-3.1.3-4.6.2-1.4-.1-1.4,2.1,0,2.2.8,0,1.5,0,2.3,0-1.5,1.8-3,3.5-4.4,5.3-.6.8-.2,1.8.8,1.9,1.3.1,2.6.2,4,.2-1.4,1.5-2.7,2.9-4.1,4.4-.6.7-.2,1.9.8,1.9,2,0,3.9,0,5.9,0,1.4,0,1.4-2.2,0-2.2Z" fill="#116791" stroke-width="0"/>
              <path d="m377,249.1c-1.1,0-2.2,0-3.3,0,1.4-1.5,2.8-2.9,4.1-4.4.6-.7.2-2-.8-1.9-1.4,0-2.9,0-4.3,0,1.5-1.9,3.1-3.8,4.7-5.7.8-.9,0-2-1.1-1.9-1.5.2-3.1.3-4.6.2-1.4-.1-1.4,2.1,0,2.2.8,0,1.5,0,2.3,0-1.5,1.8-3,3.5-4.4,5.3-.6.8-.2,1.8.8,1.9,1.3.1,2.6.2,4,.2-1.4,1.5-2.7,2.9-4.1,4.4-.6.7-.2,1.9.8,1.9,2,0,3.9,0,5.9,0,1.4,0,1.4-2.2,0-2.2Z" fill="#116791" stroke-width="0"/>
              <path d="m393.1,147.6c-1.1,0-2.2,0-3.3,0,1.4-1.5,2.8-2.9,4.1-4.4.6-.7.2-2-.8-1.9-1.4,0-2.9,0-4.3,0,1.5-1.9,3.1-3.8,4.7-5.7.8-.9,0-2-1.1-1.9-1.5.2-3.1.3-4.6.2-1.4-.1-1.4,2.1,0,2.2.8,0,1.5,0,2.3,0-1.5,1.8-3,3.5-4.4,5.3-.6.8-.2,1.8.8,1.9,1.3.1,2.6.2,4,.2-1.4,1.5-2.7,2.9-4.1,4.4-.6.7-.2,1.9.8,1.9,2,0,3.9,0,5.9,0,1.4,0,1.4-2.2,0-2.2Z" fill="#116791" stroke-width="0"/>
              <path d="m393.5,167.9c-1.1,0-2.2,0-3.3,0,1.4-1.5,2.8-2.9,4.1-4.4.6-.7.2-2-.8-1.9-1.4,0-2.9,0-4.3,0,1.5-1.9,3.1-3.8,4.7-5.7.8-.9,0-2-1.1-1.9-1.5.2-3.1.3-4.6.2-1.4-.1-1.4,2.1,0,2.2.8,0,1.5,0,2.3,0-1.5,1.8-3,3.5-4.4,5.3-.6.8-.2,1.8.8,1.9,1.3.1,2.6.2,4,.2-1.4,1.5-2.7,2.9-4.1,4.4-.6.7-.2,1.9.8,1.9,2,0,3.9,0,5.9,0,1.4,0,1.4-2.2,0-2.2Z" fill="#116791" stroke-width="0"/>
              <path d="m393.7,188.3c-1.1,0-2.2,0-3.3,0,1.4-1.5,2.8-2.9,4.1-4.4.6-.7.2-2-.8-1.9-1.4,0-2.9,0-4.3,0,1.5-1.9,3.1-3.8,4.7-5.7.8-.9,0-2-1.1-1.9-1.5.2-3.1.3-4.6.2-1.4-.1-1.4,2.1,0,2.2.8,0,1.5,0,2.3,0-1.5,1.8-3,3.5-4.4,5.3-.6.8-.2,1.8.8,1.9,1.3.1,2.6.2,4,.2-1.4,1.5-2.7,2.9-4.1,4.4-.6.7-.2,1.9.8,1.9,2,0,3.9,0,5.9,0,1.4,0,1.4-2.2,0-2.2Z" fill="#116791" stroke-width="0"/>
              <path d="m394,208.6c-1.1,0-2.2,0-3.3,0,1.4-1.5,2.8-2.9,4.1-4.4.6-.7.2-2-.8-1.9-1.4,0-2.9,0-4.3,0,1.5-1.9,3.1-3.8,4.7-5.7.8-.9,0-2-1.1-1.9-1.5.2-3.1.3-4.6.2-1.4-.1-1.4,2.1,0,2.2.8,0,1.5,0,2.3,0-1.5,1.8-3,3.5-4.4,5.3-.6.8-.2,1.8.8,1.9,1.3.1,2.6.2,4,.2-1.4,1.5-2.7,2.9-4.1,4.4-.6.7-.2,1.9.8,1.9,2,0,3.9,0,5.9,0,1.4,0,1.4-2.2,0-2.2Z" fill="#116791" stroke-width="0"/>
              <path d="m394.1,228.7c-1.1,0-2.2,0-3.3,0,1.4-1.5,2.8-2.9,4.1-4.4.6-.7.2-2-.8-1.9-1.4,0-2.9,0-4.3,0,1.5-1.9,3.1-3.8,4.7-5.7.8-.9,0-2-1.1-1.9-1.5.2-3.1.3-4.6.2-1.4-.1-1.4,2.1,0,2.2.8,0,1.5,0,2.3,0-1.5,1.8-3,3.5-4.4,5.3-.6.8-.2,1.8.8,1.9,1.3.1,2.6.2,4,.2-1.4,1.5-2.7,2.9-4.1,4.4-.6.7-.2,1.9.8,1.9,2,0,3.9,0,5.9,0,1.4,0,1.4-2.2,0-2.2Z" fill="#116791" stroke-width="0"/>
              <path d="m394.4,249c-1.1,0-2.2,0-3.3,0,1.4-1.5,2.8-2.9,4.1-4.4.6-.7.2-2-.8-1.9-1.4,0-2.9,0-4.3,0,1.5-1.9,3.1-3.8,4.7-5.7.8-.9,0-2-1.1-1.9-1.5.2-3.1.3-4.6.2-1.4-.1-1.4,2.1,0,2.2.8,0,1.5,0,2.3,0-1.5,1.8-3,3.5-4.4,5.3-.6.8-.2,1.8.8,1.9,1.3.1,2.6.2,4,.2-1.4,1.5-2.7,2.9-4.1,4.4-.6.7-.2,1.9.8,1.9,2,0,3.9,0,5.9,0,1.4,0,1.4-2.2,0-2.2Z" fill="#116791" stroke-width="0"/>
              <path d="m409.4,147.9c-1.1,0-2.2,0-3.3,0,1.4-1.5,2.8-2.9,4.1-4.4.6-.7.2-2-.8-1.9-1.4,0-2.9,0-4.3,0,1.5-1.9,3.1-3.8,4.7-5.7.8-.9,0-2-1.1-1.9-1.5.2-3.1.3-4.6.2-1.4-.1-1.4,2.1,0,2.2.8,0,1.5,0,2.3,0-1.5,1.8-3,3.5-4.4,5.3-.6.8-.2,1.8.8,1.9,1.3.1,2.6.2,4,.2-1.4,1.5-2.7,2.9-4.1,4.4-.6.7-.2,1.9.8,1.9,2,0,3.9,0,5.9,0,1.4,0,1.4-2.2,0-2.2Z" fill="#116791" stroke-width="0"/>
              <path d="m409.7,168.2c-1.1,0-2.2,0-3.3,0,1.4-1.5,2.8-2.9,4.1-4.4.6-.7.2-2-.8-1.9-1.4,0-2.9,0-4.3,0,1.5-1.9,3.1-3.8,4.7-5.7.8-.9,0-2-1.1-1.9-1.5.2-3.1.3-4.6.2-1.4-.1-1.4,2.1,0,2.2.8,0,1.5,0,2.3,0-1.5,1.8-3,3.5-4.4,5.3-.6.8-.2,1.8.8,1.9,1.3.1,2.6.2,4,.2-1.4,1.5-2.7,2.9-4.1,4.4-.6.7-.2,1.9.8,1.9,2,0,3.9,0,5.9,0,1.4,0,1.4-2.2,0-2.2Z" fill="#116791" stroke-width="0"/>
              <path d="m409.9,188.6c-1.1,0-2.2,0-3.3,0,1.4-1.5,2.8-2.9,4.1-4.4.6-.7.2-2-.8-1.9-1.4,0-2.9,0-4.3,0,1.5-1.9,3.1-3.8,4.7-5.7.8-.9,0-2-1.1-1.9-1.5.2-3.1.3-4.6.2-1.4-.1-1.4,2.1,0,2.2.8,0,1.5,0,2.3,0-1.5,1.8-3,3.5-4.4,5.3-.6.8-.2,1.8.8,1.9,1.3.1,2.6.2,4,.2-1.4,1.5-2.7,2.9-4.1,4.4-.6.7-.2,1.9.8,1.9,2,0,3.9,0,5.9,0,1.4,0,1.4-2.2,0-2.2Z" fill="#116791" stroke-width="0"/>
              <path d="m410.2,208.9c-1.1,0-2.2,0-3.3,0,1.4-1.5,2.8-2.9,4.1-4.4.6-.7.2-2-.8-1.9-1.4,0-2.9,0-4.3,0,1.5-1.9,3.1-3.8,4.7-5.7.8-.9,0-2-1.1-1.9-1.5.2-3.1.3-4.6.2-1.4-.1-1.4,2.1,0,2.2.8,0,1.5,0,2.3,0-1.5,1.8-3,3.5-4.4,5.3-.6.8-.2,1.8.8,1.9,1.3.1,2.6.2,4,.2-1.4,1.5-2.7,2.9-4.1,4.4-.6.7-.2,1.9.8,1.9,2,0,3.9,0,5.9,0,1.4,0,1.4-2.2,0-2.2Z" fill="#116791" stroke-width="0"/>
              <path d="m410.3,228.9c-1.1,0-2.2,0-3.3,0,1.4-1.5,2.8-2.9,4.1-4.4.6-.7.2-2-.8-1.9-1.4,0-2.9,0-4.3,0,1.5-1.9,3.1-3.8,4.7-5.7.8-.9,0-2-1.1-1.9-1.5.2-3.1.3-4.6.2-1.4-.1-1.4,2.1,0,2.2.8,0,1.5,0,2.3,0-1.5,1.8-3,3.5-4.4,5.3-.6.8-.2,1.8.8,1.9,1.3.1,2.6.2,4,.2-1.4,1.5-2.7,2.9-4.1,4.4-.6.7-.2,1.9.8,1.9,2,0,3.9,0,5.9,0,1.4,0,1.4-2.2,0-2.2Z" fill="#116791" stroke-width="0"/>
              <path d="m410.6,249.2c-1.1,0-2.2,0-3.3,0,1.4-1.5,2.8-2.9,4.1-4.4.6-.7.2-2-.8-1.9-1.4,0-2.9,0-4.3,0,1.5-1.9,3.1-3.8,4.7-5.7.8-.9,0-2-1.1-1.9-1.5.2-3.1.3-4.6.2-1.4-.1-1.4,2.1,0,2.2.8,0,1.5,0,2.3,0-1.5,1.8-3,3.5-4.4,5.3-.6.8-.2,1.8.8,1.9,1.3.1,2.6.2,4,.2-1.4,1.5-2.7,2.9-4.1,4.4-.6.7-.2,1.9.8,1.9,2,0,3.9,0,5.9,0,1.4,0,1.4-2.2,0-2.2Z" fill="#116791" stroke-width="0"/>
              <path d="m425.6,148.1c-1.1,0-2.2,0-3.3,0,1.4-1.5,2.8-2.9,4.1-4.4.6-.7.2-2-.8-1.9-1.4,0-2.9,0-4.3,0,1.5-1.9,3.1-3.8,4.7-5.7.8-.9,0-2-1.1-1.9-1.5.2-3.1.3-4.6.2-1.4-.1-1.4,2.1,0,2.2.8,0,1.5,0,2.3,0-1.5,1.8-3,3.5-4.4,5.3-.6.8-.2,1.8.8,1.9,1.3.1,2.6.2,4,.2-1.4,1.5-2.7,2.9-4.1,4.4-.6.7-.2,1.9.8,1.9,2,0,3.9,0,5.9,0,1.4,0,1.4-2.2,0-2.2Z" fill="#116791" stroke-width="0"/>
              <path d="m425.9,168.4c-1.1,0-2.2,0-3.3,0,1.4-1.5,2.8-2.9,4.1-4.4.6-.7.2-2-.8-1.9-1.4,0-2.9,0-4.3,0,1.5-1.9,3.1-3.8,4.7-5.7.8-.9,0-2-1.1-1.9-1.5.2-3.1.3-4.6.2-1.4-.1-1.4,2.1,0,2.2.8,0,1.5,0,2.3,0-1.5,1.8-3,3.5-4.4,5.3-.6.8-.2,1.8.8,1.9,1.3.1,2.6.2,4,.2-1.4,1.5-2.7,2.9-4.1,4.4-.6.7-.2,1.9.8,1.9,2,0,3.9,0,5.9,0,1.4,0,1.4-2.2,0-2.2Z" fill="#116791" stroke-width="0"/>
              <path d="m426.2,188.8c-1.1,0-2.2,0-3.3,0,1.4-1.5,2.8-2.9,4.1-4.4.6-.7.2-2-.8-1.9-1.4,0-2.9,0-4.3,0,1.5-1.9,3.1-3.8,4.7-5.7.8-.9,0-2-1.1-1.9-1.5.2-3.1.3-4.6.2-1.4-.1-1.4,2.1,0,2.2.8,0,1.5,0,2.3,0-1.5,1.8-3,3.5-4.4,5.3-.6.8-.2,1.8.8,1.9,1.3.1,2.6.2,4,.2-1.4,1.5-2.7,2.9-4.1,4.4-.6.7-.2,1.9.8,1.9,2,0,3.9,0,5.9,0,1.4,0,1.4-2.2,0-2.2Z" fill="#116791" stroke-width="0"/>
              <path d="m426.5,209.1c-1.1,0-2.2,0-3.3,0,1.4-1.5,2.8-2.9,4.1-4.4.6-.7.2-2-.8-1.9-1.4,0-2.9,0-4.3,0,1.5-1.9,3.1-3.8,4.7-5.7.8-.9,0-2-1.1-1.9-1.5.2-3.1.3-4.6.2-1.4-.1-1.4,2.1,0,2.2.8,0,1.5,0,2.3,0-1.5,1.8-3,3.5-4.4,5.3-.6.8-.2,1.8.8,1.9,1.3.1,2.6.2,4,.2-1.4,1.5-2.7,2.9-4.1,4.4-.6.7-.2,1.9.8,1.9,2,0,3.9,0,5.9,0,1.4,0,1.4-2.2,0-2.2Z" fill="#116791" stroke-width="0"/>
              <path d="m426.5,229.1c-1.1,0-2.2,0-3.3,0,1.4-1.5,2.8-2.9,4.1-4.4.6-.7.2-2-.8-1.9-1.4,0-2.9,0-4.3,0,1.5-1.9,3.1-3.8,4.7-5.7.8-.9,0-2-1.1-1.9-1.5.2-3.1.3-4.6.2-1.4-.1-1.4,2.1,0,2.2.8,0,1.5,0,2.3,0-1.5,1.8-3,3.5-4.4,5.3-.6.8-.2,1.8.8,1.9,1.3.1,2.6.2,4,.2-1.4,1.5-2.7,2.9-4.1,4.4-.6.7-.2,1.9.8,1.9,2,0,3.9,0,5.9,0,1.4,0,1.4-2.2,0-2.2Z" fill="#116791" stroke-width="0"/>
              <path d="m426.8,249.4c-1.1,0-2.2,0-3.3,0,1.4-1.5,2.8-2.9,4.1-4.4.6-.7.2-2-.8-1.9-1.4,0-2.9,0-4.3,0,1.5-1.9,3.1-3.8,4.7-5.7.8-.9,0-2-1.1-1.9-1.5.2-3.1.3-4.6.2-1.4-.1-1.4,2.1,0,2.2.8,0,1.5,0,2.3,0-1.5,1.8-3,3.5-4.4,5.3-.6.8-.2,1.8.8,1.9,1.3.1,2.6.2,4,.2-1.4,1.5-2.7,2.9-4.1,4.4-.6.7-.2,1.9.8,1.9,2,0,3.9,0,5.9,0,1.4,0,1.4-2.2,0-2.2Z" fill="#116791" stroke-width="0"/>
            </g>
          </g>
        </g>
        <rect x="416.4" y="58.5" width="132" height="171.3" fill="#72bbff" stroke-width="0"/>
        <rect x="214.4" y="229.7" width="334" height="155.3" fill="#5ba1c3" stroke-width="0"/>
        <rect x="57.7" y="229.7" width="156.7" height="155.3" fill="#e2f0ff" stroke-width="0"/>
        <g clip-path="url(#clippath-12)">
          <g>
            <path d="m399.7,461.4c-6.4-.3-12.5-2.3-18.5-4.6l-.4-6.1,12.1-2c2.2,6.8,8.1,9.3,13,10.9-.5.5-1.1,1-1.7,1.3-1.4.6-3,.7-4.5.6Z" fill="#ececec" stroke-width="0"/>
            <path d="m381.2,456.8c6,2.3,12.1,4.3,18.5,4.6,1.5,0,3.1,0,4.5-.6.7-.3,1.2-.7,1.7-1.3,4.2,1.3,7.7,1.9,7.7,3.8,0,3.8-17.1,1.3-28.3-1.3-2.3-.5-3.9-2.5-4.1-4.9v-.4Z" fill="#ffe081" stroke-width="0"/>
            <polygon points="351.2 284.7 347.9 311.3 403.8 314.2 404.2 289.9 351.2 284.7" fill="#252525" stroke-width="0"/>
            <path d="m371.9,409.1c.1.9,3.2,36.4,3.2,36.4l6,6.2,11.6-1.4,6.4-6.1-1.2-32.6-26-2.3Z" fill="#fff7ec" stroke-width="0"/>
            <path d="m340.2,462.1c6.2-1.3,12-4.2,17.6-7.4l-.5-6.1-12.3-.2c-1.1,7.1-6.6,10.5-11.2,12.7.5.5,1.2.8,1.9,1,1.5.4,3.1.2,4.6-.1Z" fill="#ececec" stroke-width="0"/>
            <path d="m357.7,454.7c-5.6,3.2-11.3,6.1-17.6,7.4-1.5.3-3.1.5-4.6.1-.7-.2-1.3-.5-1.9-1-3.9,1.9-7.3,3-7.1,5,.5,3.7,17.1-1.3,27.8-5.7,2.2-.9,3.5-3.1,3.3-5.4v-.4Z" fill="#ffe081" stroke-width="0"/>
            <path d="m366,362.6c-1.8,15.7-3.6,31.3-5.4,47,0,.4,0,.9.2,1.2.3.3.8.4,1.2.4,6,.4,11.9.4,17.9.2.3,0,.6,0,.8-.2.2-.2.2-.6.2-.9-.2-15.6-.3-31.2-.5-46.8l-14.4-1Z" fill="#e9e0d7" stroke-width="0"/>
            <path d="m341.3,412.4c0,1-1.4,32.2-1.4,32.2l5.1,7,11.7.2,7.2-5.2,3.3-32.5-26-1.7Z" fill="#fff7ec" stroke-width="0"/>
            <path d="m279.7,331.8c-1.9.3-3.9.6-5.5,1.7-1.6,1.1-2.8,3.1-2.2,5,.5,1.6,2.1,2.6,3.6,3.2,2.9,1.1,6.2,1.2,9.2.3l-5.1-10.1Z" fill="#fdebd4" stroke-width="0"/>
            <path d="m348.1,306.2c-20.7,13.4-44.6,21.8-69.2,23.9.6,18.3,1.2,36.6,1.8,54.9,11.2-1.3,22.2-3.6,33-6.9,4.1-1.3,8.4-2.8,11.5-5.9,5.4-5.3,5-13.9,7.3-21.2,5.5-17.3,17.5-21.1,17.5-21.1,0,0-1.5-21.2-1.8-23.8Z" fill="#c0f6ff" stroke-width="0"/>
            <path d="m398.3,306c20.9,13,45,20.9,69.6,22.6-.3,18.3-.5,36.6-.8,55-11.2-1.1-22.3-3.2-33.1-6.3-4.2-1.2-8.4-2.6-11.6-5.6-5.5-5.2-5.2-13.8-7.7-21-5.8-17.2-17.9-20.8-17.9-20.8,0,0,1.1-21.2,1.4-23.9Z" fill="#c0f6ff" stroke-width="0"/>
            <path d="m351.9,338.1l-21.2,86.7s15.4,6.7,36,6.6l7.3-90.1-22.1-3.3Z" fill="#c0f6ff" stroke-width="0"/>
            <path d="m393.5,337.4l18.6,87.3s-15.6,6.3-36.2,5.6l-4.6-90.2,22.2-2.6Z" fill="#c0f6ff" stroke-width="0"/>
            <path d="m359.5,299.1l-11.4,7,1.7,25.6,1.5,5.7s9.8,5.6,21.3,5.8c11.5.2,20.8-2,20.8-2l3.2-5.9,5.9-26.7-11.4-7.4-31.7-2.2Z" fill="#c0f6ff" stroke-width="0"/>
            <polygon points="378.5 324.4 370.8 301.8 367.2 302.1 376.1 325.8 378.5 324.4" fill="#f1f1f1" stroke-width="0"/>
            <polygon points="367.2 302.1 362.7 302.6 371.5 328.6 376.1 325.8 367.2 302.1" fill="#7cdae6" stroke-width="0"/>
            <polygon points="381.7 304.9 361.3 340.8 364.2 342.1 384.8 305.1 381.7 304.9" fill="#f1f1f1" stroke-width="0"/>
            <polygon points="390 305.6 384.8 305.1 364.2 342.1 369.1 344.2 390 305.6" fill="#7cdae6" stroke-width="0"/>
            <path d="m487.1,267.8c-.2-4.7-.1-9.4.2-14.1,0-1.5.4-3.4,1.8-3.9,1-.4,2.3,0,3,.9.7.8,1.1,2,1.3,3,1.2,5.1,1.3,10.4.2,15.5l-6.5-1.5Z" fill="#fdebd4" stroke-width="0"/>
            <g>
              <path d="m501.6,264.2l-16.8-2.3c-.3,2.6-.5,5.1-.8,7.6l21,2.6c-1.8-4.9-3.3-7.9-3.3-7.9Z" fill="#c10b1e" stroke-width="0"/>
              <path d="m484,269.5c-4.6,38.9-12.4,57.6-12.4,57.6l8.8,13.5c38.2-16.6,30.4-52.6,24.6-68.5l-21-2.6Z" fill="#f8ed6e" stroke-width="0"/>
            </g>
            <path d="m453.7,366.9l-50.3,88.7s30,18,67.1,17.6c35.8-.3,47-11.7,47-11.7,0,0,4.4-62-24.7-109.6l-39.1,15Z" fill="#c10b1e" stroke-width="0"/>
            <path d="m488.4,355.5s17.3,28.7,14.3,81" fill="none" stroke="#a60b1a" stroke-miterlimit="10" stroke-width=".9"/>
            <path d="m482.8,359.1s6.6,12.4,6.5,33.4" fill="none" stroke="#a60b1a" stroke-miterlimit="10" stroke-width=".9"/>
            <path d="m458.1,367.2c-6,23-15.5,45.1-28.2,65.2" fill="none" stroke="#a60b1a" stroke-miterlimit="10" stroke-width=".9"/>
            <path d="m448.7,336.5c0,.8-.5,34.6-.5,34.6,0,0,26.8-.5,46.4-19.2l-23.8-26.2-22.1,10.8Z" fill="#f8ed6e" stroke-width="0"/>
            <polygon points="468.5 342.4 455.1 333.5 452.3 335.7 467.3 344.9 468.5 342.4" fill="#f1f1f1" stroke-width="0"/>
            <polygon points="452.3 335.7 448.6 338.5 464.9 349.7 467.3 344.9 452.3 335.7" fill="#c10b1e" stroke-width="0"/>
            <path d="m398,369.3c-4.4,1.4-8.8,3.1-13.1,5-1.4.6-3,1.5-3.1,3.1,0,1.1.9,2.1,1.9,2.5,1,.4,2.2.3,3.3.2,5.2-.6,10.2-2.3,14.6-5.1l-3.6-5.6Z" fill="#fdebd4" stroke-width="0"/>
            <polygon points="464.2 331 463.4 351.9 466.6 351.4 467 329.5 464.2 331" fill="#f1f1f1" stroke-width="0"/>
            <polygon points="471.6 327.1 467 329.5 466.6 351.4 471.8 350.6 471.6 327.1" fill="#c10b1e" stroke-width="0"/>
            <path d="m448,338.1s-16.5,15.4-47.8,28.9c1.7,4.7,4.2,12,6.1,17.2,6,.9,14.7.9,24.2-3.4,17.9-8.1,26.3-34.3,26.3-34.3l-8.9-8.4Z" fill="#f8ed6e" stroke-width="0"/>
            <path d="m394.2,369.6l3.7,12.4s3.2,1.5,8.4,2.3c-1.9-5.3-4.4-12.5-6.1-17.2l-6,2.6Z" fill="#c10b1e" stroke-width="0"/>
            <path d="m471.4,288.6c8.6,17.4,3,37.8-12.5,45.5-15.5,7.8-35.1,0-43.7-17.4-8.6-17.4-1.4-34.5,14.1-42.3,15.5-7.8,33.5-3.3,42.1,14.1Z" fill="#252525" stroke-width="0"/>
            <path d="m423.8,322.4c-1.3-.7-3.1,0-4,1.1-.9,1.2-.9,2.9-.5,4.3s1.4,2.7,2.4,3.8c1.8,2,4,3.8,6.7,4.3,2.6.5,5.7-.4,7-2.8l-11.7-10.8Z" fill="#fdebd4" stroke-width="0"/>
            <path d="m472,298.3c.2-1.5,1.8-2.5,3.3-2.5,1.5,0,2.9,1,3.7,2.2.9,1.2,1.3,2.7,1.6,4.2.5,2.7.6,5.5-.6,8-1.2,2.4-3.8,4.3-6.4,4l-1.6-15.9Z" fill="#fdebd4" stroke-width="0"/>
            <path d="m470.9,292.4c6.6,13.2,8.1,36.3-9.6,45.2-17.7,8.9-35.9-5.9-42.4-19.1-6.6-13.2-.2-29.8,14.1-37,14.4-7.2,31.3-2.3,37.9,10.9Z" fill="#fdebd4" stroke-width="0"/>
            <path d="m462.9,324.6c-1,2.9-3.7,7-10.5,5.8-.8-.1-.8-1.2,0-1.4,2.5-.7,6.2-2.2,9.3-5.2.5-.5,1.4,0,1.2.8Z" fill="#fd8686" stroke-width="0"/>
            <path d="m425.3,316.6s3.2-7,13.7-8.5c0,0-7.6,3-13.7,8.5Z" fill="#252525" stroke-width="0"/>
            <path d="m449.4,302.7s4.3-6.4,14.9-6.1c0,0-8,1.7-14.9,6.1Z" fill="#252525" stroke-width="0"/>
            <path d="m450.7,321.7c-.4-.2-.2-.8.3-.8.7,0,1.6,0,2.6-.5s1.7-1.2,2-2,.8-.3.8.2c0,1.2-.3,2.6-1.9,3.4-1.5.7-2.8.3-3.8-.3Z" fill="#e2be88" stroke-width="0"/>
            <ellipse cx="441.3" cy="325.9" rx="3.1" ry="3.1" fill="#fdcdc5" stroke-width="0"/>
            <ellipse cx="442.3" cy="300.2" rx="3.1" ry="3.1" fill="#fdcdc5" stroke-width="0"/>
            <ellipse cx="465" cy="314" rx="3.1" ry="3.1" fill="#fdcdc5" stroke-width="0"/>
            <polyline points="431.6 284.7 428.2 277 433.6 283.7" fill="#fdebd4" stroke-width="0"/>
            <path d="m443.3,317.1c-4.7,0-7.5,1.8-9.2,3.7-1.3,1.1-2.9,1.9-4.6,2.1.9.5,2.1.5,3.9.3,1.8-.3,3.9-4.7,10.1-5.1.5,0,.4-.9-.1-.9Z" fill="#252525" stroke-width="0"/>
            <path d="m455.1,310.8c2.7-3.8,5.9-5,8.5-5.2,1.7-.4,3.2-1.2,4.4-2.5-.2,1-.9,2-2.1,3.3s-6.1.4-10.1,5.1c-.4.4-1-.2-.7-.7Z" fill="#252525" stroke-width="0"/>
            <line x1="448.6" y1="345.7" x2="448.4" y2="364.2" fill="none" stroke="#f6c500" stroke-miterlimit="10" stroke-width=".9"/>
            <line x1="476.7" y1="331.7" x2="483.1" y2="339.2" fill="none" stroke="#f6c500" stroke-miterlimit="10" stroke-width=".9"/>
            <polygon points="465.5 352.8 467.7 358.5 474 355.5 471.4 350.1 465.5 352.8" fill="#c10b1e" stroke-width="0"/>
            <polygon points="470.8 351 481.1 343.7 484.7 351.5 472.7 355.5 470.8 351" fill="#c10b1e" stroke-width="0"/>
            <path d="m466.1,353.7s-2.5,1.2-2.7,4.5c-.2,3.3-.7,30-12.2,57.3l5.8,3s13.9-38.7,11-61.7l-1.9-3Z" fill="#c10b1e" stroke-width="0"/>
            <path d="m461.4,406.8s0,0,.1,0c1.8.6,3.7,1,5.6,1.4,2.3-13.5,5.2-36.4,1.5-51.4l-2.2-2.8s-2.3,1.5-2.2,4.8c.1,2.9,2.2,23.7-2.8,48Z" fill="#c10b1e" stroke-width="0"/>
            <path d="m352.2,272.1c-.7-1.4-2.5-1.9-3.9-1.4s-2.5,1.8-2.9,3.3-.4,3-.2,4.5c.3,2.7,1.2,5.5,3,7.5,1.9,2,5,3,7.4,1.8l-3.4-15.8Z" fill="#fdebd4" stroke-width="0"/>
            <path d="m406.1,280.2c1.1-1.1,2.9-1.1,4.2-.1,1.2.9,1.8,2.5,1.8,4,0,1.5-.5,3-1.1,4.4-1.1,2.5-2.7,4.9-5.1,6.3-2.4,1.4-5.6,1.4-7.6-.4l7.9-14.1Z" fill="#fdebd4" stroke-width="0"/>
            <path d="m408.6,274.7c-2.2,14.8-14.3,34.8-34.1,31.8-19.8-3-26.3-25.9-24.1-40.6,2.2-14.8,17-24.8,33.1-22.4,16.1,2.4,27.3,16.4,25.1,31.2Z" fill="#fdebd4" stroke-width="0"/>
            <path d="m359.1,273c2.4-1.4,7.4-3.2,13.2,1.4.4.3,0,.8-.4.7-2.6-.8-7.3-2-12.6-1.4-.4,0-.6-.5-.2-.7Z" fill="#252525" stroke-width="0"/>
            <path d="m383.6,296.4c-2.5,2-7.4,4.2-12.6-1.2-.5-.5,0-1.3.7-1.1,2.5.9,6.7,2,11.5,1.1.7-.1,1,.7.5,1.1Z" fill="#fd8686" stroke-width="0"/>
            <path d="m357.4,264.7s6.7-3.9,16.3,1c0,0-8-2-16.3-1Z" fill="#252525" stroke-width="0"/>
            <path d="m385.5,267.4s7.2-2.8,15.9,3.7c0,0-7.6-3.3-15.9-3.7Z" fill="#252525" stroke-width="0"/>
            <path d="m385.8,276c2.5-1.3,7.4-2.5,12.5,2.3.4.4,0,1-.5.8-2.5-1-6.8-2.4-11.7-2.2-.5,0-.7-.7-.2-.9Z" fill="#252525" stroke-width="0"/>
            <path d="m373.5,285.3c-.2-.6.5-1.1.9-.7.7.6,1.8,1.2,3.3,1.5,1.6.3,2.9,0,3.8-.6s1.1.3.8.8c-.9,1.4-2.4,2.8-4.8,2.3s-3.5-2-4.1-3.4Z" fill="#fdd794" stroke-width="0"/>
            <path d="m349.9,262.1c1.9,3.2,6.8-12,29.6-9.7,22.8,2.3,27.8,17.7,30.9,15.8,3-1.9-19.3-54.3-26-55-6.7-.7-36.3,45.7-34.5,48.8Z" fill="#252525" stroke-width="0"/>
            <path d="m369.1,290.3c-1,.2-1.9.5-2.9.8-1,.2-2.1.3-3.1,0,1,1.1,2.9,1.9,4.7,1.8,1.7,0,3.1-.8,4.7-1.3,1.1-.3,2.2-.4,3.3-.3-2.1-.9-4.4-1.3-6.7-.8Z" fill="#252525" stroke-width="0"/>
            <path d="m386.9,292.3c.9.4,1.8.9,2.7,1.3.9.4,2,.7,3,.5-1.2.9-3.2,1.2-5,.8-1.6-.4-2.9-1.4-4.3-2.2-1-.5-2-.9-3.2-1,2.2-.4,4.6-.4,6.7.5Z" fill="#252525" stroke-width="0"/>
            <path d="m368.7,304.5s2.2,11.4,5.9,12.1,8.9-10.5,8.9-10.5c0,0-3,.8-7.5.3s-7.3-2-7.3-2Z" fill="#252525" stroke-width="0"/>
            <path d="m350.9,336.5s19.4,6.9,43.5,3.4l.9,5.2s-20.5,5.4-45.4-3l1-5.6Z" fill="#7cdae6" stroke-width="0"/>
            <polygon points="368.9 338.9 369.7 345.7 377.4 344.1 376 337.6 368.9 338.9" fill="#7cdae6" stroke-width="0"/>
            <polygon points="375.1 338.4 388.2 333.4 390 342.8 376 343.8 375.1 338.4" fill="#7cdae6" stroke-width="0"/>
            <path d="m369.3,339.9s-3,.6-4.2,4.1c-1.2,3.5-9,32.1-29,58.3l5.4,4.9s25.7-37.8,29-63.4l-1.2-3.8Z" fill="#7cdae6" stroke-width="0"/>
            <path d="m349.6,395.9s0,0,.1,0c1.8,1.1,3.7,2.1,5.6,3,6.2-13.9,15.6-37.7,15.8-55l-1.6-3.6s-2.9,1-3.7,4.6c-.7,3.1-4.2,26.2-16.3,50.9Z" fill="#7cdae6" stroke-width="0"/>
            <path d="m306.6,302c-12.5-11.5-30.8-15.6-47.7-8.9-17.4,6.9-28.2,23.3-28.9,40.9l46.5,1.4,1.7-.7,28.3-32.7Z" fill="#fff" stroke-width="0"/>
          </g>
        </g>
        <g clip-path="url(#clippath-13)">
          <g>
            <rect x="74.7" y="60.6" width="8.9" height="335.7" transform="translate(182.4 9.8) rotate(44.4)" fill="#bfe2ff" stroke-width="0"/>
            <rect x="89.8" y="75.4" width="8.9" height="335.7" transform="translate(197 3.5) rotate(44.4)" fill="#bfe2ff" stroke-width="0"/>
            <rect x="104.9" y="90.2" width="8.9" height="335.7" transform="translate(211.6 -2.9) rotate(44.4)" fill="#bfe2ff" stroke-width="0"/>
            <rect x="120" y="104.9" width="8.9" height="335.7" transform="translate(226.2 -9.2) rotate(44.4)" fill="#bfe2ff" stroke-width="0"/>
            <rect x="135.1" y="119.7" width="8.9" height="335.7" transform="translate(240.8 -15.6) rotate(44.4)" fill="#bfe2ff" stroke-width="0"/>
            <rect x="150.2" y="134.4" width="8.9" height="335.7" transform="translate(255.5 -21.9) rotate(44.4)" fill="#bfe2ff" stroke-width="0"/>
            <rect x="165.2" y="149.2" width="8.9" height="335.7" transform="translate(270.1 -28.3) rotate(44.4)" fill="#bfe2ff" stroke-width="0"/>
            <rect x="180.3" y="163.9" width="8.9" height="335.7" transform="translate(284.7 -34.6) rotate(44.4)" fill="#bfe2ff" stroke-width="0"/>
            <rect x="195.4" y="178.7" width="8.9" height="335.7" transform="translate(299.3 -40.9) rotate(44.4)" fill="#bfe2ff" stroke-width="0"/>
            <rect x="210.5" y="193.5" width="8.9" height="335.7" transform="translate(314 -47.3) rotate(44.4)" fill="#bfe2ff" stroke-width="0"/>
            <rect x="227.6" y="207.3" width="8.9" height="335.7" transform="translate(328.5 -55.3) rotate(44.4)" fill="#bfe2ff" stroke-width="0"/>
            <rect x="242.7" y="222.1" width="8.9" height="335.7" transform="translate(343.2 -61.6) rotate(44.4)" fill="#bfe2ff" stroke-width="0"/>
            <polygon points="56.2 306.3 54.5 307 55.6 307 56.2 306.3" fill="none" stroke-width="0"/>
          </g>
        </g>
        <g>
          <rect x="539.7" y="58.3" width="8.8" height="171.4" fill="#50a1e5" stroke-width="0"/>
          <rect x="521.6" y="58.3" width="8.8" height="171.4" fill="#50a1e5" stroke-width="0"/>
          <rect x="503.6" y="58.3" width="8.8" height="171.4" fill="#50a1e5" stroke-width="0"/>
          <rect x="485.5" y="58.3" width="8.8" height="171.4" fill="#50a1e5" stroke-width="0"/>
          <rect x="467.5" y="58.3" width="8.8" height="171.4" fill="#50a1e5" stroke-width="0"/>
          <rect x="449.4" y="58.3" width="8.8" height="171.4" fill="#50a1e5" stroke-width="0"/>
          <rect x="431.4" y="58.3" width="8.8" height="171.4" fill="#50a1e5" stroke-width="0"/>
          <rect x="413.3" y="58.3" width="8.8" height="171.4" fill="#50a1e5" stroke-width="0"/>
          <rect x="395.3" y="58.3" width="8.8" height="171.4" fill="#50a1e5" stroke-width="0"/>
          <rect x="377.2" y="58.3" width="8.8" height="171.4" fill="#50a1e5" stroke-width="0"/>
        </g>
      </g>
      <polygon points="61.1 664.9 784.1 663.9 784.1 45.8 61.1 46.8 61.1 664.9" fill="none" stroke-width="0"/>
      <path d="m845,37.3c0-20.5-14.3-37.3-31.9-37.3h-341.8c-6.8,23.8-26,40.9-48.7,40.9s-41.9-17.2-48.7-40.9H31.9C14.4,0,0,16.8,0,37.3v32.2h845v-32.2Z" fill="#fff" stroke-width="0"/>
      <path d="m0,60.5v770.9c0,20.1,14.1,36.6,31.3,36.6h15.7c0-6,4.2-10.9,9.3-10.9s9.3,4.9,9.3,10.9h11.9c0-6,4.2-10.9,9.3-10.9s9.3,4.9,9.3,10.9h11.9c0-6,4.2-10.9,9.3-10.9s9.3,4.9,9.3,10.9h11.9c0-6,4.2-10.9,9.3-10.9s9.3,4.9,9.3,10.9h11.9c0-6,4.2-10.9,9.3-10.9s9.3,4.9,9.3,10.9h11.9c0-6,4.2-10.9,9.3-10.9s9.3,4.9,9.3,10.9h11.9c0-6,4.2-10.9,9.3-10.9s9.3,4.9,9.3,10.9h11.9c0-6,4.2-10.9,9.3-10.9s9.3,4.9,9.3,10.9h11.9c0-6,4.2-10.9,9.3-10.9s9.3,4.9,9.3,10.9h11.9c0-6,4.2-10.9,9.3-10.9s9.3,4.9,9.3,10.9h11.9c0-6,4.2-10.9,9.3-10.9s9.3,4.9,9.3,10.9h11.9c0-6,4.2-10.9,9.3-10.9s9.3,4.9,9.3,10.9h11.9c0-6,4.2-10.9,9.3-10.9s9.3,4.9,9.3,10.9h11.9c0-6,4.2-10.9,9.3-10.9s9.3,4.9,9.3,10.9h11.9c0-6,4.2-10.9,9.3-10.9s9.3,4.9,9.3,10.9h11.9c0-6,4.2-10.9,9.3-10.9s9.3,4.9,9.3,10.9h11.9c0-6,4.2-10.9,9.3-10.9s9.3,4.9,9.3,10.9h11.9c0-6,4.2-10.9,9.3-10.9s9.3,4.9,9.3,10.9h11.9c0-6,4.2-10.9,9.3-10.9s9.3,4.9,9.3,10.9h11.9c0-6,4.2-10.9,9.3-10.9s9.3,4.9,9.3,10.9h11.9c0-6,4.2-10.9,9.3-10.9s9.3,4.9,9.3,10.9h11.9c0-6,4.2-10.9,9.3-10.9s9.3,4.9,9.3,10.9h11.9c0-6,4.2-10.9,9.3-10.9s9.3,4.9,9.3,10.9h11.9c0-6,4.2-10.9,9.3-10.9s9.3,4.9,9.3,10.9h11.9c0-6,4.2-10.9,9.3-10.9s9.3,4.9,9.3,10.9h15.1c17.2,0,31.3-16.5,31.3-36.6v-240h0V60.5H0Zm784.1,507.2l-723-1,.7-484.9,722.7-.3-.4,486.2Z" fill="#fff" stroke-width="0"/>
      <g>
        <g>
          <rect x="61.5" y="625" width="102.4" height="16.4" transform="translate(-5.7 1.1) rotate(-.5)" fill="#00589d" stroke-width="0"/>
        </g>
      </g>
      <g>
        <g>
          <polygon points="845 388.1 804.7 418.5 804.7 445.6 845 415.2 845 388.1" fill="#72bbff" stroke-width="0"/>
          <polygon points="845 225.3 804.7 255.7 804.7 282.8 845 252.4 845 225.3" fill="#72bbff" stroke-width="0"/>
          <polygon points="845 279.6 804.7 310 804.7 337.1 845 306.6 845 279.6" fill="#72bbff" stroke-width="0"/>
          <polygon points="845 333.8 804.7 364.3 804.7 391.3 845 360.9 845 333.8" fill="#72bbff" stroke-width="0"/>
        </g>
        <g>
          <polygon points="845 62.8 804.7 93.3 804.7 120.3 845 89.9 845 62.8" fill="#72bbff" stroke-width="0"/>
          <polygon points="845 117.1 804.7 147.5 804.7 174.6 845 144.2 845 117.1" fill="#72bbff" stroke-width="0"/>
          <polygon points="804.7 228.9 845 198.4 845 171.3 804.7 201.8 804.7 228.9" fill="#72bbff" stroke-width="0"/>
        </g>
      </g>
    </g>
  </g>
</svg>