<svg xmlns="http://www.w3.org/2000/svg" xmlns:xlink="http://www.w3.org/1999/xlink" width="674.76" height="342.417" viewBox="0 0 224.92 114.139">
  <defs>
    <clipPath id="clip-path">
      <path id="패스_280" data-name="패스 280" d="M910.856,439.457a404.832,404.832,0,0,1-66.9-5.915l.04,27.1s-22.506,12.652-42.168,10.446l-3.377,7.533s9.416,3.631,28.605,4.838c9.433.594,158.291.372,167.721-.249,19.185-1.264,28.592-4.922,28.592-4.922l-3.4-7.524c-19.654,2.264-42.2-10.32-42.2-10.32l-.04-27.1a404.737,404.737,0,0,1-66.877,6.112" transform="translate(-798.455 -433.345)" fill="none"/>
    </clipPath>
  </defs>
  <g id="오브제_성균관" transform="translate(-798.861 -438.647)">
    <g id="그룹_61" data-name="그룹 61" transform="translate(88.499 224.737)">
      <rect id="사각형_127" data-name="사각형 127" width="162.72" height="41.753" transform="matrix(1, -0.001, 0.001, 1, 741.023, 273)" fill="#cfae81"/>
      <rect id="사각형_128" data-name="사각형 128" width="161.321" height="25.851" transform="translate(741.857 284.427) rotate(-0.14)" fill="#ad8962"/>
      <path id="패스_277" data-name="패스 277" d="M800.341,463.949l20.26,9.424,180.561-.268,21.269-9.79Z" transform="translate(-87.149 -198.802)" fill="#163c5b"/>
      <path id="패스_278" data-name="패스 278" d="M1021.227,467.6s-19.657,4.721-41.712-8.042l.444-29.991s-26.471,7.248-69.6,7.372c-43.134,0-69.628-7.165-69.628-7.165l.534,29.989c-22.017,12.829-41.688,8.167-41.688,8.167L802.565,476l107.316,4.991v.051l.538-.027.537.026v-.051l107.3-5.31Z" transform="translate(-87.533 -215.662)" fill="#fbfbf6"/>
      <path id="패스_279" data-name="패스 279" d="M1019.972,470.765c-19.654,2.264-42.2-10.32-42.2-10.32l-.04-27.1a374.992,374.992,0,0,1-133.774.2l.041,27.1s-22.508,12.652-42.168,10.446l-3.379,7.534s9.418,3.629,28.607,4.836c9.431.594,158.291.372,167.719-.249,19.186-1.264,28.593-4.922,28.593-4.922Z" transform="translate(-88.091 -213.776)" fill="#275380"/>
    </g>
    <g id="그룹_12" data-name="그룹 12" transform="translate(798.863 444.306)">
      <g id="그룹_11" data-name="그룹 11" clip-path="url(#clip-path)">
        <rect id="사각형_130" data-name="사각형 130" width="2.034" height="91.314" transform="translate(11.1 -19.069) rotate(-0.085)" fill="#163c5b"/>
        <rect id="사각형_131" data-name="사각형 131" width="2.034" height="91.314" transform="translate(16.301 -19.077) rotate(-0.085)" fill="#163c5b"/>
        <rect id="사각형_132" data-name="사각형 132" width="2.034" height="91.314" transform="translate(21.502 -19.085) rotate(-0.085)" fill="#163c5b"/>
        <rect id="사각형_133" data-name="사각형 133" width="2.034" height="91.314" transform="translate(-4.503 -19.046) rotate(-0.085)" fill="#163c5b"/>
        <rect id="사각형_134" data-name="사각형 134" width="2.034" height="91.314" transform="translate(0.698 -19.054) rotate(-0.085)" fill="#163c5b"/>
        <rect id="사각형_135" data-name="사각형 135" width="2.034" height="91.314" transform="translate(5.899 -19.062) rotate(-0.085)" fill="#163c5b"/>
        <rect id="사각형_136" data-name="사각형 136" width="2.034" height="91.314" transform="translate(26.704 -19.093) rotate(-0.085)" fill="#163c5b"/>
        <rect id="사각형_137" data-name="사각형 137" width="2.034" height="91.314" transform="translate(31.905 -19.1) rotate(-0.085)" fill="#163c5b"/>
        <rect id="사각형_138" data-name="사각형 138" width="2.034" height="91.314" transform="translate(37.106 -19.108) rotate(-0.085)" fill="#163c5b"/>
        <rect id="사각형_139" data-name="사각형 139" width="2.034" height="91.314" transform="translate(42.307 -19.116) rotate(-0.085)" fill="#163c5b"/>
        <rect id="사각형_140" data-name="사각형 140" width="2.034" height="91.314" transform="translate(47.508 -19.124) rotate(-0.085)" fill="#163c5b"/>
        <rect id="사각형_141" data-name="사각형 141" width="2.034" height="91.314" transform="translate(52.709 -19.131) rotate(-0.085)" fill="#163c5b"/>
        <rect id="사각형_142" data-name="사각형 142" width="2.034" height="91.314" transform="translate(57.91 -19.139) rotate(-0.085)" fill="#163c5b"/>
        <rect id="사각형_143" data-name="사각형 143" width="2.034" height="91.314" transform="translate(63.111 -19.147) rotate(-0.085)" fill="#163c5b"/>
        <rect id="사각형_144" data-name="사각형 144" width="2.034" height="91.314" transform="translate(68.312 -19.154) rotate(-0.085)" fill="#163c5b"/>
        <rect id="사각형_145" data-name="사각형 145" width="2.034" height="91.314" transform="translate(73.513 -19.162) rotate(-0.085)" fill="#163c5b"/>
        <rect id="사각형_146" data-name="사각형 146" width="2.034" height="91.314" transform="translate(78.714 -19.17) rotate(-0.085)" fill="#163c5b"/>
        <rect id="사각형_147" data-name="사각형 147" width="2.034" height="91.314" transform="translate(83.915 -19.178) rotate(-0.085)" fill="#163c5b"/>
        <rect id="사각형_148" data-name="사각형 148" width="2.034" height="91.314" transform="translate(89.116 -19.185) rotate(-0.085)" fill="#163c5b"/>
        <rect id="사각형_149" data-name="사각형 149" width="2.034" height="91.314" transform="translate(94.317 -19.193) rotate(-0.085)" fill="#163c5b"/>
        <rect id="사각형_150" data-name="사각형 150" width="2.034" height="91.314" transform="translate(99.518 -19.201) rotate(-0.085)" fill="#163c5b"/>
        <rect id="사각형_151" data-name="사각형 151" width="2.034" height="91.314" transform="translate(104.719 -19.209) rotate(-0.085)" fill="#163c5b"/>
        <rect id="사각형_152" data-name="사각형 152" width="2.034" height="91.314" transform="translate(109.92 -19.216) rotate(-0.085)" fill="#163c5b"/>
        <rect id="사각형_153" data-name="사각형 153" width="2.034" height="91.314" transform="translate(115.121 -19.224) rotate(-0.085)" fill="#163c5b"/>
        <rect id="사각형_154" data-name="사각형 154" width="2.034" height="91.314" transform="translate(120.322 -19.232) rotate(-0.085)" fill="#163c5b"/>
        <rect id="사각형_155" data-name="사각형 155" width="2.034" height="91.314" transform="translate(125.523 -19.239) rotate(-0.085)" fill="#163c5b"/>
        <rect id="사각형_156" data-name="사각형 156" width="2.034" height="91.314" transform="translate(130.724 -19.247) rotate(-0.085)" fill="#163c5b"/>
        <rect id="사각형_157" data-name="사각형 157" width="2.034" height="91.314" transform="translate(135.925 -19.255) rotate(-0.085)" fill="#163c5b"/>
        <rect id="사각형_158" data-name="사각형 158" width="2.034" height="91.314" transform="translate(141.126 -19.263) rotate(-0.085)" fill="#163c5b"/>
        <rect id="사각형_159" data-name="사각형 159" width="2.034" height="91.314" transform="translate(146.327 -19.27) rotate(-0.085)" fill="#163c5b"/>
        <rect id="사각형_160" data-name="사각형 160" width="2.034" height="91.314" transform="translate(151.529 -19.278) rotate(-0.085)" fill="#163c5b"/>
        <rect id="사각형_161" data-name="사각형 161" width="2.034" height="91.314" transform="translate(156.73 -19.286) rotate(-0.085)" fill="#163c5b"/>
        <rect id="사각형_162" data-name="사각형 162" width="2.034" height="91.314" transform="translate(161.931 -19.293) rotate(-0.085)" fill="#163c5b"/>
        <rect id="사각형_163" data-name="사각형 163" width="2.034" height="91.314" transform="translate(167.132 -19.301) rotate(-0.085)" fill="#163c5b"/>
        <rect id="사각형_164" data-name="사각형 164" width="2.034" height="91.314" transform="translate(172.333 -19.309) rotate(-0.085)" fill="#163c5b"/>
        <rect id="사각형_165" data-name="사각형 165" width="2.034" height="91.314" transform="translate(177.534 -19.317) rotate(-0.085)" fill="#163c5b"/>
        <rect id="사각형_166" data-name="사각형 166" width="2.034" height="91.314" transform="translate(182.735 -19.324) rotate(-0.085)" fill="#163c5b"/>
        <rect id="사각형_167" data-name="사각형 167" width="2.034" height="91.314" transform="translate(187.936 -19.332) rotate(-0.085)" fill="#163c5b"/>
        <rect id="사각형_168" data-name="사각형 168" width="2.034" height="91.314" transform="translate(193.137 -19.34) rotate(-0.085)" fill="#163c5b"/>
        <rect id="사각형_169" data-name="사각형 169" width="2.034" height="91.314" transform="translate(198.338 -19.348) rotate(-0.085)" fill="#163c5b"/>
        <rect id="사각형_170" data-name="사각형 170" width="2.034" height="91.314" transform="translate(203.539 -19.355) rotate(-0.085)" fill="#163c5b"/>
        <rect id="사각형_171" data-name="사각형 171" width="2.034" height="91.314" transform="translate(208.74 -19.363) rotate(-0.085)" fill="#163c5b"/>
        <rect id="사각형_172" data-name="사각형 172" width="2.034" height="91.314" transform="translate(213.941 -19.371) rotate(-0.085)" fill="#163c5b"/>
        <rect id="사각형_173" data-name="사각형 173" width="2.034" height="91.314" transform="translate(219.142 -19.378) rotate(-0.085)" fill="#163c5b"/>
        <rect id="사각형_174" data-name="사각형 174" width="2.034" height="91.314" transform="translate(224.343 -19.386) rotate(-0.085)" fill="#163c5b"/>
      </g>
    </g>
    <g id="그룹_14" data-name="그룹 14" transform="translate(88.499 224.737)">
      <rect id="사각형_175" data-name="사각형 175" width="202.782" height="13.302" transform="translate(720.266 314.555) rotate(-0.084)" fill="#8b9ca8"/>
      <rect id="사각형_176" data-name="사각형 176" width="8.174" height="18.953" transform="translate(878.014 287.664) rotate(-0.084)" fill="#f2e6d6"/>
      <rect id="사각형_177" data-name="사각형 177" width="8.174" height="18.953" transform="translate(888.499 287.648) rotate(-0.084)" fill="#f2e6d6"/>
      <rect id="사각형_178" data-name="사각형 178" width="5.523" height="18.953" transform="translate(777.654 287.813) rotate(-0.078)" fill="#f2e6d6"/>
      <rect id="사각형_179" data-name="사각형 179" width="5.523" height="18.953" transform="translate(785.252 287.801) rotate(-0.078)" fill="#f2e6d6"/>
      <rect id="사각형_180" data-name="사각형 180" width="5.523" height="18.953" transform="translate(792.85 287.79) rotate(-0.078)" fill="#f2e6d6"/>
      <rect id="사각형_181" data-name="사각형 181" width="5.523" height="18.953" transform="translate(811.259 287.763) rotate(-0.078)" fill="#f2e6d6"/>
      <rect id="사각형_182" data-name="사각형 182" width="5.523" height="18.953" transform="translate(818.857 287.751) rotate(-0.078)" fill="#f2e6d6"/>
      <rect id="사각형_183" data-name="사각형 183" width="5.523" height="18.953" transform="translate(826.455 287.74) rotate(-0.078)" fill="#f2e6d6"/>
      <rect id="사각형_184" data-name="사각형 184" width="5.523" height="18.953" transform="translate(844.736 287.713) rotate(-0.078)" fill="#f2e6d6"/>
      <rect id="사각형_185" data-name="사각형 185" width="5.523" height="18.953" transform="translate(852.334 287.702) rotate(-0.078)" fill="#f2e6d6"/>
      <rect id="사각형_186" data-name="사각형 186" width="5.523" height="18.953" transform="translate(859.932 287.69) rotate(-0.078)" fill="#f2e6d6"/>
      <rect id="사각형_187" data-name="사각형 187" width="8.174" height="18.953" transform="translate(747.579 287.858) rotate(-0.084)" fill="#f2e6d6"/>
      <rect id="사각형_188" data-name="사각형 188" width="8.174" height="18.953" transform="translate(758.064 287.842) rotate(-0.084)" fill="#f2e6d6"/>
      <path id="패스_281" data-name="패스 281" d="M823.73,510.045l-8.2.019.847-40.217,6-.015Z" transform="translate(-79.561 -195.546)" fill="#8c6944"/>
      <path id="패스_282" data-name="패스 282" d="M845.576,510.1l-8.2.02.847-40.329,6-.015Z" transform="translate(-68.646 -195.573)" fill="#8c6944"/>
      <path id="패스_283" data-name="패스 283" d="M867.422,510.051l-8.2.019.847-40.329,6-.015Z" transform="translate(-57.731 -195.6)" fill="#8c6944"/>
      <path id="패스_284" data-name="패스 284" d="M889.268,510l-8.2.019.847-40.329,6-.015Z" transform="translate(-46.816 -195.626)" fill="#8c6944"/>
      <path id="패스_285" data-name="패스 285" d="M911.115,509.944l-8.2.019.847-40.329,6-.015Z" transform="translate(-35.902 -195.653)" fill="#8c6944"/>
      <path id="패스_286" data-name="패스 286" d="M932.961,509.891l-8.2.019.847-40.329,6-.015Z" transform="translate(-24.987 -195.679)" fill="#8c6944"/>
      <rect id="사각형_189" data-name="사각형 189" width="20.693" height="5.904" transform="translate(745.526 276.304) rotate(-0.141)" fill="#e6c193"/>
      <rect id="사각형_190" data-name="사각형 190" width="20.693" height="5.904" transform="translate(778.336 276.224) rotate(-0.141)" fill="#e6c193"/>
      <rect id="사각형_191" data-name="사각형 191" width="20.693" height="5.904" transform="translate(811.147 276.144) rotate(-0.141)" fill="#e6c193"/>
      <rect id="사각형_192" data-name="사각형 192" width="20.693" height="5.904" transform="translate(843.957 276.064) rotate(-0.141)" fill="#e6c193"/>
      <rect id="사각형_193" data-name="사각형 193" width="20.693" height="5.904" transform="translate(876.768 275.984) rotate(-0.141)" fill="#e6c193"/>
      <rect id="사각형_194" data-name="사각형 194" width="8.203" height="2.987" transform="translate(735.868 274.303) rotate(-0.136)" fill="#8c6944"/>
      <rect id="사각형_195" data-name="사각형 195" width="10.958" height="2.987" transform="matrix(1, -0.002, 0.002, 1, 734.651, 310.751)" fill="#8c6944"/>
      <rect id="사각형_196" data-name="사각형 196" width="8.203" height="2.987" transform="translate(768.614 274.223) rotate(-0.136)" fill="#8c6944"/>
      <rect id="사각형_197" data-name="사각형 197" width="10.958" height="2.987" transform="matrix(1, -0.002, 0.002, 1, 767.398, 310.671)" fill="#8c6944"/>
      <rect id="사각형_198" data-name="사각형 198" width="8.203" height="2.987" transform="translate(801.361 274.143) rotate(-0.136)" fill="#8c6944"/>
      <rect id="사각형_199" data-name="사각형 199" width="10.958" height="2.987" transform="matrix(1, -0.002, 0.002, 1, 800.144, 310.592)" fill="#8c6944"/>
      <rect id="사각형_200" data-name="사각형 200" width="8.203" height="2.987" transform="translate(834.107 274.063) rotate(-0.136)" fill="#8c6944"/>
      <rect id="사각형_201" data-name="사각형 201" width="10.958" height="2.987" transform="matrix(1, -0.002, 0.002, 1, 832.891, 310.512)" fill="#8c6944"/>
      <rect id="사각형_202" data-name="사각형 202" width="8.203" height="2.987" transform="translate(866.854 273.984) rotate(-0.136)" fill="#8c6944"/>
      <rect id="사각형_203" data-name="사각형 203" width="10.958" height="2.987" transform="matrix(1, -0.002, 0.002, 1, 865.637, 310.432)" fill="#8c6944"/>
      <rect id="사각형_204" data-name="사각형 204" width="8.203" height="2.987" transform="translate(899.6 273.904) rotate(-0.136)" fill="#8c6944"/>
      <rect id="사각형_205" data-name="사각형 205" width="10.958" height="2.987" transform="matrix(1, -0.002, 0.002, 1, 898.384, 310.352)" fill="#8c6944"/>
      <rect id="사각형_206" data-name="사각형 206" width="202.782" height="1.426" transform="translate(720.281 313.748) rotate(-0.086)" fill="#fff"/>
      <line id="선_5" data-name="선 5" x2="0.019" y2="13.243" transform="translate(744.176 314.805)" fill="none" stroke="#fff" stroke-miterlimit="10" stroke-width="1"/>
      <line id="선_6" data-name="선 6" x2="0.019" y2="13.243" transform="translate(764.891 314.574)" fill="none" stroke="#fff" stroke-miterlimit="10" stroke-width="1"/>
      <line id="선_7" data-name="선 7" y1="0.051" x2="20.714" transform="translate(744.18 317.674)" fill="none" stroke="#fff" stroke-miterlimit="10" stroke-width="1"/>
      <line id="선_8" data-name="선 8" y1="0.051" x2="20.714" transform="translate(744.189 321.589)" fill="none" stroke="#fff" stroke-miterlimit="10" stroke-width="1"/>
      <line id="선_9" data-name="선 9" y1="0.051" x2="20.714" transform="translate(744.199 325.504)" fill="none" stroke="#fff" stroke-miterlimit="10" stroke-width="1"/>
      <line id="선_10" data-name="선 10" x2="0.019" y2="13.243" transform="translate(811.236 314.732)" fill="none" stroke="#fff" stroke-miterlimit="10" stroke-width="1"/>
      <line id="선_11" data-name="선 11" x2="0.019" y2="13.243" transform="translate(831.951 314.501)" fill="none" stroke="#fff" stroke-miterlimit="10" stroke-width="1"/>
      <line id="선_12" data-name="선 12" y1="0.051" x2="20.714" transform="translate(811.24 317.601)" fill="none" stroke="#fff" stroke-miterlimit="10" stroke-width="1"/>
      <line id="선_13" data-name="선 13" y1="0.051" x2="20.714" transform="translate(811.25 321.516)" fill="none" stroke="#fff" stroke-miterlimit="10" stroke-width="1"/>
      <line id="선_14" data-name="선 14" y1="0.051" x2="20.714" transform="translate(811.259 325.43)" fill="none" stroke="#fff" stroke-miterlimit="10" stroke-width="1"/>
      <line id="선_15" data-name="선 15" x2="0.019" y2="13.243" transform="translate(878.296 314.659)" fill="none" stroke="#fff" stroke-miterlimit="10" stroke-width="1"/>
      <line id="선_16" data-name="선 16" x2="0.019" y2="13.243" transform="translate(899.011 314.428)" fill="none" stroke="#fff" stroke-miterlimit="10" stroke-width="1"/>
      <line id="선_17" data-name="선 17" y1="0.051" x2="20.714" transform="translate(878.3 317.528)" fill="none" stroke="#fff" stroke-miterlimit="10" stroke-width="1"/>
      <line id="선_18" data-name="선 18" y1="0.051" x2="20.714" transform="translate(878.31 321.442)" fill="none" stroke="#fff" stroke-miterlimit="10" stroke-width="1"/>
      <line id="선_19" data-name="선 19" y1="0.051" x2="20.714" transform="translate(878.319 325.357)" fill="none" stroke="#fff" stroke-miterlimit="10" stroke-width="1"/>
    </g>
  </g>
</svg>
