<?xml version="1.0" encoding="UTF-8"?>
<svg id="_레이어_2" data-name="레이어_2" xmlns="http://www.w3.org/2000/svg" width="147" height="573" viewBox="0 0 49.67 191.71">
  <defs>
    <style>
      .cls-1 {
        fill: #275380;
      }

      .cls-2 {
        fill: #83baff;
      }

      .cls-3 {
        fill: #69baff;
      }
    </style>
  </defs>
  <g id="_레이어_1-2" data-name="레이어_1">
    <g>
      <rect class="cls-1" x="17.41" y="66.97" width="14.75" height="9.17" transform="translate(-.26 .09) rotate(-.21)"/>
      <polygon class="cls-1" points="15.65 66.01 17 68.3 31.98 68.25 33.87 65.9 15.65 66.01"/>
      <polygon class="cls-1" points="13.27 64.14 17.09 62.7 32.02 62.64 36.04 64.25 33.39 65.69 14.05 65.24 13.27 64.14"/>
      <path class="cls-3" d="M13.14,63.75l.4,2.4,22.25-.08.58-2.27s-3.04,2.09-7.07.22c0,0-4.66,1.9-8.95.03,0,0-3.3,2.02-7.2-.3Z"/>
      <polygon class="cls-3" points="20.36 64.47 20.08 64.55 20.92 62.67 21.18 62.67 20.36 64.47"/>
      <polygon class="cls-3" points="29.42 64.44 29.7 64.52 28.84 62.64 28.58 62.64 29.42 64.44"/>
      <circle class="cls-1" cx="13.14" cy="67.36" r=".85"/>
      <circle class="cls-1" cx="36.24" cy="67.28" r=".85"/>
      <rect class="cls-1" x="17.52" y="75.54" width="14.75" height="9.17" transform="translate(-.29 .09) rotate(-.21)"/>
      <polygon class="cls-1" points="15.77 74.58 17.12 76.87 32.1 76.81 33.99 74.47 15.77 74.58"/>
      <polygon class="cls-1" points="13.39 72.71 17.21 71.26 32.13 71.21 36.16 72.82 33.51 74.25 14.17 73.81 13.39 72.71"/>
      <path class="cls-3" d="M13.26,72.32l.4,2.4,22.25-.08.58-2.27s-3.04,2.09-7.07.22c0,0-4.66,1.9-8.95.03,0,0-3.3,2.02-7.2-.3Z"/>
      <polygon class="cls-3" points="20.48 73.04 20.19 73.12 21.04 71.24 21.3 71.23 20.48 73.04"/>
      <polygon class="cls-3" points="29.54 73.01 29.82 73.09 28.96 71.21 28.7 71.21 29.54 73.01"/>
      <circle class="cls-1" cx="13.26" cy="75.93" r=".85"/>
      <circle class="cls-1" cx="36.36" cy="75.84" r=".85"/>
      <rect class="cls-1" x="16.09" y="84.35" width="17.37" height="10.8" transform="translate(-.33 .09) rotate(-.21)"/>
      <polygon class="cls-1" points="14.03 83.22 15.62 85.91 33.25 85.85 35.47 83.09 14.03 83.22"/>
      <polygon class="cls-1" points="11.23 81.01 15.73 79.32 33.29 79.25 38.03 81.14 34.91 82.83 12.15 82.31 11.23 81.01"/>
      <path class="cls-3" d="M11.07,80.55l.47,2.82,26.19-.1.68-2.68s-3.58,2.46-8.32.26c0,0-5.49,2.23-10.54.04,0,0-3.89,2.38-8.48-.35Z"/>
      <polygon class="cls-3" points="19.57 81.41 19.23 81.5 20.23 79.28 20.54 79.28 19.57 81.41"/>
      <polygon class="cls-3" points="30.23 81.37 30.57 81.46 29.56 79.25 29.25 79.25 30.23 81.37"/>
      <circle class="cls-1" cx="11.08" cy="84.81" r="1.01"/>
      <circle class="cls-1" cx="38.26" cy="84.71" r="1.01"/>
      <rect class="cls-1" x="10.78" y="144.42" width="27.07" height="12.76" transform="translate(-.55 .09) rotate(-.21)"/>
      <rect class="cls-1" x="11.43" y="131.37" width="25.29" height="12.76" transform="translate(-.51 .09) rotate(-.21)"/>
      <path class="cls-1" d="M3.41,175.91l4.88-4.45,33.92-.12,3.92,3.89s-42.72.8-42.72.68Z"/>
      <rect class="cls-1" x="13.24" y="117.26" width="22.26" height="12.76" transform="translate(-.45 .09) rotate(-.21)"/>
      <polygon class="cls-1" points="8.4 142.28 10.82 145.87 37.67 145.77 41.05 142.09 8.4 142.28"/>
      <polygon class="cls-1" points="8.47 128.52 10.89 132.12 37.74 132.02 41.12 128.33 8.47 128.52"/>
      <rect class="cls-1" x="4.49" y="178.17" width="40.21" height="13.46" transform="translate(-.68 .09) rotate(-.21)"/>
      <rect class="cls-1" x="14.29" y="105.59" width="20.53" height="12.76" transform="translate(-.41 .09) rotate(-.21)"/>
      <polygon class="cls-1" points="12.06 104.25 13.94 107.43 34.79 107.36 37.42 104.09 12.06 104.25"/>
      <rect class="cls-2" x="4.09" y="169.95" width="41.44" height="2.27" transform="translate(-.63 .09) rotate(-.21)"/>
      <rect class="cls-1" x="16.3" y="94.4" width="17.37" height="10.8" transform="translate(-.37 .09) rotate(-.21)"/>
      <polygon class="cls-1" points="14.24 93.27 15.83 95.96 33.47 95.9 35.68 93.14 14.24 93.27"/>
      <polygon class="cls-1" points="11.44 91.07 15.94 89.37 33.5 89.3 38.24 91.2 35.12 92.89 12.36 92.36 11.44 91.07"/>
      <path class="cls-3" d="M11.28,90.61l.47,2.82,26.19-.1.68-2.68s-3.58,2.46-8.32.26c0,0-5.49,2.23-10.54.04,0,0-3.89,2.38-8.48-.35Z"/>
      <polygon class="cls-3" points="19.78 91.46 19.45 91.55 20.44 89.33 20.75 89.33 19.78 91.46"/>
      <polygon class="cls-3" points="30.44 91.42 30.78 91.51 29.77 89.3 29.46 89.3 30.44 91.42"/>
      <rect class="cls-2" x="0" y="175.37" width="49.66" height="2.97" transform="translate(-.65 .09) rotate(-.21)"/>
      <rect class="cls-1" x="11.15" y="157.71" width="27.28" height="12.76" transform="translate(-.6 .09) rotate(-.21)"/>
      <polygon class="cls-1" points="6.31 155.51 11.13 160.03 38.41 159.93 42.68 155.28 6.31 155.51"/>
      <polygon class="cls-1" points="4.14 152.13 11.01 149.54 37.82 149.44 45.05 152.33 40.28 154.91 5.55 154.11 4.14 152.13"/>
      <path class="cls-3" d="M3.9,151.43l.72,4.31,39.98-.15,1.03-4.08s-5.46,3.75-12.7.4c0,0-8.38,3.41-16.09.06,0,0-5.93,3.64-12.94-.54Z"/>
      <polygon class="cls-3" points="16.88 152.73 16.36 152.88 17.88 149.49 18.35 149.49 16.88 152.73"/>
      <polygon class="cls-3" points="33.15 152.67 33.66 152.82 32.12 149.44 31.65 149.44 33.15 152.67"/>
      <polygon class="cls-1" points="5.68 139.41 11.9 137.07 36.2 136.98 42.75 139.59 38.43 141.93 6.96 141.2 5.68 139.41"/>
      <path class="cls-3" d="M5.47,138.78l.65,3.91,36.23-.13.94-3.7s-4.95,3.4-11.51.36c0,0-7.59,3.09-14.57.05,0,0-5.37,3.29-11.73-.48Z"/>
      <polygon class="cls-3" points="17.22 139.96 16.76 140.09 18.13 137.02 18.56 137.02 17.22 139.96"/>
      <polygon class="cls-3" points="31.96 139.9 32.43 140.03 31.03 136.97 30.61 136.97 31.96 139.9"/>
      <polygon class="cls-1" points="5.75 125.77 11.97 123.43 36.26 123.34 42.82 125.95 38.5 128.29 7.02 127.56 5.75 125.77"/>
      <path class="cls-3" d="M5.53,125.14l.65,3.91,36.23-.13.94-3.7s-4.95,3.4-11.51.36c0,0-7.59,3.09-14.57.05,0,0-5.37,3.29-11.73-.48Z"/>
      <polygon class="cls-3" points="17.29 126.32 16.82 126.45 18.2 123.38 18.62 123.38 17.29 126.32"/>
      <polygon class="cls-3" points="32.03 126.26 32.5 126.39 31.1 123.33 30.67 123.33 32.03 126.26"/>
      <polygon class="cls-1" points="10.71 115.93 12.85 119.11 36.65 119.03 39.64 115.76 10.71 115.93"/>
      <polygon class="cls-1" points="8.29 113.49 13.81 111.41 35.34 111.33 41.15 113.65 37.32 115.72 9.42 115.08 8.29 113.49"/>
      <path class="cls-3" d="M8.11,112.93l.57,3.46,32.11-.12.83-3.28s-4.39,3.01-10.2.32c0,0-6.73,2.74-12.92.05,0,0-4.76,2.92-10.39-.43Z"/>
      <polygon class="cls-3" points="18.52 113.97 18.11 114.09 19.33 111.37 19.71 111.37 18.52 113.97"/>
      <polygon class="cls-3" points="31.59 113.93 32 114.04 30.76 111.33 30.39 111.33 31.59 113.93"/>
      <polygon class="cls-1" points="8.95 101.64 14.27 99.64 35.04 99.56 40.65 101.8 36.95 103.8 10.04 103.17 8.95 101.64"/>
      <path class="cls-3" d="M8.77,101.1l.55,3.34,30.97-.11.8-3.16s-4.23,2.9-9.84.31c0,0-6.49,2.64-12.46.05,0,0-4.59,2.82-10.02-.41Z"/>
      <polygon class="cls-3" points="18.82 102.11 18.42 102.22 19.6 99.6 19.96 99.59 18.82 102.11"/>
      <polygon class="cls-3" points="31.42 102.06 31.82 102.17 30.63 99.55 30.26 99.56 31.42 102.06"/>
      <circle class="cls-1" cx="6.25" cy="144.36" r="1.01"/>
      <circle class="cls-1" cx="42.04" cy="144.23" r="1.01"/>
      <circle class="cls-1" cx="44.48" cy="157.57" r="1.01"/>
      <circle class="cls-1" cx="6.31" cy="130.86" r="1.01"/>
      <circle class="cls-1" cx="42.21" cy="130.73" r="1.01"/>
      <circle class="cls-1" cx="8.38" cy="117.6" r="1.01"/>
      <circle class="cls-1" cx="41.4" cy="117.48" r="1.01"/>
      <circle class="cls-1" cx="9.23" cy="105.97" r="1.01"/>
      <circle class="cls-1" cx="40.18" cy="105.86" r="1.01"/>
      <circle class="cls-1" cx="11.29" cy="94.86" r="1.01"/>
      <circle class="cls-1" cx="38.48" cy="94.76" r="1.01"/>
      <path class="cls-1" d="M18.2,59.69l1.41,3.01,10.58-.04.95-3.02s-12.85-.04-12.94.05Z"/>
      <polygon class="cls-1" points="28.54 55.06 21.19 55.09 17.77 50.56 31.49 50.5 28.54 55.06"/>
      <polygon class="cls-1" points="21.47 54.39 27.46 54.37 30.26 60.13 19.07 60.17 21.47 54.39"/>
      <path class="cls-1" d="M28.44,15.55c0-2.43-2.22-4.34-4.74-3.84-1.54.3-2.77,1.55-3.06,3.09-.29,1.56.33,2.99,1.43,3.85.76.6,1.23,1.48,1.23,2.45l.11,31.1h2.01s-.11-30.79-.11-30.79c0-1.03.51-2,1.37-2.57,1.06-.71,1.76-1.92,1.76-3.29Z"/>
      <rect class="cls-1" x="19.08" y="37.33" width="11.02" height="1.49" transform="translate(-.14 .09) rotate(-.21)"/>
      <rect class="cls-1" x="19.09" y="39.73" width="11.02" height="1.49" transform="translate(-.15 .09) rotate(-.21)"/>
      <rect class="cls-1" x="19.1" y="42.14" width="11.02" height="1.49" transform="translate(-.16 .09) rotate(-.21)"/>
      <rect class="cls-1" x="19.1" y="44.54" width="11.02" height="1.49" transform="translate(-.17 .09) rotate(-.21)"/>
      <rect class="cls-1" x="19.11" y="46.95" width="11.02" height="1.49" transform="translate(-.18 .09) rotate(-.21)"/>
      <rect class="cls-1" x="18.08" y="26.58" width="12.94" height="4.72" transform="translate(-.11 .09) rotate(-.21)"/>
      <circle class="cls-1" cx="24.48" cy="8.35" r="2.23"/>
      <circle class="cls-1" cx="24.45" cy="2.23" r="2.23"/>
    </g>
  </g>
</svg>