<svg xmlns="http://www.w3.org/2000/svg" width="722.118" height="201.369" viewBox="0 0 240.706 67.123">
  <g id="오브제_코리아" transform="translate(-1238.834 -159.098)">
    <path id="패스_267" data-name="패스 267" d="M1205.659,436c-2.1,10.857-9.419,23.4-26.1,23.339-17.709-.07-28.776-14.231-28.7-33.4.078-19.593,11.68-32.98,27.253-32.918,10.01.04,15.806,5.538,19.033,11.712l3.29-9.912,4.193.018-.085,21.3-4.278-.018c-4.082-6.175-11.688-8.174-20.16-8.207-13.86-.056-24.918,5.205-24.967,17.953-.051,12.663,10.791,18.523,24.567,18.579,11.207.043,19.266-3.775,21.936-8.47Z" transform="translate(87.977 -233.923)" fill="#20567f"/>
    <path id="패스_268" data-name="패스 268" d="M1190.772,429.36c.056-13.859,8.393-23.409,20.713-23.36s20.5,9.664,20.44,23.523-8.3,23.582-20.628,23.532-20.581-9.835-20.525-23.7m20.579,10.092c10.352.04,17.123-2.926,17.151-10.028.03-7.272-7.06-10.209-17.07-10.25-10.1-.039-17.124,2.842-17.153,10.115-.027,7.1,6.721,10.122,17.072,10.163" transform="translate(107.92 -227.438)" fill="#20567f"/>
    <path id="패스_269" data-name="패스 269" d="M1260.776,424.342l-3.764-.015c-.328-3.766-4.515-5.151-8.194-5.166-6.417-.025-11.225,4.062-11.252,10.992l-.006,1.369c-.019,4.962,1.417,9.416,12.711,9.461l-.043,10.952-25.837-.1.044-10.952c8.041.032,9.685-4.41,9.7-9.373l.012-2.909c.027-6.844-3.809-10.2-12.537-10.23l.042-10.61,14.038-1.656,1.827,14.3h.256c2.254-7.521,5.019-14.269,12.718-14.237,8.642.033,10.321,8.425,10.282,18.178" transform="translate(123.329 -227.386)" fill="#20567f"/>
    <path id="패스_270" data-name="패스 270" d="M1289.922,437.712c-1.657,8.037-6.907,15.629-18.286,15.584-12.918-.051-20.836-10.007-20.78-23.867.051-13.177,7.278-23.243,20.028-23.193,13.26.054,18.607,10.854,18.561,22.919l-.859.852-34.479-.137c-.033,8.213,7.741,11.324,18.093,11.364,6.16.026,11.982-1.063,13.875-3.538Zm-35.291-11.348,30.886.123c-1.009-4.283-5.187-7.978-14.855-8.017-7.957-.032-14.212,2.425-16.031,7.894" transform="translate(137.939 -227.321)" fill="#20567f"/>
    <path id="패스_271" data-name="패스 271" d="M1326.736,438.457c-.033,8.384-1.942,15.05-7.76,15.026-5.219-.02-6.309-5.586-6.285-11.745l-.513,0c-1.9,5.3-6.891,11.694-17.245,11.654-9.068-.036-14.353-4.934-14.324-12.12.029-7.359,5.6-10.587,15.019-11.577a58.325,58.325,0,0,1,17.114-.7c-.4-6.589-5.439-9.347-13.48-9.38-5.306-.021-11.127,1.155-12.771,5.34l-3.508-.015c.556-10.691,6.919-18.622,17.786-18.58,10.608.042,15.539,7.762,15.493,19.569-.014,3.508-.463,8.983-.471,11.121-.015,3.679,1.176,5.31,3.572,5.319a3.706,3.706,0,0,0,3.866-3.921Zm-14.007-6.387a64.026,64.026,0,0,0-17.2.531c-4.025.754-7.451,2.023-7.462,4.59-.012,2.909,4.262,3.952,8.968,3.971,8.042.031,15.07-2.935,15.694-9.092" transform="translate(152.805 -227.262)" fill="#20567f"/>
  </g>
</svg>
