<svg xmlns="http://www.w3.org/2000/svg" width="169.567" height="91.101" viewBox="0 0 169.567 91.101">
  <g id="오브제_팔만대장경_산" transform="translate(-687.159 -466.259)">
    <path id="패스_510" data-name="패스 510" d="M782.981,688.948l21.814-49.755a16.088,16.088,0,0,1,14.663-9.47h17.108l16.719-26.4a11.778,11.778,0,0,1,19.969.109l52.854,85.516Z" transform="translate(-95.822 -131.587)" fill="#c9c3c0"/>
    <path id="패스_511" data-name="패스 511" d="M834.934,679.5s19.036-63.664,42.3-62.74,49.354,62.74,49.354,62.74Z" transform="translate(-69.865 -122.141)" fill="#c1bab6"/>
    <rect id="사각형_530" data-name="사각형 530" width="20.15" height="0.9" transform="translate(719.405 531.34) rotate(-69.812)" fill="#a5a2a0"/>
    <rect id="사각형_531" data-name="사각형 531" width="0.899" height="18.725" transform="translate(746.406 512.647) rotate(-8.298)" fill="#a5a2a0"/>
    <rect id="사각형_532" data-name="사각형 532" width="18.851" height="0.897" transform="translate(764.156 514.812) rotate(-79.311)" fill="#a5a2a0"/>
    <path id="패스_512" data-name="패스 512" d="M850.875,648.54l-.819-.367,6.561-14.668.82.366Z" transform="translate(-62.309 -113.772)" fill="#a5a2a0"/>
    <rect id="사각형_533" data-name="사각형 533" width="0.898" height="18.919" transform="translate(807.394 519.539) rotate(-1.167)" fill="#a5a2a0"/>
    <rect id="사각형_534" data-name="사각형 534" width="0.9" height="17.444" transform="matrix(0.907, -0.42, 0.42, 0.907, 820.559, 520.105)" fill="#a5a2a0"/>
  </g>
</svg>
