<?xml version="1.0" encoding="UTF-8"?>
<svg id="_레이어_2" data-name="레이어_2" xmlns="http://www.w3.org/2000/svg" width="582" height="348" viewBox="0 0 194.05 116.24">
  <defs>
    <style>
      .cls-1 {
        fill: #252525;
      }

      .cls-2 {
        fill: #fddac3;
      }

      .cls-3 {
        fill: #7fa800;
      }

      .cls-4 {
        fill: #e66464;
      }

      .cls-5 {
        fill: #fdf9f6;
      }

      .cls-6 {
        fill: #fdf11e;
      }

      .cls-7 {
        fill: #d6d6d6;
      }

      .cls-8 {
        fill: #4f7b00;
      }

      .cls-9 {
        fill: #3d3d3d;
      }

      .cls-10 {
        fill: #f5ba92;
      }

      .cls-11 {
        fill: #e8e8e8;
      }
    </style>
  </defs>
  <g id="_레이어_1-2" data-name="레이어_1">
    <g>
      <rect class="cls-11" x=".07" y=".14" width="193.9" height="115.96" rx="13.52" ry="13.52" transform="translate(.1 -.16) rotate(.1)"/>
      <ellipse class="cls-6" cx="26.95" cy="45.32" rx="13.52" ry="13.56"/>
      <path class="cls-3" d="M119.07,20.11h68.95c2.16,0,3.91,1.75,3.91,3.91v51.6c0,2.16-1.75,3.91-3.91,3.91h-68.95c-2.16,0-3.91-1.75-3.91-3.91V24.02c0-2.16,1.75-3.91,3.91-3.91Z" transform="translate(103.47 203.28) rotate(-89.9)"/>
      <path class="cls-2" d="M137.92,47.3c-.85-.26-1.73-.29-2.53.07-.51.23-.95.62-1.29,1.06-1.37,1.8-1.05,4.61.7,6.06,1.03.86,2.46,1.16,3.8.94l-.68-8.14Z"/>
      <path class="cls-2" d="M154.07,27.35h0c-.15-.01-.3-.01-.45-.02,0,0,0,0-.01,0,0,0,0,0-.01,0-.15,0-.3,0-.45,0h0c-15.8.29-15.71,15.55-16.15,19.96l.7,8.14s2.44,9.96,15.25,10.56v.03c.2,0,.39,0,.59-.01.2,0,.39.01.59.02v-.03c12.81-.56,15.28-10.51,15.28-10.51l.73-8.14c-.42-4.4-.28-19.67-16.08-20Z"/>
      <path class="cls-2" d="M168.76,55.49c1.33.23,2.76-.08,3.8-.93,1.75-1.45,2.09-4.26.72-6.06-.34-.45-.77-.83-1.28-1.07-.8-.37-1.68-.33-2.53-.08l-.7,8.14Z"/>
      <path class="cls-8" d="M173.68,75.45c-4.08-2.78-12-7.67-20.33-7.69-8.33-.01-16.26,4.86-20.35,7.62-4.15,2.8-5.16,8.22-5.17,12.82l50.97.09c0-4.6-.99-10.02-5.13-12.84Z"/>
      <polygon class="cls-2" points="161.61 71.72 154.04 74.7 146.49 71.7 146.51 61.95 161.63 61.97 161.61 71.72"/>
      <polygon class="cls-5" points="146 66.82 154.04 74.7 147.6 80.47 143.45 69.77 146 66.82"/>
      <polygon class="cls-5" points="162.11 66.85 154.04 74.7 160.47 80.49 164.66 69.81 162.11 66.85"/>
      <path class="cls-10" d="M161.69,64.41c-1.05.52-3.45,1.42-7.46,1.41-3.71,0-7.72-1.34-7.72-1.34v.67s4.06,1.36,7.72,1.37,6.2-.77,7.45-1.33c0-.26,0-.52.02-.78Z"/>
      <ellipse class="cls-1" cx="147.74" cy="48.15" rx="1.32" ry="1.32"/>
      <ellipse class="cls-1" cx="159.29" cy="47.9" rx="1.32" ry="1.32"/>
      <path class="cls-10" d="M169.42,55.62l-.62-.2c.8-2.51,1.23-5.11,1.26-7.74h.65c-.04,2.71-.47,5.37-1.29,7.94Z"/>
      <path class="cls-10" d="M137.73,55.53l.62-.2c-.8-2.51-1.22-5.11-1.26-7.74h-.65c.03,2.7.47,5.37,1.29,7.94Z"/>
      <path class="cls-1" d="M173.5,30.17c-3.32-7.46-12.11-6.61-14.18-6.55-3.68-1.87-18.56-3.22-23.92,6.87-3.01,5.66,1.2,17.53,1.2,17.53,0,0,5.63-7.92,8.74-12.93l-.43,4.99,7.67-4.74-.61,5.64,6.57-5.07.22,4.61,5.58-4.6,6.4,13.59s6.06-11.88,2.74-19.34Z"/>
      <path class="cls-1" d="M158.39,24.6c.9-1.12,2.27-1.76,3.68-2.05,1.4-.29,4.27-.2,4.27-.2,0,0-2.5,2.07-3.75,3.11"/>
      <path class="cls-9" d="M81.62,44.15c-.32-.25-.65-.49-.98-.71-.33-.23-.68-.45-1.05-.68l.4-.6c.36.23.73.46,1.12.69.39.23.71.44.96.63l-.45.68ZM82.09,45.75c-.22.68-.46,1.36-.72,2.03-.26.67-.59,1.38-.98,2.12l-.67-.47c.15-.23.29-.49.44-.78.15-.29.29-.59.43-.92.31-.72.6-1.5.85-2.35l.66.38ZM82.06,41.27c-.3-.25-.63-.5-.97-.76s-.69-.49-1.05-.7l.43-.55c.38.21.75.44,1.11.7.36.25.68.49.96.7l-.48.62ZM84.97,47.45c-.19.27-.41.54-.64.79-.24.25-.48.49-.74.71s-.51.41-.76.59-.5.33-.72.46l-.5-.62c.21-.11.44-.25.69-.42.25-.16.5-.35.75-.55.25-.2.49-.42.72-.66.23-.24.43-.48.6-.74l.63.44ZM82.33,46.39v-.65s1.76,0,1.76,0v-3.35s-1.4,0-1.4,0v-.69s1.41,0,1.41,0v-2.52s.75,0,.75,0v2.52s2.04,0,2.04,0v-2.52s.77,0,.77,0v2.52s1.55,0,1.55,0v.69s-1.55,0-1.55,0v3.35s1.86,0,1.86,0v.65s-7.19-.01-7.19-.01ZM84.83,45.74h2.05s0-3.34,0-3.34h-2.05s0,3.34,0,3.34ZM89.22,49.91c-.15-.1-.34-.23-.55-.39-.22-.16-.45-.35-.69-.56s-.49-.45-.75-.7-.5-.53-.73-.82l.57-.43c.37.43.77.84,1.2,1.21.43.37.91.72,1.42,1.05l-.47.64Z"/>
      <path class="cls-9" d="M92.63,44.14v-.68s3.73,0,3.73,0v-1.9s-4.34,0-4.34,0v-.69s4.35,0,4.35,0v-1.69s.81,0,.81,0v1.69s4.38,0,4.38,0v.69s-4.38,0-4.38,0v1.9s3.74,0,3.74,0v.68s-8.28-.01-8.28-.01ZM99.43,49.89v-.62s-5.34,0-5.34,0v.72s-.81,0-.81,0v-4.49s6.95.01,6.95.01v4.38s-.8,0-.8,0ZM94.09,48.59h5.34s0-2.43,0-2.43h-5.34s0,2.43,0,2.43Z"/>
      <path class="cls-9" d="M104.2,49.68v-.63s4.35,0,4.35,0v-.73s-3.69,0-3.69,0v-.59s3.7,0,3.7,0v-.77s-3.18,0-3.18,0v-3.53s7.21.01,7.21.01v3.53s-3.27,0-3.27,0v.77s3.79,0,3.79,0v.59s-3.79,0-3.79,0v.73s4.42,0,4.42,0v.63s-9.53-.02-9.53-.02ZM111.64,40.83c-.09.21-.17.42-.25.63-.08.21-.16.42-.24.61h2.59s0,.64,0,.64l-9.51-.02v-.64s2.59,0,2.59,0c-.06-.2-.14-.4-.22-.6-.08-.2-.17-.41-.27-.65h-1.61s0-.63,0-.63h3.81s0-.94,0-.94h.81s0,.94,0,.94h3.92s0,.63,0,.63h-1.61ZM106.14,44.91h2.41s0-.88,0-.88h-2.41s0,.88,0,.88ZM106.14,46.37h2.41s0-.88,0-.88h-2.41s0,.88,0,.88ZM110.32,42.07c.09-.2.17-.41.26-.62s.16-.42.24-.63h-3.67c.08.2.16.4.24.59.08.2.16.41.25.65h2.68ZM109.32,44.03v.88s2.5,0,2.5,0v-.88s-2.5,0-2.5,0ZM109.32,46.38h2.5s0-.88,0-.88h-2.5s0,.88,0,.88Z"/>
      <path d="M34.78,45.83v1.31s-15.28,0-15.28,0v-1.31s6.75,0,6.75,0v-1.13c-1.73-.05-3.08-.25-4.06-.6-.98-.35-1.47-.86-1.47-1.54,0-.73.57-1.27,1.72-1.63,1.15-.35,2.71-.53,4.69-.53,1.98,0,3.55.18,4.69.53,1.15.35,1.72.9,1.72,1.63,0,.67-.49,1.18-1.47,1.54-.98.35-2.33.55-4.06.6v1.13s6.77,0,6.77,0ZM34.15,39.64h-14.04s0-1.28,0-1.28h6.11s0-1.4,0-1.4h1.79s0,1.4,0,1.4h6.14s0,1.28,0,1.28ZM31.97,48.72c1.24.38,1.85,1,1.85,1.83s-.62,1.45-1.85,1.84c-1.23.39-2.85.58-4.84.58-2,0-3.61-.2-4.84-.59-1.24-.39-1.85-1-1.85-1.84,0-.84.62-1.45,1.85-1.83,1.23-.38,2.85-.58,4.84-.57,1.99,0,3.61.19,4.84.58ZM30.59,51.41c.93-.19,1.39-.47,1.39-.85s-.47-.67-1.4-.85c-.93-.19-2.08-.28-3.46-.28-1.37,0-2.53.09-3.46.28s-1.4.47-1.4.85.46.67,1.39.85,2.08.28,3.47.28,2.54-.09,3.46-.28ZM23.78,43.24c.86.16,1.97.23,3.35.23,1.38,0,2.5-.08,3.36-.23.85-.16,1.28-.38,1.28-.68,0-.3-.43-.53-1.28-.68-.85-.16-1.97-.23-3.36-.23-1.37,0-2.49.08-3.35.23-.86.15-1.29.38-1.29.68s.43.53,1.29.68Z"/>
      <path d="M40.63,43.37c2.26-.01,4.02-.31,5.29-.89,1.27-.58,1.91-1.47,1.91-2.67v-.36s-7.2,0-7.2,0v-1.49s8.97,0,8.97,0v1.56c0,1.81-.8,3.15-2.4,4.03-1.6.87-3.79,1.31-6.57,1.31v-1.49ZM41.4,48.67h11.19s0-1.33,0-1.33h-11.23s0-1.4,0-1.4h12.98s0,4.07,0,4.07h-11.17s0,1.33,0,1.33h11.55s0,1.41,0,1.41h-13.32s0-4.07,0-4.07ZM52.57,37.58h1.77s0,7.51,0,7.51h-1.77s0-7.51,0-7.51Z"/>
      <path d="M75.08,44.65v1.44s-15.28,0-15.28,0v-1.44s6.75,0,6.75,0v-1.58s-5.66,0-5.66,0v-5.3s13.09,0,13.09,0v1.44s-11.32,0-11.32,0v2.43s11.5,0,11.5,0v1.44s-5.86,0-5.86,0v1.58s6.77,0,6.77,0ZM72.32,48.03c1.24.44,1.85,1.16,1.85,2.14,0,.98-.62,1.7-1.86,2.15-1.24.45-2.87.67-4.87.67-2.01,0-3.63-.23-4.87-.68-1.24-.45-1.86-1.17-1.86-2.15,0-.98.62-1.7,1.85-2.14,1.24-.44,2.86-.66,4.88-.66,2.02,0,3.64.22,4.88.67ZM70.92,51.25c.92-.23,1.39-.59,1.39-1.08,0-.48-.46-.83-1.39-1.06-.93-.23-2.09-.34-3.48-.34s-2.56.11-3.48.34c-.93.23-1.39.58-1.39,1.06s.46.85,1.39,1.08c.92.23,2.09.34,3.48.34s2.56-.11,3.48-.34Z"/>
      <rect class="cls-7" x="56.74" y="60.14" width="8.37" height="22.64" transform="translate(-10.64 132.27) rotate(-89.9)"/>
      <rect class="cls-7" x="80.56" y="66.16" width="8.37" height="10.69" transform="translate(13.11 156.13) rotate(-89.9)"/>
      <rect class="cls-7" x="33.36" y="63.11" width="8.37" height="16.62" transform="translate(-33.94 108.85) rotate(-89.9)"/>
      <rect class="cls-7" x="91.98" y="68.3" width="8.37" height="6.45" transform="translate(24.48 167.57) rotate(-89.9)"/>
      <rect class="cls-7" x="15.21" y="65.29" width="8.37" height="12.2" transform="translate(-52.03 90.66) rotate(-89.9)"/>
      <rect class="cls-7" x="76.75" y="77.14" width="8.37" height="10.69" transform="translate(-1.69 163.29) rotate(-89.9)"/>
      <polygon class="cls-7" points="52.35 78.26 49.6 78.25 29.24 78.22 29.22 86.59 49.59 86.62 52.34 86.63 72.23 86.66 72.24 78.29 52.35 78.26"/>
      <rect class="cls-7" x="95.19" y="71.99" width="8.37" height="21.05" transform="translate(16.69 181.75) rotate(-89.9)"/>
      <rect class="cls-7" x="15.2" y="76.28" width="8.37" height="12.2" transform="translate(-63.04 101.63) rotate(-89.9)"/>
      <path class="cls-4" d="M122.98,94.34l-.03,15.1,15.05.03.03-15.1-15.05-.03ZM137.36,108.81l-13.75-.02.02-13.8,13.75.02-.02,13.8Z"/>
      <polygon class="cls-4" points="130.03 100.43 124.92 100.42 124.93 98.63 129.88 98.64 129.88 96.08 124.7 96.07 124.7 96.53 129.42 96.54 129.42 98.17 124.46 98.16 124.46 100.88 130.03 100.89 130.03 100.43"/>
      <polygon class="cls-4" points="129.29 102.29 129.29 107.03 127.66 107.03 127.67 102.05 124.96 102.05 124.95 107.64 125.41 107.64 125.42 102.52 127.2 102.52 127.19 107.49 129.75 107.5 129.76 102.29 129.29 102.29"/>
      <polygon class="cls-4" points="136.07 104.96 131.12 104.95 131.11 107.52 136.3 107.53 136.3 107.06 131.58 107.05 131.58 105.42 136.53 105.43 136.54 102.71 130.96 102.7 130.96 103.17 136.07 103.18 136.07 104.96"/>
      <polygon class="cls-4" points="131.7 101.3 131.71 96.56 133.34 96.57 133.33 101.54 136.04 101.54 136.05 95.95 135.58 95.95 135.57 101.08 133.79 101.07 133.8 96.1 131.25 96.1 131.24 101.3 131.7 101.3"/>
      <path d="M43.76,22.17h-4.41s0,2.8,0,2.8h-1.17s0-2.8,0-2.8h-4.38s0-1.08,0-1.08h9.96s0,1.08,0,1.08ZM36.65,19.39c-.78.35-1.62.56-2.53.62v-1.08c1.04-.09,1.93-.39,2.7-.9.76-.51,1.25-1.18,1.45-1.99h-3.9s0-1.06,0-1.06h8.81s0,1.06,0,1.06h-3.68c-.07.36-.18.7-.34,1.03l4.34,1.93-.48.97-4.45-2.01c-.5.59-1.14,1.07-1.92,1.42Z"/>
      <path d="M45.49,14.97h5.93s0,5.4,0,5.4h-5.93s0-5.4,0-5.4ZM45.88,21.36h1.17s0,2.19,0,2.19h7.56s0,1.06,0,1.06h-8.72s0-3.25,0-3.25ZM50.27,19.37v-3.39s-3.64,0-3.64,0v3.39s3.64,0,3.64,0ZM53.18,14.73h1.16s0,7.43,0,7.43h-1.16s0-7.43,0-7.43Z"/>
      <path d="M56.26,19.27h9.96s0,.94,0,.94h-9.96s0-.94,0-.94ZM58.06,24.33c-.81-.29-1.21-.76-1.21-1.4,0-.64.4-1.11,1.21-1.39s1.87-.43,3.18-.43c1.32,0,2.38.14,3.18.43s1.21.75,1.21,1.4-.41,1.11-1.22,1.4c-.81.29-1.87.44-3.18.44-1.31,0-2.37-.15-3.18-.44ZM56.98,14.84h8.54s0,.94,0,.94h-7.38s0,1.58,0,1.58h7.5s0,.94,0,.94h-8.65s0-3.46,0-3.46ZM63.51,23.64c.6-.15.9-.38.91-.7s-.3-.54-.9-.69c-.6-.15-1.36-.22-2.27-.22s-1.67.07-2.27.22c-.6.15-.91.38-.91.69,0,.32.3.55.91.7.6.15,1.36.22,2.27.22.91,0,1.67-.07,2.27-.22Z"/>
      <path d="M77.46,20.25v.93s-9.96,0-9.96,0v-.93s4.4,0,4.4,0v-.99s-3.68,0-3.68,0v-2.66s7.39,0,7.39,0v-.86s-7.39,0-7.39,0v-.9s8.53,0,8.53,0v2.61s-7.39,0-7.39,0v.9s7.53,0,7.53,0v.9s-3.84,0-3.84,0v.99s4.41,0,4.41,0ZM68.11,22.04h8.65s0,2.71,0,2.71h-1.17s0-1.77,0-1.77h-7.49s0-.94,0-.94Z"/>
      <path d="M88.7,19.32v.94s-9.96,0-9.96,0v-.94s9.96,0,9.96,0ZM83.55,17.29c-.49.39-1.12.69-1.88.91-.76.22-1.57.33-2.42.35v-.95c.61-.02,1.2-.1,1.78-.24.58-.14,1.08-.35,1.5-.61.42-.27.68-.58.78-.95h-3.89s0-.94,0-.94h8.6s0,.94,0,.94h-3.53c-.03.27-.12.51-.27.74l4.06,1.15-.3.91-4.43-1.3ZM86.89,21.56c.8.28,1.2.74,1.2,1.38,0,.64-.4,1.11-1.21,1.39s-1.86.43-3.17.43c-1.31,0-2.37-.15-3.17-.43-.81-.29-1.21-.75-1.21-1.39s.4-1.1,1.2-1.38c.8-.28,1.86-.42,3.18-.42,1.32,0,2.37.14,3.18.42ZM85.97,23.64c.6-.14.9-.38.9-.7s-.3-.54-.9-.68c-.6-.14-1.35-.21-2.26-.21-.91,0-1.67.07-2.26.21-.6.14-.89.37-.89.68s.3.55.89.7c.59.14,1.35.22,2.26.22s1.67-.07,2.26-.22Z"/>
      <rect class="cls-7" x="54.29" y="100.43" width="16.98" height="9.12"/>
      <rect class="cls-7" x="77" y="100.44" width="16.98" height="9.12"/>
      <rect class="cls-7" x="99.98" y="100.44" width="16.98" height="9.12"/>
    </g>
  </g>
</svg>