<?xml version="1.0" encoding="UTF-8"?>
<svg id="_레이어_2" data-name="레이어_2" xmlns="http://www.w3.org/2000/svg" xmlns:xlink="http://www.w3.org/1999/xlink" width="660" height="675" viewBox="0 0 220.56 225.15">
  <defs>
    <style>
      .cls-1 {
        fill: #757575;
      }

      .cls-2 {
        fill: #e7b13a;
      }

      .cls-3 {
        fill: #000408;
      }

      .cls-4 {
        fill: #f6f6f6;
      }

      .cls-5 {
        stroke: #bfbfbf;
        stroke-width: 1.69px;
      }

      .cls-5, .cls-6 {
        fill: none;
        stroke-miterlimit: 10;
      }

      .cls-7 {
        fill: #ffcfbc;
      }

      .cls-6 {
        stroke: #d2d2d2;
        stroke-width: 1.13px;
      }

      .cls-8 {
        fill: #6b9374;
      }

      .cls-9 {
        fill: #f6fbff;
      }

      .cls-10 {
        fill: #d2d2d2;
      }

      .cls-11 {
        clip-path: url(#clippath);
      }
    </style>
    <clipPath id="clippath">
      <polygon class="cls-8" points="208.59 17.52 208.59 17.52 202.91 12.69 202.91 12.69 197.16 7.82 153.14 59.7 158.91 64.6 158.91 64.6 164.57 69.41 164.57 69.41 170.34 74.31 214.36 22.42 208.59 17.52"/>
    </clipPath>
  </defs>
  <g id="_레이어_1-2" data-name="레이어_1">
    <g>
      <polygon class="cls-4" points="17.35 7.87 175.17 7.58 175.57 223.98 1.22 224.3 .85 22.51 17.35 7.87"/>
      <polygon class="cls-10" points="17.35 7.87 17.37 22.46 .85 22.49 17.35 7.87"/>
      <rect class="cls-6" x="14.47" y="26.97" width="25.4" height="8.91" rx="3.68" ry="3.68" transform="translate(-.06 .05) rotate(-.11)"/>
      <rect class="cls-10" x="18.65" y="29.66" width="5.51" height="3.45" transform="translate(-.06 .04) rotate(-.11)"/>
      <rect class="cls-10" x="25.68" y="29.65" width="3.04" height="3.45" transform="translate(-.06 .05) rotate(-.11)"/>
      <rect class="cls-10" x="29.92" y="29.64" width="5.38" height="3.45" transform="translate(-.06 .06) rotate(-.11)"/>
      <rect class="cls-10" x="46.89" y="37.06" width="9.4" height="2.75" transform="translate(-.07 .09) rotate(-.11)"/>
      <rect class="cls-10" x="120.46" y="36.92" width="9.4" height="2.75" transform="translate(-.07 .23) rotate(-.11)"/>
      <rect class="cls-10" x="85.94" y="36.99" width="9.4" height="2.75" transform="translate(-.07 .17) rotate(-.11)"/>
      <rect class="cls-10" x="58.88" y="37.04" width="9.4" height="2.75" transform="translate(-.07 .12) rotate(-.11)"/>
      <rect class="cls-10" x="97.77" y="36.96" width="12.96" height="2.75" transform="translate(-.07 .19) rotate(-.11)"/>
      <rect class="cls-10" x="70.88" y="37.02" width="6.48" height="2.75" transform="translate(-.07 .14) rotate(-.11)"/>
      <rect class="cls-10" x="80.03" y="37" width="3.08" height="2.75" transform="translate(-.07 .15) rotate(-.11)"/>
      <rect class="cls-10" x="114.06" y="36.94" width="3.08" height="2.75" transform="translate(-.07 .21) rotate(-.11)"/>
      <path class="cls-1" d="M43.57,52.11h1.99s0,4.65,0,4.65l10.45-.02v1.8s-20.03.04-20.03.04v-1.8s7.59-.01,7.59-.01v-4.65ZM52.93,47.47c.02.7,0,1.47-.07,2.3-.06.83-.15,1.64-.25,2.42-.1.78-.21,1.5-.32,2.15-.11.65-.21,1.13-.29,1.45h-2.04c.1-.38.19-.87.3-1.47.1-.6.2-1.22.28-1.86.09-.64.16-1.25.21-1.82s.08-1.02.08-1.34l-11.6.02v-1.82s13.68-.03,13.68-.03ZM46.12,68.66c-.7,0-1.39-.12-2.06-.36-.67-.24-1.26-.56-1.78-.98-.51-.41-.92-.9-1.24-1.46-.31-.56-.47-1.17-.47-1.82,0-.65.14-1.26.43-1.82.29-.56.68-1.05,1.18-1.46s1.09-.74,1.76-.99,1.39-.36,2.15-.36,1.49.12,2.17.36,1.27.56,1.77.98c.5.41.9.9,1.2,1.46s.45,1.17.45,1.82c0,.65-.15,1.26-.44,1.82-.29.56-.69,1.05-1.2,1.46s-1.09.74-1.77.99c-.68.24-1.4.36-2.17.36ZM46.11,61.17c-.46,0-.9.08-1.32.23-.42.15-.79.36-1.11.61-.33.26-.59.56-.78.91-.19.35-.29.73-.28,1.13s.09.77.28,1.13c.18.35.43.65.74.91s.69.46,1.12.61c.43.15.89.23,1.37.22s.96-.08,1.39-.23c.43-.15.8-.36,1.11-.61s.56-.56.74-.91c.18-.35.27-.73.27-1.13s-.09-.78-.28-1.13c-.18-.35-.43-.65-.75-.91s-.68-.46-1.11-.61c-.43-.15-.9-.23-1.39-.22Z"/>
      <path class="cls-1" d="M68.7,61.2v7.19s-1.98,0-1.98,0v-7.19s-9.17.02-9.17.02v-1.84s20.03-.04,20.03-.04v1.84s-8.89.02-8.89.02ZM60.98,56.66l-.02-9.08,13.47-.02.02,9.08-13.47.02ZM72.46,49.3l-9.54.02v5.58s9.55-.02,9.55-.02v-5.58Z"/>
      <path class="cls-1" d="M84.8,61.26v-3.4s-5.16.06-5.16.06v-1.72s7.54-.09,7.54-.09c1.5-.02,2.9-.07,4.2-.15,1.3-.08,2.46-.2,3.46-.37v1.68c-1,.16-2.16.29-3.47.38-1.31.09-2.85.15-4.62.19v3.43s-1.96,0-1.96,0ZM86.71,46.88c.7,0,1.37.11,1.99.32.62.21,1.17.51,1.64.9s.84.83,1.12,1.35c.27.52.41,1.07.41,1.66s-.13,1.17-.39,1.68c-.26.51-.63.95-1.09,1.32-.46.37-1.01.66-1.64.88-.63.22-1.31.33-2.02.33s-1.41-.11-2.04-.32c-.62-.21-1.16-.5-1.62-.87-.46-.37-.82-.81-1.08-1.32-.26-.51-.4-1.07-.4-1.68s.13-1.15.39-1.67c.26-.52.62-.97,1.08-1.36.45-.38.99-.68,1.62-.9.62-.22,1.3-.33,2.04-.33ZM89.98,51.12c0-.35-.08-.68-.24-.99-.16-.31-.38-.58-.66-.81-.28-.23-.62-.41-1.02-.55s-.84-.2-1.32-.2c-.96,0-1.73.25-2.32.73-.59.49-.88,1.1-.88,1.83,0,.74.3,1.34.89,1.81.59.47,1.37.7,2.33.7s1.74-.23,2.33-.69c.6-.46.9-1.07.89-1.83ZM84.07,67.97v-5.97s1.95,0,1.95,0v4.15s11.87-.02,11.87-.02v1.82s-13.82.03-13.82.03ZM95.47,63.04v-2.01s-5.27,0-5.27,0v-1.7s5.27,0,5.27,0l-.02-12.82h1.97s.03,16.53.03,16.53h-1.97Z"/>
      <path class="cls-1" d="M112.65,62.58c-.53-.22-1.06-.51-1.61-.85-.54-.34-1.06-.75-1.55-1.23s-.95-1.02-1.38-1.63c-.43-.61-.81-1.29-1.13-2.06-.22.78-.53,1.5-.92,2.13-.39.64-.83,1.22-1.31,1.74-.49.52-1.01.98-1.55,1.37-.55.39-1.09.73-1.62,1.02l-1.54-1.27c.75-.42,1.48-.92,2.18-1.5.7-.58,1.32-1.26,1.85-2.04.53-.78.96-1.66,1.28-2.64.32-.98.47-2.1.47-3.34v-4.58s2.1,0,2.1,0v4.55c.01,1.23.22,2.34.64,3.33.42.99.93,1.86,1.55,2.62.62.76,1.29,1.39,2.02,1.9.73.51,1.4.89,2.03,1.15l-1.51,1.32ZM116.8,68.37l-.04-21.9h1.99s.04,21.9.04,21.9h-1.99Z"/>
      <path class="cls-1" d="M127.78,46.21h2.04s0,2.32,0,2.32h5.2s0,1.74,0,1.74h-2.52c.86.82,1.3,1.86,1.3,3.12,0,.67-.13,1.3-.4,1.88-.27.58-.63,1.09-1.09,1.52-.45.43-.98.77-1.58,1.02-.6.25-1.23.37-1.9.37s-1.35-.12-1.95-.36c-.6-.24-1.12-.57-1.57-1s-.8-.94-1.06-1.52c-.26-.58-.38-1.22-.39-1.9,0-.62.11-1.2.32-1.73.21-.53.52-.99.92-1.39h-2.47s0-1.74,0-1.74h5.15s0-2.33,0-2.33ZM128.83,56.41c.93,0,1.66-.29,2.22-.85.55-.57.82-1.29.82-2.17,0-.41-.08-.81-.23-1.17-.15-.37-.37-.69-.64-.96s-.6-.49-.97-.64c-.38-.16-.78-.24-1.21-.24s-.81.08-1.17.24c-.37.16-.69.38-.96.65s-.49.59-.64.96c-.16.37-.24.76-.24,1.17,0,.93.29,1.66.86,2.2.57.54,1.29.81,2.17.81ZM127.73,68.04l-.02-8.2,12.6-.02.02,8.2-12.6.02ZM138.3,61.62l-8.58.02v4.6s8.59-.02,8.59-.02v-4.6ZM138.35,59.2v-5.44s-3.92,0-3.92,0v-1.8s3.9,0,3.9,0v-5.53s1.95,0,1.95,0l.02,12.77h-1.97Z"/>
      <rect class="cls-10" x="91.25" y="80.81" width="2.15" height="130.44" transform="translate(-.27 .17) rotate(-.11)"/>
      <rect class="cls-10" x="14.33" y="87.57" width="11.63" height="2.63" transform="translate(-.16 .04) rotate(-.11)"/>
      <rect class="cls-10" x="46.97" y="87.51" width="11.63" height="2.63" transform="translate(-.16 .1) rotate(-.11)"/>
      <rect class="cls-10" x="60.97" y="87.49" width="4.48" height="2.63" transform="translate(-.16 .12) rotate(-.11)"/>
      <rect class="cls-10" x="67.86" y="87.47" width="8.61" height="2.63" transform="translate(-.16 .13) rotate(-.11)"/>
      <rect class="cls-10" x="14.16" y="93.63" width="10.93" height="2.53" transform="translate(-.17 .04) rotate(-.11)"/>
      <rect class="cls-10" x="27.32" y="93.61" width="4.21" height="2.53" transform="translate(-.17 .05) rotate(-.11)"/>
      <rect class="cls-10" x="33.79" y="93.59" width="8.09" height="2.53" transform="translate(-.17 .07) rotate(-.11)"/>
      <rect class="cls-10" x="44.12" y="93.57" width="8.09" height="2.53" transform="translate(-.17 .09) rotate(-.11)"/>
      <rect class="cls-10" x="28.21" y="87.55" width="4.7" height="2.63" transform="translate(-.16 .06) rotate(-.11)"/>
      <rect class="cls-10" x="35.65" y="87.53" width="8.95" height="2.63" transform="translate(-.16 .07) rotate(-.11)"/>
      <rect class="cls-10" x="14.83" y="114.14" width="11.63" height="2.63" transform="translate(-.21 .04) rotate(-.11)"/>
      <rect class="cls-10" x="47.48" y="114.08" width="11.63" height="2.63" transform="translate(-.21 .1) rotate(-.11)"/>
      <rect class="cls-10" x="61.48" y="114.06" width="4.48" height="2.63" transform="translate(-.21 .12) rotate(-.11)"/>
      <rect class="cls-10" x="68.36" y="114.04" width="8.61" height="2.63" transform="translate(-.21 .13) rotate(-.11)"/>
      <rect class="cls-10" x="14.67" y="120.2" width="10.93" height="2.53" transform="translate(-.22 .04) rotate(-.11)"/>
      <rect class="cls-10" x="27.83" y="120.18" width="4.21" height="2.53" transform="translate(-.22 .06) rotate(-.11)"/>
      <rect class="cls-10" x="34.3" y="120.17" width="8.09" height="2.53" transform="translate(-.22 .07) rotate(-.11)"/>
      <rect class="cls-10" x="44.62" y="120.15" width="8.09" height="2.53" transform="translate(-.22 .09) rotate(-.11)"/>
      <rect class="cls-10" x="28.72" y="114.12" width="4.7" height="2.63" transform="translate(-.21 .06) rotate(-.11)"/>
      <rect class="cls-10" x="36.16" y="114.1" width="8.95" height="2.63" transform="translate(-.21 .07) rotate(-.11)"/>
      <rect class="cls-10" x="15.34" y="140.71" width="11.63" height="2.63" transform="translate(-.26 .04) rotate(-.11)"/>
      <rect class="cls-10" x="47.99" y="140.65" width="11.63" height="2.63" transform="translate(-.26 .1) rotate(-.11)"/>
      <rect class="cls-10" x="61.99" y="140.63" width="4.48" height="2.63" transform="translate(-.26 .12) rotate(-.11)"/>
      <rect class="cls-10" x="68.87" y="140.62" width="8.61" height="2.63" transform="translate(-.26 .13) rotate(-.11)"/>
      <rect class="cls-10" x="15.18" y="146.77" width="10.93" height="2.53" transform="translate(-.27 .04) rotate(-.11)"/>
      <rect class="cls-10" x="28.34" y="146.75" width="4.21" height="2.53" transform="translate(-.27 .06) rotate(-.11)"/>
      <rect class="cls-10" x="34.81" y="146.74" width="8.09" height="2.53" transform="translate(-.27 .07) rotate(-.11)"/>
      <rect class="cls-10" x="45.13" y="146.72" width="8.09" height="2.53" transform="translate(-.27 .09) rotate(-.11)"/>
      <rect class="cls-10" x="29.23" y="140.69" width="4.7" height="2.63" transform="translate(-.26 .06) rotate(-.11)"/>
      <rect class="cls-10" x="36.67" y="140.68" width="8.95" height="2.63" transform="translate(-.26 .08) rotate(-.11)"/>
      <rect class="cls-10" x="15.85" y="167.29" width="11.63" height="2.63" transform="translate(-.31 .04) rotate(-.11)"/>
      <rect class="cls-10" x="48.5" y="167.23" width="11.63" height="2.63" transform="translate(-.31 .1) rotate(-.11)"/>
      <rect class="cls-10" x="62.49" y="167.21" width="4.48" height="2.63" transform="translate(-.31 .12) rotate(-.11)"/>
      <rect class="cls-10" x="69.38" y="167.19" width="8.61" height="2.63" transform="translate(-.31 .14) rotate(-.11)"/>
      <rect class="cls-10" x="15.69" y="173.35" width="10.93" height="2.53" transform="translate(-.32 .04) rotate(-.11)"/>
      <rect class="cls-10" x="28.84" y="173.33" width="4.21" height="2.53" transform="translate(-.32 .06) rotate(-.11)"/>
      <rect class="cls-10" x="35.31" y="173.31" width="8.09" height="2.53" transform="translate(-.32 .07) rotate(-.11)"/>
      <rect class="cls-10" x="45.64" y="173.29" width="8.09" height="2.53" transform="translate(-.32 .09) rotate(-.11)"/>
      <rect class="cls-10" x="29.73" y="167.27" width="4.7" height="2.63" transform="translate(-.31 .06) rotate(-.11)"/>
      <rect class="cls-10" x="37.17" y="167.25" width="8.95" height="2.63" transform="translate(-.31 .08) rotate(-.11)"/>
      <rect class="cls-10" x="16.36" y="193.86" width="11.63" height="2.63" transform="translate(-.36 .04) rotate(-.11)"/>
      <rect class="cls-10" x="49" y="193.8" width="11.63" height="2.63" transform="translate(-.36 .1) rotate(-.11)"/>
      <rect class="cls-10" x="63" y="193.78" width="4.48" height="2.63" transform="translate(-.36 .12) rotate(-.11)"/>
      <rect class="cls-10" x="69.89" y="193.76" width="8.61" height="2.63" transform="translate(-.36 .14) rotate(-.11)"/>
      <rect class="cls-10" x="16.2" y="199.92" width="10.93" height="2.53" transform="translate(-.37 .04) rotate(-.11)"/>
      <rect class="cls-10" x="29.35" y="199.9" width="4.21" height="2.53" transform="translate(-.37 .06) rotate(-.11)"/>
      <rect class="cls-10" x="35.82" y="199.88" width="8.09" height="2.53" transform="translate(-.37 .07) rotate(-.11)"/>
      <rect class="cls-10" x="46.15" y="199.87" width="8.09" height="2.53" transform="translate(-.37 .09) rotate(-.11)"/>
      <rect class="cls-10" x="30.24" y="193.84" width="4.7" height="2.63" transform="translate(-.36 .06) rotate(-.11)"/>
      <rect class="cls-10" x="37.68" y="193.82" width="8.95" height="2.63" transform="translate(-.36 .08) rotate(-.11)"/>
      <rect class="cls-10" x="99.43" y="86.56" width="11.42" height="2.63" transform="translate(-.16 .19) rotate(-.11)"/>
      <rect class="cls-10" x="131.49" y="86.5" width="11.42" height="2.63" transform="translate(-.16 .25) rotate(-.11)"/>
      <rect class="cls-10" x="145.24" y="86.48" width="4.39" height="2.63" transform="translate(-.16 .27) rotate(-.11)"/>
      <rect class="cls-10" x="152" y="86.47" width="8.45" height="2.63" transform="translate(-.16 .29) rotate(-.11)"/>
      <rect class="cls-10" x="99.27" y="92.62" width="10.73" height="2.53" transform="translate(-.17 .19) rotate(-.11)"/>
      <rect class="cls-10" x="112.19" y="92.6" width="4.13" height="2.53" transform="translate(-.17 .21) rotate(-.11)"/>
      <rect class="cls-10" x="118.54" y="92.59" width="7.94" height="2.53" transform="translate(-.17 .22) rotate(-.11)"/>
      <rect class="cls-10" x="128.69" y="92.57" width="7.94" height="2.53" transform="translate(-.17 .24) rotate(-.11)"/>
      <rect class="cls-10" x="113.07" y="86.54" width="4.62" height="2.63" transform="translate(-.16 .21) rotate(-.11)"/>
      <rect class="cls-10" x="120.37" y="86.53" width="8.79" height="2.63" transform="translate(-.16 .23) rotate(-.11)"/>
      <rect class="cls-10" x="99.48" y="113.78" width="11.42" height="2.63" transform="translate(-.21 .19) rotate(-.11)"/>
      <rect class="cls-10" x="131.54" y="113.72" width="11.42" height="2.63" transform="translate(-.21 .25) rotate(-.11)"/>
      <rect class="cls-10" x="145.29" y="113.71" width="4.39" height="2.63" transform="translate(-.21 .27) rotate(-.11)"/>
      <rect class="cls-10" x="152.05" y="113.69" width="8.45" height="2.63" transform="translate(-.21 .29) rotate(-.11)"/>
      <rect class="cls-10" x="99.32" y="119.84" width="10.73" height="2.53" transform="translate(-.22 .19) rotate(-.11)"/>
      <rect class="cls-10" x="112.24" y="119.82" width="4.13" height="2.53" transform="translate(-.22 .21) rotate(-.11)"/>
      <rect class="cls-10" x="118.59" y="119.81" width="7.94" height="2.53" transform="translate(-.22 .23) rotate(-.11)"/>
      <rect class="cls-10" x="128.74" y="119.79" width="7.94" height="2.53" transform="translate(-.22 .24) rotate(-.11)"/>
      <rect class="cls-10" x="113.12" y="113.76" width="4.62" height="2.63" transform="translate(-.21 .21) rotate(-.11)"/>
      <rect class="cls-10" x="120.42" y="113.75" width="8.79" height="2.63" transform="translate(-.21 .23) rotate(-.11)"/>
      <rect class="cls-10" x="99.53" y="141.01" width="11.42" height="2.63" transform="translate(-.26 .19) rotate(-.11)"/>
      <rect class="cls-10" x="131.59" y="140.95" width="11.42" height="2.63" transform="translate(-.26 .25) rotate(-.11)"/>
      <rect class="cls-10" x="145.34" y="140.93" width="4.39" height="2.63" transform="translate(-.26 .27) rotate(-.11)"/>
      <rect class="cls-10" x="152.1" y="140.91" width="8.45" height="2.63" transform="translate(-.26 .29) rotate(-.11)"/>
      <rect class="cls-10" x="99.37" y="147.06" width="10.73" height="2.53" transform="translate(-.27 .19) rotate(-.11)"/>
      <rect class="cls-10" x="112.29" y="147.05" width="4.13" height="2.53" transform="translate(-.27 .21) rotate(-.11)"/>
      <rect class="cls-10" x="118.64" y="147.03" width="7.94" height="2.53" transform="translate(-.27 .23) rotate(-.11)"/>
      <rect class="cls-10" x="128.79" y="147.01" width="7.94" height="2.53" transform="translate(-.27 .24) rotate(-.11)"/>
      <rect class="cls-10" x="113.17" y="140.99" width="4.62" height="2.63" transform="translate(-.26 .21) rotate(-.11)"/>
      <rect class="cls-10" x="120.47" y="140.97" width="8.79" height="2.63" transform="translate(-.26 .23) rotate(-.11)"/>
      <rect class="cls-10" x="99.58" y="168.23" width="11.42" height="2.63" transform="translate(-.31 .19) rotate(-.11)"/>
      <rect class="cls-10" x="131.64" y="168.17" width="11.42" height="2.63" transform="translate(-.31 .25) rotate(-.11)"/>
      <rect class="cls-10" x="145.39" y="168.15" width="4.39" height="2.63" transform="translate(-.31 .27) rotate(-.11)"/>
      <rect class="cls-10" x="152.15" y="168.13" width="8.45" height="2.63" transform="translate(-.31 .29) rotate(-.11)"/>
      <rect class="cls-10" x="99.42" y="174.29" width="10.73" height="2.53" transform="translate(-.32 .19) rotate(-.11)"/>
      <rect class="cls-10" x="112.34" y="174.27" width="4.13" height="2.53" transform="translate(-.32 .21) rotate(-.11)"/>
      <rect class="cls-10" x="118.69" y="174.25" width="7.94" height="2.53" transform="translate(-.32 .23) rotate(-.11)"/>
      <rect class="cls-10" x="128.84" y="174.23" width="7.94" height="2.53" transform="translate(-.32 .24) rotate(-.11)"/>
      <rect class="cls-10" x="113.22" y="168.21" width="4.62" height="2.63" transform="translate(-.31 .21) rotate(-.11)"/>
      <rect class="cls-10" x="120.52" y="168.19" width="8.79" height="2.63" transform="translate(-.31 .23) rotate(-.11)"/>
      <rect class="cls-10" x="99.63" y="195.45" width="11.42" height="2.63" transform="translate(-.36 .19) rotate(-.11)"/>
      <rect class="cls-10" x="131.69" y="195.39" width="11.42" height="2.63" transform="translate(-.36 .25) rotate(-.11)"/>
      <rect class="cls-10" x="145.44" y="195.37" width="4.39" height="2.63" transform="translate(-.36 .27) rotate(-.11)"/>
      <rect class="cls-10" x="99.47" y="201.51" width="10.73" height="2.53" transform="translate(-.37 .19) rotate(-.11)"/>
      <rect class="cls-10" x="112.39" y="201.49" width="4.13" height="2.53" transform="translate(-.37 .21) rotate(-.11)"/>
      <rect class="cls-10" x="118.74" y="201.48" width="7.94" height="2.53" transform="translate(-.37 .23) rotate(-.11)"/>
      <rect class="cls-10" x="128.89" y="201.46" width="7.94" height="2.53" transform="translate(-.37 .24) rotate(-.11)"/>
      <rect class="cls-10" x="113.27" y="195.43" width="4.62" height="2.63" transform="translate(-.36 .21) rotate(-.11)"/>
      <rect class="cls-10" x="120.57" y="195.41" width="8.79" height="2.63" transform="translate(-.36 .23) rotate(-.11)"/>
      <polygon class="cls-5" points="17.35 7.87 175.17 7.58 175.57 223.98 1.22 224.3 .85 22.51 17.35 7.87"/>
      <rect class="cls-7" x="196.61" y="4.41" width="23.43" height="14.63" rx="3.5" ry="3.5" transform="translate(359.55 155.5) rotate(-139.67)"/>
      <g>
        <polygon class="cls-8" points="208.59 17.52 208.59 17.52 202.91 12.69 202.91 12.69 197.16 7.82 153.14 59.7 158.91 64.6 158.91 64.6 164.57 69.41 164.57 69.41 170.34 74.31 214.36 22.42 208.59 17.52"/>
        <g class="cls-11">
          <path class="cls-9" d="M200.92,14.41l-44.71,52.3.68.58,44.67-52.25c-.22-.21-.42-.42-.64-.63Z"/>
          <path class="cls-9" d="M207.98,18l-47.34,55.37.68.58,47.38-55.41c-.24-.18-.47-.37-.71-.55Z"/>
        </g>
      </g>
      <polygon class="cls-3" points="152.88 73.03 152.77 77.49 157.15 76.66 159.67 76.19 152.93 70.47 152.88 73.03"/>
      <path class="cls-2" d="M153.18,59.67l-.25,10.8,6.74,5.72,10.61-2h0c1.39-1.63,1.21-4.06-.39-5.42-1.38-1.17-3.35-1.17-4.76-.11.81-1.56.49-3.52-.89-4.68-1.38-1.17-3.35-1.17-4.76-.11.81-1.56.49-3.52-.89-4.68-1.6-1.36-4.03-1.14-5.41.49h0Z"/>
      <rect class="cls-2" x="192.56" y="11.09" width="25.94" height="7.87" transform="translate(352.48 159.5) rotate(-139.67)"/>
    </g>
  </g>
</svg>