<svg xmlns="http://www.w3.org/2000/svg" xmlns:xlink="http://www.w3.org/1999/xlink" width="416.741" height="484.095" viewBox="0 0 416.741 484.095">
  <defs>
    <clipPath id="clip-path">
      <rect id="사각형_409" data-name="사각형 409" width="416.741" height="55.492" transform="translate(0 0)" fill="none"/>
    </clipPath>
    <clipPath id="clip-path-2">
      <rect id="사각형_408" data-name="사각형 408" width="250" height="429.095" fill="rgba(0,0,0,0)"/>
    </clipPath>
    <clipPath id="clip-path-3">
      <rect id="사각형_374" data-name="사각형 374" width="416.741" height="429.088" fill="none"/>
    </clipPath>
    <clipPath id="clip-path-5">
      <path id="사각형_373" data-name="사각형 373" d="M24.771,0h291.6a24.773,24.773,0,0,1,24.773,24.773V163.4a24.772,24.772,0,0,1-24.772,24.772H24.771A24.771,24.771,0,0,1,0,163.406V24.771A24.771,24.771,0,0,1,24.771,0Z" transform="translate(47.885 88.541)" fill="none"/>
    </clipPath>
    <clipPath id="clip-path-6">
      <rect id="사각형_371" data-name="사각형 371" width="341.145" height="158.242" transform="translate(48.089 92.532)" fill="none"/>
    </clipPath>
    <clipPath id="clip-path-7">
      <rect id="사각형_372" data-name="사각형 372" width="341.145" height="104.552" transform="translate(48.089 180.132)" fill="none"/>
    </clipPath>
  </defs>
  <g id="그룹_365" data-name="그룹 365" transform="translate(-157 -457)">
    <g id="하" transform="translate(157 781)">
      <g id="그룹_364" data-name="그룹 364" clip-path="url(#clip-path)">
        <path id="패스_1030" data-name="패스 1030" d="M29.776,55.492H50.358A29.776,29.776,0,0,1,20.582,25.716V0H0V25.716A29.776,29.776,0,0,0,29.776,55.492" fill="#a39d9b"/>
        <path id="패스_1031" data-name="패스 1031" d="M396.159,0h-6.926V20.117A14.882,14.882,0,0,1,374.351,35H62.971A14.882,14.882,0,0,1,48.089,20.117V0H20.581V25.716A29.776,29.776,0,0,0,50.357,55.492H386.965a29.776,29.776,0,0,0,29.776-29.776V0Z" fill="#f8f8f8"/>
        <path id="패스_1032" data-name="패스 1032" d="M62.971,35H374.352a14.882,14.882,0,0,0,14.882-14.882V0H48.089V20.118A14.882,14.882,0,0,0,62.971,35" fill="#726b6a"/>
        <path id="패스_1033" data-name="패스 1033" d="M76.111,11.135h285.1a7.864,7.864,0,0,0,7.864-7.864V0H68.247V3.271a7.864,7.864,0,0,0,7.864,7.864" fill="#3f3b3b"/>
      </g>
    </g>
    <g id="티켓" transform="translate(250 512)">
      <g id="그룹_362" data-name="그룹 362" clip-path="url(#clip-path-2)">
        <path id="패스_1027" data-name="패스 1027" d="M7.569,296.946h7.589a7.69,7.69,0,0,1,7.569-7.681,7.69,7.69,0,0,1,7.569,7.681h7.589a7.57,7.57,0,1,1,15.139,0h7.588a7.57,7.57,0,1,1,15.139,0H83.34a7.57,7.57,0,1,1,15.138,0h7.589a7.57,7.57,0,1,1,15.138,0h7.589a7.57,7.57,0,1,1,15.139,0h7.589a7.57,7.57,0,1,1,15.138,0h7.589a7.57,7.57,0,1,1,15.138,0h7.589a7.57,7.57,0,1,1,15.138,0H219.7a7.57,7.57,0,1,1,15.139,0h7.589A7.69,7.69,0,0,1,250,289.265V15.629A15.4,15.4,0,0,0,234.848,0H143.939c0,10.789-8.479,19.536-18.939,19.536S106.06,10.789,106.06,0H15.151A15.4,15.4,0,0,0,0,15.629V289.265a7.69,7.69,0,0,1,7.569,7.681" fill="#fff"/>
        <path id="패스_1028" data-name="패스 1028" d="M209.473,263.192H40.527a16.135,16.135,0,0,1-16.135-16.135V52.711A16.135,16.135,0,0,1,40.527,36.575H209.473a16.135,16.135,0,0,1,16.135,16.136V247.057a16.135,16.135,0,0,1-16.135,16.135" fill="#72bbff"/>
        <path id="패스_1029" data-name="패스 1029" d="M242.424,296.364c0-.038.006-.075.007-.114h-7.589c0,.039.006.076.006.114,0,3.668-3.392,6.642-7.576,6.642s-7.575-2.974-7.575-6.642c0-.038.006-.075.006-.114h-7.589c0,.039.007.076.007.114,0,3.668-3.392,6.642-7.576,6.642s-7.576-2.974-7.576-6.642c0-.038.006-.075.007-.114h-7.589c0,.039.007.076.007.114,0,3.668-3.392,6.642-7.576,6.642s-7.576-2.974-7.576-6.642c0-.038.006-.075.007-.114H166.66c0,.039.006.076.006.114,0,3.668-3.391,6.642-7.575,6.642s-7.576-2.974-7.576-6.642c0-.038.006-.075.006-.114h-7.588c0,.039.006.076.006.114,0,3.668-3.392,6.642-7.576,6.642s-7.575-2.974-7.575-6.642c0-.038.005-.075.006-.114h-7.589c0,.039.007.076.007.114,0,3.668-3.392,6.642-7.576,6.642s-7.576-2.974-7.576-6.642c0-.038.006-.075.007-.114H98.478c0,.039.007.076.007.114,0,3.668-3.392,6.642-7.576,6.642s-7.576-2.974-7.576-6.642c0-.038.006-.075.007-.114H75.751c0,.039.006.076.006.114,0,3.668-3.391,6.642-7.575,6.642s-7.576-2.974-7.576-6.642c0-.038.006-.075.006-.114H53.024c0,.039.006.076.006.114,0,3.668-3.392,6.642-7.576,6.642s-7.575-2.974-7.575-6.642c0-.038,0-.075.006-.114H30.3c0,.039.007.076.007.114,0,3.668-3.392,6.642-7.576,6.642s-7.576-2.974-7.576-6.642c0-.038.006-.075.007-.114H7.569c0,.039.007.076.007.114,0,3.668-3.392,6.642-7.576,6.642v112.8C0,423.147,6.783,429.1,15.151,429.1H106.06c0-9.171,8.48-16.606,18.94-16.606s18.939,7.435,18.939,16.606h90.909c8.368,0,15.152-5.948,15.152-13.285v-112.8c-4.184,0-7.576-2.974-7.576-6.642" fill="#72bbff"/>
        <rect id="사각형_375" data-name="사각형 375" width="2.96" height="54.701" transform="translate(61.318 326.491)"/>
        <rect id="사각형_376" data-name="사각형 376" width="1.782" height="54.701" transform="translate(81.402 326.491)"/>
        <rect id="사각형_377" data-name="사각형 377" width="2.372" height="54.701" transform="translate(71.336 326.491)"/>
        <rect id="사각형_378" data-name="사각형 378" width="1.149" height="54.701" transform="translate(77.03 326.491)"/>
        <rect id="사각형_379" data-name="사각형 379" width="1.882" height="54.701" transform="translate(66.258 326.491)"/>
        <rect id="사각형_380" data-name="사각형 380" width="3.603" height="54.701" transform="translate(24.293 326.491)"/>
        <rect id="사각형_381" data-name="사각형 381" width="6.274" height="54.701" transform="translate(46.808 326.491)"/>
        <rect id="사각형_382" data-name="사각형 382" width="2.34" height="54.701" transform="translate(31.826 326.491)"/>
        <rect id="사각형_383" data-name="사각형 383" width="1.678" height="54.701" transform="translate(40.638 326.491)"/>
        <rect id="사각형_384" data-name="사각형 384" width="3.545" height="54.701" transform="translate(55.693 326.491)"/>
        <rect id="사각형_385" data-name="사각형 385" width="3.572" height="54.701" transform="translate(124.066 326.491)"/>
        <rect id="사각형_386" data-name="사각형 386" width="2.365" height="54.701" transform="translate(135.935 326.491)"/>
        <rect id="사각형_387" data-name="사각형 387" width="3.579" height="54.701" transform="translate(88.928 326.491)"/>
        <rect id="사각형_388" data-name="사각형 388" width="3.559" height="54.701" transform="translate(194.342 326.491)"/>
        <rect id="사각형_389" data-name="사각형 389" width="2.964" height="54.701" transform="translate(148.525 326.491)"/>
        <rect id="사각형_390" data-name="사각형 390" width="1.157" height="54.701" transform="translate(187.975 326.491)"/>
        <rect id="사각형_391" data-name="사각형 391" width="2.305" height="54.701" transform="translate(206.89 326.491)"/>
        <rect id="사각형_392" data-name="사각형 392" width="1.774" height="54.701" transform="translate(201.886 326.491)"/>
        <rect id="사각형_393" data-name="사각형 393" width="1.048" height="54.701" transform="translate(161.727 326.491)"/>
        <rect id="사각형_394" data-name="사각형 394" width="6.901" height="54.701" transform="translate(171.035 326.491)"/>
        <rect id="사각형_395" data-name="사각형 395" width="2.29" height="54.701" transform="translate(156.077 326.491)"/>
        <rect id="사각형_396" data-name="사각형 396" width="1.044" height="54.701" transform="translate(165.494 326.491)"/>
        <rect id="사각형_397" data-name="사각형 397" width="1.795" height="54.701" transform="translate(180.52 326.491)"/>
        <rect id="사각형_398" data-name="사각형 398" width="1.049" height="54.701" transform="translate(213.174 326.491)"/>
        <rect id="사각형_399" data-name="사각형 399" width="1.049" height="54.701" transform="translate(224.658 326.491)"/>
        <rect id="사각형_400" data-name="사각형 400" width="3.559" height="54.701" transform="translate(218.185 326.491)"/>
        <rect id="사각형_401" data-name="사각형 401" width="2.329" height="54.701" transform="translate(144.765 326.491)"/>
        <rect id="사각형_402" data-name="사각형 402" width="1.05" height="54.701" transform="translate(141.022 326.491)"/>
        <rect id="사각형_403" data-name="사각형 403" width="2.315" height="54.701" transform="translate(130.969 326.491)"/>
        <rect id="사각형_404" data-name="사각형 404" width="5.457" height="54.701" transform="translate(112.776 326.491)"/>
        <rect id="사각형_405" data-name="사각형 405" width="1.671" height="54.701" transform="translate(100.866 326.491)"/>
        <rect id="사각형_406" data-name="사각형 406" width="1.634" height="54.701" transform="translate(95.832 326.491)"/>
        <rect id="사각형_407" data-name="사각형 407" width="1.774" height="54.701" transform="translate(106.42 326.491)"/>
      </g>
    </g>
    <g id="상" transform="translate(157 457)">
      <g id="그룹_360" data-name="그룹 360" clip-path="url(#clip-path-3)">
        <g id="그룹_351" data-name="그룹 351">
          <g id="그룹_350" data-name="그룹 350" clip-path="url(#clip-path-3)">
            <path id="패스_1015" data-name="패스 1015" d="M20.582,29.776A29.776,29.776,0,0,1,50.358,0H29.776A29.776,29.776,0,0,0,0,29.776V324.508H20.582Z" fill="#a39d9b"/>
            <path id="패스_1016" data-name="패스 1016" d="M386.741,0H50.582a30,30,0,0,0-30,30V324.508H48.089V306.475a14.882,14.882,0,0,1,14.882-14.882H374.352a14.882,14.882,0,0,1,14.882,14.882v18.033h27.507V30a30,30,0,0,0-30-30" fill="#f8f8f8"/>
            <path id="패스_1017" data-name="패스 1017" d="M389.234,306.475a14.882,14.882,0,0,0-14.882-14.882H62.971a14.882,14.882,0,0,0-14.882,14.882v18.033H389.234Z" fill="#726b6a"/>
            <path id="패스_1018" data-name="패스 1018" d="M369.075,322a7.864,7.864,0,0,0-7.864-7.864H76.111A7.864,7.864,0,0,0,68.247,322v2.506H369.075Z" fill="#3f3b3b"/>
          </g>
        </g>
        <text id="TICKET" transform="translate(219 57.294)" fill="#63605e" font-size="33.544" font-family="apple sd gothic neo, Segoe UI"><tspan x="-75.423" y="0" letter-spacing="0.039em">T</tspan><tspan y="0" letter-spacing="0.04em">IC</tspan><tspan y="0" letter-spacing="0.039em">KE</tspan><tspan y="0">T</tspan></text>
        <g id="그룹_359" data-name="그룹 359" transform="translate(0.115)">
          <g id="그룹_358" data-name="그룹 358" clip-path="url(#clip-path-5)">
            <rect id="사각형_370" data-name="사각형 370" width="341.145" height="340.975" transform="translate(48.089 88.113)" fill="#ebe2db"/>
            <path id="패스_1019" data-name="패스 1019" d="M169.458,183.719a20.5,20.5,0,1,1-20.5-20.5,20.5,20.5,0,0,1,20.5,20.5" fill="#726b6a"/>
            <path id="패스_1020" data-name="패스 1020" d="M239.458,183.719a20.5,20.5,0,1,1-20.5-20.5,20.5,20.5,0,0,1,20.5,20.5" fill="#726b6a"/>
            <path id="패스_1021" data-name="패스 1021" d="M310.458,183.719a20.5,20.5,0,1,1-20.5-20.5,20.5,20.5,0,0,1,20.5,20.5" fill="#726b6a"/>
            <path id="패스_1022" data-name="패스 1022" d="M166.759,181.369a20.15,20.15,0,1,1-20.15-20.15,20.15,20.15,0,0,1,20.15,20.15" fill="#72bbff"/>
            <path id="패스_1023" data-name="패스 1023" d="M236.759,181.369a20.15,20.15,0,1,1-20.15-20.15,20.15,20.15,0,0,1,20.15,20.15" fill="#bcb5b3"/>
            <path id="패스_1024" data-name="패스 1024" d="M306.759,181.369a20.15,20.15,0,1,1-20.15-20.15,20.15,20.15,0,0,1,20.15,20.15" fill="#bcb5b3"/>
            <g id="그룹_354" data-name="그룹 354" opacity="0.4">
              <g id="그룹_353" data-name="그룹 353">
                <g id="그룹_352" data-name="그룹 352" clip-path="url(#clip-path-6)">
                  <path id="패스_1025" data-name="패스 1025" d="M389.234,160.35,48.089,250.773V182.956L389.234,92.532Z" fill="#fff"/>
                </g>
              </g>
            </g>
            <g id="그룹_357" data-name="그룹 357" opacity="0.4">
              <g id="그룹_356" data-name="그룹 356">
                <g id="그룹_355" data-name="그룹 355" clip-path="url(#clip-path-7)">
                  <path id="패스_1026" data-name="패스 1026" d="M389.234,194.26,48.089,284.683V270.554l341.145-90.423Z" fill="#fff"/>
                </g>
              </g>
            </g>
          </g>
        </g>
      </g>
    </g>
  </g>
</svg>
