<svg xmlns="http://www.w3.org/2000/svg" width="220" height="120" viewBox="0 0 220 120">
  <g id="오브제_성균관_건물" transform="translate(-665.917 -463.621)">
    <path id="패스_475" data-name="패스 475" d="M876.211,536.284H711.083V452.8a1.479,1.479,0,0,1,1.48-1.48H874.731a1.48,1.48,0,0,1,1.48,1.48Z" transform="translate(-43.245 19.942)" fill="#a39b99"/>
    <path id="패스_476" data-name="패스 476" d="M740.566,535.324h-2.9V454.591a1.45,1.45,0,1,1,2.9,0Z" transform="translate(-29.964 20.851)" fill="#968e8d"/>
    <path id="패스_477" data-name="패스 477" d="M795.578,535.324h-2.9V454.591a1.45,1.45,0,1,1,2.9,0Z" transform="translate(-2.478 20.851)" fill="#968e8d"/>
    <rect id="사각형_390" data-name="사각형 390" width="169.477" height="10.911" transform="translate(665.917 463.621)" fill="#c6bebd"/>
    <rect id="사각형_391" data-name="사각형 391" width="9.583" height="7.635" transform="translate(801.85 497.918)" fill="#ccc7c6"/>
    <rect id="사각형_392" data-name="사각형 392" width="9.583" height="7.585" transform="translate(801.85 487.836)" fill="#ccc7c6"/>
    <rect id="사각형_393" data-name="사각형 393" width="9.583" height="8.281" transform="translate(801.85 508.321)" fill="#ccc7c6"/>
    <rect id="사각형_394" data-name="사각형 394" width="9.583" height="7.635" transform="translate(814.193 497.918)" fill="#ccc7c6"/>
    <rect id="사각형_395" data-name="사각형 395" width="9.583" height="7.585" transform="translate(814.193 487.836)" fill="#ccc7c6"/>
    <rect id="사각형_396" data-name="사각형 396" width="9.583" height="8.281" transform="translate(814.193 508.321)" fill="#ccc7c6"/>
    <rect id="사각형_397" data-name="사각형 397" width="9.583" height="7.635" transform="translate(676.963 497.918)" fill="#ccc7c6"/>
    <rect id="사각형_398" data-name="사각형 398" width="9.583" height="7.585" transform="translate(676.963 487.836)" fill="#ccc7c6"/>
    <rect id="사각형_399" data-name="사각형 399" width="9.583" height="8.281" transform="translate(676.963 508.321)" fill="#ccc7c6"/>
    <rect id="사각형_400" data-name="사각형 400" width="9.583" height="7.635" transform="translate(689.306 497.918)" fill="#ccc7c6"/>
    <rect id="사각형_401" data-name="사각형 401" width="9.583" height="7.585" transform="translate(689.306 487.836)" fill="#ccc7c6"/>
    <rect id="사각형_402" data-name="사각형 402" width="9.583" height="8.281" transform="translate(689.306 508.321)" fill="#ccc7c6"/>
    <rect id="사각형_403" data-name="사각형 403" width="15.526" height="29.796" transform="translate(680.539 526.43)" fill="#726b6a"/>
    <rect id="사각형_404" data-name="사각형 404" width="15.526" height="29.796" transform="translate(805.352 526.43)" fill="#726b6a"/>
    <path id="패스_478" data-name="패스 478" d="M745.943,529.415h-1.371V465.7h66.516v63.284h-1.369v-62H745.943Z" transform="translate(-26.513 27.127)" fill="#726b6a"/>
    <rect id="사각형_405" data-name="사각형 405" width="64.917" height="3.289" transform="translate(719.201 511.743)" fill="#726b6a"/>
    <rect id="사각형_406" data-name="사각형 406" width="64.917" height="6.775" transform="translate(719.201 549.727)" fill="#726b6a"/>
    <rect id="사각형_407" data-name="사각형 407" width="1.522" height="58.166" transform="translate(735.183 493.78)" fill="#726b6a"/>
    <rect id="사각형_408" data-name="사각형 408" width="1.522" height="58.166" transform="translate(766.843 493.464)" fill="#726b6a"/>
    <rect id="사각형_409" data-name="사각형 409" width="31.356" height="2.219" transform="translate(736.705 522.467)" fill="#726b6a"/>
    <rect id="사각형_410" data-name="사각형 410" width="14.02" height="2.804" transform="translate(745.155 517.025)" fill="#c6bebd"/>
  </g>
</svg>
