<svg width="58" height="57" viewBox="0 0 58 57" fill="none" xmlns="http://www.w3.org/2000/svg">
<path d="M25.5436 2.93435C27.0865 0.285285 30.9135 0.285284 32.4564 2.93435L39.1044 14.3482C39.6696 15.3186 40.6168 16.0068 41.7143 16.2444L54.6239 19.04C57.6201 19.6888 58.8027 23.3285 56.7601 25.6145L47.9592 35.4642C47.211 36.3016 46.8492 37.415 46.9623 38.5323L48.2929 51.6739C48.6017 54.724 45.5056 56.9735 42.7002 55.7372L30.613 50.4108C29.5853 49.9579 28.4147 49.9579 27.387 50.4108L15.2998 55.7372C12.4944 56.9735 9.39828 54.724 9.7071 51.6739L11.0377 38.5323C11.1508 37.415 10.789 36.3016 10.0408 35.4642L1.23988 25.6145C-0.802736 23.3285 0.379874 19.6888 3.37608 19.04L16.2857 16.2444C17.3832 16.0068 18.3304 15.3186 18.8956 14.3482L25.5436 2.93435Z" fill="#699B00"/>
</svg>
