<svg xmlns="http://www.w3.org/2000/svg" xmlns:xlink="http://www.w3.org/1999/xlink" width="416.741" height="55.492" viewBox="0 0 416.741 55.492">
  <defs>
    <clipPath id="clip-path">
      <rect id="사각형_409" data-name="사각형 409" width="416.741" height="55.492" transform="translate(0 0)" fill="none"/>
    </clipPath>
  </defs>
  <g id="하" transform="translate(0 0)">
    <g id="그룹_364" data-name="그룹 364" clip-path="url(#clip-path)">
      <path id="패스_1030" data-name="패스 1030" d="M29.776,55.492H50.358A29.776,29.776,0,0,1,20.582,25.716V0H0V25.716A29.776,29.776,0,0,0,29.776,55.492" fill="#a39d9b"/>
      <path id="패스_1031" data-name="패스 1031" d="M396.159,0h-6.926V20.117A14.882,14.882,0,0,1,374.351,35H62.971A14.882,14.882,0,0,1,48.089,20.117V0H20.581V25.716A29.776,29.776,0,0,0,50.357,55.492H386.965a29.776,29.776,0,0,0,29.776-29.776V0Z" fill="#f8f8f8"/>
      <path id="패스_1032" data-name="패스 1032" d="M62.971,35H374.352a14.882,14.882,0,0,0,14.882-14.882V0H48.089V20.118A14.882,14.882,0,0,0,62.971,35" fill="#726b6a"/>
      <path id="패스_1033" data-name="패스 1033" d="M76.111,11.135h285.1a7.864,7.864,0,0,0,7.864-7.864V0H68.247V3.271a7.864,7.864,0,0,0,7.864,7.864" fill="#3f3b3b"/>
    </g>
  </g>
</svg>
