<?xml version="1.0" encoding="UTF-8"?>
<svg id="_레이어_2" data-name="레이어_2" xmlns="http://www.w3.org/2000/svg" width="360" height="561" viewBox="0 0 120.78 187.7">
  <defs>
    <style>
      .cls-1 {
        fill: #fac25c;
      }

      .cls-2 {
        fill: #43801e;
      }

      .cls-3 {
        fill: #db9a1c;
      }

      .cls-4 {
        fill: #507f39;
      }

      .cls-5 {
        fill: #bf1414;
      }

      .cls-6 {
        fill: #e32020;
      }

      .cls-7 {
        fill: #4d9417;
      }
    </style>
  </defs>
  <g id="_레이어_1-2" data-name="레이어_1">
    <g>
      <polyline class="cls-2" points="83.55 30.46 61.52 97.1 64.67 97.77 84.69 30.89"/>
      <path class="cls-1" d="M68.29,102.39c-1.1,3.49-4.81,5.42-8.3,4.33-3.49-1.1-5.42-4.81-4.33-8.3,1.1-3.49,4.25-3.63,7.74-2.54,3.49,1.1,5.99,3.02,4.89,6.51Z"/>
      <path class="cls-1" d="M69.79,120.3c2.96-9.42,1.69-18.17-7.74-21.13s-14.69,5.73-17.65,15.15c0,0-10.22,37.77-12.32,45.12-2.09,7.35-4.9,16.46-17.8,13.38-12.96-3.1-13.78-17.64-13.78-17.64-.16-.02-.33-.03-.49-.05-.56,14.53,10.7,26.94,25.46,27.87,11.87.75,22.42-6.15,26.77-16.41,0,0,17.3-45.51,17.55-46.3Z"/>
      <path class="cls-1" d="M17.26,166.92c-3.24-1.03-5.88-3.26-7.45-6.27-1.58-3.03-1.88-6.49-.86-9.74l.79.25c-.96,3.04-.67,6.28.8,9.11,1.47,2.82,3.94,4.9,6.97,5.86h.04c3.04.97,6.28.68,9.11-.79,2.83-1.48,4.92-3.96,5.87-7.01l.79.25c-1.02,3.26-3.26,5.92-6.28,7.5-3.03,1.58-6.49,1.88-9.74.86-.01,0-.03,0-.04-.01Z"/>
      <path class="cls-1" d="M14.96,186.24c-5.03-1.6-8.12-3.97-8.36-4.16l1.03-1.31c.11.08,10.66,8.16,24.79,4.1,14.48-4.15,17.8-19.62,17.84-19.78l1.63.33c-.03.17-3.55,16.61-19.01,21.05-7.14,2.05-13.34,1.23-17.93-.23Z"/>
      <path class="cls-4" d="M91.61,18.84l-4.82,6.83,8.25-14.91-.6-.42-8.69,16.17,3.47-14.82-1-.23-3.34,14.25.57-18.03-.93.39-.19,19.66-3.82-15.28-.98.28,4.39,19.32,8.54-12.62-.84-.59ZM85.54,27.37h.05s-.07.09-.07.09l.02-.09Z"/>
      <circle class="cls-5" cx="91.8" cy="5.4" r="4.66" transform="translate(13.12 52.99) rotate(-34.53)"/>
      <circle class="cls-5" cx="84.85" cy="4.66" r="4.66" transform="translate(12.31 48.92) rotate(-34.53)"/>
      <circle class="cls-5" cx="96.63" cy="8.4" r="4.66" transform="translate(12.26 56.26) rotate(-34.53)"/>
      <circle class="cls-6" cx="79.33" cy="9.53" r="4.66" transform="translate(8.57 46.65) rotate(-34.53)"/>
      <circle class="cls-6" cx="92.26" cy="20.03" r="4.66" transform="translate(4.9 55.83) rotate(-34.53)"/>
      <circle class="cls-6" cx="82.9" cy="18.19" r="4.66" transform="translate(4.3 50.2) rotate(-34.53)"/>
      <circle class="cls-6" cx="89.79" cy="10.07" r="4.66" transform="translate(10.11 52.67) rotate(-34.53)"/>
      <circle class="cls-6" cx="98.55" cy="16.16" r="4.66" transform="translate(8.2 58.71) rotate(-34.53)"/>
      <path class="cls-2" d="M67.81,82.19s13.07-6.94,19.46-10.32c.23.36.09.68.09.68,0,0-12.01,6.51-19.71,11.25l.17-1.62Z"/>
      <path class="cls-7" d="M120.6,58.32c-1.62-.42-14.27-3.5-22.12,0-8.4,3.75-12.39,14.34-12.39,14.34,0,0,.23.05.65.12,7.75-5.69,19.4-12.27,33.86-14.47Z"/>
      <path class="cls-2" d="M86.74,72.79c2.7.49,13.31,2.09,19.83-1.24,7.52-3.84,14.21-13.18,14.21-13.18,0,0-.06-.02-.18-.05-14.46,2.2-26.11,8.78-33.86,14.47Z"/>
      <path class="cls-2" d="M65.89,89.74l-7.62-26.83-.7.51s4.57,16.68,6.98,27.88l1.33-1.57Z"/>
      <path class="cls-7" d="M46.21,36.85c1.71,1.06,14.86,9.44,18.33,19.13,3.72,10.37-2.14,22.61-2.14,22.61,0,0-.24-.16-.64-.46-1.5-11.43-5.47-26.95-15.55-41.28Z"/>
      <path class="cls-2" d="M61.76,78.13c-2.66-1.94-12.83-9.78-15.36-18.18-2.92-9.69-.38-23.21-.38-23.21,0,0,.07.04.19.11,10.08,14.33,14.05,29.85,15.55,41.28Z"/>
      <polygon class="cls-4" points="79.3 72.36 82.97 74.27 82.14 74.77 79.11 72.67 79.3 72.36"/>
      <path class="cls-2" d="M69.09,65.73c.21.57,1.9,5.01,4.58,6.64,2.86,1.74,6.87.75,6.87.75,0,0-.03-.08-.1-.22-3.31-1.15-7.7-3.28-11.35-7.17Z"/>
      <path class="cls-2" d="M80.44,72.89c-.41-.91-2.13-4.42-4.48-5.69-2.71-1.46-6.89-1.54-6.89-1.54,0,0,0,.02.02.06,3.65,3.88,8.03,6.02,11.35,7.17Z"/>
      <polygon class="cls-4" points="81.95 78.22 83.1 74.24 82.16 74.5 81.71 77.74 81.95 78.22"/>
      <path class="cls-2" d="M79.72,90.18c-.27-.55-2.31-4.83-1.65-7.89.71-3.27,4.19-5.49,4.19-5.49,0,0,.03.08.09.22-1.45,3.19-2.93,7.84-2.64,13.16Z"/>
      <path class="cls-2" d="M82.35,77.02c.37.93,1.74,4.59,1.04,7.17-.81,2.97-3.64,6.05-3.64,6.05,0,0-.01-.02-.03-.06-.29-5.32,1.18-9.97,2.64-13.16Z"/>
      <path class="cls-2" d="M85.76,50.15c-.62.73-5.32,6.43-5.48,11.3-.16,5.22,4.26,9.89,4.26,9.89,0,0,.08-.11.22-.3-.99-5.37-1.46-12.95,1-20.89Z"/>
      <path class="cls-2" d="M84.77,71.04c.92-1.26,4.36-6.28,4.28-10.44-.1-4.8-3.22-10.53-3.22-10.53,0,0-.02.03-.07.08-2.46,7.93-1.98,15.51-1,20.89Z"/>
      <polygon class="cls-4" points="84.69 70.59 84.59 73.44 83.7 73.74 84.39 70.49 84.69 70.59"/>
      <path class="cls-2" d="M104.28,84.75c-.94.17-8.23,1.38-12.53-.94-4.6-2.48-6.41-8.65-6.41-8.65,0,0,.13-.02.37-.04,4.15,3.55,10.47,7.77,18.56,9.63Z"/>
      <path class="cls-2" d="M85.71,75.12c1.55-.16,7.62-.62,11.18,1.54,4.1,2.49,7.49,8.06,7.49,8.06,0,0-.04,0-.1.02-8.09-1.86-14.41-6.07-18.56-9.63Z"/>
      <polygon class="cls-4" points="86.06 75.42 83.55 74.08 82.84 74.69 85.99 75.72 86.06 75.42"/>
      <circle class="cls-3" cx="54.47" cy="108.44" r="1.42"/>
      <circle class="cls-3" cx="49.34" cy="113.09" r="1.42"/>
      <circle class="cls-3" cx="55.41" cy="115.03" r="1.42"/>
    </g>
  </g>
</svg>