<?xml version="1.0" encoding="UTF-8"?>
<svg id="_레이어_2" data-name="레이어 2" xmlns="http://www.w3.org/2000/svg" width="126.6" height="163.5" viewBox="0 0 126.6 163.5">
  <g id="_레이어_2-2" data-name="레이어 2">
    <g>
      <g>
        <rect x="34.4" y="0" width="28.4" height="14.3" fill="#d1d1d1" stroke-width="0"/>
        <rect x="0" y="20.1" width="31.4" height="143.3" fill="#d1d1d1" stroke-width="0"/>
        <rect x="14.3" y="8" width="41.7" height="155.3" fill="#d1d1d1" stroke-width="0"/>
        <polygon points="33.8 8 33.8 20.1 14.3 20.1 13.8 88.1 0 88.2 0 163.4 14.3 163.4 73 163.4 73 40.9 73 20.1 73 8 33.8 8" fill="#a39b99" stroke-width="0"/>
        <rect x="22.9" y="25.9" width="7.7" height="7.7" fill="#d1d1d1" stroke-width="0"/>
        <rect x="34.6" y="25.9" width="7.7" height="7.7" fill="#d1d1d1" stroke-width="0"/>
        <rect x="22.9" y="42.5" width="7.7" height="7.7" fill="#d1d1d1" stroke-width="0"/>
        <rect x="34.6" y="42.5" width="7.7" height="7.7" fill="#d1d1d1" stroke-width="0"/>
        <rect x="22.9" y="59.2" width="7.7" height="7.7" fill="#d1d1d1" stroke-width="0"/>
        <rect x="34.6" y="59.2" width="7.7" height="7.7" fill="#d1d1d1" stroke-width="0"/>
        <rect x="22.9" y="75.8" width="7.7" height="7.7" fill="#d1d1d1" stroke-width="0"/>
        <rect x="34.6" y="75.8" width="7.7" height="7.7" fill="#d1d1d1" stroke-width="0"/>
        <rect x="22.9" y="92.5" width="7.7" height="7.7" fill="#d1d1d1" stroke-width="0"/>
        <rect x="34.6" y="92.5" width="7.7" height="7.7" fill="#d1d1d1" stroke-width="0"/>
        <rect x="47" y="26" width="7.7" height="7.7" fill="#d1d1d1" stroke-width="0"/>
        <rect x="58.7" y="26" width="7.7" height="7.7" fill="#d1d1d1" stroke-width="0"/>
        <rect x="47" y="42.7" width="7.7" height="7.7" fill="#d1d1d1" stroke-width="0"/>
        <rect x="58.7" y="42.7" width="7.7" height="7.7" fill="#d1d1d1" stroke-width="0"/>
        <rect x="47" y="59.3" width="7.7" height="7.7" fill="#d1d1d1" stroke-width="0"/>
        <rect x="58.7" y="59.3" width="7.7" height="7.7" fill="#d1d1d1" stroke-width="0"/>
        <rect x="47" y="76" width="7.7" height="7.7" fill="#d1d1d1" stroke-width="0"/>
        <rect x="58.7" y="76" width="7.7" height="7.7" fill="#d1d1d1" stroke-width="0"/>
        <rect x="47" y="92.6" width="7.7" height="7.7" fill="#d1d1d1" stroke-width="0"/>
        <rect x="58.7" y="92.6" width="7.7" height="7.7" fill="#d1d1d1" stroke-width="0"/>
        <rect x="41.1" y="0" width="28.4" height="14.3" fill="#a39b99" stroke-width="0"/>
      </g>
      <g>
        <rect x="72.3" y="87.9" width="54.3" height="75.5" fill="#a39b99" stroke-width="0"/>
        <rect x="73.2" y="87.5" width="10.8" height="76" fill="#d1d1d1" stroke-width="0"/>
        <rect x="92.1" y="78.5" width="26.7" height="12.2" fill="#a39b99" stroke-width="0"/>
        <rect x="90.1" y="94.6" width="3.7" height="36" fill="#d1d1d1" stroke-width="0"/>
        <rect x="99.6" y="94.6" width="3.7" height="36" fill="#d1d1d1" stroke-width="0"/>
        <rect x="109.1" y="94.6" width="3.7" height="36" fill="#d1d1d1" stroke-width="0"/>
        <rect x="118.6" y="94.6" width="3.7" height="36" fill="#d1d1d1" stroke-width="0"/>
      </g>
    </g>
  </g>
</svg>