<svg xmlns="http://www.w3.org/2000/svg" width="165.599" height="171.714" viewBox="0 0 165.599 171.714">
  <g id="오브제_월정사_건물" transform="translate(-330.866 -118.259)">
    <rect id="사각형_63" data-name="사각형 63" width="14.882" height="26.3" transform="translate(442.119 143.538)" fill="#d1d1d1"/>
    <rect id="사각형_64" data-name="사각형 64" width="26.912" height="26.3" transform="translate(453.944 143.538)" fill="#bcb5b3"/>
    <path id="패스_225" data-name="패스 225" d="M618.621,524.019H591.3V397.055l27.32-6.219Z" transform="translate(-191.59 -235.015)" fill="#d1d1d1"/>
    <path id="패스_226" data-name="패스 226" d="M633.708,509.212H591.3v-86.8l42.406,16.607Z" transform="translate(-191.589 -219.239)" fill="#bcb5b3"/>
    <rect id="사각형_65" data-name="사각형 65" width="53.823" height="134.15" transform="translate(427.033 155.823)" fill="#bcb5b3"/>
    <rect id="사각형_66" data-name="사각형 66" width="45.26" height="3.976" transform="translate(433.148 160.052)" fill="#a39d9b"/>
    <rect id="사각형_67" data-name="사각형 67" width="45.26" height="3.976" transform="translate(433.148 169.838)" fill="#a39d9b"/>
    <rect id="사각형_68" data-name="사각형 68" width="45.26" height="3.976" transform="translate(433.148 179.625)" fill="#a39d9b"/>
    <rect id="사각형_69" data-name="사각형 69" width="45.26" height="3.976" transform="translate(433.148 189.411)" fill="#a39d9b"/>
    <rect id="사각형_70" data-name="사각형 70" width="45.26" height="3.976" transform="translate(433.148 199.197)" fill="#a39d9b"/>
    <rect id="사각형_71" data-name="사각형 71" width="45.26" height="3.976" transform="translate(433.148 208.983)" fill="#a39d9b"/>
    <rect id="사각형_72" data-name="사각형 72" width="45.26" height="3.976" transform="translate(433.148 218.77)" fill="#a39d9b"/>
    <rect id="사각형_73" data-name="사각형 73" width="45.26" height="3.976" transform="translate(433.148 228.555)" fill="#a39d9b"/>
    <rect id="사각형_74" data-name="사각형 74" width="45.26" height="3.976" transform="translate(433.148 238.341)" fill="#a39d9b"/>
    <rect id="사각형_75" data-name="사각형 75" width="45.26" height="3.976" transform="translate(433.148 248.128)" fill="#a39d9b"/>
    <rect id="사각형_76" data-name="사각형 76" width="45.26" height="3.976" transform="translate(433.148 257.913)" fill="#a39d9b"/>
    <rect id="사각형_77" data-name="사각형 77" width="45.26" height="3.976" transform="translate(433.148 267.699)" fill="#a39d9b"/>
    <rect id="사각형_78" data-name="사각형 78" width="9.787" height="4.281" transform="translate(462.506 140.888)" fill="#bcb5b3"/>
    <rect id="사각형_79" data-name="사각형 79" width="1.326" height="23.751" transform="translate(466.584 118.259)" fill="#bcb5b3"/>
    <path id="패스_227" data-name="패스 227" d="M585.842,399.042v-8.206H564.2l-10.785,3.712v4.494l-8.023,2.573V524.987h48.472V399.042Z" transform="translate(-214.527 -235.014)" fill="#d1d1d1"/>
    <rect id="사각형_80" data-name="사각형 80" width="15.611" height="70.26" transform="translate(480.854 219.713)" fill="#bcb5b3"/>
    <rect id="사각형_81" data-name="사각형 81" width="27.524" height="60.181" transform="translate(379.337 229.792)" fill="#bcb5b3"/>
    <path id="패스_228" data-name="패스 228" d="M590.044,399.042v-8.206H560.38v8.206h-7.339V524.987h44.342V399.042Z" transform="translate(-210.705 -235.014)" fill="#bcb5b3"/>
    <path id="패스_229" data-name="패스 229" d="M580.521,398.773H561.7V463.58h1.784V404.864h17.04Z" transform="translate(-206.381 -231.049)" fill="#a39d9b"/>
    <path id="패스_230" data-name="패스 230" d="M556.513,399.437h3.914v-.664h-5.156v5.156h1.242Z" transform="translate(-209.591 -231.049)" fill="#a39d9b"/>
    <path id="패스_231" data-name="패스 231" d="M556.513,404.875h3.914v-.664h-5.156v5.156h1.242Z" transform="translate(-209.591 -228.332)" fill="#a39d9b"/>
    <path id="패스_232" data-name="패스 232" d="M556.513,410.313h3.914v-.664h-5.156V414.8h1.242Z" transform="translate(-209.591 -225.615)" fill="#a39d9b"/>
    <path id="패스_233" data-name="패스 233" d="M556.513,415.751h3.914v-.664h-5.156v5.156h1.242Z" transform="translate(-209.591 -222.898)" fill="#a39d9b"/>
    <path id="패스_234" data-name="패스 234" d="M556.513,421.75h3.914v-.664h-5.156v5.156h1.242Z" transform="translate(-209.591 -219.901)" fill="#a39d9b"/>
    <path id="패스_235" data-name="패스 235" d="M556.513,427.188h3.914v-.664h-5.156v5.156h1.242Z" transform="translate(-209.591 -217.184)" fill="#a39d9b"/>
    <path id="패스_236" data-name="패스 236" d="M556.513,432.627h3.914v-.664h-5.156v5.156h1.242Z" transform="translate(-209.591 -214.467)" fill="#a39d9b"/>
    <path id="패스_237" data-name="패스 237" d="M556.513,438.065h3.914V437.4h-5.156v5.156h1.242Z" transform="translate(-209.591 -211.75)" fill="#a39d9b"/>
    <path id="패스_238" data-name="패스 238" d="M577.79,399.392H581.7v-.664h-5.156v5.156h1.242Z" transform="translate(-198.961 -231.072)" fill="#a39d9b"/>
    <path id="패스_239" data-name="패스 239" d="M577.79,404.83H581.7v-.664h-5.156v5.156h1.242Z" transform="translate(-198.961 -228.355)" fill="#a39d9b"/>
    <path id="패스_240" data-name="패스 240" d="M577.79,410.268H581.7V409.6h-5.156v5.156h1.242Z" transform="translate(-198.961 -225.638)" fill="#a39d9b"/>
    <path id="패스_241" data-name="패스 241" d="M577.79,415.706H581.7v-.664h-5.156V420.2h1.242Z" transform="translate(-198.961 -222.921)" fill="#a39d9b"/>
    <path id="패스_242" data-name="패스 242" d="M577.79,421.705H581.7v-.664h-5.156V426.2h1.242Z" transform="translate(-198.961 -219.924)" fill="#a39d9b"/>
    <path id="패스_243" data-name="패스 243" d="M577.79,427.143H581.7v-.664h-5.156v5.156h1.242Z" transform="translate(-198.961 -217.207)" fill="#a39d9b"/>
    <path id="패스_244" data-name="패스 244" d="M577.79,432.581H581.7v-.664h-5.156v5.156h1.242Z" transform="translate(-198.961 -214.49)" fill="#a39d9b"/>
    <path id="패스_245" data-name="패스 245" d="M577.79,438.019H581.7v-.664h-5.156v5.156h1.242Z" transform="translate(-198.961 -211.773)" fill="#a39d9b"/>
  </g>
</svg>
