<svg xmlns="http://www.w3.org/2000/svg" width="56.631" height="61.024" viewBox="0 0 56.631 61.024">
  <g id="오브제_본관제_나무" transform="translate(-574.036 -121.332)">
    <path id="패스_516" data-name="패스 516" d="M752.813,407.445c-.852-.712-.822-1,.11-1.035,3.47.179,11.874.628,11.219-4.91-1.3-3.88-7.827-6.475-10.863-8.965-1.015-.807-3.575-2.458-.679-2.575,2.939.081,8.713-.588,8.69-3.782.027-1.88-1.948-3.58-3.544-4.742-2.591-1.834-5.427-3.508-7.87-5.558-8.593-8.293-14.929-11.834-24.388-2.465-3.824,4.056-9.853,6.585-13.42,10.551-1.882,2.42-.244,4.584,2.3,5.367,1.745.657,3.983.537,5.571,1.186,1.455.6-3.575,3.575-4.88,4.436-3.364,2.213-7.111,4.148-7.356,7.287.4,4.4,6.928,4.3,10.259,4.464,1.768.22.258,1.1-2.146,2.726-2.906,1.866-7.645,4.518-8.233,7.17-.586,5.013,6.7,5.417,10.272,4.49,6.324-1.356,13.143-6.7,16.075-8.978a4.5,4.5,0,0,1,2.133-1.08c1.737.184,2.536,1.515,4.337,2.789,5.312,4.371,15.353,10.479,21.973,6.276,5.94-5.094-5.958-9.473-9.43-12.55Z" transform="translate(-133.51 -246.505)" fill="#ebe2db"/>
    <path id="패스_517" data-name="패스 517" d="M733.673,389.234l13.683,9.35,1.546-1.677-15.229-10.233V375.247l14.059,9.607,1.546-1.675-16.112-10.827h-1.417l-16.112,10.827,1.546,1.675,13.977-9.55v10.92l-15.9,10.683,1.546,1.677,14.353-9.808v10.638l-15.835,10.64,1.546,1.677,14.288-9.764v24.639h2.513V402.337l13.747,9.394,1.546-1.677-15.293-10.277Z" transform="translate(-129.657 -244.25)" fill="#c6bfba"/>
  </g>
</svg>
