<svg xmlns="http://www.w3.org/2000/svg" width="81.144" height="146.436" viewBox="0 0 81.144 146.436">
  <g id="오브제_월정사_뒷건물" transform="translate(-209.804 -145.021)">
    <rect id="사각형_16" data-name="사각형 16" width="14.882" height="26.3" transform="translate(252.211 145.021)" fill="#d1d1d1"/>
    <rect id="사각형_17" data-name="사각형 17" width="26.912" height="26.3" transform="translate(264.036 145.021)" fill="#bcb5b3"/>
    <path id="패스_53" data-name="패스 53" d="M491.984,525.009h-27.32V398.044l27.32-6.219Z" transform="translate(-254.86 -234.52)" fill="#d1d1d1"/>
    <path id="패스_54" data-name="패스 54" d="M507.071,510.2H464.665V423.4l42.406,16.607Z" transform="translate(-254.86 -218.745)" fill="#bcb5b3"/>
    <rect id="사각형_18" data-name="사각형 18" width="53.823" height="134.15" transform="translate(237.125 157.306)" fill="#bcb5b3"/>
    <rect id="사각형_19" data-name="사각형 19" width="45.26" height="3.976" transform="translate(243.24 161.536)" fill="#a39d9b"/>
    <rect id="사각형_20" data-name="사각형 20" width="45.26" height="3.976" transform="translate(243.24 171.322)" fill="#a39d9b"/>
    <rect id="사각형_21" data-name="사각형 21" width="45.26" height="3.976" transform="translate(243.24 181.108)" fill="#a39d9b"/>
    <rect id="사각형_22" data-name="사각형 22" width="45.26" height="3.976" transform="translate(243.24 190.895)" fill="#a39d9b"/>
    <rect id="사각형_23" data-name="사각형 23" width="45.26" height="3.976" transform="translate(243.24 200.681)" fill="#a39d9b"/>
    <rect id="사각형_24" data-name="사각형 24" width="45.26" height="3.976" transform="translate(243.24 210.466)" fill="#a39d9b"/>
    <rect id="사각형_25" data-name="사각형 25" width="45.26" height="3.976" transform="translate(243.24 220.253)" fill="#a39d9b"/>
    <rect id="사각형_26" data-name="사각형 26" width="45.26" height="3.976" transform="translate(243.24 230.039)" fill="#a39d9b"/>
    <rect id="사각형_27" data-name="사각형 27" width="45.26" height="3.976" transform="translate(243.24 239.824)" fill="#a39d9b"/>
    <rect id="사각형_28" data-name="사각형 28" width="45.26" height="3.976" transform="translate(243.24 249.611)" fill="#a39d9b"/>
    <rect id="사각형_29" data-name="사각형 29" width="45.26" height="3.976" transform="translate(243.24 259.397)" fill="#a39d9b"/>
    <rect id="사각형_30" data-name="사각형 30" width="45.26" height="3.976" transform="translate(243.24 269.183)" fill="#a39d9b"/>
  </g>
</svg>
