<?xml version="1.0" encoding="UTF-8"?>
<svg id="_레이어_2" data-name="레이어 2" xmlns="http://www.w3.org/2000/svg" width="845" height="876.3" xmlns:xlink="http://www.w3.org/1999/xlink" viewBox="0 0 845 876.3">
  <defs>
    <clipPath id="clippath">
      <polygon points="438.9 452.4 438.9 452.4 432.6 447 432.6 447 426.2 441.5 376.8 499.4 383.3 504.9 383.3 504.9 389.6 510.3 389.6 510.3 396 515.8 445.4 457.9 438.9 452.4" fill="#6b9374" stroke-width="0"/>
    </clipPath>
    <clipPath id="clippath-1">
      <polygon points="542.5 405.8 234.5 405.8 234.5 255.6 542.8 256.5 542.5 405.8" fill="none" stroke-width="0"/>
    </clipPath>
  </defs>
  <g id="_상" data-name="상">
    <path d="m845,599.7V45.3c0-20.5-14.3-37.3-31.9-37.3h-341.8c-6.8,23.8-26,40.9-48.7,40.9s-41.9-17.2-48.7-40.9H31.9C14.4,8,0,24.8,0,45.3v447.7h0v346.7c0,20.1,14.1,36.6,31.3,36.6h15.7c0-6,4.2-10.9,9.3-10.9s9.3,4.9,9.3,10.9h11.9c0-6,4.2-10.9,9.3-10.9s9.3,4.9,9.3,10.9h11.9c0-6,4.2-10.9,9.3-10.9s9.3,4.9,9.3,10.9h11.9c0-6,4.2-10.9,9.3-10.9s9.3,4.9,9.3,10.9h11.9c0-6,4.2-10.9,9.3-10.9s9.3,4.9,9.3,10.9h11.9c0-6,4.2-10.9,9.3-10.9s9.3,4.9,9.3,10.9h11.9c0-6,4.2-10.9,9.3-10.9s9.3,4.9,9.3,10.9h11.9c0-6,4.2-10.9,9.3-10.9s9.3,4.9,9.3,10.9h11.9c0-6,4.2-10.9,9.3-10.9s9.3,4.9,9.3,10.9h11.9c0-6,4.2-10.9,9.3-10.9s9.3,4.9,9.3,10.9h11.9c0-6,4.2-10.9,9.3-10.9s9.3,4.9,9.3,10.9h11.9c0-6,4.2-10.9,9.3-10.9s9.3,4.9,9.3,10.9h11.9c0-6,4.2-10.9,9.3-10.9s9.3,4.9,9.3,10.9h11.9c0-6,4.2-10.9,9.3-10.9s9.3,4.9,9.3,10.9h11.9c0-6,4.2-10.9,9.3-10.9s9.3,4.9,9.3,10.9h11.9c0-6,4.2-10.9,9.3-10.9s9.3,4.9,9.3,10.9h11.9c0-6,4.2-10.9,9.3-10.9s9.3,4.9,9.3,10.9h11.9c0-6,4.2-10.9,9.3-10.9s9.3,4.9,9.3,10.9h11.9c0-6,4.2-10.9,9.3-10.9s9.3,4.9,9.3,10.9h11.9c0-6,4.2-10.9,9.3-10.9s9.3,4.9,9.3,10.9h11.9c0-6,4.2-10.9,9.3-10.9s9.3,4.9,9.3,10.9h11.9c0-6,4.2-10.9,9.3-10.9s9.3,4.9,9.3,10.9h11.9c0-6,4.2-10.9,9.3-10.9s9.3,4.9,9.3,10.9h11.9c0-6,4.2-10.9,9.3-10.9s9.3,4.9,9.3,10.9h11.9c0-6,4.2-10.9,9.3-10.9s9.3,4.9,9.3,10.9h15.1c17.2,0,31.3-16.5,31.3-36.6v-240h0Z" fill="#6d8e0d" stroke-width="0"/>
    <g>
      <rect x="57.9" y="81.4" width="707.9" height="198" fill="#adcf00" stroke-width="0"/>
      <rect x="57.9" y="402.8" width="516.9" height="219.5" fill="#adcf00" stroke-width="0"/>
      <rect x="206.6" y="244.5" width="368.2" height="161.2" fill="#7fa800" stroke-width="0"/>
      <rect x="57.5" y="244.5" width="149" height="161.2" fill="#4f7b00" stroke-width="0"/>
      <g>
        <polygon points="404 443.6 495.7 569.8 400.9 569.8 400.9 446.3 404 443.6" fill="#a0ba00" stroke-width="0"/>
        <polygon points="205.7 443.6 404.8 443.6 404.8 592.5 184.8 592.5 184.8 462 205.7 443.6" fill="#f6f6f6" stroke-width="0"/>
        <polygon points="205.7 443.6 205.7 462 184.8 462 205.7 443.6" fill="#d2d2d2" stroke-width="0"/>
        <g>
          <rect x="425.5" y="437.7" width="26.2" height="16.4" rx="2.8" ry="2.8" transform="translate(483.3 1069.8) rotate(-139.6)" fill="#ffcfbc" stroke-width="0"/>
          <g>
            <polygon points="438.9 452.4 438.9 452.4 432.6 447 432.6 447 426.2 441.5 376.8 499.4 383.3 504.9 383.3 504.9 389.6 510.3 389.6 510.3 396 515.8 445.4 457.9 438.9 452.4" fill="#6b9374"/>
            <g clip-path="url(#clippath)">
              <path d="m430.3,448.9l-50.1,58.4.8.7,50-58.3c-.2-.2-.5-.5-.7-.7Z" fill="#f6fbff" stroke-width="0"/>
              <path d="m438.2,452.9l-53,61.8.8.7,53.1-61.8c-.3-.2-.5-.4-.8-.6Z" fill="#f6fbff" stroke-width="0"/>
            </g>
          </g>
          <g>
            <polygon points="376.5 514.3 376.4 519.3 381.3 518.4 384.1 517.8 376.6 511.4 376.5 514.3" fill="#000408" stroke-width="0"/>
            <path d="m376.9,499.4l-.3,12.1,7.5,6.4,11.9-2.2h0c1.6-1.8,1.4-4.5-.4-6.1s-3.7-1.3-5.3-.1c.9-1.7.6-3.9-1-5.2-1.5-1.3-3.7-1.3-5.3-.1.9-1.7.6-3.9-1-5.2-1.8-1.5-4.5-1.3-6.1.5h0Z" fill="#e7b13a" stroke-width="0"/>
          </g>
          <rect x="421" y="445.2" width="29" height="8.8" transform="translate(475.4 1074.2) rotate(-139.6)" fill="#e7b13a" stroke-width="0"/>
        </g>
        <rect x="202" y="467.8" width="32.1" height="11.2" rx="5.6" ry="5.6" fill="none" stroke="#d2d2d2" stroke-miterlimit="10" stroke-width=".9"/>
        <g>
          <rect x="207.2" y="471.1" width="7" height="4.4" fill="#d2d2d2" stroke-width="0"/>
          <rect x="216.1" y="471.1" width="3.8" height="4.4" fill="#d2d2d2" stroke-width="0"/>
          <rect x="221.5" y="471.1" width="6.8" height="4.4" fill="#d2d2d2" stroke-width="0"/>
        </g>
        <g>
          <rect x="248.2" y="480.5" width="11.9" height="3.5" fill="#d2d2d2" stroke-width="0"/>
          <rect x="341" y="480.5" width="11.9" height="3.5" fill="#d2d2d2" stroke-width="0"/>
          <rect x="297.5" y="480.5" width="11.9" height="3.5" fill="#d2d2d2" stroke-width="0"/>
          <rect x="263.3" y="480.5" width="11.9" height="3.5" fill="#d2d2d2" stroke-width="0"/>
          <rect x="312.4" y="480.5" width="16.4" height="3.5" fill="#d2d2d2" stroke-width="0"/>
          <rect x="278.5" y="480.5" width="8.2" height="3.5" fill="#d2d2d2" stroke-width="0"/>
          <rect x="290" y="480.5" width="3.9" height="3.5" fill="#d2d2d2" stroke-width="0"/>
          <rect x="332.9" y="480.5" width="3.9" height="3.5" fill="#d2d2d2" stroke-width="0"/>
        </g>
        <g>
          <path d="m244,499.5h2.5v5.9h13.2v2.3h-25.3v-2.3h9.6v-5.9Zm11.8-5.8c0,.9,0,1.9,0,2.9,0,1-.2,2.1-.3,3.1-.1,1-.3,1.9-.4,2.7-.1.8-.3,1.4-.4,1.8h-2.6c.1-.5.2-1.1.4-1.9.1-.8.3-1.5.4-2.3.1-.8.2-1.6.3-2.3,0-.7.1-1.3.1-1.7h-14.6v-2.3h17.3Zm-8.6,26.7c-.9,0-1.8-.2-2.6-.5-.8-.3-1.6-.7-2.2-1.2-.6-.5-1.2-1.1-1.6-1.8-.4-.7-.6-1.5-.6-2.3s.2-1.6.5-2.3c.4-.7.9-1.3,1.5-1.8s1.4-.9,2.2-1.2,1.8-.5,2.7-.5,1.9.2,2.7.5,1.6.7,2.2,1.2,1.1,1.1,1.5,1.8c.4.7.6,1.5.6,2.3s-.2,1.6-.6,2.3c-.4.7-.9,1.3-1.5,1.8s-1.4.9-2.2,1.2-1.8.5-2.7.5Zm0-9.5c-.6,0-1.1,0-1.7.3-.5.2-1,.4-1.4.8-.4.3-.7.7-1,1.1-.2.4-.4.9-.4,1.4s.1,1,.3,1.4c.2.4.5.8.9,1.1s.9.6,1.4.8c.5.2,1.1.3,1.7.3s1.2,0,1.8-.3c.5-.2,1-.4,1.4-.8.4-.3.7-.7.9-1.1.2-.4.3-.9.3-1.4s-.1-1-.3-1.4c-.2-.4-.5-.8-.9-1.1-.4-.3-.9-.6-1.4-.8-.5-.2-1.1-.3-1.8-.3Z" fill="#757575" stroke-width="0"/>
          <path d="m275.7,511v9.1h-2.5v-9.1h-11.6v-2.3h25.3v2.3h-11.2Zm-9.7-5.7v-11.5h17v11.5h-17Zm14.5-9.3h-12v7h12v-7Z" fill="#757575" stroke-width="0"/>
          <path d="m296,511.2v-4.3h-6.5c0,0,0-2.1,0-2.1h9.5c1.9-.1,3.7-.2,5.3-.3,1.6-.1,3.1-.3,4.4-.5v2.1c-1.3.2-2.7.4-4.4.5-1.7.1-3.6.2-5.8.2v4.3h-2.5Zm2.4-18.1c.9,0,1.7.1,2.5.4.8.3,1.5.7,2.1,1.1s1.1,1.1,1.4,1.7c.3.7.5,1.4.5,2.1s-.2,1.5-.5,2.1c-.3.6-.8,1.2-1.4,1.7-.6.5-1.3.8-2.1,1.1-.8.3-1.6.4-2.6.4s-1.8-.1-2.6-.4c-.8-.3-1.5-.6-2-1.1-.6-.5-1-1-1.4-1.7-.3-.6-.5-1.4-.5-2.1s.2-1.4.5-2.1.8-1.2,1.4-1.7,1.3-.9,2-1.1,1.6-.4,2.6-.4Zm4.1,5.4c0-.4-.1-.9-.3-1.3-.2-.4-.5-.7-.8-1-.4-.3-.8-.5-1.3-.7s-1.1-.3-1.7-.3c-1.2,0-2.2.3-2.9.9-.7.6-1.1,1.4-1.1,2.3s.4,1.7,1.1,2.3c.7.6,1.7.9,2.9.9s2.2-.3,2.9-.9c.8-.6,1.1-1.3,1.1-2.3Zm-7.5,21.3v-7.5h2.5v5.2h15v2.3h-17.4Zm14.4-6.2v-2.5h-6.7v-2.1h6.7v-16.2h2.5v20.9h-2.5Z" fill="#757575" stroke-width="0"/>
          <path d="m331.1,512.9c-.7-.3-1.3-.6-2-1.1-.7-.4-1.3-1-2-1.6s-1.2-1.3-1.7-2.1c-.5-.8-1-1.6-1.4-2.6-.3,1-.7,1.9-1.2,2.7-.5.8-1,1.5-1.7,2.2-.6.7-1.3,1.2-2,1.7-.7.5-1.4.9-2,1.3l-1.9-1.6c.9-.5,1.9-1.2,2.8-1.9s1.7-1.6,2.3-2.6c.7-1,1.2-2.1,1.6-3.3.4-1.2.6-2.6.6-4.2v-5.8h2.7v5.7c0,1.6.3,3,.8,4.2.5,1.2,1.2,2.4,2,3.3.8,1,1.6,1.8,2.5,2.4.9.6,1.8,1.1,2.6,1.5l-1.9,1.7Zm5.2,7.3v-27.6h2.5v27.6h-2.5Z" fill="#757575" stroke-width="0"/>
          <path d="m350.3,492.3h2.6v2.9h6.6v2.2h-3.2c1.1,1,1.6,2.3,1.6,3.9s-.2,1.6-.5,2.4c-.3.7-.8,1.4-1.4,1.9-.6.5-1.2,1-2,1.3-.8.3-1.6.5-2.4.5s-1.7-.2-2.5-.5c-.8-.3-1.4-.7-2-1.3s-1-1.2-1.3-1.9c-.3-.7-.5-1.5-.5-2.4s.1-1.5.4-2.2c.3-.7.7-1.3,1.2-1.8h-3.1v-2.2h6.5v-2.9Zm1.3,12.9c1.2,0,2.1-.4,2.8-1.1s1-1.6,1-2.7,0-1-.3-1.5c-.2-.5-.5-.9-.8-1.2s-.8-.6-1.2-.8c-.5-.2-1-.3-1.5-.3s-1,.1-1.5.3c-.5.2-.9.5-1.2.8s-.6.7-.8,1.2c-.2.5-.3,1-.3,1.5,0,1.2.4,2.1,1.1,2.8.7.7,1.6,1,2.7,1Zm-1.4,14.7v-10.3h15.9v10.3h-15.9Zm13.4-8.1h-10.8v5.8h10.8v-5.8Zm0-3.1v-6.9h-4.9v-2.3h4.9v-7h2.5v16.1h-2.5Z" fill="#757575" stroke-width="0"/>
        </g>
        <rect x="298.6" y="535.9" width="2.5" height="44.8" fill="#d2d2d2" stroke-width="0"/>
        <g>
          <rect x="198.6" y="544.2" width="15.5" height="3.3" fill="#d2d2d2" stroke-width="0"/>
          <rect x="242.2" y="544.2" width="15.5" height="3.3" fill="#d2d2d2" stroke-width="0"/>
          <rect x="260.9" y="544.2" width="6" height="3.3" fill="#d2d2d2" stroke-width="0"/>
          <rect x="270.1" y="544.2" width="11.5" height="3.3" fill="#d2d2d2" stroke-width="0"/>
          <rect x="198.4" y="551.9" width="14.6" height="3.2" fill="#d2d2d2" stroke-width="0"/>
          <rect x="216" y="551.9" width="5.6" height="3.2" fill="#d2d2d2" stroke-width="0"/>
          <rect x="224.6" y="551.9" width="10.8" height="3.2" fill="#d2d2d2" stroke-width="0"/>
          <rect x="238.4" y="551.9" width="10.8" height="3.2" fill="#d2d2d2" stroke-width="0"/>
          <rect x="217.2" y="544.2" width="6.3" height="3.3" fill="#d2d2d2" stroke-width="0"/>
          <rect x="227.1" y="544.2" width="12" height="3.3" fill="#d2d2d2" stroke-width="0"/>
        </g>
        <g>
          <rect x="309.1" y="543.1" width="15.5" height="3.3" fill="#d2d2d2" stroke-width="0"/>
          <rect x="352.7" y="543.1" width="15.5" height="3.3" fill="#d2d2d2" stroke-width="0"/>
          <rect x="371.4" y="543.1" width="6" height="3.3" fill="#d2d2d2" stroke-width="0"/>
          <rect x="380.6" y="543.1" width="11.5" height="3.3" fill="#d2d2d2" stroke-width="0"/>
          <rect x="308.8" y="550.8" width="14.6" height="3.2" fill="#d2d2d2" stroke-width="0"/>
          <rect x="326.4" y="550.8" width="5.6" height="3.2" fill="#d2d2d2" stroke-width="0"/>
          <rect x="335.1" y="550.8" width="10.8" height="3.2" fill="#d2d2d2" stroke-width="0"/>
          <rect x="348.9" y="550.8" width="10.8" height="3.2" fill="#d2d2d2" stroke-width="0"/>
          <rect x="327.6" y="543.1" width="6.3" height="3.3" fill="#d2d2d2" stroke-width="0"/>
          <rect x="337.6" y="543.1" width="12" height="3.3" fill="#d2d2d2" stroke-width="0"/>
        </g>
        <rect x="136" y="425.6" width="380.7" height="137.1" fill="none" stroke-width="0"/>
      </g>
      <g clip-path="url(#clippath-1)">
        <rect x="222.1" y="276.9" width="397.8" height="199.1" fill="#7fa800" stroke-width="0"/>
        <rect x="266.4" y="280" width="299.8" height="179.3" rx="16.4" ry="16.4" transform="translate(.5 -.6) rotate(0)" fill="#e8e8e8" stroke-width="0"/>
        <ellipse cx="378" cy="365.6" rx="17.6" ry="17.6" fill="#fdf11e" stroke-width="0"/>
        <g>
          <path d="m543.7,297.5h-79.8c-3.3-.1-6,2.6-6,5.9v106.6c-.1,3.3,2.6,6.1,5.9,6.1h79.8c3.3.1,6-2.6,6-5.9v-106.6c.1-3.3-2.6-6.1-5.9-6.1Z" fill="#7fa800" stroke-width="0"/>
          <g>
            <path d="m479.6,352.9c-1.3-.4-2.7-.5-3.9.1-.8.4-1.5,1-2,1.6-2.1,2.8-1.6,7.1,1.1,9.4,1.6,1.3,3.8,1.8,5.9,1.5l-1-12.6Z" fill="#fddac3" stroke-width="0"/>
            <path d="m504.5,322h0c-.2,0-.5,0-.7,0s0,0,0,0,0,0,0,0c-.2,0-.5,0-.7,0h0c-24.4.5-24.3,24.1-25,30.9l1.1,12.6s3.8,15.4,23.6,16.3h0c.3,0,.6,0,.9,0,.3,0,.6,0,.9,0h0c19.8-.9,23.6-16.3,23.6-16.3l1.1-12.6c-.7-6.8-.4-30.4-24.9-30.9Z" fill="#fddac3" stroke-width="0"/>
            <path d="m527.2,365.5c2.1.3,4.3-.1,5.9-1.4,2.7-2.2,3.2-6.6,1.1-9.4-.5-.7-1.2-1.3-2-1.7-1.2-.6-2.6-.5-3.9-.1l-1.1,12.6Z" fill="#fddac3" stroke-width="0"/>
            <path d="m534.9,396.4c-6.3-4.3-18.6-11.9-31.4-11.9-12.9,0-25.1,7.5-31.5,11.8-6.4,4.3-8,12.7-8,19.8h78.8c0-7-1.5-15.4-7.9-19.7Z" fill="#4f7b00" stroke-width="0"/>
            <polygon points="516.2 390.6 504.5 395.2 492.8 390.6 492.8 375.5 516.2 375.6 516.2 390.6" fill="#fddac3" stroke-width="0"/>
            <polygon points="492.1 383.1 504.5 395.2 494.5 404.2 488.1 387.6 492.1 383.1" fill="#fdf9f6" stroke-width="0"/>
            <polygon points="517 383.1 504.5 395.2 514.4 404.2 520.9 387.7 517 383.1" fill="#fdf9f6" stroke-width="0"/>
            <path d="m516.3,379.3c-1.6.8-5.3,2.2-11.5,2.2-5.7,0-11.9-2.1-11.9-2.1v1s6.3,2.1,11.9,2.1c5.9,0,9.6-1.2,11.5-2.1,0-.4,0-.8,0-1.2Z" fill="#f5ba92" stroke-width="0"/>
            <ellipse cx="494.8" cy="354.2" rx="2" ry="2" fill="#252525" stroke-width="0"/>
            <ellipse cx="512.6" cy="353.8" rx="2" ry="2" fill="#252525" stroke-width="0"/>
            <path d="m528.3,365.7l-1-.3c1.2-3.9,1.9-7.9,1.9-12h1c0,4.2-.7,8.3-2,12.3Z" fill="#f5ba92" stroke-width="0"/>
            <path d="m479.3,365.6l1-.3c-1.2-3.9-1.9-7.9-1.9-12h-1c0,4.2.7,8.3,2,12.3Z" fill="#f5ba92" stroke-width="0"/>
            <path d="m534.6,326.4c-5.1-11.5-18.7-10.2-21.9-10.1-5.7-2.9-28.7-5-37,10.6-4.6,8.8,1.9,27.1,1.9,27.1,0,0,8.7-12.3,13.5-20l-.7,7.7,11.9-7.3-.9,8.7,10.2-7.8.3,7.1,8.6-7.1,9.9,21s9.4-18.4,4.2-29.9Z" fill="#252525" stroke-width="0"/>
            <path d="m511.2,317.7c1.4-1.7,3.5-2.7,5.7-3.2,2.2-.4,6.6-.3,6.6-.3,0,0-3.9,3.2-5.8,4.8" fill="#252525" stroke-width="0"/>
          </g>
        </g>
        <g>
          <g>
            <path d="m392.5,348c-.5-.4-1-.8-1.5-1.1-.5-.4-1.1-.7-1.6-1l.6-.9c.6.4,1.1.7,1.7,1.1.6.4,1.1.7,1.5,1l-.7,1Zm.7,2.5c-.3,1.1-.7,2.1-1.1,3.1-.4,1-.9,2.1-1.5,3.3l-1-.7c.2-.4.5-.8.7-1.2.2-.4.5-.9.7-1.4.5-1.1.9-2.3,1.3-3.6l1,.6Zm0-6.9c-.5-.4-1-.8-1.5-1.2s-1.1-.8-1.6-1.1l.7-.9c.6.3,1.2.7,1.7,1.1.6.4,1.1.8,1.5,1.1l-.7,1Zm4.5,9.5c-.3.4-.6.8-1,1.2-.4.4-.7.8-1.1,1.1-.4.3-.8.6-1.2.9-.4.3-.8.5-1.1.7l-.8-1c.3-.2.7-.4,1.1-.6.4-.3.8-.5,1.2-.8.4-.3.8-.6,1.1-1,.4-.4.7-.7.9-1.1l1,.7Zm-4.1-1.6v-1s2.7,0,2.7,0v-5.2s-2.2,0-2.2,0v-1.1s2.2,0,2.2,0v-3.9s1.2,0,1.2,0v3.9s3.2,0,3.2,0v-3.9s1.2,0,1.2,0v3.9s2.4,0,2.4,0v1.1s-2.4,0-2.4,0v5.2s2.9,0,2.9,0v1s-11.1,0-11.1,0Zm3.9-1h3.2s0-5.2,0-5.2h-3.2s0,5.2,0,5.2Zm6.8,6.4c-.2-.2-.5-.4-.9-.6-.3-.2-.7-.5-1.1-.9s-.8-.7-1.2-1.1c-.4-.4-.8-.8-1.1-1.3l.9-.7c.6.7,1.2,1.3,1.9,1.9.7.6,1.4,1.1,2.2,1.6l-.7,1Z" fill="#3d3d3d" stroke-width="0"/>
            <path d="m409.5,348v-1s5.8,0,5.8,0v-2.9s-6.7,0-6.7,0v-1.1s6.7,0,6.7,0v-2.6s1.3,0,1.3,0v2.6s6.8,0,6.8,0v1.1s-6.8,0-6.8,0v2.9s5.8,0,5.8,0v1s-12.8,0-12.8,0Zm10.5,8.9v-1s-8.3,0-8.3,0v1.1s-1.2,0-1.2,0v-6.9s10.7,0,10.7,0v6.8s-1.2,0-1.2,0Zm-8.3-2h8.3s0-3.8,0-3.8h-8.3s0,3.8,0,3.8Z" fill="#3d3d3d" stroke-width="0"/>
            <path d="m427.4,356.6v-1s6.7,0,6.7,0v-1.1s-5.7,0-5.7,0v-.9s5.7,0,5.7,0v-1.2s-4.9,0-4.9,0v-5.5s11.2,0,11.2,0v5.5s-5,0-5,0v1.2s5.9,0,5.9,0v.9s-5.9,0-5.9,0v1.1s6.8,0,6.8,0v1s-14.7,0-14.7,0Zm11.5-13.7c-.1.3-.3.7-.4,1-.1.3-.2.6-.4.9h4s0,1,0,1h-14.7s0-1,0-1h4c0-.3-.2-.6-.3-.9-.1-.3-.3-.6-.4-1h-2.5s0-1,0-1h5.9s0-1.4,0-1.4h1.2s0,1.5,0,1.5h6.1s0,1,0,1h-2.5Zm-8.5,6.3h3.7s0-1.4,0-1.4h-3.7s0,1.4,0,1.4Zm0,2.3h3.7s0-1.4,0-1.4h-3.7s0,1.4,0,1.4Zm6.5-6.7c.1-.3.3-.6.4-1s.3-.6.4-1h-5.7c.1.3.2.6.4.9.1.3.3.6.4,1h4.1Zm-1.5,3v1.4s3.9,0,3.9,0v-1.4s-3.9,0-3.9,0Zm0,3.6h3.9s0-1.4,0-1.4h-3.9s0,1.4,0,1.4Z" fill="#3d3d3d" stroke-width="0"/>
          </g>
          <path d="m320.1,350.6v2s-23.6,0-23.6,0v-2s10.4,0,10.4,0v-1.8c-2.7,0-4.8-.4-6.3-.9-1.5-.5-2.3-1.3-2.3-2.4,0-1.1.9-2,2.7-2.5,1.8-.5,4.2-.8,7.3-.8,3.1,0,5.5.3,7.3.8,1.8.5,2.7,1.4,2.7,2.5,0,1-.8,1.8-2.3,2.4-1.5.5-3.6.9-6.3.9v1.8s10.5,0,10.5,0Zm-1-9.6h-21.7s0-2,0-2h9.4s0-2.2,0-2.2h2.8s0,2.2,0,2.2h9.5s0,2,0,2Zm-3.4,14c1.9.6,2.9,1.5,2.9,2.8,0,1.3-1,2.2-2.9,2.8-1.9.6-4.4.9-7.5.9-3.1,0-5.6-.3-7.5-.9-1.9-.6-2.9-1.6-2.9-2.8,0-1.3,1-2.2,2.9-2.8,1.9-.6,4.4-.9,7.5-.9,3.1,0,5.6.3,7.5.9Zm-2.1,4.2c1.4-.3,2.1-.7,2.1-1.3s-.7-1-2.2-1.3c-1.4-.3-3.2-.4-5.3-.4-2.1,0-3.9.1-5.3.4-1.4.3-2.2.7-2.2,1.3s.7,1,2.1,1.3,3.2.4,5.4.4c2.1,0,3.9-.1,5.4-.4Zm-10.5-12.6c1.3.2,3.1.4,5.2.4,2.1,0,3.9-.1,5.2-.4,1.3-.2,2-.6,2-1.1,0-.5-.7-.8-2-1.1-1.3-.2-3.1-.4-5.2-.4-2.1,0-3.9.1-5.2.4-1.3.2-2,.6-2,1.1s.7.8,2,1.1Z" stroke-width="0"/>
          <path d="m329.1,346.8c3.5,0,6.2-.5,8.2-1.4,2-.9,2.9-2.3,2.9-4.1v-.6s-11.1,0-11.1,0v-2.3s13.9,0,13.9,0v2.4c0,2.8-1.2,4.9-3.7,6.2-2.5,1.4-5.9,2-10.2,2v-2.3Zm1.2,8.2h17.3s0-2.1,0-2.1h-17.4s0-2.2,0-2.2h20.1s0,6.3,0,6.3h-17.3s0,2.1,0,2.1h17.9s0,2.2,0,2.2h-20.6s0-6.3,0-6.3Zm17.3-17.1h2.7s0,11.6,0,11.6h-2.7s0-11.6,0-11.6Z" stroke-width="0"/>
          <path d="m382.4,348.8v2.2s-23.6,0-23.6,0v-2.2s10.4,0,10.4,0v-2.4s-8.7,0-8.7,0v-8.2s20.2,0,20.2,0v2.2s-17.5,0-17.5,0v3.8s17.8,0,17.8,0v2.2s-9.1,0-9.1,0v2.4s10.5,0,10.5,0Zm-4.3,5.2c1.9.7,2.9,1.8,2.9,3.3,0,1.5-1,2.6-2.9,3.3-1.9.7-4.4,1-7.5,1-3.1,0-5.6-.3-7.5-1-1.9-.7-2.9-1.8-2.9-3.3s1-2.6,2.9-3.3c1.9-.7,4.4-1,7.5-1s5.6.3,7.5,1Zm-2.2,5c1.4-.4,2.1-.9,2.1-1.7s-.7-1.3-2.1-1.6c-1.4-.4-3.2-.5-5.4-.5s-4,.2-5.4.5c-1.4.4-2.1.9-2.1,1.6s.7,1.3,2.1,1.7c1.4.4,3.2.5,5.4.5,2.2,0,4-.2,5.4-.5Z" stroke-width="0"/>
        </g>
        <g>
          <rect x="354.1" y="372.8" width="12.9" height="35" transform="translate(-30.2 750.3) rotate(-89.9)" fill="#d6d6d6" stroke-width="0"/>
          <rect x="390.9" y="382.1" width="12.9" height="16.5" transform="translate(6.5 787.2) rotate(-89.9)" fill="#d6d6d6" stroke-width="0"/>
          <rect x="317.9" y="377.4" width="12.9" height="25.7" transform="translate(-66.3 714.1) rotate(-89.9)" fill="#d6d6d6" stroke-width="0"/>
          <rect x="408.5" y="385.4" width="12.9" height="10" transform="translate(24.1 804.8) rotate(-89.9)" fill="#d6d6d6" stroke-width="0"/>
          <rect x="289.8" y="380.8" width="12.9" height="18.9" transform="translate(-94.3 686) rotate(-89.9)" fill="#d6d6d6" stroke-width="0"/>
        </g>
        <g>
          <rect x="442.7" y="406.9" width="10.9" height="13.9" transform="translate(33.6 861.4) rotate(-89.9)" fill="#d6d6d6" stroke-width="0"/>
          <polygon points="411 408.4 407.4 408.4 381 408.3 381 419.2 407.4 419.3 411 419.3 436.8 419.3 436.8 408.4 411 408.4" fill="#d6d6d6" stroke-width="0"/>
          <rect x="466.6" y="400.2" width="10.9" height="27.3" transform="translate(57.5 885.4) rotate(-89.9)" fill="#d6d6d6" stroke-width="0"/>
          <rect x="362.7" y="405.8" width="10.9" height="15.9" transform="translate(-46.1 781.4) rotate(-89.9)" fill="#d6d6d6" stroke-width="0"/>
        </g>
        <g>
          <path d="m502.7,429.3v19.6s19.5,0,19.5,0v-19.6s-19.5,0-19.5,0Zm18.7,18.8h-17.9s0-18,0-18h17.9s0,18,0,18Z" fill="#e66464" stroke-width="0"/>
          <polygon points="511.9 437.2 505.3 437.1 505.3 434.8 511.7 434.8 511.7 431.5 505 431.5 505 432.1 511.1 432.1 511.1 434.2 504.7 434.2 504.7 437.8 511.9 437.8 511.9 437.2" fill="#e66464" stroke-width="0"/>
          <polygon points="510.9 439.6 510.9 445.7 508.8 445.7 508.8 439.3 505.3 439.3 505.3 446.5 505.9 446.5 505.9 439.9 508.2 439.9 508.2 446.3 511.5 446.3 511.5 439.6 510.9 439.6" fill="#e66464" stroke-width="0"/>
          <polygon points="519.7 443 513.3 443 513.3 446.4 520 446.4 520 445.8 513.9 445.8 513.9 443.6 520.3 443.7 520.4 440.1 513.1 440.1 513.1 440.7 519.7 440.7 519.7 443" fill="#e66464" stroke-width="0"/>
          <polygon points="514.1 438.3 514.1 432.1 516.2 432.1 516.2 438.6 519.7 438.6 519.7 431.3 519.1 431.3 519.1 438 516.8 438 516.8 431.5 513.5 431.5 513.5 438.3 514.1 438.3" fill="#e66464" stroke-width="0"/>
        </g>
        <g>
          <path d="m334,314h-6.8s0,4.3,0,4.3h-1.8s0-4.3,0-4.3h-6.8s0-1.7,0-1.7h15.4s0,1.7,0,1.7Zm-11-4.3c-1.2.5-2.5.9-3.9,1v-1.7c1.6-.1,3-.6,4.2-1.4,1.2-.8,1.9-1.8,2.2-3.1h-6s0-1.6,0-1.6h13.6s0,1.6,0,1.6h-5.7c-.1.6-.3,1.1-.5,1.6l6.7,3-.7,1.5-6.9-3.1c-.8.9-1.8,1.6-3,2.2Z" stroke-width="0"/>
          <path d="m336.6,302.9h9.2s0,8.4,0,8.4h-9.2s0-8.4,0-8.4Zm.6,9.9h1.8s0,3.4,0,3.4h11.7s0,1.6,0,1.6h-13.5s0-5,0-5Zm6.8-3.1v-5.2s-5.6,0-5.6,0v5.2s5.6,0,5.6,0Zm4.5-7.2h1.8s0,11.5,0,11.5h-1.8s0-11.5,0-11.5Z" stroke-width="0"/>
          <path d="m353.3,309.6h15.4s0,1.4,0,1.4h-15.4s0-1.4,0-1.4Zm2.8,7.8c-1.3-.5-1.9-1.2-1.9-2.2,0-1,.6-1.7,1.9-2.2s2.9-.7,4.9-.7,3.7.2,4.9.7c1.2.4,1.9,1.2,1.9,2.2,0,1-.6,1.7-1.9,2.2s-2.9.7-4.9.7c-2,0-3.7-.2-4.9-.7Zm-1.7-14.7h13.2s0,1.4,0,1.4h-11.4s0,2.4,0,2.4h11.6s0,1.4,0,1.4h-13.4s0-5.3,0-5.3Zm10.1,13.6c.9-.2,1.4-.6,1.4-1.1s-.5-.8-1.4-1.1c-.9-.2-2.1-.3-3.5-.3-1.4,0-2.6.1-3.5.3-.9.2-1.4.6-1.4,1.1,0,.5.5.9,1.4,1.1.9.2,2.1.3,3.5.3s2.6-.1,3.5-.3Z" stroke-width="0"/>
          <path d="m386.1,311.1v1.4s-15.4,0-15.4,0v-1.4s6.8,0,6.8,0v-1.5s-5.7,0-5.7,0v-4.1s11.4,0,11.4,0v-1.3s-11.4,0-11.4,0v-1.4s13.2,0,13.2,0v4s-11.4,0-11.4,0v1.4s11.6,0,11.6,0v1.4s-5.9,0-5.9,0v1.5s6.8,0,6.8,0Zm-14.5,2.8h13.4s0,4.2,0,4.2h-1.8s0-2.7,0-2.7h-11.6s0-1.4,0-1.4Z" stroke-width="0"/>
          <path d="m403.4,309.6v1.4s-15.4,0-15.4,0v-1.4s15.4,0,15.4,0Zm-8-3.1c-.8.6-1.7,1.1-2.9,1.4-1.2.3-2.4.5-3.7.5v-1.5c.9,0,1.9-.1,2.8-.4.9-.2,1.7-.5,2.3-1,.6-.4,1-.9,1.2-1.5h-6s0-1.4,0-1.4h13.3s0,1.4,0,1.4h-5.5c0,.4-.2.8-.4,1.1l6.3,1.8-.5,1.4-6.8-2Zm5.2,6.6c1.2.4,1.9,1.1,1.9,2.1s-.6,1.7-1.9,2.2c-1.2.4-2.9.7-4.9.7s-3.7-.2-4.9-.7c-1.2-.4-1.9-1.2-1.9-2.2,0-1,.6-1.7,1.9-2.1,1.2-.4,2.9-.7,4.9-.7,2,0,3.7.2,4.9.7Zm-1.4,3.2c.9-.2,1.4-.6,1.4-1.1s-.5-.8-1.4-1.1c-.9-.2-2.1-.3-3.5-.3-1.4,0-2.6.1-3.5.3-.9.2-1.4.6-1.4,1.1s.5.9,1.4,1.1c.9.2,2.1.3,3.5.3,1.4,0,2.6-.1,3.5-.3Z" stroke-width="0"/>
        </g>
        <g>
          <rect x="413.5" y="437.2" width="22.1" height="11.8" fill="#d6d6d6" stroke-width="0"/>
          <rect x="443" y="437.2" width="22.1" height="11.8" fill="#d6d6d6" stroke-width="0"/>
          <rect x="472.9" y="437.2" width="22.1" height="11.8" fill="#d6d6d6" stroke-width="0"/>
        </g>
      </g>
      <polygon points="173.9 355.7 156.1 338.6 180.1 338.1 179.8 322.5 152.9 323 171.8 303.3 160.5 292.5 143 310.6 142.6 285.9 127 286.2 127.4 310.9 108.9 293.1 98.1 304.4 118.1 323.6 89.7 324.2 89.9 339.8 115.4 339.3 98 357.4 109.2 368.3 128.1 348.7 128.6 376.3 144.3 376 143.8 348.4 163 366.9 173.9 355.7" fill="#adcf00" stroke-width="0"/>
      <g>
        <path d="m212.7,187.2c-3.4,18.2-15.6,39.3-43.6,39.3s-48.3-23.7-48.3-55.8,19.4-55.3,45.4-55.3,26.5,9.2,32,19.5l5.4-16.6h7v35.7h-7.2c-6.9-10.3-19.6-13.6-33.8-13.6-23.2,0-41.7,8.9-41.7,30.2s18.2,31,41.3,31,32.3-6.5,36.7-14.3h6.7Z" fill="#557b00" stroke-width="0"/>
        <path d="m221.2,186.9c0-23.2,13.9-39.3,34.6-39.3s34.4,16.1,34.4,39.3-13.8,39.6-34.4,39.6-34.6-16.3-34.6-39.6Zm34.6,16.8c17.3,0,28.7-5,28.7-16.9s-11.9-17.1-28.7-17.1-28.7,4.9-28.7,17.1,11.3,16.9,28.7,16.9Z" fill="#557b00" stroke-width="0"/>
        <path d="m364.3,178h-6.3c-.6-6.3-7.6-8.6-13.8-8.6-10.8,0-18.8,6.9-18.8,18.5v2.3c0,8.3,2.4,15.8,21.4,15.8v18.4h-43.3v-18.4c13.5,0,16.2-7.5,16.2-15.8v-4.9c0-11.5-6.5-17.1-21.1-17.1v-17.8l23.5-2.9,3.2,23.9h.4c3.7-12.6,8.3-23.9,21.2-23.9s17.3,14,17.3,30.4Z" fill="#557b00" stroke-width="0"/>
        <path d="m437.7,200.3c-2.7,13.5-11.5,26.2-30.5,26.2s-35-16.6-35-39.9,12-39,33.4-39,31.3,18.1,31.3,38.3l-1.4,1.4h-57.8c0,13.8,13,18.9,30.4,18.9s20.1-1.9,23.2-6h6.5Zm-59.2-18.8h51.8c-1.7-7.2-8.7-13.3-24.9-13.3s-23.8,4.2-26.8,13.3Z" fill="#557b00" stroke-width="0"/>
        <path d="m524.3,201.3c0,14-3.2,25.2-12.9,25.2s-10.6-9.3-10.6-19.6h-.9c-3.2,8.9-11.5,19.6-28.8,19.6s-24.1-8.2-24.1-20.2,9.3-17.8,25.1-19.5c8.2-1.9,18.4-2.1,28.7-1.3-.7-11-9.2-15.6-22.7-15.6s-18.6,2-21.4,9h-5.9c.9-17.9,11.5-31.3,29.7-31.3s26.1,12.9,26.1,32.7-.7,15.1-.7,18.6c0,6.2,2,8.9,6,8.9s6.5-2.9,6.5-6.6h5.9Zm-23.5-10.6c-9.6-.9-19.6-.7-28.8,1-6.7,1.3-12.5,3.4-12.5,7.7s7.2,6.6,15.1,6.6c13.5,0,25.2-5,26.2-15.3Z" fill="#557b00" stroke-width="0"/>
      </g>
      <rect x="387.4" y="234.5" width="557.2" height="251" transform="translate(1026 -306) rotate(90)" fill="#74ae02" stroke-width="0"/>
      <g>
        <polyline points="662.9 192.2 665.6 340.7 672.4 339.8 665.5 192.3" fill="#43801e" stroke-width="0"/>
        <g>
          <path d="m682.8,346.5c.3,7.7-5.8,14.2-13.5,14.5-7.7.3-14.2-5.8-14.5-13.5-.3-7.7,5.9-10.2,13.7-10.5s14.1,1.8,14.3,9.6Z" fill="#fac25c" stroke-width="0"/>
          <path d="m698.4,381.2c-.7-20.9-9.4-37.5-30.3-36.8-20.9.7-25.3,21.7-24.6,42.6,0,0,6,82.6,7,98.7s1.7,36.3-26.2,39.2c-28.1,2.9-39.9-25.6-39.9-25.6-.3,0-.7.2-1,.3,9.1,29.4,40.2,46.3,70.4,37.8,24.2-6.8,40.5-28,42-51.5,0,0,2.7-103,2.6-104.7Z" fill="#fac25c" stroke-width="0"/>
          <path d="m626.1,511.1c-7.2.2-14-2.4-19.3-7.3-5.3-4.9-8.3-11.6-8.5-18.9h1.8c.2,6.7,3.1,13,8,17.6,4.9,4.6,11.3,7,18,6.8h0c6.8-.2,13-3.1,17.6-8,4.6-4.9,7-11.4,6.8-18.1h1.8c.2,7.2-2.4,14-7.3,19.3-4.9,5.3-11.6,8.3-18.9,8.5,0,0,0,0,0,0Z" fill="#fac25c" stroke-width="0"/>
          <path d="m635.1,551.3c-11.2.3-19-2.2-19.6-2.5l1.1-3.3c.3,0,27,8.8,52.4-9.2,26-18.4,21.8-51.7,21.8-52l3.5-.5c0,.4,4.6,35.7-23.2,55.3-12.8,9.1-25.8,11.8-36,12.1Z" fill="#fac25c" stroke-width="0"/>
        </g>
        <path d="m670.9,163.3l-4.8,17,6-35.6-1.5-.4-6,38.4-3.4-32-2.2.2,3.3,30.8-11.5-36.4-1.6,1.4,13.4,39.4-18.3-27.8-1.8,1.2,22.3,35.5,8.2-31.2-2.1-.6Zm-6.1,21.3h0c0,0,0,.2,0,.2v-.2Z" fill="#507f39" stroke-width="0"/>
        <circle cx="661.8" cy="136.4" r="9.9" transform="translate(164.2 593.5) rotate(-54.2)" fill="#bf1414" stroke-width="0"/>
        <circle cx="647.4" cy="139.8" r="9.9" transform="translate(155.5 583.2) rotate(-54.2)" fill="#bf1414" stroke-width="0"/>
        <circle cx="673.6" cy="139" r="9.9" transform="translate(167 604.1) rotate(-54.2)" fill="#bf1414" stroke-width="0"/>
        <circle cx="639.8" cy="153.4" r="9.9" transform="translate(141.3 582.7) rotate(-54.2)" fill="#e32020" stroke-width="0"/>
        <circle cx="673" cy="165.3" r="9.9" transform="translate(145.4 614.6) rotate(-54.2)" fill="#e32020" stroke-width="0"/>
        <circle cx="653" cy="168.1" r="9.9" transform="translate(134.8 599.6) rotate(-54.2)" fill="#e32020" stroke-width="0"/>
        <circle cx="661.1" cy="147.1" r="9.9" transform="translate(155.2 597.4) rotate(-54.2)" fill="#e32020" stroke-width="0"/>
        <circle cx="682.8" cy="153.1" r="9.9" transform="translate(159.3 617.5) rotate(-54.2)" fill="#e32020" stroke-width="0"/>
        <path d="m667.7,306.5s21.2-23,31.6-34.2c.7.5.7,1.3.7,1.3,0,0-19.4,21.4-31.5,36.3l-.8-3.3Z" fill="#43801e" stroke-width="0"/>
        <g>
          <path d="m756.4,221.9c-3.5.3-31,3-44.2,15.5-14.1,13.4-14.7,37.3-14.7,37.3,0,0,.5,0,1.4-.2,11.5-16.8,30.2-38.1,57.5-52.6Z" fill="#4d9417" stroke-width="0"/>
          <path d="m698.9,274.5c5.7-.9,28-5.2,38.7-16.4,12.3-12.9,19.1-36.3,19.1-36.3,0,0-.1,0-.4,0-27.3,14.5-46,35.8-57.5,52.6Z" fill="#43801e" stroke-width="0"/>
        </g>
        <path d="m669.2,323l-34-48.2-1,1.5s20.8,30.1,33.5,50.8l1.6-4.1Z" fill="#43801e" stroke-width="0"/>
        <g>
          <path d="m592.8,231.1c4.1.9,36.3,8.4,50,25.4,14.7,18.1,11.6,46.6,11.6,46.6,0,0-.6-.2-1.6-.5-11-21.8-29.8-50-60-71.5Z" fill="#4d9417" stroke-width="0"/>
          <path d="m652.8,302.7c-6.7-2-32.5-10.5-43.4-25.5-12.6-17.3-17-46.1-17-46.1,0,0,.2,0,.5,0,30.2,21.5,49,49.8,60,71.5Z" fill="#43801e" stroke-width="0"/>
        </g>
        <g>
          <polygon points="683.8 278.8 692.4 280.1 691.1 281.7 683.6 279.6 683.8 278.8" fill="#507f39" stroke-width="0"/>
          <g>
            <path d="m658.7,272.8c.8,1,7.3,8.7,13.8,10,6.9,1.5,14.2-3.3,14.2-3.3,0,0-.1-.1-.3-.4-7.4,0-17.7-1.2-27.7-6.4Z" fill="#43801e" stroke-width="0"/>
            <path d="m686.4,279.1c-1.5-1.5-7.3-7.3-12.9-8.2-6.4-1-14.8,1.8-14.8,1.8,0,0,0,0,0,.1,10,5.2,20.3,6.4,27.7,6.4Z" fill="#43801e" stroke-width="0"/>
          </g>
        </g>
        <g>
          <polygon points="693.2 288.7 692.7 279.9 691 281.1 692.4 287.9 693.2 288.7" fill="#507f39" stroke-width="0"/>
          <g>
            <path d="m697.1,314.2c-.9-.9-8-8-8.8-14.6-.9-7,4.5-13.9,4.5-13.9,0,0,.1.1.3.4-.7,7.4-.4,17.7,4,28.1Z" fill="#43801e" stroke-width="0"/>
            <path d="m693.1,286c1.4,1.6,6.7,8,7.1,13.6.5,6.5-3,14.6-3,14.6,0,0,0,0-.1,0-4.3-10.4-4.6-20.7-4-28.1Z" fill="#43801e" stroke-width="0"/>
          </g>
        </g>
        <g>
          <g>
            <path d="m681.1,230c-.7,1.9-6.1,16.6-3,26.4,3.3,10.5,15.4,16.8,15.4,16.8,0,0,0-.3.2-.8-5.7-10-12-24.8-12.6-42.4Z" fill="#43801e" stroke-width="0"/>
            <path d="m693.8,272.4c.9-3.2,4.3-15.6,1.2-23.8-3.6-9.5-13.8-18.8-13.8-18.8,0,0,0,0,0,.2.6,17.6,6.9,32.4,12.6,42.4Z" fill="#43801e" stroke-width="0"/>
          </g>
          <polygon points="693.3 271.5 695.1 277.3 693.5 278.5 692.6 271.6 693.3 271.5" fill="#507f39" stroke-width="0"/>
        </g>
        <g>
          <g>
            <path d="m742.3,286.1c-1.8,1-15.5,8.5-25.7,6.9-10.9-1.7-18.9-12.8-18.9-12.8,0,0,.3-.1.7-.3,10.8,4.2,26.4,8.2,43.8,6.2Z" fill="#43801e" stroke-width="0"/>
            <path d="m698.5,279.9c3-1.4,14.8-6.6,23.4-4.8,9.9,2.1,20.6,10.9,20.6,10.9,0,0,0,0-.2.1-17.5,2-33-2-43.8-6.2Z" fill="#43801e" stroke-width="0"/>
          </g>
          <polygon points="699.4 280.2 693.5 279.3 692.5 281 699.5 280.9 699.4 280.2" fill="#507f39" stroke-width="0"/>
        </g>
        <circle cx="659.5" cy="368.3" r="3" fill="#db9a1c" stroke-width="0"/>
        <circle cx="652.5" cy="381.2" r="3" fill="#db9a1c" stroke-width="0"/>
        <circle cx="665.9" cy="380.8" r="3" fill="#db9a1c" stroke-width="0"/>
      </g>
    </g>
    <g>
      <polygon points="61.1 664.9 784.1 663.9 784.1 45.8 61.1 46.8 61.1 664.9" fill="none" stroke-width="0"/>
      <path d="m845,37.3c0-20.5-14.3-37.3-31.9-37.3h-341.8c-6.8,23.8-26,40.9-48.7,40.9s-41.9-17.2-48.7-40.9H31.9C14.4,0,0,16.8,0,37.3v32.2h845v-32.2Z" fill="#fff" stroke-width="0"/>
      <path d="m0,60.5v770.9c0,20.1,14.1,36.6,31.3,36.6h15.7c0-6,4.2-10.9,9.3-10.9s9.3,4.9,9.3,10.9h11.9c0-6,4.2-10.9,9.3-10.9s9.3,4.9,9.3,10.9h11.9c0-6,4.2-10.9,9.3-10.9s9.3,4.9,9.3,10.9h11.9c0-6,4.2-10.9,9.3-10.9s9.3,4.9,9.3,10.9h11.9c0-6,4.2-10.9,9.3-10.9s9.3,4.9,9.3,10.9h11.9c0-6,4.2-10.9,9.3-10.9s9.3,4.9,9.3,10.9h11.9c0-6,4.2-10.9,9.3-10.9s9.3,4.9,9.3,10.9h11.9c0-6,4.2-10.9,9.3-10.9s9.3,4.9,9.3,10.9h11.9c0-6,4.2-10.9,9.3-10.9s9.3,4.9,9.3,10.9h11.9c0-6,4.2-10.9,9.3-10.9s9.3,4.9,9.3,10.9h11.9c0-6,4.2-10.9,9.3-10.9s9.3,4.9,9.3,10.9h11.9c0-6,4.2-10.9,9.3-10.9s9.3,4.9,9.3,10.9h11.9c0-6,4.2-10.9,9.3-10.9s9.3,4.9,9.3,10.9h11.9c0-6,4.2-10.9,9.3-10.9s9.3,4.9,9.3,10.9h11.9c0-6,4.2-10.9,9.3-10.9s9.3,4.9,9.3,10.9h11.9c0-6,4.2-10.9,9.3-10.9s9.3,4.9,9.3,10.9h11.9c0-6,4.2-10.9,9.3-10.9s9.3,4.9,9.3,10.9h11.9c0-6,4.2-10.9,9.3-10.9s9.3,4.9,9.3,10.9h11.9c0-6,4.2-10.9,9.3-10.9s9.3,4.9,9.3,10.9h11.9c0-6,4.2-10.9,9.3-10.9s9.3,4.9,9.3,10.9h11.9c0-6,4.2-10.9,9.3-10.9s9.3,4.9,9.3,10.9h11.9c0-6,4.2-10.9,9.3-10.9s9.3,4.9,9.3,10.9h11.9c0-6,4.2-10.9,9.3-10.9s9.3,4.9,9.3,10.9h11.9c0-6,4.2-10.9,9.3-10.9s9.3,4.9,9.3,10.9h11.9c0-6,4.2-10.9,9.3-10.9s9.3,4.9,9.3,10.9h15.1c17.2,0,31.3-16.5,31.3-36.6v-240h0V60.5H0Zm784.1,507.2l-723-1,.7-484.9,722.7-.3-.4,486.2Z" fill="#fff" stroke-width="0"/>
    </g>
    <g>
      <g>
        <rect x="61.5" y="625" width="56" height="16.4" transform="translate(-5.7 .8) rotate(-.5)" fill="#699b00" stroke-width="0"/>
      </g>
    </g>
    <g>
      <g>
        <polygon points="845 388.1 804.7 418.5 804.7 445.6 845 415.2 845 388.1" fill="#adcf00" stroke-width="0"/>
        <polygon points="845 225.3 804.7 255.7 804.7 282.8 845 252.4 845 225.3" fill="#adcf00" stroke-width="0"/>
        <polygon points="845 279.6 804.7 310 804.7 337.1 845 306.6 845 279.6" fill="#adcf00" stroke-width="0"/>
        <polygon points="845 333.8 804.7 364.3 804.7 391.3 845 360.9 845 333.8" fill="#adcf00" stroke-width="0"/>
      </g>
      <g>
        <polygon points="845 62.8 804.7 93.3 804.7 120.3 845 89.9 845 62.8" fill="#adcf00" stroke-width="0"/>
        <polygon points="845 117.1 804.7 147.5 804.7 174.6 845 144.2 845 117.1" fill="#adcf00" stroke-width="0"/>
        <polygon points="804.7 228.9 845 198.4 845 171.3 804.7 201.8 804.7 228.9" fill="#adcf00" stroke-width="0"/>
      </g>
    </g>
  </g>
</svg>