<svg id="ico_camera" xmlns="http://www.w3.org/2000/svg" xmlns:xlink="http://www.w3.org/1999/xlink" width="177.192" height="143.842" viewBox="0 0 177.192 143.842">
  <defs>
    <clipPath id="clip-path">
      <rect id="사각형_5070" data-name="사각형 5070" width="177.192" height="143.842" fill="none"/>
    </clipPath>
  </defs>
  <g id="그룹_6730" data-name="그룹 6730" clip-path="url(#clip-path)">
    <path id="패스_16073" data-name="패스 16073" d="M164.277,143.841H12.915A12.929,12.929,0,0,1,0,130.927V37.457A12.93,12.93,0,0,1,12.915,24.542H48.658l3.2-14.324A12.975,12.975,0,0,1,64.49,0h48.279A12.969,12.969,0,0,1,125.4,10.23l3.331,14.312h35.544a12.93,12.93,0,0,1,12.915,12.915v93.47a12.929,12.929,0,0,1-12.915,12.914M12.915,32.291a5.171,5.171,0,0,0-5.166,5.166v93.47a5.172,5.172,0,0,0,5.166,5.166H164.277a5.173,5.173,0,0,0,5.166-5.166V37.457a5.172,5.172,0,0,0-5.166-5.166h-41.7L117.826,11.86a5.186,5.186,0,0,0-5.057-4.112H64.49a5.189,5.189,0,0,0-5.054,4.1l-.01.044-4.56,20.4Z"/>
    <path id="패스_16074" data-name="패스 16074" d="M88.6,120.652a36.46,36.46,0,1,1,36.46-36.46,36.5,36.5,0,0,1-36.46,36.46m0-64.37a27.91,27.91,0,1,0,27.91,27.91A27.941,27.941,0,0,0,88.6,56.282"/>
    <path id="패스_16075" data-name="패스 16075" d="M153.8,50.3H141.585a3.4,3.4,0,0,1-3.391-3.391v-.737a3.4,3.4,0,0,1,3.391-3.39H153.8a3.4,3.4,0,0,1,3.391,3.39v.737A3.4,3.4,0,0,1,153.8,50.3"/>
  </g>
</svg>
