<svg id="버튼_연지" xmlns="http://www.w3.org/2000/svg" xmlns:xlink="http://www.w3.org/1999/xlink" width="274.98" height="239.707" viewBox="0 0 274.98 239.707">
  <defs>
    <clipPath id="clip-path">
      <rect id="사각형_5079" data-name="사각형 5079" width="274.98" height="239.707" fill="none"/>
    </clipPath>
  </defs>
  <g id="그룹_6740" data-name="그룹 6740" clip-path="url(#clip-path)">
    <path id="패스_16334" data-name="패스 16334" d="M0,204.385l1.225-51.953s102.494-9.767,117.553-17.634c20.3-10.608,29.623-24.089,37.845-35.982a130.27,130.27,0,0,1,9.215-12.3c11.3-12.778,27.2-27.443,50.023-27.421h0c7.169.007,14.724,1.392,23.776,4.36,20.651,6.77,28.611,24.123,28.293,42.6l6.534-.744-.05,51.955-.084.046c-.2,13.076-6.7,29.564-28.782,47.313a122.41,122.41,0,0,1-77.5,26.9,125.737,125.737,0,0,1-19.323-1.486,24.921,24.921,0,0,0-3.831-.3,25.65,25.65,0,0,0-5.361.568c-16.533,3.525-48.507,9.436-76.878,9.408-3.189,0-6.3-.082-9.234-.236-22.9-1.2-38.316-6.813-47.119-17.172A25.4,25.4,0,0,1,.068,204.378Z" fill="#6f9383"/>
    <path id="패스_16335" data-name="패스 16335" d="M216.747,9.336c-22.726-.022-38.556,14.3-49.809,26.783a127.715,127.715,0,0,0-9.175,12.017c-8.186,11.617-17.464,24.785-37.682,35.146-22.714,11.641-44.479,19.2-61.968,25.28C44.8,113.189,33.3,117.185,24.358,121.876c-11.737,6.16-19.97,15.723-22.022,25.58a24.368,24.368,0,0,0,5.755,21.3c8.767,10.118,24.113,15.6,46.918,16.774,2.926.15,6.019.228,9.2.231,28.249.027,60.086-5.745,76.548-9.189a26.027,26.027,0,0,1,5.338-.554,25.194,25.194,0,0,1,3.814.294,127.517,127.517,0,0,0,19.241,1.451c19.977.019,49.581-4.523,77.166-26.271C289.953,117.08,272.495,87.5,266.1,79.259a4.612,4.612,0,0,1-.946-4.224c7.936-24.07,3.366-52.4-24.736-61.44-9.013-2.9-16.536-4.252-23.674-4.259Z" fill="#d5efd6"/>
    <path id="패스_16336" data-name="패스 16336" d="M213.751,0c-22.065-.021-37.436,14.644-48.362,27.422a130.272,130.272,0,0,0-8.909,12.3c-7.949,11.894-16.958,25.375-36.589,35.983C97.837,87.626,76.7,95.37,59.723,101.592,46.8,106.329,35.63,110.42,26.949,115.224c-11.4,6.307-19.39,16.1-21.383,26.188a25.9,25.9,0,0,0,5.587,21.8c8.51,10.358,23.411,15.975,45.553,17.171,2.84.153,5.844.232,8.927.235,27.428.027,58.34-5.885,74.324-9.411a24.009,24.009,0,0,1,5.182-.567,23.31,23.31,0,0,1,3.7.3,117.466,117.466,0,0,0,18.68,1.485,115.786,115.786,0,0,0,74.925-26.9c42.375-35.227,25.426-65.5,19.22-73.946a4.911,4.911,0,0,1-.918-4.323c7.707-24.642,3.271-53.648-24.014-62.9C227.987,1.392,220.684.007,213.753,0Z" fill="#a3c9a5"/>
    <path id="패스_16337" data-name="패스 16337" d="M177.831,24.509C167.236,36.9,157.846,61.266,125.7,78.636c-41.079,22.2-77.654,30.546-96.772,41.127-10.488,5.8-19.076,17.107-11.732,26.045,6.475,7.88,19.966,11.046,35.492,11.884,29.014,1.567,65.876-5.585,82.234-9.194a41.6,41.6,0,0,1,15.658-.457c15.04,2.446,51.193,4.518,84.128-22.862,31.036-25.8,24.757-45.458,17.337-55.551A20.7,20.7,0,0,1,248.724,51.1c4.131-13.207,6.466-38.573-14.663-45.737S198.685.119,177.831,24.509" fill="#a3c9a5"/>
    <path id="패스_16338" data-name="패스 16338" d="M61.711,155.879c-7.076,0-13.567-.707-18.961-2.446-10.788-3.688-12.237-10.42-12.143-14.1.209-8.115,7.856-16.37,17.787-19.2,19.425-5.542,71.386-26.628,97.326-45.5,12.227-9.134,18.217-17.705,24.01-25.994a138.969,138.969,0,0,1,9.055-12l.67-.748C193.873,18.03,215.165,13.347,231.2,24.53c12.775,8.815,10.149,25.111,8.231,37.011-.614,4.929.786,10.419,4.284,16.744,2.732,3.988,3.61,9.27,2.491,15.193-2,10.582-10.567,23.105-20.371,29.775-14.125,11.519-34.807,19.174-52.621,19.451a108.886,108.886,0,0,1-13.191-.417c-7.17-.523-13.939-1.015-21.455.791-4.039.752-9.148,1.913-15.065,3.257-17.679,4.016-42.015,9.544-61.788,9.544M180.29,37.945a137.617,137.617,0,0,0-8.92,11.825c-5.884,8.419-11.968,17.124-24.463,26.458-26.136,19.021-78.423,40.243-97.965,45.82-9.125,2.6-16.148,10.054-16.336,17.332-.138,5.416,3.687,9.732,10.774,12.155,19.927,6.42,55.885-1.745,79.677-7.151,5.936-1.348,11.064-2.513,15.091-3.262,7.768-1.867,15.013-1.34,22.016-.83a106.814,106.814,0,0,0,12.983.413c17.424-.271,37.622-7.75,51.49-19.055,9.474-6.451,17.688-18.434,19.6-28.543,1.034-5.467.285-10.1-2.225-13.773-3.76-6.789-5.237-12.676-4.564-18.077,1.941-12.041,4.349-26.983-7.391-35.083-15.135-10.56-35.317-6.035-49.079,11Z" fill="#808e81"/>
    <path id="패스_16339" data-name="패스 16339" d="M211.106,52.768c-.031,1.04.16,2.3,1.194,2.386a2.279,2.279,0,0,0,1.962-1.453,4.693,4.693,0,0,0,.22-2.351,56.485,56.485,0,0,0-2.187-6.2s-1.153,6.431-1.189,7.623" fill="#ceedd0"/>
    <path id="패스_16340" data-name="패스 16340" d="M206.057,52.132c-.568,1-1.084,2.331-.349,2.932.555.454,1.576.16,2.24-.436a6.2,6.2,0,0,0,1.4-2.189c.465-1.047,1.6-7.167,1.6-7.167s-4.235,5.712-4.886,6.86" fill="#ceedd0"/>
    <path id="패스_16341" data-name="패스 16341" d="M202.583,48.977c-.953.695-2.037,1.736-1.8,2.693.181.722,1.1.948,1.917.7a6.443,6.443,0,0,0,2.2-1.44c.9-.792,4.956-6.209,4.956-6.209s-6.182,3.463-7.274,4.259" fill="#ceedd0"/>
    <path id="패스_16342" data-name="패스 16342" d="M201.615,44.148c-1.082.2-2.444.676-2.765,1.733a1.319,1.319,0,0,0,1.081,1.642,5.1,5.1,0,0,0,2.411-.305c1.092-.323,6.986-3.586,6.986-3.586s-6.473.285-7.713.516" fill="#ceedd0"/>
    <path id="패스_16343" data-name="패스 16343" d="M203.413,38.939c-.921-.346-2.2-.565-2.991.308a1.633,1.633,0,0,0-.045,2.149,3.7,3.7,0,0,0,1.977.91c.993.232,7.144,0,7.144,0s-5.029-2.969-6.085-3.365" fill="#ceedd0"/>
    <path id="패스_16344" data-name="패스 16344" d="M207.495,34.747c-.514-.8-1.361-1.655-2.416-1.2a2.134,2.134,0,0,0-1.159,2.08,3.53,3.53,0,0,0,1.014,1.883,53.906,53.906,0,0,0,5.388,3.58s-2.238-5.426-2.827-6.343" fill="#ceedd0"/>
    <path id="패스_16345" data-name="패스 16345" d="M212.766,32.693c.031-1.04-.16-2.3-1.194-2.386a2.279,2.279,0,0,0-1.962,1.453,4.693,4.693,0,0,0-.22,2.351,56.489,56.489,0,0,0,2.187,6.205s1.153-6.431,1.189-7.623" fill="#ceedd0"/>
    <path id="패스_16346" data-name="패스 16346" d="M217.816,33.329c.567-1,1.084-2.331.349-2.932-.555-.454-1.576-.16-2.241.436a6.215,6.215,0,0,0-1.395,2.189c-.465,1.047-1.6,7.167-1.6,7.167s4.235-5.712,4.886-6.86" fill="#ceedd0"/>
    <path id="패스_16347" data-name="패스 16347" d="M221.289,36.484c.953-.695,2.037-1.736,1.8-2.693-.181-.722-1.105-.948-1.917-.7a6.443,6.443,0,0,0-2.2,1.44c-.9.792-4.956,6.209-4.956,6.209s6.182-3.463,7.274-4.259" fill="#ceedd0"/>
    <path id="패스_16348" data-name="패스 16348" d="M222.257,41.313c1.082-.2,2.444-.676,2.765-1.733a1.319,1.319,0,0,0-1.081-1.642,5.1,5.1,0,0,0-2.411.305c-1.092.323-6.986,3.586-6.986,3.586s6.473-.285,7.713-.516" fill="#ceedd0"/>
    <path id="패스_16349" data-name="패스 16349" d="M220.459,46.522c.921.346,2.2.565,2.991-.308a1.633,1.633,0,0,0,.045-2.149,3.7,3.7,0,0,0-1.977-.91c-.993-.232-7.144,0-7.144,0s5.029,2.969,6.085,3.365" fill="#ceedd0"/>
    <path id="패스_16350" data-name="패스 16350" d="M216.378,50.715c.514.8,1.361,1.654,2.416,1.2a2.134,2.134,0,0,0,1.159-2.08,3.53,3.53,0,0,0-1.014-1.883,53.941,53.941,0,0,0-5.388-3.581s2.238,5.427,2.827,6.344" fill="#ceedd0"/>
    <path id="패스_16351" data-name="패스 16351" d="M85.636,130.009c-.6.865-1.123,2.031-.293,2.637a2.336,2.336,0,0,0,2.456-.217,4.838,4.838,0,0,0,1.472-1.877,56.223,56.223,0,0,0,1.542-6.387s-4.494,4.854-5.177,5.844" fill="#ceedd0"/>
    <path id="패스_16352" data-name="패스 16352" d="M81.707,126.864c-1.029.555-2.192,1.415-1.9,2.3.222.671,1.248.949,2.136.786a6.5,6.5,0,0,0,2.38-1.132c.967-.648,5.273-5.246,5.273-5.246s-6.71,2.652-7.89,3.288" fill="#ceedd0"/>
    <path id="패스_16353" data-name="패스 16353" d="M80.489,122.4c-1.187.1-2.675.419-3,1.353-.241.705.418,1.373,1.244,1.58a6.591,6.591,0,0,0,2.649-.085c1.195-.206,7.594-2.7,7.594-2.7s-7.13-.26-8.491-.149" fill="#ceedd0"/>
    <path id="패스_16354" data-name="패스 16354" d="M82.31,117.807c-1.027-.388-2.44-.689-3.29.04a1.294,1.294,0,0,0,.018,1.95,5.033,5.033,0,0,0,2.209.986c1.1.29,7.879.569,7.879.569s-5.639-3.1-6.816-3.545" fill="#ceedd0"/>
    <path id="패스_16355" data-name="패스 16355" d="M86.681,114.323a2.655,2.655,0,0,0-2.7-1.284,1.67,1.67,0,0,0-1.214,1.8,3.547,3.547,0,0,0,1.178,1.793c.714.708,6.053,3.686,6.053,3.686s-2.637-5.111-3.315-5.992" fill="#ceedd0"/>
    <path id="패스_16356" data-name="패스 16356" d="M92.432,112.879c0-.943-.248-2.1-1.391-2.264a2.218,2.218,0,0,0-2.118,1.163,3.457,3.457,0,0,0-.171,2.119,51.511,51.511,0,0,0,2.606,5.815s1.071-5.752,1.074-6.833" fill="#ceedd0"/>
    <path id="패스_16357" data-name="패스 16357" d="M98.02,113.861c.6-.865,1.123-2.031.293-2.637a2.338,2.338,0,0,0-2.456.217,4.838,4.838,0,0,0-1.472,1.877,56.184,56.184,0,0,0-1.541,6.387s4.493-4.853,5.176-5.844" fill="#ceedd0"/>
    <path id="패스_16358" data-name="패스 16358" d="M101.95,117.007c1.029-.555,2.192-1.415,1.9-2.3-.222-.671-1.248-.949-2.136-.786a6.5,6.5,0,0,0-2.38,1.132c-.967.648-5.273,5.246-5.273,5.246s6.71-2.652,7.89-3.288" fill="#ceedd0"/>
    <path id="패스_16359" data-name="패스 16359" d="M103.168,121.474c1.187-.1,2.675-.419,3-1.353.242-.705-.418-1.373-1.244-1.58a6.591,6.591,0,0,0-2.649.085c-1.2.206-7.594,2.7-7.594,2.7s7.13.26,8.491.149" fill="#ceedd0"/>
    <path id="패스_16360" data-name="패스 16360" d="M101.347,126.064c1.027.388,2.44.689,3.29-.04a1.294,1.294,0,0,0-.018-1.95,5.034,5.034,0,0,0-2.209-.986c-1.1-.29-7.879-.569-7.879-.569s5.639,3.1,6.816,3.545" fill="#ceedd0"/>
    <path id="패스_16361" data-name="패스 16361" d="M96.976,129.548a2.655,2.655,0,0,0,2.7,1.284,1.67,1.67,0,0,0,1.214-1.8,3.547,3.547,0,0,0-1.178-1.793c-.714-.708-6.053-3.686-6.053-3.686s2.637,5.111,3.315,5.992" fill="#ceedd0"/>
    <path id="패스_16362" data-name="패스 16362" d="M91.225,130.992c0,.943.248,2.1,1.391,2.264a2.218,2.218,0,0,0,2.118-1.163,3.457,3.457,0,0,0,.171-2.119,51.511,51.511,0,0,0-2.606-5.815s-1.071,5.752-1.074,6.833" fill="#ceedd0"/>
    <path id="패스_16363" data-name="패스 16363" d="M171.068,101.448c-1.066.984-2.134,2.391-1.212,3.446a3.208,3.208,0,0,0,3.357.429,6.762,6.762,0,0,0,2.555-2.082c.927-1.084,4.047-8.1,4.047-8.1s-7.525,5.18-8.747,6.307" fill="#ceedd0"/>
    <path id="패스_16364" data-name="패스 16364" d="M166.783,96.082c-1.551.442-3.375,1.251-3.259,2.528.089.963,1.376,1.638,2.616,1.68a9.012,9.012,0,0,0,3.539-.819c1.5-.583,8.692-5.477,8.692-5.477s-9.811,1.582-11.588,2.088" fill="#ceedd0"/>
    <path id="패스_16365" data-name="패스 16365" d="M166.54,89.744c-1.62-.219-3.712-.224-4.432.934-.543.872.133,1.96,1.174,2.479a9.039,9.039,0,0,0,3.575.665c1.663.074,11.008-1.388,11.008-1.388S168.4,90,166.54,89.744" fill="#ceedd0"/>
    <path id="패스_16366" data-name="패스 16366" d="M170.4,84.131c-1.255-.821-3.054-1.639-4.418-.911a1.779,1.779,0,0,0-.582,2.615,6.8,6.8,0,0,0,2.652,1.969c1.386.712,10.375,3.075,10.375,3.075s-6.589-5.807-8.027-6.748" fill="#ceedd0"/>
    <path id="패스_16367" data-name="패스 16367" d="M177.341,80.748c-.554-1.2-1.578-2.615-3.22-2.512a2.327,2.327,0,0,0-2.183,2.05,4.789,4.789,0,0,0,1.02,2.746c.736,1.159,6.961,6.713,6.961,6.713s-1.944-7.619-2.578-9" fill="#ceedd0"/>
    <path id="패스_16368" data-name="패스 16368" d="M185.49,80.5c.3-1.262.321-2.89-1.16-3.44a3.084,3.084,0,0,0-3.2.936,4.772,4.772,0,0,0-.886,2.788c-.111,1.294,1.683,8.552,1.683,8.552s3.222-7.389,3.561-8.836" fill="#ceedd0"/>
    <path id="패스_16369" data-name="패스 16369" d="M192.669,83.456c1.066-.984,2.134-2.391,1.213-3.446a3.21,3.21,0,0,0-3.358-.429,6.762,6.762,0,0,0-2.555,2.082c-.927,1.084-4.046,8.1-4.046,8.1s7.524-5.18,8.746-6.307" fill="#ceedd0"/>
    <path id="패스_16370" data-name="패스 16370" d="M196.955,88.822c1.551-.442,3.375-1.251,3.259-2.528-.089-.963-1.376-1.638-2.616-1.68a9.012,9.012,0,0,0-3.539.819c-1.5.583-8.692,5.477-8.692,5.477s9.811-1.582,11.588-2.088" fill="#ceedd0"/>
    <path id="패스_16371" data-name="패스 16371" d="M197.2,95.161c1.62.219,3.712.224,4.432-.934.543-.872-.133-1.96-1.174-2.479a9.039,9.039,0,0,0-3.575-.665c-1.663-.074-11.008,1.388-11.008,1.388s9.469,2.439,11.325,2.69" fill="#ceedd0"/>
    <path id="패스_16372" data-name="패스 16372" d="M193.333,100.773c1.255.821,3.054,1.64,4.418.911a1.778,1.778,0,0,0,.582-2.614,6.791,6.791,0,0,0-2.652-1.97c-1.386-.711-10.375-3.075-10.375-3.075s6.589,5.808,8.027,6.748" fill="#ceedd0"/>
    <path id="패스_16373" data-name="패스 16373" d="M186.4,104.157c.554,1.2,1.578,2.615,3.22,2.512a2.327,2.327,0,0,0,2.183-2.05,4.789,4.789,0,0,0-1.02-2.746c-.736-1.159-6.961-6.713-6.961-6.713s1.944,7.619,2.578,9" fill="#ceedd0"/>
    <path id="패스_16374" data-name="패스 16374" d="M178.248,104.4c-.3,1.261-.321,2.89,1.16,3.44a3.084,3.084,0,0,0,3.2-.936,4.774,4.774,0,0,0,.886-2.788c.111-1.294-1.683-8.552-1.683-8.552s-3.222,7.388-3.561,8.836" fill="#ceedd0"/>
    <path id="패스_16375" data-name="패스 16375" d="M197.5,109.553a15.982,15.982,0,0,0,5.733,1.558,16.571,16.571,0,0,1-.949-1.894,11.1,11.1,0,0,0-1.426-1.805,10.609,10.609,0,0,0-3.789-2.574c-1.166-.432-2.2-.114-2.189,1.37.007,1.449,1.494,2.7,2.62,3.345" fill="#7da081"/>
    <path id="패스_16376" data-name="패스 16376" d="M179.641,115.356a14.91,14.91,0,0,0,1.955,5.464,16.725,16.725,0,0,1,1.059-1.838,10.915,10.915,0,0,0,.711-2.168,10.019,10.019,0,0,0,.013-4.492c-.3-1.177-1.158-1.818-2.408-.965-1.22.832-1.431,2.735-1.33,4" fill="#7da081"/>
    <path id="패스_16377" data-name="패스 16377" d="M207.871,87.618a14.416,14.416,0,0,0,4.141-3.971,20.5,20.5,0,0,1-2.273-.086,13.03,13.03,0,0,0-2.4.344,11.08,11.08,0,0,0-4.235,1.922c-.953.755-1.118,1.741.325,2.409,1.409.653,3.309.009,4.447-.618" fill="#7da081"/>
    <path id="패스_16378" data-name="패스 16378" d="M192.82,72.976A12.674,12.674,0,0,0,192.5,67.5a18.466,18.466,0,0,1-1.627,1.462A11.114,11.114,0,0,0,189.5,70.8a9.225,9.225,0,0,0-1.376,4.147c-.053,1.153.617,1.936,2.138,1.426,1.485-.5,2.276-2.208,2.558-3.4" fill="#7da081"/>
    <path id="패스_16379" data-name="패스 16379" d="M167.018,75.432a15.536,15.536,0,0,0-5.344-2.457,16.185,16.185,0,0,1,.573,2.018A10.694,10.694,0,0,0,163.3,77a10.216,10.216,0,0,0,3.237,3.146c1.067.612,2.14.465,2.416-1,.269-1.427-.955-2.9-1.94-3.716" fill="#7da081"/>
    <path id="패스_16380" data-name="패스 16380" d="M157.742,102.2a14.927,14.927,0,0,0-3.94,4.234,17.594,17.594,0,0,1,2.148.046,11.354,11.354,0,0,0,2.276-.405,10.366,10.366,0,0,0,4.016-2.092c.906-.809,1.068-1.843-.292-2.515-1.328-.655-3.128.054-4.208.732" fill="#7da081"/>
  </g>
</svg>
