<svg xmlns="http://www.w3.org/2000/svg" xmlns:xlink="http://www.w3.org/1999/xlink" width="219.357" height="80.277" viewBox="0 0 219.357 80.277">
  <defs>
    <clipPath id="clip-path">
      <rect id="사각형_5097" data-name="사각형 5097" width="219.357" height="80.277" transform="translate(0 0)" fill="none"/>
    </clipPath>
  </defs>
  <g id="효과_연지" transform="translate(0 0)">
    <g id="그룹_6783" data-name="그룹 6783" clip-path="url(#clip-path)">
      <path id="패스_16549" data-name="패스 16549" d="M28.163,37.755c.16-2.161,7.926-4.882,16.417-8.7,14.76-6.636,36.23-17.9,50.379-11.43,3.8,1.736,7.333,4.523,11.437,4.864,5.842.487,10.994-4.047,16.609-5.974,11.919-4.09,27.181,4.361,40.125,9.78,5.8,2.426,15.8,5.751,16.339,7.4,1.739,5.323-34.435,10.081-70.471,8.95s-81.272,1.03-80.835-4.888" fill="#f88"/>
      <path id="패스_16550" data-name="패스 16550" d="M28.042,36.9c.16-2.161,7.212-.812,15.7-4.629,14.76-6.636,36.23-17.9,50.38-11.43,3.8,1.736,7.332,4.523,11.436,4.864,5.842.486,10.994-4.047,16.609-5.974,11.919-4.09,27.181,4.361,40.125,9.779,5.8,2.427,16.388,1.717,16.926,3.364,1.739,5.322-35.022,14.115-71.058,12.984S27.6,42.817,28.042,36.9" fill="#db4545"/>
      <path id="패스_16551" data-name="패스 16551" d="M35.507,40.3s9.09,39.978,67.9,39.978,67.751-40.962,67.751-40.962Z" fill="#db4545"/>
      <path id="패스_16552" data-name="패스 16552" d="M170.638,39.965c-3.707-3.155-8.712,2.725-23.629,3.545h.045c-5.546.518-11.232.918-16.989,1.22.688-.1,1.377-.194,2.063-.307a158.424,158.424,0,0,0-56.961.4c-4.992-.225-9.883-.5-14.616-.836C54.164,43.5,50.084,41.216,44.782,40c-1.17-.268-5.516-1.11-6.17,1.077-.381,1.274,3.342,2.725,6.122,2.857,16.955,1.72,37.052,2.7,57.538,2.794,25.363.121,59.382-3.173,63.732-3.894s5.53-2.106,4.634-2.868" fill="#9b1f1f"/>
      <path id="패스_16553" data-name="패스 16553" d="M121.731,56.694a6.609,6.609,0,0,0-2.309.761,2.133,2.133,0,0,0-1.085,2,2.18,2.18,0,0,0,1.643,1.6,6.678,6.678,0,0,0,2.443.064c2.779-.27,21.387-1.585,20.454-5.9-.959-4.442-18.439.941-21.146,1.476" fill="#f99"/>
      <path id="패스_16554" data-name="패스 16554" d="M102.4,60c0,1.546-1.618,2.8-3.614,2.8S95.17,61.542,95.17,60s1.618-2.8,3.615-2.8S102.4,58.45,102.4,60" fill="#f99"/>
      <path id="패스_16555" data-name="패스 16555" d="M114.717,60.642c0,1.546-1.618,2.8-3.614,2.8s-3.615-1.253-3.615-2.8,1.618-2.8,3.615-2.8,3.614,1.253,3.614,2.8" fill="#f99"/>
      <path id="패스_16556" data-name="패스 16556" d="M199.077,4.539c-1.888,6.25-5.863,13.976-14.229,18.166a2.356,2.356,0,0,0,.108,4.253,25.862,25.862,0,0,1,14.366,15.986,2.36,2.36,0,0,0,4.413.127c2.593-6.25,7.145-14.3,14.088-17.075a2.369,2.369,0,0,0,.55-4.136c-4.544-3.279-11.1-9.132-14.894-17.621a2.358,2.358,0,0,0-4.4.3" fill="#fff"/>
      <path id="패스_16557" data-name="패스 16557" d="M18.73,1.189c-1.337,4.427-4.153,9.9-10.078,12.867a1.668,1.668,0,0,0,.076,3.012A18.322,18.322,0,0,1,18.9,28.392a1.671,1.671,0,0,0,3.125.09c1.837-4.427,5.061-10.128,9.979-12.1a1.678,1.678,0,0,0,.39-2.929A32.076,32.076,0,0,1,21.848.977a1.67,1.67,0,0,0-3.118.212" fill="#fff"/>
      <path id="패스_16558" data-name="패스 16558" d="M7.249,34.086A13.5,13.5,0,0,1,.6,42.571a1.1,1.1,0,0,0,.05,1.987,12.081,12.081,0,0,1,6.711,7.467,1.1,1.1,0,0,0,2.061.06c1.211-2.92,3.337-6.68,6.581-7.976a1.107,1.107,0,0,0,.256-1.932,21.156,21.156,0,0,1-6.957-8.231,1.1,1.1,0,0,0-2.056.14" fill="#fff"/>
    </g>
  </g>
</svg>
