<svg id="버튼_눈썹" xmlns="http://www.w3.org/2000/svg" xmlns:xlink="http://www.w3.org/1999/xlink" width="276.235" height="249.607" viewBox="0 0 276.235 249.607">
  <defs>
    <clipPath id="clip-path">
      <rect id="사각형_5080" data-name="사각형 5080" width="276.235" height="249.607" fill="none"/>
    </clipPath>
  </defs>
  <g id="그룹_6742" data-name="그룹 6742" clip-path="url(#clip-path)">
    <path id="패스_16381" data-name="패스 16381" d="M268.218,129.951l8.017,77.765s.39,40.17-60.409,41.869-95-93.472-134.178-109.538a239.87,239.87,0,0,0-43.837-13.115c-18.039-3.6-31.605-18.039-33.447-35.906L.016,48.852Z" fill="#6f9383"/>
    <path id="패스_16382" data-name="패스 16382" d="M30.175,11.522a104.9,104.9,0,0,1,57.241-2.5,52.363,52.363,0,0,0,29.212-1.589c14.707-5.134,39.254-9.841,65.6,1.556C202.576,17.8,209.59,33.148,211.915,44.3a40.289,40.289,0,0,0,14.137,23.176c12.506,10.044,23.078,21.948,28.216,37.624,4.981,15.2,2.978,32.276-7.8,44.09-16.464,18.046-41.922,12.365-59.124-.537-13.873-10.405-24.027-24.88-35.888-37.531C124.1,81.949,85.269,66.913,45.732,60.893c-7.283-1.109-13.255-6.41-20.017-9.331-9.966-4.3-18.487-14.642-11.651-27.2,3.382-6.214,9.411-10.57,16.111-12.841" fill="#a3c9a5"/>
    <path id="패스_16383" data-name="패스 16383" d="M58.4,9.767A103.355,103.355,0,0,1,92.4,11.958a50.31,50.31,0,0,0,16.6,1.052,51.034,51.034,0,0,0,11.576-2.585,95.03,95.03,0,0,1,21.452-4.816,82.864,82.864,0,0,1,41.82,6.317c19.632,8.494,26.4,23.3,28.64,34.057a38.855,38.855,0,0,0,13.637,22.355c12.062,9.689,22.26,21.171,27.216,36.292,4.8,14.658,2.873,31.133-7.523,42.528a32.85,32.85,0,0,1-21.379,10.851c-12.323,1.27-25.481-3.74-35.651-11.368-13.382-10.037-23.176-24-34.617-36.2a175.178,175.178,0,0,0-100.533-52.9c-7.025-1.069-14.233-1.739-20.756-4.557-9.612-4.151-17.831-14.123-11.238-26.236,3.262-5.993,9.078-10.195,15.54-12.386A97.066,97.066,0,0,1,58.4,9.767M54.222,4.714a113.585,113.585,0,0,0-24.783,5.379C18.574,13.777,9.817,20.9,4.781,30.152A33.048,33.048,0,0,0,2.15,56.967C5.468,66.579,13.4,74.695,23.9,79.233c7.493,3.236,14.968,4.3,21.562,5.242,1.076.154,2.15.307,3.22.469a157.961,157.961,0,0,1,91.059,47.911c3.322,3.542,6.519,7.274,9.9,11.225,7.959,9.288,16.189,18.893,26.831,26.875,14.463,10.847,31.647,16.152,47.146,14.554a49.286,49.286,0,0,0,31.79-16.1c13.708-15.025,17.916-37.5,10.984-58.652-5.338-16.288-15.975-30.665-32.519-43.953a22.483,22.483,0,0,1-7.865-12.937c-4.317-20.713-17.87-36.956-38.161-45.735a98.867,98.867,0,0,0-50-7.576A111.039,111.039,0,0,0,112.692,6.2a34.682,34.682,0,0,1-7.861,1.757,33.886,33.886,0,0,1-11.205-.71,119.221,119.221,0,0,0-39.4-2.533" fill="#a3c9a5"/>
    <path id="패스_16384" data-name="패스 16384" d="M183.087,133.5c-7.988-5.993-14.59-13.7-20.975-21.149-2.885-3.368-5.871-6.851-8.939-10.122a149.566,149.566,0,0,0-86.226-45.37c-.963-.147-1.928-.283-2.892-.422-5.09-.725-10.35-1.476-15.162-3.553-5.517-2.384-9.771-6.588-11.378-11.247-1.374-3.979-.913-8.12,1.368-12.309A24.223,24.223,0,0,1,52.651,18.332,87.447,87.447,0,0,1,100.6,16.243a42.881,42.881,0,0,0,23.9-1.3c13.121-4.582,33.318-8.069,55.013,1.311,17.127,7.409,23.089,20.312,25.075,29.832A32.8,32.8,0,0,0,216.1,64.953c12.33,9.9,19.852,19.942,23.671,31.588,4.469,13.639,1.927,27.938-6.629,37.315a29.061,29.061,0,0,1-18.9,9.636c-10.679,1.1-22.089-3.2-31.145-9.994m-58.14-117.27a44.159,44.159,0,0,1-24.656,1.343,86.021,86.021,0,0,0-47.2,2.055A22.842,22.842,0,0,0,40.08,29.979,13.532,13.532,0,0,0,38.8,41.192c1.485,4.3,5.459,8.2,10.632,10.44,4.643,2,9.814,2.742,14.813,3.453.971.138,1.938.277,2.9.424a150.939,150.939,0,0,1,87.018,45.785c3.089,3.293,6.082,6.789,8.979,10.166,6.336,7.4,12.889,15.046,20.759,20.947,14.392,10.8,34.883,15.15,48.225.53,8.224-9.014,10.653-22.8,6.339-35.973-3.733-11.382-11.114-21.215-23.231-30.948a34.2,34.2,0,0,1-11.991-19.655c-1.918-9.2-7.689-21.678-24.279-28.859a70.582,70.582,0,0,0-35.639-5.416,81.346,81.346,0,0,0-18.384,4.142" fill="#808e81"/>
    <path id="패스_16385" data-name="패스 16385" d="M167.685,44.972c1.38-.19,3-.714,2.893-2.06a2.97,2.97,0,0,0-2.34-2.195,6.446,6.446,0,0,0-3.151.237c-1.331.346-7.723,4.18-7.723,4.18s8.739.056,10.321-.162" fill="#ceedd0"/>
    <path id="패스_16386" data-name="패스 16386" d="M167.932,51.591c1.445.507,3.31.874,3.947-.2.479-.812-.128-2.057-1.059-2.776a8.345,8.345,0,0,0-3.19-1.308c-1.483-.364-9.806-.465-9.806-.465s8.452,4.17,10.108,4.751" fill="#ceedd0"/>
    <path id="패스_16387" data-name="패스 16387" d="M164.513,56.747c1.122,1.069,2.73,2.229,3.943,1.71.914-.391,1.013-1.627.507-2.613a8.346,8.346,0,0,0-2.374-2.5c-1.239-.978-9.264-4.985-9.264-4.985s5.9,7.165,7.188,8.39" fill="#ceedd0"/>
    <path id="패스_16388" data-name="패스 16388" d="M158.346,59.057c.5,1.344,1.419,2.986,2.883,3.164a1.765,1.765,0,0,0,1.936-1.75,6.464,6.464,0,0,0-.922-3.026c-.662-1.329-6.238-8.17-6.238-8.17s1.769,8.242,2.341,9.782" fill="#ceedd0"/>
    <path id="패스_16389" data-name="패스 16389" d="M151.082,57.9c-.258,1.259-.273,2.943,1.05,3.77a2.237,2.237,0,0,0,2.847-.418,4.76,4.76,0,0,0,.777-2.739c.092-1.325-1.541-9.165-1.541-9.165s-2.837,7.11-3.133,8.552" fill="#ceedd0"/>
    <path id="패스_16390" data-name="패스 16390" d="M144.668,53.6c-.946.836-1.891,2.112-1.064,3.366a2.873,2.873,0,0,0,2.995,1.026,4.751,4.751,0,0,0,2.267-1.718c.822-.965,3.569-7.705,3.569-7.705s-6.683,4.073-7.767,5.031" fill="#ceedd0"/>
    <path id="패스_16391" data-name="패스 16391" d="M140.823,47.286c-1.38.19-3,.714-2.893,2.06a2.97,2.97,0,0,0,2.34,2.195,6.446,6.446,0,0,0,3.151-.237c1.331-.346,7.723-4.18,7.723-4.18s-8.739-.056-10.321.162" fill="#ceedd0"/>
    <path id="패스_16392" data-name="패스 16392" d="M140.576,40.667c-1.445-.507-3.31-.874-3.947.2-.479.812.128,2.057,1.059,2.776a8.345,8.345,0,0,0,3.19,1.308c1.483.364,9.806.465,9.806.465s-8.452-4.17-10.108-4.751" fill="#ceedd0"/>
    <path id="패스_16393" data-name="패스 16393" d="M143.994,35.511c-1.122-1.069-2.73-2.229-3.943-1.71-.914.391-1.013,1.627-.507,2.613a8.358,8.358,0,0,0,2.374,2.5c1.239.978,9.264,4.985,9.264,4.985s-5.9-7.165-7.188-8.39" fill="#ceedd0"/>
    <path id="패스_16394" data-name="패스 16394" d="M150.162,33.2c-.5-1.344-1.419-2.986-2.883-3.164a1.765,1.765,0,0,0-1.936,1.75,6.475,6.475,0,0,0,.922,3.026c.662,1.329,6.238,8.17,6.238,8.17s-1.769-8.242-2.341-9.782" fill="#ceedd0"/>
    <path id="패스_16395" data-name="패스 16395" d="M157.426,34.355c.258-1.259.273-2.943-1.05-3.77a2.237,2.237,0,0,0-2.847.418,4.759,4.759,0,0,0-.777,2.739c-.092,1.325,1.541,9.165,1.541,9.165s2.837-7.11,3.133-8.552" fill="#ceedd0"/>
    <path id="패스_16396" data-name="패스 16396" d="M163.839,38.663c.946-.836,1.891-2.112,1.064-3.366a2.873,2.873,0,0,0-2.995-1.026,4.751,4.751,0,0,0-2.267,1.718c-.822.965-3.569,7.705-3.569,7.705s6.683-4.073,7.767-5.031" fill="#ceedd0"/>
    <path id="패스_16397" data-name="패스 16397" d="M206.855,98.926c1.08-.149,2.35-.559,2.264-1.612a2.326,2.326,0,0,0-1.831-1.718,5.052,5.052,0,0,0-2.466.186,60.445,60.445,0,0,0-6.043,3.271s6.838.043,8.076-.127" fill="#ceedd0"/>
    <path id="패스_16398" data-name="패스 16398" d="M207.048,104.105c1.131.4,2.59.684,3.088-.158.376-.635-.1-1.61-.828-2.172a6.526,6.526,0,0,0-2.5-1.024c-1.161-.285-7.674-.363-7.674-.363s6.614,3.262,7.91,3.717" fill="#ceedd0"/>
    <path id="패스_16399" data-name="패스 16399" d="M204.373,108.139c.878.836,2.136,1.744,3.085,1.338.716-.306.793-1.273.4-2.045A6.532,6.532,0,0,0,206,105.475c-.969-.766-7.248-3.9-7.248-3.9s4.617,5.607,5.624,6.565" fill="#ceedd0"/>
    <path id="패스_16400" data-name="패스 16400" d="M199.547,109.947c.391,1.051,1.11,2.337,2.256,2.476a1.382,1.382,0,0,0,1.515-1.37,5.053,5.053,0,0,0-.722-2.367c-.518-1.041-4.881-6.393-4.881-6.393s1.384,6.449,1.832,7.654" fill="#ceedd0"/>
    <path id="패스_16401" data-name="패스 16401" d="M193.863,109.044c-.2.985-.214,2.3.822,2.95a1.748,1.748,0,0,0,2.227-.327,3.723,3.723,0,0,0,.608-2.143,71.825,71.825,0,0,0-1.206-7.172s-2.22,5.563-2.451,6.692" fill="#ceedd0"/>
    <path id="패스_16402" data-name="패스 16402" d="M188.844,105.673c-.74.654-1.48,1.652-.833,2.634a2.249,2.249,0,0,0,2.344.8,3.724,3.724,0,0,0,1.774-1.345,54.717,54.717,0,0,0,2.793-6.029s-5.23,3.187-6.078,3.937" fill="#ceedd0"/>
    <path id="패스_16403" data-name="패스 16403" d="M185.835,100.736c-1.08.149-2.35.559-2.264,1.612a2.326,2.326,0,0,0,1.831,1.718,5.052,5.052,0,0,0,2.466-.186,60.444,60.444,0,0,0,6.043-3.271s-6.838-.043-8.076.127" fill="#ceedd0"/>
    <path id="패스_16404" data-name="패스 16404" d="M185.642,95.556c-1.131-.4-2.59-.684-3.088.158-.376.635.1,1.61.828,2.172a6.526,6.526,0,0,0,2.5,1.024c1.161.285,7.674.363,7.674.363s-6.614-3.262-7.91-3.717" fill="#ceedd0"/>
    <path id="패스_16405" data-name="패스 16405" d="M188.317,91.522c-.878-.836-2.136-1.744-3.085-1.338-.716.306-.793,1.273-.4,2.045a6.532,6.532,0,0,0,1.858,1.957c.969.766,7.248,3.9,7.248,3.9s-4.617-5.607-5.624-6.565" fill="#ceedd0"/>
    <path id="패스_16406" data-name="패스 16406" d="M193.143,89.715c-.391-1.051-1.11-2.337-2.256-2.476a1.382,1.382,0,0,0-1.515,1.37,5.053,5.053,0,0,0,.722,2.367c.518,1.041,4.881,6.393,4.881,6.393s-1.384-6.449-1.832-7.654" fill="#ceedd0"/>
    <path id="패스_16407" data-name="패스 16407" d="M198.827,90.617c.2-.985.214-2.3-.822-2.95a1.748,1.748,0,0,0-2.227.327,3.723,3.723,0,0,0-.608,2.143,71.825,71.825,0,0,0,1.206,7.172s2.22-5.563,2.451-6.692" fill="#ceedd0"/>
    <path id="패스_16408" data-name="패스 16408" d="M203.845,93.989c.74-.654,1.48-1.652.833-2.634a2.249,2.249,0,0,0-2.344-.8A3.724,3.724,0,0,0,200.56,91.9a54.72,54.72,0,0,0-2.793,6.029s5.23-3.187,6.078-3.937" fill="#ceedd0"/>
    <path id="패스_16409" data-name="패스 16409" d="M79.946,30.26c.965-.507,2.02-1.324,1.581-2.285a2.323,2.323,0,0,0-2.306-.993,5.029,5.029,0,0,0-2.255,1.012,60.511,60.511,0,0,0-4.572,5.129s6.446-2.282,7.552-2.863" fill="#ceedd0"/>
    <path id="패스_16410" data-name="패스 16410" d="M81.888,35.066c1.2-.011,2.668-.237,2.851-1.2.137-.725-.642-1.48-1.518-1.762a6.536,6.536,0,0,0-2.695-.114c-1.188.126-7.34,2.266-7.34,2.266s7.329.821,8.7.808" fill="#ceedd0"/>
    <path id="패스_16411" data-name="패스 16411" d="M80.743,39.769c1.11.488,2.6.914,3.356.21.569-.531.313-1.466-.322-2.058a6.535,6.535,0,0,0-2.412-1.21c-1.171-.39-8.142-1.2-8.142-1.2s6.248,3.7,7.52,4.263" fill="#ceedd0"/>
    <path id="패스_16412" data-name="패스 16412" d="M76.819,43.109c.725.856,1.838,1.82,2.963,1.562a1.38,1.38,0,0,0,.959-1.8,5.057,5.057,0,0,0-1.483-1.981c-.841-.8-6.763-4.354-6.763-4.354s3.494,5.595,4.324,6.576" fill="#ceedd0"/>
    <path id="패스_16413" data-name="패스 16413" d="M71.167,44.191c.145.995.582,2.239,1.775,2.495a1.749,1.749,0,0,0,1.984-1.064,3.726,3.726,0,0,0-.157-2.223A71.756,71.756,0,0,0,71.2,37.064s-.2,5.987-.031,7.127" fill="#ceedd0"/>
    <path id="패스_16414" data-name="패스 16414" d="M65.3,42.726c-.474.867-.83,2.057.112,2.76a2.248,2.248,0,0,0,2.477-.041A3.717,3.717,0,0,0,69.1,43.577a54.535,54.535,0,0,0,.578-6.619s-3.835,4.774-4.378,5.768" fill="#ceedd0"/>
    <path id="패스_16415" data-name="패스 16415" d="M60.793,39.106c-.965.507-2.02,1.324-1.581,2.285a2.323,2.323,0,0,0,2.306.993,5.029,5.029,0,0,0,2.255-1.012,60.51,60.51,0,0,0,4.572-5.129s-6.446,2.282-7.552,2.863" fill="#ceedd0"/>
    <path id="패스_16416" data-name="패스 16416" d="M58.852,34.3c-1.2.011-2.668.237-2.851,1.2-.137.725.642,1.48,1.518,1.762a6.536,6.536,0,0,0,2.695.114c1.188-.126,7.34-2.266,7.34-2.266s-7.329-.821-8.7-.808" fill="#ceedd0"/>
    <path id="패스_16417" data-name="패스 16417" d="M60,29.6c-1.11-.488-2.6-.914-3.356-.21-.569.531-.313,1.466.322,2.058a6.535,6.535,0,0,0,2.412,1.21c1.171.39,8.142,1.205,8.142,1.205S61.268,30.156,60,29.6" fill="#ceedd0"/>
    <path id="패스_16418" data-name="패스 16418" d="M63.921,26.257c-.725-.856-1.838-1.82-2.963-1.562A1.38,1.38,0,0,0,60,26.5a5.057,5.057,0,0,0,1.483,1.981c.841.8,6.763,4.354,6.763,4.354s-3.494-5.595-4.324-6.576" fill="#ceedd0"/>
    <path id="패스_16419" data-name="패스 16419" d="M69.573,25.175c-.145-.995-.582-2.239-1.775-2.495a1.75,1.75,0,0,0-1.984,1.064,3.726,3.726,0,0,0,.157,2.223A71.756,71.756,0,0,0,69.542,32.3s.2-5.987.031-7.127" fill="#ceedd0"/>
    <path id="패스_16420" data-name="패스 16420" d="M75.438,26.64c.474-.867.831-2.057-.112-2.76a2.247,2.247,0,0,0-2.476.041,3.719,3.719,0,0,0-1.212,1.868,54.5,54.5,0,0,0-.577,6.619s3.835-4.774,4.377-5.768" fill="#ceedd0"/>
    <path id="패스_16421" data-name="패스 16421" d="M151.947,23.943a14.813,14.813,0,0,0-3.527-4.4,16.575,16.575,0,0,1-.346,2.025,10.738,10.738,0,0,0,.071,2.218,10.032,10.032,0,0,0,1.452,4.133c.652.987,1.626,1.305,2.465.125.818-1.152.387-2.968-.115-4.1" fill="#7da081"/>
    <path id="패스_16422" data-name="패스 16422" d="M169,29.217a14.842,14.842,0,0,0,1.6-5.408,16.674,16.674,0,0,1-1.861.871A10.761,10.761,0,0,0,166.959,26a10.048,10.048,0,0,0-2.565,3.552c-.438,1.1-.143,2.08,1.3,2.095,1.412.015,2.658-1.375,3.3-2.433" fill="#7da081"/>
    <path id="패스_16423" data-name="패스 16423" d="M131.488,35.587a13.834,13.834,0,0,0-5.446.857,19.254,19.254,0,0,1,1.7,1.324,12.029,12.029,0,0,0,2.046,1.058,10.36,10.36,0,0,0,4.354.817c1.163-.071,1.851-.761,1.12-2.088-.714-1.3-2.542-1.836-3.775-1.968" fill="#7da081"/>
    <path id="패스_16424" data-name="패스 16424" d="M134.746,55.505a12.679,12.679,0,0,0-2.874,4.516,17.845,17.845,0,0,1,2.084-.259,10.75,10.75,0,0,0,2.108-.7,9.174,9.174,0,0,0,3.419-2.525c.7-.884.626-1.875-.835-2.311-1.426-.426-3.008.49-3.9,1.278" fill="#7da081"/>
    <path id="패스_16425" data-name="패스 16425" d="M156.005,67.82a14.5,14.5,0,0,0,2.716,4.9,16.246,16.246,0,0,1,.707-1.917,10.532,10.532,0,0,0,.327-2.175,9.766,9.766,0,0,0-.7-4.281c-.472-1.075-1.383-1.552-2.427-.544-1.02.983-.917,2.829-.621,4.017" fill="#7da081"/>
    <path id="패스_16426" data-name="패스 16426" d="M178.372,51.741a14.4,14.4,0,0,0,5.441-1.176,16.255,16.255,0,0,1-1.627-1.224A10.488,10.488,0,0,0,180.2,48.4a9.736,9.736,0,0,0-4.282-.563c-1.158.14-1.87.87-1.205,2.154.649,1.253,2.438,1.686,3.655,1.746" fill="#7da081"/>
    <path id="패스_16427" data-name="패스 16427" d="M24.983,76.728a102.65,102.65,0,0,0,20.865,5.048l3.246.474a160.684,160.684,0,0,1,92.638,48.74c3.338,3.557,6.549,7.306,10,11.331,7.861,9.17,15.99,18.653,26.384,26.452,13.922,10.441,30.409,15.552,45.231,14.024,11.672-1.2,20.871-7.731,30.055-15.224,13.031-10.631,16.015-30.435,16.015-30.435a49.159,49.159,0,0,1-11.985,34.111A50.661,50.661,0,0,1,223.9,188.223c-16.173,1.667-34.054-3.831-49.062-15.086-10.875-8.159-19.2-17.873-27.3-27.327-3.344-3.9-6.5-7.589-9.786-11.09A155.214,155.214,0,0,0,48.274,87.641l-3.2-.468c-6.763-.963-14.511-1.873-22.255-5.438C-4.437,69.187.318,45.508.318,45.508s-.351,22.083,24.665,31.22" fill="#d5efd6"/>
  </g>
</svg>
