<svg id="효과_머릿기름" xmlns="http://www.w3.org/2000/svg" xmlns:xlink="http://www.w3.org/1999/xlink" width="578.702" height="450.501" viewBox="0 0 578.702 450.501">
  <defs>
    <clipPath id="clip-path">
      <rect id="사각형_5096" data-name="사각형 5096" width="578.702" height="450.501" fill="none"/>
    </clipPath>
    <clipPath id="clip-path-2">
      <path id="패스_16544" data-name="패스 16544" d="M496.783,416.233q.716,2.065,1.422,4.139c-.5-1.31-.961-2.7-1.422-4.139m-202.2-272.879c-49.848-9.7-133.2,4.2-170.256,34.519-38.6,31.582-62.348,78.4-70.028,126.87-7.195,45.4,1.791,97.541,16.185,141.361,0,0-.738-36.013,28.206-63.216a90.53,90.53,0,0,0-20.541,12.39A230.949,230.949,0,0,1,85.8,371.65a183.3,183.3,0,0,1,47.555-59.731,107.744,107.744,0,0,0-23.027,12.572,234.9,234.9,0,0,1,77.735-72.985c20.046-11.5,42.747-20.137,65.705-22.226l-18.331-6.226a84.739,84.739,0,0,1,39.8,6.286q2.846.294,5.678.753a56.74,56.74,0,0,1-10.489-19.71l16.984,19.2.608-3.908L288,228.5l16.984-19.2a56.722,56.722,0,0,1-10.489,19.71q2.832-.454,5.677-.753a84.755,84.755,0,0,1,39.8-6.285L321.644,228.2c22.958,2.09,45.659,10.724,65.706,22.227,36.609,21.005,66.644,52.081,87.164,88.245-9.329-11.993-16.607-21.87-30.816-30.314,21.472,30.269,36.566,62.442,49.125,96.756-1.917-4.133-4.478-7.62-8.495-9.247,11.395,14.927,14.958,36.845,20.594,54.635a12.992,12.992,0,0,1-.274-4.889c.021.95.041,1.9.048,2.85,16.522-46.339,24.1-96.328,16.423-144.8s-31.433-95.288-70.028-126.869c-28.856-23.612-78.058-36.658-121.475-36.66a179.794,179.794,0,0,0-35.034,3.221" fill="none"/>
    </clipPath>
    <clipPath id="clip-path-4">
      <rect id="사각형_5092" data-name="사각형 5092" width="296.442" height="116.78" transform="translate(144.958)" fill="none"/>
    </clipPath>
    <clipPath id="clip-path-5">
      <rect id="사각형_5093" data-name="사각형 5093" width="73.516" height="163.312" transform="translate(0 148.71)" fill="none"/>
    </clipPath>
    <clipPath id="clip-path-6">
      <rect id="사각형_5094" data-name="사각형 5094" width="83.616" height="158.98" transform="translate(495.086 157.241)" fill="none"/>
    </clipPath>
  </defs>
  <g id="그룹_6781" data-name="그룹 6781" clip-path="url(#clip-path)">
    <g id="그룹_6769" data-name="그룹 6769">
      <g id="그룹_6768" data-name="그룹 6768" clip-path="url(#clip-path-2)">
        <path id="패스_16541" data-name="패스 16541" d="M164.827,256.312s-58.121-9.554-53.344-53.344c0,0-15.525,12.739-30.254,39.809,35.827.8,44.187,48.169,44.187,48.169s21-30.705,39.411-34.634" fill="#fff"/>
        <path id="패스_16542" data-name="패스 16542" d="M443.069,238.608q4.266,4.447,8.339,9.076,8.285,9.45,15.7,19.623c4.154-7.255,10.768-14.421,21.217-20.135,0,0-12.586-27.881-34.68-48.781,0,0,12.9,22.166-10.571,40.217" fill="#fff"/>
        <path id="패스_16543" data-name="패스 16543" d="M462.995,276.6c-3.553-4.869-7.22-9.656-11.055-14.307-4.464-5.414-9.145-10.652-14.1-15.626-.95-.955-1.919-1.891-2.89-2.825a110.228,110.228,0,0,1-24.906,9.389s35.277,19.292,51.261,49.057a53.184,53.184,0,0,1,1.685-25.688" fill="#fff"/>
      </g>
    </g>
    <g id="그룹_6780" data-name="그룹 6780">
      <g id="그룹_6779" data-name="그룹 6779" clip-path="url(#clip-path)">
        <g id="그룹_6772" data-name="그룹 6772" opacity="0.7">
          <g id="그룹_6771" data-name="그룹 6771">
            <g id="그룹_6770" data-name="그룹 6770" clip-path="url(#clip-path-4)">
              <path id="패스_16545" data-name="패스 16545" d="M424.624,49.529c-2.139,1.575-3.633,5.784-4.825,10.232-1.551-.072-3.842.646-6.192.473l-.154-.005c-8.272-.048-9.5-8.54-11.918-13.766a3.809,3.809,0,0,0-1.106-1.326C395.8,42.823,390.1,60.1,382.81,57.007c-8.554-5.073-4.91-23.933-4.384-32.574,1.248-10.3-4.638-13.829-13.763-15.99q-4.776-1.339-9.6-2.51c-7.224-1.718-14.331-3.895-19.353,1.738-4.37,5.221-6.548,12.392-11.029,17.545-3.456,4.35-8.415,6.156-10.948.491-2.14-4.314-1.163-11.36-3.643-15.443C304.54,3.6,295.964,29.742,290.627,32.287c-8.969,7.094-16.227-5.1-18.087-13.165C268.236-.93,266.771-2.06,246.029,1.7a29,29,0,0,0-10.283,4.342c-3.4,2.23-7.014,5.284-11.27,4.687-2.359-.183-4.994-1.116-7.366-1.169-7.521.375-7.308,9.091-7.131,15.312.691,11.5-4.478,21.308-13.793,8.115-6.692-10.2-13.866-7.606-14.594,4.044-1.129,9.1,4.023,30.742-6.463,34.854-4.748,1.305-9.137-2.776-11.495-6.576-3.679-5.784-4.939-13.089-7.159-19.637-1.147-2.8-3.1-8.284-6.835-6.423-3.523,3.451-4.314,8.5-3.769,13.577l-.3-.412c-2.094,12,1.376,24.446,7.347,35.062s14.312,19.675,22.7,28.507q-3.51-7.592-6.65-15.347c2.2,1.9,4.56,3.631,6.918,5.324,4.615,3.565,14.689,10.054,15.73.475.479-3.676-.514-8.526-.011-11.781,1.929-9.547,8.077,3.364,10.025,6.481,3.86,6.921,12.507,4.787,18.443,1.885,5.018-2.232,6.621-7.72,6.409-12.883-.01-10.094-.814-20.593,2.389-30.288,3.426-9.413,11.4-8.757,15-.475,4.518,9.726,3.991,21.072,7.8,30.949,1.037,2.39,3.451,4.709,5.288,1.67,2.878-4.333,2.448-15.151,9.731-15.046,6.665.319,6.443,19.505,13.074,12.062,1.952-1.779,4.171-7.409,7.293-5.572,2.939,2.656,4.407,7.63,8.559,9.079,2.823,1.249,6.675,1.34,10.546,1.519,4.961.251,9.293.612,12.783-1.736,3.826-2.674,4.9-7.443,6.253-11.714,1.755-5.544,3.611-11.348,6.623-16.277,3.072-5.113,8.242-8.211,12.977-4.5,8.338,7.869,5.332,20.795,5.064,31.1.042,3.206.814,8.284,4.665,8.052,3.593-.194,6.833-7.346,10.574-5.331,2.47,1.523,4.245,7.582,7.541,10.65,6.812,6.449,16.588.613,23.357-3.195,4.066-2.318,7.872-4.15,11.108-6.409-3.086,6.476-13.321,20.688-11.577,22.065S423.859,81.563,429.7,59.962c.956-3.537,2.416-15.948-5.075-10.433" fill="#fff"/>
              <path id="패스_16546" data-name="패스 16546" d="M423.408,95.435c-3.174,4.843-6.989,9.526-8.174,15.193,2.615,1.061,5.139-1.6,6.718-3.941a191.891,191.891,0,0,0,12.282-19.919c1.781-3.494,9.208-16.974,6.627-20.727-4.279-6.22-7.486,7.041-7.913,8.533a76.6,76.6,0,0,1-9.54,20.861" fill="#fff"/>
            </g>
          </g>
        </g>
        <g id="그룹_6775" data-name="그룹 6775" opacity="0.5">
          <g id="그룹_6774" data-name="그룹 6774">
            <g id="그룹_6773" data-name="그룹 6773" clip-path="url(#clip-path-5)">
              <path id="패스_16547" data-name="패스 16547" d="M61.637,170.656C63.3,170.141,70.521,209.594,73,208.97s-4.681-33.043-8.786-51.263c-.673-3-1.367-6.93-3.772-9a20.12,20.12,0,0,0-.952,6.463c-.575-1.035-1.636-1.117-3.745.734-1.576,1.383-2.336,3.715-2.584,6.516-.167-.948-.343-1.889-.534-2.822l-.037-.18c-1.069-7.884-6.924-13.2-14.514-8.344-3.185,1.989-5.515,5.85-8.483,7.827-1.983,1.213-4.138-.016-6.092-.407-1.032-.223-1.666.534-1.861,1.5-1.276,6.966.436,18.98-1.545,26.692-.639,3.832-4,10.026-8.137,5.961-2.016-1.832-3.55-6.133-4.552-8.317-1.444-3.447-2.427-1.486-3.291,1.857A112.01,112.01,0,0,0,.428,212.432C-2.464,246.277,10,312.651,16.542,312.017c4.181-.406.02-17.037-3.66-32.828,2.275,5.62,5.365,11.216,10.837,13.053,9,1.769,8.309-10.258,7.14-16.144-1.977-12.867-3.483-26.176-1.123-39.065,2.738-12.352,8.154-5.635,10.084,2.945.97,3.538,1.445,8.059,2.468,11.3.867,2.988,2.774,3.631,4.045.585,1.855-3.968,1.846-11.288,1.258-16.247-.339-3.036-.874-13.059,1.805-7.874,1.019,2.156,2.208,6.707,3.408,8.352,3.017,3.862,5.232-5.49,5.818-7.783,2.781-11.862-5.076-30.742-1.026-33.619S66,221.561,67.963,220.864s-7.985-49.694-6.326-50.208m-51.4,72.381a27.891,27.891,0,0,1,.7,6.261,51.958,51.958,0,0,1-.7-6.261" fill="#fff"/>
            </g>
          </g>
        </g>
        <g id="그룹_6778" data-name="그룹 6778" opacity="0.5">
          <g id="그룹_6777" data-name="그룹 6777">
            <g id="그룹_6776" data-name="그룹 6776" clip-path="url(#clip-path-6)">
              <path id="패스_16548" data-name="패스 16548" d="M575.987,212.184c-2.294,2.235-5.992,8.239-8.5,11.834-3.432,4.981-8.579,12.99-11.708,16.992-2.435,2.991-1.45-.833-1.027-2.644,1.587-6.154,7.227-28.87,1.967-32.636a4.53,4.53,0,0,0-3.087-.4c-1.45.1-3.473,1.188-3.629-.954.166-6.4,3.185-15.056.525-20.429-4.185-6.382-13.416,14.008-12.093.851.281-4.046,1.411-9.329,1.07-13.4-.851-6.614-5.557,2.427-6.21,3.574-.047.069-.081.106-.1.107a21.384,21.384,0,0,1,.415-2.741c.667-3.638,2.073-16.288-3.89-15a9.9,9.9,0,0,0-3.831,3.965c-3.966-2.135-8.677.853-10.682,4.446a30.232,30.232,0,0,0-2.555,7.406c-4.571,18-19.547,51.547-17.339,52.913s17.435-34.055,17.435-34.055-4.6,12.809-2.771,12.946,6.313-10.049,6.313-10.049-6.163,18.715-9.47,28.313c-1.059,2.842-2.531,6.1-3.6,8.66-.716,1.751-1,2.754-.669,2.879l.021.008c.25.074.815-.3,1.638-1.048a57.632,57.632,0,0,0,4.231-4.424c3.289-3.428,7.62-10.725,9.4-13.328,2.548-3.562.4,5.456.317,6.528-1.3,7.1-2.625,14.323-3.935,21.472-4.424,20.867.878,13.317,10.118,2.9,1.677-1.625,8.864-11.334,9.619-7.447.256,1.518-.336,4.244-.739,6.154-3.363,14.573-6.831,29.18-10.216,43.738-.475,2.453-1.55,5.921-.938,8.016.788,1.4,2.757-.936,3.724-1.827,6.948-7.82,13.551-16.127,20.346-24.106,1.034-1.026,6.883-8.95,6.818-4.18-.061,2.509-1.4,6.74-1.557,9.128-.373,5.707,5.382-3.235,6.41-4.691q2.251-3.36,4.277-6.864-2.667,5.605-5.336,11.21c-6.38,13.4-20.256,38.832-19.138,40.2s30.166-42.809,37.036-62.715c.678-1.964,1.319-4.176.428-6.052-1.363-2.875-2.938-2.256-4.383-.407a129.133,129.133,0,0,0,7.5-27.688c.294-2.186,1.776-10.911-2.2-7.145" fill="#fff"/>
            </g>
          </g>
        </g>
      </g>
    </g>
  </g>
</svg>
