<svg id="버튼_머릿기름" xmlns="http://www.w3.org/2000/svg" xmlns:xlink="http://www.w3.org/1999/xlink" width="374.258" height="250.947" viewBox="0 0 374.258 250.947">
  <defs>
    <clipPath id="clip-path">
      <rect id="사각형_5081" data-name="사각형 5081" width="374.258" height="250.947" fill="none"/>
    </clipPath>
    <clipPath id="clip-path-2">
      <path id="패스_16488" data-name="패스 16488" d="M0,137.157C-.06,199.9,83.479,250.848,186.59,250.947h.6c102.834-.1,186.145-50.809,186.205-113.431.061-62.745-83.478-113.69-186.589-113.789h-.3C83.535,23.727.06,74.473,0,137.157" fill="none"/>
    </clipPath>
  </defs>
  <g id="그룹_6745" data-name="그룹 6745">
    <g id="그룹_6744" data-name="그룹 6744" clip-path="url(#clip-path)">
      <path id="패스_16428" data-name="패스 16428" d="M373.4,137.516c-.06,62.745-83.7,113.53-186.808,113.431S-.06,199.9,0,137.157,83.7,23.628,186.808,23.727,373.458,74.771,373.4,137.516" fill="#b6ddb9"/>
    </g>
  </g>
  <g id="그룹_6747" data-name="그룹 6747">
    <g id="그룹_6746" data-name="그룹 6746" clip-path="url(#clip-path-2)">
      <path id="패스_16429" data-name="패스 16429" d="M373.4,137.516c-.06,62.745-83.7,113.53-186.808,113.431S-.06,199.9,0,137.157,83.7,23.628,186.808,23.727,373.458,74.771,373.4,137.516" fill="#759b75"/>
      <path id="패스_16430" data-name="패스 16430" d="M360.3,102.915c-.054,56.744-79.659,102.668-177.8,102.574S4.838,159.318,4.893,102.574,84.552-.095,182.7,0,360.354,46.171,360.3,102.915" fill="#95b596"/>
      <path id="패스_16431" data-name="패스 16431" d="M315.757,100.039c-2.069.462-4.645.679-5.127-.833-.364-1.14.847-2.7,2.31-3.512a12.606,12.606,0,0,1,4.629-1.267c2.073-.268,13.06.794,13.06.794s-12.5,4.289-14.872,4.818" fill="#f8fff9"/>
      <path id="패스_16432" data-name="패스 16432" d="M318.553,107.333c-1.83,1.249-4.329,2.549-5.754,1.691-1.074-.648-.8-2.292.2-3.522a13.7,13.7,0,0,1,3.951-2.96c1.953-1.113,13.837-5.249,13.837-5.249s-10.132,8.609-12.23,10.04" fill="#f8fff9"/>
      <path id="패스_16433" data-name="패스 16433" d="M325.907,111.267c-1.1,1.7-2.853,3.737-4.838,3.761a2.014,2.014,0,0,1-1.971-2.587,10.057,10.057,0,0,1,2.213-3.861c1.31-1.659,10.907-9.885,10.907-9.885s-5.05,10.622-6.311,12.572" fill="#f8fff9"/>
      <path id="패스_16434" data-name="패스 16434" d="M335.847,110.788c-.076,1.7-.613,3.923-2.627,4.824a2.765,2.765,0,0,1-3.608-.96,5.985,5.985,0,0,1-.118-3.726c.316-1.761,5.054-11.873,5.054-11.873s1.386,9.789,1.3,11.735" fill="#f8fff9"/>
      <path id="패스_16435" data-name="패스 16435" d="M345.711,106.023c.969,1.239,1.792,3.058.289,4.594a4.206,4.206,0,0,1-4.28.924,5.181,5.181,0,0,1-2.417-2.593c-.763-1.39-2.153-10.679-2.153-10.679s7.451,6.334,8.561,7.754" fill="#f8fff9"/>
      <path id="패스_16436" data-name="패스 16436" d="M352.856,98.25c1.754.449,3.716,1.374,3.127,3.133-.445,1.327-2.264,2.379-3.8,2.561a8.125,8.125,0,0,1-4.068-.765c-1.637-.648-8.783-6.624-8.783-6.624s11.519,1.181,13.529,1.695" fill="#f8fff9"/>
      <path id="패스_16437" data-name="패스 16437" d="M355.366,89.551c2.069-.462,4.645-.679,5.127.833.364,1.14-.847,2.7-2.31,3.512a12.606,12.606,0,0,1-4.629,1.267c-2.073.268-13.06-.794-13.06-.794s12.5-4.289,14.872-4.818" fill="#f8fff9"/>
      <path id="패스_16438" data-name="패스 16438" d="M352.57,82.257c1.83-1.249,4.329-2.549,5.754-1.691,1.074.648.795,2.292-.2,3.522a13.7,13.7,0,0,1-3.951,2.96C352.224,88.161,340.34,92.3,340.34,92.3s10.132-8.609,12.23-10.04" fill="#f8fff9"/>
      <path id="패스_16439" data-name="패스 16439" d="M345.217,78.323c1.1-1.7,2.853-3.737,4.838-3.761a2.014,2.014,0,0,1,1.971,2.587,10.057,10.057,0,0,1-2.213,3.861c-1.31,1.659-10.907,9.885-10.907,9.885s5.05-10.622,6.311-12.572" fill="#f8fff9"/>
      <path id="패스_16440" data-name="패스 16440" d="M335.276,78.8c.076-1.7.613-3.923,2.627-4.824a2.765,2.765,0,0,1,3.608.96,5.985,5.985,0,0,1,.118,3.726c-.316,1.761-5.054,11.873-5.054,11.873s-1.386-9.789-1.3-11.735" fill="#f8fff9"/>
      <path id="패스_16441" data-name="패스 16441" d="M325.412,83.567c-.969-1.239-1.792-3.058-.289-4.594a4.206,4.206,0,0,1,4.28-.924,5.181,5.181,0,0,1,2.417,2.593c.763,1.39,2.153,10.679,2.153,10.679s-7.451-6.334-8.561-7.754" fill="#f8fff9"/>
      <path id="패스_16442" data-name="패스 16442" d="M318.268,91.34c-1.754-.449-3.716-1.374-3.127-3.133.445-1.327,2.264-2.379,3.805-2.561a8.125,8.125,0,0,1,4.068.765c1.637.648,8.783,6.624,8.783,6.624s-11.519-1.181-13.529-1.7" fill="#f8fff9"/>
      <path id="패스_16443" data-name="패스 16443" d="M319.915,124.006a14.343,14.343,0,0,1-4.206,3.138,32.218,32.218,0,0,1-10.594,2.661l-.667.081a35.181,35.181,0,0,0-8.655,1.767c-3.854,1.511-7.9,4.334-9.536,6.408-2.16,2.76-5.259,10.1-6.2,9.912s2.1-8.2,4.484-11.242a24.336,24.336,0,0,1,10.061-7.7,39.211,39.211,0,0,1,9.85-2.069l.66-.081a28.179,28.179,0,0,0,9.019-2.189c2.172-1.078,4.182-5.272,4.182-5.272s.671-1.593,1.686-1.781,1.9.3,1.988,1.1a6.949,6.949,0,0,1-2.073,5.27" fill="#7da081"/>
      <path id="패스_16444" data-name="패스 16444" d="M295.954,118.562c1.546-3.3,4.451-6.2,7.3-9.02-.2.2.792,2.985.842,3.4a15.616,15.616,0,0,1-.038,3.9,18.153,18.153,0,0,1-2.886,7.765c-1.34,1.968-3.4,2.892-5.249,1.149-1.8-1.7-.978-5.035.035-7.2" fill="#7da081"/>
      <path id="패스_16445" data-name="패스 16445" d="M328.312,69.63c.278-2.241,1.63-4.389,2.961-6.479-.093.145,1.319,1.772,1.46,2.028a9.911,9.911,0,0,1,.954,2.438,9.411,9.411,0,0,1-.115,5.183,2.268,2.268,0,0,1-3.474,1.327c-1.721-.852-1.968-3.029-1.786-4.5" fill="#7da081"/>
      <path id="패스_16446" data-name="패스 16446" d="M363.182,72.354a27.253,27.253,0,0,1,8.215-1.706,25.8,25.8,0,0,0-1.808,2.258,18.686,18.686,0,0,1-2.43,2.136,18.927,18.927,0,0,1-5.852,2.993c-1.7.485-3.016.07-2.6-1.722.406-1.749,2.77-3.219,4.475-3.959" fill="#7da081"/>
      <path id="패스_16447" data-name="패스 16447" d="M367.989,95.519a17.177,17.177,0,0,1,6.27,3.506c-.128-.1-2.74.668-3.112.727a21.033,21.033,0,0,1-3.355.261,15.869,15.869,0,0,1-6.1-1.082c-1.421-.621-1.79-1.73.1-2.91,1.841-1.152,4.546-.922,6.2-.5" fill="#7da081"/>
      <path id="패스_16448" data-name="패스 16448" d="M343.373,119.154c.215,2.186-.678,4.435-1.562,6.625.062-.152-1.726-1.51-1.925-1.735a10.492,10.492,0,0,1-1.5-2.2,8.894,8.894,0,0,1-1.03-4.98c.165-1.393,1.244-2.351,3.221-1.764,1.929.572,2.66,2.623,2.8,4.054" fill="#7da081"/>
      <path id="패스_16449" data-name="패스 16449" d="M296.511,136.144a24.872,24.872,0,0,1,8.083,2.641c-.174-.081-2.791,1.036-3.181,1.145a24.007,24.007,0,0,1-3.606.714,20.765,20.765,0,0,1-7.081-.251c-1.773-.426-2.553-1.48-.874-2.91,1.64-1.4,4.7-1.533,6.659-1.339" fill="#7da081"/>
      <path id="패스_16450" data-name="패스 16450" d="M60.681,103.725c.618-1.681,1.786-3.562,3.725-3a4.238,4.238,0,0,1,2.629,3.639,7.13,7.13,0,0,1-1.125,3.9c-.834,1.569-8.014,8.423-8.014,8.423s2.076-11.034,2.785-12.96" fill="#f8fff9"/>
      <path id="패스_16451" data-name="패스 16451" d="M51.071,101.335c-.384-1.981-.46-4.448,1.27-4.912,1.3-.35,2.974.808,3.8,2.206a10.153,10.153,0,0,1,1.123,4.432c.166,1.985-1.743,12.509-1.743,12.509s-4-11.965-4.445-14.235" fill="#f8fff9"/>
      <path id="패스_16452" data-name="패스 16452" d="M42.694,104.025c-1.284-1.751-2.583-4.142-1.525-5.508.8-1.029,2.627-.766,3.944.182a12.243,12.243,0,0,1,3.069,3.779c1.123,1.868,5,13.243,5,13.243s-9.013-9.69-10.485-11.7" fill="#f8fff9"/>
      <path id="패스_16453" data-name="패스 16453" d="M37.795,111.074c-1.84-1.051-4.013-2.727-3.911-4.628.077-1.433,1.575-2.134,3.035-1.891a10.984,10.984,0,0,1,4.194,2.113c1.779,1.252,10.4,10.429,10.4,10.429s-11.6-4.818-13.714-6.023" fill="#f8fff9"/>
      <path id="패스_16454" data-name="패스 16454" d="M37.687,120.593c-1.9-.07-4.368-.58-5.249-2.508a2.576,2.576,0,0,1,1.314-3.457,7.884,7.884,0,0,1,4.194-.119c1.958.3,13.011,4.821,13.011,4.821s-11.089,1.343-13.27,1.263" fill="#f8fff9"/>
      <path id="패스_16455" data-name="패스 16455" d="M42.4,130.032c-1.456.93-3.553,1.721-5.181.284a3.472,3.472,0,0,1-.76-4.1,6.138,6.138,0,0,1,3.071-2.319c1.612-.733,12.139-2.08,12.139-2.08s-7.6,7.146-9.269,8.212" fill="#f8fff9"/>
      <path id="패스_16456" data-name="패스 16456" d="M50.668,136.862c-.618,1.681-1.786,3.562-3.724,3a4.239,4.239,0,0,1-2.63-3.639,7.147,7.147,0,0,1,1.125-3.9c.834-1.569,8.014-8.423,8.014-8.423s-2.076,11.034-2.785,12.96" fill="#f8fff9"/>
      <path id="패스_16457" data-name="패스 16457" d="M60.278,139.252c.384,1.981.46,4.448-1.27,4.912-1.3.35-2.974-.809-3.795-2.206a10.153,10.153,0,0,1-1.123-4.432c-.166-1.985,1.743-12.509,1.743-12.509s4,11.965,4.445,14.235" fill="#f8fff9"/>
      <path id="패스_16458" data-name="패스 16458" d="M68.655,136.562c1.284,1.751,2.583,4.142,1.525,5.508-.8,1.029-2.627.766-3.944-.182a12.243,12.243,0,0,1-3.069-3.779c-1.123-1.868-5-13.243-5-13.243s9.013,9.69,10.485,11.7" fill="#f8fff9"/>
      <path id="패스_16459" data-name="패스 16459" d="M73.554,129.512c1.84,1.051,4.013,2.727,3.911,4.628-.077,1.433-1.575,2.134-3.035,1.891a10.984,10.984,0,0,1-4.194-2.113c-1.779-1.252-10.4-10.429-10.4-10.429s11.6,4.818,13.714,6.023" fill="#f8fff9"/>
      <path id="패스_16460" data-name="패스 16460" d="M73.662,119.993c1.9.07,4.368.58,5.249,2.508a2.576,2.576,0,0,1-1.314,3.457,7.884,7.884,0,0,1-4.194.119c-1.958-.3-13.011-4.821-13.011-4.821s11.089-1.343,13.27-1.263" fill="#f8fff9"/>
      <path id="패스_16461" data-name="패스 16461" d="M68.951,110.554c1.456-.93,3.553-1.721,5.181-.284a3.474,3.474,0,0,1,.76,4.1,6.142,6.142,0,0,1-3.071,2.319c-1.612.733-12.14,2.08-12.14,2.08s7.6-7.146,9.27-8.212" fill="#f8fff9"/>
      <path id="패스_16462" data-name="패스 16462" d="M31.85,92.448a10.591,10.591,0,0,1-1.18-4.71c-.016-3.278,1.393-6.134,2.837-8.778l.275-.5c1.272-2.317,2.474-4.507,2.771-6.932A18.289,18.289,0,0,0,34.66,61.262c-1.878-3.094-8.322-9.525-7.6-10.053S35,57.464,37.07,60.879c1.677,2.772,3.575,6.994,3.036,11.38-.359,2.955-1.747,5.481-3.087,7.922l-.271.5c-1.275,2.328-2.514,4.822-2.5,7.427.009,2.113,3.559,5.95,3.559,5.95s1.4,1.395,1.054,2.2a1.7,1.7,0,0,1-2.3.708,9.713,9.713,0,0,1-4.708-4.513" fill="#7da081"/>
      <path id="패스_16463" data-name="패스 16463" d="M50.972,79.341c2.814,3,4.441,6.68,6.01,10.276-.109-.25-3.741-1.218-4.233-1.431a28.53,28.53,0,0,1-4.3-2.32,26.174,26.174,0,0,1-7.029-6.535c-1.449-2.072-1.346-4.018,1.594-4.25,2.871-.227,6.114,2.3,7.957,4.26" fill="#7da081"/>
      <path id="패스_16464" data-name="패스 16464" d="M87.523,130.17A22.484,22.484,0,0,1,93.086,136a28.112,28.112,0,0,0-3.045-.2,18.808,18.808,0,0,1-3.223-.786,16.93,16.93,0,0,1-5.681-3.129c-1.28-1.132-1.5-2.46.427-3.146,1.884-.67,4.432.443,5.959,1.431" fill="#7da081"/>
      <path id="패스_16465" data-name="패스 16465" d="M65.455,152.3c-.17,2.437-1.392,4.547-2.6,6.6a25.907,25.907,0,0,0-1.515-2.56,15.175,15.175,0,0,1-1.039-2.912,11.823,11.823,0,0,1-.12-5.745c.392-1.445,1.57-2.1,3.328-.757,1.717,1.307,2.055,3.781,1.943,5.377" fill="#7da081"/>
      <path id="패스_16466" data-name="패스 16466" d="M37.158,141.941c-2.093,1.343-4.733,1.785-7.31,2.205a19.4,19.4,0,0,0,.894-2.547,12.356,12.356,0,0,1,1.543-2.437,11.781,11.781,0,0,1,4.532-3.517c1.465-.6,2.9-.2,3.172,1.779.271,1.931-1.461,3.637-2.831,4.517" fill="#7da081"/>
      <path id="패스_16467" data-name="패스 16467" d="M24.412,111.273a23.417,23.417,0,0,1-6.489-4.962,26.605,26.605,0,0,0,2.975-.29,17.9,17.9,0,0,1,3.26.271,16.873,16.873,0,0,1,6.082,2.23c1.453.931,1.925,2.23.195,3.23-1.688.977-4.36.268-6.023-.479" fill="#7da081"/>
      <path id="패스_16468" data-name="패스 16468" d="M31.183,69.371C29.215,71.238,26.5,72.3,23.84,73.319a20.562,20.562,0,0,0,.469-2.84A13.521,13.521,0,0,1,25.488,67.6a13.3,13.3,0,0,1,4.147-4.672c1.441-.956,3.033-.867,3.7,1.118.651,1.937-.864,4.1-2.153,5.321" fill="#7da081"/>
      <path id="패스_16469" data-name="패스 16469" d="M191.7,166.123c-1.726-1.576-3.469-3.845-2.036-5.6,1.08-1.322,3.548-1.5,5.321-.806a10.816,10.816,0,0,1,4.127,3.326c1.509,1.744,6.691,13.122,6.691,13.122s-12.125-8.238-14.1-10.044" fill="#f8fff9"/>
      <path id="패스_16470" data-name="패스 16470" d="M185.056,175.032c-2.479-.674-5.4-1.942-5.26-4.034.11-1.578,2.135-2.721,4.1-2.828a13.993,13.993,0,0,1,5.651,1.229c2.4.907,13.989,8.689,13.989,8.689s-15.643-2.283-18.484-3.056" fill="#f8fff9"/>
      <path id="패스_16471" data-name="패스 16471" d="M184.872,185.406c-2.567.408-5.893.481-7.074-1.389-.891-1.411.149-3.211,1.787-4.093a14.02,14.02,0,0,1,5.66-1.2c2.641-.173,17.54,1.928,17.54,1.928s-14.97,4.283-17.913,4.751" fill="#f8fff9"/>
      <path id="패스_16472" data-name="패스 16472" d="M191.193,194.466c-1.968,1.381-4.8,2.775-6.992,1.628a2.96,2.96,0,0,1-1.01-4.26,10.843,10.843,0,0,1,4.153-3.3c2.179-1.206,16.39-5.35,16.39-5.35s-10.285,9.7-12.541,11.285" fill="#f8fff9"/>
      <path id="패스_16473" data-name="패스 16473" d="M202.326,199.785c-.842,1.984-2.424,4.326-5.038,4.209a3.751,3.751,0,0,1-3.535-3.287c-.136-1.576.69-3.094,1.533-4.522,1.133-1.918,10.849-11.195,10.849-11.195s-2.845,12.521-3.809,14.795" fill="#f8fff9"/>
      <path id="패스_16474" data-name="패스 16474" d="M215.286,199.936c.511,2.055.6,4.717-1.733,5.662a4.817,4.817,0,0,1-5.113-1.432,7.968,7.968,0,0,1-1.5-4.531c-.217-2.115,2.4-14.04,2.4-14.04s5.357,11.985,5.943,14.341" fill="#f8fff9"/>
      <path id="패스_16475" data-name="패스 16475" d="M226.6,194.88c1.726,1.576,3.469,3.845,2.036,5.6-1.08,1.322-3.548,1.5-5.321.806a10.816,10.816,0,0,1-4.127-3.326c-1.509-1.744-6.691-13.122-6.691-13.122s12.125,8.238,14.1,10.044" fill="#f8fff9"/>
      <path id="패스_16476" data-name="패스 16476" d="M233.24,185.971c2.479.674,5.4,1.942,5.26,4.034-.11,1.578-2.135,2.721-4.1,2.828a13.993,13.993,0,0,1-5.651-1.229c-2.4-.907-13.989-8.689-13.989-8.689s15.643,2.283,18.484,3.056" fill="#f8fff9"/>
      <path id="패스_16477" data-name="패스 16477" d="M233.424,175.6c2.567-.408,5.893-.481,7.074,1.389.891,1.411-.149,3.211-1.787,4.093a14.02,14.02,0,0,1-5.66,1.2c-2.641.173-17.54-1.928-17.54-1.928s14.97-4.283,17.913-4.751" fill="#f8fff9"/>
      <path id="패스_16478" data-name="패스 16478" d="M227.1,166.537c1.968-1.381,4.8-2.775,6.992-1.628a2.96,2.96,0,0,1,1.01,4.26,10.843,10.843,0,0,1-4.153,3.3c-2.179,1.207-16.39,5.35-16.39,5.35s10.285-9.7,12.541-11.285" fill="#f8fff9"/>
      <path id="패스_16479" data-name="패스 16479" d="M215.971,161.219c.841-1.984,2.424-4.326,5.037-4.209a3.75,3.75,0,0,1,3.535,3.287,7.974,7.974,0,0,1-1.533,4.522c-1.132,1.918-10.849,11.2-10.849,11.2s2.846-12.521,3.81-14.8" fill="#f8fff9"/>
      <path id="패스_16480" data-name="패스 16480" d="M203.01,161.067c-.511-2.055-.6-4.717,1.733-5.662a4.817,4.817,0,0,1,5.113,1.432,7.968,7.968,0,0,1,1.5,4.531c.217,2.115-2.4,14.04-2.4,14.04s-5.357-11.985-5.943-14.341" fill="#f8fff9"/>
      <path id="패스_16481" data-name="패스 16481" d="M166.956,190.6a14.623,14.623,0,0,1-6-1.32c-3.854-1.775-6.645-4.834-9.173-7.815l-.479-.566c-2.214-2.618-4.305-5.092-7.033-6.733-3.953-2.378-9.5-3.819-12.8-3.6-4.382.3-14.5,3.639-14.832,2.581s10.508-5.018,15.344-5.354c3.922-.266,9.635.025,14.569,3,3.326,2,5.738,4.853,8.069,7.612l.476.56c2.226,2.627,4.658,5.308,7.722,6.719,2.484,1.146,8.4-.53,8.4-.53s2.2-.725,3,.081a1.928,1.928,0,0,1-.085,2.832,10.593,10.593,0,0,1-7.176,2.537" fill="#7da081"/>
      <path id="패스_16482" data-name="패스 16482" d="M159.2,163.115c4.64-1.354,9.614-1.069,14.46-.771-.336-.021-2.921,3.31-3.368,3.717a29.645,29.645,0,0,1-14.914,7.2c-3.009.408-5.254-.765-4.353-4.017.879-3.175,5.136-5.242,8.175-6.129" fill="#7da081"/>
      <path id="패스_16483" data-name="패스 16483" d="M233.447,152.049c2.7-1.654,5.921-2.205,9.062-2.726a27.652,27.652,0,0,0-1.449,3.127,18.089,18.089,0,0,1-2.208,3,16.852,16.852,0,0,1-5.939,4.328c-1.84.742-3.488.254-3.523-2.173-.035-2.37,2.288-4.469,4.057-5.552" fill="#7da081"/>
      <path id="패스_16484" data-name="패스 16484" d="M250.628,187.6c2.793,1.513,4.782,3.966,6.708,6.366a31.825,31.825,0,0,0-3.61.211,20.211,20.211,0,0,1-3.832-.487,17.411,17.411,0,0,1-6.793-3.013c-1.539-1.206-1.832-2.813.44-3.951,2.218-1.11,5.258-.117,7.087.874" fill="#7da081"/>
      <path id="패스_16485" data-name="패스 16485" d="M227.175,212.016c.742,2.958.208,6.007-.328,8.975a29.42,29.42,0,0,0-2.632-2.342,18.064,18.064,0,0,1-2.246-2.973,15.4,15.4,0,0,1-2.321-6.739c-.121-1.886.92-3.186,3.353-2.4,2.375.768,3.688,3.542,4.174,5.479" fill="#7da081"/>
      <path id="패스_16486" data-name="패스 16486" d="M186.089,208.8c-2.352,2.076-5.419,3.151-8.414,4.184a27.332,27.332,0,0,0,.847-3.32,17.59,17.59,0,0,1,1.618-3.317,16.374,16.374,0,0,1,5.044-5.245c1.673-1.035,3.386-.827,3.87,1.558.473,2.328-1.425,4.78-2.965,6.14" fill="#7da081"/>
      <path id="패스_16487" data-name="패스 16487" d="M139.6,178.7c1.407,3.112,1.566,6.581,1.706,9.962a31.235,31.235,0,0,0-3.147-2.05,20.426,20.426,0,0,1-2.9-2.824,18.657,18.657,0,0,1-3.831-6.962c-.547-2.054.193-3.7,2.789-3.323,2.534.367,4.467,3.159,5.388,5.2" fill="#7da081"/>
    </g>
  </g>
  <g id="그룹_6749" data-name="그룹 6749">
    <g id="그룹_6748" data-name="그룹 6748" clip-path="url(#clip-path)">
      <path id="패스_16489" data-name="패스 16489" d="M186.715,122.5c-48.223-.046-87.434-21.076-87.41-46.882S138.582,28.857,186.8,28.9s87.43,21.076,87.406,46.879-39.277,46.76-87.5,46.714m.088-91.2c-46.9-.045-85.085,19.84-85.109,44.325s38.119,44.445,85.024,44.49,85.08-19.84,85.1-44.327S233.706,31.337,186.8,31.292" fill="#d8efdb"/>
      <path id="패스_16490" data-name="패스 16490" d="M186.7,142.273c-29.56-.029-56.418-6.163-76.278-16.1l-.792,2.178c20.2,10.088,47.3,16.285,77.068,16.314,22.71.022,43.865-3.562,61.61-9.718.032-.823.069-1.646.1-2.47-17.647,6.205-38.88,9.821-61.7,9.8" fill="#d8efdb"/>
      <path id="패스_16491" data-name="패스 16491" d="M99.873,120.039A72.519,72.519,0,0,1,88.6,111c-.449.379-.912.763-1.348,1.135-.135.115-.263.239-.4.355a75.324,75.324,0,0,0,11.74,9.414c.418-.63.848-1.252,1.284-1.87" fill="#d8efdb"/>
      <path id="패스_16492" data-name="패스 16492" d="M186.81,23.945c-62.368-.06-113.132,26.968-113.164,60.249A34.826,34.826,0,0,0,78.127,101c.72-.311,1.449-.6,2.182-.883A32.88,32.88,0,0,1,76.035,84.2c.03-31.965,49.723-57.921,110.773-57.862S297.5,52.444,297.467,84.409c-.015,16.291-12.964,31.005-33.711,41.526.428.627.844,1.262,1.237,1.912,21.436-10.966,34.847-26.364,34.863-43.436C299.888,51.13,249.176,24,186.81,23.945" fill="#d8efdb"/>
      <path id="패스_16493" data-name="패스 16493" d="M123.593,41.1l14.159,41.339s6.055,19.822,51.276,19.865,53.564-24.619,53.564-24.619l11.27-42.213Z" fill="#a8cca8"/>
      <path id="패스_16494" data-name="패스 16494" d="M244.968,37.257C244.951,55.189,219.3,69.7,187.687,69.673s-57.236-14.594-57.219-32.527S156.131,4.7,187.749,4.73s57.236,14.594,57.219,32.527" fill="#5d7b6f"/>
      <path id="패스_16495" data-name="패스 16495" d="M187.683,74.035C153.059,74,124.908,57.451,124.928,37.141S153.13.336,187.753.369s62.775,16.583,62.755,36.893-28.2,36.806-62.825,36.773m2.253-36.872c-20.856-.02-37.831,8.17-37.841,18.257s16.95,18.31,37.806,18.33,37.831-8.17,37.841-18.257-16.95-18.31-37.806-18.33" fill="#c3e2c6"/>
      <path id="패스_16496" data-name="패스 16496" d="M188.3,75c-36.842-.035-65.687-16.4-65.667-37.245S151.527.6,188.37.638s65.689,16.4,65.669,37.245S225.143,75.036,188.3,75m.067-69.511c-33.554-.032-60.866,14.444-60.883,32.271S154.749,70.117,188.3,70.149s60.87-14.444,60.888-32.271S221.922,5.522,188.365,5.49" fill="#d4fcd4"/>
    </g>
  </g>
</svg>
