<svg id="효과_눈썹" xmlns="http://www.w3.org/2000/svg" xmlns:xlink="http://www.w3.org/1999/xlink" width="335.336" height="88.033" viewBox="0 0 335.336 88.033">
  <defs>
    <clipPath id="clip-path">
      <rect id="사각형_5089" data-name="사각형 5089" width="335.336" height="88.033" transform="translate(0 0)" fill="none"/>
    </clipPath>
  </defs>
  <g id="그룹_6765" data-name="그룹 6765" clip-path="url(#clip-path)">
    <path id="패스_16500" data-name="패스 16500" d="M214.64,87.947s5.6-17.111,10.919-20.669,11.626-4.436,17.738-5.241l43.93-5.785c8.28-1.09,16.675-2.179,24.915-.753s16.71,8.946,21.617,16.68c-34.547.629-119.119,15.768-119.119,15.768" fill="#515151"/>
    <path id="패스_16501" data-name="패스 16501" d="M213.369,88.013a28.619,28.619,0,0,1,6.492-16.978" fill="none" stroke="#111" stroke-miterlimit="10" stroke-width="0.852"/>
    <path id="패스_16502" data-name="패스 16502" d="M218.208,84.076c.482-6.738,4.472-12.989,9.924-15.546" fill="none" stroke="#111" stroke-miterlimit="10" stroke-width="0.852"/>
    <path id="패스_16503" data-name="패스 16503" d="M223.582,83.362c3.364-9.406,11-16.634,19.687-18.628" fill="none" stroke="#111" stroke-miterlimit="10" stroke-width="0.852"/>
    <path id="패스_16504" data-name="패스 16504" d="M229.064,83.415s5.1-15.944,19.153-19.763" fill="none" stroke="#111" stroke-miterlimit="10" stroke-width="0.852"/>
    <path id="패스_16505" data-name="패스 16505" d="M233.857,82.061a60.868,60.868,0,0,1,25.82-22.27" fill="none" stroke="#111" stroke-miterlimit="10" stroke-width="0.852"/>
    <path id="패스_16506" data-name="패스 16506" d="M240.906,80.957a68.248,68.248,0,0,1,22.37-19.976" fill="none" stroke="#111" stroke-miterlimit="10" stroke-width="0.852"/>
    <path id="패스_16507" data-name="패스 16507" d="M248.464,80.56A81.688,81.688,0,0,1,268.43,60.917" fill="none" stroke="#111" stroke-miterlimit="10" stroke-width="0.852"/>
    <path id="패스_16508" data-name="패스 16508" d="M256.605,79.616a57.269,57.269,0,0,1,23.612-22.591" fill="none" stroke="#111" stroke-miterlimit="10" stroke-width="0.852"/>
    <path id="패스_16509" data-name="패스 16509" d="M263.981,77.816c6.183-10.112,15.436-17.7,25.774-21.129" fill="none" stroke="#111" stroke-miterlimit="10" stroke-width="0.852"/>
    <path id="패스_16510" data-name="패스 16510" d="M269.385,76.169a61.264,61.264,0,0,1,29.39-20.092" fill="none" stroke="#111" stroke-miterlimit="10" stroke-width="0.852"/>
    <path id="패스_16511" data-name="패스 16511" d="M277.562,73.449a58.462,58.462,0,0,1,26.262-16.332" fill="none" stroke="#111" stroke-miterlimit="10" stroke-width="0.852"/>
    <path id="패스_16512" data-name="패스 16512" d="M282.782,74.3a68.479,68.479,0,0,1,27.461-16.346" fill="none" stroke="#111" stroke-miterlimit="10" stroke-width="0.852"/>
    <path id="패스_16513" data-name="패스 16513" d="M291.895,71.935a53.311,53.311,0,0,1,23.711-11.186" fill="none" stroke="#111" stroke-miterlimit="10" stroke-width="0.852"/>
    <path id="패스_16514" data-name="패스 16514" d="M295.761,72.682A53.917,53.917,0,0,1,323.075,62.1" fill="none" stroke="#111" stroke-miterlimit="10" stroke-width="0.852"/>
    <path id="패스_16515" data-name="패스 16515" d="M309.674,70.7A45.2,45.2,0,0,1,328.3,66.388" fill="none" stroke="#111" stroke-miterlimit="10" stroke-width="0.852"/>
    <path id="패스_16516" data-name="패스 16516" d="M318.9,71.048a20.985,20.985,0,0,1,13.553-2.322" fill="none" stroke="#111" stroke-miterlimit="10" stroke-width="0.852"/>
    <path id="패스_16517" data-name="패스 16517" d="M326.537,71.932a24.33,24.33,0,0,1,8.771-1.046" fill="none" stroke="#111" stroke-miterlimit="10" stroke-width="0.852"/>
    <path id="패스_16518" data-name="패스 16518" d="M134.162,86.31s-6.615-16.127-12.2-19.2-12.032-3.486-18.274-3.846L58.826,60.686c-8.456-.487-17.029-.965-25.308.974S17.06,71.433,12.505,79.229c35.069-1.752,121.657,7.081,121.657,7.081" fill="#515151"/>
    <path id="패스_16519" data-name="패스 16519" d="M135.454,86.287a26.6,26.6,0,0,0-7.508-15.938" fill="none" stroke="#111" stroke-miterlimit="10" stroke-width="0.852"/>
    <path id="패스_16520" data-name="패스 16520" d="M130.333,82.819c-.856-6.468-5.242-12.227-10.91-14.322" fill="none" stroke="#111" stroke-miterlimit="10" stroke-width="0.852"/>
    <path id="패스_16521" data-name="패스 16521" d="M124.844,82.5c-3.924-8.846-12.063-15.3-20.979-16.629" fill="none" stroke="#111" stroke-miterlimit="10" stroke-width="0.852"/>
    <path id="패스_16522" data-name="패스 16522" d="M119.287,82.922s-6.037-15.035-20.5-17.761" fill="none" stroke="#111" stroke-miterlimit="10" stroke-width="0.852"/>
    <path id="패스_16523" data-name="패스 16523" d="M114.354,81.943a60.171,60.171,0,0,0-27.4-19.724" fill="none" stroke="#111" stroke-miterlimit="10" stroke-width="0.852"/>
    <path id="패스_16524" data-name="패스 16524" d="M107.145,81.359A67.541,67.541,0,0,0,83.371,63.613" fill="none" stroke="#111" stroke-miterlimit="10" stroke-width="0.852"/>
    <path id="패스_16525" data-name="패스 16525" d="M99.459,81.492A79.95,79.95,0,0,0,78.142,63.9" fill="none" stroke="#111" stroke-miterlimit="10" stroke-width="0.852"/>
    <path id="패스_16526" data-name="패스 16526" d="M91.152,81.137A56.172,56.172,0,0,0,65.977,60.952" fill="none" stroke="#111" stroke-miterlimit="10" stroke-width="0.852"/>
    <path id="패스_16527" data-name="패스 16527" d="M83.573,79.9A48.523,48.523,0,0,0,56.286,61.278" fill="none" stroke="#111" stroke-miterlimit="10" stroke-width="0.852"/>
    <path id="패스_16528" data-name="패스 16528" d="M78,78.683A61.577,61.577,0,0,0,47.1,61.3" fill="none" stroke="#111" stroke-miterlimit="10" stroke-width="0.852"/>
    <path id="패스_16529" data-name="패스 16529" d="M69.563,76.618A59.13,59.13,0,0,0,42.042,62.653" fill="none" stroke="#111" stroke-miterlimit="10" stroke-width="0.852"/>
    <path id="패스_16530" data-name="패스 16530" d="M64.316,77.8A69.474,69.474,0,0,0,35.578,63.9" fill="none" stroke="#111" stroke-miterlimit="10" stroke-width="0.852"/>
    <path id="패스_16531" data-name="패스 16531" d="M54.945,76.135a54.8,54.8,0,0,0-24.654-9.174" fill="none" stroke="#111" stroke-miterlimit="10" stroke-width="0.852"/>
    <path id="패스_16532" data-name="패스 16532" d="M51.066,77.12A55.91,55.91,0,0,0,22.79,68.771" fill="none" stroke="#111" stroke-miterlimit="10" stroke-width="0.852"/>
    <path id="패스_16533" data-name="패스 16533" d="M36.848,76.155a47.605,47.605,0,0,0-19.126-2.886" fill="none" stroke="#111" stroke-miterlimit="10" stroke-width="0.852"/>
    <path id="패스_16534" data-name="패스 16534" d="M27.508,77.124a22.179,22.179,0,0,0-13.87-1.315" fill="none" stroke="#111" stroke-miterlimit="10" stroke-width="0.852"/>
    <path id="패스_16535" data-name="패스 16535" d="M19.815,78.5a25.866,25.866,0,0,0-8.952-.411" fill="none" stroke="#111" stroke-miterlimit="10" stroke-width="0.852"/>
    <path id="패스_16536" data-name="패스 16536" d="M288.242,1.66c-1.867,6.181-5.8,13.823-14.072,17.966a2.329,2.329,0,0,0,.106,4.206,25.584,25.584,0,0,1,14.209,15.812,2.334,2.334,0,0,0,4.364.125c2.565-6.182,7.066-14.142,13.934-16.888a2.342,2.342,0,0,0,.543-4.09c-4.494-3.243-10.976-9.032-14.73-17.428a2.332,2.332,0,0,0-4.354.3" fill="#fff"/>
    <path id="패스_16537" data-name="패스 16537" d="M20.821,17.011a12.445,12.445,0,0,1-6.128,7.823,1.015,1.015,0,0,0,.047,1.832,11.137,11.137,0,0,1,6.187,6.885,1.016,1.016,0,0,0,1.9.054c1.117-2.692,3.077-6.158,6.067-7.353a1.02,1.02,0,0,0,.237-1.781,19.505,19.505,0,0,1-6.414-7.589,1.015,1.015,0,0,0-1.9.129" fill="#fff"/>
    <path id="패스_16538" data-name="패스 16538" d="M43.447,21.342c-1.323,4.378-4.108,9.791-9.968,12.726a1.65,1.65,0,0,0,.076,2.979,18.12,18.12,0,0,1,10.064,11.2,1.653,1.653,0,0,0,3.091.089c1.817-4.379,5.005-10.017,9.87-11.962a1.66,1.66,0,0,0,.385-2.9A31.713,31.713,0,0,1,46.531,21.132a1.652,1.652,0,0,0-3.084.21" fill="#fff"/>
    <path id="패스_16539" data-name="패스 16539" d="M5.384,56.814a10.03,10.03,0,0,1-4.936,6.3.817.817,0,0,0,.037,1.475,8.974,8.974,0,0,1,4.984,5.546A.819.819,0,0,0,7,70.181c.9-2.168,2.478-4.96,4.887-5.923a.822.822,0,0,0,.191-1.435A15.713,15.713,0,0,1,6.911,56.71a.818.818,0,0,0-1.527.1" fill="#fff"/>
    <path id="패스_16540" data-name="패스 16540" d="M316.44,33.6a10.962,10.962,0,0,1-5.4,6.889.893.893,0,0,0,.04,1.613,9.811,9.811,0,0,1,5.449,6.064.9.9,0,0,0,1.674.048c.983-2.371,2.709-5.423,5.343-6.476a.9.9,0,0,0,.208-1.569,17.16,17.16,0,0,1-5.648-6.683.9.9,0,0,0-1.67.114" fill="#fff"/>
  </g>
</svg>
