<svg id="버튼_분" xmlns="http://www.w3.org/2000/svg" xmlns:xlink="http://www.w3.org/1999/xlink" width="280.126" height="247.932" viewBox="0 0 280.126 247.932">
  <defs>
    <clipPath id="clip-path">
      <rect id="사각형_5078" data-name="사각형 5078" width="280.126" height="247.932" fill="none"/>
    </clipPath>
  </defs>
  <g id="그룹_6738" data-name="그룹 6738" clip-path="url(#clip-path)">
    <path id="패스_16287" data-name="패스 16287" d="M9.969,126.941,0,204.481s-1.4,40.147,59.34,43.371,97.315-91.06,136.884-106.137A239.853,239.853,0,0,1,240.379,129.7c18.124-3.141,32.048-17.24,34.337-35.055l5.4-42.051Z" fill="#6f9383"/>
    <path id="패스_16288" data-name="패스 16288" d="M250.908,14.522a104.89,104.89,0,0,0-57.161-3.931,52.349,52.349,0,0,1-29.162-2.322c-14.573-5.5-39-10.822-65.614-.09C78.4,16.472,71.007,31.64,68.4,42.731A40.28,40.28,0,0,1,53.689,65.545c-12.755,9.727-23.623,21.362-29.151,36.9-5.36,15.066-3.787,32.192,6.691,44.272,16.005,18.454,41.6,13.413,59.117.947,14.131-10.054,24.644-24.27,36.819-36.619,28.077-28.479,67.276-42.536,106.952-47.562,7.307-.926,13.412-6.075,20.246-8.826,10.069-4.052,18.847-14.174,12.328-26.9-3.225-6.3-9.143-10.8-15.783-13.241" fill="#a3c9a5"/>
    <path id="패스_16289" data-name="패스 16289" d="M222.737,12.059a97.019,97.019,0,0,1,21.085,5.13c6.4,2.352,12.114,6.7,15.225,12.772,6.287,12.273-2.179,22.036-11.893,25.945-6.592,2.654-13.814,3.142-20.863,4.035A175.178,175.178,0,0,0,124.462,110.3c-11.744,11.912-21.885,25.624-35.514,35.322-10.359,7.37-23.638,12.049-35.925,10.47a32.847,32.847,0,0,1-21.1-11.384C21.816,133.053,20.3,116.534,25.469,102,30.8,87.01,41.285,75.787,53.587,66.4A38.86,38.86,0,0,0,67.781,44.4C70.292,33.7,77.427,19.07,97.266,11.07A82.874,82.874,0,0,1,139.231,5.8a94.992,94.992,0,0,1,21.325,5.352,51.024,51.024,0,0,0,11.507,2.875,50.324,50.324,0,0,0,16.623-.635,103.345,103.345,0,0,1,34.051-1.338m4.3-4.946a119.218,119.218,0,0,0-39.455,1.544,33.875,33.875,0,0,1-11.219.428,34.632,34.632,0,0,1-7.815-1.954A111.051,111.051,0,0,0,143.534.859,98.863,98.863,0,0,0,93.363,7.178c-20.5,8.267-34.46,24.165-39.3,44.764A22.482,22.482,0,0,1,45.88,64.677C29.008,77.546,18.014,91.651,12.269,107.8c-7.461,20.971-3.818,43.544,9.509,58.909A49.293,49.293,0,0,0,53.153,183.6c15.455,1.986,32.766-2.886,47.5-13.367,10.839-7.712,19.307-17.107,27.5-26.193,3.484-3.865,6.774-7.515,10.183-10.973a157.955,157.955,0,0,1,92.233-45.611c1.073-.136,2.151-.262,3.23-.388,6.616-.775,14.115-1.653,21.687-4.7,10.616-4.273,18.746-12.187,22.3-21.713a33.039,33.039,0,0,0-1.957-26.872c-4.8-9.375-13.378-16.717-24.147-20.672a113.611,113.611,0,0,0-24.64-6" fill="#a3c9a5"/>
    <path id="패스_16290" data-name="패스 16290" d="M63.6,141.831a29.056,29.056,0,0,1-18.656-10.107c-8.319-9.589-10.5-23.947-5.691-37.469C43.36,82.708,51.131,72.862,63.706,63.27A32.8,32.8,0,0,0,75.684,44.7C77.908,35.229,84.192,22.48,101.5,15.5c21.924-8.833,42.027-4.839,55.028.07a42.872,42.872,0,0,0,23.86,1.9,87.442,87.442,0,0,1,47.879,3.292A24.227,24.227,0,0,1,241.756,32.1c2.174,4.246,2.532,8.4,1.059,12.34-1.724,4.617-6.082,8.713-11.658,10.958-4.861,1.956-10.139,2.574-15.245,3.172-.968.115-1.936.226-2.9.349a149.561,149.561,0,0,0-87.337,43.192c-3.15,3.193-6.222,6.6-9.191,9.895-6.57,7.289-13.362,14.825-21.5,20.616C85.76,139.183,74.245,143.2,63.6,141.831M137.773,12.246a70.578,70.578,0,0,0-35.764,4.519c-16.765,6.763-22.847,19.09-25,28.241A34.19,34.19,0,0,1,64.533,64.354c-12.357,9.426-19.982,19.071-24,30.356-4.644,13.062-2.561,26.9,5.434,36.121,12.971,14.95,33.565,11.112,48.224.679,8.014-5.7,14.757-13.182,21.278-20.418,2.98-3.3,6.059-6.724,9.23-9.939a150.942,150.942,0,0,1,88.14-43.587c.969-.123,1.94-.237,2.913-.351,5.016-.585,10.2-1.194,14.895-3.08,5.227-2.1,9.3-5.907,10.891-10.17a13.533,13.533,0,0,0-1-11.242A22.842,22.842,0,0,0,227.8,22.047a86.032,86.032,0,0,0-47.135-3.239,44.16,44.16,0,0,1-24.615-1.96,81.281,81.281,0,0,0-18.274-4.6" fill="#808e81"/>
    <path id="패스_16291" data-name="패스 16291" d="M114.713,49.015c-1.6-.261-3.464-.916-3.3-2.474.126-1.175,1.488-2.211,2.778-2.479a7.475,7.475,0,0,1,3.649.367c1.534.44,8.839,5.074,8.839,5.074s-10.141-.189-11.97-.488" fill="#ceedd0"/>
    <path id="패스_16292" data-name="패스 16292" d="M114.234,56.688c-1.691.547-3.866.918-4.573-.349-.533-.956.208-2.384,1.309-3.191a9.679,9.679,0,0,1,3.739-1.424c1.731-.38,11.392-.254,11.392-.254s-9.928,4.592-11.867,5.218" fill="#ceedd0"/>
    <path id="패스_16293" data-name="패스 16293" d="M118.05,62.769c-1.333,1.207-3.233,2.507-4.624,1.869-1.05-.48-1.128-1.916-.512-3.047a9.68,9.68,0,0,1,2.827-2.833c1.465-1.1,10.893-5.514,10.893-5.514s-7.056,8.141-8.584,9.525" fill="#ceedd0"/>
    <path id="패스_16294" data-name="패스 16294" d="M125.138,65.629c-.618,1.544-1.733,3.423-3.437,3.587a2.049,2.049,0,0,1-2.195-2.087,7.5,7.5,0,0,1,1.158-3.484c.806-1.523,7.475-9.3,7.475-9.3s-2.292,9.511-3,11.281" fill="#ceedd0"/>
    <path id="패스_16295" data-name="패스 16295" d="M133.6,64.5c.263,1.468.231,3.423-1.328,4.343a2.6,2.6,0,0,1-3.291-.567,5.523,5.523,0,0,1-.821-3.2c-.069-1.539,2.054-10.589,2.054-10.589S133.3,62.82,133.6,64.5" fill="#ceedd0"/>
    <path id="패스_16296" data-name="패스 16296" d="M141.167,59.69c1.073,1,2.133,2.505,1.137,3.936a3.332,3.332,0,0,1-3.505,1.1,5.512,5.512,0,0,1-2.581-2.059c-.925-1.143-3.917-9.043-3.917-9.043s7.636,4.919,8.866,6.063" fill="#ceedd0"/>
    <path id="패스_16297" data-name="패스 16297" d="M145.813,52.482c1.6.261,3.464.916,3.3,2.474-.127,1.175-1.489,2.211-2.778,2.479a7.5,7.5,0,0,1-3.649-.367c-1.534-.44-8.84-5.075-8.84-5.075s10.142.19,11.971.489" fill="#ceedd0"/>
    <path id="패스_16298" data-name="패스 16298" d="M146.291,44.809c1.691-.547,3.866-.918,4.573.349.533.956-.208,2.384-1.309,3.191a9.679,9.679,0,0,1-3.739,1.424c-1.731.38-11.392.254-11.392.254s9.928-4.592,11.867-5.218" fill="#ceedd0"/>
    <path id="패스_16299" data-name="패스 16299" d="M142.475,38.728c1.333-1.207,3.233-2.507,4.624-1.869,1.05.48,1.128,1.916.512,3.047a9.68,9.68,0,0,1-2.827,2.833c-1.465,1.1-10.893,5.514-10.893,5.514s7.056-8.141,8.584-9.525" fill="#ceedd0"/>
    <path id="패스_16300" data-name="패스 16300" d="M135.387,35.868c.618-1.544,1.733-3.423,3.437-3.587a2.049,2.049,0,0,1,2.195,2.087,7.5,7.5,0,0,1-1.158,3.484c-.806,1.523-7.475,9.3-7.475,9.3s2.292-9.511,3-11.281" fill="#ceedd0"/>
    <path id="패스_16301" data-name="패스 16301" d="M126.926,36.995c-.263-1.468-.231-3.423,1.328-4.343a2.6,2.6,0,0,1,3.291.567,5.523,5.523,0,0,1,.821,3.2c.069,1.539-2.054,10.589-2.054,10.589s-3.085-8.332-3.386-10.014" fill="#ceedd0"/>
    <path id="패스_16302" data-name="패스 16302" d="M119.358,41.807c-1.073-1-2.133-2.505-1.137-3.936a3.332,3.332,0,0,1,3.5-1.1,5.512,5.512,0,0,1,2.581,2.059c.925,1.143,3.917,9.043,3.917,9.043s-7.636-4.919-8.866-6.063" fill="#ceedd0"/>
    <path id="패스_16303" data-name="패스 16303" d="M72.091,97.465c-1.076-.176-2.335-.618-2.222-1.668a2.323,2.323,0,0,1,1.873-1.671,5.045,5.045,0,0,1,2.46.247,60.434,60.434,0,0,1,5.959,3.421s-6.837-.128-8.07-.329" fill="#ceedd0"/>
    <path id="패스_16304" data-name="패스 16304" d="M71.768,102.638c-1.14.368-2.607.619-3.083-.235-.36-.645.14-1.607.882-2.151a6.533,6.533,0,0,1,2.521-.961c1.167-.256,7.68-.171,7.68-.171s-6.693,3.1-8,3.518" fill="#ceedd0"/>
    <path id="패스_16305" data-name="패스 16305" d="M74.34,106.738c-.9.814-2.18,1.69-3.117,1.26-.707-.324-.76-1.292-.345-2.054a6.518,6.518,0,0,1,1.906-1.91c.987-.741,7.344-3.718,7.344-3.718s-4.758,5.489-5.788,6.422" fill="#ceedd0"/>
    <path id="패스_16306" data-name="패스 16306" d="M79.12,108.666c-.417,1.041-1.168,2.308-2.317,2.418a1.381,1.381,0,0,1-1.48-1.407,5.06,5.06,0,0,1,.781-2.349c.543-1.026,5.039-6.268,5.039-6.268s-1.545,6.413-2.023,7.606" fill="#ceedd0"/>
    <path id="패스_16307" data-name="패스 16307" d="M84.824,107.906c.177.99.156,2.308-.895,2.928a1.749,1.749,0,0,1-2.219-.383,3.72,3.72,0,0,1-.554-2.157,71.847,71.847,0,0,1,1.385-7.139s2.08,5.617,2.283,6.751" fill="#ceedd0"/>
    <path id="패스_16308" data-name="패스 16308" d="M89.926,104.662c.724.673,1.438,1.689.766,2.654a2.248,2.248,0,0,1-2.362.744,3.723,3.723,0,0,1-1.741-1.389,54.86,54.86,0,0,1-2.64-6.1s5.148,3.317,5.977,4.088" fill="#ceedd0"/>
    <path id="패스_16309" data-name="패스 16309" d="M93.058,99.8c1.076.176,2.335.618,2.223,1.668a2.326,2.326,0,0,1-1.874,1.671,5.045,5.045,0,0,1-2.46-.247,60.434,60.434,0,0,1-5.959-3.421s6.837.128,8.07.329" fill="#ceedd0"/>
    <path id="패스_16310" data-name="패스 16310" d="M93.381,94.629c1.14-.368,2.607-.619,3.083.235.36.645-.14,1.607-.882,2.151a6.533,6.533,0,0,1-2.521.961c-1.167.256-7.68.171-7.68.171s6.693-3.1,8-3.518" fill="#ceedd0"/>
    <path id="패스_16311" data-name="패스 16311" d="M90.808,90.529c.9-.814,2.18-1.69,3.118-1.26.707.324.76,1.292.345,2.054a6.518,6.518,0,0,1-1.906,1.91c-.988.741-7.344,3.718-7.344,3.718s4.757-5.489,5.787-6.422" fill="#ceedd0"/>
    <path id="패스_16312" data-name="패스 16312" d="M86.029,88.6c.417-1.041,1.168-2.308,2.317-2.418a1.381,1.381,0,0,1,1.48,1.407,5.06,5.06,0,0,1-.781,2.349c-.543,1.026-5.039,6.268-5.039,6.268s1.545-6.413,2.023-7.606" fill="#ceedd0"/>
    <path id="패스_16313" data-name="패스 16313" d="M80.325,89.361c-.177-.99-.156-2.308.9-2.928a1.749,1.749,0,0,1,2.219.383,3.72,3.72,0,0,1,.554,2.157,71.845,71.845,0,0,1-1.385,7.139s-2.08-5.617-2.283-6.751" fill="#ceedd0"/>
    <path id="패스_16314" data-name="패스 16314" d="M75.223,92.605c-.724-.673-1.438-1.689-.766-2.654a2.248,2.248,0,0,1,2.362-.744A3.724,3.724,0,0,1,78.56,90.6a54.858,54.858,0,0,1,2.64,6.1s-5.148-3.317-5.977-4.088" fill="#ceedd0"/>
    <path id="패스_16315" data-name="패스 16315" d="M200.682,32.005c-.952-.531-1.986-1.375-1.523-2.324a2.324,2.324,0,0,1,2.33-.935,5.047,5.047,0,0,1,2.229,1.068,60.4,60.4,0,0,1,4.442,5.243s-6.387-2.444-7.478-3.052" fill="#ceedd0"/>
    <path id="패스_16316" data-name="패스 16316" d="M198.62,36.76c-1.2-.041-2.662-.3-2.82-1.269-.119-.728.678-1.464,1.561-1.723a6.522,6.522,0,0,1,2.7-.047c1.185.156,7.281,2.449,7.281,2.449s-7.346.637-8.719.59" fill="#ceedd0"/>
    <path id="패스_16317" data-name="패스 16317" d="M199.646,41.491c-1.122.46-2.624.849-3.36.126-.556-.545-.276-1.474.373-2.049a6.514,6.514,0,0,1,2.442-1.149c1.181-.361,8.17-1,8.17-1s-6.339,3.546-7.625,4.073" fill="#ceedd0"/>
    <path id="패스_16318" data-name="패스 16318" d="M203.485,44.928c-.746.838-1.883,1.774-3,1.487a1.381,1.381,0,0,1-.914-1.826,5.054,5.054,0,0,1,1.533-1.944c.86-.781,6.869-4.182,6.869-4.182s-3.632,5.5-4.487,6.465" fill="#ceedd0"/>
    <path id="패스_16319" data-name="패스 16319" d="M209.109,46.152c-.17.991-.638,2.223-1.837,2.45a1.75,1.75,0,0,1-1.957-1.114,3.717,3.717,0,0,1,.213-2.218,71.677,71.677,0,0,1,3.729-6.243s.047,5.989-.148,7.125" fill="#ceedd0"/>
    <path id="패스_16320" data-name="패스 16320" d="M215.009,44.835c.452.879.778,2.076-.181,2.755a2.246,2.246,0,0,1-2.475-.1,3.717,3.717,0,0,1-1.165-1.9,54.843,54.843,0,0,1-.411-6.632s3.714,4.869,4.232,5.877" fill="#ceedd0"/>
    <path id="패스_16321" data-name="패스 16321" d="M219.606,41.328c.952.531,1.986,1.375,1.523,2.324a2.324,2.324,0,0,1-2.33.935,5.047,5.047,0,0,1-2.229-1.068,60.4,60.4,0,0,1-4.442-5.243s6.387,2.444,7.478,3.052" fill="#ceedd0"/>
    <path id="패스_16322" data-name="패스 16322" d="M221.668,36.573c1.2.041,2.662.3,2.82,1.269.119.728-.678,1.464-1.561,1.723a6.522,6.522,0,0,1-2.7.047c-1.185-.156-7.281-2.449-7.281-2.449s7.346-.637,8.719-.59" fill="#ceedd0"/>
    <path id="패스_16323" data-name="패스 16323" d="M220.642,31.843c1.122-.46,2.624-.849,3.36-.126.556.545.276,1.474-.373,2.049a6.514,6.514,0,0,1-2.442,1.149c-1.181.361-8.17,1-8.17,1s6.339-3.546,7.625-4.073" fill="#ceedd0"/>
    <path id="패스_16324" data-name="패스 16324" d="M216.8,28.406c.746-.838,1.883-1.774,3-1.487a1.381,1.381,0,0,1,.914,1.826,5.062,5.062,0,0,1-1.533,1.944c-.86.78-6.869,4.181-6.869,4.181s3.632-5.5,4.487-6.464" fill="#ceedd0"/>
    <path id="패스_16325" data-name="패스 16325" d="M211.179,27.182c.17-.991.638-2.224,1.837-2.45a1.75,1.75,0,0,1,1.957,1.114,3.717,3.717,0,0,1-.213,2.218,71.826,71.826,0,0,1-3.729,6.243s-.047-5.989.148-7.125" fill="#ceedd0"/>
    <path id="패스_16326" data-name="패스 16326" d="M205.279,28.5c-.452-.879-.778-2.077.181-2.756a2.246,2.246,0,0,1,2.475.1,3.715,3.715,0,0,1,1.165,1.9,54.857,54.857,0,0,1,.411,6.632s-3.714-4.869-4.232-5.876" fill="#ceedd0"/>
    <path id="패스_16327" data-name="패스 16327" d="M133.586,25.074a17.192,17.192,0,0,1,4.22-5.006,19.132,19.132,0,0,0,.343,2.36A12.474,12.474,0,0,1,138,25a11.662,11.662,0,0,1-1.8,4.753c-.785,1.126-1.925,1.466-2.863.073-.916-1.36-.363-3.455.252-4.751" fill="#7da081"/>
    <path id="패스_16328" data-name="패스 16328" d="M113.649,30.7a17.21,17.21,0,0,1-1.7-6.323,19.137,19.137,0,0,0,2.133,1.065,12.464,12.464,0,0,1,2.027,1.588,11.666,11.666,0,0,1,2.873,4.2c.476,1.287.1,2.417-1.574,2.393-1.639-.024-3.044-1.674-3.757-2.919" fill="#7da081"/>
    <path id="패스_16329" data-name="패스 16329" d="M156.984,39.181a16.062,16.062,0,0,1,6.294,1.153,21.874,21.874,0,0,0-2.012,1.487,13.991,13.991,0,0,1-2.405,1.167,12.055,12.055,0,0,1-5.075.822c-1.348-.117-2.125-.938-1.239-2.456.865-1.482,3-2.056,4.437-2.173" fill="#7da081"/>
    <path id="패스_16330" data-name="패스 16330" d="M152.624,62.194a14.718,14.718,0,0,1,3.2,5.325,20.246,20.246,0,0,0-2.411-.362,12.579,12.579,0,0,1-2.425-.874,10.658,10.658,0,0,1-3.893-3.027c-.783-1.047-.672-2.195,1.036-2.659,1.667-.453,3.476.658,4.49,1.6" fill="#7da081"/>
    <path id="패스_16331" data-name="패스 16331" d="M127.6,75.864a16.851,16.851,0,0,1-3.294,5.606,18.688,18.688,0,0,0-.764-2.244,12.162,12.162,0,0,1-.317-2.534,11.328,11.328,0,0,1,.94-4.947c.578-1.232,1.649-1.759,2.832-.56,1.154,1.17.981,3.309.6,4.679" fill="#7da081"/>
    <path id="패스_16332" data-name="패스 16332" d="M102.116,56.558a16.713,16.713,0,0,1-6.279-1.523,18.932,18.932,0,0,0,1.924-1.373,12.2,12.2,0,0,1,2.327-1.029,11.283,11.283,0,0,1,4.984-.528c1.339.2,2.145,1.064,1.336,2.534-.79,1.435-2.878,1.885-4.292,1.919" fill="#7da081"/>
    <path id="패스_16333" data-name="패스 16333" d="M254.462,79.837a102.574,102.574,0,0,1-20.986,4.523l-3.256.392a160.679,160.679,0,0,0-93.831,46.4c-3.427,3.472-6.731,7.139-10.279,11.076-8.089,8.971-16.453,18.247-27.04,25.782C84.89,178.1,68.281,182.8,53.5,180.9c-11.639-1.5-20.67-8.252-29.664-15.973C11.078,153.968,8.591,134.1,8.591,134.1a49.158,49.158,0,0,0,11.125,34.4,50.665,50.665,0,0,0,33.091,17.81c16.126,2.073,34.139-2.975,49.424-13.85,11.077-7.883,19.645-17.386,27.981-26.633,3.442-3.816,6.69-7.424,10.061-10.841A155.221,155.221,0,0,1,230.9,90.162l3.207-.388c6.786-.792,14.554-1.508,22.385-4.877,27.565-11.86,23.4-35.651,23.4-35.651s-.2,22.085-25.44,30.591" fill="#d5efd6"/>
  </g>
</svg>
