<svg xmlns="http://www.w3.org/2000/svg" width="89.457" height="104.169" viewBox="0 0 89.457 104.169">
  <g id="nav_prev" transform="translate(-0.003 -0.003)">
    <path id="패스_14135" data-name="패스 14135" d="M4.19,59.61l75.7,43.7a6.381,6.381,0,0,0,9.57-5.52V10.39a6.377,6.377,0,0,0-9.57-5.52L4.19,48.57A6.373,6.373,0,0,0,4.19,59.61Z" fill="#5d7b6f"/>
    <path id="패스_14136" data-name="패스 14136" d="M3.19,55.61l75.7,43.7a6.381,6.381,0,0,0,9.57-5.52V6.39A6.377,6.377,0,0,0,78.89.87L3.19,44.57a6.382,6.382,0,0,0,0,11.05Z" fill="#b0d4b8"/>
  </g>
</svg>
