<svg xmlns="http://www.w3.org/2000/svg" width="91.468" height="104.189" viewBox="0 0 91.468 104.189">
  <g id="nav_next" transform="translate(-857.22 0.003)">
    <path id="패스_14137" data-name="패스 14137" d="M942.49,48.57l-75.7-43.7a6.381,6.381,0,0,0-9.57,5.52V97.8a6.377,6.377,0,0,0,9.57,5.52l75.7-43.7A6.382,6.382,0,0,0,942.49,48.57Z" fill="#5d7b6f"/>
    <path id="패스_14138" data-name="패스 14138" d="M945.49,44.57,869.8.86a6.381,6.381,0,0,0-9.57,5.52V93.79a6.377,6.377,0,0,0,9.57,5.52l75.7-43.7a6.382,6.382,0,0,0,0-11.05Z" fill="#b0d4b8"/>
  </g>
</svg>
