<svg xmlns="http://www.w3.org/2000/svg" width="967.99" height="464.523"><defs><clipPath id="v"><path data-name="사각형 4268" fill="none" d="M0 0h14.961v119.403H0z"/></clipPath><clipPath id="a"><path data-name="패스 13966" d="M.99 737.95h966v419.177a42.84 42.84 0 0 1-42.828 42.821H43.818A42.84 42.84 0 0 1 .99 1157.127V737.95z" transform="translate(-.99 -737.95)" fill="none"/></clipPath><clipPath id="c"><path data-name="사각형 4249" fill="none" d="M0 0h68.971v136.065H0z"/></clipPath><clipPath id="d"><path data-name="사각형 4250" fill="none" d="M0 0h32.53v106.195H0z"/></clipPath><clipPath id="e"><path data-name="사각형 4251" fill="none" d="M0 0h264.17v113.456H0z"/></clipPath><clipPath id="f"><path data-name="사각형 4252" fill="none" d="M0 0h254.415v135.218H0z"/></clipPath><clipPath id="g"><path data-name="사각형 4253" fill="none" d="M0 0h28.152v180.856H0z"/></clipPath><clipPath id="h"><path data-name="사각형 4254" fill="none" d="M0 0h194.095v31.583H0z"/></clipPath><clipPath id="i"><path data-name="사각형 4255" fill="none" d="M0 0h52.231v18.223H0z"/></clipPath><clipPath id="j"><path data-name="사각형 4256" fill="none" d="M0 0h58.541v19.659H0z"/></clipPath><clipPath id="k"><path data-name="사각형 4257" fill="none" d="M0 0h44.474v7.755H0z"/></clipPath><clipPath id="l"><path data-name="사각형 4258" fill="none" d="M0 0h47.624v8.136H0z"/></clipPath><clipPath id="m"><path data-name="사각형 4259" fill="none" d="M0 0h41.866v8.498H0z"/></clipPath><clipPath id="n"><path data-name="사각형 4260" fill="none" d="M0 0h16.807v41.879H0z"/></clipPath><clipPath id="o"><path data-name="사각형 4261" fill="none" d="M0 0h9.746v27.224H0z"/></clipPath><clipPath id="p"><path data-name="사각형 4262" fill="none" d="M0 0h39.877v12.846H0z"/></clipPath><clipPath id="q"><path data-name="사각형 4263" fill="none" d="M0 0h74.339v76.506H0z"/></clipPath><clipPath id="r"><path data-name="사각형 4264" fill="none" d="M0 0h71.513v68.475H0z"/></clipPath><clipPath id="s"><path data-name="사각형 4265" fill="none" d="M0 0h70.599v67.885H0z"/></clipPath><clipPath id="t"><path data-name="사각형 4266" fill="none" d="M0 0h124.619v147.427H0z"/></clipPath><clipPath id="u"><path data-name="사각형 4267" fill="none" d="M0 0h71.75v62.547H0z"/></clipPath><clipPath id="b"><path data-name="사각형 4248" fill="none" d="M0 0h26.249v211.868H0z"/></clipPath><clipPath id="w"><path data-name="사각형 4269" fill="none" d="M0 0h49.052v11.276H0z"/></clipPath><clipPath id="x"><path data-name="사각형 4270" fill="none" d="M0 0h73.473v18.365H0z"/></clipPath><clipPath id="y"><path data-name="사각형 4271" fill="none" d="M0 0h259.773v306.206H0z"/></clipPath><clipPath id="z"><path data-name="사각형 4272" fill="none" d="M0 0h44.75v33.495H0z"/></clipPath><clipPath id="A"><path data-name="사각형 4273" fill="none" d="M0 0h78.279v111.362H0z"/></clipPath><clipPath id="B"><path data-name="사각형 4274" fill="none" d="M0 0h65.345v34.656H0z"/></clipPath><clipPath id="C"><path data-name="사각형 4275" fill="none" d="M0 0h16.903v49.996H0z"/></clipPath><clipPath id="D"><path data-name="사각형 4276" fill="none" d="M0 0h45.53v151.034H0z"/></clipPath><clipPath id="E"><path data-name="사각형 4277" fill="none" d="M0 0h224.436v91.484H0z"/></clipPath><clipPath id="F"><path data-name="사각형 4278" fill="none" d="M0 0h130.205v71.587H0z"/></clipPath><clipPath id="G"><path data-name="사각형 4279" fill="none" d="M0 0h10.44v87.135H0z"/></clipPath><clipPath id="H"><path data-name="사각형 4280" fill="none" d="M0 0h19.51v103.284H0z"/></clipPath><clipPath id="I"><path data-name="사각형 4281" fill="none" d="M0 0h27.6v112.171H0z"/></clipPath><clipPath id="J"><path data-name="사각형 4282" fill="none" d="M0 0h15.142v45.961H0z"/></clipPath><clipPath id="K"><path data-name="사각형 4283" fill="none" d="M0 0h12.239v37.073H0z"/></clipPath><clipPath id="L"><path data-name="사각형 4284" fill="none" d="M0 0h96.029v25.388H0z"/></clipPath><clipPath id="M"><path data-name="사각형 4285" fill="none" d="M0 0h51.622v35.465H0z"/></clipPath><clipPath id="N"><path data-name="사각형 4286" fill="none" d="M0 0h108.963v23.827H0z"/></clipPath><clipPath id="O"><path data-name="사각형 4287" fill="none" d="M0 0h125.114v28.319H0z"/></clipPath><clipPath id="P"><path data-name="사각형 4288" fill="none" d="M0 0h109.772v25.064H0z"/></clipPath></defs><g data-name="그룹 5294"><path data-name="패스 13882" d="M.995 1.53h966v419.177a42.84 42.84 0 0 1-42.828 42.821H43.823A42.84 42.84 0 0 1 .995 420.707V1.53z" fill="#f7f7f7" stroke="#6d6d6d" stroke-miterlimit="10" stroke-width="1.99"/><g data-name="그룹 5293" clip-path="url(#a)" transform="translate(.995)"><g data-name="그룹 5292"><path data-name="패스 13883" d="M585.149-445.108c-4.321 0-7.985-2.626-9-3.435-5.558-4.377-6.434-11.543-6.776-14.236-3.693-29.955-.952-43.991-.838-44.572 3.3-16.234 5.825-30 7.852-41.07 6.129-33.429 8.423-45.942 17.131-46.941a8.839 8.839 0 0 1 1.009-.057 13.943 13.943 0 0 1 8.9 3.73c6.139 5.719 4.625 16.177 4.054 20.116-2.218 15.311-5.825 26.52-9 36.417-3.636 11.3-6.776 21.058-6.767 33.657 0 17.871 0 26.844 2.189 33.238a24.976 24.976 0 0 1 1.256 9.373c-.171 2.779-.628 10.163-5.977 12.846a8.91 8.91 0 0 1-4.026.923" fill="#d49871"/><path data-name="패스 13884" d="M594.527-593.429a12 12 0 0 1 7.547 3.207c5.234 4.872 4.083 13.979 3.445 18.375-4.73 32.677-15.8 46.284-15.8 70.35 0 18.118 0 27.177 2.294 33.885a22.681 22.681 0 0 1 1.152 8.612c-.162 2.626-.552 9.021-4.882 11.2a6.865 6.865 0 0 1-3.141.714 13.535 13.535 0 0 1-7.776-3.007c-4.8-3.787-5.672-9.992-6.034-12.922-3.693-29.984-.866-43.934-.866-43.934 12.553-61.776 13.419-85.3 23.26-86.431a7.016 7.016 0 0 1 .78-.048m.019-3.968a10.533 10.533 0 0 0-1.237.076c-6.71.771-9.631 7.489-11.6 13.95-2.284 7.508-4.368 18.87-7.252 34.6-2.027 11.057-4.549 24.817-7.842 41.032-.124.6-2.922 14.94.809 45.209.362 2.912 1.313 10.667 7.509 15.549 1.152.9 5.282 3.863 10.241 3.863a10.842 10.842 0 0 0 4.92-1.132c6.367-3.207 6.871-11.409 7.062-14.5a26.916 26.916 0 0 0-1.342-10.125c-2.084-6.109-2.084-14.968-2.094-32.62 0-12.294 3.093-21.915 6.672-33.048 3.207-9.963 6.843-21.258 9.079-36.74.609-4.215 2.237-15.425-4.673-21.848a15.779 15.779 0 0 0-10.25-4.273"/><path data-name="패스 13885" d="M428.543-445.422c-4.121 0-7.224-1.189-8.975-3.454-1.675-2.151-1.742-4.682-1.561-7.108.495-6.785 2.931-11.619 4.892-15.5.476-.942.923-1.827 1.313-2.683 2.417-5.348 2.417-10.486 2.408-20.716 0-6.2-.895-11.638-4.549-27.7-1.056-4.663-2.217-9.221-3.341-13.627-2.779-10.915-5.644-22.191-7.6-37.1l-.124-.952c-.742-5.481-1.751-12.979 2.884-18.394a16.955 16.955 0 0 1 12.182-5.586c.219 0 .438 0 .647.019 4.2.247 8.366 3.055 12.382 8.355 14.609 19.25 24.345 67.029 15.58 107.48-2.731 12.58-9.175 34.047-21.652 36.559a23.723 23.723 0 0 1-4.473.428z" fill="#d49871"/><path data-name="패스 13886" d="M426.069-596.274a4.726 4.726 0 0 1 .523.019c17.978 1.066 37.279 62.062 26.134 113.427-1.056 4.872-7.033 32.411-20.1 35.027a22 22 0 0 1-4.073.39c-2.579 0-5.72-.514-7.414-2.683-1.228-1.58-1.313-3.549-1.152-5.738.59-8.022 4.083-13.2 6.034-17.518 2.589-5.738 2.589-11 2.589-21.534 0-6.585-1.028-12.456-4.6-28.138-3.655-16.072-8.166-29.66-10.916-50.538-.7-5.329-2.018-12.77 2.294-17.8a15.085 15.085 0 0 1 10.678-4.9m0-3.978a19.074 19.074 0 0 0-13.7 6.28c-5.225 6.09-4.092 14.435-3.35 19.954l.124.952c1.98 15.025 4.863 26.359 7.652 37.33 1.123 4.4 2.275 8.935 3.331 13.579 3.617 15.891 4.492 21.239 4.492 27.263 0 10.267 0 14.949-2.227 19.9-.362.8-.809 1.675-1.275 2.607-2.037 4.044-4.578 9.078-5.1 16.253-.2 2.683-.114 5.776 1.97 8.469 1.494 1.922 4.54 4.225 10.545 4.225a26.636 26.636 0 0 0 4.863-.466c12.905-2.6 19.739-22.143 23.2-38.082 8.889-40.984-1.066-89.5-15.932-109.1-4.378-5.776-9.041-8.85-13.848-9.135-.247-.019-.495-.019-.761-.019"/><path data-name="패스 13887" d="M793.919-119.87c-4.54-19.574-4.359-34.019-4.6-43.078-1.161-43.706-14.438-46.56-33.891-131.517-6.871-30.013-8.232-42.859-19.529-60.882a136.156 136.156 0 0 0-71.227-55.7c-15.418-5.947-26.639-9.887-34.3-12.456-16.1-5.4-18.882-5.586-23.717-8.793a20.578 20.578 0 0 0-8.042-3.445 20.967 20.967 0 0 0-10.583.971 135.052 135.052 0 0 0-3.2 5.928c-12.468 24.532-11.982 42-18.378 78.105-3.226 18.165-6.462 31.345-10.336 47.093-7.471 30.336-11.2 45.514-16.084 56.856-14.476 33.648-51.764 72.71-102.244 78.105-29.056 3.112-53.287-5.919-68.315-13.655l-3.483-20.23a31.328 31.328 0 0 0-2.288 15.509c1.075 8.85 5.872 12.475 8.975 22.476a50.344 50.344 0 0 1 2.027 18.679 57.37 57.37 0 0 0-.666 15.12c.438 5 1.123 5.138 1.152 8.612.076 8.85-4.283 10.087-4.6 18.375-.257 7 2.741 9.068.571 13.208-1.865 3.578-4.854 3.483-5.748 6.889-.933 3.578 2.084 4.7 2.294 9.763.181 4.311-1.97 4.653-3.445 12.056-1.047 5.253 0 5.262-1.152 8.612-1.9 5.576-4.9 5.89-5.748 10.334-.876 4.663 2.1 6.052 1.152 9.192-1.732 5.719-12.5 3.968-17.807 9.192-3.769 3.7-5.748 11.857 1.152 31.012Q503.847 3.307 665.826.143q98.218 13.217 196.445 26.416a116.66 116.66 0 0 0-70.646-32.163 31.982 31.982 0 0 0-8.042-13.779 32.692 32.692 0 0 0-18.958-9.192q22.97-23.551 45.949-47.093a180.42 180.42 0 0 1-16.655-44.22" fill="#d49871"/><path data-name="패스 13888" d="M793.919-119.87c-4.54-19.574-4.359-34.019-4.6-43.078-1.161-43.706-14.438-46.56-33.891-131.517-6.871-30.013-8.232-42.859-19.529-60.882a136.156 136.156 0 0 0-71.227-55.7c-15.418-5.947-26.639-9.887-34.3-12.456-16.1-5.4-18.882-5.586-23.717-8.793a20.578 20.578 0 0 0-8.042-3.445 20.967 20.967 0 0 0-10.583.971 135.052 135.052 0 0 0-3.2 5.928c-12.468 24.532-11.982 42-18.378 78.105-3.226 18.165-6.462 31.345-10.336 47.093-7.471 30.336-11.2 45.514-16.084 56.856-14.476 33.648-51.764 72.71-102.244 78.105-29.056 3.112-53.287-5.919-68.315-13.655l-3.483-20.23a31.328 31.328 0 0 0-2.288 15.509c1.075 8.85 5.872 12.475 8.975 22.476a50.344 50.344 0 0 1 2.027 18.679 57.37 57.37 0 0 0-.666 15.12c.438 5 1.123 5.138 1.152 8.612.076 8.85-4.283 10.087-4.6 18.375-.257 7 2.741 9.068.571 13.208-1.865 3.578-4.854 3.483-5.748 6.889-.933 3.578 2.084 4.7 2.294 9.763.181 4.311-1.97 4.653-3.445 12.056-1.047 5.253 0 5.262-1.152 8.612-1.9 5.576-4.9 5.89-5.748 10.334-.876 4.663 2.1 6.052 1.152 9.192-1.732 5.719-12.5 3.968-17.807 9.192-3.769 3.7-5.748 11.857 1.152 31.012Q503.847 3.307 665.826.143q98.218 13.217 196.445 26.416a116.66 116.66 0 0 0-70.646-32.163 31.982 31.982 0 0 0-8.042-13.779 32.692 32.692 0 0 0-18.958-9.192q22.97-23.551 45.949-47.093a180.42 180.42 0 0 1-16.655-44.22z" fill="none" stroke="#000" stroke-linecap="round" stroke-linejoin="round" stroke-width="4.17"/><path data-name="패스 13889" d="M442.228-473.735a58.873 58.873 0 0 1-6.053 14.131 52.225 52.225 0 0 1-10.183 12 20.794 20.794 0 0 0 6.643-.19c13.077-2.626 19.044-30.155 20.1-35.037a146.774 146.774 0 0 0 3.007-22.448q-4.54 4.667-9.06 9.344a102.951 102.951 0 0 1-4.445 22.2" fill="#774e36"/><g data-name="그룹 5251" transform="translate(664.542 -318.843)" clip-path="url(#b)"><path data-name="패스 13890" d="M24.269 1.989A153.756 153.756 0 0 0 5.891 45.638C-.295 70.721 2.113 89.23 4.739 120.869c1.7 20.535 3.864 50.919 5.168 89.02" fill="none" stroke="#774e36" stroke-linecap="round" stroke-linejoin="round" stroke-width="4.17"/></g><path data-name="패스 13891" d="M560.138-680.393c-25.031-27.121-77.014-26.131-101.093 1.151-11.7 13.246-13.876 29.366-14.362 37.33q65.483.856 130.967 1.722c-.428-8.754-2.665-26.282-15.513-40.2" fill="#d49871"/><path data-name="패스 13892" d="M560.138-680.393c-25.031-27.121-77.014-26.131-101.093 1.151-11.7 13.246-13.876 29.366-14.362 37.33q65.483.856 130.967 1.722c-.428-8.754-2.664-26.282-15.512-40.203z" fill="none" stroke="#000" stroke-linecap="round" stroke-linejoin="round" stroke-width="4.17"/><g data-name="그룹 5252" transform="translate(676.391 -301.611)" clip-path="url(#c)"><path data-name="패스 13893" d="M66.982 1.979C49.442 8.497 20.1 22.847 9.545 50.795c-3.864 10.22-4.9 21.448-6.319 36.759a289.826 289.826 0 0 0-.571 46.522" fill="none" stroke="#774e36" stroke-linecap="round" stroke-linejoin="round" stroke-width="4.17"/></g><g data-name="그룹 5253" transform="translate(681.806 -219.48)" clip-path="url(#d)"><path data-name="패스 13894" d="M30.55 1.979a53.93 53.93 0 0 0-13.781 11.485C5.069 27.176 3.711 43.343 2.407 61.709a172.836 172.836 0 0 0 2.294 42.5" fill="none" stroke="#774e36" stroke-linecap="round" stroke-linejoin="round" stroke-width="4.17"/></g><path data-name="패스 13895" d="M343.02-71.625c2.113-19.127 5.006-45.085 8.527-75.954 5.006-43.972 8.689-75.231 11-75.089.752.048.914 3.378 2.294 13.208a463.358 463.358 0 0 0 4.635 27.12c15.028 7.736 39.259 16.757 68.315 13.655 50.479-5.4 87.758-44.457 102.244-78.105 4.882-11.352 8.613-26.52 16.084-56.856 3.874-15.749 7.119-28.928 10.336-47.093 6.4-36.1 5.92-53.573 18.378-78.105a135.66 135.66 0 0 1 3.2-5.928c-.371-.076-.752-.152-1.133-.228.076-.057.162-.114.228-.162a26.889 26.889 0 0 1-17.236-8.041c-9.479-10.03-6.576-23.561-6.319-24.693a151.262 151.262 0 0 0-112.579-4.025c.562 1.656 4.13 12.742-2.294 23.551a28.435 28.435 0 0 1-14.933 12.066c.076.057.162.114.238.171a391.283 391.283 0 0 0-67.487 19.536c-17.255 5.3-41.143 15.52-61.415 36.569-28.371 29.451-35.614 65.535-42.5 135.542-4.911 49.929-9.289 112.276-9.765 186.651" fill="#d49871"/><path data-name="패스 13896" d="M343.02-71.625c2.113-19.127 5.006-45.085 8.527-75.954 5.006-43.972 8.689-75.231 11-75.089.752.048.914 3.378 2.294 13.208a463.358 463.358 0 0 0 4.635 27.12c15.028 7.736 39.259 16.757 68.315 13.655 50.479-5.4 87.758-44.457 102.244-78.105 4.882-11.352 8.613-26.52 16.084-56.856 3.874-15.749 7.119-28.928 10.336-47.093 6.4-36.1 5.92-53.573 18.378-78.105a135.66 135.66 0 0 1 3.2-5.928c-.371-.076-.752-.152-1.133-.228.076-.057.162-.114.228-.162a26.889 26.889 0 0 1-17.236-8.041c-9.479-10.03-6.576-23.561-6.319-24.693a151.262 151.262 0 0 0-112.579-4.025c.562 1.656 4.13 12.742-2.294 23.551a28.435 28.435 0 0 1-14.933 12.066c.076.057.162.114.238.171a391.283 391.283 0 0 0-67.487 19.536c-17.255 5.3-41.143 15.52-61.415 36.569-28.371 29.451-35.614 65.535-42.5 135.542-4.911 49.929-9.289 112.276-9.765 186.651" fill="none" stroke="#000" stroke-linecap="round" stroke-linejoin="round" stroke-width="4.17"/><g data-name="그룹 5254" transform="translate(364.587 -141.956)" clip-path="url(#e)"><path data-name="패스 13897" d="M1.98 105.368c64.784 11.523 114.007 4.425 143.025-2.293 29.5-6.832 43.913-14.616 51.117-18.955 40.458-24.322 58.626-62.813 66.059-82.13" fill="none" stroke="#774e36" stroke-linecap="round" stroke-linejoin="round" stroke-width="4.17"/></g><g data-name="그룹 5255" transform="translate(365.158 -203.979)" clip-path="url(#f)"><path data-name="패스 13898" d="M1.98 126.609c30.807 6.756 74.587 11.162 123.5-1.151 26.03-6.547 56.742-14.283 84.437-41.346 30.75-30.051 39.62-66.191 42.5-82.13" fill="none" stroke="#774e36" stroke-linecap="round" stroke-linejoin="round" stroke-width="4.17"/></g><path data-name="패스 13899" d="M571.339-476.805c-16.417 21.61-47.034 32.477-75.243 28.138-4.4-.676-31.264-5.215-49.975-28.138-7.328-8.983-8.927-7.841-19.815-70.35-8.537-49.025-7.433-61.205-2.294-73.509a76.513 76.513 0 0 1 20.681-28.138c34.367-30.1 97.9-32.667 131.538 0a76.736 76.736 0 0 1 17.236 25.845c7.167 17.766 4.977 31.954-6.891 90.161-10.25 50.253-9.222 48.1-15.218 56" fill="#d49871"/><path data-name="패스 13900" d="M571.339-476.805c-16.417 21.61-47.034 32.477-75.243 28.138-4.4-.676-31.264-5.215-49.975-28.138-7.328-8.983-8.927-7.841-19.815-70.35-8.537-49.025-7.433-61.205-2.294-73.509a76.513 76.513 0 0 1 20.681-28.138c34.367-30.1 97.9-32.667 131.538 0a76.736 76.736 0 0 1 17.236 25.845c7.167 17.766 4.977 31.954-6.891 90.161-10.25 50.253-9.222 48.1-15.218 56z" fill="none" stroke="#000" stroke-linecap="round" stroke-linejoin="round" stroke-width="4.17"/><g data-name="그룹 5256" transform="translate(631.622 -281.513)" clip-path="url(#g)"><path data-name="패스 13901" d="M26.172 1.989a331.258 331.258 0 0 1-6.319 51.689C13.781 83.614 7.195 94.9 3.769 119.146a193.251 193.251 0 0 0 1.152 59.73" fill="none" stroke="#774e36" stroke-linecap="round" stroke-linejoin="round" stroke-width="4.17"/></g><path data-name="패스 13902" d="M464.794 74.822c83.314-40.87 153.713-56.809 198.168-63.746 31.416-4.91 61.919-4.415 122.925-3.445 30.265.485 54.819 1.884 76.395 18.955 5.177 4.092 19.691 16.6 26.42 36.759 10.812 32.344-2.76 71.339-33.32 99.934a1551.6 1551.6 0 0 1-192.429-1.151 1550.189 1550.189 0 0 1-201.042-27q1.442-30.146 2.874-60.3" fill="#d49871"/><path data-name="패스 13903" d="M464.794 74.822c83.314-40.87 153.713-56.809 198.168-63.746 31.416-4.91 61.919-4.415 122.925-3.445 30.265.485 54.819 1.884 76.395 18.955 5.177 4.092 19.691 16.6 26.42 36.759 10.812 32.344-2.76 71.339-33.32 99.934a1551.6 1551.6 0 0 1-192.429-1.151 1550.189 1550.189 0 0 1-201.042-27q1.442-30.146 2.874-60.3z" fill="none" stroke="#000" stroke-linecap="round" stroke-linejoin="round" stroke-width="4.17"/><path data-name="패스 13904" d="M718.723-116.007c-9.936.923-17.854 1.913-24.212 2.893-5.444.837-9.736 1.665-13.172 2.436-37.679 8.46-31.921 7.28-38.84 7.47-2.589.067-8.156.038-13.429 3.445-3.312 2.141-3.274 3.549-5.748 4.6-5.644 2.388-11.24-2.664-18.378-5.167-5.063-1.77-12.829-2.94-24.126.571a29.66 29.66 0 0 0-9.194 6.889c-10.45 11.533-18.682 53.726-1.723 77.534 41.019 57.58 206.039-5.281 226.891-29.87a72.028 72.028 0 0 0 11.487-20.678c2.379-6.575 6.6-18.27 1.152-25.845-2.141-2.978-4.216-1.922-6.319-5.167-3.226-5-.238-9.335-2.874-15.5a17.708 17.708 0 0 0-6.319-7.47" fill="#d49871"/><path data-name="패스 13905" d="M718.723-116.007c-9.936.923-17.854 1.913-24.212 2.893-5.444.837-9.736 1.665-13.172 2.436-37.679 8.46-31.921 7.28-38.84 7.47-2.589.067-8.156.038-13.429 3.445-3.312 2.141-3.274 3.549-5.748 4.6-5.644 2.388-11.24-2.664-18.378-5.167-5.063-1.77-12.829-2.94-24.126.571a29.66 29.66 0 0 0-9.194 6.889c-10.45 11.533-18.682 53.726-1.723 77.534 41.019 57.58 206.039-5.281 226.891-29.87a72.028 72.028 0 0 0 11.487-20.678c2.379-6.575 6.6-18.27 1.152-25.845-2.141-2.978-4.216-1.922-6.319-5.167-3.226-5-.238-9.335-2.874-15.5a17.708 17.708 0 0 0-6.319-7.47" fill="none" stroke="#000" stroke-linecap="round" stroke-linejoin="round" stroke-width="4.17"/><g data-name="그룹 5257" transform="translate(364.587 -79.932)" clip-path="url(#h)"><path data-name="패스 13906" d="M1.98 19.793a268.046 268.046 0 0 0 76.395 9.763A270.919 270.919 0 0 0 192.106 1.989" fill="none" stroke="#774e36" stroke-linecap="round" stroke-linejoin="round" stroke-width="4.17"/></g><path data-name="패스 13907" d="M252.835-57.847a86.477 86.477 0 0 0 4.026 15.511c3.036 8.954 13.771 40.318 41.933 50.538 3.15 1.142 26.915 9.773 42.5-3.445 14.676-12.447 11.63-35.36 10.916-40.775a58.887 58.887 0 0 0-8.613-23.542v-15.51" fill="#d49871"/><path data-name="패스 13908" d="M252.835-57.847a86.477 86.477 0 0 0 4.026 15.511c3.036 8.954 13.771 40.318 41.933 50.538 3.15 1.142 26.915 9.773 42.5-3.445 14.676-12.447 11.63-35.36 10.916-40.775a58.887 58.887 0 0 0-8.613-23.542v-15.51" fill="none" stroke="#000" stroke-linecap="round" stroke-linejoin="round" stroke-width="4.17"/><path data-name="패스 13909" d="M507.298-666.034c-5.016-.181-10.907 2.446-10.916 5.167 0 2.579 5.234 5.158 9.765 5.167 4.978.019 10.5-3.064 10.336-5.747-.152-2.5-5.234-4.453-9.194-4.6" fill="#774e36"/><path data-name="패스 13910" d="M511.276-599.291c-5.653-.495-9.232 4.225-9.689 4.843-3.026 4.13-3.321 10.325 0 14.531.523.666 3.226 3.92 7.271 4.035 6.7.19 13.591-8.336 11.659-15.5a10.933 10.933 0 0 0-9.232-7.917" fill="#774e36"/><g data-name="그룹 5258" transform="translate(447.863 -588.081)" clip-path="url(#i)"><path data-name="패스 13911" d="M1.989 4.168a76.565 76.565 0 0 1 13.5-2.008 63.3 63.3 0 0 1 12.353.285c10.4 1.627 18.111 8.812 22.4 13.779" fill="none" stroke="#774e36" stroke-linecap="round" stroke-linejoin="round" stroke-width="4.17"/></g><g data-name="그룹 5259" transform="translate(517.367 -590.099)" clip-path="url(#j)"><path data-name="패스 13912" d="M56.561 9.059a30.1 30.1 0 0 0-10.336-5.747 31.4 31.4 0 0 0-12.639-1.151 42.585 42.585 0 0 0-15.218 4.311 56.1 56.1 0 0 0-8.042 4.6 66.605 66.605 0 0 0-8.328 6.6" fill="none" stroke="#774e36" stroke-linecap="round" stroke-linejoin="round" stroke-width="4.17"/></g><g data-name="그룹 5260" transform="translate(449.88 -565.529)" clip-path="url(#k)"><path data-name="패스 13913" d="M1.989 2.008c2.179-.029 5.349-.048 9.194 0a65.629 65.629 0 0 1 7.757.285c5.72 1 6.024 3.178 10.916 3.445 2.16.114 2.455-.285 6.6-.285 2.57 0 4.663.152 6.034.285" fill="none" stroke="#774e36" stroke-linecap="round" stroke-linejoin="round" stroke-width="4.17"/></g><g data-name="그룹 5261" transform="translate(523.116 -565.586)" clip-path="url(#l)"><path data-name="패스 13914" d="M1.989 5.224a87.5 87.5 0 0 0 10.05.866 57.04 57.04 0 0 0 9.479-.285c6.557-.847 7.88-2.588 13.781-3.445a36.632 36.632 0 0 1 10.336 0" fill="none" stroke="#774e36" stroke-linecap="round" stroke-linejoin="round" stroke-width="4.17"/></g><g data-name="그룹 5262" transform="translate(487.55 -523.517)" clip-path="url(#m)"><path data-name="패스 13915" d="M1.98 1.989a12.786 12.786 0 0 0 7.138 3.949c5.054.752 7.033-2.826 12.639-2.293 4.387.419 5.073 2.8 9.194 2.874a14.128 14.128 0 0 0 8.937-3.511" fill="none" stroke="#774e36" stroke-linecap="round" stroke-linejoin="round" stroke-width="4.17"/></g><g data-name="그룹 5263" transform="translate(486.16 -534.203)" clip-path="url(#n)"><path data-name="패스 13916" d="M14.819 1.979a15.108 15.108 0 0 0-9.194 4.6c-2.2 2.5-3.026 5.529-3.445 12.637a122.286 122.286 0 0 0 .571 20.678" fill="none" stroke="#774e36" stroke-linecap="round" stroke-linejoin="round" stroke-width="4.17"/></g><g data-name="그룹 5264" transform="translate(521.393 -534.203)" clip-path="url(#o)"><path data-name="패스 13917" d="M1.989 1.979A33.035 33.035 0 0 1 6.3 10.886a33.412 33.412 0 0 1 1.152 14.359" fill="none" stroke="#774e36" stroke-linecap="round" stroke-linejoin="round" stroke-width="4.17"/></g><g data-name="그룹 5265" transform="translate(491.518 -502.05)" clip-path="url(#p)"><path data-name="패스 13918" d="M1.989 1.989c2.969 5.976 6.205 7.936 8.613 8.612 2.313.647 3.036-.1 9.479-.285 6.643-.19 7.576.571 10.05-.285 2.237-.771 5.158-2.664 7.757-7.755" fill="none" stroke="#774e36" stroke-linecap="round" stroke-linejoin="round" stroke-width="4.17"/></g><path data-name="패스 13919" d="M432.911-537.106c.59-16.643.952-28.566 1.152-35.037.523-17.633.695-26.035 6.891-32.734 4.169-4.5 10.8-6.642 12.353-7.175a38.579 38.579 0 0 1 14.076-2.008c20.671.485 41.362-.552 62.033 0 23.279.619 29.932.343 38.773 5.453 3.16 1.827 10.269 6.062 14.362 14.359 3.084 6.242 2.722 11.286 2.589 23.256-.086 7.1-.1 17.614.285 30.726" fill="none" stroke="#000" stroke-linecap="round" stroke-linejoin="round" stroke-width="4.17"/><g data-name="그룹 5266" transform="translate(592.325 -101.343)" clip-path="url(#q)"><path data-name="패스 13920" d="M1.98 1.979a41.122 41.122 0 0 1 14.086 8.783c15.418 14.911 9.06 34.219 20.681 48.816 4.978 6.252 14.666 13.417 35.614 14.93" fill="none" stroke="#774e36" stroke-linecap="round" stroke-linejoin="round" stroke-width="4.17"/></g><path data-name="패스 13921" d="M587.709-13.617c-10.526-.01-22.594-26.682-17.807-48.816 1.561-7.2 6.453-21.077 14.362-21.82 9.241-.875 19.882 16.453 21.252 32.163 1.57 17.966-8.565 38.491-17.807 38.482" fill="#774e36"/><path data-name="패스 13922" d="M587.709-13.617c-10.526-.01-22.594-26.682-17.807-48.816 1.561-7.2 6.453-21.077 14.362-21.82 9.241-.875 19.882 16.453 21.252 32.163 1.57 17.966-8.565 38.491-17.807 38.482z" fill="none" stroke="#774e36" stroke-linecap="round" stroke-linejoin="round" stroke-width="4.17"/><path data-name="패스 13923" d="M292.465-53.25c-1.608.561-14.714 5.376-19.529 19.526-4.349 12.78 1.342 23.532 2.294 25.274" fill="none" stroke="#000" stroke-linecap="round" stroke-linejoin="round" stroke-width="4.17"/><path data-name="패스 13924" d="M296.948-48.655c-9.4 7.965-13.971 19.916-11.487 31.012C288.868-2.418 304.8 7.888 317.629 5.908c.742-.114 11.049-1.846 14.362-9.192 2.57-5.709-3.569-11.685 0-17.8 1.161-2 2.094-1.97 3.445-4.6a18.76 18.76 0 0 0 1.723-10.334c-.676-8.488-6.205-14.3-8.042-16.082q4.026-6.894 8.042-13.779a12.327 12.327 0 0 0-5.739-1.151c-4.606.257-5.882 3.235-8.613 2.874-4.207-.561-3.588-7.946-9.194-10.914-4.587-2.427-11.573-.942-13.21 2.293-1.294 2.56 1.247 5.215 0 10.915-.238 1.075-.133 2.541-1.152 3.445-1.351 1.189-3.084.314-4.026 1.151-.847.752-.99 2.874 1.723 8.612" fill="#774e36"/><path data-name="패스 13925" d="M296.948-48.655c-9.4 7.965-13.971 19.916-11.487 31.012C288.868-2.418 304.8 7.888 317.629 5.908c.742-.114 11.049-1.846 14.362-9.192 2.57-5.709-3.569-11.685 0-17.8 1.161-2 2.094-1.97 3.445-4.6a18.76 18.76 0 0 0 1.723-10.334c-.676-8.488-6.205-14.3-8.042-16.082q4.026-6.894 8.042-13.779a12.327 12.327 0 0 0-5.739-1.151c-4.606.257-5.882 3.235-8.613 2.874-4.207-.561-3.588-7.946-9.194-10.914-4.587-2.427-11.573-.942-13.21 2.293-1.294 2.56 1.247 5.215 0 10.915-.238 1.075-.133 2.541-1.152 3.445-1.351 1.189-3.084.314-4.026 1.151-.846.751-.989 2.873 1.723 8.611z" fill="none" stroke="#774e36" stroke-linecap="round" stroke-linejoin="round" stroke-width="4.17"/><path data-name="패스 13926" d="M777.264-4.435c-8.309-7.47-19.71-7.908-26.42-7.47a178.54 178.54 0 0 0-25.278-8.041c-31.15-7.413-49.014-2.693-89.034-6.318a388.161 388.161 0 0 1-33.891-4.6c-1.875-.247-11.278-1.285-18.958 5.167a23.1 23.1 0 0 0-6.319 8.612q-43.085 2.013-86.16 4.016V92.607a7893.813 7893.813 0 0 1 69.5-39.624c44.112-24.865 53.1-29.385 67.2-33.885 27.21-8.678 50.832-9.839 71.227-10.914 43.322-2.274 64.984-3.407 70.646-2.293 2.646.514 11.64 2.417 13.21-.571 1.608-3.055-5.444-9.487-5.748-9.763" fill="#d49871"/><path data-name="패스 13927" d="M777.264-4.435c-8.309-7.47-19.71-7.908-26.42-7.47a178.54 178.54 0 0 0-25.278-8.041c-31.15-7.413-49.014-2.693-89.034-6.318a388.161 388.161 0 0 1-33.891-4.6c-1.875-.247-11.278-1.285-18.958 5.167a23.1 23.1 0 0 0-6.319 8.612q-43.085 2.013-86.16 4.016V92.607a7893.813 7893.813 0 0 1 69.5-39.624c44.112-24.865 53.1-29.385 67.2-33.885 27.21-8.678 50.832-9.839 71.227-10.914 43.322-2.274 64.984-3.407 70.646-2.293 2.646.514 11.64 2.417 13.21-.571 1.608-3.055-5.444-9.487-5.748-9.763z" fill="none" stroke="#000" stroke-linecap="round" stroke-linejoin="round" stroke-width="4.17"/><path data-name="패스 13928" d="M532.566-20.506c-3.8-4.539-11.135-3.778-23.546-2.293-32.406 3.854-69.162 8.992-84.437 10.915-5.063.637-9.584 1.2-15.865 1.8-4.768.457-22.08 2.017-49.061 2.369-10.6.143-34.681.247-41.343 6.747a11.3 11.3 0 0 1-4.6 2.874c-4.949 1.542-9.8-1.151-10.916-1.722-8.052-4.139-25.868-2.95-44.227-1.722-21.928 1.465-44.731 2.645-63.185 17.8-29.865 24.531-29.418 65.8-29.294 70.635.838 32.439 18.768 65.421 46.53 79.827 22.565 11.714 28.476-5.177 89.6-2.874 37.07 1.4 46.073 7.565 64.908-.571 17.7-7.651 24.926-19.659 43.085-18.955 11.621.457 16.589 5.681 28.723 2.874 10.107-2.341 12.962-9.573 22.4-9.192 7.29.295 9.3 4.349 14.933 3.445 8.033-1.285 12.763-10.924 14.933-15.511 19.092-40.251 30.664-90.314 38.488-120.6 2.027-7.841 8.128-19.574 2.874-25.845" fill="#d49871"/><path data-name="패스 13929" d="M532.566-20.506c-3.8-4.539-11.135-3.778-23.546-2.293-32.406 3.854-69.162 8.992-84.437 10.915-5.063.637-9.584 1.2-15.865 1.8-4.768.457-22.08 2.017-49.061 2.369-10.6.143-34.681.247-41.343 6.747a11.3 11.3 0 0 1-4.6 2.874c-4.949 1.542-9.8-1.151-10.916-1.722-8.052-4.139-25.868-2.95-44.227-1.722-21.928 1.465-44.731 2.645-63.185 17.8-29.865 24.531-29.418 65.8-29.294 70.635.838 32.439 18.768 65.421 46.53 79.827 22.565 11.714 28.476-5.177 89.6-2.874 37.07 1.4 46.073 7.565 64.908-.571 17.7-7.651 24.926-19.659 43.085-18.955 11.621.457 16.589 5.681 28.723 2.874 10.107-2.341 12.962-9.573 22.4-9.192 7.29.295 9.3 4.349 14.933 3.445 8.033-1.285 12.763-10.924 14.933-15.511 19.092-40.251 30.664-90.314 38.488-120.6 2.027-7.841 8.128-19.574 2.874-25.845z" fill="none" stroke="#000" stroke-linecap="round" stroke-linejoin="round" stroke-width="4.17"/><g data-name="그룹 5267" transform="translate(619.858 -94.463)" clip-path="url(#r)"><path data-name="패스 13930" d="M1.989 1.989a379.305 379.305 0 0 1 14.124 19.127c14.428 20.916 17.2 29.508 27.571 36.759 5.073 3.54 13.191 7.622 25.849 8.612" fill="none" stroke="#774e36" stroke-linecap="round" stroke-linejoin="round" stroke-width="4.17"/></g><g data-name="그룹 5268" transform="translate(632.25 -101.343)" clip-path="url(#s)"><path data-name="패스 13931" d="M1.98 1.979a537.122 537.122 0 0 1 20.11 24.294c11.126 14.274 14.6 20.249 22.975 27A74.31 74.31 0 0 0 68.62 65.91" fill="none" stroke="#774e36" stroke-linecap="round" stroke-linejoin="round" stroke-width="4.17"/></g><g data-name="그룹 5269" transform="translate(325.528 -11.01)" clip-path="url(#t)"><path data-name="패스 13932" d="M1.98 87.554c1.6 4.292 16.76 42.878 58.017 54.563 26.3 7.441 61.691 1.1 62.614-6.318.162-1.323-.809-2.379-1.723-3.445-7.128-8.326-9.926-19.545-14.933-29.289-1.913-3.73-30.113-60.139-7.471-93.616a45.992 45.992 0 0 1 6.319-7.47" fill="none" stroke="#774e36" stroke-linecap="round" stroke-linejoin="round" stroke-width="4.17"/></g><g data-name="그룹 5270" transform="translate(301.392 100.981)" clip-path="url(#u)"><path data-name="패스 13933" d="M1.989 1.989a111.788 111.788 0 0 0 36.765 43.649 109.129 109.129 0 0 0 31.017 14.93" fill="none" stroke="#774e36" stroke-linecap="round" stroke-linejoin="round" stroke-width="4.17"/></g><g data-name="그룹 5271" transform="translate(446.083 -6.414)" clip-path="url(#v)"><path data-name="패스 13934" d="M12.963 1.979a135.324 135.324 0 0 0-9.194 31.012C.99 49.377 1.961 62.176 3.198 77.211a276.969 276.969 0 0 0 6.319 40.2" fill="none" stroke="#774e36" stroke-linecap="round" stroke-linejoin="round" stroke-width="4.17"/></g><path data-name="패스 13935" d="M329.801-57.846a25.612 25.612 0 0 1 21.252 16.653" fill="#d49871"/><path data-name="패스 13936" d="M329.801-57.846a25.612 25.612 0 0 1 21.252 16.653" fill="none" stroke="#000" stroke-linecap="round" stroke-linejoin="round" stroke-width="4.17"/><g data-name="그룹 5272" transform="translate(485.494 -507.921)" clip-path="url(#w)"><path data-name="패스 13937" d="m2.56 9.297-.571-3.445c35.09.333 45.083.1 45.093-.285 0-.219-3.245-.057-8.328-1.437-4.844-1.313-5.929-2.56-8.328-2.008-3.369.771-3.445 3.73-6.253 3.987-3.207.285-3.912-3.53-8.109-3.987-1.228-.133-1.675.143-7.757 2.008a364.872 364.872 0 0 1-5.748 1.722" fill="none" stroke="#774e36" stroke-linecap="round" stroke-linejoin="round" stroke-width="4.17"/></g><g data-name="그룹 5273" transform="translate(472.855 -474.768)" clip-path="url(#x)"><path data-name="패스 13938" d="M1.989 3.13a51.673 51.673 0 0 0 32.168 13.208c21.052.809 34.862-11.98 37.336-14.359" fill="none" stroke="#774e36" stroke-linecap="round" stroke-linejoin="round" stroke-width="4.17"/></g><g data-name="그룹 5274" transform="translate(376.645 -420.49)" clip-path="url(#y)"><path data-name="패스 13939" d="M1.989 290.287a136.074 136.074 0 0 0 45.378 13.208c70.456 7.441 119.66-45.162 123.5-49.387a142.833 142.833 0 0 0 19.525-27.569C243.118 131.02 250.598 1.739 255.3 1.987c1.618.086 3 15.587 2.294 79.256" fill="none" stroke="#774e36" stroke-linecap="round" stroke-linejoin="round" stroke-width="4.17"/></g><path data-name="패스 13940" d="M492.366 127.711c-5.872 1.732-8.337 13.065-14.6 13.855a14.957 14.957 0 0 1-3.226 0c-2.893-.362-4.483-1.57-6.462-2.427-2.36-1.018-4.245-1.075-7.871-1.189-10.84-.343-14.78 10.011-25.278 8.193-3.217-.561-5.825-1.941-9.765-.685-3.55 1.132-5.653 3.606-8.042 6.147a122.209 122.209 0 0 1-14.362 12.979 1346.43 1346.43 0 0 0 137.857 6.147 1343.23 1343.23 0 0 0 119.479-6.147 200.426 200.426 0 0 0-12.639-15.711c-6.567-7.356-9.85-11.143-13.21-12.294-8.156-2.788-11.83 4.244-22.4 4.1-5.177-.076-9.965-2.779-19.529-8.193-18.425-10.429-24.317-18.984-30.446-15.71-4.73 2.531-5.263 9.8-10.336 10.239-3 .266-4.111-2.16-6.89-3.416-10.107-4.529-18.977 16.862-32.168 15.71-9.917-.866-13.41-13.588-20.1-11.609" fill="#d49871"/><path data-name="패스 13941" d="M492.366 127.711c-5.872 1.732-8.337 13.065-14.6 13.855a14.957 14.957 0 0 1-3.226 0c-2.893-.362-4.483-1.57-6.462-2.427-2.36-1.018-4.245-1.075-7.871-1.189-10.84-.343-14.78 10.011-25.278 8.193-3.217-.561-5.825-1.941-9.765-.685-3.55 1.132-5.653 3.606-8.042 6.147a122.209 122.209 0 0 1-14.362 12.979 1346.43 1346.43 0 0 0 137.857 6.147 1343.23 1343.23 0 0 0 119.479-6.147 200.426 200.426 0 0 0-12.639-15.711c-6.567-7.356-9.85-11.143-13.21-12.294-8.156-2.788-11.83 4.244-22.4 4.1-5.177-.076-9.965-2.779-19.529-8.193-18.425-10.429-24.317-18.984-30.446-15.71-4.73 2.531-5.263 9.8-10.336 10.239-3 .266-4.111-2.16-6.89-3.416-10.107-4.529-18.977 16.862-32.168 15.71-9.917-.866-13.41-13.588-20.1-11.609z" fill="none" stroke="#000" stroke-linecap="round" stroke-linejoin="round" stroke-width="4.17"/><g data-name="그룹 5275" transform="translate(251.427 -116.349)" clip-path="url(#z)"><path data-name="패스 13942" d="M42.77 2.227c-1.932-.238-20.71-2.236-32.739 11.485a34.661 34.661 0 0 0-8.042 17.8" fill="none" stroke="#774e36" stroke-linecap="round" stroke-linejoin="round" stroke-width="4.17"/></g><path data-name="패스 13943" d="M346.466-293.313a359.7 359.7 0 0 1 13.21 48.816 359.24 359.24 0 0 1 4.026 25.264" fill="#d49871"/><path data-name="패스 13944" d="M346.466-293.313a359.7 359.7 0 0 1 13.21 48.816 359.24 359.24 0 0 1 4.026 25.264" fill="none" stroke="#000" stroke-linecap="round" stroke-linejoin="round" stroke-width="4.17"/><g data-name="그룹 5276" transform="translate(693.017 -230.252)" clip-path="url(#A)"><path data-name="패스 13945" d="M1.989 109.383a1608.34 1608.34 0 0 1 22.613-25.835c21.785-24.379 28.123-30.041 35.537-41.993A131.482 131.482 0 0 0 76.29 1.989" fill="none" stroke="#774e36" stroke-linecap="round" stroke-linejoin="round" stroke-width="4.17"/></g><g data-name="그룹 5277" transform="translate(687.364 -233.478)" clip-path="url(#B)"><path data-name="패스 13946" d="M1.989 32.668a37.32 37.32 0 0 1 11.307-20.992c2.046-1.894 10.916-9.658 22.613-9.687 4.445-.01 6 1.1 14.533 1.618a108.184 108.184 0 0 0 12.924 0" fill="none" stroke="#774e36" stroke-linecap="round" stroke-linejoin="round" stroke-width="4.17"/></g><g data-name="그룹 5278" transform="translate(640.52 -420.005)" clip-path="url(#C)"><path data-name="패스 13947" d="M1.989 1.989a83.406 83.406 0 0 0 1.618 17.766 84.6 84.6 0 0 0 11.306 28.262" fill="none" stroke="#774e36" stroke-linecap="round" stroke-linejoin="round" stroke-width="4.17"/></g><g data-name="그룹 5279" transform="translate(453.164 -10.715)" clip-path="url(#D)"><path data-name="패스 13948" d="M43.751 1.894c-3.046 6.651-19.625 43.354-25.325 79.4-2.494 15.768-4.721 42.849-.723 51.651a7.438 7.438 0 0 1 .723 3.854c-.562 5.8-8.765 9.735-16.646 12.332" fill="none" stroke="#774e36" stroke-linecap="round" stroke-linejoin="round" stroke-width="3.86"/></g><g data-name="그룹 5280" transform="translate(370.792 -182.607)" clip-path="url(#E)"><path data-name="패스 13949" d="M1.98 85.156a240.888 240.888 0 0 0 75.919 2.427c22.327-2.874 71.855-9.934 113.874-48.445a176.1 176.1 0 0 0 30.693-37.14" fill="none" stroke="#774e36" stroke-linecap="round" stroke-linejoin="round" stroke-width="4.17"/></g><g data-name="그룹 5281" transform="translate(659.108 -113.085)" clip-path="url(#F)"><path data-name="패스 13950" d="M1.98 13.208a364.657 364.657 0 0 0 35.537 23.418C60.901 50.148 69.4 51.556 77.09 50.357c.666-.1 16.579-2.769 18.578-11.3 2.846-12.18-23.745-27.529-25.04-28.262-10.117-5.719-18.007-7.023-17.769-8.079.333-1.437 15.532-1.189 30.693 4.844 16.379 6.518 25.963 17.09 31.169 22.99a56.27 56.27 0 0 1 11.487 18.955c3.664 10.534 1.361 15.263.571 16.652a12.851 12.851 0 0 1-2.874 3.445" fill="none" stroke="#774e36" stroke-linecap="round" stroke-linejoin="round" stroke-width="4.17"/></g><path data-name="패스 13951" d="M300.088-85.338c-2.608-1.5-5.463-1.465-7.271 0-.876.7-2.056 2.189-1.618 3.226.857 2.036 7.347.932 8.08.809a21.715 21.715 0 0 0 8.08-3.226c-2.427-.266-4.844-.542-7.271-.809" fill="#774e36"/><path data-name="패스 13952" d="M300.088-85.338c-2.608-1.5-5.463-1.465-7.271 0-.876.7-2.056 2.189-1.618 3.226.857 2.036 7.347.932 8.08.809a21.715 21.715 0 0 0 8.08-3.226c-2.427-.266-4.844-.542-7.271-.809z" fill="none" stroke="#774e36" stroke-linecap="round" stroke-linejoin="round" stroke-width="4.17"/><path data-name="패스 13953" d="M597.284-562.552c-2.113 11.581-4.673 23.085-6.462 34.723-5.52 35.979-7.233 37.035-6.462 46.836a85.109 85.109 0 0 0 7.585 28.757 23.211 23.211 0 0 0 1.218-6.756 22.474 22.474 0 0 0-1.152-8.612c-2.294-6.709-2.294-15.768-2.294-33.885 0-24.065 11.069-37.682 15.8-70.35a34.3 34.3 0 0 0 .124-11.495 2.2 2.2 0 0 0-1.095-.2c-3.531.314-5.292 10.172-7.271 20.992" fill="#774e36"/><g data-name="그룹 5282" transform="translate(584.797 45.095)" clip-path="url(#G)"><path data-name="패스 13954" d="M1.989 1.989a156.544 156.544 0 0 1 1.618 83.167" fill="none" stroke="#774e36" stroke-linecap="round" stroke-linejoin="round" stroke-width="4.17"/></g><g data-name="그룹 5283" transform="translate(601.766 38.643)" clip-path="url(#H)"><path data-name="패스 13955" d="M1.98 1.979a95.806 95.806 0 0 1 3.226 99.325" fill="none" stroke="#774e36" stroke-linecap="round" stroke-linejoin="round" stroke-width="4.17"/></g><g data-name="그룹 5284" transform="translate(622.761 26.53)" clip-path="url(#I)"><path data-name="패스 13956" d="M1.98 1.979a90.051 90.051 0 0 1 22.613 46.836c4.816 31.383-8.975 55.067-12.924 61.367" fill="none" stroke="#774e36" stroke-linecap="round" stroke-linejoin="round" stroke-width="4.17"/></g><g data-name="그룹 5285" transform="translate(294.997 -.923)" clip-path="url(#J)"><path data-name="패스 13957" d="M13.172 43.972A46.594 46.594 0 0 1 3.483 1.979" fill="none" stroke="#774e36" stroke-linecap="round" stroke-linejoin="round" stroke-width="4.17"/></g><g data-name="그룹 5286" transform="translate(262.372 11.19)" clip-path="url(#K)"><path data-name="패스 13958" d="M4.606 1.979a30.964 30.964 0 0 0-1.618 20.183 30.442 30.442 0 0 0 7.271 12.927" fill="none" stroke="#774e36" stroke-linecap="round" stroke-linejoin="round" stroke-width="4.17"/></g><g data-name="그룹 5287" transform="translate(260.954 -275.09)" clip-path="url(#L)"><path data-name="패스 13959" d="M1.989 23.409a55.194 55.194 0 0 1 12.924-8.878c7.09-3.5 11.973-3.968 24.231-6.461 19.177-3.9 17.445-4.853 25.03-5.652a83.167 83.167 0 0 1 29.885 2.421" fill="none" stroke="#774e36" stroke-linecap="round" stroke-linejoin="round" stroke-width="4.17"/></g><path data-name="패스 13960" d="M425.269-239.568c0 3.521-3.16 6.861-6.462 6.461-3.207-.39-5.187-4.139-4.844-7.27.276-2.493 2.113-5.319 4.844-5.652 3.264-.4 6.462 2.921 6.462 6.461" fill="#774e36"/><g data-name="그룹 5288" transform="translate(362.703 -214.903)" clip-path="url(#M)"><path data-name="패스 13961" d="M1.999 1.979c4.892 6.756 21.128 27.329 47.643 31.488" fill="none" stroke="#774e36" stroke-linecap="round" stroke-linejoin="round" stroke-width="4.17"/></g><g data-name="그룹 5289" transform="translate(454.772 -450.684)" clip-path="url(#N)"><path data-name="패스 13962" d="M1.989 4.405a82.217 82.217 0 0 0 35.537 16.148c36.3 6.671 64.4-14.607 69.457-18.575" fill="none" stroke="#774e36" stroke-linecap="round" stroke-linejoin="round" stroke-width="4.17"/></g><g data-name="그룹 5290" transform="translate(449.928 -438.57)" clip-path="url(#O)"><path data-name="패스 13963" d="M1.989 1.979C6.614 6.233 31.312 28.138 68.21 26.206c29.484-1.551 48.985-17.385 54.914-22.609" fill="none" stroke="#774e36" stroke-linecap="round" stroke-linejoin="round" stroke-width="4.17"/></g><g data-name="그룹 5291" transform="translate(447.511 -404.656)" clip-path="url(#P)"><path data-name="패스 13964" d="M1.98 1.979c4.616 3.464 43.056 31.449 82.372 16.957a70.192 70.192 0 0 0 23.422-14.53" fill="none" stroke="#774e36" stroke-linecap="round" stroke-linejoin="round" stroke-width="4.17"/></g><path data-name="패스 13965" d="M382.46-416.398c-.619-1.161-9.86 1.846-9.689 3.226.086.676 2.4 1 4.035.809 3.445-.4 6.034-3.321 5.653-4.035" fill="#774e36"/></g></g></g></svg>