<svg xmlns="http://www.w3.org/2000/svg" width="967.99" height="464.062"><defs><linearGradient id="b" x1=".5" y1=".847" x2=".5" y2="-.096" gradientUnits="objectBoundingBox"><stop offset=".01" stop-color="#af7356"/><stop offset=".52" stop-color="#c79545"/><stop offset="1" stop-color="#9a7761"/></linearGradient><linearGradient id="c" x1=".5" y1=".142" x2=".5" y2=".831" gradientUnits="objectBoundingBox"><stop offset=".01" stop-color="#af7356"/><stop offset="1" stop-color="#af8956"/></linearGradient><linearGradient id="d" x1=".5" y1="1.025" x2=".5" y2=".746" gradientUnits="objectBoundingBox"><stop offset=".01" stop-color="#af7356"/><stop offset="1" stop-color="#af8256"/></linearGradient><clipPath id="a"><path data-name="패스 14034" d="M43.818.99h880.344a42.843 42.843 0 0 1 42.828 42.828v419.244H.99V43.818A42.855 42.855 0 0 1 43.818.99z" transform="translate(-.99 -.99)" fill="none"/></clipPath></defs><g data-name="그룹 5304"><path data-name="패스 13967" d="M43.823.995h880.344a42.843 42.843 0 0 1 42.828 42.828v419.244h-966V43.823A42.855 42.855 0 0 1 43.823.995z" fill="#f7f7f7" stroke="#6d6d6d" stroke-miterlimit="10" stroke-width="1.99"/><g data-name="그룹 5303" clip-path="url(#a)" transform="translate(.995 .995)"><g data-name="그룹 5302" transform="translate(270.29 48.798)"><path data-name="패스 13968" d="M169.369 300.932a130.237 130.237 0 0 1-9.812 66.773q7.081-1.042 14.162-2.075a178.011 178.011 0 0 0 5.463-53.534z" fill="#4f4035"/><path data-name="패스 13969" d="M317.124 300.932a130.237 130.237 0 0 0 9.812 66.773q-7.081-1.042-14.162-2.075a178.012 178.012 0 0 1-5.463-53.534z" fill="#4f4035"/><path data-name="패스 13970" d="M575.466 422.42c39.963 7.109 76.185 30.674 101.511 62.4s40.1 71.17 45.207 111.447c3.493 27.514 2.7 55.8 10.583 82.4 4.273 14.428 11.05 28.114 14.019 42.866 5.139 25.5-1.437 51.859-.228 77.841a130.478 130.478 0 0 0 20.215 63.7l-481.782 17.2a595.328 595.328 0 0 0 18.33-189.089c-1.028-15.989-2.57-32.739 3.845-47.424s24.888-28.97 24.888-28.97 6.662-41.533 12.039-66.516 18.159-47.615 34.6-67.182c39.335-46.825 104.042-56.656 104.042-56.656l92.736-2z" transform="translate(-284.99 -70.133)" fill="url(#b)"/><g data-name="그룹 5295"><path data-name="패스 13971" d="M166.075 231.227c-2.113-6.186-6.748-19.472-9.508-25.906-1.294-3.065-2.332-5.425-5.111-7.671-2.988-2.474-7.585-3.845-10.821-1.256-4.7 4.2-4.673 12.658-4.33 18.549a80.524 80.524 0 0 0 2.208 12.363c4.207 15.894 8.3 31.816 11.621 47.91 2.684 11.925 1.456 19.044-3.055 30.265-2.379 6.548-4.406 14.295-1.171 20.843 2.474 5.016 9.022 8.67 14.295 5.815 8.356-5.139 11.839-22.622 12.1-31.911l-6.224-68.99z" fill="#966a42"/><path data-name="패스 13972" d="M163.668 243.696a120.788 120.788 0 0 0-12.9-29.047c-1.256-2.046-2.8-4.3-5.12-5.035a4.256 4.256 0 0 0-3.835.828 2.474 2.474 0 0 0-.971 2.265l-.79.114a3.242 3.242 0 0 1 1.247-2.988 5.04 5.04 0 0 1 4.6-.98c2.589.818 4.226 3.207 5.558 5.377a121.3 121.3 0 0 1 12.982 29.237l-.771.228z" fill="#473121"/><path data-name="패스 13973" d="m155.92 312.753-.761-.257a100.8 100.8 0 0 0 5.339-35.252l.8-.019a101.519 101.519 0 0 1-5.387 35.528z" fill="#473121"/></g><path data-name="패스 13974" d="M605.557 435.351s-13.857 19.815-65.6 19.815-66.744-19.815-66.744-19.815 24.535-9.974 15.751-57.931h103.744c-16.94 39.068 12.849 57.931 12.849 57.931z" transform="translate(-294.076 -67.96)" fill="url(#c)"/><path data-name="패스 13975" d="M261.943 2.037C252.331.4 242.49-.79 232.843.647c-4.93.733-10.155 2.427-12.915 6.576-2.179 3.283-2.379 7.538-1.666 11.421s2.246 7.557 3.283 11.354c2.684 9.774 2.1 20.11 1.5 30.227q-1.827 30.936-3.664 61.872a2.115 2.115 0 0 0 2.484 2.836q22.442-.385 44.864 1.066c2.122-13.21.914-26.705-.276-40.03q-1.328-15-2.627-30.008c-.39-4.464-.771-8.994-.067-13.419 1.18-7.414 6.672-13.79 7.262-21.281 1.323-17-9.089-19.234-9.089-19.234z" fill="#44372e"/><path data-name="패스 13976" d="M197.311 336.66a112.911 112.911 0 0 0 72.16 38.948c5.967.714 12.154.923 17.854-.961s10.888-6.224 12.42-12.039c1.466-5.577-2.789-12.515-4.483-19.625a75.694 75.694 0 0 1-1.875-17.122l-96.076 10.79z" fill="#56463b"/><g data-name="그룹 5296"><path data-name="패스 13977" d="M318.389 231.227c2.113-6.186 6.748-19.472 9.508-25.906 1.294-3.065 2.332-5.425 5.111-7.671 2.988-2.474 7.585-3.845 10.821-1.256 4.7 4.2 4.673 12.658 4.33 18.549a80.524 80.524 0 0 1-2.208 12.363c-4.207 15.894-8.3 31.816-11.621 47.91-2.684 11.925-1.456 19.044 3.055 30.265 2.379 6.548 4.406 14.295 1.171 20.843-2.474 5.016-9.022 8.67-14.295 5.815-8.356-5.139-11.839-22.622-12.1-31.911l6.224-68.99z" fill="#966a42"/><path data-name="패스 13978" d="m320.797 243.696-.771-.228a121.294 121.294 0 0 1 12.982-29.237c1.332-2.17 2.969-4.559 5.558-5.377a5.046 5.046 0 0 1 4.6.98 3.251 3.251 0 0 1 1.247 2.988l-.79-.114a2.5 2.5 0 0 0-.971-2.265 4.25 4.25 0 0 0-3.835-.828c-2.322.733-3.864 2.979-5.12 5.035a119.888 119.888 0 0 0-12.9 29.047z" fill="#473121"/><path data-name="패스 13979" d="M328.544 312.753a101.519 101.519 0 0 1-5.387-35.528l.8.019a100.862 100.862 0 0 0 5.339 35.252l-.761.257z" fill="#473121"/></g><path data-name="패스 13980" d="M618.681 234.411c5.844 16.988 8.47 36.594 8.47 57.475 0 64.85-25.363 117.414-93.612 117.414s-91.47-52.564-91.47-117.414c0-22 2.674-42.6 8.88-60.206l167.732 2.731z" transform="translate(-292.573 -60.925)" fill="url(#d)"/><path data-name="패스 13981" d="M158.376 170.765c12.077-34.272 37.507-57.208 82.591-57.208s72.835 24.164 85.141 59.94l-167.732-2.732z" fill="#4f4035"/><path data-name="패스 13982" d="M325.766 184.136a101.127 101.127 0 0 0-1.694-10.669c-.809-4.064-1.685-8.147-2.246-12.268a31.778 31.778 0 0 0-8.651-2.684c-14.752-2.351-37.365-4.635-69.533-4.635s-54.781 2.284-69.533 4.635c-13.067 2.084-22.47 11.563-22.47 22.546v13.37s.933 28.095.933 43.694c0 36.527 10.279 67.82 29.208 88.586 1.8-.276 1.114-.324 2.912-.581-13.81-16.122-26.515-43.532-26.515-90.909 0-16.027 1.532-31.236 4.949-44.959a8.46 8.46 0 0 0 10.192-7.886 10.618 10.618 0 0 0 17.274-5.539 11.844 11.844 0 0 0 21.69-1.78c1.2 4.483 15.675 8.223 18.045 6.624a26.937 26.937 0 0 0 14.79 4.292 26.482 26.482 0 0 0 14.419-4.054c2.3 1.437 16.455-2.379 17.664-6.862a11.844 11.844 0 0 0 21.69 1.78 10.618 10.618 0 0 0 17.274 5.539 8.451 8.451 0 0 0 9.546 7.995c.1.362.171.723.266 1.085a69.455 69.455 0 0 0-.209-7.319z" fill="#c99c7b"/><path data-name="패스 13983" d="m333.027 191.379-.457-14.276c0-10.983-9.4-20.462-22.47-22.546-14.752-2.351-37.365-4.635-69.533-4.635s-54.781 2.284-69.533 4.635c-13.067 2.084-22.47 11.563-22.47 22.546v13.372s.933 28.095.933 43.694c0 55.762 18.159 99.836 66.354 111.828-3.693-3.559-60.749-14.342-60.749-114.73 0-16.027 1.532-31.236 4.949-44.959a8.46 8.46 0 0 0 10.193-7.89 10.618 10.618 0 0 0 17.274-5.539 11.844 11.844 0 0 0 21.69-1.78c1.2 4.483 15.675 8.223 18.045 6.624a26.937 26.937 0 0 0 14.79 4.292 26.482 26.482 0 0 0 14.419-4.054c2.3 1.437 16.455-2.379 17.664-6.862a11.844 11.844 0 0 0 21.69 1.78 10.618 10.618 0 0 0 17.274 5.539 8.451 8.451 0 0 0 9.546 7.994c3.607 13.7 5.263 28.866 5.263 44.855 0 98.266-50.613 108.506-52.964 112.294 42.551-15.019 59.639-56.886 59.639-109.392 0-15.256-1.551-42.79-1.551-42.79z" fill="#705843"/><path data-name="패스 13984" d="M250.37 272.656c-2.141.619-4.092 1.818-6.243 2.389-4.3 1.133-8.822-.4-12.877-2.227-1.361-.609-3-1.247-4.254-.457a2.982 2.982 0 0 0-.866 3.588 7.911 7.911 0 0 0 2.579 3.007 55.986 55.986 0 0 0 6.063 4.264 15.333 15.333 0 0 0 5.663 2.36c4.587.666 8.851-2.237 12.572-5a13.653 13.653 0 0 0 3.131-2.874c3.074-4.349-2.208-6.091-5.767-5.063z" fill="#966a42"/><path data-name="패스 13985" d="M177.154 218.302c13.067-4.473 27.752-6.253 40.934-1.237 5.568 2.113 10.954 5.625 14.228 10.688 3.969 6.12 3.55 13.81 3.236 20.8a125.526 125.526 0 0 1-3.854 25.569 1.23 1.23 0 0 0 .552 1.361 15.167 15.167 0 0 0 10.8 1.066 1.204 1.204 0 0 0-.638-2.322 12.553 12.553 0 0 1-8.946-.828c.181.457.371.9.552 1.361a128.693 128.693 0 0 0 3.807-23.688 101.367 101.367 0 0 0 .181-12.144 25.888 25.888 0 0 0-2.493-10.45c-2.827-5.606-8.061-9.774-13.657-12.41a49.445 49.445 0 0 0-20.976-4.435 75.209 75.209 0 0 0-24.364 4.349c-1.456.495-.828 2.827.638 2.322z" fill="#5e3a1e"/><path data-name="패스 13986" d="M251.648 228.011a41.09 41.09 0 0 1 20.4-12.077 40.616 40.616 0 0 1 36.232 8.965c1.161 1.018 2.865-.676 1.7-1.7a43.711 43.711 0 0 0-23.732-10.535 43 43 0 0 0-36.3 13.657c-1.047 1.142.647 2.846 1.7 1.7z" fill="#5e3a1e"/><path data-name="패스 13987" d="M223.265 245.704c-4.007-2.865-9.317-3.826-14.419-3.978s-10.2.428-15.3.209a49.39 49.39 0 0 1-10.241-1.532c-1.437-.371-2.979-.9-3.7-2.065l.029-2.294c.8 1.133 2.36 1.589 3.816 1.894a49.348 49.348 0 0 0 10.307 1.066c5.1-.01 10.155-.933 15.266-.9 13.962.076 14.257 7.6 14.257 7.6z" fill="#5e3a1e"/><path data-name="패스 13988" d="M256.889 245.704c4.007-2.865 9.317-3.826 14.419-3.978s10.2.428 15.3.209a49.39 49.39 0 0 0 10.241-1.532c1.437-.371 2.979-.9 3.7-2.065l-.029-2.294c-.8 1.133-2.36 1.589-3.816 1.894a49.348 49.348 0 0 1-10.307 1.066c-5.1-.01-10.155-.933-15.266-.9-13.962.076-14.257 7.6-14.257 7.6z" fill="#5e3a1e"/><g data-name="그룹 5297"><path data-name="패스 13989" d="M240.434 296.221c3.16.209 7.214-.733 10.3-1.475 5.2-1.237 13.41 2.674 14.3 4.283s-7.147 14.98-24.735 14.98-22.87-11.63-22.87-14.3 7.785-3.569 10.726-4.33c4.54-1.18 8.147.59 12.268.857z" fill="#c19b76"/><path data-name="패스 13990" d="M219.211 299.866a32.42 32.42 0 0 1 11.839 1.418c3.559 1.075 7.1 3.084 10.916 2.95 3.721-.133 6.319-2.912 9.708-4.026 3.655-1.209 7.6-.933 11.383-.676.771.057.771-1.152 0-1.2-3.664-.247-7.452-.485-11.04.523a19.405 19.405 0 0 0-4.749 2.2 11.1 11.1 0 0 1-5.3 1.98c-3.912.143-7.623-2.075-11.307-3.112a33.251 33.251 0 0 0-11.449-1.256c-.771.057-.771 1.266 0 1.2z" fill="#5e3a1e"/><path data-name="패스 13991" d="M226.749 311.467a30.787 30.787 0 0 0 11.116 3.065 31.761 31.761 0 0 0 18.854-3.1 19.506 19.506 0 0 0 3.407-2.208c.59-.495-.257-1.342-.847-.847a24.7 24.7 0 0 1-9.374 4.416 35.459 35.459 0 0 1-19.054-.961 20.022 20.022 0 0 1-3.483-1.4c-.676-.371-1.285.666-.609 1.037z" fill="#5e3a1e"/></g><circle data-name="타원 27" cx="5.71" cy="5.71" r="5.71" transform="translate(235.171 202.343)" fill="#c18a65"/><path data-name="패스 13992" d="M241.09 415.473c-31.226 0-62.071-15.427-79.412-39.972a.805.805 0 0 1 .162-1.094l26.115-20.4a.8.8 0 1 1 .98 1.266l-25.506 19.929c17.788 24.7 49.566 39.83 81.23 38.6 31.645-1.218 62.014-18.749 77.594-44.731l-20.215-13.124a.805.805 0 0 1 .876-1.351l20.862 13.543a.8.8 0 0 1 .257 1.075c-15.742 26.8-46.872 44.931-79.307 46.178a91.865 91.865 0 0 1-3.636.067z" fill="#56463b"/><path data-name="패스 13993" d="M241.671 437.933c-42.171 0-83.847-19.31-107.259-50.013a.772.772 0 0 1-.152-.609.788.788 0 0 1 .324-.533c11.811-8.451 29.9-14.19 30.084-14.247a.803.803 0 1 1 .485 1.532c-.171.057-17.35 5.51-28.961 13.543 24.117 31.1 67.315 50.156 110.324 48.633 33.805-1.209 67.687-15.513 90.633-38.259a.801.801 0 1 1 1.133 1.133c-23.232 23.022-57.513 37.507-91.708 38.726-1.637.057-3.274.086-4.9.086z" fill="#56463b"/><g data-name="그룹 5298" opacity=".5"><path data-name="패스 13994" d="M369.992 514.88a14.06 14.06 0 0 1-.609-.076.667.667 0 0 1-.133-.029.837.837 0 0 1-.143-.048h-.019a1.684 1.684 0 0 1-1.256.514 1.844 1.844 0 0 1-.038-3.683l.124-.162a1.685 1.685 0 0 1 2.313-.19h.038a1.474 1.474 0 0 1 .295.038 543.78 543.78 0 0 0-.695-26.762c-.714.79-1.437 1.57-2.122 2.389a1.846 1.846 0 0 1-3.15-1.3 1.965 1.965 0 0 1 .542-1.3c1.428-1.713 2.96-3.331 4.445-5-.152-2.5-.324-4.949-.5-7.376a1.91 1.91 0 0 1-.238-3.093c-4.454-55.409-15.9-89.871-15.9-89.871-6.253-5.6-23.707-11.326-23.707-11.326s1.085 2.731 2.779 8.033c.209.029.428.048.628.1a5.276 5.276 0 0 1 1 .381 1.838 1.838 0 0 1 .657 2.522 1.306 1.306 0 0 1-.476.514 1.435 1.435 0 0 1-.628.333 289.263 289.263 0 0 1 3.207 11.563c.038-.019.067-.057.1-.067a1.407 1.407 0 0 1 .714-.162h1.047a1.872 1.872 0 0 1 .933.247l.371.286a1.826 1.826 0 0 1 .476.818l.067.495a1.407 1.407 0 0 1-.162.714 1.348 1.348 0 0 1-.381.59 2.059 2.059 0 0 1-1.3.542h-.99c6.177 25.04 13.7 67.078 14.067 123.981a2.035 2.035 0 0 1 .01 1.618A756.319 756.319 0 0 1 341.11 645c7.357-2.265 12.382-9.327 14.571-16.7a89.186 89.186 0 0 0 3.816-21.833c.971-20.367 8.908-40.934 10.126-61.281.171-2.9.314-5.777.447-8.623l-.124.029a5.293 5.293 0 0 1-1.4.209 1.873 1.873 0 0 1-.933-.247l-.371-.286a1.827 1.827 0 0 1-.476-.818c-.019-.162-.048-.324-.067-.495a1.407 1.407 0 0 1 .162-.714 1.348 1.348 0 0 1 .381-.59 2.059 2.059 0 0 1 1.3-.542h.067a10.032 10.032 0 0 1 1.589-.333q.343-9.165.371-17.921a1.477 1.477 0 0 1-.3.029h-.276zm-11.049-67.829.286-.371a1.774 1.774 0 0 1 2.018-.381 1.348 1.348 0 0 1 .59.381l.048.048.3.3a1.826 1.826 0 0 1 .476.818l.067.495a4 4 0 0 1-1.846 2.893 1.752 1.752 0 0 1-1.751-2.056 1.833 1.833 0 0 1-.381-.695c-.019-.162-.048-.324-.067-.495a1.873 1.873 0 0 1 .247-.933zm.895 14.742a1.847 1.847 0 0 1 0 3.693 1.85 1.85 0 0 1-.001-3.695zm-3.528 70.028a1.656 1.656 0 0 1 0 1.428 1.348 1.348 0 0 1-.381.59c-.076.076-.152.171-.228.247a1.467 1.467 0 0 1-.181.419l-.285.371a1.826 1.826 0 0 1-.818.476c-.162.019-.324.048-.495.067a1.407 1.407 0 0 1-.714-.162 1.347 1.347 0 0 1-.59-.381 2.058 2.058 0 0 1-.542-1.3v-.076c.019-.162.038-.352.067-.514v-.029a2.865 2.865 0 0 1 .228-.562 1.483 1.483 0 0 1 .152-.266 6.6 6.6 0 0 1 .5-.628c.086-.1.181-.181.266-.276a1.826 1.826 0 0 1 .818-.476c.162-.019.324-.048.495-.067a1.873 1.873 0 0 1 .933.247l.371.286a1.4 1.4 0 0 1 .381.59zM342.792 399.37a1.847 1.847 0 0 1 0-3.693 1.847 1.847 0 0 1 0 3.693zm8.309 4.911c-.019-.162-.048-.324-.067-.495a1.873 1.873 0 0 1 .247-.933l.286-.371a1.774 1.774 0 0 1 2.018-.381 1.348 1.348 0 0 1 .59.381 7.458 7.458 0 0 1 .523.571 7.088 7.088 0 0 1 .809 1.19 1.779 1.779 0 0 1 .247.933c-.019.162-.048.324-.067.495a1.879 1.879 0 0 1-.476.818l-.371.285a2.1 2.1 0 0 1-1.418.19 2.109 2.109 0 0 1-1.1-.847 4.661 4.661 0 0 0-.362-.59c-.124-.143-.257-.3-.39-.428a1.827 1.827 0 0 1-.476-.818zm1.884 213.491a1.9 1.9 0 0 1-.542 1.3 1.838 1.838 0 0 1-2.608 0 1.973 1.973 0 0 1-.542-1.3v-3.131a1.9 1.9 0 0 1 .542-1.3 1.838 1.838 0 0 1 2.608 0 1.9 1.9 0 0 1 .542 1.3zm3.721-21.252a2.251 2.251 0 0 1-.1.419 7.417 7.417 0 0 1-.381.895 1.862 1.862 0 0 1-.666.666c-.143.067-.3.124-.438.19a1.9 1.9 0 0 1-.98 0c-.143-.067-.295-.124-.438-.19a1.306 1.306 0 0 1-.514-.476 1.436 1.436 0 0 1-.333-.628 2.1 2.1 0 0 1 .152-1.342c.048-.124.076-.257.114-.381 0-.162.019-.333.019-.495a1.873 1.873 0 0 1 .247-.933l.286-.371a1.827 1.827 0 0 1 .818-.476c.162-.019.324-.048.495-.067a1.407 1.407 0 0 1 .714.162 1.348 1.348 0 0 1 .59.381 2.059 2.059 0 0 1 .542 1.3 8.12 8.12 0 0 1-.1 1.361zm1.742-15.523a1.847 1.847 0 0 1 0-3.693 3.405 3.405 0 0 1 0 3.693zm2.379-8.442a1.348 1.348 0 0 1-.381.59 2.059 2.059 0 0 1-1.3.542 2.3 2.3 0 0 1-.666-.1 4.942 4.942 0 0 1-.619-.247.154.154 0 0 1-.067-.038c-.019 0-.048-.019-.067-.019a1.919 1.919 0 0 1-.552-.2l-.371-.286a1.826 1.826 0 0 1-.476-.818c-.019-.162-.048-.324-.067-.495a1.407 1.407 0 0 1 .162-.714 1.348 1.348 0 0 1 .381-.59 2.058 2.058 0 0 1 1.3-.543 2.3 2.3 0 0 1 .666.1 4.933 4.933 0 0 1 .619.247.154.154 0 0 1 .067.038c.019 0 .048.019.067.019a1.92 1.92 0 0 1 .552.2l.371.286a1.827 1.827 0 0 1 .476.818c.019.162.048.324.067.495a1.407 1.407 0 0 1-.162.715zm1.447-104.157a1.847 1.847 0 0 1 0 3.693 1.847 1.847 0 0 1 0-3.693zm.59 38.735a1.9 1.9 0 0 1 .542-1.3 1.838 1.838 0 0 1 2.608 0 1.9 1.9 0 0 1 .542 1.3c0 .495 0 .98.048 1.475a3.286 3.286 0 0 0 .171.685 1.933 1.933 0 0 1 .124.619c-.019.162-.048.324-.067.495a1.889 1.889 0 0 1-.847 1.1 2.1 2.1 0 0 1-1.418.19 2.109 2.109 0 0 1-1.1-.847 4.889 4.889 0 0 1-.39-1.018 9.1 9.1 0 0 1-.162-1.123c-.048-.523-.048-1.047-.048-1.57zm1.846 49.858a1.847 1.847 0 0 1 0-3.693 1.847 1.847 0 0 1 0 3.693z" fill="#564235"/></g><path data-name="패스 13995" d="M65.46 572.031a.8.8 0 0 1-.4-1.5 121.037 121.037 0 0 0 52.916-61.11c4.254-11.059 6.881-22.87 9.422-34.291 1.332-6 2.712-12.2 4.311-18.235 5.872-22.156 14.009-37.3 25.6-47.653a.803.803 0 1 1 1.066 1.2c-11.345 10.136-19.329 25.03-25.116 46.872-1.589 6.005-2.969 12.192-4.292 18.168-2.551 11.478-5.187 23.346-9.489 34.519a122.641 122.641 0 0 1-53.63 61.938.826.826 0 0 1-.39.1z" fill="#56463b"/><path data-name="패스 13996" d="M359.957 704.93a1.193 1.193 0 0 1-1.028-.581c-11.43-18.968-17.15-43.408-16.979-72.645.1-16.9 2.018-33.957 3.864-50.451.895-7.937 1.818-16.151 2.522-24.231a496.4 496.4 0 0 0-19.979-187.813 1.202 1.202 0 0 1 2.3-.7 498.9 498.9 0 0 1 20.081 188.736c-.714 8.109-1.637 16.332-2.532 24.288-1.846 16.436-3.759 33.425-3.854 50.2-.162 28.78 5.434 52.8 16.636 71.389a1.2 1.2 0 0 1-1.028 1.827z" fill="#c6a48d"/><path data-name="패스 13997" d="M368.451 676.949a.8.8 0 0 1-.685-.381c-8.527-13.914-12.3-31.75-11.183-52.982.695-13.238 3.122-26.477 5.472-39.287.885-4.806 1.8-9.774 2.6-14.676a407.54 407.54 0 0 0-10.821-179.352.804.804 0 1 1 1.542-.457 409.287 409.287 0 0 1 10.859 180.057c-.809 4.911-1.723 9.888-2.608 14.7-2.341 12.753-4.768 25.944-5.453 39.078-1.095 20.909 2.589 38.421 10.954 52.059a.8.8 0 0 1-.267 1.1.84.84 0 0 1-.419.114z" fill="#56463b"/><path data-name="패스 13998" d="M125.989 743.418c-3.2-10.583-2.4-21.833-1.332-32.8 3.236-33.263 12.4-71.322 6.11-104.195-3.512-18.359-14.381-31.683-16.96-50.184a88.029 88.029 0 0 1-.8-10.336 1.67 1.67 0 0 1-.666-1.39v-6.719a2.1 2.1 0 0 1-.238.048 1.847 1.847 0 0 1 0-3.693 2.532 2.532 0 0 1 .266.029 77.8 77.8 0 0 1 2.132-17.464 1.618 1.618 0 0 1 1.342-1.285 42 42 0 0 1 1.437-9.156 1.64 1.64 0 0 1 .352-.676c-.019-.1-.048-.219-.067-.314a1.717 1.717 0 0 1-1.285.552 1.86 1.86 0 0 1-1.846-1.846c.6-5.006-.581-9.793-2.532-14.381a1.89 1.89 0 0 1 .666-2.522 1.74 1.74 0 0 1 .5-.162 1.86 1.86 0 0 1-.029-.324c0-.162-.01-.314-.019-.476a.8.8 0 0 0-.048-.162c-.019-.038-.048-.076-.067-.114a.139.139 0 0 0-.019-.029 1.92 1.92 0 0 1-.543-1.3 1.86 1.86 0 0 1 .543-1.3 1.59 1.59 0 0 1 .352-.228c-.076-.409-.152-.837-.228-1.256-.038-.038-.1-.048-.133-.086a2.059 2.059 0 0 1-.542-1.3c0-.162-.01-.314-.019-.476a.806.806 0 0 0-.048-.162c-.019-.038-.048-.076-.067-.114a.138.138 0 0 0-.019-.029 1.965 1.965 0 0 1-.542-1.3 1.8 1.8 0 0 1 .514-1.266c-.19-1.056-.381-2.141-.571-3.207a2.129 2.129 0 0 1-1.114-.19 11.206 11.206 0 0 1-2.95-2.2 1.736 1.736 0 0 1-.324-.324 13.3 13.3 0 0 1-3.141-6.234 1.9 1.9 0 0 1 1.285-2.275 1.865 1.865 0 0 1 2.275 1.285 11.925 11.925 0 0 0 .324 1.275c.057.19.124.371.19.552.038.1.067.181.1.276a13.228 13.228 0 0 0 .7 1.3c.438-.447.847-.9 1.256-1.38-.914-5.215-1.818-10.526-2.712-15.751a1.965 1.965 0 0 1-.495-.19l-.371-.286a1.826 1.826 0 0 1-.476-.818c-.019-.162-.048-.324-.067-.495a1.407 1.407 0 0 1 .162-.714 1.348 1.348 0 0 1 .381-.59 1.3 1.3 0 0 1 .3-.2 54.607 54.607 0 0 1-.086-.495 1.569 1.569 0 0 1-.514-.552 11.976 11.976 0 0 1-1.647-5.111 1.92 1.92 0 0 1 .543-1.3 1.4 1.4 0 0 1 .4-.267c-.1-.552-.19-1.113-.276-1.666a2 2 0 0 1-1.589.9 1.377 1.377 0 0 1-.286-.057c.01.1.038.2.038.3a1.92 1.92 0 0 1-.542 1.3 1.861 1.861 0 0 1-1.3.542 1.408 1.408 0 0 1-.714-.162 1.348 1.348 0 0 1-.59-.381 1.847 1.847 0 0 1-.5-1.142 1.19 1.19 0 0 0 .029.181 2.3 2.3 0 0 0-.1-.343c-.076-.152-.152-.3-.219-.457a6.2 6.2 0 0 1-.314-.79 3.189 3.189 0 0 1-.114-.847 1.9 1.9 0 0 1 .542-1.3 1.861 1.861 0 0 1 1.3-.542 1.407 1.407 0 0 1 .714.162c.019 0 .029.019.048.029-.761-6.833-1.865-13.733-1.209-20.614a2.116 2.116 0 0 1 .752-1.437c-1.1-6.757-1.78-10.964-1.78-10.964s-35.309 45.74-44.931 75.424c-4.473 13.79 8.014 49.9 20.443 82.981a1.826 1.826 0 0 1 3.464.828c0 .685.029 1.37.1 2.046a12.34 12.34 0 0 0 .247 1.532 17.452 17.452 0 0 0 .457 1.713c.086.276.181.552.286.818.038.1.086.209.124.314.019.038.038.1.057.124a18.451 18.451 0 0 0 1.685 2.95 10.331 10.331 0 0 0 .885 1.133c.381.447.78.866 1.19 1.285 1.675 1.685-.933 4.3-2.608 2.608-.038-.038-.067-.076-.1-.114 1.818 4.768 3.569 9.393 5.206 13.752a1.9 1.9 0 0 1 1.77-1.485 1.873 1.873 0 0 1 1.846 1.846c0 .266.029.533.048.8a7.285 7.285 0 0 0 .39 1.4 17.468 17.468 0 0 0 1.4 2.427 1.862 1.862 0 0 1-.666 2.522 1.894 1.894 0 0 1-1.418.19 1.765 1.765 0 0 1-.647-.343c3.379 9.289 5.929 16.988 6.948 22.042a26.974 26.974 0 0 1 1.637 2.76 24.3 24.3 0 0 1 1.294 3.188 1.577 1.577 0 0 1-.086 1.2 1.153 1.153 0 0 1 .086.19c1.475 5.149 3.388 10.164 4.873 15.313a1.647 1.647 0 0 1-.59 1.856q1.67 4.683 3.35 9.365a1.814 1.814 0 0 1 .818.019 1.861 1.861 0 0 1 1.1.847c.476.942.942 1.884 1.418 2.827a1.823 1.823 0 0 1 .818 1.808 2 2 0 0 1 .038.952 1.89 1.89 0 0 1-.847 1.1 1.823 1.823 0 0 1-.695.238c.124.4.257.79.381 1.19a1.66 1.66 0 0 1 1.114.371c.209-.6.419-1.2.657-1.789a1.9 1.9 0 0 1 2.275-1.285 1.854 1.854 0 0 1 1.285 2.275 49.585 49.585 0 0 0-1.884 5.872 20.589 20.589 0 0 1 1.171 4.787 1.8 1.8 0 0 1 .771 1.38c.076 1.047.162 2.1.238 3.15l.162.029a2.349 2.349 0 0 1 .276.1 5.415 5.415 0 0 1 .676.3 4.408 4.408 0 0 1 .885.685 1.921 1.921 0 0 1 .542 1.3 1.861 1.861 0 0 1-.542 1.3 1.808 1.808 0 0 1-1.7.495c.276 4.121.457 8.242.438 12.363a1.844 1.844 0 0 1-.038 3.683h-.048a77.649 77.649 0 0 1-1.1 10.688c-.742 4.121-1.723 8.232-2.579 12.353a1.725 1.725 0 0 1 .942-.285 1.847 1.847 0 0 1 0 3.693 1.628 1.628 0 0 1-1.456-.79 84.033 84.033 0 0 0-.99 6.51 1.685 1.685 0 0 1 1.056-.371 1.847 1.847 0 0 1 0 3.693 1.718 1.718 0 0 1-1.085-.381c.019 1.38.1 2.76.2 4.13.029.029.067.029.1.057a2.059 2.059 0 0 1 .542 1.3v2.084a1.765 1.765 0 0 1-.152.7c.238 1.513.542 3.007.923 4.483a42.456 42.456 0 0 0 1.646 3.4 24.921 24.921 0 0 1 .914-2.817 1.882 1.882 0 0 1 2.275-1.285 1.858 1.858 0 0 1 1.285 2.275 28.707 28.707 0 0 0-1.656 6.215 8.809 8.809 0 0 1 1.028-.638 1.821 1.821 0 0 1 1.865 0 11.731 11.731 0 0 1 5.09 9.956 1.68 1.68 0 0 1-.581 1.342c7.09 5.2 16.531 7.481 24.612 4.083-11.259-2.95-19.244-12.9-22.432-23.479zM89.139 445.3a1.847 1.847 0 0 1 0-3.693 1.847 1.847 0 0 1 0 3.693zm6.262-25.049a1.847 1.847 0 0 1 0-3.693 1.848 1.848 0 0 1 0 3.697zm7.414 88.615a1.872 1.872 0 0 1-.247.933l-.285.371a1.826 1.826 0 0 1-.818.476c-.162.019-.324.048-.495.067a1.408 1.408 0 0 1-.714-.162 1.348 1.348 0 0 1-.59-.381 2.059 2.059 0 0 1-.542-1.3v-.695a1.873 1.873 0 0 1 .247-.933l.286-.371a1.826 1.826 0 0 1 .818-.476l.495-.067a1.407 1.407 0 0 1 .714.162 1.348 1.348 0 0 1 .59.381 2.059 2.059 0 0 1 .542 1.3zm-1.152-55.21a1.407 1.407 0 0 1-.714-.162 1.348 1.348 0 0 1-.59-.381 2.059 2.059 0 0 1-.542-1.3l.001-2.088a1.9 1.9 0 0 1 .542-1.3 1.861 1.861 0 0 1 1.3-.542 1.407 1.407 0 0 1 .714.162 1.348 1.348 0 0 1 .59.381 2.059 2.059 0 0 1 .542 1.3v2.084a1.9 1.9 0 0 1-.542 1.3 1.86 1.86 0 0 1-1.3.545zm3.483 4.654a1.847 1.847 0 0 1 0 3.693 1.847 1.847 0 0 1 .001-3.693zm6.957 45.93a1.873 1.873 0 0 1 .933.247l.371.286a1.826 1.826 0 0 1 .476.818l.067.495a1.407 1.407 0 0 1-.162.714 1.348 1.348 0 0 1-.381.59 2.059 2.059 0 0 1-1.3.542h-.695a1.873 1.873 0 0 1-.933-.247l-.371-.285a1.826 1.826 0 0 1-.476-.818c-.019-.162-.048-.324-.067-.495a1.407 1.407 0 0 1 .162-.714 1.347 1.347 0 0 1 .381-.59 2.058 2.058 0 0 1 1.3-.542zm-5.168-23.917a1.347 1.347 0 0 1 .381-.59.137.137 0 0 1 .019-.029.709.709 0 0 0 .067-.114c.019-.057.029-.1.048-.162 0-.162.019-.314.019-.476a1.9 1.9 0 0 1 .542-1.3 1.86 1.86 0 0 1 1.3-.542 1.407 1.407 0 0 1 .714.162 1.348 1.348 0 0 1 .59.381 2.059 2.059 0 0 1 .543 1.3c0 .19 0 .371-.01.562a7.106 7.106 0 0 1-.1.723 1.336 1.336 0 0 1-.057.267 2.349 2.349 0 0 1-.1.276 5.422 5.422 0 0 1-.3.676 4.154 4.154 0 0 1-.685.885 1.92 1.92 0 0 1-1.3.542 1.86 1.86 0 0 1-1.3-.542 1.774 1.774 0 0 1-.381-2.018zm.6 116.025a63.742 63.742 0 0 1-2.779-11.135 1.906 1.906 0 0 1 1.285-2.275 1.861 1.861 0 0 1 2.275 1.285 64.606 64.606 0 0 0 2.779 11.132 1.87 1.87 0 0 1-1.285 2.275 1.9 1.9 0 0 1-2.274-1.282zm2.484 51.46a1.847 1.847 0 0 1 0-3.693 1.847 1.847 0 0 1 .001 3.693zm.695-19.491a1.847 1.847 0 0 1 0-3.693 1.847 1.847 0 0 1 .001 3.692zm6.957 75.852a1.847 1.847 0 0 1 0-3.693 1.847 1.847 0 0 1 .001 3.693z" fill="#564235" opacity=".5"/><path data-name="패스 13999" d="M239.397 391.213a90.7 90.7 0 0 1-57.608-20.824.804.804 0 1 1 1.028-1.237 88.033 88.033 0 0 0 119.8-6.481.807.807 0 0 1 1.133-.019.79.79 0 0 1 .019 1.133 90.6 90.6 0 0 1-59.692 27.3 85.097 85.097 0 0 1-4.682.124z" fill="#56463b"/><path data-name="패스 14000" d="M176.783 251.766q6.881 3.526 13.762 7.043a11.733 11.733 0 0 0 3.407 1.323c4.511.733 8.461-3.769 13.029-3.626-1.1-7-24.6-1.875-30.2-4.74z" fill="#dbb38a"/><path data-name="패스 14001" d="M184.178 263.463a24.86 24.86 0 0 1-9.946 2.2l8.518 6.462c.343-2.532.676-5.063 1.018-7.6" fill="#dbb38a"/><path data-name="패스 14002" d="m200.224 306.614.029 5.368c1.608-.01 3.217-.029 4.825-.038a7.856 7.856 0 0 0-4.387-5.244" fill="#dbb38a"/><path data-name="패스 14003" d="M287.592 263.52a53.591 53.591 0 0 0 5.805 10.945c1.7-4.721 3.8-10.26 3.969-15.285-.742.162-9.85 4.121-9.765 4.34z" fill="#dbb38a"/><path data-name="패스 14004" d="M285.869 285.524c2.912-1.056 8.461 2.427 10.954 3.55 1.542-2.227 3.588-7.157-.476-8.185-2.426-.609-8.013 3.731-10.478 4.635z" fill="#dbb38a"/><path data-name="패스 14005" d="M286.402 322.137a19.269 19.269 0 0 0-5.91 6.653l7.109-1.142a14.039 14.039 0 0 1-1.8-5.339" fill="#dbb38a"/><g data-name="그룹 5301" fill="#473121"><path data-name="패스 14006" d="M242.5 178.008h-.219a12.577 12.577 0 0 1-9.612-4.15c-6.253-6.986-5.044-20.158-4.987-20.719l1.094.1c-.01.133-1.218 13.267 4.711 19.882a11.523 11.523 0 0 0 8.8 3.788h.2a12.029 12.029 0 0 0 9.175-3.759c6.167-6.614 5.177-19.786 5.168-19.92l1.095-.086c.048.562 1.047 13.79-5.453 20.757a13.086 13.086 0 0 1-9.974 4.111z"/><path data-name="패스 14007" d="M243.118 172.44h-.143a8.927 8.927 0 0 1-6.814-2.969c-4.806-5.33-3.9-15.884-3.864-16.332l1.094.1c0 .1-.9 10.526 3.588 15.5a7.878 7.878 0 0 0 6.015 2.608h.133a8.241 8.241 0 0 0 6.281-2.608c4.663-4.968 3.931-15.408 3.921-15.513l1.094-.086c.038.447.78 11.021-4.207 16.351a9.305 9.305 0 0 1-7.081 2.95z"/><path data-name="패스 14008" d="M243.059 165.864h-.1a6.184 6.184 0 0 1-4.73-2.056c-3.188-3.54-2.589-10.383-2.56-10.669l1.094.1c0 .067-.59 6.653 2.284 9.841a5.15 5.15 0 0 0 3.931 1.694 5.242 5.242 0 0 0 4.2-1.694c2.979-3.179 2.5-9.784 2.5-9.85l1.094-.086c.019.3.523 7.147-2.789 10.678a6.46 6.46 0 0 1-4.911 2.037z"/><g data-name="그룹 5299"><path data-name="패스 14009" d="M225.416 172.307a17.7 17.7 0 0 1-17.864-19.158l1.094.086a16.682 16.682 0 0 0 22.032 17.122l.352 1.037a17.287 17.287 0 0 1-5.625.914z"/><path data-name="패스 14010" d="M224.607 168.129a13.862 13.862 0 0 1-13.979-14.99l1.094.086a12.818 12.818 0 0 0 16.93 13.144l.352 1.037a13.513 13.513 0 0 1-4.4.714z"/><path data-name="패스 14011" d="M225.179 164.169a10.434 10.434 0 0 1-10.527-11.287l1.094.086a9.381 9.381 0 0 0 12.391 9.622l.352 1.037a10.28 10.28 0 0 1-3.31.542z"/><path data-name="패스 14012" d="M204.44 169.346a15.642 15.642 0 0 1-6.519-1.39 16.115 16.115 0 0 1-8.994-11.963l1.085-.162a14.659 14.659 0 0 0 22.27 10.231l.581.933a15.9 15.9 0 0 1-8.413 2.351z"/><path data-name="패스 14013" d="M203.716 165.835a12.243 12.243 0 0 1-5.111-1.094 12.612 12.612 0 0 1-7.043-9.374l1.085-.162a11.251 11.251 0 0 0 17.093 7.852l.581.933a12.52 12.52 0 0 1-6.6 1.846z"/><path data-name="패스 14014" d="M204.145 162.228a9.374 9.374 0 0 1-3.854-.818 9.525 9.525 0 0 1-5.311-7.071l1.085-.162a8.21 8.21 0 0 0 12.477 5.729l.581.933a9.388 9.388 0 0 1-4.968 1.39z"/><path data-name="패스 14015" d="M186.681 171.583a15.41 15.41 0 0 1-4.426-.638 16.154 16.154 0 0 1-10.545-10.631l1.056-.3a14.649 14.649 0 0 0 23.45 7.109l.7.838a16.1 16.1 0 0 1-10.241 3.626z"/><path data-name="패스 14016" d="M185.972 168.17a11.783 11.783 0 0 1-3.464-.5 12.656 12.656 0 0 1-8.261-8.328l1.056-.3a11.246 11.246 0 0 0 18 5.453l.7.838a12.636 12.636 0 0 1-8.031 2.837z"/><path data-name="패스 14017" d="M186.329 164.503a9.026 9.026 0 0 1-2.617-.381 9.511 9.511 0 0 1-6.224-6.281l1.056-.3a8.2 8.2 0 0 0 13.134 3.978l.7.838a9.534 9.534 0 0 1-6.053 2.141z"/><path data-name="패스 14018" d="M172.595 174a10.92 10.92 0 0 1-4.492-.952 14.3 14.3 0 0 1-7.8-11.2l1.085-.143a13.184 13.184 0 0 0 7.166 10.345c4.121 1.856 9.222.619 11.6-2.817l.9.628a10.279 10.279 0 0 1-8.459 4.139z"/><path data-name="패스 14019" d="M173.413 170.327a9.034 9.034 0 0 1-4.454-1.152 9.209 9.209 0 0 1-4.606-7.766l1.094-.019a7.965 7.965 0 0 0 11.982 6.767l.552.942a9.108 9.108 0 0 1-4.578 1.218z"/><path data-name="패스 14020" d="M174.033 166.673a6.283 6.283 0 0 1-6.291-5.606l1.085-.124a5.2 5.2 0 0 0 6.186 4.53l.219 1.075a5.727 5.727 0 0 1-1.209.124z"/></g><g data-name="그룹 5300"><path data-name="패스 14021" d="M259.269 172.917a17.587 17.587 0 0 1-5.625-.914l.352-1.037a16.682 16.682 0 0 0 22.032-17.112l1.094-.086a17.7 17.7 0 0 1-17.864 19.158z"/><path data-name="패스 14022" d="M260.087 168.738a13.773 13.773 0 0 1-4.4-.714l.352-1.037a12.818 12.818 0 0 0 16.931-13.143l1.094-.086a13.863 13.863 0 0 1-13.981 14.99z"/><path data-name="패스 14023" d="M259.507 164.769a9.987 9.987 0 0 1-3.312-.542l.352-1.037a9.381 9.381 0 0 0 12.391-9.622l1.095-.086a10.434 10.434 0 0 1-10.526 11.287z"/><path data-name="패스 14024" d="M280.245 169.956a16.042 16.042 0 0 1-8.423-2.354l.581-.933a14.663 14.663 0 0 0 22.28-10.241l1.085.162a16.136 16.136 0 0 1-8.994 11.963 15.642 15.642 0 0 1-6.519 1.39z"/><path data-name="패스 14025" d="M280.977 166.445a12.434 12.434 0 0 1-6.6-1.846l.581-.933a11.245 11.245 0 0 0 17.083-7.852l1.085.162a12.634 12.634 0 0 1-7.034 9.374 12.234 12.234 0 0 1-5.111 1.085z"/><path data-name="패스 14026" d="M280.549 162.838a9.364 9.364 0 0 1-4.968-1.39l.581-.933a8.21 8.21 0 0 0 12.477-5.729l1.085.162a9.547 9.547 0 0 1-5.311 7.071 9.224 9.224 0 0 1-3.854.818z"/><path data-name="패스 14027" d="M298.004 172.19a16.155 16.155 0 0 1-10.241-3.626l.7-.838a14.649 14.649 0 0 0 23.45-7.106l1.056.3a16.134 16.134 0 0 1-10.545 10.631 15.409 15.409 0 0 1-4.426.638z"/><path data-name="패스 14028" d="M298.718 168.777a12.636 12.636 0 0 1-8.023-2.846l.7-.838a11.246 11.246 0 0 0 18-5.453l1.056.3a12.636 12.636 0 0 1-8.261 8.328 11.892 11.892 0 0 1-3.474.5z"/><path data-name="패스 14029" d="M298.366 165.115a9.554 9.554 0 0 1-6.053-2.141l.7-.838a8.2 8.2 0 0 0 13.134-3.978l1.056.3a9.511 9.511 0 0 1-6.224 6.281 9.024 9.024 0 0 1-2.617.381z"/><path data-name="패스 14030" d="M312.099 174.61a10.279 10.279 0 0 1-8.461-4.14l.9-.628c2.379 3.436 7.481 4.663 11.6 2.817a13.163 13.163 0 0 0 7.17-10.345l1.085.143c-.638 4.968-3.7 9.365-7.8 11.2a11.075 11.075 0 0 1-4.492.952z"/><path data-name="패스 14031" d="M311.281 170.936a9.109 9.109 0 0 1-4.578-1.218l.552-.942a7.965 7.965 0 0 0 11.982-6.767l1.095.019a9.016 9.016 0 0 1-9.06 8.918z"/><path data-name="패스 14032" d="M310.653 167.282a5.726 5.726 0 0 1-1.209-.124l.219-1.075a5.2 5.2 0 0 0 6.186-4.53l1.085.124a6.283 6.283 0 0 1-6.291 5.606z"/></g></g><path data-name="패스 14033" d="M221.295 61.793c-2.237.752-2.95 14.047.238 16.522s41.5 2.4 44.2-1.094 1.913-13.8.4-15.408-2.627.961-3.959 1.142c-15.209 2.113-33.548 1.066-37.879.5-2.474-.324-.752-2.417-2.988-1.666z" fill="#56463b"/></g></g></g></svg>