<svg xmlns="http://www.w3.org/2000/svg" xmlns:xlink="http://www.w3.org/1999/xlink" width="967.99" height="464.062"><defs><linearGradient id="a" x1=".5" y1=".847" x2=".5" y2="-.096" gradientUnits="objectBoundingBox"><stop offset=".01" stop-color="#af7356"/><stop offset=".52" stop-color="#c79545"/><stop offset="1" stop-color="#9a7761"/></linearGradient><linearGradient id="c" x1=".5" y1=".089" x2=".5" y2=".518" xlink:href="#a"/><clipPath id="b"><path data-name="패스 14134" d="M.99.99h966v419.244a42.843 42.843 0 0 1-42.828 42.828H43.818A42.843 42.843 0 0 1 .99 420.234V.99z" transform="translate(-.99 -.99)" fill="none"/></clipPath></defs><g data-name="그룹 5320"><path data-name="패스 14107" d="M.995.995h966v419.244a42.843 42.843 0 0 1-42.828 42.828H43.823A42.843 42.843 0 0 1 .995 420.239V.995z" fill="#f7f7f7" stroke="#6d6d6d" stroke-miterlimit="10" stroke-width="1.99"/><g data-name="그룹 5319" clip-path="url(#b)" transform="translate(.995 .995)"><g data-name="그룹 5318"><path data-name="패스 14108" d="M574.466-461.59c39.963 7.109 76.185 30.674 101.511 62.4s40.1 71.17 45.207 111.447c3.493 27.514 2.7 55.8 10.583 82.4 4.273 14.428 11.049 28.114 14.019 42.866 5.139 25.5-1.437 51.859-.228 77.842a130.478 130.478 0 0 0 20.215 63.7L283.99-3.735a595.328 595.328 0 0 0 18.33-189.089c-1.028-15.989-2.57-32.739 3.845-47.424s24.888-28.97 24.888-28.97 6.662-41.533 12.039-66.516 18.159-47.615 34.6-67.182c39.335-46.825 104.042-56.656 104.042-56.656l92.736-2z" transform="translate(-14.652 21.341)" fill="url(#a)"/><path data-name="패스 14109" d="M543.739 7.261c12.239-4.873 40.534-37.2 44.322-49.823s3.931-25.992 4.759-39.135c2.084-33.044 10.221-68.543 35.7-89.681 15.361-12.744 38.554-18.444 55.466-7.833 10.06 6.319 16.313 17.245 20.6 28.314 10.279 26.467 11.554 55.419 16.741 83.333s15.646 56.875 38.592 73.6l-216.17 1.215z" fill="#825b45"/><path data-name="패스 14110" d="M652.054-125.914a457 457 0 0 1-8.413 132.48c17.683-.742 54.677.685 54.677.685s-15.78-75.862-18.257-113.293c-.266-3.95-.619-8.033-2.484-11.535s-5.6-6.3-9.536-5.844l-16-2.513z" fill="#604431"/><path data-name="패스 14111" d="M577.791 9.432a.817.817 0 0 1-.562-.228.807.807 0 0 1-.019-1.133c12.439-12.82 18.644-32.806 18.464-59.407-.048-6.91-.438-13.952-.818-20.767-.8-14.381-1.627-29.256.723-43.713a.8.8 0 0 1 .923-.666.807.807 0 0 1 .666.923c-2.322 14.285-1.5 29.075-.7 43.37.381 6.833.771 13.9.828 20.843.19 27.038-6.177 47.405-18.911 60.539a.824.824 0 0 1-.581.247z" fill="#bc9f8b"/><g data-name="그룹 5317"><path data-name="패스 14112" d="M235.405 45.946c-10.65 18.559-11.6 40.915-12.287 62.3-.828 25.782-.324 54.972 18.482 72.636 19.777 18.578 50.479 11.954 77.6 12.62 205.982 5.054 488.32 7.661 504.5-9.47s18.121-67.23 14.714-93.945S824.4 36.638 804.137 18.9C785.274 2.388 760.196-4.76 735.87-10.8a1465.957 1465.957 0 0 0-178.525-32.8c-16.217-1.951-32.682-3.626-48.842-1.209-26.525 3.969-50.2 18.521-76.69 22.442C405.041-18.4 382.761-37.9 357.045-33.3c-20.814 3.712-40.306 22.47-58.759 32.035-23.412 12.134-49.138 23.26-62.88 47.225z" transform="translate(-11.703 1.279)" fill="url(#c)"/><g data-name="그룹 5316"><path data-name="패스 14113" d="M290.123 75.938c-15.951 0-31.892-2.37-45.9-4.682a.801.801 0 0 1 .266-1.58c16.427 2.7 35.518 5.5 54.1 4.416 19.977-1.161 37.536-6.843 50.794-16.427 7.652-5.539 14.257-12.61 20.633-19.444 2.617-2.808 5.32-5.7 8.071-8.47 7.633-7.68 19.491-18.2 34.2-20.881a.803.803 0 1 1 .286 1.58c-14.277 2.611-25.879 12.911-33.359 20.434-2.731 2.741-5.425 5.634-8.033 8.432-6.434 6.9-13.086 14.028-20.871 19.653-13.5 9.765-31.359 15.551-51.641 16.731a150 150 0 0 1-8.547.238z" fill="#56463b"/><path data-name="패스 14114" d="m376.768 134.755-1.056-1.214c18.682-16.427 27.086-41.01 35.223-64.784 7.842-22.927 15.951-46.634 33.244-63.461l1.123 1.152c-17.017 16.56-25.059 40.087-32.844 62.833-8.2 23.974-16.684 48.766-35.68 65.469z" fill="#dbb38a"/><path data-name="패스 14115" d="m342.011 173.17-.457-1.542c10.393-3.084 21.423-4.578 32.092-6.034 16.807-2.284 34.176-4.644 48.823-13.305 24.459-14.466 36.194-42.609 47.015-72.636l1.513.542c-10.926 30.3-22.794 58.731-47.71 73.473-14.923 8.832-32.463 11.211-49.423 13.514-10.612 1.437-21.585 2.931-31.854 5.977z" fill="#dbb38a"/><path data-name="패스 14116" d="m464.498 173.485-1.466-.647c6.976-15.808 8.6-33.472 10.183-50.546.885-9.612 1.808-19.558 3.664-29.132l1.58.3c-1.837 9.5-2.75 19.4-3.636 28.97-1.589 17.207-3.236 35-10.317 51.05z" fill="#dbb38a"/><path data-name="패스 14117" d="M515.92 145.223c-6.386-6-9.441-14.58-12.125-22.156l-15.4-43.389 1.513-.533 15.4 43.389c2.627 7.4 5.606 15.8 11.716 21.528l-1.094 1.171z" fill="#dbb38a"/><path data-name="패스 14118" d="M520.754 121.525c-8.327-16.828-17.778-35.899-18.568-56.151l1.6-.067c.78 19.91 10.145 38.821 18.406 55.5z" fill="#dbb38a"/><path data-name="패스 14119" d="M628.775 146.489c-12.154-3.826-23.479-10-34.424-15.97-28.894-15.77-58.778-32.073-81.915-56.542l1.171-1.1c22.965 24.288 52.726 40.534 81.515 56.237 10.878 5.939 22.137 12.077 34.138 15.846l-.485 1.532z" fill="#dbb38a"/><path data-name="패스 14120" d="M497.894 24.306a117.665 117.665 0 0 1-1.21-29.988v-.1c.171-1.856.343-3.769-.438-5.3a8.34 8.34 0 0 0-1.941-2.275 30.87 30.87 0 0 0-45.016 4.418l-1.275-.971a32.456 32.456 0 0 1 47.348-4.644 9.6 9.6 0 0 1 2.313 2.75c.98 1.942.79 4.188.609 6.167v.1a115.766 115.766 0 0 0 1.19 29.58z" fill="#dbb38a"/><path data-name="패스 14121" d="M478.517 79.383a13.223 13.223 0 0 1-8.489-3.1c-3.912-3.322-6.148-8.822-6.139-15.1a49.668 49.668 0 0 1 2.522-13.943 25.437 25.437 0 0 1-18.3 2.75c-3.712-.866-6.062-2.912-6.281-5.472-.19-2.151 1.19-4.007 2.417-5.387a41.54 41.54 0 0 1 23.06-13.143l.3 1.57a39.914 39.914 0 0 0-22.162 12.634c-1.009 1.142-2.151 2.636-2.018 4.178.19 2.151 2.731 3.5 5.054 4.045a23.71 23.71 0 0 0 18.854-3.683l1.894-1.342-.666 2.227c-1.5 5.035-3.055 10.241-3.065 15.551 0 5.806 2.027 10.869 5.577 13.876 4.073 3.455 10.212 3.664 13.7.466l1.08 1.182a10.766 10.766 0 0 1-7.338 2.674z" fill="#dbb38a"/><path data-name="패스 14122" d="M531.081 66.725a105.335 105.335 0 0 1-14.657-1.056l.228-1.589c22.261 3.15 42.257-.885 56.294-11.373 4.835-3.607 9.184-8.128 13.391-12.487 6.824-7.081 13.876-14.409 23.184-18.035l.581 1.494c-8.975 3.5-15.6 10.374-22.613 17.654a113.966 113.966 0 0 1-13.581 12.658c-11.2 8.366-26.077 12.734-42.828 12.734z" fill="#dbb38a"/><path data-name="패스 14123" d="m510.581 24.726-.733-1.428c13.914-7.186 34.357-14.219 52.7-6.948.923.371 1.856.771 2.741 1.171a33.732 33.732 0 0 0 6.253 2.284c5.035 1.114 10.06-.124 15.38-1.437 4.663-1.152 9.489-2.341 14.323-1.8l-.181 1.6c-4.549-.514-9.232.647-13.762 1.761-5.263 1.3-10.707 2.646-16.113 1.447a34.964 34.964 0 0 1-6.557-2.379c-.885-.39-1.789-.79-2.693-1.142-17.791-7.062-37.758-.153-51.377 6.881z" fill="#dbb38a"/><path data-name="패스 14124" d="M666.254 4.435c-8.623-3.4-18.254-2.941-27.571-2.5-3 .143-6.1.286-9.127.3h-.552a104.046 104.046 0 0 1-54.211-15.216c-3.255-1.98-6.472-4.188-9.593-6.319-8.489-5.815-17.264-11.82-27.333-13.743a37.73 37.73 0 0 0-38.012 16.332l-1.351-.866a39.347 39.347 0 0 1 39.658-17.045c10.393 1.989 19.31 8.09 27.943 14 3.1 2.122 6.3 4.311 9.517 6.272A102.678 102.678 0 0 0 629.546.638c2.988-.019 6.072-.162 9.06-.3 9.479-.447 19.292-.9 28.228 2.617l-.59 1.494z" fill="#dbb38a"/><path data-name="패스 14125" d="M667.796 29.017a16.108 16.108 0 0 1-3.931-.485 16.5 16.5 0 0 1-11.287-10.221l1.5-.552a14.678 14.678 0 0 0 23.517 5.986l.238-.219a4.379 4.379 0 0 1 5.8-.838 10.9 10.9 0 0 0 1.228.457 5.029 5.029 0 0 0 4.092-.733 6.81 6.81 0 0 0 3.026-4.54c.571-3.759-1.77-7.224-4.159-9.2-2.922-2.436-6.786-3.8-9.9-4.9l.533-1.513c3.226 1.142 7.243 2.56 10.383 5.177 3.474 2.893 5.282 6.986 4.721 10.678a8.372 8.372 0 0 1-3.75 5.653 6.569 6.569 0 0 1-5.4.923c-.485-.143-.952-.333-1.4-.514a4.151 4.151 0 0 0-2.532-.523 4.5 4.5 0 0 0-1.58 1.066l-.247.228a16.5 16.5 0 0 1-10.869 4.064z" fill="#dbb38a"/><path data-name="패스 14126" d="M673.459 146.365a191.793 191.793 0 0 0-19.054-40.21c-4.169-6.662-9.869-15.78-6.462-24.079 1.171-2.855 3.3-5.254 5.368-7.585 2.874-3.236 5.587-6.3 5.482-10.222-.124-4.644-4.3-8.223-7.995-11.373a131.279 131.279 0 0 1-22.565-24.944l1.31-.914a129.38 129.38 0 0 0 22.27 24.612c3.969 3.388 8.442 7.214 8.585 12.572.124 4.559-2.931 8-5.891 11.335-1.97 2.227-4.016 4.521-5.082 7.128-3.093 7.538 2.132 15.9 6.338 22.622a193.8 193.8 0 0 1 19.215 40.543l-1.523.514z" fill="#dbb38a"/><path data-name="패스 14127" d="m699.383 161.669-1.589-.238a295.375 295.375 0 0 1 13.115-53.163c4.083-11.735 8.708-25.03 2.332-35.376a51.973 51.973 0 0 0-4.53-5.882c-3.94-4.625-8.014-9.413-6.386-15.247a17.648 17.648 0 0 1 3.645-6.091l23.174-28.76 1.247 1.009-23.177 28.761a16.309 16.309 0 0 0-3.35 5.51c-1.4 5.016 2.227 9.27 6.063 13.771a51.728 51.728 0 0 1 4.687 6.073c6.776 10.992 1.808 25.268-2.189 36.746a293.824 293.824 0 0 0-13.048 52.878z" fill="#dbb38a"/><path data-name="패스 14128" d="M768.584 85.074a5.958 5.958 0 0 1-4.3-1.894 4.3 4.3 0 0 1-1.095-2.132 36.374 36.374 0 0 1-29.313.19l.647-1.466a34.727 34.727 0 0 0 29.123-.7l1.485-.742-.347 1.624a2.456 2.456 0 0 0 .685 2.16A4.286 4.286 0 0 0 769 83.456c2.322-.276 4.245-1.98 6.177-3.845 1.913-1.856 4.083-3.959 6.976-4.454a12.4 12.4 0 0 1 1.951-.143 14.838 14.838 0 0 0 1.485-.086 14.387 14.387 0 0 0 5.092-2.1c6.243-3.54 11.63-6.919 14.247-12.372l1.447.695c-3.055 6.348-9.622 10.079-14.9 13.077a16.006 16.006 0 0 1-5.682 2.294 16.449 16.449 0 0 1-1.646.1 12.541 12.541 0 0 0-1.723.124c-2.4.409-4.378 2.332-6.129 4.026-2.046 1.98-4.273 3.95-7.1 4.292a4.363 4.363 0 0 1-.609.038z" fill="#dbb38a"/><path data-name="패스 14129" d="M738.457 105.251a5.468 5.468 0 0 1-3.16-8.232l1.294.952a3.882 3.882 0 0 0 2.2 5.71l-.324 1.57z" fill="#dbb38a"/><path data-name="패스 14130" d="M739.974 121.488a4.483 4.483 0 0 1-3.15-1.409 4.2 4.2 0 0 1-1.133-4.473l1.494.59a2.946 2.946 0 0 0 3.519 3.56l.571 1.494a3.645 3.645 0 0 1-1.313.238z" fill="#dbb38a"/><path data-name="패스 14131" d="M739.984 133.042a9.888 9.888 0 0 1-5.644-1.77l.923-1.313a8.287 8.287 0 0 0 5.653 1.428l.19 1.589a8.789 8.789 0 0 1-1.122.066z" fill="#dbb38a"/><path data-name="사각형 4292" fill="#dbb38a" d="m769.047 99.226 1.343-.884 1.539 2.336-1.343.884z"/><path data-name="사각형 4293" fill="#dbb38a" d="m769.351 116.555.719-1.438 1.558.778-.719 1.439z"/><path data-name="패스 14132" d="M771.981 130.662a4.8 4.8 0 0 1-2.56-.761 4.652 4.652 0 0 1-2.122-2.988l1.57-.3a3.219 3.219 0 0 0 3.769 2.37l.4 1.551a4.4 4.4 0 0 1-1.056.133z" fill="#dbb38a"/><path data-name="사각형 4294" fill="#dbb38a" d="m790.528 96.517.391-1.56 3.111.781-.391 1.56z"/><path data-name="사각형 4295" fill="#dbb38a" d="m794.218 111.113.719-1.438 1.558.778-.719 1.439z"/><path data-name="사각형 4296" fill="#dbb38a" d="m794.121 121.98.89-1.338 2.329 1.55-.891 1.338z"/><path data-name="사각형 4297" fill="#dbb38a" d="m589.903 67.714.791-1.399 5.448 3.08-.791 1.4z"/><path data-name="사각형 4298" fill="#dbb38a" d="m607.216 89.336.496-1.53 2.335.757-.495 1.53z"/><path data-name="사각형 4299" fill="#dbb38a" d="m605.667 73.022.496-1.53 2.335.757-.495 1.53z"/><path data-name="사각형 4300" fill="#dbb38a" d="m603.344 59.906.387-1.56 6.217 1.539-.387 1.56z"/><path data-name="사각형 4301" fill="#dbb38a" d="m602.664 105.894.058-1.607 3.101.113-.058 1.607z"/><path data-name="사각형 4302" fill="#dbb38a" d="m626.478 76.975.719-1.438 1.557.78-.719 1.437z"/><path data-name="사각형 4303" fill="#dbb38a" d="m625.605 66.14.722-1.436 1.556.782-.722 1.436z"/><path data-name="사각형 4304" fill="#dbb38a" d="m621.875 45.067.518-1.522 2.324.791-.518 1.523z"/><path data-name="사각형 4305" fill="#dbb38a" d="m312.648 94.837.597-1.493 3.889 1.555-.598 1.493z"/><path data-name="사각형 4306" fill="#dbb38a" d="m311.723 112.7.892-1.338 2.328 1.552-.892 1.338z"/><path data-name="사각형 4307" fill="#dbb38a" d="m341.131 138.596.773-.773 1.137 1.136-.773.774z"/><path data-name="사각형 4308" fill="#dbb38a" d="M341.697 112.722h2.332v1.608h-2.332z"/><path data-name="사각형 4309" fill="#dbb38a" d="m339.843 97.855.73-1.432 1.552.79-.73 1.433z"/><path data-name="사각형 4310" fill="#dbb38a" d="M342.477 83.209h.78v1.608h-.78z"/><path data-name="사각형 4311" fill="#dbb38a" d="m345 71.344 1.137-1.137.774.774-1.138 1.137z"/><path data-name="사각형 4312" fill="#dbb38a" d="m366.937 70.045.722-1.437 1.557.782-.722 1.437z"/><path data-name="사각형 4313" fill="#dbb38a" d="m369.452 90.941.39-1.56 3.111.778-.39 1.56z"/><path data-name="사각형 4314" fill="#dbb38a" d="M369.668 107.288H372v1.608h-2.332z"/><path data-name="사각형 4315" fill="#dbb38a" d="m397.257 44.315.719-1.438 1.558.778-.719 1.439z"/><path data-name="사각형 4316" fill="#dbb38a" d="m416.469 27.066 1.137-1.137.774.774-1.138 1.137z"/><path data-name="사각형 4317" fill="#dbb38a" d="m275.258 82.33.885-1.343 2.336 1.54-.885 1.343z"/><path data-name="사각형 4318" fill="#dbb38a" d="m272.333 97.142.519-1.522 2.323.792-.518 1.522z"/><path data-name="사각형 4319" fill="#dbb38a" d="M274.895 112.722h.78v1.608h-.78z"/><path data-name="사각형 4320" fill="#dbb38a" d="m274.499 129.095.722-1.438 1.557.783-.722 1.437z"/><path data-name="사각형 4321" fill="#dbb38a" d="m253 135.299.316-1.577 3.882.777-.316 1.577z"/><path data-name="사각형 4322" fill="#dbb38a" d="M253.919 114.283h2.332v1.608h-2.332z"/><path data-name="사각형 4323" fill="#dbb38a" d="m253.051 97.917.232-1.592 5.436.79-.232 1.593z"/><path data-name="사각형 4324" fill="#dbb38a" d="m254.904 85.358 1.137-1.137 1.554 1.554-1.137 1.137z"/><path data-name="사각형 4325" fill="#dbb38a" d="m233.56 94.828.391-1.56 3.111.781-.391 1.56z"/><path data-name="패스 14133" d="M234.752 115.644a5.4 5.4 0 0 0-4.74-1.3l-.333-1.57a7.02 7.02 0 0 1 6.167 1.694l-1.094 1.18z" fill="#dbb38a"/><path data-name="사각형 4326" fill="#dbb38a" d="m233.403 128.162.73-1.433 1.552.79-.73 1.433z"/><path data-name="사각형 4327" fill="#dbb38a" d="m231.598 143.638 1.137-1.137 1.554 1.555-1.137 1.136z"/></g></g></g></g></g></svg>