<svg xmlns="http://www.w3.org/2000/svg" width="967.98" height="465.061"><defs><clipPath id="R"><path data-name="사각형 3941" fill="none" d="M0 0h35.213v8.564H0z"/></clipPath><clipPath id="a"><path data-name="패스 13419" d="M43.846 0h880.3a42.86 42.86 0 0 1 42.844 42.839v419.617H.99V42.839A42.868 42.868 0 0 1 43.846 0z" transform="translate(-.99)" fill="none"/></clipPath><clipPath id="c"><path data-name="사각형 3899" fill="none" d="M0 0h34.262v36.159H0z"/></clipPath><clipPath id="d"><path data-name="사각형 3900" fill="none" d="M0 0h122.771v68.512H0z"/></clipPath><clipPath id="e"><path data-name="사각형 3901" fill="none" d="M0 0h103.737v115.138H0z"/></clipPath><clipPath id="f"><path data-name="사각형 3902" fill="none" d="M0 0h48.537v18.08H0z"/></clipPath><clipPath id="g"><path data-name="사각형 3903" fill="none" d="M0 0h100.882v202.681H0z"/></clipPath><clipPath id="h"><path data-name="사각형 3904" fill="none" d="M0 0h108.495v96.107H0z"/></clipPath><clipPath id="i"><path data-name="사각형 3905" fill="none" d="M0 0h88.509v30.45H0z"/></clipPath><clipPath id="j"><path data-name="사각형 3906" fill="none" d="M0 0h23.793v36.159H0z"/></clipPath><clipPath id="k"><path data-name="사각형 3907" fill="none" d="M0 0h124.675v73.27H0z"/></clipPath><clipPath id="l"><path data-name="사각형 3908" fill="none" d="M0 0h38.069v7.612H0z"/></clipPath><clipPath id="m"><path data-name="사각형 3909" fill="none" d="M0 0h33.31v8.564H0z"/></clipPath><clipPath id="n"><path data-name="사각형 3910" fill="none" d="M0 0h15.227v98.01H0z"/></clipPath><clipPath id="o"><path data-name="사각형 3911" fill="none" d="M0 0h48.537v9.516H0z"/></clipPath><clipPath id="p"><path data-name="사각형 3912" fill="none" d="M0 0h36.165v9.516H0z"/></clipPath><clipPath id="q"><path data-name="사각형 3913" fill="none" d="M0 0h10.469v14.273H0z"/></clipPath><clipPath id="r"><path data-name="사각형 3914" fill="none" d="M0 0h10.469v12.37H0z"/></clipPath><clipPath id="s"><path data-name="사각형 3915" fill="none" d="M0 0h39.972v12.37H0z"/></clipPath><clipPath id="t"><path data-name="사각형 3916" fill="none" d="M0 0h11.421v165.571H0z"/></clipPath><clipPath id="u"><path data-name="사각형 3917" fill="none" d="M0 0h24.745v104.671H0z"/></clipPath><clipPath id="v"><path data-name="사각형 3918" fill="none" d="M0 0h31.407v59.948H0z"/></clipPath><clipPath id="w"><path data-name="사각형 3919" fill="none" d="M0 0h8.565v17.128H0z"/></clipPath><clipPath id="x"><path data-name="사각형 3920" fill="none" d="M0 0h8.565v16.176H0z"/></clipPath><clipPath id="y"><path data-name="사각형 3922" fill="none" d="M0 0h10.469v16.176H0z"/></clipPath><clipPath id="z"><path data-name="사각형 3923" fill="none" d="M0 0h106.592v32.353H0z"/></clipPath><clipPath id="A"><path data-name="사각형 3924" fill="none" d="M0 0h143.709v43.772H0z"/></clipPath><clipPath id="B"><path data-name="사각형 3925" fill="none" d="M0 0h64.717v25.692H0z"/></clipPath><clipPath id="C"><path data-name="사각형 3926" fill="none" d="M0 0h58.055v10.467H0z"/></clipPath><clipPath id="D"><path data-name="사각형 3927" fill="none" d="M0 0h19.986v12.37H0z"/></clipPath><clipPath id="E"><path data-name="사각형 3928" fill="none" d="M0 0h19.986v16.176H0z"/></clipPath><clipPath id="F"><path data-name="사각형 3929" fill="none" d="M0 0h17.131v7.612H0z"/></clipPath><clipPath id="G"><path data-name="사각형 3930" fill="none" d="M0 0h223.653v37.111H0z"/></clipPath><clipPath id="H"><path data-name="사각형 3931" fill="none" d="M0 0h83.751v42.82H0z"/></clipPath><clipPath id="I"><path data-name="사각형 3932" fill="none" d="M0 0h36.165v66.609H0z"/></clipPath><clipPath id="J"><path data-name="사각형 3933" fill="none" d="M0 0h8.565v50.432H0z"/></clipPath><clipPath id="K"><path data-name="사각형 3934" fill="none" d="M0 0h26.648v67.56H0z"/></clipPath><clipPath id="L"><path data-name="사각형 3935" fill="none" d="M0 0h11.421v21.886H0z"/></clipPath><clipPath id="M"><path data-name="사각형 3936" fill="none" d="M0 0h6.662v23.789H0z"/></clipPath><clipPath id="N"><path data-name="사각형 3937" fill="none" d="M0 0h9.517v20.934H0z"/></clipPath><clipPath id="O"><path data-name="사각형 3938" fill="none" d="M0 0h45.682v39.965H0z"/></clipPath><clipPath id="P"><path data-name="사각형 3939" fill="none" d="M0 0h37.117v34.256H0z"/></clipPath><clipPath id="Q"><path data-name="사각형 3940" fill="none" d="M0 0h32.358v29.498H0z"/></clipPath><clipPath id="b"><path data-name="사각형 3898" fill="none" d="M0 0h42.827v40.917H0z"/></clipPath><clipPath id="S"><path data-name="사각형 3942" fill="none" d="M0 0h30.455v133.218H0z"/></clipPath><clipPath id="T"><path data-name="사각형 3943" fill="none" d="M0 0h42.827v68.512H0z"/></clipPath><clipPath id="U"><path data-name="사각형 3944" fill="none" d="M0 0h4.759v32.353H0z"/></clipPath><clipPath id="V"><path data-name="사각형 3945" fill="none" d="M0 0h14.276v61.851H0z"/></clipPath><clipPath id="W"><path data-name="사각형 3946" fill="none" d="M0 0h9.517v6.661H0z"/></clipPath><clipPath id="X"><path data-name="사각형 3947" fill="none" d="M0 0h9.517v60.9H0z"/></clipPath><clipPath id="Y"><path data-name="사각형 3948" fill="none" d="M0 0h7.614v23.789H0z"/></clipPath><clipPath id="Z"><path data-name="사각형 3949" fill="none" d="M0 0h10.469v35.208H0z"/></clipPath><clipPath id="aa"><path data-name="사각형 3950" fill="none" d="M0 0h10.469v47.578H0z"/></clipPath><clipPath id="ab"><path data-name="사각형 3951" fill="none" d="M0 0h17.131v131.315H0z"/></clipPath><clipPath id="ac"><path data-name="사각형 3952" fill="none" d="M0 0h15.227v77.076H0z"/></clipPath><clipPath id="ad"><path data-name="사각형 3953" fill="none" d="M0 0h9.517v17.128H0z"/></clipPath><clipPath id="ae"><path data-name="사각형 3954" fill="none" d="M0 0h25.696v66.609H0z"/></clipPath><clipPath id="af"><path data-name="사각형 3955" fill="none" d="M0 0h33.31v152.249H0z"/></clipPath><clipPath id="ag"><path data-name="사각형 3956" fill="none" d="M0 0h37.117v17.128H0z"/></clipPath><clipPath id="ah"><path data-name="사각형 3957" fill="none" d="M0 0h14.276v29.498H0z"/></clipPath><clipPath id="ai"><path data-name="사각형 3958" fill="none" d="M0 0h6.662v17.128H0z"/></clipPath><clipPath id="aj"><path data-name="사각형 3960" fill="none" d="M0 0h5.71v19.031H0z"/></clipPath><clipPath id="ak"><path data-name="사각형 3961" fill="none" d="M0 0h2.855v8.564H0z"/></clipPath><clipPath id="al"><path data-name="사각형 3962" fill="none" d="M0 0h129.433v21.886H0z"/></clipPath><clipPath id="am"><path data-name="사각형 3963" fill="none" d="M0 0h48.537v14.273H0z"/></clipPath><clipPath id="an"><path data-name="사각형 3964" fill="none" d="M0 0h83.751v21.886H0z"/></clipPath><clipPath id="ao"><path data-name="사각형 3965" fill="none" d="M0 0h61.861v113.235H0z"/></clipPath><clipPath id="ap"><path data-name="사각형 3966" fill="none" d="M0 0h18.083v90.398H0z"/></clipPath><clipPath id="aq"><path data-name="사각형 3967" fill="none" d="M0 0h60.91v30.45H0z"/></clipPath><clipPath id="ar"><path data-name="사각형 3968" fill="none" d="M0 0h10.469v20.934H0z"/></clipPath><clipPath id="as"><path data-name="사각형 3969" fill="none" d="M0 0h6.662v30.45H0z"/></clipPath><clipPath id="at"><path data-name="사각형 3970" fill="none" d="M0 0h43.779v21.886H0z"/></clipPath><clipPath id="au"><path data-name="사각형 3971" fill="none" d="M0 0h88.509v17.128H0z"/></clipPath><clipPath id="av"><path data-name="사각형 3972" fill="none" d="M0 0h80.896v26.644H0z"/></clipPath><clipPath id="aw"><path data-name="사각형 3973" fill="none" d="M0 0h31.407v18.08H0z"/></clipPath><clipPath id="ax"><path data-name="사각형 3974" fill="none" d="M0 0h35.213v12.37H0z"/></clipPath><clipPath id="ay"><path data-name="사각형 3975" fill="none" d="M0 0h26.648v10.467H0z"/></clipPath><clipPath id="az"><path data-name="사각형 3976" fill="none" d="M0 0h29.503v8.564H0z"/></clipPath><clipPath id="aA"><path data-name="사각형 3977" fill="none" d="M0 0h19.034v7.612H0z"/></clipPath><clipPath id="aB"><path data-name="사각형 3978" fill="none" d="M0 0h21.889v12.37H0z"/></clipPath><clipPath id="aC"><path data-name="사각형 3979" fill="none" d="M0 0h33.31v11.419H0z"/></clipPath><clipPath id="aD"><path data-name="사각형 3980" fill="none" d="M0 0h27.6v11.419H0z"/></clipPath><clipPath id="aE"><path data-name="사각형 3981" fill="none" d="M0 0h8.565v49.481H0z"/></clipPath><clipPath id="aF"><path data-name="사각형 3982" fill="none" d="M0 0h32.358v163.667H0z"/></clipPath><clipPath id="aG"><path data-name="사각형 3983" fill="none" d="M0 0h5.71v53.287H0z"/></clipPath><clipPath id="aH"><path data-name="사각형 3984" fill="none" d="M0 0h3.807v53.287H0z"/></clipPath><clipPath id="aI"><path data-name="사각형 3985" fill="none" d="M0 0h98.978v53.287H0z"/></clipPath></defs><g data-name="그룹 4804" style="isolation:isolate"><path data-name="패스 13272" d="M43.822 2.1h880.336a42.838 42.838 0 0 1 42.827 42.818v419.148H.995V44.918A42.844 42.844 0 0 1 43.822 2.1z" fill="#f7f7f7" stroke="#6d6d6d" stroke-miterlimit="10" stroke-width="1.99"/><g data-name="그룹 4803" clip-path="url(#a)" transform="translate(.995)"><g data-name="그룹 4802"><path data-name="패스 13273" d="M567.975 222.074a1.6 1.6 0 0 1-.847-.247 89.076 89.076 0 0 1-9.327-6.632c-5.853-4.786-12.42-11.695-10.45-17.413 1.018-2.959 5.625-4.786 18.8-9.639 7.795-2.874 9.441-2.94 10.888-3.007.933-.038 1.732-.076 5.168-1.332a15.314 15.314 0 0 1 5.311-1.132 9.588 9.588 0 0 1 2.579.343l.133.038c.267.076.523.152.79.257 1.256.514 4.188 2 4.045 4.625a4.2 4.2 0 0 1-2.132 3.216c-1.837 1.76-3.674 3.6-5.444 5.443a109.515 109.515 0 0 0-11.563 13.569 83.762 83.762 0 0 0-6.5 11 1.58 1.58 0 0 1-1 .828 1.744 1.744 0 0 1-.438.067" fill="#cfa57a"/><path data-name="패스 13274" d="M587.513 184.281a8.04 8.04 0 0 1 2.141.285 5.6 5.6 0 0 1 .742.238c.333.133 3.15 1.294 3.055 3.054a2.934 2.934 0 0 1-1.532 2.036 185.22 185.22 0 0 0-5.606 5.6 112.111 112.111 0 0 0-11.725 13.759 83.873 83.873 0 0 0-6.624 11.209 90.264 90.264 0 0 1-9.165-6.518c-7.243-5.919-11.316-11.685-9.945-15.653.8-2.322 6.472-4.472 17.835-8.669 13.486-4.977 7.709-1.275 16.055-4.33a13.83 13.83 0 0 1 4.759-1.028m.01-3.188a16.84 16.84 0 0 0-5.824 1.208c-3.236 1.189-3.931 1.218-4.721 1.247-1.961.086-3.921.352-11.383 3.1-13.039 4.805-18.435 6.8-19.758 10.619-1.8 5.215 1.98 11.847 10.945 19.174a92.351 92.351 0 0 0 9.5 6.747 3.18 3.18 0 0 0 1.694.485 3.042 3.042 0 0 0 .876-.124 3.228 3.228 0 0 0 2-1.665 81.64 81.64 0 0 1 6.377-10.791 108.341 108.341 0 0 1 11.411-13.379c1.723-1.808 3.5-3.587 5.292-5.3a5.713 5.713 0 0 0 2.731-4.387c.133-2.56-1.7-4.815-5.044-6.185a9.575 9.575 0 0 0-.971-.324l-.114-.029a11.212 11.212 0 0 0-3.017-.409"/><path data-name="패스 13275" d="M453.816 229.724a1.594 1.594 0 0 1-1.532-1.113c-2.455-7.727-6.215-13.636-11.192-17.575-.362-.285-.8-.618-1.294-.99a81.054 81.054 0 0 1-10.859-9.611c-3.426-3.654-5.2-6.214-4.749-9.23a7.9 7.9 0 0 1 3.16-4.967 15.638 15.638 0 0 1 3.655-2.132 13.705 13.705 0 0 1 5.444-1.094c3.388 0 6.947 1.123 10.7 2.312 7.109 2.246 12.715 4.025 17.55 9.658 1.561 1.817 5.206 6.071 5.729 11.856a16.311 16.311 0 0 1-.209 4.32c-1.275 7.279-7.147 14.159-15.713 18.4a1.539 1.539 0 0 1-.714.162" fill="#cfa57a"/><path data-name="패스 13276" d="M436.457 184.62c3.055 0 6.281.99 10.221 2.236 6.881 2.179 12.287 3.882 16.817 9.173 1.532 1.779 4.873 5.681 5.349 10.952a14.945 14.945 0 0 1-.19 3.9c-1.171 6.7-6.738 13.236-14.847 17.252-3.16-9.963-7.871-15.291-11.725-18.346a87.6 87.6 0 0 1-11.982-10.448c-3.369-3.587-4.663-5.671-4.33-7.9a6.377 6.377 0 0 1 2.579-3.949 14.8 14.8 0 0 1 3.283-1.913 12.186 12.186 0 0 1 4.816-.961m.01-3.207a15.234 15.234 0 0 0-6.062 1.218 17.424 17.424 0 0 0-4.026 2.35 9.429 9.429 0 0 0-3.75 5.985c-.609 4.025 2.094 7.289 5.158 10.562a82.239 82.239 0 0 0 11.059 9.791c.485.371.914.685 1.266.971 4.72 3.73 8.3 9.382 10.659 16.8a3.207 3.207 0 0 0 3.055 2.236 3.3 3.3 0 0 0 1.428-.333c9.013-4.472 15.208-11.78 16.579-19.564a18.265 18.265 0 0 0 .228-4.739c-.571-6.3-4.454-10.819-6.11-12.751-5.13-5.976-11.23-7.907-18.282-10.134-3.883-1.228-7.547-2.388-11.183-2.388"/><g data-name="그룹 4627" style="mix-blend-mode:darken;isolation:isolate"><g data-name="그룹 4626" clip-path="url(#b)" transform="translate(425.417 187.456)"><path data-name="패스 13277" d="M8.261 7.799A60.409 60.409 0 0 1 2.941.025 6.482 6.482 0 0 0 .362 3.974c-.333 2.227.971 4.311 4.33 7.9a87.017 87.017 0 0 0 11.982 10.448c3.854 3.045 8.556 8.383 11.725 18.346 8.109-4.016 13.667-10.543 14.847-17.252-11.078-3.816-24.925-8.792-26.315-9.5-3.046-1.561-5.939-3.045-8.661-6.118" fill="#7c6454"/></g></g><g data-name="그룹 4629" style="mix-blend-mode:darken;isolation:isolate"><g data-name="그룹 4628" clip-path="url(#c)" transform="translate(558.657 184.601)"><path data-name="패스 13278" d="M31.739.202a7.455 7.455 0 0 0-.742-.238c-3.3 2.655-7.033 5.747-8.937 7.375-3 2.55-14.285 14.112-21.908 22.019a90.274 90.274 0 0 0 9.165 6.518 84.91 84.91 0 0 1 6.624-11.209 113.654 113.654 0 0 1 11.716-13.765 173.066 173.066 0 0 1 5.606-5.6 2.959 2.959 0 0 0 1.532-2.036c.1-1.76-2.731-2.921-3.055-3.054" fill="#7c6454"/></g></g><path data-name="패스 13279" d="M506.57 251.581c-23.165 0-49.784-7.289-57.017-23.57-3.341-7.517-2.446-16.795 2.579-26.843a38.18 38.18 0 0 1 2.008-3.473c13.7-21.258 45.854-22.9 55.38-22.9.695 0 1.256 0 1.666.019 22.165.447 50.441 10.239 59.4 25.863a21.778 21.778 0 0 1 2.808 8.145c1.152 9.3-4.549 16.976-6.415 19.5-10.811 14.578-33.4 23.275-60.405 23.275z" fill="#cfa57a"/><path data-name="패스 13280" d="M509.519 176.389c.676 0 1.228 0 1.627.019 21.88.438 49.394 9.972 58.045 25.064a20.27 20.27 0 0 1 2.608 7.546c1.056 8.488-4.054 15.567-6.11 18.346-11.544 15.558-35.756 22.628-59.111 22.628-25.049 0-49.109-8.126-55.552-22.618-4.8-10.8 1.218-22.818 2.551-25.483a34.492 34.492 0 0 1 1.922-3.33c13.4-20.791 45.1-22.171 54.038-22.171m-.018-3.207c-9.736 0-42.589 1.7-56.732 23.637a38.337 38.337 0 0 0-2.094 3.625c-5.244 10.486-6.148 20.24-2.608 28.214 7.529 16.937 34.799 24.524 58.484 24.524 27.514 0 50.574-8.945 61.69-23.922 1.97-2.655 7.956-10.715 6.719-20.649a23.261 23.261 0 0 0-3.007-8.745c-9.584-16.719-38.459-26.215-60.758-26.672-.419 0-.98-.019-1.694-.019"/><g data-name="그룹 4631" style="mix-blend-mode:darken;isolation:isolate"><g data-name="그룹 4630" clip-path="url(#d)" transform="translate(449.21 181.747)"><path data-name="패스 13281" d="M119.982 19.715c-7.48-5.414-31.026-20.963-61.614-19.964a103.674 103.674 0 0 0-37.2 8.669 97.823 97.823 0 0 0-14.897 8.395 35.523 35.523 0 0 0-1.922 3.321c-1.332 2.655-7.347 14.682-2.551 25.483 12.448 28.014 90.746 32.229 114.672-.01 2.056-2.779 7.166-9.858 6.11-18.346a20.1 20.1 0 0 0-2.608-7.546" fill="#7c6454"/></g></g><path data-name="패스 13282" d="M418.945 731.698a1.573 1.573 0 0 1-1.351-.761 1.606 1.606 0 0 1-.076-1.551l14.637-29.784a529.5 529.5 0 0 0-.029-65.724 530.625 530.625 0 0 0-13.324-89.047c-.742 3.5-1.542 7.127-2.379 10.829-13.933 61.68-27.114 91.758-50.365 114.929-9 8.973-15.77 13.151-21.3 13.151a10.192 10.192 0 0 1-3.283-.533c-12.106-4.139-12.934-29.964-12.3-52 .476-16.433 2.77-25.835 9.6-53.763 1.5-6.156 3.236-13.217 5.215-21.467a2108.08 2108.08 0 0 0 2.1-8.811c3.95-16.576 7.366-30.9 13.191-51.384 11.982-42.135 17.245-50.851 25.82-53.515a246.894 246.894 0 0 1 53.164-26.553c4.673-1.665 10.088-3.33 15.694-4.824a50.518 50.518 0 0 1 2.674-5.129c.409-.7.8-1.38 1.142-2.027 3.7-6.946 3.255-12.513 2.817-17.9-.3-3.768-.59-7.327.647-10.914 5.13-14.873 33.567-21.648 57.817-21.648 18.568 0 40.02 4.063 44.569 15.453 1.18 2.95.9 5.614.476 9.649a115.052 115.052 0 0 0-.371 21.914c.133 1.97.285 3.692.476 5.348a218.85 218.85 0 0 1 15.656 3.4c24.012 6.147 43.769 15.51 58.721 27.823a129.192 129.192 0 0 1 15.656 15.3c7.357 6.965 8.042 19.65 9.165 40.641.942 17.49 2.227 41.44 7.852 73.422 2.731 15.491 4.378 31.392 5.977 46.759 1.1 10.6 2.246 21.562 3.721 32.277l3.578 31.116a1.6 1.6 0 0 1-.952 1.646l-40.773 17.842a1.7 1.7 0 0 1-.638.133 1.559 1.559 0 0 1-.885-.266c-14.361-9.525-18.378-42.22-23.469-83.6-1.447-11.733-2.931-23.855-4.759-36.216-.9-6.09-1.713-11.067-2.494-15.881-1.294-7.974-2.531-15.558-3.959-26.891-1.542 9.915-3.693 23.227-7.747 42.4-2.988 14.121-4.711 20.525-5.967 25.2a143.763 143.763 0 0 0-3.674 16.995 337.646 337.646 0 0 0-4.054 76.572 317.9 317.9 0 0 0 4.568 36.5 1.625 1.625 0 0 1-.343 1.323 1.6 1.6 0 0 1-1.228.571l-169.4-1" fill="#cfa57a"/><path data-name="패스 13283" d="M519.046 354.568c20.329 0 39.211 4.729 43.075 14.445 2.208 5.538-1.447 10.115 0 31.087.2 2.931.428 5.015.619 6.6 5.5.961 11.078 2.141 16.712 3.587 33.557 8.593 51.04 21.7 58.1 27.509a126.258 126.258 0 0 1 15.513 15.177c12.791 11.99 4.245 43 16.607 113.235 4.6 26.12 6.062 52.707 9.688 78.979l3.569 31.087-40.771 17.842c-17.74-11.771-19.4-63.735-27.533-118.726-2.646-17.87-4.521-26.263-7.138-48.406q-.357-3-.666-5.814c-1.875 11-3.731 26.253-9.546 53.753-6.072 28.708-6.767 24.9-9.66 42.258a334.7 334.7 0 0 0-4.071 76.945 318.122 318.122 0 0 0 4.587 36.692l-169.205-1q7.395-15.03 14.78-30.069a529.724 529.724 0 0 0 0-66.238 529.615 529.615 0 0 0-15.056-96.2q-1.67 8.236-3.807 17.727c-13.667 60.481-26.629 90.921-49.936 114.148-8.956 8.926-15.313 12.684-20.167 12.684a8.534 8.534 0 0 1-2.77-.447c-12.544-4.292-11.582-37.605-11.221-50.442.571-19.84 3.8-29.194 14.771-74.906 5.044-21.02 8.48-36.207 15.285-60.129 11.858-41.7 16.921-50.109 24.964-52.488a245.2 245.2 0 0 1 53-26.5c2.3-.818 8-2.8 16.341-5a68.526 68.526 0 0 1 4.045-7.746c6.576-12.342.761-20.925 3.569-29.041 4.673-13.569 31.568-20.573 56.3-20.573m.019-3.54c-13.229 0-26.248 1.9-36.679 5.357-12.306 4.082-20.138 10.086-22.651 17.366-1.342 3.911-1.028 7.8-.723 11.561.419 5.157.847 10.486-2.636 17.014-.324.609-.7 1.275-1.114 1.979-.8 1.389-1.685 2.931-2.446 4.586-5.4 1.456-10.583 3.064-15.075 4.663a248.709 248.709 0 0 0-53.315 26.6c-5.177 1.684-8.841 5.5-12.544 13.008-3.826 7.765-8.052 20.182-14.123 41.526-5.834 20.525-9.251 34.855-13.21 51.441-.676 2.845-1.37 5.766-2.1 8.811-1.98 8.24-3.693 15.263-5.206 21.458-6.862 28.052-9.175 37.51-9.65 54.105-.695 23.989.362 49.11 13.381 53.563a11.822 11.822 0 0 0 3.807.619c5.977 0 13.105-4.33 22.432-13.617 23.488-23.408 36.784-53.687 50.793-115.709.3-1.294.581-2.579.857-3.844a528.438 528.438 0 0 1 11.687 81.815 528.48 528.48 0 0 1 .048 65.2l-14.495 29.489a3.207 3.207 0 0 0 2.855 4.615l84.6.952 84.6.952h.019a3.2 3.2 0 0 0 3.15-3.778 316.9 316.9 0 0 1-4.549-36.321 336.024 336.024 0 0 1 4.035-76.2 144.631 144.631 0 0 1 3.636-16.843c1.266-4.691 2.988-11.114 5.986-25.283 2.76-13.027 4.635-23.361 6.034-31.763.857 5.985 1.675 11 2.522 16.186.78 4.805 1.589 9.782 2.494 15.853 1.827 12.342 3.312 24.455 4.759 36.178 5.139 41.792 9.194 74.811 24.174 84.745a3.216 3.216 0 0 0 1.77.533 3.173 3.173 0 0 0 1.285-.266l40.771-17.842a3.2 3.2 0 0 0 1.894-3.3l-2.493-21.686-1.075-9.392v-.076c-1.475-10.686-2.617-21.638-3.721-32.229-1.6-15.4-3.255-31.316-5.986-46.864-5.615-31.887-6.9-55.79-7.833-73.232-1.142-21.324-1.837-34.246-9.6-41.659a131.505 131.505 0 0 0-15.8-15.434c-15.142-12.465-35.109-21.933-59.339-28.137a221.59 221.59 0 0 0-14.59-3.207 155.34 155.34 0 0 1-.343-4.1 112.426 112.426 0 0 1 .362-21.638c.428-4.12.742-7.1-.59-10.41-4.844-12.132-26.962-16.462-46.053-16.462"/><path data-name="패스 13284" d="M446.688 259.717c-3.893.837-7 1.285-9.175 1.532-1.951.219-3.5.333-4.587 1.532-1.266 1.4-1.114 3.454-1.018 4.587.571 6.585.857 9.877 2.037 12.741 3.616 8.764 7.975 34.266 8.67 50.956 1.313 31.6 1.97 47.4 1.532 50.442a3.112 3.112 0 0 0 .514 2.55c.362.352.761.409 5.1 0 1.4-.133 2.4-.238 3.055-1.018a2.442 2.442 0 0 0 .5-1.018c2.646-10.286 1.018-17.328 1.018-17.328-1.808-7.812-4.435-47.835-7.652-104.966" fill="#cfa57a"/><path data-name="패스 13285" d="M446.688 259.717c-3.893.837-7 1.285-9.175 1.532-1.951.219-3.5.333-4.587 1.532-1.266 1.4-1.114 3.454-1.018 4.587.571 6.585.857 9.877 2.037 12.741 3.616 8.764 7.975 34.266 8.67 50.956 1.313 31.6 1.97 47.4 1.532 50.442a3.112 3.112 0 0 0 .514 2.55c.362.352.761.409 5.1 0 1.4-.133 2.4-.238 3.055-1.018a2.442 2.442 0 0 0 .5-1.018c2.646-10.286 1.018-17.328 1.018-17.328-1.808-7.812-4.435-47.835-7.652-104.966z" fill="none" stroke="#000" stroke-linecap="round" stroke-linejoin="round" stroke-width="3.37"/><g data-name="그룹 4633" style="mix-blend-mode:darken;isolation:isolate"><g data-name="그룹 4632" clip-path="url(#e)" transform="translate(459.679 345.414)"><path data-name="패스 13286" d="M3.284 13.883c-14.761 24.3 21.1 66.447 27.895 74.44 11.173 13.131 24.945 29.317 40.686 26.853 22.5-3.521 32.434-42.592 31.464-52.44-.447-4.577-2.094-10.067-1.542-19.44.3-5.024 1.142-9.62 0-16.376a48.97 48.97 0 0 0-2.3-8.44c-1.97-4.986-77.945-34.665-96.2-4.6" fill="#7c6454"/></g></g><path data-name="패스 13287" d="M586.833 259.193a5.774 5.774 0 0 0-3.569-1.018 106.625 106.625 0 0 0-11.468.257q-.885 48.287-1.78 96.564c-1.856 14.958-.6 26.339 3.064 27.519a10.272 10.272 0 0 0 5.092 0 5.99 5.99 0 0 0 3.759-2.179 5.287 5.287 0 0 0 .828-2.407 8.349 8.349 0 0 0-.514-4.073c-1.047-2.807-1.551-9.011-2.551-21.4a158.537 158.537 0 0 1-.257-16.053c.723-22.323 9.584-61.632 9.422-71.595-.067-3.787-1.456-5.148-2.037-5.6" fill="#cfa57a"/><path data-name="패스 13288" d="M586.833 259.193a5.774 5.774 0 0 0-3.569-1.018 106.625 106.625 0 0 0-11.468.257q-.885 48.287-1.78 96.564c-1.856 14.958-.6 26.339 3.064 27.519a10.272 10.272 0 0 0 5.092 0 5.99 5.99 0 0 0 3.759-2.179 5.287 5.287 0 0 0 .828-2.407 8.349 8.349 0 0 0-.514-4.073c-1.047-2.807-1.551-9.011-2.551-21.4a158.537 158.537 0 0 1-.257-16.053c.723-22.323 9.584-61.632 9.422-71.595-.067-3.787-1.456-5.148-2.037-5.6z" fill="none" stroke="#000" stroke-linecap="round" stroke-linejoin="round" stroke-width="3.37"/><g data-name="그룹 4635" style="mix-blend-mode:darken;isolation:isolate"><g data-name="그룹 4634" clip-path="url(#f)" transform="translate(477.761 1067.644)"><path data-name="패스 13289" d="M1.865 9.145a30.285 30.285 0 0 1 19.367-7.641c16.179-.152 25.382 13.807 25.991 14.778" fill="none" stroke="#7c6454" stroke-linecap="round" stroke-linejoin="round" stroke-width="3.37"/></g></g><path data-name="패스 13290" d="M358.33 970.3c.466 22.086.676 58.911-2.284 95.27a302.7 302.7 0 0 1-5.6 35.112c-4.987 23.2-7.633 34.884-15.037 39.309-14.723 8.792-35.994-7.774-42.8.771-3.16 3.968-.857 10.591-.01 13 1.342 3.854 6.053 14.14 30.074 22.419 29.694 10.229 60.672 7.651 81.029 4.073a272.49 272.49 0 0 0 116.2.495q76.96-2.041 153.911-4.092 26.6-8.807 26.505-17.328-.143-12.546-58.1-24.455a83.446 83.446 0 0 1-3.569-10.7 91.749 91.749 0 0 1-1.666-36.835c2.731-19.849 10.574-81.491 22.546-164.952" fill="#cfa57a"/><path data-name="패스 13291" d="M358.33 970.3c.466 22.086.676 58.911-2.284 95.27a302.7 302.7 0 0 1-5.6 35.112c-4.987 23.2-7.633 34.884-15.037 39.309-14.723 8.792-35.994-7.774-42.8.771-3.16 3.968-.857 10.591-.01 13 1.342 3.854 6.053 14.14 30.074 22.419 29.694 10.229 60.672 7.651 81.029 4.073a272.49 272.49 0 0 0 116.2.495q76.96-2.041 153.911-4.092 26.6-8.807 26.505-17.328-.143-12.546-58.1-24.455a83.446 83.446 0 0 1-3.569-10.7 91.749 91.749 0 0 1-1.666-36.835c2.731-19.849 10.574-81.491 22.546-164.952" fill="none" stroke="#000" stroke-linecap="round" stroke-linejoin="round" stroke-width="3.37"/><path data-name="패스 13292" d="M362.908 880.112c-5.082 21.7-11.744 36.7-17.321 46.883 0 0-7.281 13.284-10.193 36.178-.3 2.388-.324 5.538 1.018 6.118 1.171.5 3-1.161 4.368-2.426a25.93 25.93 0 0 0 5.092-6.613c1.551-2.731 4.673-6.252 11.706-9.164-1.171 24.084-6.567 41.326-11.478 52.849-3.122 7.317-7.033 14.968-3.8 18.888 4.321 5.234 19 .913 29.008-2.036a110.451 110.451 0 0 0 15.047-5.652 1379.962 1379.962 0 0 0 6.12 51.974c4.968 36.264 7.461 43.686 13.257 50.956 10.945 13.731 29.084 21.448 45.083 21.648 8.442.1 16-1.894 25.249-4.33 15.618-4.13 20.8-5.985 24.973-9.173a41.309 41.309 0 0 0 10.735-12.3c2.827-5.005 3.959-10.02 6.11-19.849a210.891 210.891 0 0 0 2.541-13.74 287.667 287.667 0 0 0 34.633 24.988c20.843 12.808 31.549 19.212 45.264 18.765 5.653-.181 20.966-1.77 37.659-18.318a5.974 5.974 0 0 1 3.559.514 6.114 6.114 0 0 1 2.7 2.6c.838 6.195 4.939 32.105 23.955 42.8 4.13 2.322 12.667 7.127 20.386 3.568.666-.3 6.6-3.15 7.642-8.659 1.3-6.927-5.939-11.79-11.725-20.887-3.759-5.909-7.728-14.958-8.356-28.575a7.826 7.826 0 0 1 2.541-1.018 7.653 7.653 0 0 1 3.055 0q-5.51-20.625-11.011-41.24c.657-11.733.638-21.2.5-27.519-.314-15.644-1.494-22.209.5-34.142 1.409-8.412 2.627-8.926 3.569-15.8a67.978 67.978 0 0 0-3.007-30.374c2.608-2.246 5.863-5.814 6.053-10.391.19-4.415-2.608-6.851-4.587-11.723-1.532-3.778-2.846-9.668-1.018-18.346 3.35 1.789 5.368 1.646 6.624 1.018 6.929-3.464 1.409-26.9 0-32.61a24.631 24.631 0 0 0 2.037-5.091c2.379-8.669-.742-16.519-2.551-20.9a1515.391 1515.391 0 0 0-24.982-57.065 91.253 91.253 0 0 0-49.68-14.14 90.223 90.223 0 0 0-39 9.563L362.88 880.102" fill="#cfa57a"/><path data-name="패스 13293" d="M362.908 880.112c-5.082 21.7-11.744 36.7-17.321 46.883 0 0-7.281 13.284-10.193 36.178-.3 2.388-.324 5.538 1.018 6.118 1.171.5 3-1.161 4.368-2.426a25.93 25.93 0 0 0 5.092-6.613c1.551-2.731 4.673-6.252 11.706-9.164-1.171 24.084-6.567 41.326-11.478 52.849-3.122 7.317-7.033 14.968-3.8 18.888 4.321 5.234 19 .913 29.008-2.036a110.451 110.451 0 0 0 15.047-5.652 1379.962 1379.962 0 0 0 6.12 51.974c4.968 36.264 7.461 43.686 13.257 50.956 10.945 13.731 29.084 21.448 45.083 21.648 8.442.1 16-1.894 25.249-4.33 15.618-4.13 20.8-5.985 24.973-9.173a41.309 41.309 0 0 0 10.735-12.3c2.827-5.005 3.959-10.02 6.11-19.849a210.891 210.891 0 0 0 2.541-13.74 287.667 287.667 0 0 0 34.633 24.988c20.843 12.808 31.549 19.212 45.264 18.765 5.653-.181 20.966-1.77 37.659-18.318a5.974 5.974 0 0 1 3.559.514 6.114 6.114 0 0 1 2.7 2.6c.838 6.195 4.939 32.105 23.955 42.8 4.13 2.322 12.667 7.127 20.386 3.568.666-.3 6.6-3.15 7.642-8.659 1.3-6.927-5.939-11.79-11.725-20.887-3.759-5.909-7.728-14.958-8.356-28.575a7.826 7.826 0 0 1 2.541-1.018 7.653 7.653 0 0 1 3.055 0q-5.51-20.625-11.011-41.24c.657-11.733.638-21.2.5-27.519-.314-15.644-1.494-22.209.5-34.142 1.409-8.412 2.627-8.926 3.569-15.8a67.978 67.978 0 0 0-3.007-30.374c2.608-2.246 5.863-5.814 6.053-10.391.19-4.415-2.608-6.851-4.587-11.723-1.532-3.778-2.846-9.668-1.018-18.346 3.35 1.789 5.368 1.646 6.624 1.018 6.929-3.464 1.409-26.9 0-32.61a24.631 24.631 0 0 0 2.037-5.091c2.379-8.669-.742-16.519-2.551-20.9a1515.391 1515.391 0 0 0-24.982-57.065 91.253 91.253 0 0 0-49.68-14.14 90.223 90.223 0 0 0-39 9.563L362.88 880.102z" fill="none" stroke="#000" stroke-linecap="round" stroke-linejoin="round" stroke-width="3.37"/><g data-name="그룹 4637" style="mix-blend-mode:darken;isolation:isolate"><g data-name="그룹 4636" clip-path="url(#g)" transform="translate(395.914 881.139)"><path data-name="패스 13294" d="M53.629 1.513a570.662 570.662 0 0 0-11.716 59.61 570.207 570.207 0 0 0-4.073 37.71c-4.406-1.741-10.992-3.445-17.331-1.018-14.752 5.652-16.979 29.432-18.14 41.83-1.018 10.9-2.179 23.228 4.578 36.635 1.789 3.54 11.525 22.932 27.99 24.427 6.2.561 8.9-1.894 30.027-14.245 27.276-15.948 33.519-18.127 34.6-25.445 1.114-7.508-3.911-15.8-8.651-20.354a19.649 19.649 0 0 0-9.165-5.6c-5.786-1.408-7.966 1.494-17.816 1.522-3.778.01-9.917-.038-11.325-3.112a4.68 4.68 0 0 1 .133-3.5c4.759-13.227 9.374-26.5 14.247-39.689 2.084-5.643 1.466-6.166 4.578-24.931 2-12.028 5.158-29.317 10.079-50.6" fill="none" stroke="#7c6454" stroke-linecap="round" stroke-linejoin="round" stroke-width="3.37"/></g></g><path data-name="패스 13295" d="M584.544 1126.631a94.329 94.329 0 0 1 19.339 4.577c14.818 5.329 13.7 10.22 33.082 20.858 6.062 3.33 22.451 11.8 32.406 18.86a47.466 47.466 0 0 1 3.931 3.169c5.568 4.967 10.383 9.268 9.688 13.759-1.961 12.675-46.415 17.661-81.029 15.291-12.82-.875-76.385-5.89-81.039-30.06-1.456-7.574 3-16.367 5.1-20.516" fill="#cfa57a"/><path data-name="패스 13296" d="M584.544 1126.631a94.329 94.329 0 0 1 19.339 4.577c14.818 5.329 13.7 10.22 33.082 20.858 6.062 3.33 22.451 11.8 32.406 18.86a47.466 47.466 0 0 1 3.931 3.169c5.568 4.967 10.383 9.268 9.688 13.759-1.961 12.675-46.415 17.661-81.029 15.291-12.82-.875-76.385-5.89-81.039-30.06-1.456-7.574 3-16.367 5.1-20.516" fill="none" stroke="#000" stroke-linecap="round" stroke-linejoin="round" stroke-width="3.37"/><g data-name="그룹 4639" style="mix-blend-mode:darken;isolation:isolate"><g data-name="그룹 4638" clip-path="url(#h)" transform="translate(447.306 942.99)"><path data-name="패스 13297" d="M106.725 62.451A206.4 206.4 0 0 1 89.908 80.34C78.925 90.731 73.434 95.926 70.065 94.585c-7.119-2.817-8.546-30.8 3.559-39.176 6.129-4.234 15.694-3.435 22.9-10.686 1.266-1.275 2.769-3.112 2.551-5.2-.324-3.035-4.092-4.986-6.624-6.119-14.371-6.394-29.113-4.653-30.531-9.04-.923-2.836 4.026-7.337 8.147-9.668 11.773-6.67 25.2-.428 26.467-3.721.695-1.808-2.874-5.005-5.606-6.623C83.6.003 74.863 2.573 68.544 4.514c-6.091 1.875-3.826 2.3-16.8 8.145-7.452 3.359-13.077 5.414-18.321 11.19-1.361 1.5-3.988 4.444-3.15 5.985 1.228 2.236 8.137-1.846 16.312 1.018.7.247 8.727 2.883 9.175 7.641.276 2.969-2.674 5.547-6.557 8.764a40.791 40.791 0 0 1-17.3 9.163c-8.537 2.046-10.4-.476-16.284 1.532-4.264 1.456-9.584 4.92-14.38 13.683" fill="none" stroke="#7c6454" stroke-linecap="round" stroke-linejoin="round" stroke-width="3.37"/></g></g><path data-name="패스 13298" d="M562.644 398.054c4.806 1.665 12.639 5.2 17.331 12.741 12.734 20.458-4.759 58.968-32.606 75.42-19.424 11.476-39.039 9.42-44.845 8.669-28.437-3.682-58.921-23.77-63.2-50.442-.514-3.226-2.551-16.272 5.092-29.041a41.938 41.938 0 0 1 17.331-15.8c-4.2 4.862-15.913 19.735-14.266 38.728 2.513 28.975 34.566 49.814 62.185 49.424 40.686-.58 73.72-47.264 65.231-70.32-2.179-5.928-6.986-9.963-11.725-12.741" fill="#cfa57a"/><path data-name="패스 13299" d="M562.644 398.054c4.806 1.665 12.639 5.2 17.331 12.741 12.734 20.458-4.759 58.968-32.606 75.42-19.424 11.476-39.039 9.42-44.845 8.669-28.437-3.682-58.921-23.77-63.2-50.442-.514-3.226-2.551-16.272 5.092-29.041a41.938 41.938 0 0 1 17.331-15.8c-4.2 4.862-15.913 19.735-14.266 38.728 2.513 28.975 34.566 49.814 62.185 49.424 40.686-.58 73.72-47.264 65.231-70.32-2.179-5.928-6.986-9.963-11.725-12.741" fill="none" stroke="#7c6454" stroke-linecap="round" stroke-linejoin="round" stroke-width="3.37"/><g data-name="그룹 4641" style="mix-blend-mode:darken;isolation:isolate"><g data-name="그룹 4640" clip-path="url(#i)" transform="translate(558.657 1149.478)"><path data-name="패스 13300" d="M6.548.048a34.458 34.458 0 0 0-5.092 6.613C.066 9.011-.038 9.849-.067 10.22c-.276 3.568 3.712 6.566 5.092 7.631 13.771 10.667 39.7 12.208 39.7 12.208a267.835 267.835 0 0 0 44.017-.761 240.96 240.96 0 0 0-1.018-5.6q-.243-1.285-.514-2.541" fill="#7c6454"/></g></g><path data-name="패스 13301" d="M581.488 257.919c-1.133-18.5-1.694-27.747-6.12-32.61-10.992-12.085-29.779 1.075-74.919 1.028-32.606-.038-48.852-6.956-56.056 3.064-4.816 6.689-5.215 20.4-5.606 33.628-.133 4.71 0 9.868 0 9.868.038 1.465.1 2.864.171 4.225.381-4.082.866-7.6 1.361-10.515.514-3.083 1.037-5.576 3.055-7.641 3.426-3.5 8.489-3.054 17.835-2.55 22.394 1.208 27.267.438 29.56 0a49.077 49.077 0 0 0 15.8-6.118 102.933 102.933 0 0 0 15.294 3.568 123.979 123.979 0 0 0 26.505 1.018c15.751-.98 21.042-3.949 25.991 0 1.646 1.313 3.341 3.464 5.1 11.209a87.619 87.619 0 0 1 1.018 32.105 87.646 87.646 0 0 0-1.016-32.109c-1.751-7.746-3.455-9.9-5.1-11.209-4.949-3.949-10.24-.98-25.991 0a123.979 123.979 0 0 1-26.505-1.018 103.533 103.533 0 0 1-15.294-3.568 48.987 48.987 0 0 1-15.8 6.118c-2.294.447-7.166 1.208-29.56 0-9.346-.5-14.418-.961-17.835 2.55-2.018 2.065-2.541 4.567-3.055 7.641-.485 2.912-.98 6.433-1.361 10.515.314 6.09.895 11.076 1.361 14.958 6.281 52.507 8.3 61.927 10.2 66.752 4.007 10.21 7.081 18.022 14.78 25.987 19.329 19.973 46.33 18.964 48.414 18.85 2.2-.124 26.41-1.8 43.351-20.439 15.932-17.528 18.758-42.706 23.4-84.032.228-2.027 3.293-3.968 1.018-41.278" fill="#cfa57a"/><path data-name="패스 13302" d="M581.488 257.919c-1.133-18.5-1.694-27.747-6.12-32.61-10.992-12.085-29.779 1.075-74.919 1.028-32.606-.038-48.852-6.956-56.056 3.064-4.816 6.689-5.215 20.4-5.606 33.628-.133 4.71 0 9.868 0 9.868.038 1.465.1 2.864.171 4.225.381-4.082.866-7.6 1.361-10.515.514-3.083 1.037-5.576 3.055-7.641 3.426-3.5 8.489-3.054 17.835-2.55 22.394 1.208 27.267.438 29.56 0a49.077 49.077 0 0 0 15.8-6.118 102.933 102.933 0 0 0 15.294 3.568 123.979 123.979 0 0 0 26.505 1.018c15.751-.98 21.042-3.949 25.991 0 1.646 1.313 3.341 3.464 5.1 11.209a87.619 87.619 0 0 1 1.018 32.105 87.646 87.646 0 0 0-1.016-32.109c-1.751-7.746-3.455-9.9-5.1-11.209-4.949-3.949-10.24-.98-25.991 0a123.979 123.979 0 0 1-26.505-1.018 103.533 103.533 0 0 1-15.294-3.568 48.987 48.987 0 0 1-15.8 6.118c-2.294.447-7.166 1.208-29.56 0-9.346-.5-14.418-.961-17.835 2.55-2.018 2.065-2.541 4.567-3.055 7.641-.485 2.912-.98 6.433-1.361 10.515.314 6.09.895 11.076 1.361 14.958 6.281 52.507 8.3 61.927 10.2 66.752 4.007 10.21 7.081 18.022 14.78 25.987 19.329 19.973 46.33 18.964 48.414 18.85 2.2-.124 26.41-1.8 43.351-20.439 15.932-17.528 18.758-42.706 23.4-84.032.228-2.027 3.293-3.968 1.018-41.278z" fill="none" stroke="#000" stroke-linecap="round" stroke-linejoin="round" stroke-width="3.37"/><g data-name="그룹 4643" style="mix-blend-mode:darken;isolation:isolate"><g data-name="그룹 4642" clip-path="url(#j)" transform="translate(368.314 885.897)"><path data-name="패스 13303" d="M1.218 34.913a65.966 65.966 0 0 0 7.366-9.23c3.036-4.615 4.13-7.565 8.337-15.387a264.7 264.7 0 0 1 4.911-8.716" fill="none" stroke="#7c6454" stroke-linecap="round" stroke-linejoin="round" stroke-width="3.37"/></g></g><g data-name="그룹 4645" style="mix-blend-mode:darken;isolation:isolate"><g data-name="그룹 4644" clip-path="url(#k)" transform="translate(447.306 278.805)"><path data-name="패스 13304" d="M1.675 24.988c-.067-1.142-.6-14.359 8.156-19.868 3.845-2.426 8.109-2.493 11.725-2.55a33.9 33.9 0 0 1 15.285 3.568 30.655 30.655 0 0 1 8.661 5.6c5.035 4.748 6.852 10.21 8.156 14.264 2.275 7.07 1.418 11.1 1.39 24.293 0 4.729.076 11.58.514 19.954a2.625 2.625 0 0 0 5.12 0c.2-8.8.1-15.834 0-20.468-.2-8.65-.628-15.406 1.646-23.779a27.887 27.887 0 0 1 3.312-7.9 28.715 28.715 0 0 1 8.661-8.659 44.082 44.082 0 0 1 29.808-7.2 39.29 39.29 0 0 1 19.12 9.24" fill="none" stroke="#7c6454" stroke-linecap="round" stroke-linejoin="round" stroke-width="3.37"/></g></g><g data-name="그룹 4647" style="mix-blend-mode:darken;isolation:isolate"><g data-name="그룹 4646" clip-path="url(#l)" transform="translate(453.017 305.449)"><path data-name="패스 13305" d="M.485.698A15.752 15.752 0 0 1 7.099.184c1.3.19 1.837.447 6.11 2.036 6.262 2.331 7.281 2.579 8.242 2.769a39.233 39.233 0 0 0 6.139.514c4.806.057 6.139-.828 8.385.238a7.444 7.444 0 0 1 2.551 2.036 17.941 17.941 0 0 0-2.484-.485 18.645 18.645 0 0 0-4.606 0c-.7.086-.609.124-1.466.257a28.521 28.521 0 0 1-4.035.266A25.194 25.194 0 0 1 15.571 5.75c-1.3-.6-2.75-1.437-2.865-1.5-2.056-1.189-2.037-1.446-3.274-2.084A14.789 14.789 0 0 0 4.055.682a16.854 16.854 0 0 0-3.559 0" fill="#7c6454"/></g></g><g data-name="그룹 4649" style="mix-blend-mode:darken;isolation:isolate"><g data-name="그룹 4648" clip-path="url(#m)" transform="translate(488.23 345.414)"><path data-name="패스 13306" d="M2.284 2.931a2.255 2.255 0 0 1 .942-1.018c1.751-.894 3.921 1.846 7.528 3.568a12.66 12.66 0 0 0 6.12 1.532c3.036-.133 6.043-1.751 9.412-3.568 1.409-.761 3.283-1.865 4.7-1.018a2.661 2.661 0 0 1 .942 1.018" fill="none" stroke="#7c6454" stroke-linecap="round" stroke-linejoin="round" stroke-width="3.37"/></g></g><g data-name="그룹 4651" style="mix-blend-mode:darken;isolation:isolate"><g data-name="그룹 4650" clip-path="url(#n)" transform="translate(475.858 875.43)"><path data-name="패스 13307" d="M13.952 1.608a439.284 439.284 0 0 1-1.523 29.042 440.653 440.653 0 0 1-10.7 65.733" fill="none" stroke="#7c6454" stroke-linecap="round" stroke-linejoin="round" stroke-width="3.37"/></g></g><g data-name="그룹 4653" style="mix-blend-mode:darken;isolation:isolate"><g data-name="그룹 4652" clip-path="url(#o)" transform="translate(482.52 354.93)"><path data-name="패스 13308" d="M1.38 1.094a99.737 99.737 0 0 0 5.606 2.55c6.158 2.55 8.413 2.721 10.193 2.55a12.824 12.824 0 0 0 2.551-.514 6.185 6.185 0 0 0 9.175 0 19.47 19.47 0 0 0 3.055.514c6.757.561 12.172-2.7 14.78-4.586" fill="none" stroke="#7c6454" stroke-linecap="round" stroke-linejoin="round" stroke-width="3.37"/></g></g><path data-name="패스 13309" d="M565.205 1149.525c-.914.856-3.112 2.912-3.055 5.6.152 7.746 18.863 13.16 20.862 13.74a63.22 63.22 0 0 0 6.472 1.465c4.682.7 7.48.171 20 2.607q3.155.585 6.6 1a105.325 105.325 0 0 0 18.844.533 14.093 14.093 0 0 0 9.165-1.522c1.161-.714 1.428-1.18 1.523-1.522.7-2.4-4.092-5.728-6.11-7.127-7.994-5.547-20.072-9.715-28.494-12.208-4.587-1.77-34.614-13.036-45.806-2.541" fill="#cfa57a"/><path data-name="패스 13310" d="M565.205 1149.525c-.914.856-3.112 2.912-3.055 5.6.152 7.746 18.863 13.16 20.862 13.74a63.22 63.22 0 0 0 6.472 1.465c4.682.7 7.48.171 20 2.607q3.155.585 6.6 1a105.325 105.325 0 0 0 18.844.533 14.093 14.093 0 0 0 9.165-1.522c1.161-.714 1.428-1.18 1.523-1.522.7-2.4-4.092-5.728-6.11-7.127-7.994-5.547-20.072-9.715-28.494-12.208-4.587-1.77-34.614-13.036-45.806-2.541z" fill="none" stroke="#7c6454" stroke-linecap="round" stroke-linejoin="round" stroke-width="3.37"/><g data-name="그룹 4655" style="mix-blend-mode:darken;isolation:isolate"><g data-name="그룹 4654" clip-path="url(#p)" transform="translate(488.23 361.59)"><path data-name="패스 13311" d="M1.78 1.551a13.18 13.18 0 0 0 5.044 4.073 15 15 0 0 0 6.871 1.018 23.955 23.955 0 0 0 4.578-.514 20.932 20.932 0 0 0 5.044 1.018c2.493.19 4.882.362 7.328-1.018a10.937 10.937 0 0 0 4.349-4.843" fill="none" stroke="#7c6454" stroke-linecap="round" stroke-linejoin="round" stroke-width="3.37"/></g></g><g data-name="그룹 4657" style="mix-blend-mode:darken;isolation:isolate"><g data-name="그룹 4656" clip-path="url(#q)" transform="translate(485.375 334.947)"><path data-name="패스 13312" d="M8.714 1.713c-.114 0-.3-.01-.514 0-2.95.19-4.806 3.559-5.1 4.073-.78 1.408-1.608 2.921-1.018 4.587a4.7 4.7 0 0 0 2.551 2.55" fill="none" stroke="#7c6454" stroke-linecap="round" stroke-linejoin="round" stroke-width="3.37"/></g></g><g data-name="그룹 4659" style="mix-blend-mode:darken;isolation:isolate"><g data-name="그룹 4658" clip-path="url(#r)" transform="translate(515.83 336.85)"><path data-name="패스 13313" d="M1.19 1.332a5.363 5.363 0 0 1 3.569 0 5.618 5.618 0 0 1 3.055 3.055 7.68 7.68 0 0 1 0 6.118" fill="none" stroke="#7c6454" stroke-linecap="round" stroke-linejoin="round" stroke-width="3.37"/></g></g><path data-name="패스 13314" d="M677.602 822.761c-.362-2.131-1.78-3.844-2.722-5.129a4.107 4.107 0 0 1-2.37-1.494c-2.446-2.8 1.761-8.24 2.294-13.5.961-9.554-10.269-17.975-15.294-21.914-34.481-26.986-43.027-49.89-53.011-45.855-9.489 3.844-11.145 28.318-4.073 45.351 10.878 26.2 41.952 33.752 45.873 34.646 2.284.523 4.226.828 5.606 1.018a33.14 33.14 0 0 0 5.606 11.209c2.018 2.607 4.016 5.129 7.48 5.947a10.3 10.3 0 0 0 4.578 0 8.574 8.574 0 0 0 5.52-4.158 9.213 9.213 0 0 0 .514-6.118" fill="#cfa57a"/><path data-name="패스 13315" d="M677.602 822.761c-.362-2.131-1.78-3.844-2.722-5.129a4.107 4.107 0 0 1-2.37-1.494c-2.446-2.8 1.761-8.24 2.294-13.5.961-9.554-10.269-17.975-15.294-21.914-34.481-26.986-43.027-49.89-53.011-45.855-9.489 3.844-11.145 28.318-4.073 45.351 10.878 26.2 41.952 33.752 45.873 34.646 2.284.523 4.226.828 5.606 1.018a33.14 33.14 0 0 0 5.606 11.209c2.018 2.607 4.016 5.129 7.48 5.947a10.3 10.3 0 0 0 4.578 0 8.574 8.574 0 0 0 5.52-4.158 9.213 9.213 0 0 0 .514-6.118z" fill="none" stroke="#000" stroke-linecap="round" stroke-linejoin="round" stroke-width="3.37"/><g data-name="그룹 4661" style="mix-blend-mode:darken;isolation:isolate"><g data-name="그룹 4660" clip-path="url(#s)" transform="translate(521.54 300.691)"><path data-name="패스 13316" d="M.571 12.522c-.238-.352 1.913-2.893 4.587-3.568a26.863 26.863 0 0 1 4.073-.514c.143 0 .266-.01.39-.01 1.4-.029 2.417 0 2.674.01a16.26 16.26 0 0 0 3.636-.457 33.992 33.992 0 0 0 3.854-.7 27.8 27.8 0 0 0 4.283-1.846 49.652 49.652 0 0 1 4.578-2.036 32.229 32.229 0 0 1 4.578-1.018c2.532-.457 3.236-.419 4.578-1.018a19.191 19.191 0 0 0 2.541-1.522 10.29 10.29 0 0 1-3.055 2.541c-2.493 1.475-3.864 1.1-6.614 2.036-2.731.923-2.218 1.57-6.11 3.559a29.88 29.88 0 0 1-8.461 3.026 27.023 27.023 0 0 1-7.166.514 16.188 16.188 0 0 0-5.12 0c-2.046.428-3.112 1.228-3.264.99" fill="#7c6454"/></g></g><path data-name="패스 13317" d="M331.149 653.613c1.418 19.221 6.7 25.311 11.344 27.272 24.973 10.515 84.246-76.105 103.451-108.544a437.066 437.066 0 0 0 38.212-83.571 71.09 71.09 0 0 0 3.053-21.4c-.124-9.8-2.227-10.42-3.569-22.932-1.447-13.474-.657-28.261-4.587-30.06a6.148 6.148 0 0 0-3.055-.514 11.216 11.216 0 0 0-3.569 2.036c-5.063 4.349-5.758 13.369-2.551 22.932a4.647 4.647 0 0 1-3.569 1.018c-1.618-.371-2.522-1.989-3.055-3.055-2.9-5.833-8.908-24.16-9.175-24.969q4.083-5.1 8.156-10.191c1.133-.638 10.459-5.947 9.679-10.7a3.51 3.51 0 0 0-1.532-2.55c-1.218-.609-3.036 0-4.587 1.532.362-.685 5.91-11.457 2.8-16.833a5.836 5.836 0 0 0-3.312-3.035 5.247 5.247 0 0 0-4.073.514c-2.2 1.418-2.17 4.558-2.551 7.137-.714 4.862-2.455 4.9-9.679 17.832a210.377 210.377 0 0 0-5.092 9.687c-4.159.409-6.139 1.951-7.138 3.054-6.719 7.432 5.587 23.5 9.688 50.442a184.552 184.552 0 0 1 2.037 22.419c-26.829 37.9-46.339 61.537-59.625 76.438-1.275 1.437-6.376 7.089-12.953 15.111a447.213 447.213 0 0 0-16.607 21.572" fill="#cfa57a"/><path data-name="패스 13318" d="M331.149 653.613c1.418 19.221 6.7 25.311 11.344 27.272 24.973 10.515 84.246-76.105 103.451-108.544a437.066 437.066 0 0 0 38.212-83.571 71.09 71.09 0 0 0 3.053-21.4c-.124-9.8-2.227-10.42-3.569-22.932-1.447-13.474-.657-28.261-4.587-30.06a6.148 6.148 0 0 0-3.055-.514 11.216 11.216 0 0 0-3.569 2.036c-5.063 4.349-5.758 13.369-2.551 22.932a4.647 4.647 0 0 1-3.569 1.018c-1.618-.371-2.522-1.989-3.055-3.055-2.9-5.833-8.908-24.16-9.175-24.969q4.083-5.1 8.156-10.191c1.133-.638 10.459-5.947 9.679-10.7a3.51 3.51 0 0 0-1.532-2.55c-1.218-.609-3.036 0-4.587 1.532.362-.685 5.91-11.457 2.8-16.833a5.836 5.836 0 0 0-3.312-3.035 5.247 5.247 0 0 0-4.073.514c-2.2 1.418-2.17 4.558-2.551 7.137-.714 4.862-2.455 4.9-9.679 17.832a210.377 210.377 0 0 0-5.092 9.687c-4.159.409-6.139 1.951-7.138 3.054-6.719 7.432 5.587 23.5 9.688 50.442a184.552 184.552 0 0 1 2.037 22.419c-26.829 37.9-46.339 61.537-59.625 76.438-1.275 1.437-6.376 7.089-12.953 15.111a447.213 447.213 0 0 0-16.607 21.572" fill="none" stroke="#000" stroke-linecap="round" stroke-linejoin="round" stroke-width="3.37"/><path data-name="패스 13319" d="M625.391 1114.993a160.9 160.9 0 0 0 7.395 31.849 160.938 160.938 0 0 0 4.844 12.484c1.152 1.561 2.1 2.864 2.808 3.825 1.951 2.674 2.3 3.188 2.551 4.073.124.438 1.056 3.8-1.018 5.6-1.485 1.294-4.521.828-6.624-.514a7.231 7.231 0 0 1-4.587 1.018 10.237 10.237 0 0 1-4.33-1.779 8.4 8.4 0 0 1-4.33 2.293c-4.368.79-7.6-2.493-7.9-2.8a13.132 13.132 0 0 1-5.349 1.275 13.732 13.732 0 0 1-8.413-2.8 14.529 14.529 0 0 1-5.863.761c-3.264-.257-5.32-1.722-8.661-3.568-7.547-4.158-7.9-2.864-9.679-4.586-3.626-3.492-2.884-9.087-1.532-22.932 1.19-12.18 1.78-18.27 1.78-19.621 0-15.016-2.922-21.077 0-33.552a21.1 21.1 0 0 1 2.037-5.176c5.815-10.952 18.768-21.124 32.872-20.382 3.807.2 8.289.438 11.973 3.568 8.984 7.631-1.323 21.458 2.046 50.956" fill="#cfa57a"/><path data-name="패스 13320" d="M625.391 1114.993a160.9 160.9 0 0 0 7.395 31.849 160.938 160.938 0 0 0 4.844 12.484c1.152 1.561 2.1 2.864 2.808 3.825 1.951 2.674 2.3 3.188 2.551 4.073.124.438 1.056 3.8-1.018 5.6-1.485 1.294-4.521.828-6.624-.514a7.231 7.231 0 0 1-4.587 1.018 10.237 10.237 0 0 1-4.33-1.779 8.4 8.4 0 0 1-4.33 2.293c-4.368.79-7.6-2.493-7.9-2.8a13.132 13.132 0 0 1-5.349 1.275 13.732 13.732 0 0 1-8.413-2.8 14.529 14.529 0 0 1-5.863.761c-3.264-.257-5.32-1.722-8.661-3.568-7.547-4.158-7.9-2.864-9.679-4.586-3.626-3.492-2.884-9.087-1.532-22.932 1.19-12.18 1.78-18.27 1.78-19.621 0-15.016-2.922-21.077 0-33.552a21.1 21.1 0 0 1 2.037-5.176c5.815-10.952 18.768-21.124 32.872-20.382 3.807.2 8.289.438 11.973 3.568 8.984 7.631-1.323 21.458 2.046 50.956z" fill="none" stroke="#000" stroke-linecap="round" stroke-linejoin="round" stroke-width="3.37"/><path data-name="패스 13321" d="M552.509 1016.146c-.39 2.769-6.386 50.623 23.45 72.87a60.231 60.231 0 0 0 22.936 10.191c6.319 1.228 28.7 6.119 45.359-8.669 8.147-7.232 16.388-20.458 14.6-33.609-1.247-9.164-6.814-14.369-4.073-19.849 2.493-4.967 9.9-6.29 15.456-6.67" fill="#cfa57a"/><path data-name="패스 13322" d="M552.509 1016.146c-.39 2.769-6.386 50.623 23.45 72.87a60.231 60.231 0 0 0 22.936 10.191c6.319 1.228 28.7 6.119 45.359-8.669 8.147-7.232 16.388-20.458 14.6-33.609-1.247-9.164-6.814-14.369-4.073-19.849 2.493-4.967 9.9-6.29 15.456-6.67" fill="none" stroke="#000" stroke-linecap="round" stroke-linejoin="round" stroke-width="3.37"/><path data-name="패스 13323" d="M636.088 1011.045c17.369-43.629 23.85-80.511 26.5-105.48 2.3-21.734 3.017-46.845-8.67-72.356-4.806-10.5-10.431-17.242-16.817-22.419-3.426-2.779-21.375-17.328-43.379-11.847-13.876 3.454-22.1 13.065-24.935 16.795-4.939 6.5-7.956 14.14-10.688 39.689-2.484 23.275-2.541 40.888-2.541 42.23-.01 35.055 3.778 45.941 2.541 77.342a350.431 350.431 0 0 1-2.037 26.463l9.165 2.541q-1.784-31.544-3.559-63.1" fill="#cfa57a"/><path data-name="패스 13324" d="M636.088 1011.045c17.369-43.629 23.85-80.511 26.5-105.48 2.3-21.734 3.017-46.845-8.67-72.356-4.806-10.5-10.431-17.242-16.817-22.419-3.426-2.779-21.375-17.328-43.379-11.847-13.876 3.454-22.1 13.065-24.935 16.795-4.939 6.5-7.956 14.14-10.688 39.689-2.484 23.275-2.541 40.888-2.541 42.23-.01 35.055 3.778 45.941 2.541 77.342a350.431 350.431 0 0 1-2.037 26.463l9.165 2.541q-1.784-31.544-3.559-63.1" fill="none" stroke="#7c6454" stroke-linecap="round" stroke-linejoin="round" stroke-width="3.37"/><path data-name="패스 13325" d="M385.34 1015.137a66.862 66.862 0 0 0 18.853-23.437" fill="#cfa57a"/><path data-name="패스 13326" d="M385.34 1015.137a66.862 66.862 0 0 0 18.853-23.437" fill="none" stroke="#000" stroke-linecap="round" stroke-linejoin="round" stroke-width="3.37"/><path data-name="패스 13327" d="M356.551 951.078c4.425-3.311 10.279-6.766 14-4.729 2.417 1.323 2.589 4.215 4.587 10.191 2.36 7.07 4.892 14.749 8.156 16.31 9.27 4.434 33.3-28.984 35.166-31.592a11.746 11.746 0 0 0 19.367 1.018" fill="#cfa57a"/><path data-name="패스 13328" d="M356.551 951.078c4.425-3.311 10.279-6.766 14-4.729 2.417 1.323 2.589 4.215 4.587 10.191 2.36 7.07 4.892 14.749 8.156 16.31 9.27 4.434 33.3-28.984 35.166-31.592a11.746 11.746 0 0 0 19.367 1.018" fill="none" stroke="#000" stroke-linecap="round" stroke-linejoin="round" stroke-width="3.37"/><g data-name="그룹 4663" style="mix-blend-mode:darken;isolation:isolate"><g data-name="그룹 4662" clip-path="url(#t)" transform="translate(547.236 823.094)"><path data-name="패스 13329" d="M10.345 1.456a315.325 315.325 0 0 0-7.642 44.333c-.8 8.117-2.084 24.426.514 86.116a2832.667 2832.667 0 0 0 1.532 32.106" fill="none" stroke="#7c6454" stroke-linecap="round" stroke-linejoin="round" stroke-width="3.37"/></g></g><g data-name="그룹 4665" style="mix-blend-mode:darken;isolation:isolate"><g data-name="그룹 4664" clip-path="url(#u)" transform="translate(561.512 838.319)"><path data-name="패스 13330" d="M23.088 102.922a178.229 178.229 0 0 1-8.661-18.85C2.102 52.604.751 23.115 2.188 1.525" fill="none" stroke="#7c6454" stroke-linecap="round" stroke-linejoin="round" stroke-width="3.37"/></g></g><g data-name="그룹 4667" style="mix-blend-mode:darken;isolation:isolate"><g data-name="그룹 4666" clip-path="url(#v)" transform="translate(660.49 1096.191)"><path data-name="패스 13331" d="M29.122 58.035A30.956 30.956 0 0 1 15.151 1.446" fill="none" stroke="#7c6454" stroke-linecap="round" stroke-linejoin="round" stroke-width="3.37"/></g></g><g data-name="그룹 4669" style="mix-blend-mode:darken;isolation:isolate"><g data-name="그룹 4668" clip-path="url(#w)" transform="translate(594.822 1154.236)"><path data-name="패스 13332" d="M1.523 1.522a9.754 9.754 0 0 1 4.073 13.76" fill="none" stroke="#7c6454" stroke-linecap="round" stroke-linejoin="round" stroke-width="3.37"/></g></g><g data-name="그룹 4671" style="mix-blend-mode:darken;isolation:isolate"><g data-name="그룹 4670" clip-path="url(#x)" transform="translate(608.146 1156.139)"><path data-name="패스 13333" d="M1.961 2.17a10.233 10.233 0 0 1 5.1 7.137 9.5 9.5 0 0 1-1.018 5.6" fill="none" stroke="#7c6454" stroke-linecap="round" stroke-linejoin="round" stroke-width="3.37"/></g></g><g data-name="그룹 4673" style="mix-blend-mode:darken;isolation:isolate"><g data-name="그룹 4672" clip-path="url(#q)" transform="translate(617.663 1158.993)"><path data-name="패스 13334" d="M2.122 1.351a9.689 9.689 0 0 1 6.12 5.091 9.411 9.411 0 0 1 .514 6.119" fill="none" stroke="#7c6454" stroke-linecap="round" stroke-linejoin="round" stroke-width="3.37"/></g></g><g data-name="그룹 4675" style="mix-blend-mode:darken;isolation:isolate"><g data-name="그룹 4674" clip-path="url(#y)" transform="translate(627.18 1158.042)"><path data-name="패스 13335" d="M1.275 1.789a13.431 13.431 0 0 1 6.624 6.623 10 10 0 0 1 .514 6.119" fill="none" stroke="#7c6454" stroke-linecap="round" stroke-linejoin="round" stroke-width="3.37"/></g></g><path data-name="패스 13336" d="M347.1 851.574c37.783 19.64 79.563 9.411 94.791 5.6 16.274-4.082 44.654-18.346 101.415-46.893a119.286 119.286 0 0 0 11.211-6.118c28.418-17.842 42.456-45.4 49.813-65.7q-140.687 28.447-281.365 56.9l10.878 14.416q-7.98.685-15.97 1.361c-2.046 1.285-4.34 3.245-5.092 6.109-3.036 11.647 22.251 28.052 34.319 34.313" fill="#cfa57a"/><path data-name="패스 13337" d="M347.1 851.574c37.783 19.64 79.563 9.411 94.791 5.6 16.274-4.082 44.654-18.346 101.415-46.893a119.286 119.286 0 0 0 11.211-6.118c28.418-17.842 42.456-45.4 49.813-65.7q-140.687 28.447-281.365 56.9l10.878 14.416q-7.98.685-15.97 1.361c-2.046 1.285-4.34 3.245-5.092 6.109-3.036 11.647 22.251 28.052 34.319 34.313z" fill="none" stroke="#000" stroke-linecap="round" stroke-linejoin="round" stroke-width="3.37"/><path data-name="패스 13338" d="M604.901 732.792c3.845 14.654-90.708 49.481-139.445 64.62-17.055 5.3-44.607 13.151-80.41 12.722-19-.228-34.937-.419-53.439-7.631-31.407-12.247-72.445-45.637-68.1-84.422 2.132-19.1 15.332-39.784 34.652-47.9 12.525-5.262 24.45-3.692 33.129-2.55 18.806 2.474 25.3 9.525 53 21.9 16.779 7.489 29.636 11.723 43.512 16.291a572.063 572.063 0 0 0 58.017 15.263c72.854 14.682 116.538 2.008 119.088 11.7" fill="#cfa57a"/><path data-name="패스 13339" d="M604.901 732.792c3.845 14.654-90.708 49.481-139.445 64.62-17.055 5.3-44.607 13.151-80.41 12.722-19-.228-34.937-.419-53.439-7.631-31.407-12.247-72.445-45.637-68.1-84.422 2.132-19.1 15.332-39.784 34.652-47.9 12.525-5.262 24.45-3.692 33.129-2.55 18.806 2.474 25.3 9.525 53 21.9 16.779 7.489 29.636 11.723 43.512 16.291a572.063 572.063 0 0 0 58.017 15.263c72.85 14.683 116.533 2.011 119.084 11.707z" fill="none" stroke="#000" stroke-linecap="round" stroke-linejoin="round" stroke-width="3.37"/><path data-name="패스 13340" d="M689.327 822.752c-1.485-1.789-2.808-3.388-5.1-4.073-2.122-.638-2.96.019-6.12-.514-.942-.162-2.389-.324-3.236-.542.942 1.285 2.36 3 2.722 5.129a9.094 9.094 0 0 1-.5 6.119 8.167 8.167 0 0 1-4 3.654c2.513 1.456 4.559 2.617 6.034 3.483a2.9 2.9 0 0 0 2.037.514 2.751 2.751 0 0 0 1.532-1.018 3.226 3.226 0 0 0 2.551 2.036 3.092 3.092 0 0 0 2.037-.514 4.279 4.279 0 0 0 2.037 0c2.76-.695 3.759-4.1 3.826-4.33 1.113-3.987-2.094-7.85-3.826-9.934" fill="#cfa57a"/><path data-name="패스 13341" d="M689.327 822.752c-1.485-1.789-2.808-3.388-5.1-4.073-2.122-.638-2.96.019-6.12-.514-.942-.162-2.389-.324-3.236-.542.942 1.285 2.36 3 2.722 5.129a9.094 9.094 0 0 1-.5 6.119 8.167 8.167 0 0 1-4 3.654c2.513 1.456 4.559 2.617 6.034 3.483a2.9 2.9 0 0 0 2.037.514 2.751 2.751 0 0 0 1.532-1.018 3.226 3.226 0 0 0 2.551 2.036 3.092 3.092 0 0 0 2.037-.514 4.279 4.279 0 0 0 2.037 0c2.76-.695 3.759-4.1 3.826-4.33 1.113-3.987-2.094-7.85-3.826-9.934z" fill="none" stroke="#000" stroke-linecap="round" stroke-linejoin="round" stroke-width="3.37"/><path data-name="패스 13342" d="M606.433 1100.168a60.517 60.517 0 0 1-32.577-12.722l-6.614-6.613q-3.055-5.081-6.11-10.172-.757-18.313-1.523-36.635-1.014-8.65-2.037-17.3c1.694-.5 3.388-1.018 5.092-1.522q4.1 12.446 8.194 24.9a44.691 44.691 0 0 0-1.018 21.4c.914 4.52 3.816 20.021 13.257 22.932 5.13 1.58 8.632-1.637 17.74.485a34.643 34.643 0 0 1 7.233 2.569" fill="#cfa57a"/><path data-name="패스 13343" d="M606.433 1100.168a60.517 60.517 0 0 1-32.577-12.722l-6.614-6.613q-3.055-5.081-6.11-10.172-.757-18.313-1.523-36.635-1.014-8.65-2.037-17.3c1.694-.5 3.388-1.018 5.092-1.522q4.1 12.446 8.194 24.9a44.691 44.691 0 0 0-1.018 21.4c.914 4.52 3.816 20.021 13.257 22.932 5.13 1.58 8.632-1.637 17.74.485a34.643 34.643 0 0 1 7.233 2.569" fill="none" stroke="#7c6454" stroke-linecap="round" stroke-linejoin="round" stroke-width="3.37"/><g data-name="그룹 4677" style="mix-blend-mode:darken;isolation:isolate"><g data-name="그룹 4676" clip-path="url(#z)" transform="translate(399.72 729.842)"><path data-name="패스 13344" d="M1.399 30.517a616.337 616.337 0 0 0 66.763-16.823A614.812 614.812 0 0 0 104.851.953" fill="none" stroke="#7c6454" stroke-linecap="round" stroke-linejoin="round" stroke-width="3.37"/></g></g><g data-name="그룹 4679" style="mix-blend-mode:darken;isolation:isolate"><g data-name="그룹 4678" clip-path="url(#A)" transform="translate(378.783 741.261)"><path data-name="패스 13345" d="M1.951 42.031a492.8 492.8 0 0 0 140.66-40.784" fill="none" stroke="#7c6454" stroke-linecap="round" stroke-linejoin="round" stroke-width="3.37"/></g></g><g data-name="그룹 4681" style="mix-blend-mode:darken;isolation:isolate"><g data-name="그룹 4680" clip-path="url(#B)" transform="translate(440.644 771.71)"><path data-name="패스 13346" d="M1.761 23.808A245.186 245.186 0 0 0 62.909 1.389" fill="none" stroke="#7c6454" stroke-linecap="round" stroke-linejoin="round" stroke-width="3.37"/></g></g><path data-name="패스 13347" d="M536.197 831.002q-5.082 9.92-10.174 19.84" fill="#cfa57a"/><path data-name="패스 13348" d="M536.197 831.002q-5.082 9.92-10.174 19.84" fill="none" stroke="#000" stroke-linecap="round" stroke-linejoin="round" stroke-width="3.37"/><g data-name="그룹 4683" style="mix-blend-mode:darken;isolation:isolate"><g data-name="그룹 4682" clip-path="url(#C)" transform="translate(480.616 381.573)"><path data-name="패스 13349" d="M1.808 3.815A65.545 65.545 0 0 0 57.074 1.76" fill="none" stroke="#7c6454" stroke-linecap="round" stroke-linejoin="round" stroke-width="3.37"/></g></g><g data-name="그룹 4685" style="mix-blend-mode:darken;isolation:isolate"><g data-name="그룹 4684" clip-path="url(#D)" transform="translate(447.306 389.185)"><path data-name="패스 13350" d="M18.473 1.57a43.144 43.144 0 0 1-4.606 3.578 44.648 44.648 0 0 1-11.773 5.633" fill="none" stroke="#7c6454" stroke-linecap="round" stroke-linejoin="round" stroke-width="3.37"/></g></g><path data-name="패스 13351" d="M604.901 799.962q2.8-5.081 5.6-10.172a43.887 43.887 0 0 0 9.669-12.722 44.674 44.674 0 0 0 4.578-22.894 75.614 75.614 0 0 0-27.99 30.022" fill="#cfa57a"/><path data-name="패스 13352" d="M604.901 799.962q2.8-5.081 5.6-10.172a43.887 43.887 0 0 0 9.669-12.722 44.674 44.674 0 0 0 4.578-22.894 75.614 75.614 0 0 0-27.99 30.022" fill="none" stroke="#000" stroke-linecap="round" stroke-linejoin="round" stroke-width="3.37"/><g data-name="그룹 4687" style="mix-blend-mode:darken;isolation:isolate"><g data-name="그룹 4686" clip-path="url(#E)" transform="translate(440.644 399.653)"><path data-name="패스 13353" d="M3.388 6.719q6.652-2.555 13.3-5.119c1.618 1.979 1.656 3.349 1.532 4.092-.514 3.273-5.777 5.091-11.773 7.165a63.328 63.328 0 0 1-5.12 1.532" fill="none" stroke="#7c6454" stroke-linecap="round" stroke-linejoin="round" stroke-width="3.37"/></g></g><g data-name="그룹 4689" style="mix-blend-mode:darken;isolation:isolate"><g data-name="그룹 4688" clip-path="url(#F)" transform="translate(672.863 830.707)"><path data-name="패스 13354" d="M15.294 5.907A29.262 29.262 0 0 0 1.761 1.815" fill="none" stroke="#6d5644" stroke-linecap="round" stroke-linejoin="round" stroke-width="3.37"/></g></g><g data-name="그룹 4691" style="mix-blend-mode:darken;isolation:isolate"><g data-name="그룹 4690" clip-path="url(#G)" transform="translate(289.322 1143.768)"><path data-name="패스 13355" d="M2.094 1.684a57.244 57.244 0 0 0 13.229 15.777c10.535 8.7 21.309 10.734 35.118 13.227 15.57 2.816 44.369 5.433 59.539.5 2.5-.809 7.347-2.712 13.229-1.522 4.111.828 5.729 2.055 10.688 3.559 1.732.523 5.682 1.618 14.247 2.036 15.561.761 33.957-1.284 36.137-1.522 7.909-.885 20.8-2.293 38.173-4.073" fill="none" stroke="#7c6454" stroke-linecap="round" stroke-linejoin="round" stroke-width="3.37"/></g></g><g data-name="그룹 4693" style="mix-blend-mode:darken;isolation:isolate"><g data-name="그룹 4692" clip-path="url(#H)" transform="translate(471.099 803.112)"><path data-name="패스 13356" d="M.98 41.116c4.987-3.416 10.754-8.554 10.688-14.759-.086-7.67-9.041-11.542-7.633-15.777.6-1.8 3.207-4.063 23.917-4.577 17.274-.428 22.889.971 34.071-.362a94.539 94.539 0 0 0 19.872-4.586" fill="none" stroke="#7c6454" stroke-linecap="round" stroke-linejoin="round" stroke-width="3.37"/></g></g><g data-name="그룹 4695" style="mix-blend-mode:darken;isolation:isolate"><g data-name="그룹 4694" clip-path="url(#I)" transform="translate(393.058 445.327)"><path data-name="패스 13357" d="M1.913 1.246c3.617-.162 11.573.029 18.064 5.348 4.949 4.054 6.862 9.306 8.394 14.5 2.522 8.526 5.853 23.009 6.31 43.515" fill="none" stroke="#7c6454" stroke-linecap="round" stroke-linejoin="round" stroke-width="3.37"/></g></g><g data-name="그룹 4697" style="mix-blend-mode:darken;isolation:isolate"><g data-name="그룹 4696" clip-path="url(#J)" transform="translate(600.532 484.341)"><path data-name="패스 13358" d="M1.323 2.179Q3.95 25.63 6.567 49.072" fill="none" stroke="#7c6454" stroke-linecap="round" stroke-linejoin="round" stroke-width="3.37"/></g></g><g data-name="그룹 4699" style="mix-blend-mode:darken;isolation:isolate"><g data-name="그룹 4698" clip-path="url(#K)" transform="translate(354.038 903.977)"><path data-name="패스 13359" d="M2.008 65.933a39.2 39.2 0 0 0 7.128-5.091c3.588-3.235 7.566-6.832 8.147-12.208a13.664 13.664 0 0 0-1.018-6.613 87.765 87.765 0 0 0 4.578-11.19 90.8 90.8 0 0 0 4.578-29" fill="none" stroke="#7c6454" stroke-linecap="round" stroke-linejoin="round" stroke-width="3.37"/></g></g><g data-name="그룹 4701" style="mix-blend-mode:darken;isolation:isolate"><g data-name="그룹 4700" clip-path="url(#L)" transform="translate(492.037 853.544)"><path data-name="패스 13360" d="M1.418 20.192q4.069-9.164 8.147-18.317" fill="none" stroke="#7c6454" stroke-linecap="round" stroke-linejoin="round" stroke-width="3.37"/></g></g><g data-name="그룹 4703" style="mix-blend-mode:darken;isolation:isolate"><g data-name="그룹 4702" clip-path="url(#M)" transform="translate(477.761 871.624)"><path data-name="패스 13361" d="M1.437 21.962 4.492 1.608" fill="none" stroke="#7c6454" stroke-linecap="round" stroke-linejoin="round" stroke-width="3.37"/></g></g><g data-name="그룹 4705" style="mix-blend-mode:darken;isolation:isolate"><g data-name="그룹 4704" clip-path="url(#N)" transform="translate(370.217 862.108)"><path data-name="선 899" fill="none" stroke="#7c6454" stroke-linecap="round" stroke-linejoin="round" stroke-width="3.37" d="M1.599 19.269 8.223 1.456"/></g></g><path data-name="패스 13362" d="M624.335 750.148c-.647-2.845-2.208-5.062-4.654-8.631a47.148 47.148 0 0 0-4.521-5.633 6.258 6.258 0 0 0-7.718-3.093 6.133 6.133 0 0 0-3.626 5.681 137.2 137.2 0 0 1-17.8 34.808A111.38 111.38 0 0 1 554 804.168a105.382 105.382 0 0 1-11.211 6.118 1546.467 1546.467 0 0 1-38.659 19.183c-37.088 17.766-55.98 25.892-62.756 27.7-13.838 3.692-35.718 9.506-62.442 4.358-8.1-1.561-19.672-3.92-32.063-12.208a76.559 76.559 0 0 1-26.467-30.526 72.2 72.2 0 0 1-3.055-7.631 16.4 16.4 0 0 0-4.578 5.091c-2.77 4.891-2.132 10.077-1.523 13.74 2.179 13.093 6.843 23.665 11.887 36.378a692.236 692.236 0 0 1 5.1 13.246 131.232 131.232 0 0 0-2.037 12.741c-.438 4.025-.428 5.633.514 7.137 2.113 3.4 7.252 3.559 8.661 3.568a28.878 28.878 0 0 1-3.769 13.95c-2.684 4.567-5.958 6.87-5.092 9.668a5.334 5.334 0 0 0 5.292 3.4 5.41 5.41 0 0 0 3.569-2.036c2.256.466 22.575 4.339 35.67-8.669 2.284-2.265 8.223-8.069 8.661-16.31.628-11.657-10.174-19.612-7.909-22.171 1.865-2.1 10.831 1.351 16.569 4.853 4.378 2.674 7.024 5.433 11.421 5.329a11.8 11.8 0 0 0 6.11-2.036 39.6 39.6 0 0 0 14.761 5.6c2.769.438 6.424.295 13.743 0 5.663-.228 6.89-.571 7.338-1.047a1.451 1.451 0 0 0 .152-.209c1.932-3.273-14.8-14.54-13.077-18.089.99-2.036 8.356-2.16 14.095 1.266 8.822 5.272 7.119 14.711 15.418 18.06 1.133.457 4.311.647 10.688 1.018 10.145.6 10.888-.333 11.1-.742 1.361-2.626-6.672-9.506-8.661-11.209-12.22-10.448-21.661-11.609-21.261-14.511.381-2.826 9.85-5.3 17.188-2.817 1.827.619 1.418.657 6.662 3.207a70.261 70.261 0 0 0 11.268 4.187c6.833 2 8.185.99 8.651.514 1.97-2.027.257-7.727-2.541-11.2-3.835-4.748-9.2-4.682-9.165-6.613.029-1.542 3.455-2.959 6.614-3.559 11.506-2.208 16.3 6.946 26.972 5.091.609-.1 9.022-1.684 11.192-7.631a10.186 10.186 0 0 0-.038-6.927 11.406 11.406 0 0 0-3.569-4.586c-2.769-2.455-4.14-2.189-7.081-4.777-1.77-1.551-3.379-2.959-3.055-4.073.666-2.265 9.041-1.675 11.192-1.532 8.727.619 8.68 2.474 13.743 2.541 5.358.076 10.355-2.95 20.367-8.992a96.4 96.4 0 0 0 10.117-6.8c3.854-2.959 5.672-4.9 8.461-6.632a33.676 33.676 0 0 1 4.863-2.369c11.811-4.8 22.879-3.254 23.879-6.756.942-3.292-7.433-9.706-10.688-8.145-.752.362-1.256 1.17-1.532 1.018-.533-.295.343-3.844 2.037-6.613 4.178-6.832 13.229-8.821 14.761-9.163 4.283-.942 5.244-.1 7.128-1.522a5.931 5.931 0 0 0 1.142-1.161c1.285-1.751 3.436-10.543 3.436-10.543 1.351-5.519 2.836-7.565 2.332-11.875a9.957 9.957 0 0 0-.2-1.294" fill="#cfa57a"/><path data-name="패스 13363" d="M624.335 750.148c-.647-2.845-2.208-5.062-4.654-8.631a47.148 47.148 0 0 0-4.521-5.633 6.258 6.258 0 0 0-7.718-3.093 6.133 6.133 0 0 0-3.626 5.681 137.2 137.2 0 0 1-17.8 34.808A111.38 111.38 0 0 1 554 804.168a105.382 105.382 0 0 1-11.211 6.118 1546.467 1546.467 0 0 1-38.659 19.183c-37.088 17.766-55.98 25.892-62.756 27.7-13.838 3.692-35.718 9.506-62.442 4.358-8.1-1.561-19.672-3.92-32.063-12.208a76.559 76.559 0 0 1-26.467-30.526 72.2 72.2 0 0 1-3.055-7.631 16.4 16.4 0 0 0-4.578 5.091c-2.77 4.891-2.132 10.077-1.523 13.74 2.179 13.093 6.843 23.665 11.887 36.378a692.236 692.236 0 0 1 5.1 13.246 131.232 131.232 0 0 0-2.037 12.741c-.438 4.025-.428 5.633.514 7.137 2.113 3.4 7.252 3.559 8.661 3.568a28.878 28.878 0 0 1-3.769 13.95c-2.684 4.567-5.958 6.87-5.092 9.668a5.334 5.334 0 0 0 5.292 3.4 5.41 5.41 0 0 0 3.569-2.036c2.256.466 22.575 4.339 35.67-8.669 2.284-2.265 8.223-8.069 8.661-16.31.628-11.657-10.174-19.612-7.909-22.171 1.865-2.1 10.831 1.351 16.569 4.853 4.378 2.674 7.024 5.433 11.421 5.329a11.8 11.8 0 0 0 6.11-2.036 39.6 39.6 0 0 0 14.761 5.6c2.769.438 6.424.295 13.743 0 5.663-.228 6.89-.571 7.338-1.047a1.451 1.451 0 0 0 .152-.209c1.932-3.273-14.8-14.54-13.077-18.089.99-2.036 8.356-2.16 14.095 1.266 8.822 5.272 7.119 14.711 15.418 18.06 1.133.457 4.311.647 10.688 1.018 10.145.6 10.888-.333 11.1-.742 1.361-2.626-6.672-9.506-8.661-11.209-12.22-10.448-21.661-11.609-21.261-14.511.381-2.826 9.85-5.3 17.188-2.817 1.827.619 1.418.657 6.662 3.207a70.261 70.261 0 0 0 11.268 4.187c6.833 2 8.185.99 8.651.514 1.97-2.027.257-7.727-2.541-11.2-3.835-4.748-9.2-4.682-9.165-6.613.029-1.542 3.455-2.959 6.614-3.559 11.506-2.208 16.3 6.946 26.972 5.091.609-.1 9.022-1.684 11.192-7.631a10.186 10.186 0 0 0-.038-6.927 11.406 11.406 0 0 0-3.569-4.586c-2.769-2.455-4.14-2.189-7.081-4.777-1.77-1.551-3.379-2.959-3.055-4.073.666-2.265 9.041-1.675 11.192-1.532 8.727.619 8.68 2.474 13.743 2.541 5.358.076 10.355-2.95 20.367-8.992a96.4 96.4 0 0 0 10.117-6.8c3.854-2.959 5.672-4.9 8.461-6.632a33.676 33.676 0 0 1 4.863-2.369c11.811-4.8 22.879-3.254 23.879-6.756.942-3.292-7.433-9.706-10.688-8.145-.752.362-1.256 1.17-1.532 1.018-.533-.295.343-3.844 2.037-6.613 4.178-6.832 13.229-8.821 14.761-9.163 4.283-.942 5.244-.1 7.128-1.522a5.931 5.931 0 0 0 1.142-1.161c1.285-1.751 3.436-10.543 3.436-10.543 1.351-5.519 2.836-7.565 2.332-11.875a9.957 9.957 0 0 0-.2-1.294z" fill="none" stroke="#000" stroke-linecap="round" stroke-linejoin="round" stroke-width="3.37"/><path data-name="패스 13364" d="M639.112 662.634c-1.98.828-5.425 3.283-12.229 8.155-20.329 14.559-26.3 20.744-40.258 29.051a170.255 170.255 0 0 1-12.23 6.623 166.17 166.17 0 0 1-13.762 5.6c-8.48 3.016-15.313 5.452-24.459 6.623-2.979.381-10.773 1.218-16.817 2.036a44.142 44.142 0 0 1-6.12 1.018c-4.226.409-5.234-.1-6.8.733a8.3 8.3 0 0 0-3.559 9.164c1.428 4.625 7.328 5.719 8.328 5.9 0 0 7.814 1.446 17.9-5.662h.01c-.124.143-3.931 3.093-6.9 5.862a58.7 58.7 0 0 0-5.853 6.356 103.963 103.963 0 0 0-7.728 7.869c-.447.485-3.007 3.235-6.262 6.623a5.762 5.762 0 0 0-2.037 3.055 5.244 5.244 0 0 0 2.037 4.577 6.41 6.41 0 0 0 5.6 1.018 19.118 19.118 0 0 1-3.312 3.311c-1.989 1.561-2.741 1.456-5.092 3.055-2.493 1.694-4.559 3.083-4.835 5.348a5.287 5.287 0 0 0 1.018 3.559 7.221 7.221 0 0 0 5.349 2.8 9.346 9.346 0 0 0 6.871-2.293c.048.39.7 4.777 4.073 6.109a6.243 6.243 0 0 0 3.312.257c2.636-.4 4.226-2.008 6.614-4.073 1.456-1.256 3.664-3.15 7.128-6.109-.029.638-.076 3.321 1.78 4.834a5.028 5.028 0 0 0 3.055 1.018c4.673.152 8.071-5.814 15.779-10.686 3.169-2.008 7.509-3.806 16.2-7.413a204.505 204.505 0 0 1 3.912-1.589s3.75-1.627 7.109-3.464a90.145 90.145 0 0 0 14.247-10.172c4.426-3.816 4.578-4.586 12.724-12.208 2.551-2.388 4.682-4.311 6.11-5.6a60.4 60.4 0 0 0 12.306-.476c2.674-.381 14.571-2.56 31.083-13.76 12.4-8.412 25.258-17.252 29.046-33.124a41.743 41.743 0 0 0-.247-19.583" fill="#cfa57a"/><path data-name="패스 13365" d="M639.112 663.11c-1.98.828-5.425 3.283-12.229 8.155-20.329 14.559-26.3 20.744-40.258 29.051a170.255 170.255 0 0 1-12.23 6.623 166.17 166.17 0 0 1-13.762 5.6c-8.48 3.016-15.313 5.452-24.459 6.623-2.979.381-10.773 1.218-16.817 2.036a44.142 44.142 0 0 1-6.12 1.018c-4.226.409-5.234-.1-6.8.733a8.3 8.3 0 0 0-3.559 9.164c1.428 4.625 7.328 5.719 8.328 5.9 0 0 7.756 1.427 17.788-5.586.086.076-.067-.067.019.01-.647.542-4.073 3.235-6.8 5.776a58.707 58.707 0 0 0-5.853 6.356h0a103.963 103.963 0 0 0-7.728 7.869c-.447.485-3.007 3.235-6.262 6.623a5.762 5.762 0 0 0-2.037 3.055 5.244 5.244 0 0 0 2.037 4.577 6.41 6.41 0 0 0 5.6 1.018 19.118 19.118 0 0 1-3.312 3.311c-1.989 1.561-2.741 1.456-5.092 3.055-2.493 1.694-4.559 3.083-4.835 5.348a5.287 5.287 0 0 0 1.018 3.559 7.221 7.221 0 0 0 5.349 2.8 9.346 9.346 0 0 0 6.871-2.293c.048.39.7 4.777 4.073 6.109a6.243 6.243 0 0 0 3.312.257c2.636-.4 4.226-2.008 6.614-4.073 1.456-1.256 3.664-3.15 7.128-6.109-.029.638-.076 3.321 1.78 4.834a5.028 5.028 0 0 0 3.055 1.018c4.673.152 8.071-5.814 15.779-10.686 3.169-2.008 7.509-3.806 16.2-7.413a204.505 204.505 0 0 1 3.912-1.589s3.75-1.627 7.109-3.464a90.145 90.145 0 0 0 14.247-10.172c4.426-3.816 4.578-4.586 12.724-12.208 2.551-2.388 4.682-4.311 6.11-5.6a60.4 60.4 0 0 0 12.306-.476c2.674-.381 14.571-2.56 31.083-13.76 12.4-8.412 25.258-17.252 29.046-33.124a41.743 41.743 0 0 0-.247-19.583" fill="none" stroke="#000" stroke-linecap="round" stroke-linejoin="round" stroke-width="3.37"/><g data-name="그룹 4707" style="mix-blend-mode:darken;isolation:isolate"><g data-name="그룹 4706" clip-path="url(#O)" transform="translate(505.361 745.067)"><path data-name="패스 13366" d="M2.018 38.471a351.91 351.91 0 0 1 24.24-22.761A348.312 348.312 0 0 1 44.074 1.465" fill="none" stroke="#7c6454" stroke-linecap="round" stroke-linejoin="round" stroke-width="3.37"/></g></g><g data-name="그룹 4709" style="mix-blend-mode:darken;isolation:isolate"><g data-name="그룹 4708" clip-path="url(#P)" transform="translate(506.313 735.551)"><path data-name="패스 13367" d="M1.39 32.353c4.521-4.92 9.6-10.058 15.266-15.263A253.766 253.766 0 0 1 35.233 1.57" fill="none" stroke="#7c6454" stroke-linecap="round" stroke-linejoin="round" stroke-width="3.37"/></g></g><path data-name="패스 13368" d="M529.078 732.288c2.056-2 4.254-4.044 6.614-6.109q3.112-2.726 6.11-5.091" fill="#cfa57a"/><path data-name="패스 13369" d="M529.078 732.288c2.056-2 4.254-4.044 6.614-6.109q3.112-2.726 6.11-5.091" fill="none" stroke="#000" stroke-linecap="round" stroke-linejoin="round" stroke-width="3.37"/><g data-name="그룹 4711" style="mix-blend-mode:darken;isolation:isolate"><g data-name="그룹 4710" clip-path="url(#Q)" transform="translate(527.25 751.728)"><path data-name="패스 13370" d="M1.827 27.88c3.7-3.939 7.766-8 12.191-12.123A251.208 251.208 0 0 1 30.835 1.484" fill="none" stroke="#7c6454" stroke-linecap="round" stroke-linejoin="round" stroke-width="3.37"/></g></g><g data-name="그룹 4713" style="mix-blend-mode:darken;isolation:isolate"><g data-name="그룹 4712" clip-path="url(#R)" transform="translate(637.649 660.379)"><path data-name="패스 13371" d="M1.37 2.808a40.551 40.551 0 0 1 9.213-1.532A43.058 43.058 0 0 1 33.615 6.9" fill="none" stroke="#6d5644" stroke-linecap="round" stroke-linejoin="round" stroke-width="3.37"/></g></g><g data-name="그룹 4715" style="mix-blend-mode:darken;isolation:isolate"><g data-name="그룹 4714" clip-path="url(#S)" transform="translate(557.705 883.042)"><path data-name="패스 13372" d="M1.399 1.894a406.12 406.12 0 0 0 27.485 129.754" fill="none" stroke="#7c6454" stroke-linecap="round" stroke-linejoin="round" stroke-width="3.37"/></g></g><g data-name="그룹 4717" style="mix-blend-mode:darken;isolation:isolate"><g data-name="그룹 4716" clip-path="url(#T)" transform="translate(476.809 1036.243)"><path data-name="패스 13373" d="m41.067 1.342-2.541 38.167c-.333-.428-8.08-9.849-19.843-8.145-5.444.79-12.03 4.006-14.761 9.668a28.806 28.806 0 0 0-2.037 8.145 47.773 47.773 0 0 0-.514 8.65A22.524 22.524 0 0 1 26.81 66.99c.714-2.636 1.4-5.348 2.037-8.145a214.383 214.383 0 0 0 4.073-23.913" fill="none" stroke="#7c6454" stroke-linecap="round" stroke-linejoin="round" stroke-width="3.37"/></g></g><g data-name="그룹 4719" style="mix-blend-mode:darken;isolation:isolate"><g data-name="그룹 4718" clip-path="url(#U)" transform="translate(477.761 1054.322)"><path data-name="패스 13374" d="M.933 31.087q1.014-14.5 2.037-29" fill="none" stroke="#7c6454" stroke-linecap="round" stroke-linejoin="round" stroke-width="3.37"/></g></g><g data-name="그룹 4721" style="mix-blend-mode:darken;isolation:isolate"><g data-name="그룹 4720" clip-path="url(#V)" transform="translate(492.989 984.859)"><path data-name="패스 13375" d="M1.485 60.861q5.6-29.517 11.192-59.025" fill="none" stroke="#7c6454" stroke-linecap="round" stroke-linejoin="round" stroke-width="3.37"/></g></g><g data-name="그룹 4723" style="mix-blend-mode:darken;isolation:isolate"><g data-name="그룹 4722" clip-path="url(#W)" transform="translate(500.602 982.956)"><path data-name="패스 13376" d="m1.504 1.713 6.11 3.054" fill="none" stroke="#7c6454" stroke-linecap="round" stroke-linejoin="round" stroke-width="3.37"/></g></g><g data-name="그룹 4725" style="mix-blend-mode:darken;isolation:isolate"><g data-name="그룹 4724" clip-path="url(#X)" transform="translate(507.264 975.343)"><path data-name="패스 13377" d="M2.474 1.694c-.742 9.982-1 18.879-1.018 26.463-.029 12.342.562 19.545 4.073 27.471a45.854 45.854 0 0 0 2.037 4.073" fill="none" stroke="#7c6454" stroke-linecap="round" stroke-linejoin="round" stroke-width="3.37"/></g></g><g data-name="그룹 4727" style="mix-blend-mode:darken;isolation:isolate"><g data-name="그룹 4726" clip-path="url(#Y)" transform="translate(326.438 857.35)"><path data-name="패스 13378" d="M1.618 21.99Q3.659 11.556 5.691 1.132" fill="none" stroke="#7c6454" stroke-linecap="round" stroke-linejoin="round" stroke-width="3.37"/></g></g><g data-name="그룹 4729" style="mix-blend-mode:darken;isolation:isolate"><g data-name="그룹 4728" clip-path="url(#Z)" transform="translate(337.859 859.254)"><path data-name="패스 13379" d="M1.646 34.075c2.5-10.962 4.939-21.619 7.376-32.305" fill="none" stroke="#7c6454" stroke-linecap="round" stroke-linejoin="round" stroke-width="3.37"/></g></g><g data-name="그룹 4731" style="mix-blend-mode:darken;isolation:isolate"><g data-name="그룹 4730" clip-path="url(#aa)" transform="translate(591.967 746.97)"><path data-name="패스 13380" d="M1.247 45.819A152.647 152.647 0 0 0 8.87 1.6" fill="none" stroke="#7c6454" stroke-linecap="round" stroke-linejoin="round" stroke-width="3.37"/></g></g><g data-name="그룹 4733" style="mix-blend-mode:darken;isolation:isolate"><g data-name="그룹 4732" clip-path="url(#ab)" transform="translate(537.719 823.094)"><path data-name="패스 13381" d="M15.275 1.798A256.853 256.853 0 0 0 2.046 95.421a248.872 248.872 0 0 0 4.073 34.6" fill="none" stroke="#7c6454" stroke-linecap="round" stroke-linejoin="round" stroke-width="3.37"/></g></g><g data-name="그룹 4735" style="mix-blend-mode:darken;isolation:isolate"><g data-name="그룹 4734" clip-path="url(#ac)" transform="translate(664.297 830.707)"><path data-name="패스 13382" d="M1.171 1.817a138.921 138.921 0 0 1 7.633 21.876c1.418 5.557 2.208 10.172.514 15.263a20.712 20.712 0 0 1-2.541 5.091c1.19.514 2.379 1.018 3.559 1.522a219.179 219.179 0 0 1 2.541 15.263c.562 4.272.771 6.851-.514 9.668a13.185 13.185 0 0 1-5.092 5.6" fill="none" stroke="#7c6454" stroke-linecap="round" stroke-linejoin="round" stroke-width="3.37"/></g></g><path data-name="패스 13383" d="M327.038 888.495c1.066-2.436 3.074-4.035 5.187-4.073a6.094 6.094 0 0 1 4.149 2.036 13.518 13.518 0 0 1 2.027 1.846 7.338 7.338 0 0 1 1.085 4.767c-.171 4.748-3.312 8.916-4.311 10.172" fill="none" stroke="#000" stroke-linecap="round" stroke-linejoin="round" stroke-width="3.37"/><g data-name="그룹 4737" style="mix-blend-mode:darken;isolation:isolate"><g data-name="그룹 4736" clip-path="url(#ad)" transform="translate(370.217 864.963)"><path data-name="패스 13384" d="M8.222 1.656Q4.91 8.778 1.608 15.901" fill="none" stroke="#7c6454" stroke-linecap="round" stroke-linejoin="round" stroke-width="3.37"/></g></g><g data-name="그룹 4739" style="mix-blend-mode:darken;isolation:isolate"><g data-name="그룹 4738" clip-path="url(#ae)" transform="translate(363.555 957.264)"><path data-name="패스 13385" d="M1.646 65.058a65.431 65.431 0 0 0 7.633-6.109c2.808-2.617 18.387-17.109 14.761-26.463-1.285-3.311-3.721-2.74-6.614-8.145-1.589-2.959-2.113-5.481-3.055-10.172a84.285 84.285 0 0 1-1.523-12.208" fill="none" stroke="#7c6454" stroke-linecap="round" stroke-linejoin="round" stroke-width="3.37"/></g></g><g data-name="그룹 4741" style="mix-blend-mode:darken;isolation:isolate"><g data-name="그룹 4740" clip-path="url(#af)" transform="translate(629.084 916.347)"><path data-name="패스 13386" d="M31.797 1.151a1034.1 1034.1 0 0 1-2.541 39.185c-2.712 32.286-4.178 48.815-9.669 67.675a200.549 200.549 0 0 1-17.816 42.23" fill="none" stroke="#7c6454" stroke-linecap="round" stroke-linejoin="round" stroke-width="3.37"/></g></g><g data-name="그룹 4743" style="mix-blend-mode:darken;isolation:isolate"><g data-name="그룹 4742" clip-path="url(#ag)" transform="translate(663.345 1153.284)"><path data-name="패스 13387" d="M2.122 15.072a50.018 50.018 0 0 0 25.953-7.631 46.273 46.273 0 0 0 7.633-6.109" fill="none" stroke="#7c6454" stroke-linecap="round" stroke-linejoin="round" stroke-width="3.37"/></g></g><g data-name="그룹 4745" style="mix-blend-mode:darken;isolation:isolate"><g data-name="그룹 4744" clip-path="url(#ah)" transform="translate(403.527 861.157)"><path data-name="선 900" fill="none" stroke="#7c6454" stroke-linecap="round" stroke-linejoin="round" stroke-width="3.37" d="M1.37 27.852 12.058 1.389"/></g></g><g data-name="그룹 4747" style="mix-blend-mode:darken;isolation:isolate"><g data-name="그룹 4746" clip-path="url(#ai)" transform="translate(427.32 860.205)"><path data-name="패스 13388" d="m4.901 2.065-3.569 13.76" fill="none" stroke="#7c6454" stroke-linecap="round" stroke-linejoin="round" stroke-width="3.37"/></g></g><g data-name="그룹 4749" style="mix-blend-mode:darken;isolation:isolate"><g data-name="그룹 4748" clip-path="url(#N)" transform="translate(449.21 849.738)"><path data-name="선 901" fill="none" stroke="#7c6454" stroke-linecap="round" stroke-linejoin="round" stroke-width="3.37" d="M.98 19.421 7.604 1.608"/></g></g><g data-name="그룹 4751" style="mix-blend-mode:darken;isolation:isolate"><g data-name="그룹 4750" clip-path="url(#aj)" transform="translate(480.616 838.319)"><path data-name="선 902" fill="none" stroke="#7c6454" stroke-linecap="round" stroke-linejoin="round" stroke-width="3.37" d="M1.637 17.613 3.674 1.332"/></g></g><g data-name="그룹 4753" style="mix-blend-mode:darken;isolation:isolate"><g data-name="그룹 4752" clip-path="url(#ak)" transform="translate(512.023 823.094)"><path data-name="선 903" fill="none" stroke="#7c6454" stroke-linecap="round" stroke-linejoin="round" stroke-width="3.37" d="M1.428 7.136V1.427"/></g></g><g data-name="그룹 4755" style="mix-blend-mode:darken;isolation:isolate"><g data-name="그룹 4754" clip-path="url(#al)" transform="translate(394.01 1153.284)"><path data-name="패스 13389" d="M127.435 9.982a96.376 96.376 0 0 0-35.623-3.559c-7.623.714-18.368 2.731-18.32 4.577.029 1.323 5.558 2.436 6.11 2.541 4.977.98 8-.171 10.183 2.036.4.409 1.18 1.2 1.018 2.036-.4 2.036-6.243 3.292-11.192 2.541-5.149-.771-5.415-3.121-13.743-7.127-4.778-2.293-8.375-3.978-13.229-4.073-3.474-.067-3.95.761-9.669 1.522-6.481.875-6.89-.048-13.229.514-4.768.419-5.834 1.047-17.816 3.559-5.929 1.247-9.46 3.15-10.174 2.036-.362-.561.114-1.656 2.037-4.073A51.975 51.975 0 0 1 15.494 1.826" fill="none" stroke="#7c6454" stroke-linecap="round" stroke-linejoin="round" stroke-width="3.37"/></g></g><g data-name="그룹 4757" style="mix-blend-mode:darken;isolation:isolate"><g data-name="그룹 4756" clip-path="url(#am)" transform="translate(295.984 1136.156)"><path data-name="패스 13390" d="M2.046 1.665C6.1 2.521 8.737 4.529 8.66 6.242a3.08 3.08 0 0 1-1.018 2.036c-.676.58-1.161.4-2.541 1.018-.79.352-2.037.913-2.037 1.522 0 .79 2.037 1.38 2.541 1.532 4.568 1.323 29.6-2.246 41.733-4.073" fill="none" stroke="#7c6454" stroke-linecap="round" stroke-linejoin="round" stroke-width="3.37"/></g></g><g data-name="그룹 4759" style="mix-blend-mode:darken;isolation:isolate"><g data-name="그룹 4758" clip-path="url(#an)" transform="translate(310.259 1147.575)"><path data-name="패스 13391" d="M53.422 2.464c-12.743 2.132-21.357 1.266-26.972 0-5.149-1.161-8.527-.942-15.266-.514-2 .133-4.93.4-7.128 2.541-1.694 1.656-2.912 4.387-2.037 5.6.523.723 1.561.352 3.055 1.018 2.122.952 2.636 2.883 3.559 4.073 1.466 1.884 4.492 2.607 14.761 1.532 11.135-1.18 10.859-2.379 15.266-2.036 6.919.533 6.614 3.416 14.761 5.091 2.627.542 11.6 2.255 20.862-2.036a29.981 29.981 0 0 0 7.633-5.091" fill="none" stroke="#7c6454" stroke-linecap="round" stroke-linejoin="round" stroke-width="3.37"/></g></g><g data-name="그룹 4761" style="mix-blend-mode:darken;isolation:isolate"><g data-name="그룹 4760" clip-path="url(#ao)" transform="translate(329.294 1044.807)"><path data-name="패스 13392" d="M1.818 107.259a47.136 47.136 0 0 0 21.88 4.073 44.717 44.717 0 0 0 9.165-1.523c10.393-3.473 16.322-18.441 21.376-46.3a387.8 387.8 0 0 0 6.11-62.079" fill="none" stroke="#7c6454" stroke-linecap="round" stroke-linejoin="round" stroke-width="3.37"/></g></g><g data-name="그룹 4763" style="mix-blend-mode:darken;isolation:isolate"><g data-name="그룹 4762" clip-path="url(#ap)" transform="translate(377.831 1071.45)"><path data-name="패스 13393" d="M16.379 1.247C10.174 54.391 6.015 75.259 3.15 80.112c-.343.58-1.884 3.007-1.018 5.091 1.247 3.007 6.852 3.635 12.21 3.559" fill="none" stroke="#7c6454" stroke-linecap="round" stroke-linejoin="round" stroke-width="3.37"/></g></g><g data-name="그룹 4765" style="mix-blend-mode:darken;isolation:isolate"><g data-name="그룹 4764" clip-path="url(#aq)" transform="translate(383.541 1139.011)"><path data-name="패스 13394" d="M8.633 1.865a137.43 137.43 0 0 1-4.578 4.073c-1.637 1.38-2.484 2.017-2.541 3.054-.01.238-.038 1.475 2.037 3.054 3.569 2.712 8.232 2.569 10.688 2.541 5.1-.057 10.164 1.028 15.266 1.018 13.781-.019 29.341-.048 29.522 1.522.1.923-5.12 2.369-9.165 3.054-7.975 1.342-12.2-.171-17.3 0-4.749.162-11.392 1.827-19.339 8.65" fill="none" stroke="#7c6454" stroke-linecap="round" stroke-linejoin="round" stroke-width="3.37"/></g></g><g data-name="그룹 4767" style="mix-blend-mode:darken;isolation:isolate"><g data-name="그룹 4766" clip-path="url(#ar)" transform="translate(440.644 1137.108)"><path data-name="패스 13395" d="M9.038 2.246a38.056 38.056 0 0 0-2.541 6.613c-.876 3.121-1 5.129-2.541 7.631a14.326 14.326 0 0 1-2.541 3.054" fill="none" stroke="#7c6454" stroke-linecap="round" stroke-linejoin="round" stroke-width="3.37"/></g></g><g data-name="그룹 4769" style="mix-blend-mode:darken;isolation:isolate"><g data-name="그룹 4768" clip-path="url(#as)" transform="translate(466.341 1135.204)"><path data-name="패스 13396" d="M4.726 1.094a54.741 54.741 0 0 1-3.055 27.481" fill="none" stroke="#7c6454" stroke-linecap="round" stroke-linejoin="round" stroke-width="3.37"/></g></g><g data-name="그룹 4771" style="mix-blend-mode:darken;isolation:isolate"><g data-name="그룹 4770" clip-path="url(#at)" transform="translate(637.649 1080.966)"><path data-name="패스 13397" d="M1.865 14.622a12.807 12.807 0 0 0 7.633 5.091c6.043 1.142 10.983-3.388 11.706-4.073 5.6-5.281 4.169-11.97 9.165-13.74a8.981 8.981 0 0 1 5.092 0 12.179 12.179 0 0 1 7.128 5.091" fill="none" stroke="#7c6454" stroke-linecap="round" stroke-linejoin="round" stroke-width="3.37"/></g></g><g data-name="그룹 4773" style="mix-blend-mode:darken;isolation:isolate"><g data-name="그룹 4772" clip-path="url(#au)" transform="translate(389.252 816.434)"><path data-name="패스 13398" d="M1.399 15.586a286.571 286.571 0 0 0 63.613-7.632 281.387 281.387 0 0 0 21.88-6.109" fill="none" stroke="#7c6454" stroke-linecap="round" stroke-linejoin="round" stroke-width="3.37"/></g></g><g data-name="그룹 4775" style="mix-blend-mode:darken;isolation:isolate"><g data-name="그룹 4774" clip-path="url(#av)" transform="translate(403.527 824.998)"><path data-name="패스 13399" d="M1.37 24.827a472.135 472.135 0 0 0 46.824-12.722A469.305 469.305 0 0 0 78.725.915" fill="none" stroke="#7c6454" stroke-linecap="round" stroke-linejoin="round" stroke-width="3.37"/></g></g><path data-name="패스 13400" d="M577.444 1175.141a.526.526 0 0 0-.019-.171c-.685-3.207-10.393-5.938-17.3-2.036-6.576 3.721-7.528 11.695-7.633 12.722a11.609 11.609 0 0 1 5.092-2.036 12.627 12.627 0 0 1 5.092.514c.1.019.219.038.333.057a16.691 16.691 0 0 0 6.8 3 17.515 17.515 0 0 0 8.147-.5c6.281-1.941 9.707-6.975 11.192-9.163a27.3 27.3 0 0 0 1.523-2.541 75.092 75.092 0 0 0-13.21.171" fill="#cfa57a"/><path data-name="패스 13401" d="M577.444 1175.141a.526.526 0 0 0-.019-.171c-.685-3.207-10.393-5.938-17.3-2.036-6.576 3.721-7.528 11.695-7.633 12.722a11.609 11.609 0 0 1 5.092-2.036 12.627 12.627 0 0 1 5.092.514c.1.019.219.038.333.057a16.691 16.691 0 0 0 6.8 3 17.515 17.515 0 0 0 8.147-.5c6.281-1.941 9.707-6.975 11.192-9.163a27.3 27.3 0 0 0 1.523-2.541 75.092 75.092 0 0 0-13.21.171z" fill="none" stroke="#7c6454" stroke-linecap="round" stroke-linejoin="round" stroke-width="3.37"/><path data-name="패스 13402" d="M592.69 1175.988c-1.789 2.427 3.16 12.018 11.192 13.74 5.339 1.142 9.879-1.665 11.192-2.541a9.152 9.152 0 0 0 9.669 4.073c3.607-.875 7-4.282 6.614-8.145a7.141 7.141 0 0 0-4.073-5.6c-2.151-.971-4.149-.39-6.11 0-4.073.8-8.48.362-17.3-.514-8.375-.828-10.307-2.227-11.192-1.018" fill="#cfa57a"/><path data-name="패스 13403" d="M592.69 1175.988c-1.789 2.427 3.16 12.018 11.192 13.74 5.339 1.142 9.879-1.665 11.192-2.541a9.152 9.152 0 0 0 9.669 4.073c3.607-.875 7-4.282 6.614-8.145a7.141 7.141 0 0 0-4.073-5.6c-2.151-.971-4.149-.39-6.11 0-4.073.8-8.48.362-17.3-.514-8.375-.828-10.307-2.227-11.192-1.018z" fill="none" stroke="#7c6454" stroke-linecap="round" stroke-linejoin="round" stroke-width="3.37"/><g data-name="그룹 4777" style="mix-blend-mode:darken;isolation:isolate"><g data-name="그룹 4776" clip-path="url(#aw)" transform="translate(530.105 1162.799)"><path data-name="패스 13404" d="M30.017 6.576a17.689 17.689 0 0 0-12.211-4.577A18.039 18.039 0 0 0 6.614 6.576a20.1 20.1 0 0 0-5.092 6.613 10.25 10.25 0 0 0 5.092 3.054c3.426.79 6.614-.676 10.688-2.541 3.759-1.722 5.472-3.207 9.165-3.559a16.063 16.063 0 0 1 3.055 0" fill="none" stroke="#7c6454" stroke-linecap="round" stroke-linejoin="round" stroke-width="3.37"/></g></g><path data-name="패스 13405" d="M631.368 1178.529c1.837 2.617 7.823 10.657 15.265 12.722a13.533 13.533 0 0 0 3.559.514c5.377-.029 9.241-3.6 10.688-5.091a6.594 6.594 0 0 0 5.092 2.541c.2 0 3.093-.114 3.559-1.532.638-1.922-3.7-4.948-6.11-6.613-2.76-1.913-5.139-3.568-8.651-4.073-1.685-.238-1.475.1-7.128.514-4.33.314-5.2.181-10.174.5-2.636.181-4.768.371-6.11.514" fill="#cfa57a"/><path data-name="패스 13406" d="M631.368 1178.529c1.837 2.617 7.823 10.657 15.265 12.722a13.533 13.533 0 0 0 3.559.514c5.377-.029 9.241-3.6 10.688-5.091a6.594 6.594 0 0 0 5.092 2.541c.2 0 3.093-.114 3.559-1.532.638-1.922-3.7-4.948-6.11-6.613-2.76-1.913-5.139-3.568-8.651-4.073-1.685-.238-1.475.1-7.128.514-4.33.314-5.2.181-10.174.5-2.636.181-4.768.371-6.11.514z" fill="none" stroke="#7c6454" stroke-linecap="round" stroke-linejoin="round" stroke-width="3.37"/><g data-name="그룹 4779" style="mix-blend-mode:darken;isolation:isolate"><g data-name="그룹 4778" clip-path="url(#ax)" transform="translate(523.443 1158.042)"><path data-name="패스 13407" d="M1.561 10.817a137.047 137.047 0 0 1 7.128-4.073c6.158-3.273 9.3-4.91 12.211-5.091 1.7-.1 6.71-.048 12.724 5.6" fill="none" stroke="#7c6454" stroke-linecap="round" stroke-linejoin="round" stroke-width="3.37"/></g></g><g data-name="그룹 4781" style="mix-blend-mode:darken;isolation:isolate"><g data-name="그룹 4780" clip-path="url(#ay)" transform="translate(527.25 1151.381)"><path data-name="패스 13408" d="M1.313 8.831a62.032 62.032 0 0 1 4.073-3.054c3.188-2.189 5.234-3.6 7.128-4.073C17.682.41 23.173 5.71 24.725 7.304" fill="none" stroke="#7c6454" stroke-linecap="round" stroke-linejoin="round" stroke-width="3.37"/></g></g><g data-name="그룹 4783" style="mix-blend-mode:darken;isolation:isolate"><g data-name="그룹 4782" clip-path="url(#az)" transform="translate(649.07 1172.315)"><path data-name="패스 13409" d="M1.637 4.691a23.12 23.12 0 0 1 11.192-3.054 23.78 23.78 0 0 1 15.266 5.6" fill="none" stroke="#7c6454" stroke-linecap="round" stroke-linejoin="round" stroke-width="3.37"/></g></g><g data-name="그룹 4785" style="mix-blend-mode:darken;isolation:isolate"><g data-name="그룹 4784" clip-path="url(#aA)" transform="translate(646.215 1166.606)"><path data-name="패스 13410" d="M1.951 5.811a30.622 30.622 0 0 1 9.669-3.559 29.82 29.82 0 0 1 6.11-.5" fill="none" stroke="#7c6454" stroke-linecap="round" stroke-linejoin="round" stroke-width="3.37"/></g></g><g data-name="그룹 4787" style="mix-blend-mode:darken;isolation:isolate"><g data-name="그룹 4786" clip-path="url(#aB)" transform="translate(533.912 1178.976)"><path data-name="패스 13411" d="M1.266 6.166c.143-.495 2.208.286 5.092-.514a12.068 12.068 0 0 0 5.6-3.559 16.568 16.568 0 0 0 2.037 3.559 17.3 17.3 0 0 0 6.11 5.091 26.733 26.733 0 0 1-8.147 0C6.076 9.82 1.042 6.956 1.27 6.166z" fill="none" stroke="#7c6454" stroke-linecap="round" stroke-linejoin="round" stroke-width="3.37"/></g></g><g data-name="그룹 4789" style="mix-blend-mode:darken;isolation:isolate"><g data-name="그룹 4788" clip-path="url(#aC)" transform="translate(571.981 1186.588)"><path data-name="패스 13412" d="M1.37 6.185q6.867-2.3 13.743-4.577c1.551 1.522 6.243 5.728 12.724 5.6 1.618-.029 3.521-.657 3.559-.5.067.238-4.625 1.855-7.633 2.541-3.674.847-11.459 1.818-22.394-3.054z" fill="none" stroke="#7c6454" stroke-linecap="round" stroke-linejoin="round" stroke-width="3.37"/></g></g><g data-name="그룹 4791" style="mix-blend-mode:darken;isolation:isolate"><g data-name="그룹 4790" clip-path="url(#aD)" transform="translate(622.422 1190.395)"><path data-name="패스 13413" d="M1.818 6.965q6.867-2.8 13.743-5.6 5.339 2.3 10.688 4.577a28.975 28.975 0 0 1-7.128 2.541 30.5 30.5 0 0 1-17.3-1.532z" fill="none" stroke="#7c6454" stroke-linecap="round" stroke-linejoin="round" stroke-width="3.37"/></g></g><g data-name="그룹 4793" style="mix-blend-mode:darken;isolation:isolate"><g data-name="그룹 4792" clip-path="url(#aE)" transform="translate(416.851 893.509)"><path data-name="패스 13414" d="M1.789 47.902A187.858 187.858 0 0 0 4.33 35.18 191.339 191.339 0 0 0 6.871 1.6" fill="none" stroke="#7c6454" stroke-linecap="round" stroke-linejoin="round" stroke-width="3.37"/></g></g><g data-name="그룹 4795" style="mix-blend-mode:darken;isolation:isolate"><g data-name="그룹 4794" clip-path="url(#aF)" transform="translate(427.32 898.267)"><path data-name="패스 13415" d="M31.016 1.427a1100.352 1100.352 0 0 1-14.247 95.146 1097.518 1097.518 0 0 1-14.761 65.134" fill="none" stroke="#7c6454" stroke-linecap="round" stroke-linejoin="round" stroke-width="3.37"/></g></g><g data-name="그룹 4797" style="mix-blend-mode:darken;isolation:isolate"><g data-name="그룹 4796" clip-path="url(#aG)" transform="translate(514.878 895.413)"><path data-name="패스 13416" d="M3.51 1.228a269.49 269.49 0 0 1 .5 20.858 269.85 269.85 0 0 1-2.037 29.508" fill="none" stroke="#7c6454" stroke-linecap="round" stroke-linejoin="round" stroke-width="3.37"/></g></g><g data-name="그룹 4799" style="mix-blend-mode:darken;isolation:isolate"><g data-name="그룹 4798" clip-path="url(#aH)" transform="translate(653.828 985.81)"><path data-name="패스 13417" d="M.952 51.26Q1.466 26.325 1.97 1.399" fill="none" stroke="#7c6454" stroke-linecap="round" stroke-linejoin="round" stroke-width="3.37"/></g></g><g data-name="그룹 4801" style="mix-blend-mode:darken;isolation:isolate"><g data-name="그룹 4800" clip-path="url(#aI)" transform="translate(314.066 815.482)"><path data-name="패스 13418" d="M1.266 1.779c2.217 8.25 8.537 26.739 25.953 38.167 11.954 7.831 24.392 9.24 37.155 10.686a130.045 130.045 0 0 0 33.082-.514" fill="none" stroke="#7c6454" stroke-linecap="round" stroke-linejoin="round" stroke-width="3.37"/></g></g></g></g></g></svg>