<svg xmlns="http://www.w3.org/2000/svg" width="967.99" height="464.062"><defs><clipPath id="v"><path data-name="사각형 4184" fill="none" d="M0 0h14.961v119.422H0z"/></clipPath><clipPath id="a"><path data-name="패스 13798" d="M43.818.99h880.344a42.843 42.843 0 0 1 42.828 42.828v419.244H.99V43.818A42.855 42.855 0 0 1 43.818.99z" transform="translate(-.99 -.99)" fill="none"/></clipPath><clipPath id="c"><path data-name="사각형 4165" fill="none" d="M0 0h68.971v136.087H0z"/></clipPath><clipPath id="d"><path data-name="사각형 4166" fill="none" d="M0 0h32.53v106.212H0z"/></clipPath><clipPath id="e"><path data-name="사각형 4167" fill="none" d="M0 0h264.17v113.474H0z"/></clipPath><clipPath id="f"><path data-name="사각형 4168" fill="none" d="M0 0h254.415v135.24H0z"/></clipPath><clipPath id="g"><path data-name="사각형 4169" fill="none" d="M0 0h28.152v180.885H0z"/></clipPath><clipPath id="h"><path data-name="사각형 4170" fill="none" d="M0 0h194.095v31.588H0z"/></clipPath><clipPath id="i"><path data-name="사각형 4171" fill="none" d="M0 0h52.231v18.226H0z"/></clipPath><clipPath id="j"><path data-name="사각형 4172" fill="none" d="M0 0h58.541v19.663H0z"/></clipPath><clipPath id="k"><path data-name="사각형 4173" fill="none" d="M0 0h44.474v7.757H0z"/></clipPath><clipPath id="l"><path data-name="사각형 4174" fill="none" d="M0 0h47.624v8.137H0z"/></clipPath><clipPath id="m"><path data-name="사각형 4175" fill="none" d="M0 0h41.866v8.499H0z"/></clipPath><clipPath id="n"><path data-name="사각형 4176" fill="none" d="M0 0h16.807v41.885H0z"/></clipPath><clipPath id="o"><path data-name="사각형 4177" fill="none" d="M0 0h9.746v27.229H0z"/></clipPath><clipPath id="p"><path data-name="사각형 4178" fill="none" d="M0 0h39.877v12.848H0z"/></clipPath><clipPath id="q"><path data-name="사각형 4179" fill="none" d="M0 0h74.339v76.519H0z"/></clipPath><clipPath id="r"><path data-name="사각형 4180" fill="none" d="M0 0h71.513v68.486H0z"/></clipPath><clipPath id="s"><path data-name="사각형 4181" fill="none" d="M0 0h70.599v67.896H0z"/></clipPath><clipPath id="t"><path data-name="사각형 4182" fill="none" d="M0 0h124.619v147.451H0z"/></clipPath><clipPath id="u"><path data-name="사각형 4183" fill="none" d="M0 0h71.75v62.557H0z"/></clipPath><clipPath id="b"><path data-name="사각형 4164" fill="none" d="M0 0h26.249v211.901H0z"/></clipPath><clipPath id="w"><path data-name="사각형 4185" fill="none" d="M0 0h49.052v11.278H0z"/></clipPath><clipPath id="x"><path data-name="사각형 4186" fill="none" d="M0 0h73.473v18.368H0z"/></clipPath><clipPath id="y"><path data-name="사각형 4187" fill="none" d="M0 0h259.773v306.255H0z"/></clipPath><clipPath id="z"><path data-name="사각형 4188" fill="none" d="M0 0h44.75v33.501H0z"/></clipPath><clipPath id="A"><path data-name="사각형 4189" fill="none" d="M0 0h78.279v111.38H0z"/></clipPath><clipPath id="B"><path data-name="사각형 4190" fill="none" d="M0 0h65.345v34.662H0z"/></clipPath><clipPath id="C"><path data-name="사각형 4191" fill="none" d="M0 0h16.903v50.004H0z"/></clipPath><clipPath id="D"><path data-name="사각형 4192" fill="none" d="M0 0h45.53v151.058H0z"/></clipPath><clipPath id="E"><path data-name="사각형 4193" fill="none" d="M0 0h224.436v91.499H0z"/></clipPath><clipPath id="F"><path data-name="사각형 4194" fill="none" d="M0 0h130.205v71.598H0z"/></clipPath><clipPath id="G"><path data-name="사각형 4195" fill="none" d="M0 0h10.44v87.149H0z"/></clipPath><clipPath id="H"><path data-name="사각형 4196" fill="none" d="M0 0h19.51v103.3H0z"/></clipPath><clipPath id="I"><path data-name="사각형 4197" fill="none" d="M0 0h27.6v112.189H0z"/></clipPath><clipPath id="J"><path data-name="사각형 4198" fill="none" d="M0 0h15.142v45.968H0z"/></clipPath><clipPath id="K"><path data-name="사각형 4199" fill="none" d="M0 0h12.239v37.079H0z"/></clipPath><clipPath id="L"><path data-name="사각형 4200" fill="none" d="M0 0h96.029v25.392H0z"/></clipPath><clipPath id="M"><path data-name="사각형 4201" fill="none" d="M0 0h51.622v35.471H0z"/></clipPath><clipPath id="N"><path data-name="사각형 4202" fill="none" d="M0 0h108.963v23.831H0z"/></clipPath><clipPath id="O"><path data-name="사각형 4203" fill="none" d="M0 0h125.114v28.323H0z"/></clipPath><clipPath id="P"><path data-name="사각형 4204" fill="none" d="M0 0h109.772v25.068H0z"/></clipPath></defs><g data-name="그룹 5206"><path data-name="패스 13714" d="M43.823.995h880.344a42.843 42.843 0 0 1 42.828 42.828v419.244h-966V43.823A42.855 42.855 0 0 1 43.823.995z" fill="#f7f7f7" stroke="#6d6d6d" stroke-miterlimit="10" stroke-width="1.99"/><g data-name="그룹 5205" clip-path="url(#a)" transform="translate(.995 .995)"><g data-name="그룹 5204"><path data-name="패스 13715" d="M582.893 394.556c-4.321 0-7.985-2.627-9-3.436-5.558-4.378-6.434-11.544-6.776-14.238-3.693-29.96-.952-44-.838-44.579 3.3-16.236 5.825-30.008 7.852-41.076 6.129-33.434 8.423-45.949 17.131-46.949a8.832 8.832 0 0 1 1.009-.057 13.941 13.941 0 0 1 8.9 3.731c6.139 5.72 4.625 16.179 4.054 20.119-2.218 15.313-5.825 26.525-9 36.422-3.636 11.3-6.776 21.062-6.767 33.662 0 17.873 0 26.848 2.189 33.244a24.986 24.986 0 0 1 1.256 9.374c-.171 2.779-.628 10.164-5.977 12.848a8.909 8.909 0 0 1-4.026.923" fill="#d49871"/><path data-name="패스 13716" d="M592.267 246.202a12 12 0 0 1 7.547 3.207c5.234 4.873 4.083 13.981 3.445 18.378-4.73 32.682-15.8 46.292-15.8 70.361 0 18.121 0 27.181 2.294 33.891a22.689 22.689 0 0 1 1.152 8.613c-.162 2.627-.552 9.022-4.882 11.2a6.864 6.864 0 0 1-3.141.714 13.534 13.534 0 0 1-7.776-3.007c-4.8-3.788-5.672-9.993-6.034-12.924-3.693-29.989-.866-43.941-.866-43.941 12.553-61.786 13.419-85.313 23.26-86.445a7.017 7.017 0 0 1 .78-.048m.019-3.969a10.535 10.535 0 0 0-1.237.076c-6.71.771-9.631 7.49-11.6 13.952-2.284 7.509-4.368 18.873-7.252 34.6-2.027 11.059-4.549 24.821-7.842 41.038-.124.6-2.922 14.942.809 45.216.362 2.912 1.313 10.669 7.509 15.551 1.152.9 5.282 3.864 10.241 3.864a10.841 10.841 0 0 0 4.92-1.133c6.367-3.207 6.871-11.411 7.062-14.5a26.925 26.925 0 0 0-1.342-10.126c-2.084-6.11-2.084-14.971-2.094-32.625 0-12.3 3.093-21.918 6.672-33.053 3.207-9.965 6.843-21.262 9.079-36.746.609-4.216 2.237-15.427-4.673-21.852a15.778 15.778 0 0 0-10.25-4.273"/><path data-name="패스 13717" d="M426.287 394.233c-4.121 0-7.224-1.19-8.975-3.455-1.675-2.151-1.742-4.682-1.561-7.109.495-6.786 2.931-11.621 4.892-15.5.476-.942.923-1.827 1.313-2.684 2.417-5.349 2.417-10.488 2.408-20.719 0-6.205-.895-11.64-4.549-27.7-1.056-4.663-2.217-9.222-3.341-13.629-2.779-10.916-5.644-22.194-7.6-37.108l-.124-.952c-.742-5.482-1.751-12.982 2.884-18.4a16.954 16.954 0 0 1 12.175-5.591c.219 0 .438 0 .647.019 4.2.247 8.366 3.055 12.382 8.356 14.609 19.253 24.345 67.039 15.58 107.5-2.731 12.582-9.175 34.053-21.652 36.565a23.718 23.718 0 0 1-4.473.428z" fill="#d49871"/><path data-name="패스 13718" d="M423.81 243.368a4.722 4.722 0 0 1 .523.019c17.978 1.066 37.279 62.071 26.134 113.445-1.056 4.873-7.033 32.416-20.1 35.033a22 22 0 0 1-4.073.39c-2.579 0-5.72-.514-7.414-2.684-1.228-1.58-1.313-3.55-1.152-5.739.59-8.023 4.083-13.2 6.034-17.521 2.589-5.739 2.589-11 2.589-21.538 0-6.586-1.028-12.458-4.6-28.142-3.655-16.075-8.166-29.665-10.916-50.546-.7-5.33-2.018-12.772 2.294-17.807a15.084 15.084 0 0 1 10.678-4.9m0-3.988a19.073 19.073 0 0 0-13.7 6.281c-5.225 6.091-4.092 14.438-3.35 19.958l.124.952c1.98 15.028 4.863 26.363 7.652 37.336 1.123 4.4 2.275 8.937 3.331 13.581 3.617 15.894 4.492 21.242 4.492 27.267 0 10.269 0 14.952-2.227 19.9-.362.8-.809 1.675-1.275 2.608-2.037 4.045-4.578 9.079-5.1 16.255-.2 2.684-.114 5.777 1.97 8.47 1.494 1.922 4.54 4.226 10.545 4.226a26.633 26.633 0 0 0 4.863-.466c12.905-2.6 19.739-22.147 23.2-38.088 8.889-40.991-1.066-89.51-15.932-109.115-4.378-5.777-9.041-8.851-13.848-9.137-.247-.019-.495-.019-.761-.019"/><path data-name="패스 13719" d="M791.663 719.847c-4.54-19.577-4.359-34.024-4.6-43.085-1.161-43.713-14.438-46.568-33.891-131.538-6.871-30.017-8.232-42.866-19.529-60.891a136.158 136.158 0 0 0-71.227-55.714c-15.418-5.948-26.639-9.888-34.3-12.458-16.1-5.406-18.882-5.587-23.717-8.794a20.577 20.577 0 0 0-8.042-3.445 20.964 20.964 0 0 0-10.583.971 135.209 135.209 0 0 0-3.2 5.929c-12.458 24.535-11.977 42.009-18.373 78.115-3.226 18.168-6.462 31.35-10.336 47.1-7.471 30.341-11.2 45.521-16.084 56.866-14.476 33.656-51.765 72.724-102.244 78.12-29.056 3.112-53.287-5.92-68.315-13.657l-3.483-20.234a31.337 31.337 0 0 0-2.294 15.513c1.075 8.851 5.872 12.477 8.975 22.48a50.36 50.36 0 0 1 2.027 18.682 57.387 57.387 0 0 0-.666 15.123c.438 5 1.123 5.139 1.152 8.613.076 8.851-4.283 10.088-4.6 18.378-.257 7 2.741 9.07.571 13.21-1.865 3.578-4.854 3.483-5.748 6.89-.933 3.578 2.084 4.7 2.294 9.765.181 4.311-1.97 4.654-3.445 12.058-1.047 5.254 0 5.263-1.152 8.613-1.9 5.577-4.9 5.891-5.748 10.336-.876 4.663 2.1 6.053 1.152 9.194-1.732 5.72-12.5 3.969-17.807 9.194-3.769 3.7-5.748 11.859 1.152 31.017q161.988-3.155 323.967-6.319 98.219 13.218 196.447 26.419a116.651 116.651 0 0 0-70.647-32.168 31.988 31.988 0 0 0-8.042-13.781 32.69 32.69 0 0 0-18.958-9.194q22.97-23.555 45.949-47.1a180.467 180.467 0 0 1-16.655-44.227" fill="#d49871"/><path data-name="패스 13720" d="M791.663 719.847c-4.54-19.577-4.359-34.024-4.6-43.085-1.161-43.713-14.438-46.568-33.891-131.538-6.871-30.017-8.232-42.866-19.529-60.891a136.158 136.158 0 0 0-71.227-55.714c-15.418-5.948-26.639-9.888-34.3-12.458-16.1-5.406-18.882-5.587-23.717-8.794a20.577 20.577 0 0 0-8.042-3.445 20.964 20.964 0 0 0-10.583.971 135.209 135.209 0 0 0-3.2 5.929c-12.458 24.535-11.977 42.009-18.373 78.115-3.226 18.168-6.462 31.35-10.336 47.1-7.471 30.341-11.2 45.521-16.084 56.866-14.476 33.656-51.765 72.724-102.244 78.12-29.056 3.112-53.287-5.92-68.315-13.657l-3.483-20.234a31.337 31.337 0 0 0-2.294 15.513c1.075 8.851 5.872 12.477 8.975 22.48a50.36 50.36 0 0 1 2.027 18.682 57.387 57.387 0 0 0-.666 15.123c.438 5 1.123 5.139 1.152 8.613.076 8.851-4.283 10.088-4.6 18.378-.257 7 2.741 9.07.571 13.21-1.865 3.578-4.854 3.483-5.748 6.89-.933 3.578 2.084 4.7 2.294 9.765.181 4.311-1.97 4.654-3.445 12.058-1.047 5.254 0 5.263-1.152 8.613-1.9 5.577-4.9 5.891-5.748 10.336-.876 4.663 2.1 6.053 1.152 9.194-1.732 5.72-12.5 3.969-17.807 9.194-3.769 3.7-5.748 11.859 1.152 31.017q161.988-3.155 323.967-6.319 98.219 13.218 196.447 26.419a116.651 116.651 0 0 0-70.647-32.168 31.988 31.988 0 0 0-8.042-13.781 32.69 32.69 0 0 0-18.958-9.194q22.97-23.555 45.949-47.1a180.467 180.467 0 0 1-16.655-44.227z" fill="none" stroke="#000" stroke-linecap="round" stroke-linejoin="round" stroke-width="4.17"/><path data-name="패스 13721" d="M439.972 365.92a58.887 58.887 0 0 1-6.056 14.13 52.23 52.23 0 0 1-10.183 12 20.791 20.791 0 0 0 6.643-.19c13.077-2.627 19.044-30.16 20.1-35.043a146.816 146.816 0 0 0 3.007-22.451q-4.54 4.668-9.06 9.346a102.981 102.981 0 0 1-4.445 22.2" fill="#774e36"/><g data-name="그룹 5163" transform="translate(662.286 520.841)" clip-path="url(#b)"><path data-name="패스 13722" d="M24.269 1.98A153.792 153.792 0 0 0 5.891 45.636c-6.186 25.087-3.778 43.6-1.152 75.243 1.7 20.538 3.864 50.927 5.168 89.034" fill="none" stroke="#774e36" stroke-linecap="round" stroke-linejoin="round" stroke-width="4.17"/></g><path data-name="패스 13723" d="M557.882 159.224c-25.03-27.124-77.014-26.134-101.092 1.152-11.7 13.248-13.876 29.37-14.362 37.336q65.483.857 130.967 1.723c-.428-8.756-2.665-26.287-15.513-40.21" fill="#d49871"/><path data-name="패스 13724" d="M557.882 159.224c-25.03-27.124-77.014-26.134-101.092 1.152-11.7 13.248-13.876 29.37-14.362 37.336q65.483.857 130.967 1.723c-.427-8.757-2.665-26.287-15.513-40.211z" fill="none" stroke="#000" stroke-linecap="round" stroke-linejoin="round" stroke-width="4.17"/><g data-name="그룹 5164" transform="translate(674.135 538.067)" clip-path="url(#c)"><path data-name="패스 13725" d="M66.979 1.989C49.439 8.508 20.097 22.86 9.542 50.812c-3.864 10.222-4.9 21.452-6.32 36.765a289.917 289.917 0 0 0-.571 46.53" fill="none" stroke="#774e36" stroke-linecap="round" stroke-linejoin="round" stroke-width="4.17"/></g><g data-name="그룹 5165" transform="translate(679.55 620.21)" clip-path="url(#d)"><path data-name="패스 13726" d="M30.55 1.98a53.933 53.933 0 0 0-13.781 11.487C5.069 27.181 3.711 43.351 2.407 61.719a172.888 172.888 0 0 0 2.294 42.5" fill="none" stroke="#774e36" stroke-linecap="round" stroke-linejoin="round" stroke-width="4.17"/></g><path data-name="패스 13727" d="M340.764 768.09c2.113-19.13 5.006-45.093 8.527-75.967 5.006-43.979 8.689-75.243 11-75.1.752.048.914 3.379 2.294 13.21a463.451 463.451 0 0 0 4.635 27.124c15.028 7.738 39.259 16.76 68.315 13.657 50.479-5.4 87.759-44.465 102.244-78.117 4.882-11.354 8.613-26.525 16.084-56.866 3.874-15.751 7.119-28.932 10.336-47.1 6.4-36.108 5.92-53.582 18.378-78.118 1.095-2.151 2.17-4.13 3.2-5.929-.371-.076-.752-.152-1.133-.228.076-.057.162-.114.228-.162a26.887 26.887 0 0 1-17.236-8.042c-9.479-10.031-6.576-23.565-6.319-24.7a151.24 151.24 0 0 0-112.579-4.026c.562 1.656 4.13 12.744-2.294 23.555a28.436 28.436 0 0 1-14.933 12.068c.076.057.162.114.238.171a391.234 391.234 0 0 0-67.487 19.539c-17.255 5.3-41.143 15.523-61.415 36.575-28.371 29.456-35.614 65.545-42.5 135.564-4.911 49.937-9.289 112.294-9.765 186.681" fill="#d49871"/><path data-name="패스 13728" d="M340.764 768.09c2.113-19.13 5.006-45.093 8.527-75.967 5.006-43.979 8.689-75.243 11-75.1.752.048.914 3.379 2.294 13.21a463.451 463.451 0 0 0 4.635 27.124c15.028 7.738 39.259 16.76 68.315 13.657 50.479-5.4 87.759-44.465 102.244-78.117 4.882-11.354 8.613-26.525 16.084-56.866 3.874-15.751 7.119-28.932 10.336-47.1 6.4-36.108 5.92-53.582 18.378-78.118 1.095-2.151 2.17-4.13 3.2-5.929-.371-.076-.752-.152-1.133-.228.076-.057.162-.114.228-.162a26.887 26.887 0 0 1-17.236-8.042c-9.479-10.031-6.576-23.565-6.319-24.7a151.24 151.24 0 0 0-112.579-4.026c.562 1.656 4.13 12.744-2.294 23.555a28.436 28.436 0 0 1-14.933 12.068c.076.057.162.114.238.171a391.234 391.234 0 0 0-67.487 19.539c-17.255 5.3-41.143 15.523-61.415 36.575-28.371 29.456-35.614 65.545-42.5 135.564-4.911 49.937-9.289 112.294-9.765 186.681" fill="none" stroke="#000" stroke-linecap="round" stroke-linejoin="round" stroke-width="4.17"/><g data-name="그룹 5166" transform="translate(362.331 697.757)" clip-path="url(#e)"><path data-name="패스 13729" d="M1.98 105.375c64.784 11.525 114.007 4.426 143.025-2.294 29.5-6.833 43.913-14.619 51.117-18.958C236.58 59.797 254.748 21.3 262.181 1.98" fill="none" stroke="#774e36" stroke-linecap="round" stroke-linejoin="round" stroke-width="4.17"/></g><g data-name="그룹 5167" transform="translate(362.892 635.714)" clip-path="url(#f)"><path data-name="패스 13730" d="M1.989 126.636c30.807 6.757 74.587 11.164 123.5-1.152 26.03-6.548 56.742-14.285 84.437-41.352 30.75-30.055 39.62-66.2 42.5-82.143" fill="none" stroke="#774e36" stroke-linecap="round" stroke-linejoin="round" stroke-width="4.17"/></g><path data-name="패스 13731" d="M569.083 362.855c-16.417 21.614-47.034 32.482-75.243 28.142-4.4-.676-31.264-5.215-49.975-28.142-7.328-8.984-8.927-7.842-19.815-70.361-8.537-49.033-7.433-61.215-2.294-73.521a76.524 76.524 0 0 1 20.681-28.142c34.367-30.1 97.9-32.673 131.538 0a76.748 76.748 0 0 1 17.236 25.849c7.167 17.769 4.978 31.959-6.89 90.176-10.25 50.261-9.222 48.11-15.218 56.009" fill="#d49871"/><path data-name="패스 13732" d="M569.083 362.855c-16.417 21.614-47.034 32.482-75.243 28.142-4.4-.676-31.264-5.215-49.975-28.142-7.328-8.984-8.927-7.842-19.815-70.361-8.537-49.033-7.433-61.215-2.294-73.521a76.524 76.524 0 0 1 20.681-28.142c34.367-30.1 97.9-32.673 131.538 0a76.748 76.748 0 0 1 17.236 25.849c7.167 17.769 4.978 31.959-6.89 90.176-10.25 50.261-9.222 48.11-15.218 56.009z" fill="none" stroke="#000" stroke-linecap="round" stroke-linejoin="round" stroke-width="4.17"/><g data-name="그룹 5168" transform="translate(629.366 558.177)" clip-path="url(#g)"><path data-name="패스 13733" d="M26.163 1.98a331.378 331.378 0 0 1-6.319 51.7C13.772 83.621 7.186 94.909 3.76 119.159a193.31 193.31 0 0 0 1.152 59.74" fill="none" stroke="#774e36" stroke-linecap="round" stroke-linejoin="round" stroke-width="4.17"/></g><path data-name="패스 13734" d="M462.538 914.569c83.314-40.877 153.713-56.818 198.168-63.756 31.416-4.911 61.919-4.416 122.925-3.445 30.265.485 54.819 1.884 76.395 18.958 5.177 4.092 19.691 16.608 26.42 36.765 10.812 32.349-2.76 71.351-33.32 99.95a1551.365 1551.365 0 0 1-192.432-1.151 1549.959 1549.959 0 0 1-201.042-27q1.442-30.151 2.874-60.311" fill="#d49871"/><path data-name="패스 13735" d="M462.538 914.569c83.314-40.877 153.713-56.818 198.168-63.756 31.416-4.911 61.919-4.416 122.925-3.445 30.265.485 54.819 1.884 76.395 18.958 5.177 4.092 19.691 16.608 26.42 36.765 10.812 32.349-2.76 71.351-33.32 99.95a1551.365 1551.365 0 0 1-192.432-1.151 1549.959 1549.959 0 0 1-201.042-27q1.442-30.151 2.874-60.311z" fill="none" stroke="#000" stroke-linecap="round" stroke-linejoin="round" stroke-width="4.17"/><path data-name="패스 13736" d="M716.468 723.711c-9.936.923-17.854 1.913-24.212 2.893-5.444.838-9.736 1.666-13.172 2.436-37.679 8.461-31.921 7.281-38.84 7.471-2.589.067-8.156.038-13.429 3.445-3.312 2.141-3.274 3.55-5.748 4.6-5.644 2.389-11.24-2.665-18.378-5.168-5.063-1.77-12.829-2.941-24.126.571a29.66 29.66 0 0 0-9.194 6.89c-10.45 11.535-18.682 53.734-1.723 77.546 41.019 57.589 206.039-5.282 226.891-29.875a72.041 72.041 0 0 0 11.487-20.681c2.379-6.576 6.6-18.273 1.152-25.849-2.141-2.979-4.216-1.922-6.32-5.168-3.226-5-.238-9.336-2.874-15.5a17.711 17.711 0 0 0-6.319-7.471" fill="#d49871"/><path data-name="패스 13737" d="M716.468 723.711c-9.936.923-17.854 1.913-24.212 2.893-5.444.838-9.736 1.666-13.172 2.436-37.679 8.461-31.921 7.281-38.84 7.471-2.589.067-8.156.038-13.429 3.445-3.312 2.141-3.274 3.55-5.748 4.6-5.644 2.389-11.24-2.665-18.378-5.168-5.063-1.77-12.829-2.941-24.126.571a29.66 29.66 0 0 0-9.194 6.89c-10.45 11.535-18.682 53.734-1.723 77.546 41.019 57.589 206.039-5.282 226.891-29.875a72.041 72.041 0 0 0 11.487-20.681c2.379-6.576 6.6-18.273 1.152-25.849-2.141-2.979-4.216-1.922-6.32-5.168-3.226-5-.238-9.336-2.874-15.5a17.711 17.711 0 0 0-6.319-7.471" fill="none" stroke="#000" stroke-linecap="round" stroke-linejoin="round" stroke-width="4.17"/><g data-name="그룹 5169" transform="translate(362.331 759.79)" clip-path="url(#h)"><path data-name="패스 13738" d="M1.98 19.787a268.005 268.005 0 0 0 76.395 9.765A270.883 270.883 0 0 0 192.106 1.98" fill="none" stroke="#774e36" stroke-linecap="round" stroke-linejoin="round" stroke-width="4.17"/></g><path data-name="패스 13739" d="M250.579 781.88a86.5 86.5 0 0 0 4.026 15.513c3.036 8.956 13.771 40.325 41.933 50.546 3.15 1.142 26.915 9.774 42.5-3.445 14.676-12.449 11.63-35.366 10.916-40.781a58.9 58.9 0 0 0-8.613-23.546v-15.513" fill="#d49871"/><path data-name="패스 13740" d="M250.579 781.88a86.5 86.5 0 0 0 4.026 15.513c3.036 8.956 13.771 40.325 41.933 50.546 3.15 1.142 26.915 9.774 42.5-3.445 14.676-12.449 11.63-35.366 10.916-40.781a58.9 58.9 0 0 0-8.613-23.546v-15.513" fill="none" stroke="#000" stroke-linecap="round" stroke-linejoin="round" stroke-width="4.17"/><path data-name="패스 13741" d="M505.046 173.586c-5.016-.181-10.907 2.446-10.916 5.168 0 2.579 5.234 5.158 9.765 5.168 4.977.019 10.5-3.065 10.336-5.748-.152-2.5-5.234-4.454-9.194-4.6" fill="#774e36"/><path data-name="패스 13742" d="M509.02 240.339c-5.653-.495-9.232 4.226-9.689 4.844-3.026 4.13-3.321 10.326 0 14.533.523.666 3.226 3.921 7.271 4.035 6.7.19 13.591-8.337 11.659-15.5a10.934 10.934 0 0 0-9.232-7.918" fill="#774e36"/><g data-name="그룹 5170" transform="translate(445.607 251.551)" clip-path="url(#i)"><path data-name="패스 13743" d="M1.989 4.178a76.555 76.555 0 0 1 13.5-2.008 63.29 63.29 0 0 1 12.353.285c10.4 1.627 18.111 8.813 22.4 13.781" fill="none" stroke="#774e36" stroke-linecap="round" stroke-linejoin="round" stroke-width="4.17"/></g><g data-name="그룹 5171" transform="translate(515.111 249.543)" clip-path="url(#j)"><path data-name="패스 13744" d="M56.561 9.061a30.1 30.1 0 0 0-10.336-5.748 31.4 31.4 0 0 0-12.639-1.152 42.579 42.579 0 0 0-15.218 4.311 56.1 56.1 0 0 0-8.042 4.6 66.6 66.6 0 0 0-8.328 6.6" fill="none" stroke="#774e36" stroke-linecap="round" stroke-linejoin="round" stroke-width="4.17"/></g><g data-name="그룹 5172" transform="translate(447.624 274.107)" clip-path="url(#k)"><path data-name="패스 13745" d="M1.989 2.009c2.179-.029 5.349-.048 9.194 0a65.621 65.621 0 0 1 7.757.285c5.72 1 6.024 3.179 10.916 3.445 2.16.114 2.455-.286 6.6-.286 2.57 0 4.663.152 6.034.286" fill="none" stroke="#774e36" stroke-linecap="round" stroke-linejoin="round" stroke-width="4.17"/></g><g data-name="그룹 5173" transform="translate(520.86 274.059)" clip-path="url(#l)"><path data-name="패스 13746" d="M1.989 5.215a87.479 87.479 0 0 0 10.05.866 57.03 57.03 0 0 0 9.479-.285c6.557-.847 7.88-2.589 13.781-3.445a36.628 36.628 0 0 1 10.336 0" fill="none" stroke="#774e36" stroke-linecap="round" stroke-linejoin="round" stroke-width="4.17"/></g><g data-name="그룹 5174" transform="translate(485.294 316.125)" clip-path="url(#m)"><path data-name="패스 13747" d="M1.98 1.989a12.786 12.786 0 0 0 7.138 3.95c5.054.752 7.033-2.827 12.639-2.294 4.387.419 5.073 2.8 9.194 2.874a14.127 14.127 0 0 0 8.937-3.512" fill="none" stroke="#774e36" stroke-linecap="round" stroke-linejoin="round" stroke-width="4.17"/></g><g data-name="그룹 5175" transform="translate(483.904 305.437)" clip-path="url(#n)"><path data-name="패스 13748" d="M14.819 1.989a15.107 15.107 0 0 0-9.194 4.6c-2.2 2.5-3.026 5.53-3.445 12.639a122.325 122.325 0 0 0 .571 20.681" fill="none" stroke="#774e36" stroke-linecap="round" stroke-linejoin="round" stroke-width="4.17"/></g><g data-name="그룹 5176" transform="translate(519.137 305.437)" clip-path="url(#o)"><path data-name="패스 13749" d="M1.989 1.989A33.039 33.039 0 0 1 6.3 10.897a33.421 33.421 0 0 1 1.152 14.362" fill="none" stroke="#774e36" stroke-linecap="round" stroke-linejoin="round" stroke-width="4.17"/></g><g data-name="그룹 5177" transform="translate(489.262 337.606)" clip-path="url(#p)"><path data-name="패스 13750" d="M1.989 1.98c2.969 5.977 6.205 7.937 8.613 8.613 2.313.647 3.036-.1 9.479-.285 6.643-.19 7.576.571 10.05-.285 2.237-.771 5.158-2.665 7.757-7.757" fill="none" stroke="#774e36" stroke-linecap="round" stroke-linejoin="round" stroke-width="4.17"/></g><path data-name="패스 13751" d="M430.655 302.534c.59-16.646.952-28.571 1.152-35.042.523-17.635.695-26.039 6.89-32.739 4.169-4.5 10.8-6.643 12.353-7.176a38.573 38.573 0 0 1 14.076-2.008c20.671.485 41.362-.552 62.033 0 23.279.619 29.932.343 38.773 5.453 3.16 1.827 10.269 6.062 14.362 14.362 3.084 6.243 2.722 11.287 2.589 23.26-.086 7.1-.1 17.616.286 30.731" fill="none" stroke="#000" stroke-linecap="round" stroke-linejoin="round" stroke-width="4.17"/><g data-name="그룹 5178" transform="translate(590.069 738.367)" clip-path="url(#q)"><path data-name="패스 13752" d="M1.98 1.989a41.121 41.121 0 0 1 14.086 8.784c15.418 14.914 9.06 34.224 20.681 48.823 4.977 6.253 14.666 13.419 35.614 14.933" fill="none" stroke="#774e36" stroke-linecap="round" stroke-linejoin="round" stroke-width="4.17"/></g><path data-name="패스 13753" d="M585.453 826.107c-10.526-.01-22.594-26.686-17.807-48.823 1.561-7.2 6.453-21.081 14.362-21.823 9.241-.876 19.882 16.455 21.252 32.168 1.57 17.969-8.565 38.5-17.807 38.488" fill="#774e36"/><path data-name="패스 13754" d="M585.453 826.107c-10.526-.01-22.594-26.686-17.807-48.823 1.561-7.2 6.453-21.081 14.362-21.823 9.241-.876 19.882 16.455 21.252 32.168 1.57 17.969-8.565 38.5-17.807 38.488z" fill="none" stroke="#774e36" stroke-linecap="round" stroke-linejoin="round" stroke-width="4.17"/><path data-name="패스 13755" d="M290.209 786.477c-1.608.562-14.714 5.377-19.529 19.529-4.349 12.782 1.342 23.536 2.294 25.278" fill="none" stroke="#000" stroke-linecap="round" stroke-linejoin="round" stroke-width="4.17"/><path data-name="패스 13756" d="M294.692 791.064c-9.4 7.966-13.971 19.92-11.487 31.017 3.407 15.228 19.339 25.535 32.168 23.555.742-.114 11.049-1.846 14.362-9.194 2.57-5.71-3.569-11.687 0-17.807 1.161-2 2.094-1.97 3.445-4.6a18.766 18.766 0 0 0 1.723-10.336c-.676-8.489-6.205-14.3-8.042-16.084l8.042-13.781a12.324 12.324 0 0 0-5.739-1.152c-4.606.257-5.882 3.236-8.613 2.874-4.207-.562-3.588-7.947-9.194-10.916-4.587-2.427-11.573-.942-13.21 2.294-1.294 2.56 1.247 5.215 0 10.916-.238 1.075-.133 2.541-1.152 3.445-1.351 1.19-3.084.314-4.026 1.152-.847.752-.99 2.874 1.723 8.613" fill="#774e36"/><path data-name="패스 13757" d="M294.692 791.064c-9.4 7.966-13.971 19.92-11.487 31.017 3.407 15.228 19.339 25.535 32.168 23.555.742-.114 11.049-1.846 14.362-9.194 2.57-5.71-3.569-11.687 0-17.807 1.161-2 2.094-1.97 3.445-4.6a18.766 18.766 0 0 0 1.723-10.336c-.676-8.489-6.205-14.3-8.042-16.084l8.042-13.781a12.324 12.324 0 0 0-5.739-1.152c-4.606.257-5.882 3.236-8.613 2.874-4.207-.562-3.588-7.947-9.194-10.916-4.587-2.427-11.573-.942-13.21 2.294-1.294 2.56 1.247 5.215 0 10.916-.238 1.075-.133 2.541-1.152 3.445-1.351 1.19-3.084.314-4.026 1.152-.847.752-.99 2.874 1.723 8.613z" fill="none" stroke="#774e36" stroke-linecap="round" stroke-linejoin="round" stroke-width="4.17"/><path data-name="패스 13758" d="M775.008 835.301c-8.309-7.471-19.71-7.909-26.42-7.471a178.5 178.5 0 0 0-25.28-8.038c-31.15-7.414-49.014-2.693-89.034-6.32a388.554 388.554 0 0 1-33.891-4.6c-1.875-.247-11.278-1.285-18.958 5.168a23.108 23.108 0 0 0-6.319 8.613q-43.085 2.013-86.16 4.016v105.688a7911.582 7911.582 0 0 1 69.5-39.63c44.112-24.869 53.1-29.389 67.2-33.891 27.21-8.68 50.832-9.841 71.227-10.916 43.323-2.275 64.984-3.407 70.646-2.294 2.646.514 11.64 2.417 13.21-.571 1.608-3.055-5.444-9.489-5.748-9.765" fill="#d49871"/><path data-name="패스 13759" d="M775.008 835.301c-8.309-7.471-19.71-7.909-26.42-7.471a178.5 178.5 0 0 0-25.28-8.038c-31.15-7.414-49.014-2.693-89.034-6.32a388.554 388.554 0 0 1-33.891-4.6c-1.875-.247-11.278-1.285-18.958 5.168a23.108 23.108 0 0 0-6.319 8.613q-43.085 2.013-86.16 4.016v105.688a7911.582 7911.582 0 0 1 69.5-39.63c44.112-24.869 53.1-29.389 67.2-33.891 27.21-8.68 50.832-9.841 71.227-10.916 43.323-2.275 64.984-3.407 70.646-2.294 2.646.514 11.64 2.417 13.21-.571 1.608-3.055-5.444-9.489-5.748-9.765z" fill="none" stroke="#000" stroke-linecap="round" stroke-linejoin="round" stroke-width="4.17"/><path data-name="패스 13760" d="M530.31 819.216c-3.8-4.54-11.135-3.778-23.546-2.294-32.406 3.854-69.162 8.994-84.437 10.916-5.063.638-9.584 1.2-15.865 1.8-4.768.457-22.08 2.018-49.061 2.37-10.6.143-34.681.247-41.343 6.748a11.3 11.3 0 0 1-4.6 2.874c-4.949 1.542-9.8-1.152-10.916-1.723-8.052-4.14-25.868-2.95-44.227-1.723-21.928 1.466-44.731 2.646-63.185 17.807-29.865 24.536-29.418 65.812-29.294 70.646.838 32.444 18.768 65.431 46.53 79.84 22.565 11.716 28.476-5.177 89.6-2.874 37.07 1.4 46.073 7.566 64.908-.571 17.7-7.652 24.926-19.663 43.085-18.958 11.621.457 16.589 5.682 28.723 2.874 10.107-2.341 12.962-9.574 22.4-9.194 7.29.3 9.3 4.349 14.933 3.445 8.033-1.285 12.763-10.926 14.933-15.513 19.092-40.258 30.664-90.328 38.488-120.622 2.027-7.842 8.128-19.577 2.874-25.849" fill="#d49871"/><path data-name="패스 13761" d="M530.31 819.216c-3.8-4.54-11.135-3.778-23.546-2.294-32.406 3.854-69.162 8.994-84.437 10.916-5.063.638-9.584 1.2-15.865 1.8-4.768.457-22.08 2.018-49.061 2.37-10.6.143-34.681.247-41.343 6.748a11.3 11.3 0 0 1-4.6 2.874c-4.949 1.542-9.8-1.152-10.916-1.723-8.052-4.14-25.868-2.95-44.227-1.723-21.928 1.466-44.731 2.646-63.185 17.807-29.865 24.536-29.418 65.812-29.294 70.646.838 32.444 18.768 65.431 46.53 79.84 22.565 11.716 28.476-5.177 89.6-2.874 37.07 1.4 46.073 7.566 64.908-.571 17.7-7.652 24.926-19.663 43.085-18.958 11.621.457 16.589 5.682 28.723 2.874 10.107-2.341 12.962-9.574 22.4-9.194 7.29.3 9.3 4.349 14.933 3.445 8.033-1.285 12.763-10.926 14.933-15.513 19.092-40.258 30.664-90.328 38.488-120.622 2.027-7.842 8.128-19.577 2.874-25.849z" fill="none" stroke="#000" stroke-linecap="round" stroke-linejoin="round" stroke-width="4.17"/><g data-name="그룹 5179" transform="translate(617.602 745.248)" clip-path="url(#r)"><path data-name="패스 13762" d="M1.98 1.989a379.188 379.188 0 0 1 14.124 19.13c14.428 20.919 17.2 29.513 27.571 36.765 5.073 3.54 13.191 7.623 25.849 8.613" fill="none" stroke="#774e36" stroke-linecap="round" stroke-linejoin="round" stroke-width="4.17"/></g><g data-name="그룹 5180" transform="translate(629.994 738.367)" clip-path="url(#s)"><path data-name="패스 13763" d="M1.98 1.989a535.525 535.525 0 0 1 20.11 24.3c11.126 14.276 14.6 20.253 22.975 27A74.3 74.3 0 0 0 68.62 65.928" fill="none" stroke="#774e36" stroke-linecap="round" stroke-linejoin="round" stroke-width="4.17"/></g><g data-name="그룹 5181" transform="translate(323.263 828.714)" clip-path="url(#t)"><path data-name="패스 13764" d="M1.989 87.578c1.6 4.292 16.76 42.885 58.017 54.572 26.3 7.442 61.691 1.1 62.614-6.319.162-1.323-.809-2.379-1.723-3.445-7.128-8.328-9.926-19.548-14.933-29.294-1.915-3.733-30.115-60.15-7.47-93.633a46 46 0 0 1 6.319-7.471" fill="none" stroke="#774e36" stroke-linecap="round" stroke-linejoin="round" stroke-width="4.17"/></g><g data-name="그룹 5182" transform="translate(299.136 940.723)" clip-path="url(#u)"><path data-name="패스 13765" d="M1.989 1.989a111.8 111.8 0 0 0 36.765 43.656 109.116 109.116 0 0 0 31.017 14.932" fill="none" stroke="#774e36" stroke-linecap="round" stroke-linejoin="round" stroke-width="4.17"/></g><g data-name="그룹 5183" transform="translate(443.827 833.311)" clip-path="url(#v)"><path data-name="패스 13766" d="M12.963 1.989a135.362 135.362 0 0 0-9.194 31.017C.99 49.395 1.961 62.195 3.198 77.233a277.052 277.052 0 0 0 6.319 40.21" fill="none" stroke="#774e36" stroke-linecap="round" stroke-linejoin="round" stroke-width="4.17"/></g><path data-name="패스 13767" d="M327.545 781.88a25.613 25.613 0 0 1 21.25 16.655" fill="#d49871"/><path data-name="패스 13768" d="M327.545 781.88a25.613 25.613 0 0 1 21.25 16.655" fill="none" stroke="#000" stroke-linecap="round" stroke-linejoin="round" stroke-width="4.17"/><g data-name="그룹 5184" transform="translate(483.238 331.724)" clip-path="url(#w)"><path data-name="패스 13769" d="m2.559 9.298-.571-3.445c35.09.333 45.083.1 45.093-.285 0-.219-3.245-.057-8.328-1.437-4.844-1.313-5.929-2.56-8.328-2.008-3.369.771-3.445 3.731-6.253 3.988-3.207.286-3.912-3.531-8.109-3.988-1.228-.133-1.675.143-7.757 2.008a378.57 378.57 0 0 1-5.748 1.723" fill="none" stroke="#774e36" stroke-linecap="round" stroke-linejoin="round" stroke-width="4.17"/></g><g data-name="그룹 5185" transform="translate(470.599 364.891)" clip-path="url(#x)"><path data-name="패스 13770" d="M1.989 3.132a51.669 51.669 0 0 0 32.168 13.21C55.209 17.151 69.019 4.36 71.493 1.98" fill="none" stroke="#774e36" stroke-linecap="round" stroke-linejoin="round" stroke-width="4.17"/></g><g data-name="그룹 5186" transform="translate(374.389 419.168)" clip-path="url(#y)"><path data-name="패스 13771" d="M1.989 290.333a136.057 136.057 0 0 0 45.378 13.21c70.456 7.442 119.66-45.169 123.5-49.395a142.852 142.852 0 0 0 19.525-27.569C243.118 131.045 250.598 1.744 255.3 1.991c1.618.086 3 15.589 2.294 79.269" fill="none" stroke="#774e36" stroke-linecap="round" stroke-linejoin="round" stroke-width="4.17"/></g><path data-name="패스 13772" d="M490.11 967.456c-5.872 1.732-8.337 13.067-14.6 13.857a14.957 14.957 0 0 1-3.226 0c-2.893-.362-4.483-1.57-6.462-2.427-2.36-1.018-4.245-1.075-7.871-1.19-10.84-.343-14.78 10.012-25.278 8.194-3.217-.562-5.825-1.942-9.765-.685-3.55 1.132-5.653 3.607-8.042 6.148a122.214 122.214 0 0 1-14.362 12.982 1346.158 1346.158 0 0 0 137.857 6.148c42.323-.286 82.248-2.57 119.479-6.148a200.446 200.446 0 0 0-12.639-15.713c-6.567-7.357-9.85-11.145-13.21-12.3-8.156-2.789-11.83 4.245-22.4 4.1-5.177-.076-9.965-2.779-19.529-8.194-18.425-10.431-24.317-18.987-30.446-15.713-4.73 2.532-5.263 9.8-10.336 10.241-3 .266-4.111-2.16-6.891-3.417-10.107-4.53-18.977 16.865-32.168 15.713-9.917-.866-13.41-13.591-20.1-11.611" fill="#d49871"/><path data-name="패스 13773" d="M490.11 967.456c-5.872 1.732-8.337 13.067-14.6 13.857a14.957 14.957 0 0 1-3.226 0c-2.893-.362-4.483-1.57-6.462-2.427-2.36-1.018-4.245-1.075-7.871-1.19-10.84-.343-14.78 10.012-25.278 8.194-3.217-.562-5.825-1.942-9.765-.685-3.55 1.132-5.653 3.607-8.042 6.148a122.214 122.214 0 0 1-14.362 12.982 1346.158 1346.158 0 0 0 137.857 6.148c42.323-.286 82.248-2.57 119.479-6.148a200.446 200.446 0 0 0-12.639-15.713c-6.567-7.357-9.85-11.145-13.21-12.3-8.156-2.789-11.83 4.245-22.4 4.1-5.177-.076-9.965-2.779-19.529-8.194-18.425-10.431-24.317-18.987-30.446-15.713-4.73 2.532-5.263 9.8-10.336 10.241-3 .266-4.111-2.16-6.891-3.417-10.107-4.53-18.977 16.865-32.168 15.713-9.917-.866-13.41-13.591-20.1-11.611z" fill="none" stroke="#000" stroke-linecap="round" stroke-linejoin="round" stroke-width="4.17"/><g data-name="그룹 5187" transform="translate(249.171 723.368)" clip-path="url(#z)"><path data-name="패스 13774" d="M42.761 2.217c-1.932-.238-20.71-2.237-32.739 11.487A34.669 34.669 0 0 0 1.98 31.511" fill="none" stroke="#774e36" stroke-linecap="round" stroke-linejoin="round" stroke-width="4.17"/></g><path data-name="패스 13775" d="M344.21 546.376a359.813 359.813 0 0 1 13.21 48.82 359.34 359.34 0 0 1 4.026 25.268" fill="#d49871"/><path data-name="패스 13776" d="M344.21 546.376a359.813 359.813 0 0 1 13.21 48.82 359.34 359.34 0 0 1 4.026 25.268" fill="none" stroke="#000" stroke-linecap="round" stroke-linejoin="round" stroke-width="4.17"/><g data-name="그룹 5188" transform="translate(690.761 609.447)" clip-path="url(#A)"><path data-name="패스 13777" d="M1.989 109.392a1609.174 1609.174 0 0 1 22.613-25.839c21.785-24.383 28.123-30.046 35.537-42A131.512 131.512 0 0 0 76.29 1.98" fill="none" stroke="#774e36" stroke-linecap="round" stroke-linejoin="round" stroke-width="4.17"/></g><g data-name="그룹 5189" transform="translate(685.108 606.211)" clip-path="url(#B)"><path data-name="패스 13778" d="M1.989 32.683a37.328 37.328 0 0 1 11.307-21c2.046-1.894 10.916-9.66 22.613-9.689 4.445-.01 6 1.1 14.533 1.618a108.152 108.152 0 0 0 12.924 0" fill="none" stroke="#774e36" stroke-linecap="round" stroke-linejoin="round" stroke-width="4.17"/></g><g data-name="그룹 5190" transform="translate(638.264 419.663)" clip-path="url(#C)"><path data-name="패스 13779" d="M1.989 1.98a83.432 83.432 0 0 0 1.618 17.769 84.625 84.625 0 0 0 11.307 28.266" fill="none" stroke="#774e36" stroke-linecap="round" stroke-linejoin="round" stroke-width="4.17"/></g><g data-name="그룹 5191" transform="translate(450.908 829.009)" clip-path="url(#D)"><path data-name="패스 13780" d="M43.751 1.894c-3.046 6.653-19.625 43.361-25.325 79.412-2.494 15.77-4.721 42.856-.723 51.66a7.44 7.44 0 0 1 .723 3.854c-.562 5.8-8.765 9.736-16.646 12.334" fill="none" stroke="#774e36" stroke-linecap="round" stroke-linejoin="round" stroke-width="3.86"/></g><g data-name="그룹 5192" transform="translate(368.536 657.09)" clip-path="url(#E)"><path data-name="패스 13781" d="M1.98 85.17a240.85 240.85 0 0 0 75.919 2.427c22.327-2.874 71.855-9.936 113.874-48.452a176.121 176.121 0 0 0 30.693-37.146" fill="none" stroke="#774e36" stroke-linecap="round" stroke-linejoin="round" stroke-width="4.17"/></g><g data-name="그룹 5193" transform="translate(656.851 726.623)" clip-path="url(#F)"><path data-name="패스 13782" d="M1.98 13.219a364.644 364.644 0 0 0 35.537 23.422C60.901 50.165 69.4 51.574 77.09 50.374c.666-.1 16.579-2.77 18.578-11.307 2.846-12.182-23.746-27.533-25.04-28.266-10.117-5.72-18.007-7.024-17.769-8.08.333-1.437 15.532-1.19 30.693 4.844 16.379 6.519 25.963 17.093 31.169 22.994a56.281 56.281 0 0 1 11.487 18.958c3.664 10.536 1.361 15.266.571 16.655a12.854 12.854 0 0 1-2.874 3.445" fill="none" stroke="#774e36" stroke-linecap="round" stroke-linejoin="round" stroke-width="4.17"/></g><path data-name="패스 13783" d="M297.832 754.376c-2.608-1.5-5.463-1.466-7.271 0-.876.7-2.056 2.189-1.618 3.226.857 2.037 7.347.933 8.08.809a21.713 21.713 0 0 0 8.08-3.226c-2.427-.266-4.844-.542-7.271-.809" fill="#774e36"/><path data-name="패스 13784" d="M297.832 754.376c-2.608-1.5-5.463-1.466-7.271 0-.876.7-2.056 2.189-1.618 3.226.857 2.037 7.347.933 8.08.809a21.713 21.713 0 0 0 8.08-3.226c-2.427-.266-4.844-.542-7.271-.809z" fill="none" stroke="#774e36" stroke-linecap="round" stroke-linejoin="round" stroke-width="4.17"/><path data-name="패스 13785" d="M595.028 277.085c-2.113 11.582-4.673 23.089-6.462 34.728-5.52 35.985-7.233 37.041-6.462 46.844a85.133 85.133 0 0 0 7.588 28.763 23.218 23.218 0 0 0 1.218-6.757 22.482 22.482 0 0 0-1.152-8.613c-2.294-6.71-2.294-15.77-2.294-33.891 0-24.069 11.069-37.688 15.8-70.361a34.309 34.309 0 0 0 .124-11.5 2.2 2.2 0 0 0-1.094-.2c-3.531.314-5.292 10.174-7.271 21" fill="#774e36"/><g data-name="그룹 5194" transform="translate(582.541 884.837)" clip-path="url(#G)"><path data-name="패스 13786" d="M1.989 1.98a156.594 156.594 0 0 1 1.618 83.181" fill="none" stroke="#774e36" stroke-linecap="round" stroke-linejoin="round" stroke-width="4.17"/></g><g data-name="그룹 5195" transform="translate(599.51 878.375)" clip-path="url(#H)"><path data-name="패스 13787" d="M1.98 1.989a95.835 95.835 0 0 1 3.226 99.341" fill="none" stroke="#774e36" stroke-linecap="round" stroke-linejoin="round" stroke-width="4.17"/></g><g data-name="그룹 5196" transform="translate(620.496 866.26)" clip-path="url(#I)"><path data-name="패스 13788" d="M1.989 1.989a90.071 90.071 0 0 1 22.613 46.844c4.816 31.388-8.975 55.076-12.924 61.377" fill="none" stroke="#774e36" stroke-linecap="round" stroke-linejoin="round" stroke-width="4.17"/></g><g data-name="그룹 5197" transform="translate(292.741 838.803)" clip-path="url(#J)"><path data-name="패스 13789" d="M13.172 43.98a46.606 46.606 0 0 1-9.689-42" fill="none" stroke="#774e36" stroke-linecap="round" stroke-linejoin="round" stroke-width="4.17"/></g><g data-name="그룹 5198" transform="translate(260.116 850.918)" clip-path="url(#K)"><path data-name="패스 13790" d="M4.606 1.989a30.974 30.974 0 0 0-1.618 20.186 30.448 30.448 0 0 0 7.271 12.924" fill="none" stroke="#774e36" stroke-linecap="round" stroke-linejoin="round" stroke-width="4.17"/></g><g data-name="그룹 5199" transform="translate(258.698 564.601)" clip-path="url(#L)"><path data-name="패스 13791" d="M1.989 23.412a55.191 55.191 0 0 1 12.924-8.88c7.09-3.5 11.973-3.969 24.231-6.462 19.177-3.9 17.445-4.854 25.03-5.653a83.154 83.154 0 0 1 29.884 2.427" fill="none" stroke="#774e36" stroke-linecap="round" stroke-linejoin="round" stroke-width="4.17"/></g><path data-name="패스 13792" d="M423.013 600.12c0 3.521-3.16 6.862-6.462 6.462-3.207-.39-5.187-4.14-4.844-7.271.276-2.494 2.113-5.32 4.844-5.653 3.264-.4 6.462 2.922 6.462 6.462" fill="#774e36"/><g data-name="그룹 5200" transform="translate(360.447 624.788)" clip-path="url(#M)"><path data-name="패스 13793" d="M1.989 1.989c4.892 6.757 21.128 27.333 47.643 31.493" fill="none" stroke="#774e36" stroke-linecap="round" stroke-linejoin="round" stroke-width="4.17"/></g><g data-name="그룹 5201" transform="translate(452.516 388.97)" clip-path="url(#N)"><path data-name="패스 13794" d="M1.989 4.41a82.211 82.211 0 0 0 35.537 16.151c36.3 6.672 64.4-14.609 69.457-18.578" fill="none" stroke="#774e36" stroke-linecap="round" stroke-linejoin="round" stroke-width="4.17"/></g><g data-name="그룹 5202" transform="translate(447.672 401.086)" clip-path="url(#O)"><path data-name="패스 13795" d="M1.989 1.98C6.614 6.234 31.312 28.143 68.21 26.211c29.484-1.551 48.985-17.388 54.914-22.613" fill="none" stroke="#774e36" stroke-linecap="round" stroke-linejoin="round" stroke-width="4.17"/></g><g data-name="그룹 5203" transform="translate(445.255 435.005)" clip-path="url(#P)"><path data-name="패스 13796" d="M1.98 1.98c4.616 3.464 43.056 31.454 82.372 16.96A70.19 70.19 0 0 0 107.77 4.407" fill="none" stroke="#774e36" stroke-linecap="round" stroke-linejoin="round" stroke-width="4.17"/></g><path data-name="패스 13797" d="M380.204 423.261c-.619-1.161-9.86 1.846-9.689 3.226.086.676 2.4 1 4.035.809 3.445-.4 6.034-3.322 5.653-4.035" fill="#774e36"/></g></g></g></svg>