<svg xmlns="http://www.w3.org/2000/svg" xmlns:xlink="http://www.w3.org/1999/xlink" width="967.81" height="382.5"><defs><linearGradient id="b" x1=".5" y1=".847" x2=".5" y2="-.096" gradientUnits="objectBoundingBox"><stop offset=".01" stop-color="#af7356"/><stop offset=".52" stop-color="#c79545"/><stop offset="1" stop-color="#9a7761"/></linearGradient><linearGradient id="a" x1=".5" y1="-.298" x2=".5" y2="1.779" gradientUnits="objectBoundingBox"><stop offset=".52" stop-color="#c79545"/><stop offset=".67" stop-color="#af7356"/><stop offset="1" stop-color="#9a7761"/></linearGradient><linearGradient id="d" x1=".5" y1="-5.023" x2=".5" y2="4.052" xlink:href="#a"/><linearGradient id="e" x1=".5" y1=".089" x2=".5" y2=".518" xlink:href="#b"/><clipPath id="c"><path data-name="사각형 4291" fill="none" d="M0 0h966v380.69H0z"/></clipPath></defs><g data-name="그룹 5315"><path data-name="사각형 4289" fill="#f7f7f7" stroke="#6d6d6d" stroke-miterlimit="10" stroke-width="1.81" d="M.905.905h966v380.69h-966z"/><g data-name="그룹 5314" clip-path="url(#c)" transform="translate(.905 .905)"><g data-name="그룹 5313"><path data-name="패스 14035" d="M574.366-62.43c39.963 7.109 76.185 30.674 101.511 62.4s40.1 71.17 45.207 111.447c3.493 27.514 2.7 55.8 10.583 82.4 4.273 14.428 11.049 28.114 14.019 42.866 5.139 25.5-1.437 51.859-.228 77.842a130.478 130.478 0 0 0 20.215 63.7l-481.782 17.2a595.328 595.328 0 0 0 18.33-189.089c-1.028-15.989-2.57-32.739 3.845-47.424s24.888-28.97 24.888-28.97 6.662-41.533 12.039-66.516 18.159-47.615 34.6-67.182c39.335-46.825 104.042-56.656 104.042-56.656l92.736-2z" transform="translate(-14.561 2.157)" fill="url(#b)"/><g data-name="그룹 5305" fill="#dbb38a"><path data-name="패스 14036" d="M499.084 242.118a33.947 33.947 0 0 1-4.787-.343c-7.433-1.075-15.094-4.559-22.784-10.355l-.133-.1c-2.16-1.627-4.387-3.312-6.824-3.084-1.789.162-3.388 1.361-4.939 2.522l-.1.076c-3.769 2.827-8.309 5.748-13.362 5.977-4.73.209-10.012-2.7-11.049-7.442a27.571 27.571 0 0 1-12.363 2.3l.076-1.6a25.982 25.982 0 0 0 12.572-2.608l1.066-.523.086 1.19c.3 4.406 5.263 7.243 9.536 7.081 4.606-.2 8.718-2.836 12.468-5.653l.1-.076c1.646-1.237 3.512-2.636 5.748-2.846 3.046-.276 5.644 1.675 7.937 3.4l.133.1c7.471 5.634 14.894 9.013 22.051 10.05 8.585 1.237 17.026-1.056 22.565-6.167.257-.238.523-.485.79-.742 2.351-2.218 5.025-4.74 8.318-3.921a8.954 8.954 0 0 1 3.341 1.942c.276.219.562.447.847.657a13.009 13.009 0 0 0 16.769-1.713l.59-.657.6.657c9.432 10.421 27.543 11.364 37.993 1.97l1.075 1.19c-10.869 9.755-29.532 8.984-39.677-1.466a14.718 14.718 0 0 1-18.3 1.3c-.3-.219-.6-.457-.895-.695a7.767 7.767 0 0 0-2.731-1.637c-2.446-.609-4.673 1.494-6.824 3.531-.276.257-.542.514-.809.752-4.844 4.464-11.754 6.919-19.092 6.919z"/><path data-name="패스 14037" d="m414.4 268.642-.676-1.456a1045.946 1045.946 0 0 1 71.722-30.084l.562 1.5a1049.755 1049.755 0 0 0-71.617 30.036z"/><path data-name="패스 14038" d="M491.422 281.938a24.637 24.637 0 0 1-15.123-5.825c-.39-.324-.771-.657-1.152-.99-1.78-1.542-3.455-2.988-5.539-3.531-4.007-1.028-7.576 1.57-11.354 4.321a40.922 40.922 0 0 1-5.482 3.569c-8.061 4.073-19.2.485-23.346-7.538l1.428-.742c3.778 7.281 13.876 10.545 21.2 6.843a40.783 40.783 0 0 0 5.263-3.436c3.912-2.855 7.956-5.8 12.7-4.578 2.446.628 4.349 2.275 6.186 3.864.381.324.752.647 1.133.961 6.2 5.139 15.818 7.766 22.242 2.836.5-.381 1.009-.818 1.513-1.256 2.179-1.865 4.644-3.969 7.547-3.026a7.93 7.93 0 0 1 2.522 1.561c.2.162.4.324.6.476 5.092 3.874 12.477 2.789 17.683.466a68.41 68.41 0 0 0 9.241-5.32c2.4-1.551 4.873-3.15 7.462-4.483 7.147-3.674 14.2-4.235 19.358-1.551a29.727 29.727 0 0 1 5.691 4.245c2.827 2.474 5.491 4.816 8.908 4.9 3.721.1 6.653-2.532 9.727-5.311a34.1 34.1 0 0 1 5.672-4.426l.79 1.4a31.953 31.953 0 0 0-5.387 4.226c-3.179 2.865-6.434 5.825-10.84 5.72-4-.1-7.014-2.741-9.927-5.3a28.98 28.98 0 0 0-5.377-4.035c-4.692-2.446-11.211-1.875-17.883 1.551-2.522 1.294-4.958 2.874-7.328 4.406a70.155 70.155 0 0 1-9.46 5.444c-7.3 3.236-14.514 2.988-19.31-.657-.219-.162-.428-.333-.638-.5a6.756 6.756 0 0 0-2.008-1.285c-2.056-.657-3.978.98-6.015 2.722-.514.438-1.047.9-1.58 1.3a14.689 14.689 0 0 1-9.127 2.95z"/><path data-name="패스 14039" d="m512.689 341.497-.209-33.444a74.793 74.793 0 0 0-.809-12.706l-.143-.78c-.723-3.912-1.627-8.784 1.561-11.668l1.075 1.19c-2.522 2.284-1.751 6.491-1.066 10.193l.143.78a75.622 75.622 0 0 1 .838 12.982l.209 33.444h-1.608z"/><path data-name="사각형 4290" d="M523.077 288.048h1.608v42.79h-1.608z"/><path data-name="패스 14040" d="M459.71 316.952a6.447 6.447 0 0 1-3.122-.79 6.7 6.7 0 0 1-3.131-7.5l1.542.428a4.951 4.951 0 0 0 8.423 4.673l1.19 1.085a6.65 6.65 0 0 1-4.9 2.1z"/><path data-name="패스 14041" d="M480.136 314.058a4.758 4.758 0 0 1-2.332-8.965l.752 1.418a3.172 3.172 0 0 0 2.684 5.739l.6 1.485a4.589 4.589 0 0 1-1.7.324z"/><path data-name="패스 14042" d="M556.473 325.869a104.281 104.281 0 0 1-21.937-2.313l.333-1.57a104.334 104.334 0 0 0 63.061-6.281l.638 1.475a105.818 105.818 0 0 1-42.095 8.7z"/><path data-name="패스 14043" d="M533.311 311.233a5.48 5.48 0 0 1-3.436-1.133 4.893 4.893 0 0 1-1.723-4.245 3.908 3.908 0 0 1 2.027-3.226l.742 1.428a2.369 2.369 0 0 0-1.171 1.951 3.255 3.255 0 0 0 1.114 2.836c1.694 1.323 4.254.818 5.815-.324l.952 1.294a7.429 7.429 0 0 1-4.311 1.428z"/><path data-name="패스 14044" d="M549.487 311.794a7.82 7.82 0 0 1-2.589-.4 5.561 5.561 0 0 1-3.122-2.808 3.851 3.851 0 0 1-.152-3.036c.809-2.075 3.1-2.827 5.234-3.283l.333 1.57c-1.713.371-3.54.933-4.073 2.3a2.272 2.272 0 0 0 .114 1.78 3.864 3.864 0 0 0 2.189 1.961c1.8.619 3.864.2 5.691-.181l.324 1.57a19.427 19.427 0 0 1-3.95.523z"/><path data-name="패스 14045" d="M566.114 309.567a5.625 5.625 0 0 1-4.483-8.042l1.4.79a4.043 4.043 0 0 0 3.15 5.653l-.057 1.6z"/><path data-name="패스 14046" d="M585.196 307.463a5.2 5.2 0 0 1-4.768-7.433l1.456.685a3.632 3.632 0 0 0 5.139 4.663l.818 1.38a5.184 5.184 0 0 1-2.646.714z"/><path data-name="패스 14047" d="M596.892 304.864a4.352 4.352 0 0 1-3.474-6.491l1.323.914a2.731 2.731 0 0 0 2.341 3.959l.162 1.6a3.92 3.92 0 0 1-.343.019z"/><path data-name="패스 14048" d="M559.709 297.461a128.226 128.226 0 0 1-24.2-2.294l.3-1.58a127.607 127.607 0 0 0 58.474-2.5l.438 1.542a129.146 129.146 0 0 1-35.014 4.825z"/><path data-name="패스 14049" d="M471.864 342.772a297.981 297.981 0 0 1-43.836-3.245l.238-1.589a296.7 296.7 0 0 0 77.87 1.237l.19 1.589a298.117 298.117 0 0 1-34.462 2z"/><path data-name="패스 14050" d="M539.009 340.792c-1.485 0-2.96 0-4.435-.019l.019-1.608a435.56 435.56 0 0 0 48.566-2.227q4.283-.443 8.575-.933l.181 1.6c-2.865.324-5.72.638-8.585.933a435.842 435.842 0 0 1-44.312 2.256z"/></g><path data-name="패스 14051" d="M510.429 2.903c-31.226 0-62.071-15.427-79.412-39.972a.805.805 0 0 1 .162-1.094l26.115-20.4a.793.793 0 0 1 1.123.143.793.793 0 0 1-.143 1.123l-25.505 19.932c17.788 24.7 49.566 39.83 81.23 38.6 31.646-1.216 62.014-18.747 77.593-44.729l-20.214-13.127a.81.81 0 0 1-.238-1.114.81.81 0 0 1 1.113-.238l20.862 13.546a.8.8 0 0 1 .257 1.075C577.631-16.551 546.5 1.579 514.065 2.827a91.865 91.865 0 0 1-3.636.067z" fill="#56463b"/><path data-name="패스 14052" d="M511.01 25.373c-42.171 0-83.847-19.31-107.259-50.013a.773.773 0 0 1-.152-.609.788.788 0 0 1 .324-.533c11.811-8.451 29.9-14.19 30.084-14.247a.809.809 0 0 1 1.009.523.809.809 0 0 1-.523 1.009c-.171.057-17.35 5.51-28.961 13.543 24.117 31.1 67.315 50.156 110.324 48.633 33.805-1.209 67.687-15.513 90.633-38.259a.8.8 0 0 1 1.133 0 .8.8 0 0 1 0 1.133C584.39 9.575 550.109 24.06 515.914 25.279c-1.637.057-3.274.086-4.9.086z" fill="#56463b"/><g data-name="그룹 5306" opacity=".5"><path data-name="패스 14053" d="M639.33 102.319a14.06 14.06 0 0 1-.609-.076.667.667 0 0 1-.133-.029.839.839 0 0 1-.143-.048h-.019a1.684 1.684 0 0 1-1.256.514 1.844 1.844 0 0 1-.038-3.683l.124-.162a1.685 1.685 0 0 1 2.313-.19h.038a1.471 1.471 0 0 1 .3.038 543.78 543.78 0 0 0-.695-26.762c-.714.79-1.437 1.57-2.122 2.389a1.846 1.846 0 0 1-3.15-1.3 1.965 1.965 0 0 1 .542-1.3c1.428-1.713 2.96-3.331 4.445-5-.152-2.5-.324-4.949-.5-7.376a1.91 1.91 0 0 1-.238-3.093c-4.454-55.409-15.9-89.871-15.9-89.871-6.253-5.6-23.707-11.326-23.707-11.326s1.085 2.731 2.779 8.033c.209.029.428.048.628.1a5.278 5.278 0 0 1 1 .381 1.834 1.834 0 0 1 .847 1.1 1.851 1.851 0 0 1-.19 1.418 1.306 1.306 0 0 1-.476.514 1.435 1.435 0 0 1-.628.333 289.263 289.263 0 0 1 3.207 11.563c.038-.019.067-.057.1-.067a1.407 1.407 0 0 1 .714-.162h1.047a1.872 1.872 0 0 1 .933.247l.371.286a1.827 1.827 0 0 1 .476.818l.067.495a1.407 1.407 0 0 1-.162.714 1.348 1.348 0 0 1-.381.59 1.4 1.4 0 0 1-.59.381 1.407 1.407 0 0 1-.714.162h-.99c6.177 25.04 13.7 67.078 14.067 123.981a2.035 2.035 0 0 1 .01 1.618 756.325 756.325 0 0 1-10.241 124.895c7.357-2.265 12.382-9.327 14.571-16.7a89.186 89.186 0 0 0 3.816-21.833c.971-20.367 8.908-40.934 10.126-61.282.171-2.9.314-5.777.447-8.623l-.124.029a5.292 5.292 0 0 1-1.4.209 1.872 1.872 0 0 1-.933-.247l-.371-.286a1.826 1.826 0 0 1-.476-.818c-.019-.162-.048-.324-.067-.495a1.407 1.407 0 0 1 .162-.714 1.348 1.348 0 0 1 .381-.59 2.059 2.059 0 0 1 1.3-.542h.067a10.036 10.036 0 0 1 1.589-.333q.343-9.165.371-17.921a1.478 1.478 0 0 1-.3.029h-.277zM628.271 34.48l.286-.371a1.774 1.774 0 0 1 2.018-.381 1.348 1.348 0 0 1 .59.381l.048.048.3.3a1.826 1.826 0 0 1 .476.818l.067.495a1.775 1.775 0 0 1-.133.638 1.78 1.78 0 0 1-1.713 2.256 1.752 1.752 0 0 1-1.751-2.056 1.833 1.833 0 0 1-.381-.695c-.019-.162-.048-.324-.067-.495a1.873 1.873 0 0 1 .247-.933zm.9 14.742a1.847 1.847 0 0 1 0 3.693 1.849 1.849 0 0 1 .004-3.692zm-3.531 70.028a1.655 1.655 0 0 1 0 1.428 1.348 1.348 0 0 1-.381.59c-.076.076-.152.171-.228.247a1.469 1.469 0 0 1-.181.419l-.286.371a1.826 1.826 0 0 1-.818.476c-.162.019-.324.048-.495.067a1.407 1.407 0 0 1-.714-.162 1.348 1.348 0 0 1-.59-.381 2.058 2.058 0 0 1-.542-1.3v-.076c.019-.162.038-.352.067-.514l.004-.035a2.861 2.861 0 0 1 .228-.562 1.477 1.477 0 0 1 .152-.266 6.616 6.616 0 0 1 .5-.628c.086-.1.181-.181.266-.276a1.826 1.826 0 0 1 .818-.476c.162-.019.324-.048.495-.067a1.873 1.873 0 0 1 .933.247l.371.286a1.4 1.4 0 0 1 .381.59zM612.121-13.191a1.847 1.847 0 0 1 0-3.693 1.847 1.847 0 0 1 0 3.693zm8.317 4.91c-.019-.162-.048-.324-.067-.495a1.873 1.873 0 0 1 .247-.933l.286-.371a1.4 1.4 0 0 1 .59-.381 1.407 1.407 0 0 1 .714-.162 1.407 1.407 0 0 1 .714.162 1.348 1.348 0 0 1 .59.381 7.454 7.454 0 0 1 .523.571 7.085 7.085 0 0 1 .809 1.19 1.779 1.779 0 0 1 .247.933c-.019.162-.048.324-.067.495a1.879 1.879 0 0 1-.476.818l-.371.286a1.357 1.357 0 0 1-.685.219 1.368 1.368 0 0 1-.733-.029 1.435 1.435 0 0 1-.628-.333 1.448 1.448 0 0 1-.476-.514 4.661 4.661 0 0 0-.362-.59c-.124-.143-.257-.3-.39-.428a1.827 1.827 0 0 1-.476-.818zm1.884 213.491a1.9 1.9 0 0 1-.542 1.3 1.838 1.838 0 0 1-2.608 0 1.973 1.973 0 0 1-.543-1.3l-.011-3.13a1.9 1.9 0 0 1 .543-1.3 1.838 1.838 0 0 1 2.608 0 1.9 1.9 0 0 1 .542 1.3zm3.712-21.252a2.251 2.251 0 0 1-.1.419 7.423 7.423 0 0 1-.381.895 1.862 1.862 0 0 1-.666.666c-.143.067-.3.124-.438.19a1.9 1.9 0 0 1-.98 0c-.143-.067-.295-.124-.438-.19a1.306 1.306 0 0 1-.514-.476 1.436 1.436 0 0 1-.333-.628 2.1 2.1 0 0 1 .152-1.342c.048-.124.076-.257.114-.381 0-.162.019-.333.019-.495a1.873 1.873 0 0 1 .247-.933l.286-.371a1.826 1.826 0 0 1 .818-.476c.162-.019.324-.048.495-.067a1.407 1.407 0 0 1 .714.162 1.348 1.348 0 0 1 .59.381 2.059 2.059 0 0 1 .542 1.3 8.12 8.12 0 0 1-.1 1.361zm1.751-15.523a1.847 1.847 0 0 1 0-3.693 3.405 3.405 0 0 1 .001 3.694zm2.379-8.442a1.348 1.348 0 0 1-.381.59 2.059 2.059 0 0 1-1.3.542 2.3 2.3 0 0 1-.666-.1 4.935 4.935 0 0 1-.619-.247.154.154 0 0 1-.067-.038c-.019 0-.048-.019-.067-.019a1.921 1.921 0 0 1-.552-.2l-.371-.286a1.827 1.827 0 0 1-.476-.818c-.019-.162-.048-.324-.067-.495a1.407 1.407 0 0 1 .162-.714 1.348 1.348 0 0 1 .381-.59 2.059 2.059 0 0 1 1.3-.542 2.3 2.3 0 0 1 .666.1 4.934 4.934 0 0 1 .619.247.153.153 0 0 1 .067.038c.019 0 .048.019.067.019a1.921 1.921 0 0 1 .552.2l.371.286a1.826 1.826 0 0 1 .476.818c.019.162.048.324.067.495a1.407 1.407 0 0 1-.161.715zm1.447-104.157a1.847 1.847 0 0 1 0 3.693 1.847 1.847 0 0 1 .001-3.692zm.59 38.726a1.9 1.9 0 0 1 .543-1.3 1.838 1.838 0 0 1 2.608 0 1.9 1.9 0 0 1 .542 1.3c0 .495 0 .98.048 1.475a3.283 3.283 0 0 0 .171.685 1.935 1.935 0 0 1 .124.619c-.019.162-.048.324-.067.495a1.889 1.889 0 0 1-.847 1.1 2.1 2.1 0 0 1-1.418.19 2.109 2.109 0 0 1-1.1-.847 4.892 4.892 0 0 1-.39-1.018 9.116 9.116 0 0 1-.162-1.123c-.048-.523-.048-1.047-.048-1.57zm1.846 49.861a1.847 1.847 0 0 1 0-3.693 1.847 1.847 0 0 1 .001 3.694z" fill="#564235"/></g><g data-name="그룹 5307" fill="#c9b09f"><path data-name="패스 14054" d="M638.655 134.954a.8.8 0 0 1-.495-.171.793.793 0 0 1-.133-1.123 179.87 179.87 0 0 0 38.088-102.967.783.783 0 0 1 .838-.771.8.8 0 0 1 .771.838 181.447 181.447 0 0 1-38.431 103.9.8.8 0 0 1-.628.3z"/><path data-name="패스 14055" d="M631.022 183.559a.8.8 0 0 1-.571-1.37 230.6 230.6 0 0 0 61.776-114.293.802.802 0 0 1 1.57.333 232.173 232.173 0 0 1-62.214 115.1.777.777 0 0 1-.571.238z"/><path data-name="패스 14056" d="M626.958 219.476a.822.822 0 0 1-.628-.3.813.813 0 0 1 .124-1.133 264.822 264.822 0 0 0 74.691-96.172.805.805 0 1 1 1.466.666 266.546 266.546 0 0 1-75.148 96.762.782.782 0 0 1-.5.181z"/></g><path data-name="패스 14057" d="M334.798 159.47a.8.8 0 0 1-.4-1.5 121.037 121.037 0 0 0 52.916-61.11c4.254-11.059 6.881-22.87 9.422-34.291 1.332-6 2.712-12.2 4.311-18.235 5.873-22.156 14.012-37.302 25.602-47.656a.8.8 0 0 1 1.133.067.8.8 0 0 1-.067 1.133c-11.345 10.136-19.33 25.03-25.116 46.872-1.589 6.005-2.969 12.192-4.292 18.168-2.551 11.478-5.187 23.346-9.489 34.519a122.64 122.64 0 0 1-53.63 61.938.826.826 0 0 1-.39.1z" fill="#56463b"/><path data-name="패스 14058" d="M629.299 292.36a1.193 1.193 0 0 1-1.028-.581c-11.43-18.968-17.15-43.408-16.979-72.645.1-16.9 2.018-33.958 3.864-50.451.895-7.937 1.818-16.151 2.522-24.231a496.4 496.4 0 0 0-19.986-187.813 1.2 1.2 0 0 1 .8-1.5 1.2 1.2 0 0 1 1.5.8 498.9 498.9 0 0 1 20.081 188.736c-.714 8.109-1.637 16.332-2.532 24.288-1.846 16.436-3.759 33.425-3.854 50.2-.162 28.78 5.434 52.8 16.636 71.389a1.2 1.2 0 0 1-1.024 1.826z" fill="#c6a48d"/><path data-name="패스 14059" d="M637.792 264.389a.8.8 0 0 1-.685-.381c-8.527-13.914-12.3-31.75-11.183-52.982.695-13.238 3.122-26.477 5.472-39.287.885-4.806 1.8-9.774 2.6-14.676A407.54 407.54 0 0 0 623.17-22.289a.809.809 0 0 1 .542-1 .809.809 0 0 1 1 .542 409.287 409.287 0 0 1 10.859 180.057c-.809 4.911-1.723 9.888-2.608 14.7-2.341 12.753-4.768 25.944-5.453 39.078-1.095 20.909 2.589 38.421 10.954 52.059a.8.8 0 0 1-.267 1.1.841.841 0 0 1-.419.114z" fill="#56463b"/><path data-name="패스 14060" d="M543.73 387.237c12.239-4.873 40.534-37.2 44.322-49.823s3.931-25.992 4.759-39.135c2.084-33.044 10.222-68.543 35.7-89.681 15.361-12.744 38.554-18.444 55.467-7.833 10.06 6.319 16.313 17.245 20.6 28.314 10.282 26.468 11.557 55.418 16.742 83.333s15.646 56.875 38.592 73.6l-216.172 1.215z" fill="#825b45"/><path data-name="패스 14061" d="M652.052 254.072a457 457 0 0 1-8.413 132.48c17.683-.742 54.677.685 54.677.685s-15.78-75.862-18.254-113.293c-.266-3.95-.619-8.033-2.484-11.535s-5.6-6.3-9.536-5.844l-16-2.513z" fill="#604431"/><path data-name="패스 14062" d="M403.702 183.111a1.2 1.2 0 0 1-1.2-1.133c-1.846-32.53-4.6-65.345-8.4-100.3a1.201 1.201 0 1 1 2.389-.257c3.807 35 6.557 67.858 8.413 100.426a1.2 1.2 0 0 1-1.133 1.266z" fill="#56463b"/><path data-name="패스 14063" d="M610.484 174.641c.143-.714.286-1.437.419-2.151a642.788 642.788 0 0 0-198.759 6.881 1.189 1.189 0 0 0-.952 1.409 1.208 1.208 0 0 0 1.18.98.927.927 0 0 0 .228-.019 640.2 640.2 0 0 1 197.854-6.871c.01-.076.029-.143.038-.219z" fill="#56463b"/><path data-name="패스 14064" d="M404.93 208.969a1.204 1.204 0 0 1-.048-2.408l206.952-9.327a1.174 1.174 0 0 1 1.256 1.152 1.2 1.2 0 0 1-1.152 1.256l-206.952 9.327h-.057z" fill="#56463b"/><path data-name="패스 14065" d="M395.328 330.857c-3.2-10.583-2.4-21.833-1.332-32.8 3.236-33.263 12.4-71.322 6.11-104.195-3.512-18.359-14.381-31.683-16.96-50.184a88.028 88.028 0 0 1-.8-10.336 1.67 1.67 0 0 1-.666-1.39v-6.719a2.105 2.105 0 0 1-.238.048 1.847 1.847 0 0 1 0-3.693 2.533 2.533 0 0 1 .266.029 77.8 77.8 0 0 1 2.132-17.464 1.619 1.619 0 0 1 1.342-1.285 42 42 0 0 1 1.437-9.156 1.641 1.641 0 0 1 .352-.676c-.019-.1-.048-.219-.067-.314a1.717 1.717 0 0 1-1.285.552 1.86 1.86 0 0 1-1.846-1.846c.6-5.006-.581-9.793-2.532-14.381a1.89 1.89 0 0 1 .666-2.522 1.741 1.741 0 0 1 .5-.162 1.861 1.861 0 0 1-.029-.324c0-.162-.01-.314-.019-.476a.8.8 0 0 0-.048-.162c-.019-.038-.048-.076-.067-.114a.138.138 0 0 0-.019-.029 1.92 1.92 0 0 1-.542-1.3 1.861 1.861 0 0 1 .542-1.3 1.588 1.588 0 0 1 .352-.228c-.076-.409-.152-.838-.228-1.256-.038-.038-.1-.048-.133-.086a2.059 2.059 0 0 1-.543-1.3c0-.162-.01-.314-.019-.476a.805.805 0 0 0-.048-.162c-.019-.038-.048-.076-.067-.114a.137.137 0 0 0-.019-.029 1.965 1.965 0 0 1-.542-1.3 1.8 1.8 0 0 1 .514-1.266c-.19-1.056-.381-2.141-.571-3.207a2.129 2.129 0 0 1-1.114-.19 11.207 11.207 0 0 1-2.95-2.2 1.735 1.735 0 0 1-.324-.324 13.3 13.3 0 0 1-3.141-6.234 1.9 1.9 0 0 1 1.285-2.275 1.865 1.865 0 0 1 2.275 1.285 11.91 11.91 0 0 0 .324 1.275c.057.19.124.371.19.552.038.1.067.181.1.276a13.217 13.217 0 0 0 .7 1.3c.438-.447.847-.9 1.256-1.38-.914-5.215-1.818-10.526-2.712-15.751a1.968 1.968 0 0 1-.495-.19l-.371-.286a1.826 1.826 0 0 1-.476-.818c-.019-.162-.048-.324-.067-.495a1.407 1.407 0 0 1 .162-.714 1.348 1.348 0 0 1 .381-.59 1.3 1.3 0 0 1 .3-.2 54.607 54.607 0 0 1-.086-.495 1.569 1.569 0 0 1-.514-.552 11.975 11.975 0 0 1-1.646-5.111 1.92 1.92 0 0 1 .542-1.3 1.4 1.4 0 0 1 .4-.266c-.1-.552-.19-1.114-.276-1.666a2 2 0 0 1-1.589.9 1.38 1.38 0 0 1-.285-.057c.01.1.038.2.038.3a1.92 1.92 0 0 1-.542 1.3 1.861 1.861 0 0 1-1.3.542 1.407 1.407 0 0 1-.714-.162 1.348 1.348 0 0 1-.59-.381 1.847 1.847 0 0 1-.5-1.142 1.19 1.19 0 0 0 .029.181 2.3 2.3 0 0 0-.1-.343c-.076-.152-.152-.3-.219-.457a6.194 6.194 0 0 1-.314-.79 3.188 3.188 0 0 1-.114-.847 1.9 1.9 0 0 1 .543-1.3 1.861 1.861 0 0 1 1.3-.542 1.407 1.407 0 0 1 .714.162c.019 0 .029.019.048.029-.761-6.833-1.865-13.733-1.209-20.614a2.116 2.116 0 0 1 .752-1.437c-1.1-6.757-1.78-10.964-1.78-10.964s-35.29 45.741-44.915 75.425c-4.473 13.79 8.014 49.9 20.443 82.981a1.826 1.826 0 0 1 3.464.828c0 .685.029 1.37.1 2.046a12.338 12.338 0 0 0 .247 1.532 17.445 17.445 0 0 0 .457 1.713c.086.276.181.552.285.818.038.1.086.209.124.314.019.038.038.1.057.124a18.453 18.453 0 0 0 1.685 2.95 10.32 10.32 0 0 0 .885 1.133c.381.447.78.866 1.19 1.285 1.675 1.685-.933 4.3-2.608 2.608-.038-.038-.067-.076-.1-.114 1.818 4.768 3.569 9.394 5.206 13.752a1.9 1.9 0 0 1 1.77-1.485 1.873 1.873 0 0 1 1.846 1.846c0 .266.029.533.048.8a7.283 7.283 0 0 0 .39 1.4 17.468 17.468 0 0 0 1.4 2.427 1.862 1.862 0 0 1-.666 2.522 1.894 1.894 0 0 1-1.418.19 1.764 1.764 0 0 1-.647-.343c3.379 9.289 5.929 16.988 6.948 22.042a26.977 26.977 0 0 1 1.637 2.76 24.306 24.306 0 0 1 1.294 3.188 1.577 1.577 0 0 1-.086 1.2 1.156 1.156 0 0 1 .086.19c1.475 5.149 3.388 10.164 4.873 15.313a1.647 1.647 0 0 1-.59 1.856q1.67 4.682 3.35 9.365a1.815 1.815 0 0 1 .818.019 1.861 1.861 0 0 1 1.1.847c.476.942.942 1.884 1.418 2.827a1.823 1.823 0 0 1 .818 1.808 2 2 0 0 1 .038.952 1.89 1.89 0 0 1-.847 1.1 1.824 1.824 0 0 1-.695.238c.124.4.257.79.381 1.19a1.66 1.66 0 0 1 1.114.371c.209-.6.419-1.2.657-1.789a1.9 1.9 0 0 1 2.275-1.285 1.854 1.854 0 0 1 1.285 2.275 49.575 49.575 0 0 0-1.884 5.872 20.59 20.59 0 0 1 1.171 4.787 1.8 1.8 0 0 1 .771 1.38c.076 1.047.162 2.1.238 3.15l.162.029a2.347 2.347 0 0 1 .276.1 5.413 5.413 0 0 1 .676.3 4.407 4.407 0 0 1 .885.685 1.92 1.92 0 0 1 .542 1.3 1.861 1.861 0 0 1-.542 1.3 1.808 1.808 0 0 1-1.7.495c.276 4.121.457 8.242.438 12.363a1.844 1.844 0 0 1-.038 3.683h-.048a77.644 77.644 0 0 1-1.1 10.688c-.742 4.121-1.723 8.232-2.579 12.353a1.725 1.725 0 0 1 .942-.286 1.847 1.847 0 0 1 0 3.693 1.628 1.628 0 0 1-1.456-.79 84.033 84.033 0 0 0-.99 6.51 1.685 1.685 0 0 1 1.056-.371 1.847 1.847 0 0 1 0 3.693 1.718 1.718 0 0 1-1.085-.381c.019 1.38.1 2.76.2 4.13.029.029.067.029.1.057a2.059 2.059 0 0 1 .542 1.3v2.084a1.765 1.765 0 0 1-.152.7 47.68 47.68 0 0 0 .923 4.483 42.456 42.456 0 0 0 1.646 3.4 24.919 24.919 0 0 1 .914-2.817 1.882 1.882 0 0 1 2.275-1.285 1.858 1.858 0 0 1 1.285 2.275 28.7 28.7 0 0 0-1.656 6.215 8.8 8.8 0 0 1 1.028-.638 1.821 1.821 0 0 1 1.865 0 11.731 11.731 0 0 1 5.092 9.936 1.68 1.68 0 0 1-.581 1.342c7.09 5.2 16.531 7.481 24.612 4.083-11.259-2.95-19.244-12.9-22.432-23.479zM358.477 32.739a1.847 1.847 0 0 1 0-3.693 1.847 1.847 0 0 1 0 3.693zm6.262-25.049a1.847 1.847 0 0 1 0-3.693 1.847 1.847 0 0 1 0 3.692zm7.414 88.615a1.873 1.873 0 0 1-.247.933l-.286.371a1.826 1.826 0 0 1-.818.476c-.162.019-.324.048-.495.067a1.407 1.407 0 0 1-.714-.162 1.348 1.348 0 0 1-.59-.381 2.059 2.059 0 0 1-.542-1.3v-.695a1.873 1.873 0 0 1 .247-.933l.285-.371a1.826 1.826 0 0 1 .818-.476l.495-.067a1.408 1.408 0 0 1 .714.162 1.348 1.348 0 0 1 .59.381 2.059 2.059 0 0 1 .542 1.3zm-1.152-55.219a1.407 1.407 0 0 1-.714-.162 1.348 1.348 0 0 1-.59-.381 2.059 2.059 0 0 1-.543-1.3l-.001-2.088a1.9 1.9 0 0 1 .543-1.3 1.861 1.861 0 0 1 1.3-.542 1.408 1.408 0 0 1 .714.162 1.348 1.348 0 0 1 .59.381 2.059 2.059 0 0 1 .542 1.3v2.088a1.9 1.9 0 0 1-.542 1.3 1.861 1.861 0 0 1-1.298.541zm3.483 4.663a1.847 1.847 0 0 1 0 3.693 1.848 1.848 0 0 1 .001-3.698zm6.957 45.93a1.873 1.873 0 0 1 .933.247l.371.286a1.826 1.826 0 0 1 .476.818l.067.495a1.407 1.407 0 0 1-.162.714 1.348 1.348 0 0 1-.381.59 2.059 2.059 0 0 1-1.3.542h-.695a1.873 1.873 0 0 1-.933-.247l-.371-.286a1.826 1.826 0 0 1-.476-.818c-.019-.162-.048-.324-.067-.495a1.407 1.407 0 0 1 .162-.714 1.347 1.347 0 0 1 .381-.59 2.059 2.059 0 0 1 1.3-.542zm-5.168-23.926a1.348 1.348 0 0 1 .381-.59.138.138 0 0 1 .019-.029.71.71 0 0 0 .067-.114c.019-.057.029-.1.048-.162 0-.162.019-.314.019-.476a1.9 1.9 0 0 1 .542-1.3 1.861 1.861 0 0 1 1.3-.542 1.407 1.407 0 0 1 .714.162 1.348 1.348 0 0 1 .59.381 2.059 2.059 0 0 1 .542 1.3c0 .19 0 .371-.01.562a7.106 7.106 0 0 1-.1.723 1.335 1.335 0 0 1-.057.266 2.35 2.35 0 0 1-.1.276 5.414 5.414 0 0 1-.3.676 4.155 4.155 0 0 1-.685.885 1.92 1.92 0 0 1-1.3.542 1.861 1.861 0 0 1-1.3-.542 1.774 1.774 0 0 1-.381-2.018zm.6 116.025a63.743 63.743 0 0 1-2.778-11.134 1.906 1.906 0 0 1 1.285-2.275 1.861 1.861 0 0 1 2.275 1.285 64.6 64.6 0 0 0 2.779 11.135 1.87 1.87 0 0 1-1.285 2.275 1.9 1.9 0 0 1-2.275-1.287zm2.474 51.46a1.847 1.847 0 0 1 0-3.693 1.847 1.847 0 0 1 .001 3.692zm.7-19.482a1.847 1.847 0 0 1 0-3.693 1.847 1.847 0 0 1 .006 3.692zm6.957 75.852a1.847 1.847 0 0 1 0-3.693 1.847 1.847 0 0 1 .006 3.693z" fill="#564235" opacity=".5"/><path data-name="패스 14066" d="M443.047 137.038a78.2 78.2 0 0 1-16.627-1.77 1.204 1.204 0 0 1 .523-2.351c32.244 7.062 68.4-8.1 85.96-36.042a1.202 1.202 0 0 1 2.037 1.275c-15.104 24.041-43.57 38.888-71.893 38.888z" fill="#56463b"/><path data-name="패스 14067" d="M600.697 131.871a119.5 119.5 0 0 1-71.817-24.117 1.202 1.202 0 0 1 1.456-1.913 116.925 116.925 0 0 0 71.961 23.622 1.204 1.204 0 1 1 .029 2.408c-.542 0-1.085.01-1.627.01z" fill="#56463b"/><path data-name="패스 14068" d="M517.948 86.74a11.874 11.874 0 0 1-3.1-.409 13.451 13.451 0 0 1-9.5-13.191c-8.918 3.521-20.2.114-25.468-7.966-11.078.162-22.518.286-33.558-2.4-12.725-3.084-22.908-9.689-28.685-18.6a1.204 1.204 0 1 1 2.018-1.313c5.444 8.394 15.113 14.638 27.229 17.569 10.973 2.655 22.489 2.484 33.634 2.313a1.246 1.246 0 0 1 1.047.581c4.854 8.1 16.389 11.24 24.678 6.719a1.2 1.2 0 0 1 1.742 1.342 10.523 10.523 0 0 0 20.3 5.52 1.205 1.205 0 0 1 1.152-.857c9.946 0 19.567-4.5 28.057-8.48l46.252-21.629a1.203 1.203 0 0 1 1.018 2.179L558.51 69.753c-8.48 3.969-18.054 8.442-28.219 8.689a13.543 13.543 0 0 1-12.372 8.28z" fill="#56463b"/><path data-name="패스 14069" d="m339.023 186.128-37.64-39.725a59.874 59.874 0 0 0-9.965 14.79c-6.424 14.685-4.873 31.435-3.845 47.424.581 9.041.923 18.1 1.085 27.162a255.639 255.639 0 0 1 50.365-49.661z" fill="#564235" opacity=".5"/><path data-name="패스 14070" d="M412.297 355.212a1.256 1.256 0 0 1-.371-.057c-12.306-4-16.132-19.215-17.312-27.933-2.979-21.966-.2-44.36 2.474-66.021 2.4-19.368 4.873-39.382 3.217-58.978-1.076-12.7-3.75-22.185-8.432-29.846-5.863-9.6-15.028-15.789-24.535-16.541a1.204 1.204 0 0 1 .19-2.4c10.269.818 20.138 7.423 26.4 17.683 4.882 7.994 7.671 17.816 8.775 30.9 1.675 19.834-.818 39.991-3.226 59.473-2.665 21.509-5.415 43.751-2.484 65.4 1.1 8.156 4.606 22.375 15.665 25.963a1.2 1.2 0 0 1 .771 1.513 1.19 1.19 0 0 1-1.142.828z" fill="#56463b"/><path data-name="패스 14071" d="M577.792 389.417a.817.817 0 0 1-.562-.228.807.807 0 0 1-.019-1.133c12.439-12.82 18.644-32.806 18.463-59.407-.048-6.91-.438-13.952-.818-20.767-.8-14.381-1.627-29.256.723-43.713a.805.805 0 1 1 1.589.257c-2.322 14.285-1.5 29.075-.7 43.37.381 6.833.771 13.9.828 20.843.19 27.038-6.177 47.405-18.911 60.539a.824.824 0 0 1-.581.247z" fill="#bc9f8b"/><g data-name="그룹 5308"><path data-name="패스 14072" d="M376.464 93.594A358 358 0 0 0 365.3 21.7c-.685-2.617-1.456-5.339-3.264-7.357s-4.987-3.074-7.3-1.675a7.336 7.336 0 0 0-2.827 4.188c-1.513 4.673-1.247 9.717-.961 14.628l1.856 31.788c-1.618-3.369-3.35-6.881-6.405-9.041s-7.842-2.332-10.117.628A244.267 244.267 0 0 0 327.593 7.7c-.523-1.827-1.266-3.874-3.017-4.625-3.445-1.466-6.205 3.179-6.881 6.862a77.135 77.135 0 0 0-.133 26.9c-.381-3.883-2.17-8.994-6.043-8.518-3.35.409-4.4 4.721-4.5 8.1-.733 23.574 4.521 47.015 4.035 70.6-.276 13.143-2.332 26.353-.523 39.382s8.48 26.391 20.519 31.664c7.994 3.5 16.351 9.336 29.361 6.89s26.382-25.392 28.485-41.286a69.945 69.945 0 0 0-10.082-46.039" transform="translate(-15.674 -.992)" fill="url(#a)"/><path data-name="패스 14073" d="M339.281 137.934c3.236-4.692 8.2-9.831 8.4-15.532.362-10.193-14.1-23.136-14.1-23.136l-4.521 5.92a63.78 63.78 0 0 1 7.309 13.572c4.521 11.306 2.9 19.187 2.9 19.187z" fill="#564235" opacity=".5"/><path data-name="패스 14074" d="M336.217 77.603a.785.785 0 0 1-.78-.714l-.742-8.347a.78.78 0 0 1 .714-.847.8.8 0 0 1 .847.714l.742 8.347a.78.78 0 0 1-.714.847z" fill="#a57a41"/><path data-name="패스 14075" d="M312.471 186.49c-4.178-.628-7.471 4.283-6.9 8.47s3.617 7.557 6.548 10.6c13.514 14.076 36.013 45.274 36.013 45.274s14.047-28.561 18.026-40.534c1.856-5.587 3.74-11.392 3.065-17.245s-4.663-11.754-10.488-12.639l-46.263 6.062z" fill="#af8964"/><path data-name="패스 14076" d="M325.89 181.369q1.37 10.878 2.75 21.756c16.446 8.48 37.86 6.148 52.088-5.682l1.456-31.074-56.294 15z" transform="translate(-16.589 -8.888)" fill="url(#d)"/><path data-name="패스 14077" d="M306.351 87.549a.788.788 0 0 1-.733-.514c-2.5-6.757-2.284-14.1-2.075-21.195.048-1.589.1-3.179.114-4.759a118.137 118.137 0 0 0-2.76-26.7.784.784 0 0 1 1.532-.333 120.241 120.241 0 0 1 2.8 27.058c-.019 1.589-.067 3.188-.114 4.787-.209 6.948-.419 14.133 1.97 20.6a.783.783 0 0 1-.466 1.009.659.659 0 0 1-.266.048z" fill="#a57a41"/><path data-name="패스 14078" d="M337.255 157.853a.756.756 0 0 1-.609-.3c-5.644-6.976.5-17.293 2.532-20.291l1.056-1.551c3.655-5.349 7.433-10.888 6.319-16.836-.742-3.931-3.569-7.2-6.062-10.079-3.5-4.045-7.471-8.623-9.365-14.181-1.751-5.13-1.485-12.211 3.065-16.455a.781.781 0 0 1 1.066 1.142c-4.026 3.759-4.235 10.145-2.646 14.8 1.789 5.263 5.653 9.717 9.06 13.657 2.493 2.884 5.606 6.472 6.415 10.812 1.237 6.586-2.912 12.648-6.567 18.007l-1.047 1.542c-1.865 2.77-7.576 12.3-2.608 18.435a.786.786 0 0 1-.114 1.1.8.8 0 0 1-.495.171z" fill="#a57a41"/><path data-name="패스 14079" d="M362.522 100.61 340.55 80.088c-1.047-.98-2.256-2.008-3.493-1.818a3.515 3.515 0 0 0-1.808 1.047l-1.066-1.142a5.091 5.091 0 0 1 2.655-1.447c2.075-.3 3.835 1.342 4.787 2.227l21.966 20.519-1.066 1.142z" fill="#d6bc83"/><path data-name="패스 14080" d="M323.939 107.688a4.777 4.777 0 0 1-.638-.038c-6.377-.666-5.225-18.578-5.177-19.349a81.572 81.572 0 0 0-1.294-20.966l-.171-.885a21.625 21.625 0 0 1-.571-7.971c.514-2.874 2.684-6.224 6.243-6.786a.781.781 0 0 1 .247 1.542c-2.808.438-4.53 3.169-4.949 5.51a20.385 20.385 0 0 0 .561 7.395l.181.895a83.024 83.024 0 0 1 1.323 21.376c-.371 5.377.076 17.293 3.778 17.683 1.846.181 3.969-.8 5.844-2.712 1.942-1.98 3.255-4.625 3.055-6.148a.782.782 0 1 1 1.551-.2c.257 2.018-1.18 5.082-3.493 7.442a9.385 9.385 0 0 1-6.491 3.207z" fill="#a57a41"/></g><g data-name="그룹 5309" fill="#dbb38a"><path data-name="패스 14081" d="M443.894 68.553q5.625 13.562 11.249 27.134 6.838-6.653 13.667-13.315a2.881 2.881 0 0 0 .952-1.38c.228-1.047-.7-1.951-1.551-2.617-3.388-2.684-6.938-6.51-11-8.166-2.056-.838-12.867-.571-13.315-1.666z"/><path data-name="패스 14082" d="M445.531 111.418a39.519 39.519 0 0 1 7.994 7.538 16.042 16.042 0 0 0 5.025-4.416c1.428-2.237 1.323-7.1-1.637-8.366-3.017-1.285-8.861 3.531-11.373 5.234z"/><path data-name="패스 14083" d="M473.816 150.838a86.919 86.919 0 0 1-24.193 0c-1.437-.2-3.236-.286-3.988.952a3.618 3.618 0 0 0-.381 1.713c-.133 2.3-.266 4.616-.409 6.919a2.271 2.271 0 0 0 .3 1.589 2.1 2.1 0 0 0 1.361.59c3.036.457 6.12-.029 9.175-.362a93.29 93.29 0 0 1 16.465-.343 2.381 2.381 0 0 0 1.884-.4c.723-.7.3-1.9-.171-2.8-.971-1.856-1.951-3.712-2.922-5.558"/><path data-name="패스 14084" d="M520.146 128.816a124.951 124.951 0 0 1-28.333 18.54l13.619-2.4a83.622 83.622 0 0 1 13.819-1.646c10.821-.076 21.347 4.064 32.168 4q-14.618-9.365-28.561-19.739"/><path data-name="패스 14085" d="M602.309 147.146q-12.763 2.541-25.7 4.016c-1.418.162-3.093.485-3.674 1.789a4.05 4.05 0 0 0-.2 1.913c.1 1.808.19 3.607.286 5.415a1.235 1.235 0 0 0 .333.952 1.256 1.256 0 0 0 .838.171 134.016 134.016 0 0 0 27.552-3.978 2.646 2.646 0 0 0 1.694-.933 2.577 2.577 0 0 0 .257-1.447 34.891 34.891 0 0 0-1.075-7.623"/><path data-name="패스 14086" d="M542.845 94.411a19.806 19.806 0 0 1-7.757 6.738q6.2 4.083 12.391 8.175-2.056-6.267-4.121-12.534"/><path data-name="패스 14087" d="M496.524 125.371q-8.08 3.626-15.808 7.956a38.252 38.252 0 0 0 19.758-2.7c.923-.39 2-1.142 1.77-2.122a2.1 2.1 0 0 0-.752-1.028 21.642 21.642 0 0 0-5.558-3.569"/><path data-name="패스 14088" d="M562.869 46.501q-11.806 4.154-23.6 8.309a182.118 182.118 0 0 0 28.162 3.54c.438.019.961 0 1.19-.381a1.215 1.215 0 0 0-.019-.98 18.367 18.367 0 0 0-8.826-10.478"/></g><path data-name="패스 14089" d="M342.145 372.685a260.89 260.89 0 0 1 21.985-164.7l2.16 1.066a258.453 258.453 0 0 0-21.785 163.168z" fill="#f9d9b2"/><g data-name="그룹 5311"><path data-name="패스 14090" d="M235.305 445.116c-10.65 18.559-11.6 40.915-12.287 62.3-.828 25.782-.324 54.972 18.482 72.636 19.777 18.578 50.479 11.954 77.6 12.62 205.982 5.054 488.32 7.661 504.5-9.47s18.121-67.23 14.714-93.945-14.019-53.449-34.281-71.189c-18.863-16.512-43.941-23.66-68.267-29.7a1465.957 1465.957 0 0 0-178.524-32.8c-16.217-1.951-32.682-3.626-48.842-1.209-26.525 3.969-50.2 18.521-76.69 22.442-26.772 3.969-49.052-15.532-74.767-10.935-20.814 3.712-40.306 22.47-58.759 32.035-23.412 12.134-49.138 23.26-62.88 47.225z" transform="translate(-11.612 -17.906)" fill="url(#e)"/><g data-name="그룹 5310" fill="#dbb38a"><path data-name="패스 14091" d="M497.895 404.292a117.667 117.667 0 0 1-1.209-29.989v-.1c.171-1.856.343-3.769-.438-5.3a8.34 8.34 0 0 0-1.941-2.275 30.87 30.87 0 0 0-45.017 4.416l-1.275-.971a32.456 32.456 0 0 1 47.348-4.644 9.6 9.6 0 0 1 2.313 2.75c.98 1.942.79 4.188.609 6.167v.1a115.766 115.766 0 0 0 1.19 29.58z"/><path data-name="패스 14092" d="M666.255 384.415c-8.623-3.4-18.254-2.941-27.571-2.5-3 .143-6.1.285-9.127.3h-.552a104.045 104.045 0 0 1-54.21-15.218c-3.255-1.98-6.472-4.188-9.593-6.319-8.489-5.815-17.264-11.82-27.333-13.743a37.73 37.73 0 0 0-38.012 16.332l-1.351-.866a39.347 39.347 0 0 1 39.658-17.045c10.393 1.989 19.31 8.09 27.943 14 3.1 2.122 6.3 4.311 9.517 6.272a102.678 102.678 0 0 0 53.923 14.987c2.988-.019 6.072-.162 9.06-.3 9.479-.447 19.292-.9 28.228 2.617l-.59 1.494z"/></g></g><path data-name="패스 14093" d="M334.569 199.919a49.745 49.745 0 0 1-16.427-2.77c-4.949-1.742-7.728-4.673-7.633-8.052a1.204 1.204 0 0 1 2.408.067c-.1 3.3 4.587 5.206 6.024 5.71a48.908 48.908 0 0 0 44.35-6.786 1.204 1.204 0 1 1 1.437 1.932 50.583 50.583 0 0 1-30.17 9.907z" fill="#f9d9b2"/><path data-name="패스 14094" d="M347.693 254.262a1.2 1.2 0 0 1-1.1-.723 92.5 92.5 0 0 0-19.882-29.047 1.205 1.205 0 1 1 1.694-1.713 95.048 95.048 0 0 1 20.4 29.808 1.2 1.2 0 0 1-.628 1.58 1.181 1.181 0 0 1-.476.1z" fill="#f9d9b2"/><path data-name="패스 14095" d="M648.381 34.528a180.676 180.676 0 0 1 1.114 68.61 236.277 236.277 0 0 0 12.9-44.093c.828-4.368 5.025-17.4 2.931-21.3-2.236-4.159-16.693-2.056-16.941-3.217z" fill="#dbb38a"/><path data-name="패스 14096" d="M513.751 365.166c.923 2.655 3.607 4.387 6.348 5.006a29.64 29.64 0 0 0 8.413.152c12.011-.79 25.325 4.235 36.641 2.655-3.2-18.387-58.169-27.276-51.4-7.814z" fill="#dbb38a"/><g data-name="그룹 5312"><path data-name="패스 14097" d="M691.761 236.637c1.085-7.423 1.846-13.372.086-19.777-1.332-4.825-4.4-10.155-9.089-12-18.359-7.233-16.617-14.723-22.918-13.629s-4.33 15.818 1.171 21.623c3.093 3.255 10.631 5.092 10.26 9.574-.181 2.132-1.5 3.978-2.9 5.6a40.731 40.731 0 0 1-16.712 11.5c-.98-9.137.419-20.843-.562-29.979-.39-3.617-.866-7.471-3.188-10.279s-7.167-3.816-9.517-1.037c-1.237 1.456-1.456 3.493-1.627 5.4-1.171 13.134-4.73 28.847-5.9 41.981-3.169-6.053-6.986-12.658-13.515-14.647a7.14 7.14 0 0 0-5.863.409c-2.96 1.884-2.988 6.2-2.151 9.6a33.945 33.945 0 0 0 6.5 13.1c-3.969-1.666-11.63-3.283-16.493-2.674s-12.182 6.434-10.783 9.222 21.385 4.654 26.087 5.682c9.241 2.018 16.341 9.527 25.268 12.629 10.174 3.531 21.823.828 30.674-5.311a49.229 49.229 0 0 0 21.176-36.984z" fill="#cca983"/><path data-name="패스 14098" d="m652.027 222.618-1.57-.029a104.612 104.612 0 0 0-.324-12.43c-.343-3.179-.761-7.138-3.007-9.86a6.914 6.914 0 0 0-4.13-2.322l.247-1.551a8.5 8.5 0 0 1 5.092 2.865c2.541 3.084 3 7.3 3.36 10.688a106.015 106.015 0 0 1 .333 12.62z" fill="#f4c9a2"/><path data-name="패스 14099" d="M665.077 249.381c-2.779.219-16.655 1.5-17.16-2.351s4.721-7.795 3.912-7.49c-.1-.876-.152-1.8-.2-2.722a27.526 27.526 0 0 1-7.9 4.445c-5.149 1.3-7.937-.714-11.83-2.941-.333 2.494-.638 4.949-.857 7.309a57.767 57.767 0 0 0-4.765-7.909c-5.149-7.671-11.935-8.385-14.933-6.367-4.768 3.217-2.474 11.811.847 17.417a33.039 33.039 0 0 0 3.816 5.311c-1.38-.581-.885-.285-.885-.285s-2.246 2.455-11.611 3.131c-8.48.609-12.268-1.437-12.268-1.437s-5.72 3.35-2.084 5.872c3.112 2.16 15.38 3.5 18.264 3.94 2.455.333 4.977.476 7.385 1.009 9.241 2.018 16.341 9.527 25.268 12.629 10.174 3.531 21.823.828 30.674-5.311 6.729-4.663 17.417-16.807 19.7-28.485-10.507 2.417-16.179 3.521-25.382 4.245z" fill="#b78656"/><path data-name="패스 14100" d="M635.952 263.389c-2.617 0-4.968-.495-6.386-2.465-1.8-2.513-1.171-5.044-.381-8.251a34.761 34.761 0 0 0 1.275-8.832h1.57a36.2 36.2 0 0 1-1.313 9.213c-.752 3.036-1.247 5.044.133 6.957 1.608 2.237 5.2 1.922 9 1.58a30.444 30.444 0 0 1 5.777-.152l-.181 1.561a29.75 29.75 0 0 0-5.463.152c-1.351.124-2.722.247-4.026.247z" fill="#a07444"/><path data-name="패스 14101" d="M627.311 263.675a45.233 45.233 0 0 1-13.553-11.154l1.209-.99a43.853 43.853 0 0 0 13.086 10.764z" fill="#a07444"/><path data-name="패스 14102" d="M654.872 251.132a12.611 12.611 0 0 1-4.711-.6 5.028 5.028 0 0 1-3.007-3.188 5.294 5.294 0 0 1 1.085-4 17.224 17.224 0 0 1 4.1-4.34l.942 1.247a15.86 15.86 0 0 0-3.74 3.959 3.718 3.718 0 0 0-.866 2.779c.181.8.914 1.513 2.17 2.132 2.617 1.294 17.007-.447 20.138-1.58a12.853 12.853 0 0 0 7.185-5.7l1.39.733a14.39 14.39 0 0 1-8.033 6.453c-2.37.857-10.945 2.113-16.655 2.113z" fill="#a07444"/><path data-name="패스 14103" d="m653.282 240.254-.942-1.247a18.7 18.7 0 0 1 14.714-3.493l-.3 1.532a17.13 17.13 0 0 0-13.472 3.208z" fill="#f4c9a2"/><path data-name="패스 14104" d="M673.003 227.55a6.859 6.859 0 0 0 .742-6.672 7.855 7.855 0 0 0-3.95-3.626c-1.332-.609-6.091-2.6-7.9-3.35 3.464 2.731 9.574 4.625 9.241 8.661-.181 2.132-1.5 3.978-2.9 5.6a40.569 40.569 0 0 1-3.417 3.474 12.88 12.88 0 0 0 2.408-.343 9.8 9.8 0 0 0 5.767-3.75z" fill="#a07444"/><path data-name="패스 14105" d="M666.273 203.032a.335.335 0 0 1-.114-.019 30.5 30.5 0 0 1-6.71-3.074l-.276-.181c-.6-.381-1.285-.809-1.409-1.608a2.9 2.9 0 0 1 .771-2.065l.171-.228a6.51 6.51 0 0 0 1.133-3.655.386.386 0 0 1 .39-.39.392.392 0 0 1 .39.39 7.236 7.236 0 0 1-1.275 4.092l-.171.247a2.234 2.234 0 0 0-.638 1.485c.067.457.552.752 1.056 1.066l.3.19a30.57 30.57 0 0 0 6.51 2.988.389.389 0 0 1-.114.761z" fill="#a07444"/></g><path data-name="패스 14106" d="M299.051 143.71c-10.355 13.286-15.237 30.189-16.646 46.977s.419 33.662 2.246 50.413a255.616 255.616 0 0 1 54.467-55.1z" fill="none"/></g></g></g></svg>