<svg xmlns="http://www.w3.org/2000/svg" width="967.81" height="382.5"><defs><clipPath id="v"><path data-name="사각형 4226" fill="none" d="M0 0h14.961v119.422H0z"/></clipPath><clipPath id="a"><path data-name="사각형 4247" fill="none" d="M0 0h966v380.69H0z"/></clipPath><clipPath id="c"><path data-name="사각형 4207" fill="none" d="M0 0h68.971v136.087H0z"/></clipPath><clipPath id="d"><path data-name="사각형 4208" fill="none" d="M0 0h32.53v106.212H0z"/></clipPath><clipPath id="e"><path data-name="사각형 4209" fill="none" d="M0 0h264.17v113.474H0z"/></clipPath><clipPath id="f"><path data-name="사각형 4210" fill="none" d="M0 0h254.415v135.24H0z"/></clipPath><clipPath id="g"><path data-name="사각형 4211" fill="none" d="M0 0h28.152v180.885H0z"/></clipPath><clipPath id="h"><path data-name="사각형 4212" fill="none" d="M0 0h194.095v31.588H0z"/></clipPath><clipPath id="i"><path data-name="사각형 4213" fill="none" d="M0 0h52.231v18.226H0z"/></clipPath><clipPath id="j"><path data-name="사각형 4214" fill="none" d="M0 0h58.541v19.663H0z"/></clipPath><clipPath id="k"><path data-name="사각형 4215" fill="none" d="M0 0h44.474v7.757H0z"/></clipPath><clipPath id="l"><path data-name="사각형 4216" fill="none" d="M0 0h47.624v8.137H0z"/></clipPath><clipPath id="m"><path data-name="사각형 4217" fill="none" d="M0 0h41.866v8.499H0z"/></clipPath><clipPath id="n"><path data-name="사각형 4218" fill="none" d="M0 0h16.807v41.885H0z"/></clipPath><clipPath id="o"><path data-name="사각형 4219" fill="none" d="M0 0h9.746v27.229H0z"/></clipPath><clipPath id="p"><path data-name="사각형 4220" fill="none" d="M0 0h39.877v12.848H0z"/></clipPath><clipPath id="q"><path data-name="사각형 4221" fill="none" d="M0 0h74.339v76.519H0z"/></clipPath><clipPath id="r"><path data-name="사각형 4222" fill="none" d="M0 0h71.513v68.486H0z"/></clipPath><clipPath id="s"><path data-name="사각형 4223" fill="none" d="M0 0h70.599v67.896H0z"/></clipPath><clipPath id="t"><path data-name="사각형 4224" fill="none" d="M0 0h124.619v147.451H0z"/></clipPath><clipPath id="u"><path data-name="사각형 4225" fill="none" d="M0 0h71.75v62.557H0z"/></clipPath><clipPath id="b"><path data-name="사각형 4206" fill="none" d="M0 0h26.249v211.901H0z"/></clipPath><clipPath id="w"><path data-name="사각형 4227" fill="none" d="M0 0h49.052v11.278H0z"/></clipPath><clipPath id="x"><path data-name="사각형 4228" fill="none" d="M0 0h73.473v18.368H0z"/></clipPath><clipPath id="y"><path data-name="사각형 4229" fill="none" d="M0 0h259.773v306.255H0z"/></clipPath><clipPath id="z"><path data-name="사각형 4230" fill="none" d="M0 0h44.75v33.501H0z"/></clipPath><clipPath id="A"><path data-name="사각형 4231" fill="none" d="M0 0h78.279v111.38H0z"/></clipPath><clipPath id="B"><path data-name="사각형 4232" fill="none" d="M0 0h65.345v34.662H0z"/></clipPath><clipPath id="C"><path data-name="사각형 4233" fill="none" d="M0 0h16.903v50.004H0z"/></clipPath><clipPath id="D"><path data-name="사각형 4234" fill="none" d="M0 0h45.53v151.058H0z"/></clipPath><clipPath id="E"><path data-name="사각형 4235" fill="none" d="M0 0h224.436v91.499H0z"/></clipPath><clipPath id="F"><path data-name="사각형 4236" fill="none" d="M0 0h130.205v71.598H0z"/></clipPath><clipPath id="G"><path data-name="사각형 4237" fill="none" d="M0 0h10.44v87.149H0z"/></clipPath><clipPath id="H"><path data-name="사각형 4238" fill="none" d="M0 0h19.51v103.3H0z"/></clipPath><clipPath id="I"><path data-name="사각형 4239" fill="none" d="M0 0h27.6v112.189H0z"/></clipPath><clipPath id="J"><path data-name="사각형 4240" fill="none" d="M0 0h15.142v45.968H0z"/></clipPath><clipPath id="K"><path data-name="사각형 4241" fill="none" d="M0 0h12.239v37.079H0z"/></clipPath><clipPath id="L"><path data-name="사각형 4242" fill="none" d="M0 0h96.029v25.392H0z"/></clipPath><clipPath id="M"><path data-name="사각형 4243" fill="none" d="M0 0h51.622v35.471H0z"/></clipPath><clipPath id="N"><path data-name="사각형 4244" fill="none" d="M0 0h108.963v23.831H0z"/></clipPath><clipPath id="O"><path data-name="사각형 4245" fill="none" d="M0 0h125.114v28.323H0z"/></clipPath><clipPath id="P"><path data-name="사각형 4246" fill="none" d="M0 0h109.772v25.068H0z"/></clipPath></defs><g data-name="그룹 5250"><path data-name="사각형 4205" fill="#f7f7f7" stroke="#6d6d6d" stroke-miterlimit="10" stroke-width="1.81" d="M.905.905h966v380.69h-966z"/><g data-name="그룹 5249" clip-path="url(#a)" transform="translate(.905 .905)"><g data-name="그룹 5248"><path data-name="패스 13799" d="M582.893-64.908c-4.321 0-7.985-2.627-9-3.436-5.558-4.378-6.434-11.544-6.776-14.238-3.693-29.96-.952-44-.838-44.579 3.3-16.236 5.825-30.008 7.852-41.076 6.129-33.434 8.423-45.949 17.131-46.949a8.835 8.835 0 0 1 1.009-.057 13.942 13.942 0 0 1 8.9 3.731c6.139 5.72 4.625 16.179 4.054 20.119-2.218 15.313-5.825 26.525-9 36.422-3.636 11.3-6.776 21.062-6.767 33.662 0 17.873 0 26.848 2.189 33.244a24.985 24.985 0 0 1 1.256 9.374c-.171 2.779-.628 10.164-5.977 12.848a8.909 8.909 0 0 1-4.026.923" fill="#d49871"/><path data-name="패스 13800" d="M592.267-213.253a12 12 0 0 1 7.547 3.207c5.234 4.873 4.083 13.981 3.445 18.378-4.73 32.682-15.8 46.292-15.8 70.361 0 18.121 0 27.181 2.294 33.891a22.689 22.689 0 0 1 1.152 8.613c-.162 2.627-.552 9.022-4.882 11.2a6.864 6.864 0 0 1-3.141.714 13.534 13.534 0 0 1-7.776-3.007c-4.8-3.788-5.672-9.993-6.034-12.924-3.693-29.989-.866-43.941-.866-43.941 12.553-61.786 13.419-85.313 23.26-86.445a7.011 7.011 0 0 1 .78-.048m.019-3.969a10.531 10.531 0 0 0-1.237.076c-6.71.771-9.631 7.49-11.6 13.952-2.284 7.509-4.368 18.873-7.252 34.6-2.027 11.059-4.549 24.821-7.842 41.038-.124.6-2.922 14.942.809 45.216.362 2.912 1.313 10.669 7.509 15.551 1.152.9 5.282 3.864 10.241 3.864a10.841 10.841 0 0 0 4.92-1.133c6.367-3.207 6.871-11.411 7.062-14.5a26.923 26.923 0 0 0-1.344-10.123c-2.084-6.11-2.084-14.971-2.094-32.625 0-12.3 3.093-21.918 6.672-33.053 3.207-9.965 6.843-21.262 9.079-36.746.609-4.216 2.237-15.427-4.673-21.852a15.778 15.778 0 0 0-10.25-4.273"/><path data-name="패스 13801" d="M426.287-65.222c-4.121 0-7.224-1.19-8.975-3.455-1.675-2.151-1.742-4.682-1.561-7.109.495-6.786 2.931-11.621 4.892-15.5.476-.942.923-1.827 1.313-2.684 2.417-5.349 2.417-10.488 2.408-20.719 0-6.205-.895-11.64-4.549-27.7-1.056-4.663-2.217-9.222-3.341-13.629-2.779-10.916-5.644-22.194-7.6-37.108l-.124-.952c-.742-5.482-1.751-12.982 2.884-18.4a16.954 16.954 0 0 1 12.182-5.587c.219 0 .438 0 .647.019 4.2.247 8.366 3.055 12.382 8.356 14.609 19.253 24.345 67.039 15.58 107.5-2.731 12.582-9.175 34.053-21.652 36.565a23.719 23.719 0 0 1-4.473.428z" fill="#d49871"/><path data-name="패스 13802" d="M423.813-216.098a4.724 4.724 0 0 1 .523.019c17.978 1.066 37.279 62.071 26.134 113.446-1.056 4.873-7.033 32.416-20.1 35.033a22 22 0 0 1-4.073.39c-2.579 0-5.72-.514-7.414-2.684-1.228-1.58-1.313-3.55-1.152-5.739.59-8.023 4.083-13.2 6.034-17.521 2.589-5.739 2.589-11 2.589-21.538 0-6.586-1.028-12.458-4.6-28.142-3.655-16.075-8.166-29.665-10.916-50.546-.7-5.33-2.018-12.772 2.294-17.807a15.084 15.084 0 0 1 10.678-4.9m0-3.978a19.073 19.073 0 0 0-13.7 6.281c-5.225 6.091-4.092 14.438-3.35 19.958l.124.952c1.98 15.028 4.863 26.363 7.652 37.336 1.123 4.4 2.275 8.937 3.331 13.581 3.617 15.894 4.492 21.242 4.492 27.267 0 10.269 0 14.952-2.227 19.9-.362.8-.809 1.675-1.275 2.608-2.037 4.045-4.578 9.079-5.1 16.255-.2 2.684-.114 5.777 1.97 8.47 1.494 1.922 4.54 4.226 10.545 4.226a26.634 26.634 0 0 0 4.863-.466c12.905-2.6 19.739-22.147 23.2-38.088 8.889-40.991-1.066-89.51-15.932-109.115-4.378-5.777-9.041-8.851-13.848-9.137-.247-.019-.495-.019-.761-.019"/><path data-name="패스 13803" d="M791.663 260.382c-4.54-19.577-4.359-34.024-4.6-43.085-1.161-43.713-14.438-46.568-33.891-131.538-6.871-30.017-8.232-42.866-19.529-60.891a136.158 136.158 0 0 0-71.227-55.714c-15.418-5.948-26.639-9.888-34.3-12.458-16.1-5.406-18.882-5.587-23.717-8.794a20.576 20.576 0 0 0-8.042-3.445 20.964 20.964 0 0 0-10.583.971 135.209 135.209 0 0 0-3.2 5.929c-12.468 24.535-11.982 42.009-18.378 78.118-3.226 18.168-6.462 31.35-10.336 47.1-7.471 30.341-11.2 45.521-16.084 56.866-14.476 33.653-51.764 72.721-102.244 78.118-29.056 3.112-53.287-5.92-68.315-13.657l-3.483-20.234a31.338 31.338 0 0 0-2.294 15.513c1.075 8.851 5.872 12.477 8.975 22.48a50.359 50.359 0 0 1 2.027 18.682 57.386 57.386 0 0 0-.666 15.123c.438 5 1.123 5.139 1.152 8.613.076 8.851-4.283 10.088-4.6 18.378-.257 7 2.741 9.07.571 13.21-1.865 3.578-4.854 3.483-5.748 6.89-.933 3.578 2.084 4.7 2.294 9.765.181 4.311-1.97 4.654-3.445 12.058-1.047 5.254 0 5.263-1.152 8.613-1.9 5.577-4.9 5.891-5.748 10.336-.876 4.663 2.1 6.053 1.152 9.194-1.732 5.72-12.5 3.969-17.807 9.194-3.769 3.7-5.748 11.858 1.152 31.017q161.988-3.155 323.967-6.319 98.218 13.219 196.445 26.42a116.651 116.651 0 0 0-70.646-32.168 31.988 31.988 0 0 0-8.042-13.781 32.69 32.69 0 0 0-18.958-9.194q22.97-23.555 45.949-47.1a180.466 180.466 0 0 1-16.655-44.227" fill="#d49871"/><path data-name="패스 13804" d="M791.663 260.382c-4.54-19.577-4.359-34.024-4.6-43.085-1.161-43.713-14.438-46.568-33.891-131.538-6.871-30.017-8.232-42.866-19.529-60.891a136.158 136.158 0 0 0-71.227-55.714c-15.418-5.948-26.639-9.888-34.3-12.458-16.1-5.406-18.882-5.587-23.717-8.794a20.576 20.576 0 0 0-8.042-3.445 20.964 20.964 0 0 0-10.583.971 135.209 135.209 0 0 0-3.2 5.929c-12.468 24.535-11.982 42.009-18.378 78.118-3.226 18.168-6.462 31.35-10.336 47.1-7.471 30.341-11.2 45.521-16.084 56.866-14.476 33.653-51.764 72.721-102.244 78.118-29.056 3.112-53.287-5.92-68.315-13.657l-3.483-20.234a31.338 31.338 0 0 0-2.294 15.513c1.075 8.851 5.872 12.477 8.975 22.48a50.359 50.359 0 0 1 2.027 18.682 57.386 57.386 0 0 0-.666 15.123c.438 5 1.123 5.139 1.152 8.613.076 8.851-4.283 10.088-4.6 18.378-.257 7 2.741 9.07.571 13.21-1.865 3.578-4.854 3.483-5.748 6.89-.933 3.578 2.084 4.7 2.294 9.765.181 4.311-1.97 4.654-3.445 12.058-1.047 5.254 0 5.263-1.152 8.613-1.9 5.577-4.9 5.891-5.748 10.336-.876 4.663 2.1 6.053 1.152 9.194-1.732 5.72-12.5 3.969-17.807 9.194-3.769 3.7-5.748 11.858 1.152 31.017q161.988-3.155 323.967-6.319 98.218 13.219 196.445 26.42a116.651 116.651 0 0 0-70.646-32.168 31.988 31.988 0 0 0-8.042-13.781 32.69 32.69 0 0 0-18.958-9.194q22.97-23.555 45.949-47.1a180.466 180.466 0 0 1-16.655-44.227z" fill="none" stroke="#000" stroke-linecap="round" stroke-linejoin="round" stroke-width="4.17"/><path data-name="패스 13805" d="M439.963-93.535a58.889 58.889 0 0 1-6.053 14.133 52.232 52.232 0 0 1-10.183 12 20.79 20.79 0 0 0 6.643-.19c13.077-2.627 19.044-30.16 20.1-35.042a146.82 146.82 0 0 0 3.007-22.451q-4.54 4.668-9.06 9.346a102.982 102.982 0 0 1-4.445 22.2" fill="#774e36"/><g data-name="그룹 5207" transform="translate(662.286 61.376)" clip-path="url(#b)"><path data-name="패스 13806" d="M24.259 1.989A153.792 153.792 0 0 0 5.881 45.645c-6.186 25.087-3.778 43.6-1.152 75.243 1.7 20.538 3.864 50.927 5.168 89.034" fill="none" stroke="#774e36" stroke-linecap="round" stroke-linejoin="round" stroke-width="4.17"/></g><path data-name="패스 13807" d="M557.882-300.231c-25.031-27.124-77.014-26.135-101.092 1.151-11.7 13.248-13.876 29.37-14.362 37.336q65.483.857 130.967 1.723c-.428-8.756-2.665-26.287-15.513-40.21" fill="#d49871"/><path data-name="패스 13808" d="M557.882-300.231c-25.031-27.124-77.014-26.135-101.092 1.151-11.7 13.248-13.876 29.37-14.362 37.336q65.483.857 130.967 1.723c-.429-8.756-2.665-26.286-15.513-40.21z" fill="none" stroke="#000" stroke-linecap="round" stroke-linejoin="round" stroke-width="4.17"/><g data-name="그룹 5208" transform="translate(674.135 78.612)" clip-path="url(#c)"><path data-name="패스 13809" d="M66.982 1.98C49.442 8.499 20.1 22.851 9.545 50.803c-3.864 10.221-4.9 21.452-6.319 36.765a289.918 289.918 0 0 0-.571 46.53" fill="none" stroke="#774e36" stroke-linecap="round" stroke-linejoin="round" stroke-width="4.17"/></g><g data-name="그룹 5209" transform="translate(679.55 160.755)" clip-path="url(#d)"><path data-name="패스 13810" d="M30.55 1.98a53.932 53.932 0 0 0-13.781 11.487C5.069 27.181 3.711 43.351 2.407 61.719a172.891 172.891 0 0 0 2.294 42.5" fill="none" stroke="#774e36" stroke-linecap="round" stroke-linejoin="round" stroke-width="4.17"/></g><path data-name="패스 13811" d="M340.755 308.635c2.113-19.13 5.006-45.093 8.527-75.967 5.006-43.979 8.689-75.243 11-75.1.752.048.914 3.379 2.294 13.21a463.451 463.451 0 0 0 4.635 27.124c15.028 7.738 39.259 16.76 68.315 13.657 50.479-5.4 87.759-44.464 102.244-78.117 4.882-11.354 8.613-26.525 16.084-56.866 3.873-15.751 7.119-28.932 10.336-47.1 6.4-36.108 5.92-53.582 18.378-78.118 1.095-2.151 2.17-4.13 3.2-5.929-.371-.076-.752-.152-1.133-.228.076-.057.162-.114.228-.162a26.888 26.888 0 0 1-17.236-8.042c-9.479-10.031-6.576-23.565-6.319-24.7a151.24 151.24 0 0 0-112.579-4.026c.562 1.656 4.13 12.744-2.294 23.555a28.436 28.436 0 0 1-14.933 12.068c.076.057.162.114.238.171a391.234 391.234 0 0 0-67.487 19.539c-17.255 5.3-41.143 15.523-61.415 36.575-28.371 29.456-35.614 65.545-42.5 135.564-4.911 49.937-9.289 112.294-9.765 186.681" fill="#d49871"/><path data-name="패스 13812" d="M340.755 308.635c2.113-19.13 5.006-45.093 8.527-75.967 5.006-43.979 8.689-75.243 11-75.1.752.048.914 3.379 2.294 13.21a463.451 463.451 0 0 0 4.635 27.124c15.028 7.738 39.259 16.76 68.315 13.657 50.479-5.4 87.759-44.464 102.244-78.117 4.882-11.354 8.613-26.525 16.084-56.866 3.873-15.751 7.119-28.932 10.336-47.1 6.4-36.108 5.92-53.582 18.378-78.118 1.095-2.151 2.17-4.13 3.2-5.929-.371-.076-.752-.152-1.133-.228.076-.057.162-.114.228-.162a26.888 26.888 0 0 1-17.236-8.042c-9.479-10.031-6.576-23.565-6.319-24.7a151.24 151.24 0 0 0-112.579-4.026c.562 1.656 4.13 12.744-2.294 23.555a28.436 28.436 0 0 1-14.933 12.068c.076.057.162.114.238.171a391.234 391.234 0 0 0-67.487 19.539c-17.255 5.3-41.143 15.523-61.415 36.575-28.371 29.456-35.614 65.545-42.5 135.564-4.911 49.937-9.289 112.294-9.765 186.681" fill="none" stroke="#000" stroke-linecap="round" stroke-linejoin="round" stroke-width="4.17"/><g data-name="그룹 5210" transform="translate(362.321 238.292)" clip-path="url(#e)"><path data-name="패스 13813" d="M1.989 105.384c64.784 11.525 114.007 4.426 143.025-2.294 29.5-6.833 43.913-14.618 51.117-18.958 40.458-24.326 58.626-62.823 66.059-82.143" fill="none" stroke="#774e36" stroke-linecap="round" stroke-linejoin="round" stroke-width="4.17"/></g><g data-name="그룹 5211" transform="translate(362.892 176.259)" clip-path="url(#f)"><path data-name="패스 13814" d="M1.989 126.627c30.807 6.757 74.587 11.164 123.5-1.152 26.03-6.548 56.742-14.285 84.437-41.352 30.75-30.055 39.62-66.2 42.5-82.143" fill="none" stroke="#774e36" stroke-linecap="round" stroke-linejoin="round" stroke-width="4.17"/></g><path data-name="패스 13815" d="M569.083-96.609c-16.417 21.614-47.034 32.482-75.243 28.142-4.4-.676-31.264-5.215-49.975-28.142-7.328-8.984-8.927-7.842-19.815-70.361-8.537-49.033-7.433-61.215-2.294-73.521a76.525 76.525 0 0 1 20.681-28.142c34.367-30.1 97.9-32.673 131.538 0a76.748 76.748 0 0 1 17.234 25.848c7.167 17.769 4.977 31.959-6.891 90.176-10.25 50.261-9.222 48.11-15.218 56.009" fill="#d49871"/><path data-name="패스 13816" d="M569.083-96.609c-16.417 21.614-47.034 32.482-75.243 28.142-4.4-.676-31.264-5.215-49.975-28.142-7.328-8.984-8.927-7.842-19.815-70.361-8.537-49.033-7.433-61.215-2.294-73.521a76.525 76.525 0 0 1 20.681-28.142c34.367-30.1 97.9-32.673 131.538 0a76.748 76.748 0 0 1 17.234 25.848c7.167 17.769 4.977 31.959-6.891 90.176-10.25 50.261-9.222 48.11-15.218 56.009z" fill="none" stroke="#000" stroke-linecap="round" stroke-linejoin="round" stroke-width="4.17"/><g data-name="그룹 5212" transform="translate(629.366 98.713)" clip-path="url(#g)"><path data-name="패스 13817" d="M26.163 1.989a331.368 331.368 0 0 1-6.319 51.7C13.772 83.63 7.186 94.918 3.76 119.168a193.312 193.312 0 0 0 1.152 59.74" fill="none" stroke="#774e36" stroke-linecap="round" stroke-linejoin="round" stroke-width="4.17"/></g><path data-name="패스 13818" d="M462.529 455.105c83.314-40.877 153.713-56.818 198.168-63.756 31.416-4.911 61.919-4.416 122.925-3.445 30.265.485 54.819 1.884 76.395 18.958 5.177 4.092 19.691 16.608 26.42 36.765 10.812 32.349-2.76 71.351-33.32 99.95a1551.342 1551.342 0 0 1-192.432-1.151 1549.95 1549.95 0 0 1-201.042-27q1.442-30.151 2.874-60.311" fill="#d49871"/><path data-name="패스 13819" d="M462.529 455.105c83.314-40.877 153.713-56.818 198.168-63.756 31.416-4.911 61.919-4.416 122.925-3.445 30.265.485 54.819 1.884 76.395 18.958 5.177 4.092 19.691 16.608 26.42 36.765 10.812 32.349-2.76 71.351-33.32 99.95a1551.342 1551.342 0 0 1-192.432-1.151 1549.95 1549.95 0 0 1-201.042-27q1.442-30.151 2.874-60.311z" fill="none" stroke="#000" stroke-linecap="round" stroke-linejoin="round" stroke-width="4.17"/><path data-name="패스 13820" d="M716.468 264.246c-9.936.923-17.854 1.913-24.212 2.893-5.444.838-9.736 1.666-13.172 2.436-37.679 8.461-31.921 7.281-38.84 7.471-2.589.067-8.156.038-13.429 3.445-3.312 2.141-3.274 3.55-5.748 4.6-5.644 2.389-11.24-2.665-18.378-5.168-5.063-1.77-12.829-2.941-24.126.571a29.66 29.66 0 0 0-9.194 6.891c-10.45 11.535-18.682 53.734-1.723 77.546 41.019 57.589 206.039-5.282 226.891-29.875a72.042 72.042 0 0 0 11.487-20.681c2.379-6.576 6.6-18.273 1.152-25.849-2.141-2.979-4.216-1.923-6.319-5.168-3.226-5-.238-9.336-2.874-15.5a17.71 17.71 0 0 0-6.319-7.471" fill="#d49871"/><path data-name="패스 13821" d="M716.468 264.246c-9.936.923-17.854 1.913-24.212 2.893-5.444.838-9.736 1.666-13.172 2.436-37.679 8.461-31.921 7.281-38.84 7.471-2.589.067-8.156.038-13.429 3.445-3.312 2.141-3.274 3.55-5.748 4.6-5.644 2.389-11.24-2.665-18.378-5.168-5.063-1.77-12.829-2.941-24.126.571a29.66 29.66 0 0 0-9.194 6.891c-10.45 11.535-18.682 53.734-1.723 77.546 41.019 57.589 206.039-5.282 226.891-29.875a72.042 72.042 0 0 0 11.487-20.681c2.379-6.576 6.6-18.273 1.152-25.849-2.141-2.979-4.216-1.923-6.319-5.168-3.226-5-.238-9.336-2.874-15.5a17.71 17.71 0 0 0-6.319-7.471" fill="none" stroke="#000" stroke-linecap="round" stroke-linejoin="round" stroke-width="4.17"/><g data-name="그룹 5213" transform="translate(362.321 300.326)" clip-path="url(#h)"><path data-name="패스 13822" d="M1.989 19.796a268.006 268.006 0 0 0 76.395 9.765A270.884 270.884 0 0 0 192.115 1.989" fill="none" stroke="#774e36" stroke-linecap="round" stroke-linejoin="round" stroke-width="4.17"/></g><path data-name="패스 13823" d="M250.58 322.415a86.5 86.5 0 0 0 4.026 15.513c3.036 8.956 13.771 40.325 41.933 50.546 3.15 1.142 26.915 9.774 42.5-3.445 14.676-12.449 11.63-35.366 10.916-40.781a58.9 58.9 0 0 0-8.613-23.546v-15.513" fill="#d49871"/><path data-name="패스 13824" d="M250.58 322.415a86.5 86.5 0 0 0 4.026 15.513c3.036 8.956 13.771 40.325 41.933 50.546 3.15 1.142 26.915 9.774 42.5-3.445 14.676-12.449 11.63-35.366 10.916-40.781a58.9 58.9 0 0 0-8.613-23.546v-15.513" fill="none" stroke="#000" stroke-linecap="round" stroke-linejoin="round" stroke-width="4.17"/><path data-name="패스 13825" d="M505.042-285.869c-5.016-.181-10.907 2.446-10.916 5.168 0 2.579 5.234 5.158 9.765 5.168 4.977.019 10.5-3.065 10.336-5.748-.152-2.5-5.234-4.454-9.194-4.6" fill="#774e36"/><path data-name="패스 13826" d="M509.021-219.116c-5.653-.495-9.232 4.226-9.689 4.844-3.026 4.13-3.321 10.326 0 14.533.523.666 3.226 3.921 7.271 4.035 6.7.19 13.591-8.337 11.659-15.5a10.933 10.933 0 0 0-9.232-7.918" fill="#774e36"/><g data-name="그룹 5214" transform="translate(445.607 -207.904)" clip-path="url(#i)"><path data-name="패스 13827" d="M1.989 4.168a76.553 76.553 0 0 1 13.5-2.008 63.288 63.288 0 0 1 12.353.286c10.4 1.627 18.111 8.813 22.4 13.781" fill="none" stroke="#774e36" stroke-linecap="round" stroke-linejoin="round" stroke-width="4.17"/></g><g data-name="그룹 5215" transform="translate(515.111 -209.922)" clip-path="url(#j)"><path data-name="패스 13828" d="M56.559 9.061a30.1 30.1 0 0 0-10.336-5.748 31.4 31.4 0 0 0-12.639-1.152 42.579 42.579 0 0 0-15.218 4.311 56.1 56.1 0 0 0-8.042 4.6 66.606 66.606 0 0 0-8.328 6.6" fill="none" stroke="#774e36" stroke-linecap="round" stroke-linejoin="round" stroke-width="4.17"/></g><g data-name="그룹 5216" transform="translate(447.624 -185.348)" clip-path="url(#k)"><path data-name="패스 13829" d="M1.98 2.009c2.179-.029 5.349-.048 9.194 0a65.617 65.617 0 0 1 7.757.286c5.72 1 6.024 3.179 10.916 3.445 2.16.114 2.455-.286 6.6-.286 2.57 0 4.663.152 6.034.286" fill="none" stroke="#774e36" stroke-linecap="round" stroke-linejoin="round" stroke-width="4.17"/></g><g data-name="그룹 5217" transform="translate(520.86 -185.406)" clip-path="url(#l)"><path data-name="패스 13830" d="M1.989 5.225a87.485 87.485 0 0 0 10.05.866 57.03 57.03 0 0 0 9.479-.286c6.557-.847 7.88-2.589 13.781-3.445a36.627 36.627 0 0 1 10.336 0" fill="none" stroke="#774e36" stroke-linecap="round" stroke-linejoin="round" stroke-width="4.17"/></g><g data-name="그룹 5218" transform="translate(485.294 -143.33)" clip-path="url(#m)"><path data-name="패스 13831" d="M1.98 1.989a12.786 12.786 0 0 0 7.138 3.95c5.054.752 7.033-2.827 12.639-2.294 4.387.419 5.073 2.8 9.194 2.874a14.127 14.127 0 0 0 8.939-3.51" fill="none" stroke="#774e36" stroke-linecap="round" stroke-linejoin="round" stroke-width="4.17"/></g><g data-name="그룹 5219" transform="translate(483.904 -154.018)" clip-path="url(#n)"><path data-name="패스 13832" d="M14.819 1.98a15.107 15.107 0 0 0-9.194 4.6c-2.2 2.5-3.026 5.53-3.445 12.639A122.334 122.334 0 0 0 2.751 39.9" fill="none" stroke="#774e36" stroke-linecap="round" stroke-linejoin="round" stroke-width="4.17"/></g><g data-name="그룹 5220" transform="translate(519.137 -154.018)" clip-path="url(#o)"><path data-name="패스 13833" d="M1.989 1.98A33.038 33.038 0 0 1 6.3 10.888 33.421 33.421 0 0 1 7.452 25.25" fill="none" stroke="#774e36" stroke-linecap="round" stroke-linejoin="round" stroke-width="4.17"/></g><g data-name="그룹 5221" transform="translate(489.262 -121.859)" clip-path="url(#p)"><path data-name="패스 13834" d="M1.989 1.989c2.969 5.977 6.205 7.937 8.613 8.613 2.313.647 3.036-.1 9.479-.286 6.643-.19 7.576.571 10.05-.286 2.237-.771 5.158-2.665 7.757-7.757" fill="none" stroke="#774e36" stroke-linecap="round" stroke-linejoin="round" stroke-width="4.17"/></g><path data-name="패스 13835" d="M430.655-156.918c.59-16.646.952-28.571 1.152-35.042.523-17.635.695-26.039 6.89-32.739 4.169-4.5 10.8-6.643 12.353-7.176a38.574 38.574 0 0 1 14.076-2.008c20.671.485 41.362-.552 62.033 0 23.279.619 29.932.343 38.773 5.453 3.16 1.827 10.269 6.062 14.362 14.362 3.084 6.243 2.722 11.287 2.589 23.26-.086 7.1-.1 17.616.285 30.731" fill="none" stroke="#000" stroke-linecap="round" stroke-linejoin="round" stroke-width="4.17"/><g data-name="그룹 5222" transform="translate(590.069 278.912)" clip-path="url(#q)"><path data-name="패스 13836" d="M1.98 1.98a41.123 41.123 0 0 1 14.086 8.784c15.418 14.913 9.06 34.224 20.681 48.823 4.978 6.253 14.666 13.419 35.614 14.933" fill="none" stroke="#774e36" stroke-linecap="round" stroke-linejoin="round" stroke-width="4.17"/></g><path data-name="패스 13837" d="M585.453 366.652c-10.526-.01-22.594-26.686-17.807-48.823 1.561-7.2 6.453-21.081 14.362-21.823 9.241-.876 19.882 16.455 21.252 32.168 1.57 17.969-8.565 38.5-17.807 38.488" fill="#774e36"/><path data-name="패스 13838" d="M585.453 366.652c-10.526-.01-22.594-26.686-17.807-48.823 1.561-7.2 6.453-21.081 14.362-21.823 9.241-.876 19.882 16.455 21.252 32.168 1.57 17.969-8.565 38.5-17.807 38.488z" fill="none" stroke="#774e36" stroke-linecap="round" stroke-linejoin="round" stroke-width="4.17"/><path data-name="패스 13839" d="M290.209 327.012c-1.608.562-14.714 5.377-19.529 19.529-4.349 12.782 1.342 23.536 2.294 25.278" fill="none" stroke="#000" stroke-linecap="round" stroke-linejoin="round" stroke-width="4.17"/><path data-name="패스 13840" d="M294.692 331.609c-9.4 7.966-13.971 19.92-11.487 31.017 3.407 15.228 19.339 25.535 32.168 23.555.742-.114 11.049-1.846 14.362-9.194 2.57-5.71-3.569-11.687 0-17.807 1.161-2 2.094-1.97 3.445-4.6a18.766 18.766 0 0 0 1.723-10.336c-.676-8.489-6.205-14.3-8.042-16.084l8.042-13.781a12.325 12.325 0 0 0-5.739-1.152c-4.606.257-5.882 3.236-8.613 2.874-4.207-.562-3.588-7.947-9.194-10.916-4.587-2.427-11.573-.942-13.21 2.294-1.294 2.56 1.247 5.215 0 10.916-.238 1.075-.133 2.541-1.152 3.445-1.351 1.19-3.084.314-4.026 1.152-.847.752-.99 2.874 1.723 8.613" fill="#774e36"/><path data-name="패스 13841" d="M294.692 331.609c-9.4 7.966-13.971 19.92-11.487 31.017 3.407 15.228 19.339 25.535 32.168 23.555.742-.114 11.049-1.846 14.362-9.194 2.57-5.71-3.569-11.687 0-17.807 1.161-2 2.094-1.97 3.445-4.6a18.766 18.766 0 0 0 1.723-10.336c-.676-8.489-6.205-14.3-8.042-16.084l8.042-13.781a12.325 12.325 0 0 0-5.739-1.152c-4.606.257-5.882 3.236-8.613 2.874-4.207-.562-3.588-7.947-9.194-10.916-4.587-2.427-11.573-.942-13.21 2.294-1.294 2.56 1.247 5.215 0 10.916-.238 1.075-.133 2.541-1.152 3.445-1.351 1.19-3.084.314-4.026 1.152-.847.752-.99 2.874 1.723 8.613z" fill="none" stroke="#774e36" stroke-linecap="round" stroke-linejoin="round" stroke-width="4.17"/><path data-name="패스 13842" d="M775.008 375.836c-8.309-7.471-19.71-7.909-26.42-7.471a178.523 178.523 0 0 0-25.278-8.042c-31.15-7.414-49.014-2.693-89.034-6.319a388.554 388.554 0 0 1-33.891-4.6c-1.875-.247-11.278-1.285-18.958 5.168a23.108 23.108 0 0 0-6.319 8.613q-43.085 2.013-86.16 4.016v105.696a7911.582 7911.582 0 0 1 69.5-39.63c44.112-24.869 53.1-29.389 67.2-33.891 27.21-8.68 50.832-9.841 71.227-10.916 43.323-2.275 64.984-3.407 70.646-2.294 2.646.514 11.64 2.417 13.21-.571 1.608-3.055-5.444-9.489-5.748-9.765" fill="#d49871"/><path data-name="패스 13843" d="M775.008 375.836c-8.309-7.471-19.71-7.909-26.42-7.471a178.523 178.523 0 0 0-25.278-8.042c-31.15-7.414-49.014-2.693-89.034-6.319a388.554 388.554 0 0 1-33.891-4.6c-1.875-.247-11.278-1.285-18.958 5.168a23.108 23.108 0 0 0-6.319 8.613q-43.085 2.013-86.16 4.016v105.696a7911.582 7911.582 0 0 1 69.5-39.63c44.112-24.869 53.1-29.389 67.2-33.891 27.21-8.68 50.832-9.841 71.227-10.916 43.323-2.275 64.984-3.407 70.646-2.294 2.646.514 11.64 2.417 13.21-.571 1.608-3.055-5.444-9.489-5.748-9.765z" fill="none" stroke="#000" stroke-linecap="round" stroke-linejoin="round" stroke-width="4.17"/><path data-name="패스 13844" d="M530.31 359.761c-3.8-4.54-11.135-3.778-23.546-2.294-32.406 3.854-69.162 8.994-84.437 10.916-5.063.638-9.584 1.2-15.865 1.8-4.768.457-22.08 2.018-49.061 2.37-10.6.143-34.681.247-41.343 6.748a11.3 11.3 0 0 1-4.6 2.874c-4.949 1.542-9.8-1.152-10.916-1.723-8.052-4.14-25.868-2.95-44.227-1.723-21.925 1.466-44.725 2.646-63.182 17.807-29.865 24.536-29.418 65.812-29.294 70.646.838 32.444 18.768 65.431 46.53 79.84 22.565 11.716 28.476-5.177 89.6-2.874 37.07 1.4 46.073 7.566 64.908-.571 17.7-7.652 24.926-19.663 43.085-18.958 11.621.457 16.589 5.682 28.723 2.874 10.107-2.341 12.962-9.574 22.4-9.194 7.29.3 9.3 4.349 14.933 3.445 8.033-1.285 12.763-10.926 14.933-15.513 19.092-40.258 30.665-90.328 38.488-120.622 2.027-7.842 8.128-19.577 2.874-25.849" fill="#d49871"/><path data-name="패스 13845" d="M530.31 359.761c-3.8-4.54-11.135-3.778-23.546-2.294-32.406 3.854-69.162 8.994-84.437 10.916-5.063.638-9.584 1.2-15.865 1.8-4.768.457-22.08 2.018-49.061 2.37-10.6.143-34.681.247-41.343 6.748a11.3 11.3 0 0 1-4.6 2.874c-4.949 1.542-9.8-1.152-10.916-1.723-8.052-4.14-25.868-2.95-44.227-1.723-21.925 1.466-44.725 2.646-63.182 17.807-29.865 24.536-29.418 65.812-29.294 70.646.838 32.444 18.768 65.431 46.53 79.84 22.565 11.716 28.476-5.177 89.6-2.874 37.07 1.4 46.073 7.566 64.908-.571 17.7-7.652 24.926-19.663 43.085-18.958 11.621.457 16.589 5.682 28.723 2.874 10.107-2.341 12.962-9.574 22.4-9.194 7.29.3 9.3 4.349 14.933 3.445 8.033-1.285 12.763-10.926 14.933-15.513 19.092-40.258 30.665-90.328 38.488-120.622 2.027-7.842 8.128-19.577 2.874-25.849z" fill="none" stroke="#000" stroke-linecap="round" stroke-linejoin="round" stroke-width="4.17"/><g data-name="그룹 5223" transform="translate(617.602 285.793)" clip-path="url(#r)"><path data-name="패스 13846" d="M1.98 1.989a379.188 379.188 0 0 1 14.124 19.13c14.428 20.919 17.2 29.513 27.571 36.765 5.073 3.54 13.191 7.623 25.849 8.613" fill="none" stroke="#774e36" stroke-linecap="round" stroke-linejoin="round" stroke-width="4.17"/></g><g data-name="그룹 5224" transform="translate(629.984 278.912)" clip-path="url(#s)"><path data-name="패스 13847" d="M1.989 1.98a535.525 535.525 0 0 1 20.11 24.3c11.126 14.276 14.6 20.253 22.975 27a74.306 74.306 0 0 0 23.555 12.639" fill="none" stroke="#774e36" stroke-linecap="round" stroke-linejoin="round" stroke-width="4.17"/></g><g data-name="그룹 5225" transform="translate(323.263 369.259)" clip-path="url(#t)"><path data-name="패스 13848" d="M1.989 87.569c1.6 4.292 16.76 42.885 58.017 54.572 26.3 7.443 61.691 1.1 62.614-6.319.162-1.323-.809-2.379-1.723-3.445-7.128-8.328-9.926-19.548-14.933-29.294-1.913-3.731-30.113-60.149-7.471-93.631a46 46 0 0 1 6.319-7.471" fill="none" stroke="#774e36" stroke-linecap="round" stroke-linejoin="round" stroke-width="4.17"/></g><g data-name="그룹 5226" transform="translate(299.136 481.268)" clip-path="url(#u)"><path data-name="패스 13849" d="M1.989 1.989a111.8 111.8 0 0 0 36.765 43.656 109.12 109.12 0 0 0 31.017 14.933" fill="none" stroke="#774e36" stroke-linecap="round" stroke-linejoin="round" stroke-width="4.17"/></g><g data-name="그룹 5227" transform="translate(443.818 373.856)" clip-path="url(#v)"><path data-name="패스 13850" d="M12.969 1.98a135.359 135.359 0 0 0-9.194 31.017C.996 49.386 1.967 62.186 3.204 77.224a277.045 277.045 0 0 0 6.319 40.21" fill="none" stroke="#774e36" stroke-linecap="round" stroke-linejoin="round" stroke-width="4.17"/></g><path data-name="패스 13851" d="M327.545 322.415a25.613 25.613 0 0 1 21.252 16.655" fill="#d49871"/><path data-name="패스 13852" d="M327.545 322.415a25.613 25.613 0 0 1 21.252 16.655" fill="none" stroke="#000" stroke-linecap="round" stroke-linejoin="round" stroke-width="4.17"/><g data-name="그룹 5228" transform="translate(483.238 -127.731)" clip-path="url(#w)"><path data-name="패스 13853" d="m2.56 9.298-.571-3.445c35.09.333 45.083.1 45.093-.286 0-.219-3.245-.057-8.328-1.437-4.844-1.313-5.929-2.56-8.328-2.008-3.369.771-3.445 3.731-6.253 3.988-3.207.286-3.912-3.531-8.109-3.988-1.228-.133-1.675.143-7.757 2.008a378.57 378.57 0 0 1-5.748 1.723" fill="none" stroke="#774e36" stroke-linecap="round" stroke-linejoin="round" stroke-width="4.17"/></g><g data-name="그룹 5229" transform="translate(470.599 -94.573)" clip-path="url(#x)"><path data-name="패스 13854" d="M1.989 3.132a51.67 51.67 0 0 0 32.168 13.21C55.209 17.151 69.019 4.36 71.493 1.98" fill="none" stroke="#774e36" stroke-linecap="round" stroke-linejoin="round" stroke-width="4.17"/></g><g data-name="그룹 5230" transform="translate(374.38 -40.287)" clip-path="url(#y)"><path data-name="패스 13855" d="M1.989 290.333a136.055 136.055 0 0 0 45.378 13.21c70.456 7.443 119.66-45.169 123.5-49.394a142.854 142.854 0 0 0 19.529-27.571C243.118 131.039 250.598 1.739 255.3 1.989c1.618.086 3 15.589 2.294 79.269" fill="none" stroke="#774e36" stroke-linecap="round" stroke-linejoin="round" stroke-width="4.17"/></g><path data-name="패스 13856" d="M490.1 508.001c-5.872 1.732-8.337 13.067-14.6 13.857a14.953 14.953 0 0 1-3.226 0c-2.893-.362-4.483-1.57-6.462-2.427-2.36-1.018-4.245-1.075-7.871-1.19-10.84-.343-14.78 10.012-25.278 8.194-3.217-.562-5.825-1.941-9.765-.685-3.55 1.133-5.653 3.607-8.042 6.148a122.214 122.214 0 0 1-14.362 12.982 1346.209 1346.209 0 0 0 137.858 6.152c42.323-.286 82.248-2.57 119.479-6.148a200.469 200.469 0 0 0-12.639-15.713c-6.567-7.357-9.85-11.145-13.21-12.3-8.156-2.789-11.83 4.245-22.4 4.1-5.177-.076-9.964-2.779-19.529-8.194-18.425-10.431-24.317-18.987-30.446-15.713-4.73 2.532-5.263 9.8-10.336 10.241-3 .266-4.111-2.16-6.891-3.417-10.107-4.53-18.977 16.865-32.168 15.713-9.917-.866-13.41-13.591-20.1-11.611" fill="#d49871"/><path data-name="패스 13857" d="M490.1 508.001c-5.872 1.732-8.337 13.067-14.6 13.857a14.953 14.953 0 0 1-3.226 0c-2.893-.362-4.483-1.57-6.462-2.427-2.36-1.018-4.245-1.075-7.871-1.19-10.84-.343-14.78 10.012-25.278 8.194-3.217-.562-5.825-1.941-9.765-.685-3.55 1.133-5.653 3.607-8.042 6.148a122.214 122.214 0 0 1-14.362 12.982 1346.209 1346.209 0 0 0 137.858 6.152c42.323-.286 82.248-2.57 119.479-6.148a200.469 200.469 0 0 0-12.639-15.713c-6.567-7.357-9.85-11.145-13.21-12.3-8.156-2.789-11.83 4.245-22.4 4.1-5.177-.076-9.964-2.779-19.529-8.194-18.425-10.431-24.317-18.987-30.446-15.713-4.73 2.532-5.263 9.8-10.336 10.241-3 .266-4.111-2.16-6.891-3.417-10.107-4.53-18.977 16.865-32.168 15.713-9.917-.866-13.41-13.591-20.1-11.611z" fill="none" stroke="#000" stroke-linecap="round" stroke-linejoin="round" stroke-width="4.17"/><g data-name="그룹 5231" transform="translate(249.171 263.903)" clip-path="url(#z)"><path data-name="패스 13858" d="M42.761 2.227c-1.932-.238-20.71-2.237-32.739 11.487A34.669 34.669 0 0 0 1.98 31.519" fill="none" stroke="#774e36" stroke-linecap="round" stroke-linejoin="round" stroke-width="4.17"/></g><path data-name="패스 13859" d="M344.21 86.911a359.805 359.805 0 0 1 13.21 48.823 359.34 359.34 0 0 1 4.026 25.268" fill="#d49871"/><path data-name="패스 13860" d="M344.21 86.911a359.805 359.805 0 0 1 13.21 48.823 359.34 359.34 0 0 1 4.026 25.268" fill="none" stroke="#000" stroke-linecap="round" stroke-linejoin="round" stroke-width="4.17"/><g data-name="그룹 5232" transform="translate(690.752 149.982)" clip-path="url(#A)"><path data-name="패스 13861" d="M1.989 109.401a1609.174 1609.174 0 0 1 22.613-25.839c21.785-24.383 28.123-30.046 35.537-42A131.512 131.512 0 0 0 76.29 1.989" fill="none" stroke="#774e36" stroke-linecap="round" stroke-linejoin="round" stroke-width="4.17"/></g><g data-name="그룹 5233" transform="translate(685.108 146.756)" clip-path="url(#B)"><path data-name="패스 13862" d="M1.98 32.673a37.328 37.328 0 0 1 11.307-20.995c2.046-1.894 10.916-9.66 22.613-9.689 4.445-.01 6 1.1 14.533 1.618a108.171 108.171 0 0 0 12.924 0" fill="none" stroke="#774e36" stroke-linecap="round" stroke-linejoin="round" stroke-width="4.17"/></g><g data-name="그룹 5234" transform="translate(638.264 -39.801)" clip-path="url(#C)"><path data-name="패스 13863" d="M1.99 1.989a83.432 83.432 0 0 0 1.618 17.769 84.625 84.625 0 0 0 11.307 28.266" fill="none" stroke="#774e36" stroke-linecap="round" stroke-linejoin="round" stroke-width="4.17"/></g><g data-name="그룹 5235" transform="translate(450.898 369.554)" clip-path="url(#D)"><path data-name="패스 13864" d="M43.751 1.894c-3.046 6.653-19.625 43.361-25.325 79.412-2.494 15.77-4.721 42.856-.723 51.66a7.44 7.44 0 0 1 .723 3.854c-.562 5.8-8.765 9.736-16.646 12.334" fill="none" stroke="#774e36" stroke-linecap="round" stroke-linejoin="round" stroke-width="3.86"/></g><g data-name="그룹 5236" transform="translate(368.536 197.635)" clip-path="url(#E)"><path data-name="패스 13865" d="M1.98 85.17a240.851 240.851 0 0 0 75.919 2.427c22.327-2.874 71.855-9.936 113.874-48.452A176.123 176.123 0 0 0 222.47 1.999" fill="none" stroke="#774e36" stroke-linecap="round" stroke-linejoin="round" stroke-width="4.17"/></g><g data-name="그룹 5237" transform="translate(656.842 267.168)" clip-path="url(#F)"><path data-name="패스 13866" d="M1.98 13.21a364.644 364.644 0 0 0 35.537 23.422C60.901 50.156 69.4 51.565 77.09 50.365c.666-.1 16.579-2.769 18.578-11.306 2.846-12.182-23.746-27.533-25.04-28.266-10.117-5.72-18.007-7.024-17.769-8.08.333-1.437 15.532-1.19 30.693 4.844 16.379 6.519 25.963 17.093 31.169 22.994a56.281 56.281 0 0 1 11.487 18.958c3.664 10.536 1.361 15.266.571 16.655a12.852 12.852 0 0 1-2.874 3.445" fill="none" stroke="#774e36" stroke-linecap="round" stroke-linejoin="round" stroke-width="4.17"/></g><path data-name="패스 13867" d="M297.832 294.921c-2.608-1.5-5.463-1.466-7.271 0-.876.7-2.056 2.189-1.618 3.226.857 2.037 7.347.933 8.08.809a21.713 21.713 0 0 0 8.08-3.226c-2.427-.266-4.844-.542-7.271-.809" fill="#774e36"/><path data-name="패스 13868" d="M297.832 294.921c-2.608-1.5-5.463-1.466-7.271 0-.876.7-2.056 2.189-1.618 3.226.857 2.037 7.347.933 8.08.809a21.713 21.713 0 0 0 8.08-3.226c-2.427-.266-4.844-.542-7.271-.809z" fill="none" stroke="#774e36" stroke-linecap="round" stroke-linejoin="round" stroke-width="4.17"/><path data-name="패스 13869" d="M595.027-182.37c-2.113 11.582-4.673 23.089-6.462 34.728-5.52 35.985-7.233 37.041-6.462 46.844a85.133 85.133 0 0 0 7.585 28.761 23.218 23.218 0 0 0 1.218-6.757 22.482 22.482 0 0 0-1.152-8.613c-2.294-6.71-2.294-15.77-2.294-33.891 0-24.069 11.069-37.688 15.8-70.361a34.307 34.307 0 0 0 .124-11.5 2.2 2.2 0 0 0-1.094-.2c-3.531.314-5.292 10.174-7.271 21" fill="#774e36"/><g data-name="그룹 5238" transform="translate(582.541 425.373)" clip-path="url(#G)"><path data-name="패스 13870" d="M1.989 1.989A156.593 156.593 0 0 1 3.607 85.17" fill="none" stroke="#774e36" stroke-linecap="round" stroke-linejoin="round" stroke-width="4.17"/></g><g data-name="그룹 5239" transform="translate(599.51 418.92)" clip-path="url(#H)"><path data-name="패스 13871" d="M1.98 1.98a95.835 95.835 0 0 1 3.226 99.341" fill="none" stroke="#774e36" stroke-linecap="round" stroke-linejoin="round" stroke-width="4.17"/></g><g data-name="그룹 5240" transform="translate(620.496 406.805)" clip-path="url(#I)"><path data-name="패스 13872" d="M1.989 1.98a90.071 90.071 0 0 1 22.613 46.844c4.816 31.388-8.975 55.076-12.924 61.377" fill="none" stroke="#774e36" stroke-linecap="round" stroke-linejoin="round" stroke-width="4.17"/></g><g data-name="그룹 5241" transform="translate(292.741 379.347)" clip-path="url(#J)"><path data-name="패스 13873" d="M13.162 43.98a46.606 46.606 0 0 1-9.689-42" fill="none" stroke="#774e36" stroke-linecap="round" stroke-linejoin="round" stroke-width="4.17"/></g><g data-name="그룹 5242" transform="translate(260.116 391.463)" clip-path="url(#K)"><path data-name="패스 13874" d="M4.607 1.98a30.974 30.974 0 0 0-1.618 20.186A30.447 30.447 0 0 0 10.26 35.09" fill="none" stroke="#774e36" stroke-linecap="round" stroke-linejoin="round" stroke-width="4.17"/></g><g data-name="그룹 5243" transform="translate(258.698 105.137)" clip-path="url(#L)"><path data-name="패스 13875" d="M1.98 23.412a55.193 55.193 0 0 1 12.924-8.88c7.09-3.5 11.973-3.969 24.231-6.462 19.177-3.9 17.445-4.854 25.03-5.653a83.153 83.153 0 0 1 29.884 2.427" fill="none" stroke="#774e36" stroke-linecap="round" stroke-linejoin="round" stroke-width="4.17"/></g><path data-name="패스 13876" d="M423.004 140.665c0 3.521-3.16 6.862-6.462 6.462-3.207-.39-5.187-4.14-4.844-7.271.276-2.494 2.113-5.32 4.844-5.653 3.264-.4 6.462 2.922 6.462 6.462" fill="#774e36"/><g data-name="그룹 5244" transform="translate(360.447 165.333)" clip-path="url(#M)"><path data-name="패스 13877" d="M1.989 1.98c4.892 6.757 21.128 27.333 47.643 31.493" fill="none" stroke="#774e36" stroke-linecap="round" stroke-linejoin="round" stroke-width="4.17"/></g><g data-name="그룹 5245" transform="translate(452.516 -70.485)" clip-path="url(#N)"><path data-name="패스 13878" d="M1.989 4.407a82.211 82.211 0 0 0 35.54 16.151c36.3 6.672 64.4-14.609 69.457-18.578" fill="none" stroke="#774e36" stroke-linecap="round" stroke-linejoin="round" stroke-width="4.17"/></g><g data-name="그룹 5246" transform="translate(447.672 -58.369)" clip-path="url(#O)"><path data-name="패스 13879" d="M1.989 1.98C6.614 6.234 31.312 28.143 68.21 26.211c29.484-1.551 48.985-17.388 54.914-22.613" fill="none" stroke="#774e36" stroke-linecap="round" stroke-linejoin="round" stroke-width="4.17"/></g><g data-name="그룹 5247" transform="translate(445.255 -24.45)" clip-path="url(#P)"><path data-name="패스 13880" d="M1.98 1.98c4.616 3.464 43.056 31.454 82.372 16.96a70.19 70.19 0 0 0 23.422-14.533" fill="none" stroke="#774e36" stroke-linecap="round" stroke-linejoin="round" stroke-width="4.17"/></g><path data-name="패스 13881" d="M380.206-36.194c-.619-1.161-9.86 1.846-9.689 3.226.086.676 2.4 1 4.035.809 3.445-.4 6.034-3.322 5.653-4.035" fill="#774e36"/></g></g></g></svg>