<svg xmlns="http://www.w3.org/2000/svg" width="967.81" height="382.5"><defs><clipPath id="S"><path data-name="사각형 4030" fill="none" d="M0 0h35.442v8.88H0z"/></clipPath><clipPath id="a"><path data-name="사각형 4075" fill="none" d="M0 0h966v380.69H0z"/></clipPath><clipPath id="c"><path data-name="사각형 3988" fill="none" d="M0 0h34.652v35.909H0z"/></clipPath><clipPath id="d"><path data-name="사각형 3989" fill="none" d="M0 0h122.744v68.543H0z"/></clipPath><clipPath id="e"><path data-name="사각형 3990" fill="none" d="M0 0h103.633v114.854H0z"/></clipPath><clipPath id="f"><path data-name="사각형 3991" fill="none" d="M0 0h48.566v17.978H0z"/></clipPath><clipPath id="g"><path data-name="사각형 3992" fill="none" d="M0 0h101.349v202.517H0z"/></clipPath><clipPath id="h"><path data-name="사각형 3993" fill="none" d="M0 0h108.696v96.029H0z"/></clipPath><clipPath id="i"><path data-name="사각형 3994" fill="none" d="M0 0h88.824v30.588H0z"/></clipPath><clipPath id="j"><path data-name="사각형 3995" fill="none" d="M0 0h23.822v36.537H0z"/></clipPath><clipPath id="k"><path data-name="사각형 3996" fill="none" d="M0 0h124.771v73.597H0z"/></clipPath><clipPath id="l"><path data-name="사각형 3997" fill="none" d="M0 0h38.04v7.785H0z"/></clipPath><clipPath id="m"><path data-name="사각형 3998" fill="none" d="M0 0h32.863v8.48H0z"/></clipPath><clipPath id="n"><path data-name="사각형 3999" fill="none" d="M0 0h15.427v97.999H0z"/></clipPath><clipPath id="o"><path data-name="사각형 4000" fill="none" d="M0 0h48.566v9.822H0z"/></clipPath><clipPath id="p"><path data-name="사각형 4001" fill="none" d="M0 0h36.413v9.194H0z"/></clipPath><clipPath id="q"><path data-name="사각형 4002" fill="none" d="M0 0h10.022v14.428H0z"/></clipPath><clipPath id="r"><path data-name="사각형 4003" fill="none" d="M0 0h10.488v12.686H0z"/></clipPath><clipPath id="s"><path data-name="사각형 4004" fill="none" d="M0 0h39.801v12.725H0z"/></clipPath><clipPath id="t"><path data-name="사각형 4005" fill="none" d="M0 0h11.878v165.781H0z"/></clipPath><clipPath id="u"><path data-name="사각형 4006" fill="none" d="M0 0h24.574v104.623H0z"/></clipPath><clipPath id="v"><path data-name="사각형 4007" fill="none" d="M0 0h30.969v59.806H0z"/></clipPath><clipPath id="w"><path data-name="사각형 4008" fill="none" d="M0 0h8.661v16.96H0z"/></clipPath><clipPath id="x"><path data-name="사각형 4009" fill="none" d="M0 0h8.385v15.941H0z"/></clipPath><clipPath id="y"><path data-name="사각형 4010" fill="none" d="M0 0h10.117v14.419H0z"/></clipPath><clipPath id="z"><path data-name="사각형 4011" fill="none" d="M0 0h10.602v15.941H0z"/></clipPath><clipPath id="A"><path data-name="사각형 4012" fill="none" d="M0 0h106.66v32.768H0z"/></clipPath><clipPath id="B"><path data-name="사각형 4013" fill="none" d="M0 0h143.853v43.989H0z"/></clipPath><clipPath id="C"><path data-name="사각형 4014" fill="none" d="M0 0h64.365v25.63H0z"/></clipPath><clipPath id="D"><path data-name="사각형 4015" fill="none" d="M0 0h58.474v10.393H0z"/></clipPath><clipPath id="E"><path data-name="사각형 4016" fill="none" d="M0 0h19.577v12.42H0z"/></clipPath><clipPath id="F"><path data-name="사각형 4017" fill="none" d="M0 0h20.138v15.998H0z"/></clipPath><clipPath id="G"><path data-name="사각형 4018" fill="none" d="M0 0h16.741v7.3H0z"/></clipPath><clipPath id="H"><path data-name="사각형 4019" fill="none" d="M0 0h223.57v36.965H0z"/></clipPath><clipPath id="I"><path data-name="사각형 4020" fill="none" d="M0 0h84.123v43.265H0z"/></clipPath><clipPath id="J"><path data-name="사각형 4021" fill="none" d="M0 0h35.975v66.611H0z"/></clipPath><clipPath id="K"><path data-name="사각형 4022" fill="none" d="M0 0h8.451v50.108H0z"/></clipPath><clipPath id="L"><path data-name="사각형 4023" fill="none" d="M0 0h26.61v67.325H0z"/></clipPath><clipPath id="M"><path data-name="사각형 4024" fill="none" d="M0 0h11.345v21.528H0z"/></clipPath><clipPath id="N"><path data-name="사각형 4025" fill="none" d="M0 0h6.253v23.555H0z"/></clipPath><clipPath id="O"><path data-name="사각형 4026" fill="none" d="M0 0h9.812v21.014H0z"/></clipPath><clipPath id="P"><path data-name="사각형 4027" fill="none" d="M0 0h45.254v40.21H0z"/></clipPath><clipPath id="Q"><path data-name="사각형 4028" fill="none" d="M0 0h37.041v33.986H0z"/></clipPath><clipPath id="R"><path data-name="사각형 4029" fill="none" d="M0 0h32.216v29.599H0z"/></clipPath><clipPath id="b"><path data-name="사각형 3987" fill="none" d="M0 0h42.923v40.648H0z"/></clipPath><clipPath id="T"><path data-name="사각형 4031" fill="none" d="M0 0h30.684v132.975H0z"/></clipPath><clipPath id="U"><path data-name="사각형 4032" fill="none" d="M0 0h42.923v68.857H0z"/></clipPath><clipPath id="V"><path data-name="사각형 4033" fill="none" d="M0 0h5.234v32.216H0z"/></clipPath><clipPath id="W"><path data-name="사각형 4034" fill="none" d="M0 0h14.39v62.233H0z"/></clipPath><clipPath id="X"><path data-name="사각형 4035" fill="none" d="M0 0h9.308v6.253H0z"/></clipPath><clipPath id="Y"><path data-name="사각형 4036" fill="none" d="M0 0h9.308v61.215H0z"/></clipPath><clipPath id="Z"><path data-name="사각형 4037" fill="none" d="M0 0h7.271v24.069H0z"/></clipPath><clipPath id="aa"><path data-name="사각형 4038" fill="none" d="M0 0h10.593v35.518H0z"/></clipPath><clipPath id="ab"><path data-name="사각형 4039" fill="none" d="M0 0h10.812v47.424H0z"/></clipPath><clipPath id="ac"><path data-name="사각형 4040" fill="none" d="M0 0h16.722v131.452H0z"/></clipPath><clipPath id="ad"><path data-name="사각형 4041" fill="none" d="M0 0h15.351v77.508H0z"/></clipPath><clipPath id="ae"><path data-name="사각형 4042" fill="none" d="M0 0h9.812v17.455H0z"/></clipPath><clipPath id="af"><path data-name="사각형 4043" fill="none" d="M0 0h26.134v66.307H0z"/></clipPath><clipPath id="ag"><path data-name="사각형 4044" fill="none" d="M0 0h33.225v152.314H0z"/></clipPath><clipPath id="ah"><path data-name="사각형 4045" fill="none" d="M0 0h36.794v16.941H0z"/></clipPath><clipPath id="ai"><path data-name="사각형 4046" fill="none" d="M0 0h13.886v29.665H0z"/></clipPath><clipPath id="aj"><path data-name="사각형 4047" fill="none" d="M0 0h6.767v16.96H0z"/></clipPath><clipPath id="ak"><path data-name="사각형 4048" fill="none" d="M0 0h9.822v21.014H0z"/></clipPath><clipPath id="al"><path data-name="사각형 4049" fill="none" d="M0 0h5.244v19.491H0z"/></clipPath><clipPath id="am"><path data-name="사각형 4050" fill="none" d="M0 0h3.207v8.803H0z"/></clipPath><clipPath id="an"><path data-name="사각형 4051" fill="none" d="M0 0h129.016v21.737H0z"/></clipPath><clipPath id="ao"><path data-name="사각형 4052" fill="none" d="M0 0h48.5v14.181H0z"/></clipPath><clipPath id="ap"><path data-name="사각형 4053" fill="none" d="M0 0h83.4v22.156H0z"/></clipPath><clipPath id="aq"><path data-name="사각형 4054" fill="none" d="M0 0h61.729v113.208H0z"/></clipPath><clipPath id="ar"><path data-name="사각형 4055" fill="none" d="M0 0h17.712v90.737H0z"/></clipPath><clipPath id="as"><path data-name="사각형 4056" fill="none" d="M0 0h60.71v30.179H0z"/></clipPath><clipPath id="at"><path data-name="사각형 4057" fill="none" d="M0 0h10.84v20.51H0z"/></clipPath><clipPath id="au"><path data-name="사각형 4058" fill="none" d="M0 0h6.824v30.684H0z"/></clipPath><clipPath id="av"><path data-name="사각형 4059" fill="none" d="M0 0h43.922v21.576H0z"/></clipPath><clipPath id="aw"><path data-name="사각형 4060" fill="none" d="M0 0h88.691v16.941H0z"/></clipPath><clipPath id="ax"><path data-name="사각형 4061" fill="none" d="M0 0h80.554v27.124H0z"/></clipPath><clipPath id="ay"><path data-name="사각형 4062" fill="none" d="M0 0h31.692v17.674H0z"/></clipPath><clipPath id="az"><path data-name="사각형 4063" fill="none" d="M0 0h35.261v12.382H0z"/></clipPath><clipPath id="aA"><path data-name="사각형 4064" fill="none" d="M0 0h26.61v10.526H0z"/></clipPath><clipPath id="aB"><path data-name="사각형 4065" fill="none" d="M0 0h29.665v8.803H0z"/></clipPath><clipPath id="aC"><path data-name="사각형 4066" fill="none" d="M0 0h18.968v7.281H0z"/></clipPath><clipPath id="aD"><path data-name="사각형 4067" fill="none" d="M0 0h22.032v12.173H0z"/></clipPath><clipPath id="aE"><path data-name="사각형 4068" fill="none" d="M0 0h33.225v11.525H0z"/></clipPath><clipPath id="aF"><path data-name="사각형 4069" fill="none" d="M0 0h27.629v10.954H0z"/></clipPath><clipPath id="aG"><path data-name="사각형 4070" fill="none" d="M0 0h8.309v49.518H0z"/></clipPath><clipPath id="aH"><path data-name="사각형 4071" fill="none" d="M0 0h32.206v163.516H0z"/></clipPath><clipPath id="aI"><path data-name="사각형 4072" fill="none" d="M0 0h5.263v53.582H0z"/></clipPath><clipPath id="aJ"><path data-name="사각형 4073" fill="none" d="M0 0h4.226v53.078H0z"/></clipPath><clipPath id="aK"><path data-name="사각형 4074" fill="none" d="M0 0h99.389v52.878H0z"/></clipPath></defs><g data-name="그룹 4983" style="isolation:isolate"><path data-name="사각형 3986" fill="#f7f7f7" stroke="#6d6d6d" stroke-miterlimit="10" stroke-width="1.81" d="M.905.905h966v380.69h-966z"/><g data-name="그룹 4982" clip-path="url(#a)" transform="translate(.905 .905)"><g data-name="그룹 4981"><path data-name="패스 13420" d="M569.055-241.243a1.6 1.6 0 0 1-.847-.247 89.07 89.07 0 0 1-9.327-6.634c-5.853-4.787-12.42-11.7-10.45-17.417 1.018-2.96 5.625-4.787 18.8-9.641 7.795-2.874 9.441-2.941 10.888-3.007.933-.038 1.732-.076 5.168-1.332a15.311 15.311 0 0 1 5.311-1.133 9.586 9.586 0 0 1 2.579.343l.133.038c.266.076.523.152.79.257 1.256.514 4.188 2 4.045 4.625a4.2 4.2 0 0 1-2.132 3.217 186.3 186.3 0 0 0-5.444 5.444 109.528 109.528 0 0 0-11.57 13.571 83.78 83.78 0 0 0-6.5 11 1.58 1.58 0 0 1-1 .828 1.744 1.744 0 0 1-.438.067" fill="#cfa57a"/><path data-name="패스 13421" d="M588.594-279.043a8.039 8.039 0 0 1 2.141.286 5.591 5.591 0 0 1 .742.238c.333.133 3.15 1.294 3.055 3.055a2.934 2.934 0 0 1-1.532 2.037 179.74 179.74 0 0 0-5.606 5.606 112.127 112.127 0 0 0-11.724 13.758 83.883 83.883 0 0 0-6.624 11.211 90.264 90.264 0 0 1-9.165-6.519c-7.243-5.92-11.316-11.687-9.946-15.656.8-2.322 6.472-4.473 17.835-8.67 13.486-4.978 7.709-1.275 16.056-4.33a13.829 13.829 0 0 1 4.759-1.028m.01-3.188a16.838 16.838 0 0 0-5.825 1.209c-3.236 1.19-3.931 1.218-4.721 1.247-1.961.086-3.921.352-11.383 3.1-13.039 4.806-18.435 6.8-19.758 10.621-1.8 5.215 1.98 11.849 10.945 19.177a92.351 92.351 0 0 0 9.5 6.748 3.18 3.18 0 0 0 1.694.485 3.041 3.041 0 0 0 .876-.124 3.228 3.228 0 0 0 2-1.666 81.651 81.651 0 0 1 6.377-10.793 108.355 108.355 0 0 1 11.411-13.381c1.723-1.808 3.5-3.588 5.292-5.3a5.715 5.715 0 0 0 2.731-4.387c.133-2.56-1.7-4.816-5.044-6.186a9.584 9.584 0 0 0-.971-.324l-.114-.029a11.21 11.21 0 0 0-3.024-.407"/><path data-name="패스 13422" d="M454.896-233.592a1.594 1.594 0 0 1-1.532-1.114c-2.455-7.728-6.215-13.638-11.192-17.578a69.32 69.32 0 0 0-1.294-.99 81.06 81.06 0 0 1-10.859-9.612c-3.426-3.655-5.2-6.215-4.749-9.232a7.905 7.905 0 0 1 3.16-4.968 15.637 15.637 0 0 1 3.655-2.132 13.7 13.7 0 0 1 5.444-1.094c3.388 0 6.948 1.123 10.7 2.313 7.109 2.246 12.715 4.026 17.55 9.66 1.561 1.818 5.206 6.072 5.729 11.858a16.316 16.316 0 0 1-.209 4.321c-1.275 7.281-7.147 14.162-15.713 18.406a1.539 1.539 0 0 1-.714.162" fill="#cfa57a"/><path data-name="패스 13423" d="M437.537-278.704c3.055 0 6.281.99 10.222 2.237 6.881 2.179 12.287 3.883 16.817 9.175 1.532 1.78 4.873 5.682 5.349 10.954a14.95 14.95 0 0 1-.19 3.9c-1.171 6.7-6.738 13.238-14.847 17.255-3.16-9.965-7.871-15.294-11.725-18.349a87.6 87.6 0 0 1-11.982-10.45c-3.369-3.588-4.663-5.672-4.33-7.9a6.378 6.378 0 0 1 2.579-3.95 14.8 14.8 0 0 1 3.283-1.913 12.184 12.184 0 0 1 4.816-.961m.01-3.207a15.232 15.232 0 0 0-6.062 1.218 17.423 17.423 0 0 0-4.026 2.351 9.431 9.431 0 0 0-3.75 5.986c-.609 4.026 2.094 7.29 5.158 10.564a82.246 82.246 0 0 0 11.054 9.796c.485.371.914.685 1.266.971 4.721 3.731 8.3 9.384 10.659 16.807a3.207 3.207 0 0 0 3.055 2.237 3.3 3.3 0 0 0 1.428-.333c9.013-4.473 15.209-11.782 16.579-19.567a18.27 18.27 0 0 0 .228-4.74c-.571-6.3-4.454-10.821-6.11-12.753-5.13-5.977-11.23-7.909-18.283-10.136-3.883-1.228-7.547-2.389-11.183-2.389"/><g data-name="그룹 4806" style="mix-blend-mode:darken;isolation:isolate"><g data-name="그룹 4805" clip-path="url(#b)" transform="translate(426.81 -275.839)"><path data-name="패스 13424" d="M7.947 7.776A60.423 60.423 0 0 1 2.627 0 6.484 6.484 0 0 0 .048 3.95c-.333 2.227.971 4.311 4.33 7.9A87.023 87.023 0 0 0 16.36 22.3c3.854 3.046 8.556 8.385 11.725 18.349 8.109-4.016 13.667-10.545 14.847-17.255-11.078-3.816-24.926-8.794-26.315-9.5-3.045-1.561-5.939-3.046-8.661-6.12" fill="#7c6454"/></g></g><g data-name="그룹 4808" style="mix-blend-mode:darken;isolation:isolate"><g data-name="그룹 4807" clip-path="url(#c)" transform="translate(559.881 -278.751)"><path data-name="패스 13425" d="M31.598.23a7.45 7.45 0 0 0-.742-.238c-3.3 2.655-7.033 5.748-8.937 7.376-3 2.551-14.285 14.114-21.909 22.023a90.27 90.27 0 0 0 9.165 6.519 84.928 84.928 0 0 1 6.624-11.211A113.667 113.667 0 0 1 27.515 10.93a180.866 180.866 0 0 1 5.606-5.606 2.959 2.959 0 0 0 1.532-2.037c.1-1.761-2.731-2.922-3.055-3.055" fill="#7c6454"/></g></g><path data-name="패스 13426" d="M507.643-211.731c-23.165 0-49.785-7.29-57.018-23.574-3.341-7.519-2.446-16.8 2.579-26.848a38.191 38.191 0 0 1 2.008-3.474c13.693-21.262 45.852-22.908 55.378-22.908.695 0 1.256 0 1.666.019 22.166.447 50.441 10.241 59.4 25.868a21.785 21.785 0 0 1 2.808 8.147c1.152 9.3-4.549 16.979-6.415 19.5-10.814 14.576-33.399 23.276-60.406 23.276z" fill="#cfa57a"/><path data-name="패스 13427" d="M510.6-286.936c.676 0 1.228 0 1.627.019 21.88.438 49.394 9.974 58.046 25.068a20.275 20.275 0 0 1 2.608 7.547c1.056 8.489-4.054 15.57-6.11 18.349-11.547 15.562-35.756 22.633-59.112 22.633-25.049 0-49.109-8.128-55.552-22.622-4.8-10.8 1.218-22.822 2.551-25.487a34.5 34.5 0 0 1 1.922-3.331c13.4-20.8 45.1-22.175 54.039-22.175m-.019-3.208c-9.736 0-42.59 1.7-56.732 23.641a38.347 38.347 0 0 0-2.094 3.626c-5.244 10.488-6.148 20.243-2.608 28.219 7.528 16.941 34.8 24.526 58.483 24.526 27.514 0 50.575-8.946 61.691-23.926 1.97-2.655 7.956-10.716 6.719-20.652a23.268 23.268 0 0 0-3.007-8.746c-9.593-16.723-38.468-26.222-60.767-26.669-.419 0-.98-.019-1.694-.019"/><g data-name="그룹 4810" style="mix-blend-mode:darken;isolation:isolate"><g data-name="그룹 4809" clip-path="url(#d)" transform="translate(450.271 -281.873)"><path data-name="패스 13428" d="M119.991 20.01C112.51 14.595 88.965-.956 58.376.043a103.661 103.661 0 0 0-37.2 8.67A97.817 97.817 0 0 0 6.281 17.11a35.524 35.524 0 0 0-1.922 3.322c-1.332 2.655-7.347 14.685-2.551 25.487 12.449 28.019 90.747 32.235 114.673-.01 2.056-2.779 7.167-9.86 6.11-18.349a20.107 20.107 0 0 0-2.608-7.547" fill="#7c6454"/></g></g><path data-name="패스 13429" d="M420.025 268.167a1.573 1.573 0 0 1-1.351-.761 1.607 1.607 0 0 1-.076-1.551l14.638-29.789a529.683 529.683 0 0 0-.029-65.736 530.8 530.8 0 0 0-13.324-89.062c-.742 3.5-1.542 7.128-2.379 10.831-13.933 61.691-27.115 91.775-50.365 114.949-9 8.975-15.77 13.153-21.3 13.153a10.191 10.191 0 0 1-3.283-.533c-12.106-4.14-12.934-29.97-12.3-52.012.476-16.436 2.77-25.839 9.6-53.772 1.5-6.158 3.236-13.219 5.215-21.471a2107.25 2107.25 0 0 0 2.1-8.813c3.95-16.579 7.366-30.9 13.191-51.393 11.982-42.142 17.245-50.86 25.82-53.525a246.882 246.882 0 0 1 53.154-26.553c4.673-1.666 10.088-3.331 15.694-4.825a50.527 50.527 0 0 1 2.674-5.13c.409-.7.8-1.38 1.142-2.027 3.7-6.948 3.255-12.515 2.817-17.9-.3-3.769-.59-7.328.647-10.916 5.13-14.875 33.567-21.652 57.817-21.652 18.568 0 40.02 4.064 44.569 15.456 1.18 2.95.9 5.615.476 9.65a115.088 115.088 0 0 0-.371 21.918c.133 1.97.285 3.693.476 5.349 5.3.952 10.564 2.094 15.656 3.4 24.012 6.148 43.77 15.513 58.721 27.828a129.2 129.2 0 0 1 15.656 15.3c7.357 6.967 8.042 19.653 9.165 40.648.942 17.493 2.227 41.448 7.852 73.435 2.731 15.494 4.378 31.4 5.977 46.768 1.1 10.6 2.246 21.566 3.721 32.282l3.578 31.121a1.6 1.6 0 0 1-.952 1.646l-40.772 17.845a1.7 1.7 0 0 1-.638.133 1.559 1.559 0 0 1-.885-.266c-14.362-9.527-18.378-42.228-23.469-83.618-1.447-11.735-2.931-23.86-4.759-36.223-.9-6.091-1.713-11.069-2.494-15.884-1.294-7.975-2.532-15.561-3.959-26.9-1.542 9.917-3.693 23.232-7.747 42.409-2.988 14.124-4.711 20.529-5.967 25.2a143.8 143.8 0 0 0-3.674 17 337.762 337.762 0 0 0-4.054 76.585 318.01 318.01 0 0 0 4.568 36.508 1.625 1.625 0 0 1-.343 1.323 1.6 1.6 0 0 1-1.228.571l-169.217-1" fill="#cfa57a"/><path data-name="패스 13430" d="M520.127-108.726c20.329 0 39.211 4.73 43.075 14.447 2.208 5.539-1.447 10.117 0 31.093.2 2.931.428 5.016.619 6.6a217.91 217.91 0 0 1 16.712 3.588c33.558 8.594 51.041 21.7 58.1 27.514a126.265 126.265 0 0 1 15.513 15.18c12.791 11.992 4.245 43.008 16.608 113.255 4.6 26.125 6.063 52.716 9.689 78.993l3.569 31.093-40.774 17.851c-17.74-11.773-19.4-63.746-27.533-118.747-2.646-17.873-4.521-26.268-7.138-48.414q-.357-3-.666-5.815c-1.875 11-3.731 26.258-9.546 53.763-6.072 28.714-6.767 24.907-9.66 42.266a334.815 334.815 0 0 0-4.073 76.956 318.229 318.229 0 0 0 4.587 36.7l-169.207-1q7.395-15.033 14.78-30.074a529.9 529.9 0 0 0 0-66.25 529.793 529.793 0 0 0-15.056-96.219q-1.67 8.237-3.807 17.731c-13.667 60.492-26.629 90.937-49.937 114.169-8.956 8.927-15.313 12.687-20.167 12.687a8.533 8.533 0 0 1-2.77-.447c-12.544-4.292-11.582-37.612-11.221-50.451.571-19.843 3.8-29.2 14.771-74.92 5.044-21.024 8.48-36.213 15.285-60.139 11.858-41.7 16.922-50.118 24.964-52.5a245.185 245.185 0 0 1 53-26.506c2.3-.819 8-2.8 16.341-5a68.546 68.546 0 0 1 4.045-7.747c6.576-12.344.761-20.928 3.569-29.047 4.673-13.572 31.569-20.576 56.3-20.576m.019-3.245c-13.229 0-26.249 1.9-36.68 5.358-12.306 4.083-20.138 10.088-22.651 17.369-1.342 3.912-1.028 7.8-.723 11.563.419 5.158.847 10.488-2.636 17.017-.324.609-.7 1.275-1.114 1.98-.8 1.39-1.685 2.931-2.446 4.587-5.4 1.456-10.583 3.065-15.075 4.663a248.692 248.692 0 0 0-53.316 26.6c-5.177 1.685-8.842 5.5-12.544 13.01-3.826 7.766-8.052 20.186-14.124 41.533-5.834 20.529-9.251 34.862-13.21 51.45-.676 2.846-1.37 5.767-2.1 8.813a5629.947 5629.947 0 0 1-5.206 21.461c-6.862 28.057-9.175 37.517-9.651 54.115-.695 23.993.362 49.118 13.381 53.573a11.82 11.82 0 0 0 3.807.619c5.977 0 13.105-4.33 22.432-13.619 23.489-23.412 36.784-53.7 50.794-115.73.3-1.294.581-2.579.857-3.845a528.617 528.617 0 0 1 11.694 81.838 528.661 528.661 0 0 1 .048 65.212l-14.495 29.488a3.208 3.208 0 0 0 2.855 4.616l84.6.5 84.6.5h.019a3.2 3.2 0 0 0 3.15-3.778 316.981 316.981 0 0 1-4.549-36.327 336.14 336.14 0 0 1 4.035-76.214 144.691 144.691 0 0 1 3.636-16.846c1.266-4.692 2.988-11.116 5.986-25.287 2.76-13.029 4.635-23.365 6.034-31.769.857 5.986 1.675 11 2.522 16.189.78 4.806 1.589 9.784 2.493 15.856 1.827 12.344 3.312 24.459 4.759 36.185 5.139 41.8 9.194 74.825 24.174 84.761a3.215 3.215 0 0 0 1.77.533 3.173 3.173 0 0 0 1.285-.266l40.772-17.845a3.2 3.2 0 0 0 1.894-3.3l-2.494-21.69-1.075-9.393v-.076c-1.475-10.688-2.617-21.642-3.721-32.235-1.6-15.4-3.255-31.321-5.986-46.872-5.615-31.892-6.9-55.8-7.833-73.245-1.142-21.328-1.837-34.253-9.6-41.666a131.516 131.516 0 0 0-15.8-15.437c-15.142-12.468-35.109-21.937-59.34-28.143a221.089 221.089 0 0 0-14.59-3.207 155.34 155.34 0 0 1-.343-4.1 112.466 112.466 0 0 1 .362-21.642c.428-4.121.742-7.1-.59-10.412-4.844-12.134-26.962-16.465-46.054-16.465"/><path data-name="패스 13431" d="M447.758-203.593c-3.893.838-7 1.285-9.175 1.532-1.951.219-3.5.333-4.587 1.532-1.266 1.4-1.114 3.455-1.018 4.587.571 6.586.857 9.879 2.037 12.744 3.617 8.765 7.975 34.272 8.67 50.965 1.313 31.607 1.97 47.405 1.532 50.451a3.113 3.113 0 0 0 .514 2.551c.362.352.761.409 5.1 0 1.4-.133 2.4-.238 3.055-1.018a2.443 2.443 0 0 0 .5-1.018c2.646-10.288 1.018-17.331 1.018-17.331-1.808-7.814-4.435-47.843-7.652-104.985" fill="#cfa57a"/><path data-name="패스 13432" d="M447.758-203.593c-3.893.838-7 1.285-9.175 1.532-1.951.219-3.5.333-4.587 1.532-1.266 1.4-1.114 3.455-1.018 4.587.571 6.586.857 9.879 2.037 12.744 3.617 8.765 7.975 34.272 8.67 50.965 1.313 31.607 1.97 47.405 1.532 50.451a3.113 3.113 0 0 0 .514 2.551c.362.352.761.409 5.1 0 1.4-.133 2.4-.238 3.055-1.018a2.443 2.443 0 0 0 .5-1.018c2.646-10.288 1.018-17.331 1.018-17.331-1.808-7.814-4.435-47.843-7.652-104.985z" fill="none" stroke="#000" stroke-linecap="round" stroke-linejoin="round" stroke-width="3.37"/><g data-name="그룹 4812" style="mix-blend-mode:darken;isolation:isolate"><g data-name="그룹 4811" clip-path="url(#e)" transform="translate(460.502 -117.281)"><path data-name="패스 13433" d="M3.531 13.286c-14.761 24.307 21.1 66.459 27.9 74.453 11.173 13.134 24.945 29.323 40.686 26.858 22.5-3.521 32.435-42.6 31.464-52.45-.447-4.578-2.094-10.069-1.542-19.444.3-5.025 1.142-9.622 0-16.379a48.98 48.98 0 0 0-2.3-8.442c-1.97-4.987-77.946-34.671-96.2-4.6" fill="#7c6454"/></g></g><path data-name="패스 13434" d="M587.919-204.116a5.773 5.773 0 0 0-3.569-1.018 106.607 106.607 0 0 0-11.468.257q-.885 48.3-1.78 96.581c-1.856 14.961-.6 26.344 3.065 27.524a10.27 10.27 0 0 0 5.092 0 5.99 5.99 0 0 0 3.759-2.179 5.289 5.289 0 0 0 .828-2.408 8.352 8.352 0 0 0-.514-4.073c-1.047-2.808-1.551-9.013-2.551-21.4a158.592 158.592 0 0 1-.257-16.056c.723-22.327 9.584-61.643 9.422-71.608-.067-3.788-1.456-5.149-2.037-5.606" fill="#cfa57a"/><path data-name="패스 13435" d="M587.919-204.116a5.773 5.773 0 0 0-3.569-1.018 106.607 106.607 0 0 0-11.468.257q-.885 48.3-1.78 96.581c-1.856 14.961-.6 26.344 3.065 27.524a10.27 10.27 0 0 0 5.092 0 5.99 5.99 0 0 0 3.759-2.179 5.289 5.289 0 0 0 .828-2.408 8.352 8.352 0 0 0-.514-4.073c-1.047-2.808-1.551-9.013-2.551-21.4a158.592 158.592 0 0 1-.257-16.056c.723-22.327 9.584-61.643 9.422-71.608-.067-3.788-1.456-5.149-2.037-5.606z" fill="none" stroke="#000" stroke-linecap="round" stroke-linejoin="round" stroke-width="3.37"/><g data-name="그룹 4814" style="mix-blend-mode:darken;isolation:isolate"><g data-name="그룹 4813" clip-path="url(#f)" transform="translate(479.108 604.373)"><path data-name="패스 13436" d="M1.599 9.251a30.283 30.283 0 0 1 19.368-7.642c16.179-.152 25.383 13.81 25.992 14.78" fill="none" stroke="#7c6454" stroke-linecap="round" stroke-linejoin="round" stroke-width="3.37"/></g></g><path data-name="패스 13437" d="M359.4 507.116c.466 22.09.676 58.921-2.284 95.287a302.8 302.8 0 0 1-5.6 35.119c-4.987 23.2-7.633 34.89-15.037 39.316-14.723 8.794-35.994-7.776-42.8.771-3.16 3.969-.857 10.593-.01 13 1.342 3.854 6.053 14.143 30.074 22.423 29.694 10.231 60.672 7.652 81.03 4.073a272.448 272.448 0 0 0 116.205.495q76.961-2.042 153.913-4.093 26.6-8.808 26.505-17.331-.143-12.548-58.1-24.459a83.466 83.466 0 0 1-3.569-10.707 91.782 91.782 0 0 1-1.666-36.841c2.731-19.853 10.574-81.506 22.546-164.981" fill="#cfa57a"/><path data-name="패스 13438" d="M359.4 507.116c.466 22.09.676 58.921-2.284 95.287a302.8 302.8 0 0 1-5.6 35.119c-4.987 23.2-7.633 34.89-15.037 39.316-14.723 8.794-35.994-7.776-42.8.771-3.16 3.969-.857 10.593-.01 13 1.342 3.854 6.053 14.143 30.074 22.423 29.694 10.231 60.672 7.652 81.03 4.073a272.448 272.448 0 0 0 116.205.495q76.961-2.042 153.913-4.093 26.6-8.808 26.505-17.331-.143-12.548-58.1-24.459a83.466 83.466 0 0 1-3.569-10.707 91.782 91.782 0 0 1-1.666-36.841c2.731-19.853 10.574-81.506 22.546-164.981" fill="none" stroke="#000" stroke-linecap="round" stroke-linejoin="round" stroke-width="3.37"/><path data-name="패스 13439" d="M363.978 416.912c-5.082 21.709-11.744 36.708-17.321 46.891 0 0-7.281 13.286-10.193 36.185-.3 2.389-.324 5.539 1.018 6.12 1.171.5 3-1.161 4.368-2.427a25.934 25.934 0 0 0 5.092-6.615c1.551-2.731 4.673-6.253 11.706-9.165-1.171 24.088-6.567 41.333-11.478 52.859-3.122 7.319-7.033 14.971-3.8 18.892 4.321 5.234 19 .914 29.009-2.037a110.422 110.422 0 0 0 15.047-5.653 1380.378 1380.378 0 0 0 6.12 51.983c4.968 36.27 7.462 43.694 13.258 50.965 10.945 13.733 29.085 21.452 45.083 21.652 8.442.1 16-1.894 25.249-4.33 15.618-4.13 20.8-5.986 24.973-9.175a41.315 41.315 0 0 0 10.733-12.307c2.827-5.006 3.959-10.022 6.11-19.853a210.917 210.917 0 0 0 2.541-13.743 287.675 287.675 0 0 0 34.633 24.992c20.843 12.81 31.55 19.215 45.264 18.768 5.653-.181 20.967-1.77 37.66-18.321a5.973 5.973 0 0 1 3.559.514 6.114 6.114 0 0 1 2.7 2.6c.838 6.2 4.939 32.111 23.955 42.809 4.13 2.322 12.667 7.128 20.386 3.569.666-.3 6.6-3.15 7.642-8.661 1.3-6.929-5.939-11.792-11.725-20.89-3.759-5.91-7.728-14.961-8.356-28.58a7.827 7.827 0 0 1 2.541-1.018 7.652 7.652 0 0 1 3.055 0q-5.51-20.629-11.011-41.248c.657-11.735.638-21.2.5-27.524-.314-15.646-1.494-22.213.5-34.148 1.409-8.413 2.627-8.927 3.569-15.8a68 68 0 0 0-3.007-30.379c2.608-2.246 5.863-5.815 6.053-10.393.19-4.416-2.608-6.852-4.587-11.725-1.532-3.778-2.846-9.669-1.018-18.349 3.35 1.789 5.368 1.646 6.624 1.018 6.929-3.464 1.409-26.905 0-32.616a24.642 24.642 0 0 0 2.037-5.092c2.379-8.67-.742-16.522-2.551-20.9a1516.61 1516.61 0 0 0-24.983-57.075 91.243 91.243 0 0 0-49.68-14.143 90.211 90.211 0 0 0-39 9.565q-101.159 46.382-202.318 92.774" fill="#cfa57a"/><path data-name="패스 13440" d="M363.978 416.912c-5.082 21.709-11.744 36.708-17.321 46.891 0 0-7.281 13.286-10.193 36.185-.3 2.389-.324 5.539 1.018 6.12 1.171.5 3-1.161 4.368-2.427a25.934 25.934 0 0 0 5.092-6.615c1.551-2.731 4.673-6.253 11.706-9.165-1.171 24.088-6.567 41.333-11.478 52.859-3.122 7.319-7.033 14.971-3.8 18.892 4.321 5.234 19 .914 29.009-2.037a110.422 110.422 0 0 0 15.047-5.653 1380.378 1380.378 0 0 0 6.12 51.983c4.968 36.27 7.462 43.694 13.258 50.965 10.945 13.733 29.085 21.452 45.083 21.652 8.442.1 16-1.894 25.249-4.33 15.618-4.13 20.8-5.986 24.973-9.175a41.315 41.315 0 0 0 10.733-12.307c2.827-5.006 3.959-10.022 6.11-19.853a210.917 210.917 0 0 0 2.541-13.743 287.675 287.675 0 0 0 34.633 24.992c20.843 12.81 31.55 19.215 45.264 18.768 5.653-.181 20.967-1.77 37.66-18.321a5.973 5.973 0 0 1 3.559.514 6.114 6.114 0 0 1 2.7 2.6c.838 6.2 4.939 32.111 23.955 42.809 4.13 2.322 12.667 7.128 20.386 3.569.666-.3 6.6-3.15 7.642-8.661 1.3-6.929-5.939-11.792-11.725-20.89-3.759-5.91-7.728-14.961-8.356-28.58a7.827 7.827 0 0 1 2.541-1.018 7.652 7.652 0 0 1 3.055 0q-5.51-20.629-11.011-41.248c.657-11.735.638-21.2.5-27.524-.314-15.646-1.494-22.213.5-34.148 1.409-8.413 2.627-8.927 3.569-15.8a68 68 0 0 0-3.007-30.379c2.608-2.246 5.863-5.815 6.053-10.393.19-4.416-2.608-6.852-4.587-11.725-1.532-3.778-2.846-9.669-1.018-18.349 3.35 1.789 5.368 1.646 6.624 1.018 6.929-3.464 1.409-26.905 0-32.616a24.642 24.642 0 0 0 2.037-5.092c2.379-8.67-.742-16.522-2.551-20.9a1516.61 1516.61 0 0 0-24.983-57.075 91.243 91.243 0 0 0-49.68-14.143 90.211 90.211 0 0 0-39 9.565q-101.159 46.382-202.318 92.774z" fill="none" stroke="#000" stroke-linecap="round" stroke-linejoin="round" stroke-width="3.37"/><g data-name="그룹 4816" style="mix-blend-mode:darken;isolation:isolate"><g data-name="그룹 4815" clip-path="url(#g)" transform="translate(396.974 417.854)"><path data-name="패스 13441" d="M53.648 1.599a570.851 570.851 0 0 0-11.716 59.626 570.4 570.4 0 0 0-4.073 37.717c-4.406-1.742-10.992-3.445-17.331-1.018-14.752 5.653-16.979 29.437-18.14 41.838-1.018 10.9-2.179 23.232 4.578 36.641 1.789 3.54 11.525 22.937 27.99 24.431 6.2.562 8.9-1.894 30.027-14.247 27.276-15.951 33.52-18.13 34.6-25.449 1.114-7.509-3.912-15.8-8.651-20.357a19.648 19.648 0 0 0-9.165-5.6c-5.786-1.409-7.966 1.494-17.816 1.523-3.778.01-9.917-.038-11.326-3.112a4.681 4.681 0 0 1 .133-3.5c4.759-13.229 9.375-26.505 14.247-39.7 2.084-5.644 1.466-6.167 4.578-24.935 2-12.03 5.158-29.323 10.079-50.613" fill="none" stroke="#7c6454" stroke-linecap="round" stroke-linejoin="round" stroke-width="3.37"/></g></g><path data-name="패스 13442" d="M585.624 663.475a94.316 94.316 0 0 1 19.339 4.578c14.818 5.33 13.7 10.222 33.082 20.862 6.063 3.331 22.451 11.8 32.406 18.863a47.5 47.5 0 0 1 3.931 3.169c5.568 4.968 10.383 9.27 9.689 13.762-1.961 12.677-46.416 17.664-81.03 15.294-12.82-.876-76.385-5.891-81.039-30.065-1.456-7.576 3-16.37 5.1-20.519" fill="#cfa57a"/><path data-name="패스 13443" d="M585.624 663.475a94.316 94.316 0 0 1 19.339 4.578c14.818 5.33 13.7 10.222 33.082 20.862 6.063 3.331 22.451 11.8 32.406 18.863a47.5 47.5 0 0 1 3.931 3.169c5.568 4.968 10.383 9.27 9.689 13.762-1.961 12.677-46.416 17.664-81.03 15.294-12.82-.876-76.385-5.891-81.039-30.065-1.456-7.576 3-16.37 5.1-20.519" fill="none" stroke="#000" stroke-linecap="round" stroke-linejoin="round" stroke-width="3.37"/><g data-name="그룹 4818" style="mix-blend-mode:darken;isolation:isolate"><g data-name="그룹 4817" clip-path="url(#h)" transform="translate(448.015 480.183)"><path data-name="패스 13444" d="M107.097 62.081a206.409 206.409 0 0 1-16.819 17.892C79.295 90.366 73.804 95.562 70.435 94.22c-7.119-2.817-8.546-30.807 3.559-39.182 6.129-4.235 15.694-3.436 22.9-10.688 1.266-1.275 2.77-3.112 2.551-5.206-.324-3.036-4.092-4.987-6.624-6.12-14.371-6.4-29.113-4.654-30.531-9.041-.923-2.836 4.026-7.338 8.147-9.669 11.773-6.672 25.2-.428 26.467-3.721.695-1.808-2.874-5.006-5.606-6.624-7.328-4.349-16.065-1.78-22.385.162-6.091 1.875-3.826 2.3-16.8 8.147-7.452 3.36-13.077 5.415-18.321 11.192-1.361 1.5-3.988 4.445-3.15 5.986 1.228 2.237 8.137-1.846 16.313 1.018.7.247 8.727 2.884 9.175 7.642.276 2.969-2.674 5.549-6.557 8.765a40.788 40.788 0 0 1-17.3 9.165c-8.537 2.046-10.4-.476-16.284 1.532-4.264 1.456-9.584 4.92-14.381 13.686" fill="none" stroke="#7c6454" stroke-linecap="round" stroke-linejoin="round" stroke-width="3.37"/></g></g><path data-name="패스 13445" d="M563.716-65.232c4.806 1.666 12.639 5.2 17.331 12.744 12.734 20.462-4.759 58.978-32.606 75.434-19.425 11.478-39.04 9.422-44.845 8.67-28.438-3.683-58.921-23.774-63.2-50.451-.514-3.226-2.551-16.275 5.092-29.047a41.941 41.941 0 0 1 17.331-15.8c-4.2 4.863-15.913 19.739-14.266 38.735 2.513 28.98 34.567 49.823 62.186 49.433 40.686-.581 73.721-47.272 65.231-70.332-2.179-5.929-6.986-9.965-11.725-12.744" fill="#cfa57a"/><path data-name="패스 13446" d="M563.716-65.232c4.806 1.666 12.639 5.2 17.331 12.744 12.734 20.462-4.759 58.978-32.606 75.434-19.425 11.478-39.04 9.422-44.845 8.67-28.438-3.683-58.921-23.774-63.2-50.451-.514-3.226-2.551-16.275 5.092-29.047a41.941 41.941 0 0 1 17.331-15.8c-4.2 4.863-15.913 19.739-14.266 38.735 2.513 28.98 34.567 49.823 62.186 49.433 40.686-.581 73.721-47.272 65.231-70.332-2.179-5.929-6.986-9.965-11.725-12.744" fill="none" stroke="#7c6454" stroke-linecap="round" stroke-linejoin="round" stroke-width="3.37"/><g data-name="그룹 4820" style="mix-blend-mode:darken;isolation:isolate"><g data-name="그룹 4819" clip-path="url(#i)" transform="translate(559.662 686.374)"><path data-name="패스 13447" d="M6.624 0a34.474 34.474 0 0 0-5.092 6.614C.142 8.965.038 9.802.009 10.173c-.276 3.569 3.712 6.567 5.092 7.633 13.771 10.669 39.7 12.211 39.7 12.211a267.787 267.787 0 0 0 44.017-.761 240.96 240.96 0 0 0-1.018-5.6q-.243-1.285-.514-2.541" fill="#7c6454"/></g></g><path data-name="패스 13448" d="M582.56-205.392c-1.133-18.5-1.694-27.752-6.12-32.616-10.992-12.087-29.779 1.075-74.92 1.028-32.606-.038-48.852-6.957-56.057 3.065-4.816 6.691-5.215 20.4-5.606 33.634-.133 4.711 0 9.869 0 9.869.038 1.466.1 2.865.171 4.226.381-4.083.866-7.6 1.361-10.517.514-3.084 1.037-5.577 3.055-7.642 3.426-3.5 8.489-3.055 17.835-2.551 22.394 1.209 27.267.438 29.561 0a49.073 49.073 0 0 0 15.8-6.12 102.922 102.922 0 0 0 15.294 3.569 123.959 123.959 0 0 0 26.506 1.019c15.751-.98 21.043-3.95 25.992 0 1.646 1.313 3.341 3.464 5.1 11.211a87.648 87.648 0 0 1 1.018 32.111 87.675 87.675 0 0 0-1.018-32.111c-1.751-7.747-3.455-9.9-5.1-11.211-4.949-3.95-10.241-.98-25.992 0a123.958 123.958 0 0 1-26.505-1.018 103.519 103.519 0 0 1-15.294-3.569 48.984 48.984 0 0 1-15.8 6.12c-2.294.447-7.166 1.209-29.561 0-9.346-.5-14.419-.961-17.835 2.551-2.018 2.065-2.541 4.568-3.055 7.642-.485 2.912-.98 6.434-1.361 10.517.314 6.091.895 11.078 1.361 14.961 6.281 52.516 8.3 61.938 10.2 66.763 4.007 10.212 7.081 18.026 14.78 25.992 19.329 19.977 46.33 18.968 48.414 18.854 2.2-.124 26.41-1.8 43.351-20.443 15.932-17.531 18.759-42.713 23.4-84.047.228-2.027 3.293-3.969 1.018-41.286" fill="#cfa57a"/><path data-name="패스 13449" d="M582.56-205.392c-1.133-18.5-1.694-27.752-6.12-32.616-10.992-12.087-29.779 1.075-74.92 1.028-32.606-.038-48.852-6.957-56.057 3.065-4.816 6.691-5.215 20.4-5.606 33.634-.133 4.711 0 9.869 0 9.869.038 1.466.1 2.865.171 4.226.381-4.083.866-7.6 1.361-10.517.514-3.084 1.037-5.577 3.055-7.642 3.426-3.5 8.489-3.055 17.835-2.551 22.394 1.209 27.267.438 29.561 0a49.073 49.073 0 0 0 15.8-6.12 102.922 102.922 0 0 0 15.294 3.569 123.959 123.959 0 0 0 26.506 1.019c15.751-.98 21.043-3.95 25.992 0 1.646 1.313 3.341 3.464 5.1 11.211a87.648 87.648 0 0 1 1.018 32.111 87.675 87.675 0 0 0-1.018-32.111c-1.751-7.747-3.455-9.9-5.1-11.211-4.949-3.95-10.241-.98-25.992 0a123.958 123.958 0 0 1-26.505-1.018 103.519 103.519 0 0 1-15.294-3.569 48.984 48.984 0 0 1-15.8 6.12c-2.294.447-7.166 1.209-29.561 0-9.346-.5-14.419-.961-17.835 2.551-2.018 2.065-2.541 4.568-3.055 7.642-.485 2.912-.98 6.434-1.361 10.517.314 6.091.895 11.078 1.361 14.961 6.281 52.516 8.3 61.938 10.2 66.763 4.007 10.212 7.081 18.026 14.78 25.992 19.329 19.977 46.33 18.968 48.414 18.854 2.2-.124 26.41-1.8 43.351-20.443 15.932-17.531 18.759-42.713 23.4-84.047.236-2.023 3.3-3.969 1.025-41.287z" fill="none" stroke="#000" stroke-linecap="round" stroke-linejoin="round" stroke-width="3.37"/><g data-name="그룹 4822" style="mix-blend-mode:darken;isolation:isolate"><g data-name="그룹 4821" clip-path="url(#j)" transform="translate(369.003 422.679)"><path data-name="패스 13450" d="M1.608 34.939a65.978 65.978 0 0 0 7.366-9.232c3.036-4.616 4.13-7.566 8.337-15.389A265.265 265.265 0 0 1 22.222 1.6" fill="none" stroke="#7c6454" stroke-linecap="round" stroke-linejoin="round" stroke-width="3.37"/></g></g><g data-name="그룹 4824" style="mix-blend-mode:darken;isolation:isolate"><g data-name="그룹 4823" clip-path="url(#k)" transform="translate(448.434 -184.188)"><path data-name="패스 13451" d="M1.628 24.679c-.067-1.142-.6-14.362 8.156-19.872 3.845-2.427 8.109-2.494 11.725-2.551a33.9 33.9 0 0 1 15.285 3.569 30.655 30.655 0 0 1 8.661 5.606c5.035 4.749 6.852 10.212 8.156 14.266 2.275 7.071 1.418 11.1 1.39 24.3 0 4.73.076 11.582.514 19.958a2.625 2.625 0 0 0 5.12 0c.2-8.8.1-15.837 0-20.472-.2-8.651-.628-15.408 1.646-23.784a27.892 27.892 0 0 1 3.312-7.9 28.718 28.718 0 0 1 8.661-8.661 44.077 44.077 0 0 1 29.808-7.2 39.288 39.288 0 0 1 19.12 9.241" fill="none" stroke="#7c6454" stroke-linecap="round" stroke-linejoin="round" stroke-width="3.37"/></g></g><g data-name="그룹 4826" style="mix-blend-mode:darken;isolation:isolate"><g data-name="그룹 4825" clip-path="url(#l)" transform="translate(454.582 -157.825)"><path data-name="패스 13452" d="M0 .67A15.75 15.75 0 0 1 6.614.156c1.3.19 1.837.447 6.11 2.037 6.262 2.332 7.281 2.579 8.242 2.77a39.226 39.226 0 0 0 6.139.514c4.806.057 6.139-.828 8.385.238a7.445 7.445 0 0 1 2.551 2.037 17.936 17.936 0 0 0-2.484-.485 18.643 18.643 0 0 0-4.606 0c-.7.086-.609.124-1.466.257a28.52 28.52 0 0 1-4.035.266 25.191 25.191 0 0 1-10.364-2.065c-1.3-.6-2.75-1.437-2.865-1.5-2.056-1.19-2.037-1.447-3.274-2.084A14.788 14.788 0 0 0 3.57.656a16.852 16.852 0 0 0-3.559 0" fill="#7c6454"/></g></g><g data-name="그룹 4828" style="mix-blend-mode:darken;isolation:isolate"><g data-name="그룹 4827" clip-path="url(#m)" transform="translate(489.986 -117.738)"><path data-name="패스 13453" d="M1.608 2.788A2.256 2.256 0 0 1 2.55 1.77c1.751-.895 3.921 1.846 7.528 3.569a12.659 12.659 0 0 0 6.12 1.532c3.036-.133 6.043-1.751 9.413-3.569 1.409-.761 3.283-1.865 4.7-1.018a2.661 2.661 0 0 1 .942 1.018" fill="none" stroke="#7c6454" stroke-linecap="round" stroke-linejoin="round" stroke-width="3.37"/></g></g><g data-name="그룹 4830" style="mix-blend-mode:darken;isolation:isolate"><g data-name="그룹 4829" clip-path="url(#n)" transform="translate(477.062 412.239)"><path data-name="패스 13454" d="M13.819 1.599a439.394 439.394 0 0 1-1.523 29.047 440.8 440.8 0 0 1-10.7 65.745" fill="none" stroke="#7c6454" stroke-linecap="round" stroke-linejoin="round" stroke-width="3.37"/></g></g><g data-name="그룹 4832" style="mix-blend-mode:darken;isolation:isolate"><g data-name="그룹 4831" clip-path="url(#o)" transform="translate(483.371 -108.868)"><path data-name="패스 13455" d="M1.599 1.599A99.865 99.865 0 0 0 7.205 4.15c6.158 2.551 8.413 2.722 10.193 2.551a12.827 12.827 0 0 0 2.551-.514 6.184 6.184 0 0 0 9.175 0 19.467 19.467 0 0 0 3.055.514c6.757.562 12.173-2.7 14.78-4.587" fill="none" stroke="#7c6454" stroke-linecap="round" stroke-linejoin="round" stroke-width="3.37"/></g></g><path data-name="패스 13456" d="M566.286 686.374c-.914.857-3.112 2.912-3.055 5.6.152 7.747 18.863 13.162 20.862 13.743a63.224 63.224 0 0 0 6.472 1.466c4.682.7 7.481.171 20 2.608q3.155.585 6.6 1a105.316 105.316 0 0 0 18.844.533 14.09 14.09 0 0 0 9.165-1.523c1.161-.714 1.428-1.18 1.523-1.523.7-2.4-4.092-5.729-6.11-7.128-7.995-5.549-20.072-9.717-28.495-12.211-4.587-1.77-34.614-13.039-45.806-2.541" fill="#cfa57a"/><path data-name="패스 13457" d="M566.286 686.374c-.914.857-3.112 2.912-3.055 5.6.152 7.747 18.863 13.162 20.862 13.743a63.224 63.224 0 0 0 6.472 1.466c4.682.7 7.481.171 20 2.608q3.155.585 6.6 1a105.316 105.316 0 0 0 18.844.533 14.09 14.09 0 0 0 9.165-1.523c1.161-.714 1.428-1.18 1.523-1.523.7-2.4-4.092-5.729-6.11-7.128-7.995-5.549-20.072-9.717-28.495-12.211-4.587-1.77-34.614-13.039-45.806-2.541z" fill="none" stroke="#7c6454" stroke-linecap="round" stroke-linejoin="round" stroke-width="3.37"/><g data-name="그룹 4834" style="mix-blend-mode:darken;isolation:isolate"><g data-name="그룹 4833" clip-path="url(#p)" transform="translate(489.491 -102.016)"><path data-name="패스 13458" d="M1.599 1.865a13.18 13.18 0 0 0 5.044 4.073 15 15 0 0 0 6.871 1.018 23.952 23.952 0 0 0 4.578-.514 20.929 20.929 0 0 0 5.044 1.018c2.493.19 4.882.362 7.328-1.018a10.938 10.938 0 0 0 4.349-4.844" fill="none" stroke="#7c6454" stroke-linecap="round" stroke-linejoin="round" stroke-width="3.37"/></g></g><g data-name="그룹 4836" style="mix-blend-mode:darken;isolation:isolate"><g data-name="그룹 4835" clip-path="url(#q)" transform="translate(486.741 -128.245)"><path data-name="패스 13459" d="M8.422 1.609c-.114 0-.3-.01-.514 0-2.95.19-4.806 3.559-5.1 4.073-.78 1.409-1.608 2.922-1.018 4.587a4.7 4.7 0 0 0 2.551 2.551" fill="none" stroke="#7c6454" stroke-linecap="round" stroke-linejoin="round" stroke-width="3.37"/></g></g><g data-name="그룹 4838" style="mix-blend-mode:darken;isolation:isolate"><g data-name="그룹 4837" clip-path="url(#r)" transform="translate(516.501 -127.017)"><path data-name="패스 13460" d="M1.599 1.903a5.362 5.362 0 0 1 3.569 0 5.619 5.619 0 0 1 3.055 3.055 7.683 7.683 0 0 1 0 6.12" fill="none" stroke="#7c6454" stroke-linecap="round" stroke-linejoin="round" stroke-width="3.37"/></g></g><path data-name="패스 13461" d="M678.685 359.551c-.362-2.132-1.78-3.845-2.722-5.13a4.107 4.107 0 0 1-2.37-1.494c-2.446-2.8 1.761-8.242 2.294-13.505.961-9.555-10.269-17.978-15.294-21.918-34.481-26.991-43.027-49.9-53.011-45.864-9.489 3.845-11.145 28.323-4.073 45.359 10.878 26.2 41.952 33.758 45.873 34.652 2.284.523 4.226.828 5.606 1.018a33.149 33.149 0 0 0 5.606 11.211c2.018 2.608 4.016 5.13 7.481 5.948a10.3 10.3 0 0 0 4.578 0 8.574 8.574 0 0 0 5.52-4.159 9.216 9.216 0 0 0 .514-6.12" fill="#cfa57a"/><path data-name="패스 13462" d="M678.685 359.551c-.362-2.132-1.78-3.845-2.722-5.13a4.107 4.107 0 0 1-2.37-1.494c-2.446-2.8 1.761-8.242 2.294-13.505.961-9.555-10.269-17.978-15.294-21.918-34.481-26.991-43.027-49.9-53.011-45.864-9.489 3.845-11.145 28.323-4.073 45.359 10.878 26.2 41.952 33.758 45.873 34.652 2.284.523 4.226.828 5.606 1.018a33.149 33.149 0 0 0 5.606 11.211c2.018 2.608 4.016 5.13 7.481 5.948a10.3 10.3 0 0 0 4.578 0 8.574 8.574 0 0 0 5.52-4.159 9.216 9.216 0 0 0 .514-6.12z" fill="none" stroke="#000" stroke-linecap="round" stroke-linejoin="round" stroke-width="3.37"/><g data-name="그룹 4840" style="mix-blend-mode:darken;isolation:isolate"><g data-name="그룹 4839" clip-path="url(#s)" transform="translate(523.182 -162.764)"><path data-name="패스 13463" d="M.009 12.677c-.238-.352 1.913-2.893 4.587-3.569a26.858 26.858 0 0 1 4.073-.514c.143 0 .267-.01.39-.01 1.4-.029 2.417 0 2.674.01a16.262 16.262 0 0 0 3.636-.457 33.986 33.986 0 0 0 3.854-.7 27.8 27.8 0 0 0 4.283-1.846 49.639 49.639 0 0 1 4.578-2.037 32.223 32.223 0 0 1 4.578-1.018c2.532-.457 3.236-.419 4.578-1.018a19.183 19.183 0 0 0 2.541-1.523 10.291 10.291 0 0 1-3.055 2.541c-2.494 1.475-3.864 1.1-6.615 2.037-2.731.923-2.218 1.57-6.11 3.559a29.878 29.878 0 0 1-8.461 3.026 27.02 27.02 0 0 1-7.167.514 16.185 16.185 0 0 0-5.12 0c-2.046.428-3.112 1.228-3.264.99" fill="#7c6454"/></g></g><path data-name="패스 13464" d="M332.228 190.373c1.418 19.225 6.7 25.316 11.345 27.276 24.973 10.517 84.247-76.119 103.452-108.563a437.176 437.176 0 0 0 38.212-83.59 71.114 71.114 0 0 0 3.055-21.4c-.124-9.8-2.227-10.421-3.569-22.937-1.447-13.476-.657-28.266-4.587-30.065a6.146 6.146 0 0 0-3.055-.514 11.216 11.216 0 0 0-3.569 2.037c-5.063 4.349-5.758 13.372-2.551 22.937a4.646 4.646 0 0 1-3.569 1.018c-1.618-.371-2.522-1.989-3.055-3.055-2.9-5.834-8.908-24.164-9.175-24.973q4.083-5.1 8.156-10.193c1.133-.638 10.459-5.948 9.679-10.707a3.511 3.511 0 0 0-1.532-2.551c-1.218-.609-3.036 0-4.587 1.532.362-.685 5.91-11.459 2.8-16.836a5.837 5.837 0 0 0-3.312-3.036 5.246 5.246 0 0 0-4.073.514c-2.2 1.418-2.17 4.559-2.551 7.138-.714 4.863-2.455 4.9-9.679 17.835a210.128 210.128 0 0 0-5.092 9.689c-4.159.409-6.139 1.951-7.138 3.055-6.719 7.433 5.587 23.508 9.689 50.451a184.624 184.624 0 0 1 2.037 22.423C422.73 55.765 403.22 79.406 389.933 94.31c-1.275 1.437-6.377 7.09-12.953 15.113a447.718 447.718 0 0 0-16.608 21.576" fill="#cfa57a"/><path data-name="패스 13465" d="M332.228 190.373c1.418 19.225 6.7 25.316 11.345 27.276 24.973 10.517 84.247-76.119 103.452-108.563a437.176 437.176 0 0 0 38.212-83.59 71.114 71.114 0 0 0 3.055-21.4c-.124-9.8-2.227-10.421-3.569-22.937-1.447-13.476-.657-28.266-4.587-30.065a6.146 6.146 0 0 0-3.055-.514 11.216 11.216 0 0 0-3.569 2.037c-5.063 4.349-5.758 13.372-2.551 22.937a4.646 4.646 0 0 1-3.569 1.018c-1.618-.371-2.522-1.989-3.055-3.055-2.9-5.834-8.908-24.164-9.175-24.973q4.083-5.1 8.156-10.193c1.133-.638 10.459-5.948 9.679-10.707a3.511 3.511 0 0 0-1.532-2.551c-1.218-.609-3.036 0-4.587 1.532.362-.685 5.91-11.459 2.8-16.836a5.837 5.837 0 0 0-3.312-3.036 5.246 5.246 0 0 0-4.073.514c-2.2 1.418-2.17 4.559-2.551 7.138-.714 4.863-2.455 4.9-9.679 17.835a210.128 210.128 0 0 0-5.092 9.689c-4.159.409-6.139 1.951-7.138 3.055-6.719 7.433 5.587 23.508 9.689 50.451a184.624 184.624 0 0 1 2.037 22.423C422.73 55.765 403.22 79.406 389.933 94.31c-1.275 1.437-6.377 7.09-12.953 15.113a447.718 447.718 0 0 0-16.608 21.576" fill="none" stroke="#000" stroke-linecap="round" stroke-linejoin="round" stroke-width="3.37"/><path data-name="패스 13466" d="M626.472 651.836a160.952 160.952 0 0 0 7.395 31.854 161.083 161.083 0 0 0 4.844 12.487c1.152 1.561 2.1 2.865 2.808 3.826 1.951 2.674 2.3 3.188 2.551 4.073.124.438 1.056 3.8-1.018 5.606-1.485 1.294-4.521.828-6.624-.514a7.23 7.23 0 0 1-4.587 1.018 10.237 10.237 0 0 1-4.33-1.78 8.4 8.4 0 0 1-4.33 2.294c-4.368.79-7.6-2.494-7.9-2.8a13.13 13.13 0 0 1-5.349 1.275 13.731 13.731 0 0 1-8.413-2.8 14.527 14.527 0 0 1-5.863.761c-3.264-.257-5.32-1.723-8.661-3.569-7.547-4.159-7.9-2.865-9.679-4.587-3.626-3.493-2.884-9.089-1.532-22.937 1.19-12.182 1.78-18.273 1.78-19.625 0-15.018-2.922-21.081 0-33.558a21.1 21.1 0 0 1 2.037-5.177c5.815-10.954 18.768-21.128 32.873-20.386 3.807.2 8.289.438 11.973 3.569 8.984 7.633-1.323 21.461 2.046 50.965" fill="#cfa57a"/><path data-name="패스 13467" d="M626.472 651.836a160.952 160.952 0 0 0 7.395 31.854 161.083 161.083 0 0 0 4.844 12.487c1.152 1.561 2.1 2.865 2.808 3.826 1.951 2.674 2.3 3.188 2.551 4.073.124.438 1.056 3.8-1.018 5.606-1.485 1.294-4.521.828-6.624-.514a7.23 7.23 0 0 1-4.587 1.018 10.237 10.237 0 0 1-4.33-1.78 8.4 8.4 0 0 1-4.33 2.294c-4.368.79-7.6-2.494-7.9-2.8a13.13 13.13 0 0 1-5.349 1.275 13.731 13.731 0 0 1-8.413-2.8 14.527 14.527 0 0 1-5.863.761c-3.264-.257-5.32-1.723-8.661-3.569-7.547-4.159-7.9-2.865-9.679-4.587-3.626-3.493-2.884-9.089-1.532-22.937 1.19-12.182 1.78-18.273 1.78-19.625 0-15.018-2.922-21.081 0-33.558a21.1 21.1 0 0 1 2.037-5.177c5.815-10.954 18.768-21.128 32.873-20.386 3.807.2 8.289.438 11.973 3.569 8.984 7.633-1.323 21.461 2.046 50.965z" fill="none" stroke="#000" stroke-linecap="round" stroke-linejoin="round" stroke-width="3.37"/><path data-name="패스 13468" d="M553.58 552.97c-.39 2.77-6.386 50.632 23.451 72.883a60.229 60.229 0 0 0 22.937 10.193c6.319 1.228 28.7 6.12 45.359-8.67 8.147-7.233 16.389-20.462 14.6-33.615-1.247-9.165-6.814-14.371-4.073-19.853 2.494-4.968 9.9-6.291 15.456-6.672" fill="#cfa57a"/><path data-name="패스 13469" d="M553.58 552.97c-.39 2.77-6.386 50.632 23.451 72.883a60.229 60.229 0 0 0 22.937 10.193c6.319 1.228 28.7 6.12 45.359-8.67 8.147-7.233 16.389-20.462 14.6-33.615-1.247-9.165-6.814-14.371-4.073-19.853 2.494-4.968 9.9-6.291 15.456-6.672" fill="none" stroke="#000" stroke-linecap="round" stroke-linejoin="round" stroke-width="3.37"/><path data-name="패스 13470" d="M637.161 547.872c17.369-43.637 23.85-80.525 26.5-105.5 2.3-21.737 3.017-46.853-8.67-72.369-4.806-10.5-10.431-17.245-16.817-22.423-3.426-2.779-21.376-17.331-43.38-11.849-13.876 3.455-22.1 13.067-24.935 16.8-4.939 6.5-7.956 14.143-10.688 39.7-2.484 23.279-2.541 40.9-2.541 42.238-.01 35.062 3.778 45.949 2.541 77.356a350.485 350.485 0 0 1-2.037 26.467l9.165 2.541q-1.785-31.55-3.559-63.109" fill="#cfa57a"/><path data-name="패스 13471" d="M637.161 547.872c17.369-43.637 23.85-80.525 26.5-105.5 2.3-21.737 3.017-46.853-8.67-72.369-4.806-10.5-10.431-17.245-16.817-22.423-3.426-2.779-21.376-17.331-43.38-11.849-13.876 3.455-22.1 13.067-24.935 16.8-4.939 6.5-7.956 14.143-10.688 39.7-2.484 23.279-2.541 40.9-2.541 42.238-.01 35.062 3.778 45.949 2.541 77.356a350.485 350.485 0 0 1-2.037 26.467l9.165 2.541q-1.785-31.55-3.559-63.109" fill="none" stroke="#7c6454" stroke-linecap="round" stroke-linejoin="round" stroke-width="3.37"/><path data-name="패스 13472" d="M386.419 551.962a66.872 66.872 0 0 0 18.854-23.441" fill="#cfa57a"/><path data-name="패스 13473" d="M386.419 551.962a66.872 66.872 0 0 0 18.854-23.441" fill="none" stroke="#000" stroke-linecap="round" stroke-linejoin="round" stroke-width="3.37"/><path data-name="패스 13474" d="M357.63 487.89c4.426-3.312 10.279-6.767 14-4.73 2.417 1.323 2.589 4.216 4.587 10.193 2.36 7.071 4.892 14.752 8.156 16.313 9.27 4.435 33.3-28.99 35.166-31.6a11.745 11.745 0 0 0 19.368 1.018" fill="#cfa57a"/><path data-name="패스 13475" d="M357.63 487.89c4.426-3.312 10.279-6.767 14-4.73 2.417 1.323 2.589 4.216 4.587 10.193 2.36 7.071 4.892 14.752 8.156 16.313 9.27 4.435 33.3-28.99 35.166-31.6a11.745 11.745 0 0 0 19.368 1.018" fill="none" stroke="#000" stroke-linecap="round" stroke-linejoin="round" stroke-width="3.37"/><g data-name="그룹 4842" style="mix-blend-mode:darken;isolation:isolate"><g data-name="그룹 4841" clip-path="url(#t)" transform="translate(548.384 359.742)"><path data-name="패스 13476" d="M10.279 1.599A315.423 315.423 0 0 0 2.637 45.94c-.8 8.118-2.084 24.431.514 86.131a2832.369 2832.369 0 0 0 1.532 32.111" fill="none" stroke="#7c6454" stroke-linecap="round" stroke-linejoin="round" stroke-width="3.37"/></g></g><g data-name="그룹 4844" style="mix-blend-mode:darken;isolation:isolate"><g data-name="그룹 4843" clip-path="url(#u)" transform="translate(562.707 375.026)"><path data-name="패스 13477" d="M22.974 103.024a178.276 178.276 0 0 1-8.661-18.854C1.988 52.696.637 23.203 2.074 1.608" fill="none" stroke="#7c6454" stroke-linecap="round" stroke-linejoin="round" stroke-width="3.37"/></g></g><g data-name="그룹 4846" style="mix-blend-mode:darken;isolation:isolate"><g data-name="그룹 4845" clip-path="url(#v)" transform="translate(661.325 632.868)"><path data-name="패스 13478" d="M29.36 58.207a30.963 30.963 0 0 1-13.971-56.6" fill="none" stroke="#7c6454" stroke-linecap="round" stroke-linejoin="round" stroke-width="3.37"/></g></g><g data-name="그룹 4848" style="mix-blend-mode:darken;isolation:isolate"><g data-name="그룹 4847" clip-path="url(#w)" transform="translate(595.827 691.008)"><path data-name="패스 13479" d="M1.599 1.599a9.756 9.756 0 0 1 4.073 13.762" fill="none" stroke="#7c6454" stroke-linecap="round" stroke-linejoin="round" stroke-width="3.37"/></g></g><g data-name="그룹 4850" style="mix-blend-mode:darken;isolation:isolate"><g data-name="그룹 4849" clip-path="url(#x)" transform="translate(609.589 693.559)"><path data-name="패스 13480" d="M1.599 1.599a10.235 10.235 0 0 1 5.1 7.138 9.505 9.505 0 0 1-1.018 5.606" fill="none" stroke="#7c6454" stroke-linecap="round" stroke-linejoin="round" stroke-width="3.37"/></g></g><g data-name="그룹 4852" style="mix-blend-mode:darken;isolation:isolate"><g data-name="그룹 4851" clip-path="url(#y)" transform="translate(619.268 695.596)"><path data-name="패스 13481" d="M1.599 1.599a9.689 9.689 0 0 1 6.12 5.092 9.414 9.414 0 0 1 .514 6.12" fill="none" stroke="#7c6454" stroke-linecap="round" stroke-linejoin="round" stroke-width="3.37"/></g></g><g data-name="그룹 4854" style="mix-blend-mode:darken;isolation:isolate"><g data-name="그룹 4853" clip-path="url(#z)" transform="translate(627.929 695.082)"><path data-name="패스 13482" d="M1.608 1.599a13.432 13.432 0 0 1 6.624 6.624 10 10 0 0 1 .514 6.12" fill="none" stroke="#7c6454" stroke-linecap="round" stroke-linejoin="round" stroke-width="3.37"/></g></g><path data-name="패스 13483" d="M348.179 388.369c37.783 19.644 79.564 9.413 94.792 5.6 16.274-4.083 44.655-18.349 101.416-46.9a119.3 119.3 0 0 0 11.211-6.12c28.418-17.845 42.456-45.407 49.813-65.707q-140.688 28.448-281.367 56.909l10.878 14.419q-7.98.685-15.97 1.361c-2.046 1.285-4.34 3.245-5.092 6.11-3.036 11.649 22.251 28.057 34.319 34.319" fill="#cfa57a"/><path data-name="패스 13484" d="M348.179 388.369c37.783 19.644 79.564 9.413 94.792 5.6 16.274-4.083 44.655-18.349 101.416-46.9a119.3 119.3 0 0 0 11.211-6.12c28.418-17.845 42.456-45.407 49.813-65.707q-140.688 28.448-281.367 56.909l10.878 14.419q-7.98.685-15.97 1.361c-2.046 1.285-4.34 3.245-5.092 6.11-3.036 11.649 22.251 28.057 34.319 34.319z" fill="none" stroke="#000" stroke-linecap="round" stroke-linejoin="round" stroke-width="3.37"/><path data-name="패스 13485" d="M605.982 269.566c3.845 14.657-90.709 49.49-139.447 64.632-17.055 5.3-44.607 13.153-80.411 12.725-19-.228-34.938-.419-53.439-7.633-31.407-12.249-72.445-45.645-68.105-84.437 2.132-19.1 15.332-39.792 34.652-47.91 12.525-5.263 24.45-3.693 33.13-2.551 18.806 2.474 25.3 9.527 53 21.909 16.779 7.49 29.637 11.725 43.513 16.294a572 572 0 0 0 58.021 15.265c72.854 14.685 116.539 2.008 119.089 11.706" fill="#cfa57a"/><path data-name="패스 13486" d="M605.982 269.566c3.845 14.657-90.709 49.49-139.447 64.632-17.055 5.3-44.607 13.153-80.411 12.725-19-.228-34.938-.419-53.439-7.633-31.407-12.249-72.445-45.645-68.105-84.437 2.132-19.1 15.332-39.792 34.652-47.91 12.525-5.263 24.45-3.693 33.13-2.551 18.806 2.474 25.3 9.527 53 21.909 16.779 7.49 29.637 11.725 43.513 16.294a572 572 0 0 0 58.021 15.265c72.852 14.685 116.536 2.008 119.086 11.706z" fill="none" stroke="#000" stroke-linecap="round" stroke-linejoin="round" stroke-width="3.37"/><path data-name="패스 13487" d="M690.409 359.542c-1.485-1.789-2.808-3.388-5.1-4.073-2.122-.638-2.96.019-6.12-.514-.942-.162-2.389-.324-3.236-.542.942 1.285 2.36 3 2.722 5.13a9.1 9.1 0 0 1-.5 6.12 8.167 8.167 0 0 1-4 3.655c2.513 1.456 4.559 2.617 6.034 3.483a2.9 2.9 0 0 0 2.037.514 2.752 2.752 0 0 0 1.532-1.018 3.226 3.226 0 0 0 2.551 2.037 3.092 3.092 0 0 0 2.037-.514 4.279 4.279 0 0 0 2.037 0c2.76-.695 3.759-4.1 3.826-4.33 1.114-3.988-2.094-7.852-3.826-9.936" fill="#cfa57a"/><path data-name="패스 13488" d="M690.409 359.542c-1.485-1.789-2.808-3.388-5.1-4.073-2.122-.638-2.96.019-6.12-.514-.942-.162-2.389-.324-3.236-.542.942 1.285 2.36 3 2.722 5.13a9.1 9.1 0 0 1-.5 6.12 8.167 8.167 0 0 1-4 3.655c2.513 1.456 4.559 2.617 6.034 3.483a2.9 2.9 0 0 0 2.037.514 2.752 2.752 0 0 0 1.532-1.018 3.226 3.226 0 0 0 2.551 2.037 3.092 3.092 0 0 0 2.037-.514 4.279 4.279 0 0 0 2.037 0c2.76-.695 3.759-4.1 3.826-4.33 1.114-3.988-2.094-7.852-3.826-9.936z" fill="none" stroke="#000" stroke-linecap="round" stroke-linejoin="round" stroke-width="3.37"/><path data-name="패스 13489" d="M607.515 637.007a60.513 60.513 0 0 1-32.578-12.725l-6.615-6.615q-3.055-5.082-6.11-10.174-.757-18.316-1.523-36.641-1.014-8.651-2.037-17.3c1.694-.5 3.388-1.018 5.092-1.523q4.1 12.449 8.194 24.907a44.707 44.707 0 0 0-1.018 21.4c.914 4.521 3.816 20.024 13.258 22.937 5.13 1.58 8.632-1.637 17.74.485a34.632 34.632 0 0 1 7.233 2.57" fill="#cfa57a"/><path data-name="패스 13490" d="M607.515 637.007a60.513 60.513 0 0 1-32.578-12.725l-6.615-6.615q-3.055-5.082-6.11-10.174-.757-18.316-1.523-36.641-1.014-8.651-2.037-17.3c1.694-.5 3.388-1.018 5.092-1.523q4.1 12.449 8.194 24.907a44.707 44.707 0 0 0-1.018 21.4c.914 4.521 3.816 20.024 13.258 22.937 5.13 1.58 8.632-1.637 17.74.485a34.632 34.632 0 0 1 7.233 2.57" fill="none" stroke="#7c6454" stroke-linecap="round" stroke-linejoin="round" stroke-width="3.37"/><g data-name="그룹 4856" style="mix-blend-mode:darken;isolation:isolate"><g data-name="그룹 4855" clip-path="url(#A)" transform="translate(400.591 265.968)"><path data-name="패스 13491" d="M1.599 31.169a616.242 616.242 0 0 0 66.763-16.826 613.822 613.822 0 0 0 36.689-12.744" fill="none" stroke="#7c6454" stroke-linecap="round" stroke-linejoin="round" stroke-width="3.37"/></g></g><g data-name="그룹 4858" style="mix-blend-mode:darken;isolation:isolate"><g data-name="그룹 4857" clip-path="url(#B)" transform="translate(380.214 277.694)"><path data-name="패스 13492" d="M1.599 42.379a490.684 490.684 0 0 0 53.52-10.2 493.161 493.161 0 0 0 87.149-30.588" fill="none" stroke="#7c6454" stroke-linecap="round" stroke-linejoin="round" stroke-width="3.37"/></g></g><g data-name="그룹 4860" style="mix-blend-mode:darken;isolation:isolate"><g data-name="그룹 4859" clip-path="url(#C)" transform="translate(441.876 308.273)"><path data-name="패스 13493" d="M1.599 24.031A245.159 245.159 0 0 0 62.747 1.608" fill="none" stroke="#7c6454" stroke-linecap="round" stroke-linejoin="round" stroke-width="3.37"/></g></g><path data-name="패스 13494" d="M537.277 367.793q-5.082 9.922-10.174 19.843" fill="#cfa57a"/><path data-name="패스 13495" d="M537.277 367.793q-5.082 9.922-10.174 19.843" fill="none" stroke="#000" stroke-linecap="round" stroke-linejoin="round" stroke-width="3.37"/><g data-name="그룹 4862" style="mix-blend-mode:darken;isolation:isolate"><g data-name="그룹 4861" clip-path="url(#D)" transform="translate(481.896 -81.554)"><path data-name="패스 13496" d="M1.608 3.655a65.536 65.536 0 0 0 55.27-2.056" fill="none" stroke="#7c6454" stroke-linecap="round" stroke-linejoin="round" stroke-width="3.37"/></g></g><g data-name="그룹 4864" style="mix-blend-mode:darken;isolation:isolate"><g data-name="그룹 4863" clip-path="url(#E)" transform="translate(448.881 -74.13)"><path data-name="패스 13497" d="M17.969 1.599a43.133 43.133 0 0 1-4.606 3.578A44.644 44.644 0 0 1 1.59 10.811" fill="none" stroke="#7c6454" stroke-linecap="round" stroke-linejoin="round" stroke-width="3.37"/></g></g><path data-name="패스 13498" d="M605.982 336.748q2.8-5.082 5.6-10.174a43.894 43.894 0 0 0 9.669-12.725 44.689 44.689 0 0 0 4.578-22.9 75.622 75.622 0 0 0-27.994 30.032" fill="#cfa57a"/><path data-name="패스 13499" d="M605.982 336.748q2.8-5.082 5.6-10.174a43.894 43.894 0 0 0 9.669-12.725 44.689 44.689 0 0 0 4.578-22.9 75.622 75.622 0 0 0-27.994 30.032" fill="none" stroke="#000" stroke-linecap="round" stroke-linejoin="round" stroke-width="3.37"/><g data-name="그룹 4866" style="mix-blend-mode:darken;isolation:isolate"><g data-name="그룹 4865" clip-path="url(#F)" transform="translate(441.458 -63.642)"><path data-name="패스 13500" d="M3.645 6.728q6.653-2.555 13.305-5.12c1.618 1.98 1.656 3.35 1.532 4.092-.514 3.274-5.777 5.092-11.773 7.166a63.328 63.328 0 0 1-5.12 1.532" fill="none" stroke="#7c6454" stroke-linecap="round" stroke-linejoin="round" stroke-width="3.37"/></g></g><g data-name="그룹 4868" style="mix-blend-mode:darken;isolation:isolate"><g data-name="그룹 4867" clip-path="url(#G)" transform="translate(674.097 367.717)"><path data-name="패스 13501" d="M15.142 5.689A29.259 29.259 0 0 0 1.608 1.597" fill="none" stroke="#6d5644" stroke-linecap="round" stroke-linejoin="round" stroke-width="3.37"/></g></g><g data-name="그룹 4870" style="mix-blend-mode:darken;isolation:isolate"><g data-name="그룹 4869" clip-path="url(#H)" transform="translate(290.885 680.701)"><path data-name="패스 13502" d="M1.599 1.599a57.254 57.254 0 0 0 13.229 15.78c10.536 8.7 21.309 10.735 35.119 13.229 15.57 2.817 44.369 5.434 59.54.5 2.5-.809 7.347-2.712 13.229-1.523 4.111.828 5.729 2.056 10.688 3.559 1.732.523 5.682 1.618 14.247 2.037 15.561.761 33.958-1.285 36.137-1.523 7.909-.885 20.8-2.294 38.174-4.073" fill="none" stroke="#7c6454" stroke-linecap="round" stroke-linejoin="round" stroke-width="3.37"/></g></g><g data-name="그룹 4872" style="mix-blend-mode:darken;isolation:isolate"><g data-name="그룹 4871" clip-path="url(#I)" transform="translate(471.551 339.356)"><path data-name="패스 13503" d="M1.599 41.667c4.987-3.417 10.754-8.556 10.688-14.761-.086-7.671-9.041-11.544-7.633-15.78.6-1.8 3.207-4.064 23.917-4.578 17.274-.428 22.889.971 34.072-.362a94.528 94.528 0 0 0 19.872-4.587" fill="none" stroke="#7c6454" stroke-linecap="round" stroke-linejoin="round" stroke-width="3.37"/></g></g><g data-name="그룹 4874" style="mix-blend-mode:darken;isolation:isolate"><g data-name="그룹 4873" clip-path="url(#J)" transform="translate(394.452 -18.34)"><path data-name="패스 13504" d="M1.599 1.637c3.617-.162 11.573.029 18.064 5.349 4.949 4.054 6.862 9.308 8.394 14.5 2.522 8.527 5.853 23.013 6.31 43.522" fill="none" stroke="#7c6454" stroke-linecap="round" stroke-linejoin="round" stroke-width="3.37"/></g></g><g data-name="그룹 4876" style="mix-blend-mode:darken;isolation:isolate"><g data-name="그룹 4875" clip-path="url(#K)" transform="translate(601.328 21.651)"><path data-name="패스 13505" d="M1.599 1.599q2.627 23.455 5.244 46.9" fill="none" stroke="#7c6454" stroke-linecap="round" stroke-linejoin="round" stroke-width="3.37"/></g></g><g data-name="그룹 4878" style="mix-blend-mode:darken;isolation:isolate"><g data-name="그룹 4877" clip-path="url(#L)" transform="translate(355.517 441)"><path data-name="패스 13506" d="M1.608 65.726a39.2 39.2 0 0 0 7.128-5.092c3.588-3.236 7.566-6.833 8.147-12.211a13.669 13.669 0 0 0-1.018-6.615 87.787 87.787 0 0 0 4.578-11.192 90.825 90.825 0 0 0 4.578-29.009" fill="none" stroke="#7c6454" stroke-linecap="round" stroke-linejoin="round" stroke-width="3.37"/></g></g><g data-name="그룹 4880" style="mix-blend-mode:darken;isolation:isolate"><g data-name="그룹 4879" clip-path="url(#M)" transform="translate(492.927 390.616)"><path data-name="패스 13507" d="M1.599 19.92q4.069-9.165 8.147-18.321" fill="none" stroke="#7c6454" stroke-linecap="round" stroke-linejoin="round" stroke-width="3.37"/></g></g><g data-name="그룹 4882" style="mix-blend-mode:darken;isolation:isolate"><g data-name="그룹 4881" clip-path="url(#N)" transform="translate(478.67 408.432)"><path data-name="패스 13508" d="m1.608 21.956 3.06-20.357" fill="none" stroke="#7c6454" stroke-linecap="round" stroke-linejoin="round" stroke-width="3.37"/></g></g><g data-name="그룹 4884" style="mix-blend-mode:darken;isolation:isolate"><g data-name="그룹 4883" clip-path="url(#O)" transform="translate(371.296 398.763)"><path data-name="선 904" fill="none" stroke="#7c6454" stroke-linecap="round" stroke-linejoin="round" stroke-width="3.37" d="M1.599 19.415 8.213 1.599"/></g></g><path data-name="패스 13509" d="M625.416 286.925c-.647-2.846-2.208-5.063-4.654-8.632a47.16 47.16 0 0 0-4.521-5.634 6.258 6.258 0 0 0-7.719-3.093 6.134 6.134 0 0 0-3.626 5.682 137.238 137.238 0 0 1-17.8 34.814 111.39 111.39 0 0 1-32.012 30.892 105.378 105.378 0 0 1-11.211 6.12 1547.59 1547.59 0 0 1-38.659 19.187c-37.089 17.769-55.98 25.9-62.757 27.7-13.838 3.693-35.718 9.508-62.443 4.359-8.1-1.561-19.672-3.921-32.064-12.211a76.568 76.568 0 0 1-26.466-30.523 72.223 72.223 0 0 1-3.055-7.633 16.4 16.4 0 0 0-4.578 5.092c-2.77 4.892-2.132 10.079-1.523 13.743 2.179 13.1 6.843 23.669 11.887 36.384a694.158 694.158 0 0 1 5.1 13.248 131.222 131.222 0 0 0-2.037 12.744c-.438 4.026-.428 5.634.514 7.138 2.113 3.4 7.252 3.559 8.661 3.569a28.887 28.887 0 0 1-3.769 13.952c-2.684 4.568-5.958 6.871-5.092 9.669a5.334 5.334 0 0 0 5.292 3.4 5.41 5.41 0 0 0 3.569-2.037c2.256.466 22.575 4.34 35.671-8.67 2.284-2.265 8.223-8.071 8.661-16.313.628-11.659-10.174-19.615-7.909-22.175 1.865-2.1 10.831 1.351 16.57 4.854 4.378 2.674 7.024 5.434 11.421 5.33a11.793 11.793 0 0 0 6.11-2.037 39.594 39.594 0 0 0 14.761 5.6c2.77.438 6.424.3 13.743 0 5.663-.228 6.89-.571 7.338-1.047a1.458 1.458 0 0 0 .152-.209c1.932-3.274-14.8-14.542-13.077-18.092.99-2.037 8.356-2.16 14.1 1.266 8.822 5.273 7.119 14.714 15.418 18.064 1.133.457 4.311.647 10.688 1.018 10.145.6 10.888-.333 11.1-.742 1.361-2.627-6.672-9.508-8.661-11.211-12.22-10.45-21.661-11.611-21.262-14.514.381-2.827 9.85-5.3 17.188-2.817 1.827.619 1.418.657 6.662 3.207a70.256 70.256 0 0 0 11.268 4.188c6.833 2 8.185.99 8.651.514 1.97-2.027.257-7.728-2.541-11.2-3.835-4.749-9.2-4.682-9.165-6.615.029-1.542 3.455-2.96 6.615-3.559 11.506-2.208 16.3 6.948 26.972 5.092.609-.1 9.022-1.685 11.192-7.633a10.189 10.189 0 0 0-.038-6.929 11.407 11.407 0 0 0-3.569-4.587c-2.769-2.456-4.14-2.189-7.081-4.778-1.77-1.551-3.379-2.96-3.055-4.073.666-2.265 9.041-1.675 11.192-1.532 8.727.619 8.68 2.474 13.743 2.541 5.358.076 10.355-2.95 20.367-8.994a96.4 96.4 0 0 0 10.117-6.8c3.854-2.96 5.672-4.9 8.461-6.633a33.673 33.673 0 0 1 4.863-2.37c11.811-4.8 22.879-3.255 23.879-6.757.942-3.293-7.433-9.708-10.688-8.147-.752.362-1.256 1.171-1.532 1.018-.533-.3.343-3.845 2.037-6.615 4.178-6.833 13.229-8.822 14.761-9.165 4.283-.942 5.244-.1 7.128-1.523a5.933 5.933 0 0 0 1.142-1.161c1.285-1.751 3.436-10.545 3.436-10.545 1.351-5.52 2.836-7.566 2.332-11.877a9.961 9.961 0 0 0-.2-1.294" fill="#cfa57a"/><path data-name="패스 13510" d="M625.416 286.925c-.647-2.846-2.208-5.063-4.654-8.632a47.16 47.16 0 0 0-4.521-5.634 6.258 6.258 0 0 0-7.719-3.093 6.134 6.134 0 0 0-3.626 5.682 137.238 137.238 0 0 1-17.8 34.814 111.39 111.39 0 0 1-32.012 30.892 105.378 105.378 0 0 1-11.211 6.12 1547.59 1547.59 0 0 1-38.659 19.187c-37.089 17.769-55.98 25.9-62.757 27.7-13.838 3.693-35.718 9.508-62.443 4.359-8.1-1.561-19.672-3.921-32.064-12.211a76.568 76.568 0 0 1-26.466-30.523 72.223 72.223 0 0 1-3.055-7.633 16.4 16.4 0 0 0-4.578 5.092c-2.77 4.892-2.132 10.079-1.523 13.743 2.179 13.1 6.843 23.669 11.887 36.384a694.158 694.158 0 0 1 5.1 13.248 131.222 131.222 0 0 0-2.037 12.744c-.438 4.026-.428 5.634.514 7.138 2.113 3.4 7.252 3.559 8.661 3.569a28.887 28.887 0 0 1-3.769 13.952c-2.684 4.568-5.958 6.871-5.092 9.669a5.334 5.334 0 0 0 5.292 3.4 5.41 5.41 0 0 0 3.569-2.037c2.256.466 22.575 4.34 35.671-8.67 2.284-2.265 8.223-8.071 8.661-16.313.628-11.659-10.174-19.615-7.909-22.175 1.865-2.1 10.831 1.351 16.57 4.854 4.378 2.674 7.024 5.434 11.421 5.33a11.793 11.793 0 0 0 6.11-2.037 39.594 39.594 0 0 0 14.761 5.6c2.77.438 6.424.3 13.743 0 5.663-.228 6.89-.571 7.338-1.047a1.458 1.458 0 0 0 .152-.209c1.932-3.274-14.8-14.542-13.077-18.092.99-2.037 8.356-2.16 14.1 1.266 8.822 5.273 7.119 14.714 15.418 18.064 1.133.457 4.311.647 10.688 1.018 10.145.6 10.888-.333 11.1-.742 1.361-2.627-6.672-9.508-8.661-11.211-12.22-10.45-21.661-11.611-21.262-14.514.381-2.827 9.85-5.3 17.188-2.817 1.827.619 1.418.657 6.662 3.207a70.256 70.256 0 0 0 11.268 4.188c6.833 2 8.185.99 8.651.514 1.97-2.027.257-7.728-2.541-11.2-3.835-4.749-9.2-4.682-9.165-6.615.029-1.542 3.455-2.96 6.615-3.559 11.506-2.208 16.3 6.948 26.972 5.092.609-.1 9.022-1.685 11.192-7.633a10.189 10.189 0 0 0-.038-6.929 11.407 11.407 0 0 0-3.569-4.587c-2.769-2.456-4.14-2.189-7.081-4.778-1.77-1.551-3.379-2.96-3.055-4.073.666-2.265 9.041-1.675 11.192-1.532 8.727.619 8.68 2.474 13.743 2.541 5.358.076 10.355-2.95 20.367-8.994a96.4 96.4 0 0 0 10.117-6.8c3.854-2.96 5.672-4.9 8.461-6.633a33.673 33.673 0 0 1 4.863-2.37c11.811-4.8 22.879-3.255 23.879-6.757.942-3.293-7.433-9.708-10.688-8.147-.752.362-1.256 1.171-1.532 1.018-.533-.3.343-3.845 2.037-6.615 4.178-6.833 13.229-8.822 14.761-9.165 4.283-.942 5.244-.1 7.128-1.523a5.933 5.933 0 0 0 1.142-1.161c1.285-1.751 3.436-10.545 3.436-10.545 1.351-5.52 2.836-7.566 2.332-11.877a9.961 9.961 0 0 0-.2-1.294z" fill="none" stroke="#000" stroke-linecap="round" stroke-linejoin="round" stroke-width="3.37"/><path data-name="패스 13511" d="M640.187 199.776c-1.98.828-5.425 3.283-12.23 8.156-20.329 14.561-26.3 20.748-40.258 29.056a169.937 169.937 0 0 1-12.23 6.624 167.657 167.657 0 0 1-13.762 5.606c-8.48 3.017-15.313 5.453-24.459 6.624-2.979.381-10.774 1.218-16.817 2.037a44.137 44.137 0 0 1-6.12 1.018c-4.226.409-5.234-.1-6.8.733a8.307 8.307 0 0 0-3.558 9.165c1.428 4.625 7.328 5.72 8.328 5.9 0 0 7.8 1.437 17.883-5.644l.029-.019c.029.029-3.873 3.046-6.9 5.872a58.7 58.7 0 0 0-5.853 6.357 103.973 103.973 0 0 0-7.728 7.871 532.71 532.71 0 0 1-6.262 6.624 5.764 5.764 0 0 0-2.037 3.055 5.245 5.245 0 0 0 2.037 4.578 6.409 6.409 0 0 0 5.6 1.018 19.122 19.122 0 0 1-3.312 3.312c-1.989 1.561-2.741 1.456-5.092 3.055-2.493 1.694-4.559 3.084-4.835 5.349a5.288 5.288 0 0 0 1.018 3.559 7.221 7.221 0 0 0 5.349 2.8 9.345 9.345 0 0 0 6.871-2.294c.048.39.7 4.778 4.073 6.11a6.242 6.242 0 0 0 3.312.257c2.636-.4 4.226-2.008 6.615-4.073 1.456-1.256 3.664-3.15 7.128-6.11-.029.638-.076 3.321 1.78 4.835a5.027 5.027 0 0 0 3.055 1.018c4.673.152 8.071-5.815 15.78-10.688 3.169-2.008 7.509-3.807 16.2-7.414a204.505 204.505 0 0 1 3.912-1.589s3.75-1.627 7.109-3.464a90.152 90.152 0 0 0 14.24-10.174c4.426-3.816 4.578-4.587 12.724-12.211 2.551-2.389 4.682-4.311 6.11-5.6a60.387 60.387 0 0 0 12.306-.476c2.674-.381 14.571-2.56 31.083-13.762 12.4-8.413 25.259-17.255 29.047-33.13a41.758 41.758 0 0 0-.247-19.586" fill="#cfa57a"/><path data-name="패스 13512" d="M640.187 199.776c-1.98.828-5.425 3.283-12.23 8.156-20.329 14.561-26.3 20.748-40.258 29.056a169.937 169.937 0 0 1-12.23 6.624 167.657 167.657 0 0 1-13.762 5.606c-8.48 3.017-15.313 5.453-24.459 6.624-2.979.381-10.774 1.218-16.817 2.037a44.137 44.137 0 0 1-6.12 1.018c-4.226.409-5.234-.1-6.8.733a8.307 8.307 0 0 0-3.558 9.165c1.428 4.625 7.328 5.72 8.328 5.9 0 0 7.8 1.437 17.883-5.644l.029-.019c.029.029-3.873 3.046-6.9 5.872a58.7 58.7 0 0 0-5.853 6.357h0a103.973 103.973 0 0 0-7.728 7.871 532.71 532.71 0 0 1-6.262 6.624 5.764 5.764 0 0 0-2.037 3.055 5.245 5.245 0 0 0 2.037 4.578 6.409 6.409 0 0 0 5.6 1.018 19.122 19.122 0 0 1-3.312 3.312c-1.989 1.561-2.741 1.456-5.092 3.055-2.493 1.694-4.559 3.084-4.835 5.349a5.288 5.288 0 0 0 1.018 3.559 7.221 7.221 0 0 0 5.349 2.8 9.345 9.345 0 0 0 6.871-2.294c.048.39.7 4.778 4.073 6.11a6.242 6.242 0 0 0 3.312.257c2.636-.4 4.226-2.008 6.615-4.073 1.456-1.256 3.664-3.15 7.128-6.11-.029.638-.076 3.321 1.78 4.835a5.027 5.027 0 0 0 3.055 1.018c4.673.152 8.071-5.815 15.78-10.688 3.169-2.008 7.509-3.807 16.2-7.414a204.505 204.505 0 0 1 3.912-1.589s3.75-1.627 7.109-3.464a90.152 90.152 0 0 0 14.24-10.174c4.426-3.816 4.578-4.587 12.724-12.211 2.551-2.389 4.682-4.311 6.11-5.6a60.387 60.387 0 0 0 12.306-.476c2.674-.381 14.571-2.56 31.083-13.762 12.4-8.413 25.259-17.255 29.047-33.13a41.758 41.758 0 0 0-.247-19.586" fill="none" stroke="#000" stroke-linecap="round" stroke-linejoin="round" stroke-width="3.37"/><g data-name="그룹 4886" style="mix-blend-mode:darken;isolation:isolate"><g data-name="그룹 4885" clip-path="url(#P)" transform="translate(506.86 281.71)"><path data-name="패스 13513" d="M1.599 38.612a351.92 351.92 0 0 1 24.24-22.765A348.386 348.386 0 0 1 43.655 1.6" fill="none" stroke="#7c6454" stroke-linecap="round" stroke-linejoin="round" stroke-width="3.37"/></g></g><g data-name="그룹 4888" style="mix-blend-mode:darken;isolation:isolate"><g data-name="그룹 4887" clip-path="url(#Q)" transform="translate(507.174 272.297)"><path data-name="패스 13514" d="M1.608 32.387c4.521-4.92 9.6-10.06 15.266-15.266A253.64 253.64 0 0 1 35.452 1.598" fill="none" stroke="#7c6454" stroke-linecap="round" stroke-linejoin="round" stroke-width="3.37"/></g></g><path data-name="패스 13515" d="M530.158 269.06c2.056-2 4.254-4.045 6.615-6.11q3.112-2.727 6.11-5.092" fill="#cfa57a"/><path data-name="패스 13516" d="M530.158 269.06c2.056-2 4.254-4.045 6.615-6.11q3.112-2.727 6.11-5.092" fill="none" stroke="#000" stroke-linecap="round" stroke-linejoin="round" stroke-width="3.37"/><g data-name="그룹 4890" style="mix-blend-mode:darken;isolation:isolate"><g data-name="그룹 4889" clip-path="url(#R)" transform="translate(528.55 288.391)"><path data-name="패스 13517" d="M1.608 28c3.7-3.94 7.766-8 12.192-12.125A251.294 251.294 0 0 1 30.617 1.599" fill="none" stroke="#7c6454" stroke-linecap="round" stroke-linejoin="round" stroke-width="3.37"/></g></g><g data-name="그룹 4892" style="mix-blend-mode:darken;isolation:isolate"><g data-name="그룹 4891" clip-path="url(#S)" transform="translate(638.493 196.759)"><path data-name="패스 13518" d="M1.599 3.188a40.54 40.54 0 0 1 9.213-1.532 43.053 43.053 0 0 1 23.032 5.625" fill="none" stroke="#6d5644" stroke-linecap="round" stroke-linejoin="round" stroke-width="3.37"/></g></g><g data-name="그룹 4894" style="mix-blend-mode:darken;isolation:isolate"><g data-name="그룹 4893" clip-path="url(#T)" transform="translate(558.577 420.138)"><path data-name="패스 13519" d="M1.599 1.599a406.248 406.248 0 0 0 27.486 129.777" fill="none" stroke="#7c6454" stroke-linecap="round" stroke-linejoin="round" stroke-width="3.37"/></g></g><g data-name="그룹 4896" style="mix-blend-mode:darken;isolation:isolate"><g data-name="그룹 4895" clip-path="url(#U)" transform="translate(477.642 572.814)"><path data-name="패스 13520" d="m41.314 1.599-2.541 38.174c-.333-.428-8.08-9.85-19.843-8.147-5.444.79-12.03 4.007-14.761 9.669a28.814 28.814 0 0 0-2.037 8.147 47.787 47.787 0 0 0-.514 8.651 22.522 22.522 0 0 1 25.44 9.165c.714-2.636 1.4-5.349 2.037-8.147a214.447 214.447 0 0 0 4.073-23.917" fill="none" stroke="#7c6454" stroke-linecap="round" stroke-linejoin="round" stroke-width="3.37"/></g></g><g data-name="그룹 4898" style="mix-blend-mode:darken;isolation:isolate"><g data-name="그룹 4897" clip-path="url(#V)" transform="translate(478.175 591.639)"><path data-name="패스 13521" d="M1.599 30.609Q2.613 16.109 3.636 1.6" fill="none" stroke="#7c6454" stroke-linecap="round" stroke-linejoin="round" stroke-width="3.37"/></g></g><g data-name="그룹 4900" style="mix-blend-mode:darken;isolation:isolate"><g data-name="그룹 4899" clip-path="url(#W)" transform="translate(493.955 521.916)"><path data-name="패스 13522" d="M1.589 60.634q5.6-29.523 11.192-59.035" fill="none" stroke="#7c6454" stroke-linecap="round" stroke-linejoin="round" stroke-width="3.37"/></g></g><g data-name="그룹 4902" style="mix-blend-mode:darken;isolation:isolate"><g data-name="그룹 4901" clip-path="url(#X)" transform="translate(501.587 519.879)"><path data-name="패스 13523" d="m1.589 1.608 6.11 3.055" fill="none" stroke="#7c6454" stroke-linecap="round" stroke-linejoin="round" stroke-width="3.37"/></g></g><g data-name="그룹 4904" style="mix-blend-mode:darken;isolation:isolate"><g data-name="그룹 4903" clip-path="url(#Y)" transform="translate(508.192 512.246)"><path data-name="패스 13524" d="M2.626 1.608c-.742 9.984-1 18.882-1.018 26.467-.029 12.344.562 19.548 4.073 27.476a45.714 45.714 0 0 0 2.037 4.073" fill="none" stroke="#7c6454" stroke-linecap="round" stroke-linejoin="round" stroke-width="3.37"/></g></g><g data-name="그룹 4906" style="mix-blend-mode:darken;isolation:isolate"><g data-name="그룹 4905" clip-path="url(#Z)" transform="translate(327.527 393.671)"><path data-name="패스 13525" d="M1.599 22.47Q3.64 12.034 5.672 1.608" fill="none" stroke="#7c6454" stroke-linecap="round" stroke-linejoin="round" stroke-width="3.37"/></g></g><g data-name="그룹 4908" style="mix-blend-mode:darken;isolation:isolate"><g data-name="그룹 4907" clip-path="url(#aa)" transform="translate(338.976 396.212)"><path data-name="패스 13526" d="M1.608 33.919c2.5-10.964 4.939-21.623 7.376-32.311" fill="none" stroke="#7c6454" stroke-linecap="round" stroke-linejoin="round" stroke-width="3.37"/></g></g><g data-name="그룹 4910" style="mix-blend-mode:darken;isolation:isolate"><g data-name="그룹 4909" clip-path="url(#ab)" transform="translate(592.696 283.747)"><path data-name="패스 13527" d="M1.599 45.826A152.7 152.7 0 0 0 9.222 1.599" fill="none" stroke="#7c6454" stroke-linecap="round" stroke-linejoin="round" stroke-width="3.37"/></g></g><g data-name="그룹 4912" style="mix-blend-mode:darken;isolation:isolate"><g data-name="그룹 4911" clip-path="url(#ac)" transform="translate(538.962 360.084)"><path data-name="패스 13528" d="M15.114 1.599a256.938 256.938 0 0 0-13.229 93.64 248.949 248.949 0 0 0 4.073 34.6" fill="none" stroke="#7c6454" stroke-linecap="round" stroke-linejoin="round" stroke-width="3.37"/></g></g><g data-name="그룹 4914" style="mix-blend-mode:darken;isolation:isolate"><g data-name="그룹 4913" clip-path="url(#ad)" transform="translate(664.941 367.717)"><path data-name="패스 13529" d="M1.599 1.599a138.957 138.957 0 0 1 7.633 21.88c1.418 5.558 2.208 10.174.514 15.266a20.719 20.719 0 0 1-2.541 5.092c1.19.514 2.379 1.018 3.559 1.523a219.224 219.224 0 0 1 2.541 15.266c.562 4.273.771 6.852-.514 9.669a13.186 13.186 0 0 1-5.092 5.6" fill="none" stroke="#7c6454" stroke-linecap="round" stroke-linejoin="round" stroke-width="3.37"/></g></g><path data-name="패스 13530" d="M328.117 425.296c1.066-2.436 3.074-4.035 5.187-4.073a6.093 6.093 0 0 1 4.153 2.037 13.518 13.518 0 0 1 2.027 1.846 7.34 7.34 0 0 1 1.085 4.768c-.171 4.749-3.312 8.918-4.311 10.174" fill="none" stroke="#000" stroke-linecap="round" stroke-linejoin="round" stroke-width="3.37"/><g data-name="그룹 4916" style="mix-blend-mode:darken;isolation:isolate"><g data-name="그룹 4915" clip-path="url(#ae)" transform="translate(371.296 401.818)"><path data-name="패스 13531" d="M8.213 1.599Q4.901 8.723 1.598 15.846" fill="none" stroke="#7c6454" stroke-linecap="round" stroke-linejoin="round" stroke-width="3.37"/></g></g><g data-name="그룹 4918" style="mix-blend-mode:darken;isolation:isolate"><g data-name="그룹 4917" clip-path="url(#af)" transform="translate(364.682 494.439)"><path data-name="패스 13532" d="M1.599 64.708a65.425 65.425 0 0 0 7.633-6.11c2.808-2.617 18.387-17.112 14.761-26.467-1.285-3.312-3.721-2.741-6.614-8.147-1.589-2.96-2.113-5.482-3.055-10.174a84.3 84.3 0 0 1-1.523-12.211" fill="none" stroke="#7c6454" stroke-linecap="round" stroke-linejoin="round" stroke-width="3.37"/></g></g><g data-name="그룹 4920" style="mix-blend-mode:darken;isolation:isolate"><g data-name="그룹 4919" clip-path="url(#ag)" transform="translate(630.337 452.706)"><path data-name="패스 13533" d="M31.626 1.599a1034.427 1034.427 0 0 1-2.541 39.192c-2.712 32.292-4.178 48.823-9.669 67.687A200.608 200.608 0 0 1 1.6 150.716" fill="none" stroke="#7c6454" stroke-linecap="round" stroke-linejoin="round" stroke-width="3.37"/></g></g><g data-name="그룹 4922" style="mix-blend-mode:darken;isolation:isolate"><g data-name="그룹 4921" clip-path="url(#ah)" transform="translate(664.941 689.866)"><path data-name="패스 13534" d="M1.599 15.342a50.013 50.013 0 0 0 25.954-7.633 46.275 46.275 0 0 0 7.633-6.11" fill="none" stroke="#7c6454" stroke-linecap="round" stroke-linejoin="round" stroke-width="3.37"/></g></g><g data-name="그룹 4924" style="mix-blend-mode:darken;isolation:isolate"><g data-name="그룹 4923" clip-path="url(#ai)" transform="translate(404.369 397.744)"><path data-name="선 905" fill="none" stroke="#7c6454" stroke-linecap="round" stroke-linejoin="round" stroke-width="3.37" d="M1.608 28.066 12.296 1.599"/></g></g><g data-name="그룹 4926" style="mix-blend-mode:darken;isolation:isolate"><g data-name="그룹 4925" clip-path="url(#aj)" transform="translate(428.124 397.468)"><path data-name="패스 13535" d="M5.178 1.599 1.609 15.361" fill="none" stroke="#7c6454" stroke-linecap="round" stroke-linejoin="round" stroke-width="3.37"/></g></g><g data-name="그룹 4928" style="mix-blend-mode:darken;isolation:isolate"><g data-name="그룹 4927" clip-path="url(#ak)" transform="translate(449.671 386.542)"><path data-name="선 906" fill="none" stroke="#7c6454" stroke-linecap="round" stroke-linejoin="round" stroke-width="3.37" d="M1.599 19.415 8.213 1.599"/></g></g><g data-name="그룹 4930" style="mix-blend-mode:darken;isolation:isolate"><g data-name="그룹 4929" clip-path="url(#al)" transform="translate(481.725 374.836)"><path data-name="선 907" fill="none" stroke="#7c6454" stroke-linecap="round" stroke-linejoin="round" stroke-width="3.37" d="M1.608 17.892 3.645 1.608"/></g></g><g data-name="그룹 4932" style="mix-blend-mode:darken;isolation:isolate"><g data-name="그룹 4931" clip-path="url(#am)" transform="translate(512.77 359.571)"><path data-name="선 908" fill="none" stroke="#7c6454" stroke-linecap="round" stroke-linejoin="round" stroke-width="3.37" d="M1.608 7.205V1.599"/></g></g><g data-name="그룹 4934" style="mix-blend-mode:darken;isolation:isolate"><g data-name="그룹 4933" clip-path="url(#an)" transform="translate(395.109 690.371)"><path data-name="패스 13536" d="M127.407 9.745a96.357 96.357 0 0 0-35.623-3.559c-7.623.714-18.368 2.731-18.321 4.578.029 1.323 5.558 2.436 6.11 2.541 4.978.98 8-.171 10.183 2.037.4.409 1.18 1.2 1.018 2.037-.4 2.037-6.243 3.293-11.192 2.541-5.149-.771-5.415-3.122-13.743-7.128-4.778-2.294-8.375-3.978-13.229-4.073-3.474-.067-3.95.761-9.67 1.523-6.481.876-6.89-.048-13.229.514-4.768.419-5.834 1.047-17.816 3.559-5.929 1.247-9.46 3.15-10.174 2.037-.362-.562.114-1.656 2.037-4.073a51.977 51.977 0 0 1 11.71-10.69" fill="none" stroke="#7c6454" stroke-linecap="round" stroke-linejoin="round" stroke-width="3.37"/></g></g><g data-name="그룹 4936" style="mix-blend-mode:darken;isolation:isolate"><g data-name="그룹 4935" clip-path="url(#ao)" transform="translate(297.5 673.068)"><path data-name="패스 13537" d="M1.608 1.599c4.054.857 6.691 2.865 6.615 4.578a3.08 3.08 0 0 1-1.018 2.037c-.676.581-1.161.4-2.541 1.018-.79.352-2.037.914-2.037 1.523 0 .79 2.037 1.38 2.541 1.532 4.568 1.323 29.6-2.246 41.733-4.073" fill="none" stroke="#7c6454" stroke-linecap="round" stroke-linejoin="round" stroke-width="3.37"/></g></g><g data-name="그룹 4938" style="mix-blend-mode:darken;isolation:isolate"><g data-name="그룹 4937" clip-path="url(#ap)" transform="translate(311.462 684.422)"><path data-name="패스 13538" d="M53.297 2.465c-12.744 2.132-21.357 1.266-26.972 0-5.149-1.161-8.527-.942-15.266-.514-2 .133-4.93.4-7.128 2.541-1.694 1.656-2.912 4.387-2.037 5.6.523.723 1.561.352 3.055 1.018 2.122.952 2.636 2.884 3.559 4.073 1.466 1.884 4.492 2.608 14.761 1.532 11.135-1.18 10.859-2.379 15.266-2.037 6.919.533 6.615 3.417 14.761 5.092 2.627.542 11.6 2.256 20.862-2.037a29.98 29.98 0 0 0 7.633-5.092" fill="none" stroke="#7c6454" stroke-linecap="round" stroke-linejoin="round" stroke-width="3.37"/></g></g><g data-name="그룹 4940" style="mix-blend-mode:darken;isolation:isolate"><g data-name="그룹 4939" clip-path="url(#aq)" transform="translate(330.582 581.465)"><path data-name="패스 13539" d="M1.599 107.45a47.128 47.128 0 0 0 21.88 4.073A44.7 44.7 0 0 0 32.644 110c10.393-3.474 16.322-18.444 21.376-46.311a387.926 387.926 0 0 0 6.11-62.091" fill="none" stroke="#7c6454" stroke-linecap="round" stroke-linejoin="round" stroke-width="3.37"/></g></g><g data-name="그룹 4942" style="mix-blend-mode:darken;isolation:isolate"><g data-name="그룹 4941" clip-path="url(#ar)" transform="translate(379.177 607.923)"><path data-name="패스 13540" d="M16.109 1.608C9.904 54.762 5.745 75.633 2.88 80.487c-.343.58-1.884 3.007-1.018 5.092 1.247 3.007 6.852 3.635 12.211 3.559" fill="none" stroke="#7c6454" stroke-linecap="round" stroke-linejoin="round" stroke-width="3.37"/></g></g><g data-name="그룹 4944" style="mix-blend-mode:darken;isolation:isolate"><g data-name="그룹 4943" clip-path="url(#as)" transform="translate(384.525 676.124)"><path data-name="패스 13541" d="M8.727 1.599a136.284 136.284 0 0 1-4.578 4.073C2.512 7.052 1.665 7.69 1.608 8.727c-.01.238-.038 1.475 2.037 3.055 3.569 2.712 8.232 2.57 10.688 2.541 5.1-.057 10.164 1.028 15.266 1.018 13.781-.019 29.342-.048 29.522 1.523.1.923-5.12 2.37-9.165 3.055-7.975 1.342-12.2-.171-17.3 0-4.749.162-11.392 1.827-19.339 8.651" fill="none" stroke="#7c6454" stroke-linecap="round" stroke-linejoin="round" stroke-width="3.37"/></g></g><g data-name="그룹 4946" style="mix-blend-mode:darken;isolation:isolate"><g data-name="그룹 4945" clip-path="url(#at)" transform="translate(441.524 674.591)"><path data-name="패스 13542" d="M9.241 1.608A38.059 38.059 0 0 0 6.7 8.223c-.876 3.122-1 5.13-2.541 7.633a14.329 14.329 0 0 1-2.541 3.055" fill="none" stroke="#7c6454" stroke-linecap="round" stroke-linejoin="round" stroke-width="3.37"/></g></g><g data-name="그룹 4948" style="mix-blend-mode:darken;isolation:isolate"><g data-name="그룹 4947" clip-path="url(#au)" transform="translate(467.487 671.546)"><path data-name="패스 13543" d="M4.654 1.599a54.758 54.758 0 0 1-3.055 27.486" fill="none" stroke="#7c6454" stroke-linecap="round" stroke-linejoin="round" stroke-width="3.37"/></g></g><g data-name="그룹 4950" style="mix-blend-mode:darken;isolation:isolate"><g data-name="그룹 4949" clip-path="url(#av)" transform="translate(638.988 617.726)"><path data-name="패스 13544" d="M1.599 14.704a12.807 12.807 0 0 0 7.633 5.092c6.043 1.142 10.983-3.388 11.706-4.073 5.6-5.282 4.169-11.973 9.165-13.743a8.98 8.98 0 0 1 5.092 0 12.179 12.179 0 0 1 7.128 5.092" fill="none" stroke="#7c6454" stroke-linecap="round" stroke-linejoin="round" stroke-width="3.37"/></g></g><g data-name="그룹 4952" style="mix-blend-mode:darken;isolation:isolate"><g data-name="그룹 4951" clip-path="url(#aw)" transform="translate(390.131 353.47)"><path data-name="패스 13545" d="M1.599 15.342a286.527 286.527 0 0 0 63.613-7.633 281.38 281.38 0 0 0 21.88-6.11" fill="none" stroke="#7c6454" stroke-linecap="round" stroke-linejoin="round" stroke-width="3.37"/></g></g><g data-name="그룹 4954" style="mix-blend-mode:darken;isolation:isolate"><g data-name="그룹 4953" clip-path="url(#ax)" transform="translate(404.369 361.103)"><path data-name="패스 13546" d="M1.608 25.516a472.105 472.105 0 0 0 46.825-12.725A468.698 468.698 0 0 0 78.964 1.599" fill="none" stroke="#7c6454" stroke-linecap="round" stroke-linejoin="round" stroke-width="3.37"/></g></g><path data-name="패스 13547" d="M578.521 711.994a.527.527 0 0 0-.019-.171c-.685-3.207-10.393-5.939-17.3-2.037-6.576 3.721-7.528 11.7-7.633 12.725a11.61 11.61 0 0 1 5.092-2.037 12.627 12.627 0 0 1 5.092.514c.1.019.219.038.333.057a16.691 16.691 0 0 0 6.8 3 17.511 17.511 0 0 0 8.147-.5c6.281-1.942 9.708-6.976 11.192-9.165a27.31 27.31 0 0 0 1.523-2.541 75.067 75.067 0 0 0-13.21.171" fill="#cfa57a"/><path data-name="패스 13548" d="M578.521 711.994a.527.527 0 0 0-.019-.171c-.685-3.207-10.393-5.939-17.3-2.037-6.576 3.721-7.528 11.7-7.633 12.725a11.61 11.61 0 0 1 5.092-2.037 12.627 12.627 0 0 1 5.092.514c.1.019.219.038.333.057a16.691 16.691 0 0 0 6.8 3 17.511 17.511 0 0 0 8.147-.5c6.281-1.942 9.708-6.976 11.192-9.165a27.31 27.31 0 0 0 1.523-2.541 75.067 75.067 0 0 0-13.21.171z" fill="none" stroke="#7c6454" stroke-linecap="round" stroke-linejoin="round" stroke-width="3.37"/><path data-name="패스 13549" d="M593.771 712.841c-1.789 2.427 3.16 12.02 11.192 13.743 5.339 1.142 9.879-1.666 11.192-2.541a9.151 9.151 0 0 0 9.669 4.073c3.607-.876 7-4.283 6.615-8.147a7.142 7.142 0 0 0-4.073-5.6c-2.151-.971-4.15-.39-6.11 0-4.073.8-8.48.362-17.3-.514-8.375-.828-10.307-2.227-11.192-1.018" fill="#cfa57a"/><path data-name="패스 13550" d="M593.771 712.841c-1.789 2.427 3.16 12.02 11.192 13.743 5.339 1.142 9.879-1.666 11.192-2.541a9.151 9.151 0 0 0 9.669 4.073c3.607-.876 7-4.283 6.615-8.147a7.142 7.142 0 0 0-4.073-5.6c-2.151-.971-4.15-.39-6.11 0-4.073.8-8.48.362-17.3-.514-8.375-.828-10.307-2.227-11.192-1.018z" fill="none" stroke="#7c6454" stroke-linecap="round" stroke-linejoin="round" stroke-width="3.37"/><g data-name="그룹 4956" style="mix-blend-mode:darken;isolation:isolate"><g data-name="그룹 4955" clip-path="url(#ay)" transform="translate(531.1 700.031)"><path data-name="패스 13551" d="M30.094 6.195a17.688 17.688 0 0 0-12.215-4.577A18.038 18.038 0 0 0 6.687 6.196a20.106 20.106 0 0 0-5.092 6.615 10.249 10.249 0 0 0 5.092 3.055c3.426.79 6.615-.676 10.688-2.541 3.759-1.723 5.472-3.207 9.165-3.559a16.063 16.063 0 0 1 3.055 0" fill="none" stroke="#7c6454" stroke-linecap="round" stroke-linejoin="round" stroke-width="3.37"/></g></g><path data-name="패스 13552" d="M632.45 715.382c1.837 2.617 7.823 10.659 15.266 12.724a13.53 13.53 0 0 0 3.559.514c5.377-.029 9.241-3.6 10.688-5.092a6.594 6.594 0 0 0 5.092 2.541c.2 0 3.093-.114 3.559-1.532.638-1.922-3.7-4.949-6.11-6.614-2.76-1.913-5.139-3.569-8.651-4.073-1.685-.238-1.475.1-7.128.514-4.33.314-5.2.181-10.174.5-2.636.181-4.768.371-6.11.514" fill="#cfa57a"/><path data-name="패스 13553" d="M632.45 715.382c1.837 2.617 7.823 10.659 15.266 12.724a13.53 13.53 0 0 0 3.559.514c5.377-.029 9.241-3.6 10.688-5.092a6.594 6.594 0 0 0 5.092 2.541c.2 0 3.093-.114 3.559-1.532.638-1.922-3.7-4.949-6.11-6.614-2.76-1.913-5.139-3.569-8.651-4.073-1.685-.238-1.475.1-7.128.514-4.33.314-5.2.181-10.174.5-2.636.181-4.768.371-6.11.514z" fill="none" stroke="#7c6454" stroke-linecap="round" stroke-linejoin="round" stroke-width="3.37"/><g data-name="그룹 4958" style="mix-blend-mode:darken;isolation:isolate"><g data-name="그룹 4957" clip-path="url(#az)" transform="translate(524.486 694.93)"><path data-name="패스 13554" d="M1.599 10.779a137.047 137.047 0 0 1 7.128-4.073c6.158-3.274 9.3-4.911 12.211-5.092 1.7-.1 6.71-.048 12.725 5.6" fill="none" stroke="#7c6454" stroke-linecap="round" stroke-linejoin="round" stroke-width="3.37"/></g></g><g data-name="그룹 4960" style="mix-blend-mode:darken;isolation:isolate"><g data-name="그룹 4959" clip-path="url(#aA)" transform="translate(528.045 688.134)"><path data-name="패스 13555" d="M1.599 8.927a61.983 61.983 0 0 1 4.073-3.055c3.188-2.189 5.234-3.6 7.128-4.073 5.168-1.294 10.659 4.007 12.211 5.6" fill="none" stroke="#7c6454" stroke-linecap="round" stroke-linejoin="round" stroke-width="3.37"/></g></g><g data-name="그룹 4962" style="mix-blend-mode:darken;isolation:isolate"><g data-name="그룹 4961" clip-path="url(#aB)" transform="translate(650.19 709.196)"><path data-name="패스 13556" d="M1.599 4.663a23.117 23.117 0 0 1 11.192-3.055 23.778 23.778 0 0 1 15.266 5.6" fill="none" stroke="#7c6454" stroke-linecap="round" stroke-linejoin="round" stroke-width="3.37"/></g></g><g data-name="그룹 4964" style="mix-blend-mode:darken;isolation:isolate"><g data-name="그룹 4963" clip-path="url(#aC)" transform="translate(647.649 703.6)"><path data-name="패스 13557" d="M1.589 5.669a30.619 30.619 0 0 1 9.669-3.559 29.813 29.813 0 0 1 6.11-.5" fill="none" stroke="#7c6454" stroke-linecap="round" stroke-linejoin="round" stroke-width="3.37"/></g></g><g data-name="그룹 4966" style="mix-blend-mode:darken;isolation:isolate"><g data-name="그룹 4965" clip-path="url(#aD)" transform="translate(534.66 716.324)"><path data-name="패스 13558" d="M1.599 5.672c.143-.495 2.208.286 5.092-.514a12.067 12.067 0 0 0 5.6-3.559 16.568 16.568 0 0 0 2.037 3.559 17.3 17.3 0 0 0 6.11 5.092 26.73 26.73 0 0 1-8.147 0C6.409 9.327 1.375 6.462 1.603 5.672z" fill="none" stroke="#7c6454" stroke-linecap="round" stroke-linejoin="round" stroke-width="3.37"/></g></g><g data-name="그룹 4968" style="mix-blend-mode:darken;isolation:isolate"><g data-name="그룹 4967" clip-path="url(#aE)" transform="translate(572.834 723.453)"><path data-name="패스 13559" d="M1.599 6.177q6.867-2.3 13.743-4.578c1.551 1.523 6.243 5.729 12.725 5.6 1.618-.029 3.521-.657 3.559-.5.067.238-4.625 1.856-7.633 2.541-3.674.847-11.459 1.818-22.394-3.055z" fill="none" stroke="#7c6454" stroke-linecap="round" stroke-linejoin="round" stroke-width="3.37"/></g></g><g data-name="그룹 4970" style="mix-blend-mode:darken;isolation:isolate"><g data-name="그룹 4969" clip-path="url(#aF)" transform="translate(623.722 727.012)"><path data-name="패스 13560" d="M1.599 7.204q6.867-2.8 13.743-5.6 5.339 2.3 10.688 4.578a28.97 28.97 0 0 1-7.128 2.541 30.5 30.5 0 0 1-17.3-1.532z" fill="none" stroke="#7c6454" stroke-linecap="round" stroke-linejoin="round" stroke-width="3.37"/></g></g><g data-name="그룹 4972" style="mix-blend-mode:darken;isolation:isolate"><g data-name="그룹 4971" clip-path="url(#aG)" transform="translate(418.112 430.312)"><path data-name="패스 13561" d="M1.608 47.91a187.954 187.954 0 0 0 2.541-12.725A191.4 191.4 0 0 0 6.69 1.599" fill="none" stroke="#7c6454" stroke-linecap="round" stroke-linejoin="round" stroke-width="3.37"/></g></g><g data-name="그룹 4974" style="mix-blend-mode:darken;isolation:isolate"><g data-name="그룹 4973" clip-path="url(#aH)" transform="translate(428.809 434.89)"><path data-name="패스 13562" d="M30.608 1.608a1100.75 1100.75 0 0 1-14.247 95.163A1097.97 1097.97 0 0 1 1.6 161.917" fill="none" stroke="#7c6454" stroke-linecap="round" stroke-linejoin="round" stroke-width="3.37"/></g></g><g data-name="그룹 4976" style="mix-blend-mode:darken;isolation:isolate"><g data-name="그룹 4975" clip-path="url(#aI)" transform="translate(516.339 431.835)"><path data-name="패스 13563" d="M3.131 1.608c.409 6.519.609 13.5.5 20.862a269.914 269.914 0 0 1-2.037 29.513" fill="none" stroke="#7c6454" stroke-linecap="round" stroke-linejoin="round" stroke-width="3.37"/></g></g><g data-name="그룹 4978" style="mix-blend-mode:darken;isolation:isolate"><g data-name="그룹 4977" clip-path="url(#aJ)" transform="translate(654.254 522.43)"><path data-name="패스 13564" d="M1.608 51.469q.514-24.94 1.018-49.87" fill="none" stroke="#7c6454" stroke-linecap="round" stroke-linejoin="round" stroke-width="3.37"/></g></g><g data-name="그룹 4980" style="mix-blend-mode:darken;isolation:isolate"><g data-name="그룹 4979" clip-path="url(#aK)" transform="translate(314.802 352.452)"><path data-name="패스 13565" d="M1.608 1.599c2.218 8.251 8.537 26.743 25.954 38.174 11.954 7.833 24.393 9.241 37.155 10.688a130.018 130.018 0 0 0 33.082-.514" fill="none" stroke="#7c6454" stroke-linecap="round" stroke-linejoin="round" stroke-width="3.37"/></g></g></g></g></g></svg>