<svg xmlns="http://www.w3.org/2000/svg" width="89.615" height="167.251" viewBox="0 0 89.615 167.251">
  <g id="오브제_나침반_핀" transform="translate(-1513.248 -128.345)">
    <path id="패스_1454" data-name="패스 1454" d="M1077.744,169.791l19.483-84.331L1036.7,149.675a38.024,38.024,0,0,0-9.289,17.343l-19.8,85.694,59.568-63.195a43.264,43.264,0,0,0,10.564-19.725" transform="translate(505.636 42.885)" fill="#3b3c52"/>
    <path id="패스_1455" data-name="패스 1455" d="M1061.573,156.2a19.617,19.617,0,1,1-7.874-26.6,19.618,19.618,0,0,1,7.874,26.6" transform="translate(514.218 63.84)" fill="#81b8fd"/>
    <path id="패스_1456" data-name="패스 1456" d="M1049.363,148.032a9.55,9.55,0,1,1-3.833-12.952,9.55,9.55,0,0,1,3.833,12.952" transform="translate(517.583 67.204)" fill="#e8ce64"/>
  </g>
</svg>
