<svg xmlns="http://www.w3.org/2000/svg" width="468.91" height="518.68" viewBox="0 0 93.782 103.736">
  <g id="picker" transform="translate(-1011.999 -488)">
    <path id="picker_background" d="M34.774-1080.264h0a231.862,231.862,0,0,1-17.386-22.656,143.747,143.747,0,0,1-11.954-21.085C1.828-1132.089,0-1139.207,0-1145.163a34.62,34.62,0,0,1,2.738-13.56A34.721,34.721,0,0,1,10.2-1169.8a34.722,34.722,0,0,1,11.073-7.466A34.62,34.62,0,0,1,34.837-1180a34.62,34.62,0,0,1,13.56,2.738,34.722,34.722,0,0,1,11.073,7.466,34.721,34.721,0,0,1,7.466,11.073,34.62,34.62,0,0,1,2.738,13.56c0,6.431-1.835,13.844-5.453,22.034a131.762,131.762,0,0,1-12,20.988,200.43,200.43,0,0,1-17.449,21.877Zm-.14-93.9A28.674,28.674,0,0,0,23.4-1171.9a28.759,28.759,0,0,0-9.172,6.185,28.761,28.761,0,0,0-6.184,9.173,28.68,28.68,0,0,0-2.268,11.233,28.678,28.678,0,0,0,2.268,11.233,28.761,28.761,0,0,0,6.184,9.173,28.758,28.758,0,0,0,9.172,6.184,28.672,28.672,0,0,0,11.232,2.268,28.676,28.676,0,0,0,11.233-2.268,28.76,28.76,0,0,0,9.173-6.184,28.762,28.762,0,0,0,6.185-9.173,28.677,28.677,0,0,0,2.268-11.233,28.678,28.678,0,0,0-2.268-11.233,28.761,28.761,0,0,0-6.185-9.173,28.761,28.761,0,0,0-9.173-6.185A28.677,28.677,0,0,0,34.634-1174.165Z" transform="translate(1023.902 1670)" fill="#4aa1ff" stroke="rgba(0,0,0,0)" stroke-miterlimit="10" stroke-width="1"/>
    <path id="picker_label" d="M91.778,76.061H2l4.667-9.889L2,55.617H91.778L87.334,66.505Z" transform="translate(1012 488)" fill="#b0daff"/>
    <path id="picker_outline" d="M46.738,2A34.837,34.837,0,0,1,81.576,36.837c0,6.019-1.6,12.425-4.1,18.78h14.3L87.333,66.506l4.444,9.555H66.654a198.144,198.144,0,0,1-19.978,25.675,227.873,227.873,0,0,1-19.37-25.675H2l4.667-9.889L2,55.617H16.316c-2.684-6.51-4.415-12.96-4.415-18.78A34.837,34.837,0,0,1,46.738,2M91.777,55.617h.006M46.738,0A36.879,36.879,0,0,0,9.9,36.837a49.183,49.183,0,0,0,3.484,16.78H2A2,2,0,0,0,.17,56.425l4.3,9.72L.191,75.208A2,2,0,0,0,2,78.061H26.219a232.6,232.6,0,0,0,18.968,25.01,2,2,0,0,0,1.46.665h.029a2,2,0,0,0,1.45-.623,202.529,202.529,0,0,0,19.61-25.052H91.777a2,2,0,0,0,1.814-2.843l-4.077-8.765,4.079-9.991a1.977,1.977,0,0,0,.188-.845,2,2,0,0,0-2-2H80.354a51.248,51.248,0,0,0,3.222-16.78A36.88,36.88,0,0,0,46.738,0" transform="translate(1012 488)" fill="#fff"/>
  </g>
</svg>
