<?xml version="1.0" encoding="UTF-8"?>
<svg id="_레이어_2" data-name="레이어 2" xmlns="http://www.w3.org/2000/svg" width="148.3" height="221" xmlns:xlink="http://www.w3.org/1999/xlink" viewBox="0 0 148.3 221">
  <defs>
    <filter id="outer-glow-1" filterUnits="userSpaceOnUse">
      <feOffset dx="0" dy="0"/>
      <feGaussianBlur result="blur" stdDeviation="5"/>
      <feFlood flood-color="#fff" flood-opacity=".8"/>
      <feComposite in2="blur" operator="in"/>
      <feComposite in="SourceGraphic"/>
    </filter>
    <filter id="outer-glow-2" filterUnits="userSpaceOnUse">
      <feOffset dx="0" dy="0"/>
      <feGaussianBlur result="blur-2" stdDeviation="5"/>
      <feFlood flood-color="#fff" flood-opacity=".8"/>
      <feComposite in2="blur-2" operator="in"/>
      <feComposite in="SourceGraphic"/>
    </filter>
  </defs>
  <g id="Layer_1" data-name="Layer 1">
    <g>
      <g>
        <path d="m119.6,90.4c-6.5-7.7-13.2-15.7-18.2-24.5-8.7-15.4-12.5-31-15.3-42.4-1.4-5.9-2.6-10.6-4.1-14.3-2.5-6.1-6.3-9.3-11.3-9.3s-8.1,1.5-11.1,8.7c-1.5,3.4-2.5,7.8-3.8,13.4-2.7,11.3-6.4,26.7-15.8,43.9-3.9,7.1-8.6,14-13.5,21.3C13.4,106.3,0,126,0,151.7s6.7,38.5,19.4,50.8c12.5,12.1,30.3,18.5,51.3,18.5s40.4-6.5,54.4-18.2c7.3-6.1,13-13.5,17-22,4.1-8.8,6.2-18.6,6.2-29.1,0-27.3-14.6-44.6-28.7-61.3Z" fill="#fff" stroke-width="0"/>
        <path d="m144.4,155.8c0,39.1-31.7,62.5-70.7,62.5s-63.8-23.4-63.8-62.5,25-56.4,39.1-82.4c18.8-34.5,15.8-62.4,24.7-62.4s6.9,31,24.7,62.4c15.9,28.1,46,45.4,46,82.4Z" fill="#01afeb" stroke-width="0"/>
        <path d="m67.9,197.2c-2.2-18.6-11.8-35.5-14.6-54-1.3-8.6-1.1-17.4-2.7-25.9-1.6-8.5-5.3-17.2-12.6-22-.8-.5-1.7-1-2.5-1.4-12.8,18.8-26.4,38-26.4,62.2,0,37,22.2,59.9,57.7,62.3,1.5-6.9,1.9-14.1,1-21.1Z" fill="#0185d8" stroke-width="0"/>
        <path d="m98.4,73.4c-.6-1.1-1.2-2.1-1.7-3.2-8,15.1-11.7,32.7-9.9,49.7,2.4,23.6,15.5,46.4,36.1,58.1,4.7,2.7,9.8,4.7,15,6,4.2-8.1,6.5-17.6,6.5-28.2,0-37.1-30.1-54.3-46-82.4Z" fill="#00cfe5" stroke-width="0"/>
        <ellipse cx="58.1" cy="67.5" rx="23.4" ry="12" transform="translate(-24.4 101.1) rotate(-71.5)" fill="#fff" filter="url(#outer-glow-1)" stroke-width="0"/>
        <ellipse cx="68.6" cy="100.9" rx="9.2" ry="6.9" transform="translate(-47.5 138.5) rotate(-73.7)" fill="#fff" filter="url(#outer-glow-2)" stroke-width="0"/>
      </g>
      <g>
        <path d="m139.8,179.6h0c-.6,1.4-1.2,2.8-1.9,4.2-5.3-1.3-10.3-3.3-15-6-12.7-7.2-22.6-18.7-28.8-31.9-2.7-.5-5.3-.4-7.7.9-5.6,3-6.6,10.4-6.4,16.7.6,18.3,6.1,36.3,15.4,52.1,20.5-5.1,36.9-17.6,44.5-35.9Z" fill="#0182d6" stroke-width="0"/>
        <path d="m102.6,149.3c-2.6-1.5-5.6-2.9-8.6-3.4,6.2,13.3,16.1,24.7,28.8,31.9,4.7,2.7,9.8,4.7,15,6,.7-1.4,1.3-2.8,1.9-4.2-10.5-12.1-23.2-22.4-37.2-30.2Z" fill="#00b1ba" stroke-width="0"/>
      </g>
    </g>
  </g>
</svg>