<svg xmlns="http://www.w3.org/2000/svg" width="572.015" height="282.417" viewBox="0 0 572.015 282.417">
  <g id="_05_004" data-name="05_004" transform="translate(-361.218 -1256.441)">
    <path id="패스_10123" data-name="패스 10123" d="M648.593,698.18c-3.558-2.773-8.606-4.157-13.214-4.962-12.763-2.229-37.517-16.132-48.711-18.992s-54.678-8.212-61.943-8.8-23.716-.016-35.517-.839c-9.806-.685-19.2-1.855-29.365-.416-9.384,1.327-19.6-3.231-29.448-5.239-.82-.167-1.553-.891-2.362-.967-13.283-1.249-12.3-9.957-13.527-19.551-.348-2.729-1.093-16.483-4.63-22.878-7.082-12.8-21.555-22.15-34.206-18.157s-6.524,29.537-10.887,43.983c-6.63,21.956-19.618,39.906-37.453,54.337-6.682,5.406-13.275,10.922-19.981,16.3q-13.508,10.825-27.155,21.475c-.335.263-1.161-.2-1.65-.019-10.324,3.751-21.394,8.364-31.269,9.822-9.4,1.388-23.695-.272-31.049,8.988-6.5,8.185,4.471,23.77,8.988,26.964,4.023,2.845,11.6,10.979,23.695,11.712,9.738.59,26.018-1.995,34.792-19.019,2.717-5.273,7.067-6.637,12.927-5.414,14.724,3.07,29.77,2.658,42.5-5.3,10.868-6.8,20.448-16.065,29.426-25.37,11.014-11.415,24.159-19.81,39.27-20.93,23.989-1.778,48.5-3.6,71.954,4.587,3.694,1.289,8.139,5.035,9.145,8.534,2.687,9.342-4.874,19-14.1,22.3A47.09,47.09,0,0,0,457.671,760.7c-6.963,6.978-14.832,10.328-22.5,5.721-14.323-8.6-29.856-10.675-46.178-12.557-19.3-2.225-32.816,14.621-32.6,28.251.219,14.215,1.912,17.478,15.663,21.275,11.057,3.053,21.481,8.727,31.736,14.1,2.186,1.145,3.9,6.313,3.307,9.089-2.277,10.667-12.455,13.514-20.481,17.884-5.053,2.751-11.685,10.874-9.774,16.126,2.375,6.528,7.871,3.877,12.468,3.285,5.676-.73,11.391-1.308,16.993-2.431,9.974-2,21.572-1.568,27.856-11.079,5.032-7.618,11.3-9.73,19.48-9.71,26.808.066,53.615.025,80.423.025.01.142.021.284.031.426,8.557-.554,17.129-.941,25.667-1.708,8.209-.737,10.018-3.641,6.93-11.4-1.89-4.751-5.28-8.987-6.679-13.834-2.622-9.09-12.592-15.979-6.686-27.821,4.806-9.635,10.716-17.9,20.04-22.725,8.515-4.411,17.834-7.35,26.947-10.509,9.679-3.355,19.851-5.46,29.24-9.449,15.06-6.4,22.163-19.468,24.609-34.849.52-3.269-2.608-8.328-5.562-10.63" transform="translate(147 660)" fill="#121212"/>
    <path id="패스_10124" data-name="패스 10124" d="M711.142,878.858c-21.406-5.82-44.184-12.023-66.969-18.2-9.3-2.522-18.514-5.522-27.958-7.28-5.311-.988-10.242-2.212-10.529-7.863-.222-4.4.854-10.6,3.784-12.891,2.449-1.911,8.49.4,12.8,1.436,1.722.412,3.186,2.287,4.56,3.7,4.531,4.647,7.986,5.918,14.384,1.039,9.941-7.582,21.993-4.294,33.224-1.829,8.9,1.953,17.509.592,26.355.237,13.1-.527,21.307-8.863,30.181-14.5,7.629-4.842,14-6.576,22.058-6.1,1.683.1,3.9-.007,4.928.971,9.128,8.642,19.912,16.317,26.5,26.642,6.562,10.288-6.193,26.58-19.519,27.1-6.744.263-13.637-1.012-20.24-.056-7.393,1.071-14.5,4.012-21.8,5.873-3.255.83-6.676,1.007-11.756,1.726" transform="translate(147 660)" fill="#121212"/>
  </g>
</svg>
