<svg width="960" height="954" viewBox="0 0 960 954" fill="none" xmlns="http://www.w3.org/2000/svg">
<g clip-path="url(#clip0_1339_1294)">
<path d="M930.186 0H29.8137C13.348 0 0 10.6337 0 23.751V930.249C0 943.366 13.348 954 29.8137 954H930.186C946.652 954 960 943.366 960 930.249V23.751C960 10.6337 946.652 0 930.186 0Z" fill="#AAAAAA"/>
<path d="M930.186 0H29.8137C13.348 0 0 10.6337 0 23.751V926.29C0 939.408 13.348 950.042 29.8137 950.042H930.186C946.652 950.042 960 939.408 960 926.29V23.751C960 10.6337 946.652 0 930.186 0Z" fill="white"/>
<path d="M930.186 0.394531H29.8129C13.6217 0.394531 0.496094 10.851 0.496094 23.7497V926.289C0.496094 939.188 13.6217 949.644 29.8129 949.644H930.186C946.377 949.644 959.502 939.188 959.502 926.289V23.7497C959.502 10.851 946.377 0.394531 930.186 0.394531Z" stroke="#AAAAAA"/>
<mask id="mask0_1339_1294" style="mask-type:luminance" maskUnits="userSpaceOnUse" x="87" y="38" width="787" height="879">
<path d="M873.234 38H87V916.858H873.234V38Z" fill="white"/>
</mask>
<g mask="url(#mask0_1339_1294)">
<path d="M735.592 736.183C732.034 733.41 726.986 732.026 722.378 731.221C709.615 728.992 684.861 715.089 673.667 712.229C662.473 709.369 618.989 704.017 611.724 703.429C604.459 702.841 588.008 703.413 576.207 702.59C566.401 701.905 557.007 700.735 546.842 702.174C537.458 703.501 527.242 698.943 517.394 696.935C516.574 696.768 515.841 696.044 515.032 695.968C501.749 694.719 502.732 686.011 501.505 676.417C501.157 673.688 500.412 659.934 496.875 653.539C489.793 640.739 475.32 631.389 462.669 635.382C450.018 639.375 456.145 664.919 451.782 679.365C445.152 701.321 432.164 719.271 414.329 733.702C407.647 739.108 401.054 744.624 394.348 750.002C385.342 757.218 376.291 764.377 367.193 771.477C366.858 771.74 366.032 771.277 365.543 771.458C355.219 775.209 344.149 779.822 334.274 781.28C324.874 782.668 310.579 781.008 303.225 790.268C296.725 798.453 307.696 814.038 312.213 817.232C316.236 820.077 323.813 828.211 335.908 828.944C345.646 829.534 361.926 826.949 370.7 809.925C373.417 804.652 377.767 803.288 383.627 804.511C398.351 807.581 413.397 807.169 426.127 799.211C436.995 792.411 446.575 783.146 455.553 773.841C466.567 762.426 479.712 754.031 494.823 752.911C518.812 751.133 543.323 749.311 566.777 757.498C570.471 758.787 574.916 762.533 575.922 766.032C578.609 775.374 571.048 785.032 561.822 788.332C555.426 790.518 549.577 794.055 544.67 798.703C537.707 805.681 529.838 809.031 522.17 804.424C507.847 795.824 492.314 793.749 475.992 791.867C456.692 789.642 443.176 806.488 443.392 820.118C443.611 834.333 445.304 837.596 459.055 841.393C470.112 844.446 480.536 850.12 490.791 855.493C492.977 856.638 494.691 861.806 494.098 864.582C491.821 875.249 481.643 878.096 473.617 882.466C468.564 885.217 461.932 893.34 463.843 898.592C466.218 905.12 471.714 902.469 476.311 901.877C481.987 901.147 487.702 900.569 493.304 899.446C503.278 897.446 514.876 897.878 521.16 888.367C526.192 880.749 532.46 878.637 540.64 878.657C567.448 878.723 594.255 878.682 621.063 878.682C621.073 878.824 621.084 878.966 621.094 879.108C629.651 878.554 638.223 878.167 646.761 877.4C654.97 876.663 656.779 873.759 653.691 866C651.801 861.249 648.411 857.013 647.012 852.166C644.39 843.076 634.42 836.187 640.326 824.345C645.132 814.71 651.042 806.445 660.366 801.62C668.881 797.209 678.2 794.27 687.313 791.111C696.992 787.756 707.164 785.651 716.553 781.662C731.613 775.262 738.716 762.194 741.162 746.813C741.682 743.544 738.554 738.485 735.6 736.183" fill="#999999"/>
<path d="M798.142 916.858C776.736 911.038 753.958 904.835 731.173 898.658C721.873 896.136 712.659 893.136 703.215 891.378C697.904 890.39 692.973 889.166 692.686 883.515C692.464 879.115 693.54 872.915 696.47 870.624C698.919 868.713 704.96 871.024 709.27 872.06C710.992 872.472 712.456 874.347 713.83 875.76C718.361 880.407 721.816 881.678 728.214 876.799C738.155 869.217 750.207 872.505 761.438 874.97C770.338 876.923 778.947 875.562 787.793 875.207C800.893 874.68 809.1 866.344 817.974 860.707C825.603 855.865 831.974 854.131 840.032 854.607C841.715 854.707 843.932 854.6 844.96 855.578C854.088 864.22 864.872 871.895 871.46 882.22C878.022 892.508 865.267 908.8 851.941 909.32C845.197 909.583 838.304 908.308 831.701 909.264C824.308 910.335 817.201 913.276 809.901 915.137C806.646 915.967 803.225 916.144 798.145 916.863" fill="#999999"/>
<path d="M740.71 421.836C738.097 415.577 734.423 409.772 731.455 403.65C728.24 396.916 723.687 390.907 718.074 385.988C712.461 381.07 705.906 377.346 698.807 375.042C683.803 370.311 667.694 370.395 652.74 375.283C651.481 375.731 650.171 376.02 648.84 376.142C642.301 376.518 635.616 376.076 629.259 377.328C624.44 378.278 620.166 382.713 615.42 383.158C607.043 383.811 598.618 383.534 590.301 382.33C584.435 381.565 581.263 383.162 580.68 388.817C579.986 395.559 575.488 396.324 570.406 395.578C567.009 395.102 563.737 393.964 560.777 392.228C553.811 387.986 547.909 390.378 541.797 394.052C530.026 401.126 518.03 403.346 506.297 394.099C496.819 386.632 493.136 388.181 485.697 398.887C481.649 404.715 479.776 412.233 477.71 419.222C472.633 436.4 466.855 453.495 463.562 471.037C460.754 485.993 460.92 501.519 459.947 516.804C459.08 530.425 459.27 544.164 451.789 556.504C450.238 559.272 449.693 562.492 450.249 565.616C453.074 578.856 451.918 591.741 459.349 605.201C466.78 618.661 497.942 632.264 506.688 632.722C515.434 633.18 529.164 633.301 534.752 633.444C546.005 635.204 558.677 637.275 571.383 639.12C575.035 639.65 579.013 640.433 582.449 639.557C602.698 634.394 627.995 652.337 633.849 654.805C639.703 657.273 662.208 669.783 675.158 670.234C688.108 670.685 694.712 670.774 700.934 664.901C707.156 659.028 711.141 649.81 713.476 641.383C716.291 631.22 716.719 620.301 717.389 609.659C718.431 593.094 718.427 576.459 719.662 559.913C720.112 553.889 721.281 546.794 724.828 542.346C734.047 530.784 737.591 518.321 738.18 503.678C739.099 480.866 742.199 458.149 743.819 435.352C744.134 430.919 742.487 426.064 740.719 421.832M672.029 453.351C668.391 460.499 665.598 468.27 660.899 474.632C655.862 481.451 650.548 485.013 639.328 481.64C626.111 477.667 611.921 484.988 600.028 492.658C592.318 497.631 594.128 506.406 603.521 510.684C618.418 517.389 631.019 528.317 639.763 542.115C648.627 555.805 646.231 566.532 632.563 575.53C628.598 578.14 626.448 583.522 622.473 586.1C618.141 588.91 612.573 589.735 607.686 591.778C590.786 598.847 573.486 601.571 555.147 598.695C546.759 597.379 537.975 598.76 529.495 597.808C519.858 596.726 509.309 596.54 502.472 588.226C498.605 583.526 497.506 576.199 493.144 572.326C486.044 566.02 483.244 558.041 480.544 549.77C479.753 547.352 479.452 543.825 480.65 541.855C489.388 527.49 491.663 512.255 492.39 495.416C492.99 481.572 499.771 467.584 505.658 454.49C512.077 440.211 526.428 442.465 538.824 442.301C547.966 442.18 557.124 443.171 566.271 443.666V444.317C575.423 444.317 584.608 443.817 593.72 444.417C612.979 445.693 629.511 438.103 645.494 428.994C651.526 425.556 656.011 426.081 660.686 430.717C662.767 432.673 664.968 434.497 667.276 436.177C673.188 440.724 675.681 446.171 672.029 453.347" fill="#999999"/>
<path d="M677.18 267.915C682.617 267.851 703.113 270.109 710.08 273.25C714.163 275.062 718.541 276.115 723 276.36C733.564 276.917 743.019 292.815 738.134 302.115C735.507 307.115 733.634 312.509 731.046 317.532C729.781 319.986 728.111 322.825 725.846 324.071C713.622 330.791 701.334 337.46 688.646 343.229C685.256 344.771 679.125 344.72 676.436 342.613C663.915 332.803 649.053 334.089 634.814 332.213C627.459 331.242 620.148 329.751 612.766 329.251C609.45 329.026 605.331 329.721 602.743 331.602C592.113 339.328 585.968 340.113 575.502 332.902C563.773 324.82 552.165 316.532 540.91 307.811C537.95 305.517 535.863 301.511 534.55 297.871C533.598 295.23 533.424 290.751 534.997 289.15C536.955 287.159 541.564 285.879 544.15 286.788C549.76 288.762 554.134 288.594 559.212 285.232C562.049 283.353 566.502 284.123 569.889 282.819C574.998 280.853 590.561 276.211 596.549 274.591C621.206 267.92 671.74 267.985 677.177 267.921" fill="#999999"/>
<path d="M491.665 269.853C493.473 280.353 484.891 287.218 477.665 294.233C470.421 301.27 465.737 309.623 460.304 317.924C444.736 341.709 427.11 364.162 409.882 386.824C406.637 390.816 402.464 393.953 397.727 395.96C394.595 397.332 389.604 397.309 386.618 395.712C365.747 384.552 362.737 367.102 374.984 347.212C384.4 331.745 395.493 317.363 408.062 304.328C413.038 299.198 415.716 291.866 419.58 285.622C422.564 280.798 425.963 276.222 428.805 271.322C430.961 267.605 433.535 263.701 434.159 259.611C435.665 249.747 439.443 244.911 449.441 244.531C457.632 244.168 465.837 244.649 473.929 245.966C486.294 248.079 491.883 255.723 491.661 269.847" fill="#999999"/>
<path d="M273.432 825.273C275.542 819.067 278.416 800.801 278.902 794.309C279.602 785.015 276.609 752.55 274.186 733.403C272.607 720.921 274.986 707.944 275.536 695.187C276.265 678.337 277.072 661.487 277.604 644.634C277.997 632.183 278.593 619.694 278.045 607.268C277.176 587.559 274.458 567.892 274.398 548.201C274.359 535.401 278.09 523.663 290.968 515.707C314.068 501.432 330.651 481.596 336.747 454.092C340.114 438.898 325.508 423.399 310.119 425.866C301.728 427.211 297.384 434.183 291.035 437.334C277.779 443.914 264.376 450.802 248.728 452.14C232.015 453.57 218.777 465.172 203.514 471.148C202.697 471.455 202.01 472.032 201.568 472.785C197.868 480.518 190.225 481.513 183.236 483.459C167.095 487.952 150.828 492.008 134.764 496.759C124.778 499.711 115.227 504.178 105.198 506.939C90.3796 511.017 84.7536 519.683 87.7996 534.778C89.0216 540.834 90.7766 547.378 89.6556 553.186C87.4556 564.601 88.3126 568.106 98.5756 572.574C111.369 578.145 124.393 581.42 138.587 578.619C142.002 577.945 147.163 578.809 149.464 581.065C159.572 590.976 169.577 590.34 177.798 578.454C180.898 573.974 184.236 569.654 187.465 565.269C191.686 569.131 196.544 572.507 199.959 576.984C203.845 582.077 207.97 587.82 209.286 593.869C212.168 607.119 213.542 620.717 215.157 634.217C216.742 647.465 218.789 660.892 208.357 672.117C207.118 673.451 206.614 675.757 206.377 677.687C204.253 694.98 202.394 712.306 200.207 729.587C197.372 751.977 204.481 775.31 193.78 796.993C193.08 798.898 193.1 800.994 193.835 802.886C199.121 817.255 203.264 832.264 210.381 845.686C220.929 865.577 243.538 870.636 260.535 849.716C264.548 844.777 272.197 828.902 273.435 825.267" fill="#999999"/>
<path d="M292.808 286.283C287.007 282.85 280.47 280.854 273.741 280.461C265.376 279.973 256.174 283.73 250.241 288.961C246.451 292.301 239.113 306.726 239.165 318.108C239.18 321.366 234.776 324.794 232.091 327.876C228.575 331.913 223.485 335.089 221.329 339.692C216.75 349.467 209.646 355.742 200.639 361.353C183.546 372 165.829 380.65 145.917 384.285C133.275 386.592 120.543 388.436 107.956 391.002C100.799 392.46 93.1891 395.157 93.2901 404.027C93.3821 412.127 99.8251 416.216 106.954 418.671C109.124 419.386 111.37 419.846 113.647 420.043C124.18 421.067 134.731 421.91 145.265 422.932C171.881 425.515 195.904 420.332 217.656 403.277C230.317 393.352 245.292 386.283 259.537 378.498C276.937 368.987 293.866 359.371 304.944 341.784C313.708 327.871 314.444 313.46 305.383 299.711C303.351 296.63 297.905 289.299 292.808 286.283Z" fill="#999999"/>
<path d="M325.921 247.401C335.945 242.849 347.065 240.234 356.292 234.501C375.108 222.801 396.346 219.762 417.159 215.375C433.432 211.945 450.085 210.21 466.628 208.211C476.448 207.023 486.375 206.5 496.271 206.226C501.961 206.068 507.841 208.033 513.346 207.177C519.788 206.177 525.859 202.961 532.197 201.065C536.016 199.922 540.083 198.665 543.961 198.865C550.902 199.236 557.844 201.78 564.678 201.416C575.512 200.839 583.49 205.284 588.234 213.966C591.958 220.78 593.51 227.594 595.444 236.566C597.378 245.538 602.789 252.702 612.358 253.159C622.936 253.664 642.319 249.314 651.85 244.716C661.381 240.118 674.756 223.532 678.475 215.516C682.615 206.596 687.766 193.316 692.208 168.823C694.576 155.779 692.878 147.3 683.208 139.923C672.438 131.711 664.729 122.223 665.651 107.697C665.972 102.619 665.569 97.4898 665.387 92.3888C665.194 86.9538 665.129 81.4958 664.532 76.0998C663.907 70.4558 648.215 57.0188 644.199 59.4998C634.499 65.4848 622.774 71.3258 617.399 80.4758C609.432 94.0518 608.356 111.042 597.651 124.276C592.768 130.314 592.238 139.87 589.651 148.096C577.269 145.716 565.465 149.765 553.987 154.961C548.095 157.628 542.395 163.786 536.849 163.51C525.705 162.955 513.783 167.157 503.203 159.879C499.583 157.59 495.679 155.786 491.59 154.511C486.546 152.74 485.166 150.169 486.89 144.811C492.712 126.692 491.29 108.842 484.243 91.1988C482.363 86.4908 481.702 81.2388 480.886 76.1708C477.555 55.5068 458.107 38.3678 437.41 38.0408C425.09 37.8408 425.31 37.8868 425.41 50.3738C425.695 86.5818 433.241 122.489 429.496 158.891C428.36 169.937 423.053 175.191 411.372 175.314C406.358 175.354 401.407 176.447 396.841 178.52C391.514 181.035 386.799 184.938 382.041 188.535C377.497 191.971 373.204 192.305 367.764 190.212C360.959 187.693 353.935 185.813 346.781 184.598C336.965 182.815 323.762 170.98 324.381 163.424C326.68 135.64 316.5 112.58 297.945 92.6008C297.042 91.5053 296.225 90.3419 295.5 89.1208C291.117 82.6208 287.772 75.0068 282.179 69.8208C261.16 50.3208 236.85 42.8608 208.696 52.6208C196.976 56.6848 193.961 62.4348 198.521 74.2828C201.193 81.3835 204.372 88.2827 208.034 94.9268C213.391 104.465 216.996 114.85 214.041 125.137C208.85 143.205 214.21 158.211 226.32 167.273C235.866 174.415 239.19 183.76 241.183 194.565C244.743 213.865 244.583 218.365 248.618 237.565C249.371 241.149 249.639 254.928 258.418 259.218C263.579 261.739 277.818 262.691 290.284 260.648C299.01 259.218 325.917 247.406 325.917 247.406" fill="#999999"/>
</g>
</g>
<defs>
<clipPath id="clip0_1339_1294">
<rect width="960" height="954" fill="white"/>
</clipPath>
</defs>
</svg>
