<svg xmlns="http://www.w3.org/2000/svg" width="376.072" height="425.987" viewBox="0 0 376.072 425.987">
  <g id="_04_003" data-name="04_003" transform="translate(-427.776 -866.435)">
    <path id="패스_10120" data-name="패스 10120" d="M653.71,383.835c-2.613-6.259-6.287-12.064-9.255-18.186a54.984,54.984,0,0,0-32.648-28.608,75.343,75.343,0,0,0-46.067.241,16.056,16.056,0,0,1-3.9.859c-6.539.376-13.224-.066-19.581,1.186-4.819.95-9.093,5.385-13.839,5.83a113.738,113.738,0,0,1-25.119-.828c-5.866-.765-9.038.832-9.621,6.487-.694,6.742-5.192,7.507-10.274,6.761a26.239,26.239,0,0,1-9.629-3.35c-6.966-4.242-12.868-1.85-18.98,1.824-11.771,7.074-23.767,9.294-35.5.047-9.478-7.467-13.161-5.918-20.6,4.788-4.048,5.828-5.921,13.346-7.987,20.335-5.077,17.178-10.855,34.273-14.148,51.815-2.808,14.956-2.642,30.482-3.615,45.767-.867,13.621-.677,27.36-8.158,39.7a13.717,13.717,0,0,0-1.54,9.112c2.825,13.24,1.669,26.125,9.1,39.585s38.593,27.063,47.339,27.521,22.476.579,28.064.722c11.253,1.76,23.925,3.831,36.631,5.676,3.652.53,7.63,1.313,11.066.437,20.249-5.163,45.546,12.78,51.4,15.248s28.359,14.978,41.309,15.429,19.554.54,25.776-5.333,10.207-15.091,12.542-23.518c2.815-10.163,3.243-21.082,3.913-31.724,1.042-16.565,1.038-33.2,2.273-49.746.45-6.024,1.619-13.119,5.166-17.567,9.219-11.562,12.763-24.025,13.352-38.668.919-22.812,4.019-45.529,5.639-68.326.315-4.433-1.332-9.288-3.1-13.52M585.029,415.35c-3.638,7.148-6.431,14.919-11.13,21.281-5.037,6.819-10.351,10.381-21.571,7.008-13.217-3.973-27.407,3.348-39.3,11.018-7.71,4.973-5.9,13.748,3.493,18.026a83.461,83.461,0,0,1,36.242,31.431c8.864,13.69,6.468,24.417-7.2,33.415-3.965,2.61-6.115,7.992-10.09,10.57-4.332,2.81-9.9,3.635-14.787,5.678-16.9,7.069-34.2,9.793-52.539,6.917-8.388-1.316-17.172.065-25.652-.887-9.637-1.082-20.186-1.268-27.023-9.582-3.867-4.7-4.966-12.027-9.328-15.9-7.1-6.306-9.9-14.285-12.6-22.556-.791-2.418-1.092-5.945.106-7.915,8.738-14.365,11.013-29.6,11.74-46.439.6-13.844,7.381-27.832,13.268-40.926,6.419-14.279,20.77-12.025,33.166-12.189,9.142-.121,18.3.87,27.447,1.365v.651c9.152,0,18.337-.5,27.449.1,19.259,1.276,35.791-6.314,51.774-15.423,6.032-3.438,10.517-2.913,15.192,1.723a68.492,68.492,0,0,0,6.59,5.46c5.912,4.547,8.405,9.994,4.753,17.17" transform="translate(147 660)" fill="#121212"/>
    <path id="패스_10121" data-name="패스 10121" d="M590.18,229.916c5.437-.064,25.933,2.194,32.9,5.335A36.845,36.845,0,0,0,636,238.361c10.564.557,20.019,16.455,15.134,25.755-2.627,5-4.5,10.394-7.088,15.417-1.265,2.454-2.935,5.293-5.2,6.539-12.224,6.72-24.512,13.389-37.2,19.158-3.39,1.542-9.521,1.491-12.21-.616-12.521-9.81-27.383-8.524-41.622-10.4-7.355-.971-14.666-2.462-22.048-2.962-3.316-.225-7.435.47-10.023,2.351-10.63,7.726-16.775,8.511-27.241,1.3-11.729-8.082-23.337-16.37-34.592-25.091-2.96-2.294-5.047-6.3-6.36-9.94-.952-2.641-1.126-7.12.447-8.721,1.958-1.991,6.567-3.271,9.153-2.362,5.61,1.974,9.984,1.806,15.062-1.556,2.837-1.879,7.29-1.109,10.677-2.413,5.109-1.966,20.672-6.608,26.66-8.228,24.657-6.671,75.191-6.606,80.628-6.67" transform="translate(147 660)" fill="#121212"/>
    <path id="패스_10122" data-name="패스 10122" d="M404.666,231.852c1.808,10.5-6.774,17.365-14,24.38-7.244,7.037-11.928,15.39-17.361,23.691-15.568,23.785-33.194,46.238-50.422,68.9a31.505,31.505,0,0,1-12.155,9.136c-3.132,1.372-8.123,1.349-11.109-.248-20.871-11.16-23.881-28.61-11.634-48.5a246.243,246.243,0,0,1,33.078-42.884c4.976-5.13,7.654-12.462,11.518-18.706,2.984-4.824,6.383-9.4,9.225-14.3,2.156-3.717,4.73-7.621,5.354-11.711,1.506-9.864,5.284-14.7,15.282-15.08a119.537,119.537,0,0,1,24.488,1.435c12.365,2.113,17.954,9.757,17.732,23.881" transform="translate(147 660)" fill="#121212"/>
  </g>
</svg>
