<svg xmlns="http://www.w3.org/2000/svg" width="496.671" height="223.757" viewBox="0 0 496.671 223.757">
  <path id="_02_001" data-name="02_001" d="M238.921,209.4c10.024-4.552,21.144-7.167,30.371-12.9,18.816-11.7,40.054-14.739,60.867-19.126,16.273-3.43,32.926-5.165,49.469-7.164,9.82-1.188,19.747-1.711,29.643-1.985,5.69-.158,11.57,1.807,17.075.951,6.442-1,12.513-4.216,18.851-6.112,3.819-1.143,7.886-2.4,11.764-2.2,6.941.371,13.883,2.915,20.717,2.551,10.834-.577,18.812,3.868,23.556,12.55,3.724,6.814,5.276,13.628,7.21,22.6s7.345,16.136,16.914,16.593c10.578.505,29.961-3.845,39.492-8.443s22.906-21.184,26.625-29.2c4.14-8.92,9.291-22.2,13.733-46.693,2.368-13.044.67-21.523-9-28.9-10.77-8.212-18.479-17.7-17.557-32.226.321-5.078-.082-10.207-.264-15.308-.193-5.435-.258-10.893-.855-16.289-.625-5.644-16.317-19.081-20.333-16.6-9.7,5.985-21.425,11.826-26.8,20.976-7.967,13.576-9.043,30.566-19.748,43.8-4.883,6.038-5.413,15.594-8,23.82-12.382-2.38-24.186,1.669-35.664,6.865-5.892,2.667-11.592,8.825-17.138,8.549-11.144-.555-23.066,3.647-33.646-3.631a49.063,49.063,0,0,0-11.613-5.368c-5.044-1.771-6.424-4.342-4.7-9.7,5.822-18.119,4.4-35.969-2.647-53.612-1.88-4.708-2.541-9.96-3.357-15.028C390.555,17.506,371.107.367,350.41.04c-12.32-.2-12.1-.154-12,12.333.285,36.208,7.831,72.115,4.086,108.517-1.136,11.046-6.443,16.3-18.124,16.423a35.847,35.847,0,0,0-14.531,3.206c-5.327,2.515-10.042,6.418-14.8,10.015-4.544,3.436-8.837,3.77-14.277,1.677a116.748,116.748,0,0,0-20.983-5.614c-9.816-1.783-23.019-13.618-22.4-21.174C239.68,97.639,229.5,74.579,210.945,54.6A27.663,27.663,0,0,1,208.5,51.12c-4.383-6.5-7.728-14.114-13.321-19.3-21.019-19.5-45.329-26.96-73.483-17.2-11.72,4.064-14.735,9.814-10.175,21.662a158.1,158.1,0,0,0,9.513,20.644c5.357,9.538,8.962,19.923,6.007,30.21-5.191,18.068.169,33.074,12.279,42.136,9.546,7.142,12.87,16.487,14.863,27.292,3.56,19.3,3.4,23.8,7.435,43,.753,3.584,1.021,17.363,9.8,21.653,5.161,2.521,19.4,3.473,31.866,1.43,8.726-1.43,35.633-13.242,35.633-13.242" transform="translate(-109.491 0)" fill="#121212"/>
</svg>
