<svg xmlns="http://www.w3.org/2000/svg" width="250.235" height="582.779" viewBox="0 0 250.235 582.779">
  <g id="_03_002" data-name="03_002" transform="translate(-147 -902.418)">
    <path id="패스_10118" data-name="패스 10118" d="M186.432,787.271c2.11-6.206,4.984-24.472,5.47-30.964.7-9.294-2.293-41.759-4.716-60.906-1.579-12.482.8-25.459,1.35-38.216.729-16.85,1.536-33.7,2.068-50.553.393-12.451.989-24.94.441-37.366-.869-19.709-3.587-39.376-3.647-59.067-.039-12.8,3.692-24.538,16.57-32.494,23.1-14.275,39.683-34.111,45.779-61.615,3.367-15.194-11.239-30.693-26.628-28.226-8.391,1.345-12.735,8.317-19.084,11.468-13.256,6.58-26.659,13.468-42.307,14.806-16.713,1.43-29.951,13.032-45.214,19.008a3.813,3.813,0,0,0-1.946,1.637c-3.7,7.733-11.343,8.728-18.332,10.674-16.141,4.493-32.408,8.549-48.472,13.3-9.986,2.952-19.537,7.419-29.566,10.18C3.38,473.015-2.246,481.681.8,496.776c1.222,6.056,2.977,12.6,1.856,18.408-2.2,11.415-1.343,14.92,8.92,19.388,12.793,5.571,25.817,8.846,40.011,6.045,3.415-.674,8.576.19,10.877,2.446,10.108,9.911,20.113,9.275,28.334-2.611,3.1-4.48,6.438-8.8,9.667-13.185,4.221,3.862,9.079,7.238,12.494,11.715,3.886,5.093,8.011,10.836,9.327,16.885,2.882,13.25,4.256,26.848,5.871,40.348,1.585,13.248,3.632,26.675-6.8,37.9-1.239,1.334-1.743,3.64-1.98,5.57-2.124,17.293-3.983,34.619-6.17,51.9-2.835,22.39,4.274,45.723-6.427,67.406a8.341,8.341,0,0,0,.055,5.893c5.286,14.369,9.429,29.378,16.546,42.8,10.548,19.891,33.157,24.95,50.154,4.03,4.013-4.939,11.662-20.814,12.9-24.449" transform="translate(147 660)" fill="#121212"/>
    <path id="패스_10119" data-name="패스 10119" d="M205.809,248.283a42.287,42.287,0,0,0-19.067-5.822c-8.365-.488-17.567,3.269-23.5,8.5-3.79,3.34-11.128,17.765-11.076,29.147.015,3.258-4.389,6.686-7.074,9.768-3.516,4.037-8.606,7.213-10.762,11.816-4.579,9.775-11.683,16.05-20.69,21.661C96.547,334,78.83,342.65,58.918,346.285c-12.642,2.307-25.374,4.151-37.961,6.717C13.8,354.46,6.19,357.157,6.291,366.027c.092,8.1,6.535,12.189,13.664,14.644a29.479,29.479,0,0,0,6.693,1.372c10.533,1.024,21.084,1.867,31.618,2.889,26.616,2.583,50.639-2.6,72.391-19.655,12.661-9.925,27.636-16.994,41.881-24.779,17.4-9.511,34.329-19.127,45.407-36.714,8.764-13.913,9.5-28.324.439-42.073-2.032-3.081-7.478-10.412-12.575-13.428" transform="translate(147 660)" fill="#121212"/>
  </g>
</svg>
