<svg id="img_재료_불" xmlns="http://www.w3.org/2000/svg" xmlns:xlink="http://www.w3.org/1999/xlink" width="91.447" height="214.242" viewBox="0 0 91.447 214.242">
  <defs>
    <clipPath id="clip-path">
      <path id="패스_13190" data-name="패스 13190" d="M33.288,139.618c1.738,3.782,4.071,7.693,2.854,11.56s-7.965,7.261-13.255,5.349c-4.1-1.482-4.9-5.04-5.178-8.093a224.307,224.307,0,0,1-.459-34.191c-5.6,6.507-11.239,13.082-14.517,20.232s-4.037,15.027.118,21.98c2.8,4.683,7.7,8.773,10,13.569C20.044,185.013.138,200.082.676,215.785c.286,8.357,6.818,16.528,17.155,21.46s24.243,6.512,36.525,4.152c18.536-3.563,31.306-15.359,35.312-27.7s.644-25.185-4.116-37.412S74.614,151.965,72.9,139.4c-8.536,10.172-11.076,22.428-6.988,33.716-9.769-4.487-13.484-12.984-12.848-20.771s4.853-15.227,7.891-22.769c3.9-9.686,2.969-16.39-1.605-25.5-2.615-5.2-5.1-23.541,2.008-27.564-26.8,15.163-38.262,40.925-28.072,63.1" transform="translate(0 -76.515)" fill="none"/>
    </clipPath>
    <linearGradient id="linear-gradient" x1="0.014" y1="0.996" x2="0.02" y2="0.996" gradientUnits="objectBoundingBox">
      <stop offset="0" stop-color="#ff3113"/>
      <stop offset="0.824" stop-color="#f35013"/>
      <stop offset="1" stop-color="#f15613"/>
    </linearGradient>
    <clipPath id="clip-path-2">
      <rect id="사각형_3858" data-name="사각형 3858" width="91.446" height="214.242" fill="none"/>
    </clipPath>
  </defs>
  <g id="그룹_4544" data-name="그룹 4544" transform="translate(0 47.62)">
    <g id="그룹_4543" data-name="그룹 4543" clip-path="url(#clip-path)">
      <rect id="사각형_3857" data-name="사각형 3857" width="94.976" height="167.243" transform="translate(-1.303 0)" fill="url(#linear-gradient)"/>
    </g>
  </g>
  <g id="그룹_4546" data-name="그룹 4546">
    <g id="그룹_4545" data-name="그룹 4545" clip-path="url(#clip-path-2)">
      <path id="패스_13191" data-name="패스 13191" d="M29.008,24.418c1.627,5.021,4.912,9.607,6.891,14.549a30.621,30.621,0,0,1-4.221,29.786c7.473-6.064,15.088-12.288,19.578-19.985s5.327-17.282-.607-24.335c-2.8-3.323-6.89-5.873-9.278-9.426C39.449,12.149,39.8,0,39.8,0S27.859,20.873,29.008,24.418" transform="translate(-10.925 0)" fill="#f15613"/>
      <path id="패스_13192" data-name="패스 13192" d="M81.185,173.947,77.943,205.97s-11.7-3.15-15.809-10.134c-9.173-15.593-4.781-28.1-4.025-37.11.564-6.727-1.292-13.857-3.785-20.224s-2.083-25.139,3.176-29.976c-7.788,3.085-10.651,23.353-8.977,30.82S51.8,153.632,50.5,161.16c-.943,5.475-4.767,28.295-12.068,28.5-4.826.134-4.118-3.81-6.329-9.016.027.413.066.825.082,1.238a65.805,65.805,0,0,1-1.617,15.838c.045,1.135.031,2.079-.006,2.752-.858,15.633-14.738,16.857-8.155,39.144s44.842,14.93,53.913,8.513A36.42,36.42,0,0,0,92.13,218.536c.263-11.7-10.945-44.589-10.945-44.589" transform="translate(-7.795 -40.984)" fill="#f97922"/>
      <path id="패스_13193" data-name="패스 13193" d="M18.323,200.406c.37.426.736.85,1.131,1.283a23.345,23.345,0,0,1,4.152,6.612,44.53,44.53,0,0,0-.078-4.879,41.612,41.612,0,0,0-1.418-7.32c-.368-.318-.712-.637-1.122-.954-12.431-9.613-10.344-25.354-10.344-25.354a9.965,9.965,0,0,0-1.289,2.262c.679,5.865,2.954,11.592,4.955,17.07,1.217,3.332,2.265,6.72,3.525,10.036.159.416.328.828.489,1.243" transform="translate(-3.532 -64.122)" fill="#f97922"/>
      <path id="패스_13194" data-name="패스 13194" d="M45.925,287.232c1.621-5.438,4.89-10.42,7.323-15.644s4.03-11.028,2.143-16.406a60.655,60.655,0,0,1,9.886,34.2l6.551-18.857c-1.049,4.314,2.034,8.524,5.248,12.018,9,9.786,8.744,24.9-9.352,27.781-15.782,2.511-25.11-11.99-21.8-23.091" transform="translate(-17.092 -96.367)" fill="#ffa036"/>
    </g>
  </g>
</svg>
