<svg id="img_재료_뚜껑" xmlns="http://www.w3.org/2000/svg" xmlns:xlink="http://www.w3.org/1999/xlink" width="206.571" height="191.307" viewBox="0 0 206.571 191.307">
  <defs>
    <clipPath id="clip-path">
      <rect id="사각형_3860" data-name="사각형 3860" width="206.571" height="191.307" fill="none"/>
    </clipPath>
  </defs>
  <g id="그룹_4548" data-name="그룹 4548" clip-path="url(#clip-path)">
    <path id="패스_13195" data-name="패스 13195" d="M206.055,222.75c-1.163-5.162-4.045-17.389-7.5-27.787L6.411,193.538A193.2,193.2,0,0,0,.277,223.925a5.866,5.866,0,0,0-.157,1.329c0,13.321,46.223,24.12,103.243,24.12s103.244-10.8,103.244-24.12a6.163,6.163,0,0,0-.552-2.5" transform="translate(-0.036 -58.067)" fill="#608765"/>
    <path id="패스_13196" data-name="패스 13196" d="M206.055,218.944c-1.163-5.162-4.045-17.389-7.5-27.787L6.411,189.732A193.2,193.2,0,0,0,.277,220.119a5.866,5.866,0,0,0-.157,1.329c0,13.321,46.223,24.12,103.243,24.12s103.244-10.8,103.244-24.12a6.163,6.163,0,0,0-.552-2.5" transform="translate(-0.036 -56.925)" fill="#79a580"/>
    <path id="패스_13197" data-name="패스 13197" d="M201.03,182.12c0,12.429-43.13,22.505-96.333,22.505S8.363,194.55,8.363,182.12s43.13-22.505,96.334-22.505,96.333,10.076,96.333,22.505" transform="translate(-2.509 -47.889)" fill="#93bc9b"/>
    <path id="패스_13198" data-name="패스 13198" d="M194.1,176.649c0,10.87-37.718,19.681-84.245,19.681s-84.244-8.811-84.244-19.681,37.717-19.681,84.244-19.681,84.245,8.811,84.245,19.681" transform="translate(-7.686 -47.095)" fill="#71a579"/>
    <path id="패스_13199" data-name="패스 13199" d="M195.227,172.92c0,10.87-37.718,19.681-84.245,19.681S26.738,183.79,26.738,172.92s37.717-19.681,84.244-19.681,84.245,8.811,84.245,19.681" transform="translate(-8.022 -45.976)" fill="#93bc9b"/>
    <path id="패스_13200" data-name="패스 13200" d="M39.736,174.294c-3,2.322-2.376,7.353.281,10.059s6.573,3.664,10.289,4.412c13.74,2.765,38.311,1.178,38.311,1.178l20.021-2.222s10.92,3.193,19.569.045c15.934.881,26.385.828,26.385.828a23.061,23.061,0,0,0,10.228,1.081c8.862-.862,9.913-7.1,9.913-7.1s5.523-.4,8.8-1.814c1.23-.533,2.563-3.865,3.73-8.234Z" transform="translate(-11.324 -51.764)" fill="#71a579"/>
    <path id="패스_13201" data-name="패스 13201" d="M150.616,42.12A38.962,38.962,0,0,1,163.648,45.1c-.042-.018-2.369-9.317-2.781-10.518-3.316-9.684-16.7-9.542-16.7-9.542s9.97,3.276,6.454,17.079" transform="translate(-43.253 -7.513)" fill="#434f4a"/>
    <path id="패스_13202" data-name="패스 13202" d="M190.192,94.558c-.336-7.873-3.639-16.038-10.279-20.279,2.5-4.667-1.245-11.35-6.533-11.645a8.107,8.107,0,0,0-.535-9.321c3.6.409,7.818-3.25,5.827-6.267s-4.313,1.451-7.207-1.936-1.375-14.275-3.935-20.407-7.168-11.729-13.442-13.917a9.79,9.79,0,0,0-17.156-2.773c-8.4-5.67-20.883-5.12-31-4.418-3.135.218-6.193,13.752-2.19,14.686s11.386,3.522,15.25,4.927,7.406,5.208,6.492,9.217c-5.721-1.9-14.574-6.552-20.295-8.456-2.5-.83-5.332-1.639-7.652-.4-3.426,1.829-3.44,6.674-2.814,10.507,1.4,8.595,11.1,27.6,11.1,27.6s-7.976-5.508-21.08,3.608c0,0-6.457.19-5.887-3.8S85.8,54.849,85.8,54.849s-1.238-4-8.253-6.038c0,0,6.209-5.558,6.352-10.117.109-3.511-2.588-7.177-7.011-5.545s-4.8,11.883-10.273,15.194S54.864,53.454,49.291,56.6c-2.451,1.385-4.856,3.139-6.069,5.68s-.835,6.02,1.488,7.611c-4.457-.349-7.985,5.505-5.595,9.283a8.6,8.6,0,0,0-.626,15.915,13.236,13.236,0,0,0,.967,23.533c-3,2.322-2.375,7.353.281,10.059s6.573,3.664,10.29,4.412c13.74,2.765,38.311,1.178,38.311,1.178l20.021-2.221s10.921,3.193,19.57.044c15.933.881,26.386.829,26.386.829a23.049,23.049,0,0,0,10.227,1.081c8.862-.862,9.914-7.1,9.914-7.1s5.523-.4,8.8-1.814,7.276-22.664,6.941-30.537m-71.784-27.88c-1.927-1.58-.351-6.506-4.376-9.353-1.583-1.119-3.437-1.844-4.9-3.117s-2.476-3.4-1.654-5.154c1.672-3.572,7.005-1.866,8.9.486a26.461,26.461,0,0,1,4.364,10.584c.518,3.561-.411,8.134-2.338,6.554M165.127,39.13a1.57,1.57,0,0,1-1.994.981c-.712-.364-.829-1.307-.94-2.1a11.692,11.692,0,0,0-2.222-5.379c-.957-1.273-2.164-2.334-3.218-3.528-1.55-1.753-2.973-4.259-1.858-6.611.867-1.832,3.053-2.732,4.525-1.149,1.441,1.55,2.619,4.575,3.454,6.5a39.052,39.052,0,0,1,2.276,8.818,4.553,4.553,0,0,1-.022,2.469" transform="translate(-9.534 -0.95)" fill="#95c19d"/>
    <path id="패스_13203" data-name="패스 13203" d="M221.272,100.418c.789-17.364-14.372-26.992-14.372-26.992,2.505-4.667-1.244-11.349-6.532-11.645a8.105,8.105,0,0,0-.536-9.321c3.6.409,7.819-3.25,5.827-6.267s-4.313,1.45-7.207-1.937-1.375-14.274-3.935-20.407-7.168-11.728-13.443-13.917a9.79,9.79,0,0,0-17.156-2.772c-6.584-5.446-16.253-4.917-24.169-5.745-3.9-.407-7.012-1.748-8.792-1.341-5.4,1.233-8.939,12.337-7.36,15.1s18.52,5.777,22.384,7.182,7.406,5.209,6.492,9.218c-5.721-1.9-14.574-6.552-20.295-8.456-2.5-.831-5.332-1.639-7.652-.4-3.426,1.829-3.44,6.674-2.814,10.507,1.217,7.452,11.356,27.827,11.356,27.827s9.54,3.624,11.563,8.775c2.36,6.009,1.262,13-1.844,18.659-1.332,2.426-3.022,4.683-3.921,7.3s-.834,5.812,1.07,7.82c2.221,2.343,5.911,2.221,8.982,3.216,7.168,2.322,13.26,6.111,13.551,18.062.148,6.067.1,6.511.1,6.511,15,.787,18.733.678,18.733.678a23.049,23.049,0,0,0,10.227,1.081c8.862-.862,9.914-7.1,9.914-7.1s5.523-.4,8.8-1.814,10.154-4.5,11.033-23.825M145.2,65.53c-1.927-1.58-.351-6.506-4.376-9.353-1.583-1.119-3.437-1.844-4.9-3.117s-2.476-3.4-1.654-5.154c1.672-3.572,7.005-1.866,8.9.486a26.461,26.461,0,0,1,4.364,10.584c.518,3.561-.411,8.134-2.338,6.554m46.719-27.547a1.57,1.57,0,0,1-1.994.981c-.712-.364-.829-1.307-.94-2.1a11.7,11.7,0,0,0-2.222-5.379c-.957-1.273-2.164-2.334-3.218-3.527-1.55-1.753-2.973-4.259-1.858-6.611.867-1.832,3.053-2.732,4.525-1.149,1.441,1.55,2.619,4.575,3.454,6.5a39.065,39.065,0,0,1,2.276,8.819,4.553,4.553,0,0,1-.022,2.469" transform="translate(-36.423 0)" fill="#88b78e"/>
    <path id="패스_13204" data-name="패스 13204" d="M204.707,110.983s-6.563,2.309-14.829-3.02a14.175,14.175,0,0,1-6.17-8.512c-.638-2.671-.325-5.381.007-8.249.283-2.448.843-5.033.21-7.459-3-11.494-16.586-12.524-18.438-12.556a19,19,0,0,1,9.445,13.138c1.434,8.05-2.259,17.275,2.344,24.033,2.581,3.792,7.35,5.155,11.857,6,7.184,1.349,15.669-1.944,15.586-3.176Z" transform="translate(-49.651 -21.358)" fill="#6ea074"/>
    <path id="패스_13205" data-name="패스 13205" d="M189.139,18.574c2.92,2.35,6.382,3.919,9.492,6.012.328.222.652.456.974.694a4.239,4.239,0,0,1,.3-2.715c.867-1.832,3.053-2.733,4.525-1.149,1.441,1.55,2.619,4.575,3.454,6.5a39.057,39.057,0,0,1,2.276,8.819,4.553,4.553,0,0,1-.022,2.469,1.823,1.823,0,0,1-.517.7,29.929,29.929,0,0,0,3.839,9.074,14.867,14.867,0,0,0,5.22,4.731c3.437-.04,7.078-3.452,5.2-6.295-1.991-3.016-4.313,1.451-7.207-1.936S215.3,31.2,212.736,25.069s-7.168-11.729-13.443-13.917A9.79,9.79,0,0,0,182.137,8.38c-.028-.024-.059-.043-.088-.066a22.319,22.319,0,0,0,7.089,10.26" transform="translate(-54.621 -1.331)" fill="#74a879"/>
    <path id="패스_13206" data-name="패스 13206" d="M211.112,100.088c-5.006-3.659-11.225-9.747-12.856-18.165-.741-3.824-.447-7.812-.162-11.669.373-5.058.726-9.836-1.029-14.332a32.9,32.9,0,0,0-3.234-5.8A41.14,41.14,0,0,1,191,45.291c-1.8-3.844-2.157-9.014,1.12-11.9l.566.641c-2.929,2.579-2.525,7.455-.911,10.894a40.143,40.143,0,0,0,2.777,4.732,33.56,33.56,0,0,1,3.312,5.952c1.826,4.676,1.45,9.775,1.086,14.706-.281,3.8-.57,7.732.149,11.443,1.6,8.245,7.787,14.212,12.7,17.766l.162.118Z" transform="translate(-56.898 -10.019)" fill="#ace5ad"/>
    <path id="패스_13207" data-name="패스 13207" d="M127.961,8.969a3.943,3.943,0,0,0,1.943.517c2.549.135,7.991-2.084,3.453-4.114-2.2-.985-8.944,1.313-5.4,3.6" transform="translate(-38.088 -1.541)" fill="#6ea074"/>
    <path id="패스_13208" data-name="패스 13208" d="M210.522,101.737a5.172,5.172,0,0,1-1.27-.157,5.879,5.879,0,0,1-4.007-3.713,6.78,6.78,0,0,1,4.9-8.766,5.882,5.882,0,0,1,5.292,1.548l-.61.6a5.008,5.008,0,0,0-4.508-1.308,5.925,5.925,0,0,0-4.267,7.64,5.085,5.085,0,0,0,3.412,3.173,4.417,4.417,0,0,0,4.358-1.322,3.93,3.93,0,0,0,.454-4.42,3.259,3.259,0,0,0-2.472-1.622,2.678,2.678,0,0,0-2.52,1.286,2.247,2.247,0,0,0,.39,2.667,1.31,1.31,0,0,0,1.422.295.748.748,0,0,0,.347-.593.477.477,0,0,0-.157-.422l.512-.684a1.3,1.3,0,0,1,.5,1.167,1.59,1.59,0,0,1-.79,1.282,2.14,2.14,0,0,1-2.406-.411,3.089,3.089,0,0,1-.564-3.715,3.519,3.519,0,0,1,3.339-1.723,4.123,4.123,0,0,1,3.138,2.042,4.8,4.8,0,0,1-.543,5.407,5.238,5.238,0,0,1-3.945,1.751" transform="translate(-61.471 -26.697)" fill="#6ea074"/>
    <path id="패스_13209" data-name="패스 13209" d="M227.337,101.326a3.469,3.469,0,0,1-1.037.116,5.323,5.323,0,0,1-4.106-2.743,8.134,8.134,0,0,1-1.023-5.36,5.715,5.715,0,0,1,2.592-4.137,4.214,4.214,0,0,1,4.552.38l-.323.706a3.581,3.581,0,0,0-3.875-.314,4.978,4.978,0,0,0-2.252,3.606,7.087,7.087,0,0,0,.886,4.671,4.61,4.61,0,0,0,3.5,2.346,3.191,3.191,0,0,0,3.075-2.194,4.672,4.672,0,0,0-.79-4.364,2.682,2.682,0,0,0-2.359-1.046,2.091,2.091,0,0,0-1.643,1.772,2.644,2.644,0,0,0,1,2.494.926.926,0,0,0,1.192-.015.789.789,0,0,0,.118-.646.541.541,0,0,0-.232-.374l.224-.769a1.45,1.45,0,0,1,.692,1.021,1.663,1.663,0,0,1-.286,1.4,1.5,1.5,0,0,1-1.994.111,3.631,3.631,0,0,1-1.4-3.469,2.751,2.751,0,0,1,2.172-2.367A3.387,3.387,0,0,1,229,93.467a5.717,5.717,0,0,1,.976,5.337,3.95,3.95,0,0,1-2.64,2.521" transform="translate(-66.329 -26.614)" fill="#6ea074"/>
    <path id="패스_13210" data-name="패스 13210" d="M214.5,85.008a5.172,5.172,0,0,1-1.27-.157,5.881,5.881,0,0,1-4.007-3.714,6.781,6.781,0,0,1,4.9-8.766,5.885,5.885,0,0,1,5.292,1.548l-.611.6a5,5,0,0,0-4.508-1.309,5.926,5.926,0,0,0-4.267,7.641,5.085,5.085,0,0,0,3.412,3.173A4.414,4.414,0,0,0,217.8,82.7a3.928,3.928,0,0,0,.454-4.42,3.257,3.257,0,0,0-2.471-1.622,2.681,2.681,0,0,0-2.52,1.286,2.247,2.247,0,0,0,.389,2.667,1.317,1.317,0,0,0,1.423.295.748.748,0,0,0,.347-.594.48.48,0,0,0-.157-.421l.512-.684a1.3,1.3,0,0,1,.5,1.165,1.589,1.589,0,0,1-.79,1.283,2.146,2.146,0,0,1-2.406-.411,3.089,3.089,0,0,1-.563-3.715,3.511,3.511,0,0,1,3.339-1.723,4.123,4.123,0,0,1,3.137,2.042,4.805,4.805,0,0,1-.542,5.407,5.237,5.237,0,0,1-3.945,1.751" transform="translate(-62.665 -21.678)" fill="#6ea074"/>
    <path id="패스_13211" data-name="패스 13211" d="M208.578,67.459a4.948,4.948,0,0,1-3.4-1.377,5.654,5.654,0,0,1-1.6-4.681,4.644,4.644,0,0,1,1.958-3.426,3.165,3.165,0,0,1,3.939.364,3.807,3.807,0,0,1,.76,3.172,3.5,3.5,0,0,1-.757,1.879,1.968,1.968,0,0,1-2.094.625,1.534,1.534,0,0,1-.9-.981,1.288,1.288,0,0,1,.161-1.137l.7.5a.451.451,0,0,0-.039.39.668.668,0,0,0,.38.43,1.123,1.123,0,0,0,1.153-.386,2.7,2.7,0,0,0,.554-1.436,3.1,3.1,0,0,0-.542-2.474,2.321,2.321,0,0,0-2.851-.223,3.786,3.786,0,0,0-1.568,2.8,4.859,4.859,0,0,0,1.347,3.973,3.96,3.96,0,0,0,3.939.952,4.288,4.288,0,0,0,2.424-2.317,6.917,6.917,0,0,0,.519-3.5,10.06,10.06,0,0,0-4.842-7.708l.434-.736a10.925,10.925,0,0,1,5.259,8.373,7.755,7.755,0,0,1-.594,3.924,5.147,5.147,0,0,1-2.924,2.768,4.338,4.338,0,0,1-1.408.23" transform="translate(-61.067 -15.651)" fill="#6ea074"/>
    <path id="패스_13212" data-name="패스 13212" d="M131.06,11.138A4.93,4.93,0,0,1,127.4,9.592l.636-.572a4.163,4.163,0,0,0,5.507.433l.538.664a4.791,4.791,0,0,1-3.022,1.022" transform="translate(-38.224 -2.706)" fill="#fff"/>
    <path id="패스_13213" data-name="패스 13213" d="M172.164,18.236a4.979,4.979,0,0,1-2.553.559c-.891-.256-1.713-1.915-1.713-1.915s1.578-.969,2.469-.713,1.8,2.069,1.8,2.069" transform="translate(-50.375 -4.837)" fill="#252525"/>
    <path id="패스_13214" data-name="패스 13214" d="M198.069,16.985a4.991,4.991,0,0,1-1.522-.233l.26-.814a4.794,4.794,0,0,0,5.733-2.779l.8.3a5.723,5.723,0,0,1-5.273,3.526" transform="translate(-58.97 -3.948)" fill="#fff"/>
    <rect id="사각형_3859" data-name="사각형 3859" width="0.855" height="19.062" transform="matrix(0.996, -0.092, 0.092, 0.996, 120.995, 161.334)" fill="#6b9171"/>
    <path id="패스_13215" data-name="패스 13215" d="M144.457,253.27l-.473-.02-32.4-1.424.358-19.4.855.015-.344,18.565,31.1,1.368-.652-10.746-19.3-1.034.045-.853,20.064,1.074Z" transform="translate(-33.478 -69.736)" fill="#6b8e6f"/>
    <path id="패스_13216" data-name="패스 13216" d="M152.8,254.411l-1.034-19.658L122.326,232.7l-1.316,12.835,19.218.343-.015.855-20.149-.36,1.5-14.582,31.018,2.164,1.074,20.413Z" transform="translate(-36.023 -69.544)" fill="#6b8e6f"/>
    <path id="패스_13217" data-name="패스 13217" d="M66.455,247.119l-.433-.084-29.616-5.81,3.162-19.14.784.131-3.026,18.318,28.422,5.576.969-10.719L49.1,231.747l.166-.837L67.577,234.7Z" transform="translate(-10.923 -66.632)" fill="#6b8e6f"/>
    <path id="패스_13218" data-name="패스 13218" d="M74.267,249.446l1.917-19.588-26.8-6.03L46.3,236.347,63.943,239.3l-.139.843-18.493-3.092,3.5-14.223,28.234,6.353-1.991,20.34Z" transform="translate(-13.595 -66.854)" fill="#6b8e6f"/>
    <path id="패스_13219" data-name="패스 13219" d="M95.487,247.431l1.152-19.016.8.038-1.152,19.016Z" transform="translate(-28.649 -68.532)" fill="#6b8e6f"/>
    <path id="패스_13220" data-name="패스 13220" d="M217.284,250.043l-.437.056-29.945,3.76-2.993-19.168.786-.121,2.864,18.345,28.739-3.608-2.438-10.483-17.871,2.057-.1-.847,18.576-2.139Z" transform="translate(-55.178 -70.378)" fill="#6b8e6f"/>
    <path id="패스_13221" data-name="패스 13221" d="M225.572,248.608l-4.315-19.2-27.337,2.668.991,12.854,17.676-2.724.132.844-18.53,2.857-1.127-14.6,28.8-2.81,4.481,19.939Z" transform="translate(-57.925 -68.553)" fill="#6b8e6f"/>
    <path id="패스_13222" data-name="패스 13222" d="M244.135,241.477l-4.862-18.42.766-.213,4.863,18.42Z" transform="translate(-71.789 -66.86)" fill="#6b8e6f"/>
    <path id="패스_13223" data-name="패스 13223" d="M282.859,219.6c-.064-.279-.119-.56-.178-.84l-16.636,5.18.26.813Z" transform="translate(-79.822 -65.635)" fill="#6b8e6f"/>
    <path id="패스_13224" data-name="패스 13224" d="M280.382,230.7l-25.59,8.255-6.228-17.492-.75.266,6.508,18.276,26.308-8.488c-.082-.272-.164-.545-.248-.818" transform="translate(-74.352 -66.446)" fill="#6b8e6f"/>
    <path id="패스_13225" data-name="패스 13225" d="M260.746,228.256l-3.367-12.445,21.1-6.171c-.1-.266-.2-.533-.307-.8l-21.785,6.37,3.825,14.14,17.675-6.254-.288-.8Z" transform="translate(-76.925 -62.658)" fill="#6b8e6f"/>
    <path id="패스_13226" data-name="패스 13226" d="M3.211,216.092c-.043.293-.09.585-.139.877L12,221.13,8.6,231.338l-8.36-3.78q-.12.415-.241.829l8.619,3.9.358.16,3.938-11.83Z" transform="translate(0 -64.834)" fill="#6b8e6f"/>
    <path id="패스_13227" data-name="패스 13227" d="M1.14,223.7c-.078.277-.139.559-.207.839l5.395,2.237.322-.792Z" transform="translate(-0.28 -67.116)" fill="#6b8e6f"/>
    <path id="패스_13228" data-name="패스 13228" d="M6.155,205.286q-.081.435-.167.869l15.108,7.4-6.339,18.628.674.214,6.582-19.343Z" transform="translate(-1.797 -61.592)" fill="#6b8e6f"/>
    <path id="패스_13229" data-name="패스 13229" d="M26.02,238.077l5.535-18.214.685.183L26.7,238.259Z" transform="translate(-7.807 -65.966)" fill="#6b8e6f"/>
    <path id="패스_13230" data-name="패스 13230" d="M66.247,124.275c4.625-3.716,4.464-6.359,3.828-6-7.443-.6-14.951,5.068-17.912,11.9.307-.244,5.92-6.857,14.083-5.892" transform="translate(-15.651 -35.472)" fill="#434f4a"/>
    <path id="패스_13231" data-name="패스 13231" d="M56.529,98.494a12.209,12.209,0,0,1,16.518-4.919" transform="translate(-16.96 -27.64)" fill="none" stroke="#71a579" stroke-miterlimit="10" stroke-width="0.442"/>
    <path id="패스_13232" data-name="패스 13232" d="M40.554,168.549a20.707,20.707,0,0,1,11.328-21.976,9.617,9.617,0,0,1,4.6-1.06,4.762,4.762,0,0,1,3.931,2.319" transform="translate(-12.072 -43.654)" fill="none" stroke="#71a579" stroke-linecap="round" stroke-linejoin="round" stroke-width="0.442"/>
    <path id="패스_13233" data-name="패스 13233" d="M46.422,137.972c2.215-5.415,13.712-14.4,19.78-9.963" transform="translate(-13.928 -38.048)" fill="none" stroke="#71a579" stroke-linecap="round" stroke-linejoin="round" stroke-width="0.442"/>
    <path id="패스_13234" data-name="패스 13234" d="M48.812,117.017a29.22,29.22,0,0,1,5.288-7.245,12.693,12.693,0,0,1,8.02-3.655,8.192,8.192,0,0,1,7.52,4.043" transform="translate(-14.645 -31.837)" fill="none" stroke="#71a579" stroke-linecap="round" stroke-linejoin="round" stroke-width="0.442"/>
    <path id="패스_13235" data-name="패스 13235" d="M63.671,87.387a35.584,35.584,0,0,0,19.371-15.52" transform="translate(-19.103 -21.562)" fill="none" stroke="#71a579" stroke-linecap="round" stroke-linejoin="round" stroke-width="0.442"/>
    <path id="패스_13236" data-name="패스 13236" d="M87.28,86.312c-4.044-1.757,1.443-7.458,3.354-9.55-.041-.1-.427-.784-.468-.888-2.863,2.1-12.717,10.049-20.061,11.408a17.311,17.311,0,0,1-2.15.542s4.255,1.777,3.737,5.661c.727,3.4-2.775,6.845-2.775,6.845s1.886,7.757-5.229,11.365c-.074.216.173.309.353.411,6.158,2.579,4.927,11.191-1.5,12.786-2.122.574-1.443.693-.463,1.991,1.891,2.579,2.549,6.13-.413,8.558a4.91,4.91,0,0,1-3.6,1.079c-.794-.074-1.466-.285-1.648-.248-.206.028,0,.326.2.888,2.165,6.249-5.736,9-7.988,13.851-1.126,2.093-1.709,6.242,1.2,7.023a39.9,39.9,0,0,0,5.93.556c.5-.006.852-.158.617-.736-3.355-5.4,6.21-9.589,3.569-17.532-.2-.767-.367-1.655.522-1.957,4.745-1.095,7.6-6.16,5.257-10.649a1.882,1.882,0,0,1-.229-1.456c.674-1.051,2.2-1.533,3-2.556,3.043-3.036,2.813-7.329.27-10.542-.29-.633-.067-.987.443-1.471l.09-.093c1.6-1.471,2.353-4.275,3.228-6.256,4.14-7.124,10.97-13.1,17.3-18.18.061-.376-1.428-.37-2.532-.85" transform="translate(-14.312 -22.765)" fill="#71a579"/>
    <path id="패스_13237" data-name="패스 13237" d="M82.167,96.2c.076-.011.151-.032.227-.043l-.04.276c-.064-.076-.12-.16-.188-.233" transform="translate(-24.653 -28.849)" fill="#71a579"/>
    <path id="패스_13238" data-name="패스 13238" d="M192.246,133.155c-19.049,4.318-27.436,3.156-35.484,1.239-6.517-1.553-12.463-3.633-12.622-6.131-.226-3.561,1.353-6.98,3.018-10.136s4.009-6.227,4.226-9.789c.786-12.934-8.863-16.324-8.863-16.324s4.243,2.861,3.809,12.648c-.209,4.726-1.116,9.247-3.778,13.157-1.731,2.542-3.787,5.021-4.383,8.038a9.052,9.052,0,0,0,1.229,6.256c-12.475,8.985-8.125,19.984-8.125,19.984a19.183,19.183,0,0,1,.476-3.767c1.749-7.551,9.532-11.032,17.283-11.032,5.525,0,12.431,1.776,13.418,8.288.631,4.166,1.835,9.66.542,11.938a6.33,6.33,0,0,1-1.485,1.755c5.283.022,12.719.068,13.262,1.1a28.832,28.832,0,0,1-2.748-14.574,6.336,6.336,0,0,1,4.369-5.562c5.14-1.7,11.88-3.686,15.758-5.115,15.8-5.824,12.037,20.028,12.037,20.028l1.578-.79c.581-4.356,1.283-24.566-13.516-21.212" transform="translate(-39.166 -27.607)" fill="#6ea074"/>
    <path id="패스_13239" data-name="패스 13239" d="M209.262,185.494l4.37-.547a38.01,38.01,0,0,0-.816-8.969c-.331-1.3-1.136-4.574-2.564-5.089-2.285-.826-1.155,1.729-.843,2.686a18.821,18.821,0,0,1,.915,5.976c-.007.673-.279,5.845-1.061,5.943" transform="translate(-62.662 -51.223)" fill="#71a579"/>
    <path id="패스_13240" data-name="패스 13240" d="M228.22,181.866l3.321-2.5a53.515,53.515,0,0,0-2.144-8.747c-.522-1.238-1.806-4.353-3.295-4.651-2.382-.476-.884,1.882-.433,2.783a18.783,18.783,0,0,1,1.8,5.772c.094.666,1.514,7.126.755,7.34" transform="translate(-67.444 -49.778)" fill="#71a579"/>
    <path id="패스_13241" data-name="패스 13241" d="M90.085,158.477s-7.1-7.054-1.009-13.92a7.189,7.189,0,0,1,5.185-2.163c1.647-.053,5.591,1.431,5.591,1.431l.888-1.85s-1.85-.814-3.7-1.413c2.7-4.819,3.644-10.451,5.507-15.682a64.3,64.3,0,0,1,6.975-14.4s-5.292,3.654-9.382,15.443c-1.691,4.875-3.6,9.872-6.8,13.882-3.405.408-6.772,2.535-8.017,5.736-3.823,9.83,4.761,12.938,4.761,12.938" transform="translate(-25.305 -33.147)" fill="#6ea074"/>
    <path id="패스_13242" data-name="패스 13242" d="M107.328,161.488a6.306,6.306,0,0,1,7.33-9.331,7.336,7.336,0,0,1,3.782,3.05,7.573,7.573,0,0,1,1.139,5.388,6.078,6.078,0,0,1-3.246,4.357,5.089,5.089,0,0,1-5.311-.578,4.387,4.387,0,0,1-1.208-5.1,3.861,3.861,0,0,1,4.744-1.914,2.863,2.863,0,0,1,1.655,1.687,2.085,2.085,0,0,1-.581,2.22,1.648,1.648,0,0,1-2.2-.117" transform="translate(-31.924 -45.562)" fill="none" stroke="#6ea074" stroke-miterlimit="10" stroke-width="0.442"/>
    <path id="패스_13243" data-name="패스 13243" d="M102.118,163.666a6.337,6.337,0,1,0-5.311,8.077,4.317,4.317,0,0,0,2.926-1.5c1.287-1.667.578-4.252-1-5.65a4,4,0,0,0-2.865-1.123,2.393,2.393,0,0,0-2.222,1.9,1.724,1.724,0,0,0,1.889,1.921" transform="translate(-26.917 -47.745)" fill="none" stroke="#6ea074" stroke-miterlimit="10" stroke-width="0.442"/>
    <path id="패스_13244" data-name="패스 13244" d="M105.226,175.929c-1.121-.06-2.929,1.389-3.536,2.364a6.106,6.106,0,0,0-.783,3.355,5.369,5.369,0,0,0,1.63,4.061c1.356,1.116,3.261,1,4.943.7a12.862,12.862,0,0,0,5.719-2.192,6.262,6.262,0,0,0,2.556-5.513,5.542,5.542,0,0,0-4.04-4.516,6.516,6.516,0,0,0-5.808,1.531,5.313,5.313,0,0,0-1.76,2.721,3.38,3.38,0,0,0,.772,3.123,3.646,3.646,0,0,0,3.383.721,3.583,3.583,0,0,0,2.024-1.116,2.122,2.122,0,0,0,.315-2.272,1.341,1.341,0,0,0-2-.47" transform="translate(-30.275 -52.209)" fill="none" stroke="#6ea074" stroke-miterlimit="10" stroke-width="0.442"/>
    <path id="패스_13245" data-name="패스 13245" d="M147.8,172.215s6.709,2.171,6.216,13.023l-3.354.3s2.762-4.144-2.861-13.319" transform="translate(-44.344 -51.67)" fill="#71a579"/>
    <path id="패스_13246" data-name="패스 13246" d="M161.329,171.651s6.709,2.171,6.216,13.023l-3.354.3s2.762-4.144-2.861-13.319" transform="translate(-48.404 -51.501)" fill="#71a579"/>
    <path id="패스_13247" data-name="패스 13247" d="M230.105,73.358a7.187,7.187,0,0,0-2.3-1.586,2.445,2.445,0,0,0-2.607.477,3.025,3.025,0,0,0-.631,1.547,9.56,9.56,0,0,0,2.348,7.959c.559.607,1.382,1.177,2.151.879a2.08,2.08,0,0,0,1.049-1.732,8.144,8.144,0,0,0-.6-4.535,2.224,2.224,0,0,0-1.252-1.352,1.236,1.236,0,0,0-1.5.684c-.473,1.559,1.105,3.039,1.105,3.039" transform="translate(-67.338 -21.482)" fill="none" stroke="#6ea074" stroke-miterlimit="10" stroke-width="0.442"/>
    <path id="패스_13248" data-name="패스 13248" d="M224.845,64.766a13.492,13.492,0,0,0-1.506-2.817,4.535,4.535,0,0,0-2.579-1.782,2.763,2.763,0,0,0-2.838,1.024,3.32,3.32,0,0,0-.381,2.346,6.212,6.212,0,0,0,2.782,4.252,1.891,1.891,0,0,0,2.017.237,1.848,1.848,0,0,0,.556-1.737,5.46,5.46,0,0,0-1.308-3.018,1.423,1.423,0,0,0-1.109-.608,1.109,1.109,0,0,0-.874,1.165,3.23,3.23,0,0,0,.552,1.487" transform="translate(-65.252 -18.033)" fill="none" stroke="#6ea074" stroke-miterlimit="10" stroke-width="0.442"/>
    <path id="패스_13249" data-name="패스 13249" d="M237.765,92.465a6.02,6.02,0,0,0-2-1.477,2.274,2.274,0,0,0-2.4.367,2.208,2.208,0,0,0-.442,1.569,8.944,8.944,0,0,0,2.293,5.756,4.167,4.167,0,0,0,1.564,1.189,2.168,2.168,0,0,0,1.97-.136,2.114,2.114,0,0,0,.633-2.2,6.282,6.282,0,0,0-2.635-3.941c-.4-.277-.983-.513-1.38-.233a.958.958,0,0,0-.319.81,4.7,4.7,0,0,0,1.411,3.365" transform="translate(-69.882 -27.246)" fill="none" stroke="#6ea074" stroke-miterlimit="10" stroke-width="0.442"/>
    <path id="패스_13250" data-name="패스 13250" d="M217.11,106.27a5.62,5.62,0,0,0,9.011-.416,4.263,4.263,0,0,0,6.514-1.4c.605.7,1.755,1.394,2.36,2.1a7.247,7.247,0,0,1-8.925.7,6.267,6.267,0,0,1-9.752,1.187c.053.053-.636,1.171-4.114,1.319a6.229,6.229,0,0,1-5.278-2.812s5.525,3.848,10.183-.674" transform="translate(-62.084 -31.338)" fill="#6ea074"/>
    <path id="패스_13251" data-name="패스 13251" d="M126.557,93.75a2.644,2.644,0,0,0,1.576,1.736,18.764,18.764,0,0,0,2.32.722,8.972,8.972,0,0,1,4.723,3.529c.344.512.854,1.146,1.43.925a1.2,1.2,0,0,0,.593-.988,7.768,7.768,0,0,0-3.494-7.513c-1.788-.957-7.907-2.139-7.149,1.59" transform="translate(-37.952 -27.361)" fill="#c5f9c9"/>
    <path id="패스_13252" data-name="패스 13252" d="M176.425,36.171a2.348,2.348,0,0,0,2.521.845c2.889-.669,8.522-5.624,4.038-7.791-3.369-1.628-8.447,3.9-6.559,6.946" transform="translate(-52.81 -8.68)" fill="#c5f9c9"/>
    <path id="패스_13253" data-name="패스 13253" d="M175,61.119A20.871,20.871,0,0,1,187.576,76.8c.671,4.091.089,8.267-.174,12.4s-.162,8.47,1.728,12.16,6.081,7.72,10.141,6.886" transform="translate(-52.506 -18.338)" fill="none" stroke="#6ea074" stroke-miterlimit="10" stroke-width="0.221"/>
    <path id="패스_13254" data-name="패스 13254" d="M183.777,53.045a27.935,27.935,0,0,1,11.048,21.444c.131,6.038-1.72,12.131-.529,18.053a18.345,18.345,0,0,0,14.1,14.032" transform="translate(-55.139 -15.915)" fill="none" stroke="#6ea074" stroke-miterlimit="10" stroke-width="0.221"/>
    <path id="패스_13255" data-name="패스 13255" d="M102,76.7l-.407-.777a101.963,101.963,0,0,1-16.02,10.1c1.676.774,14.17.7,14.17.7s-3.171-.342-2.109-3.774C97.952,81.917,102,76.7,102,76.7" transform="translate(-25.673 -22.781)" fill="#434f4a"/>
  </g>
</svg>
