<svg id="img_재료_향조각" xmlns="http://www.w3.org/2000/svg" xmlns:xlink="http://www.w3.org/1999/xlink" width="267.768" height="143.766" viewBox="0 0 267.768 143.766">
  <defs>
    <clipPath id="clip-path">
      <rect id="사각형_3852" data-name="사각형 3852" width="267.768" height="143.766" fill="none"/>
    </clipPath>
  </defs>
  <g id="그룹_4536" data-name="그룹 4536" clip-path="url(#clip-path)">
    <path id="패스_13167" data-name="패스 13167" d="M219.475,8.53s-7.131,5.259-11.076,5.516c0,0-28.162,12.638-45.405,13.53,0,0-74.917,37.607-106.133,59.459L32.029,94.17s-40.87,14.2-26.6,32.966c0,0,16.306,10.126,21.405,15.2,5.554,5.522,41.409-.132,41.027,0,0,0,36.2-16.662,55.817-17.257l3.4-.664,3.432-.4S195.544,79.7,200.973,81.2c0,0,29.2-22.854,33.891-21.108l4.967-4.32L253,44.039S263.107,41.1,267.046,35.6c0,0,.151-3.716.1-6.912,0,0-36.666-18.357-36.071-21.033" transform="translate(-0.689 -2.195)" fill="#e5af5a"/>
    <path id="패스_13168" data-name="패스 13168" d="M24.981,177.246s-13.21-9.9-21.405-15.2c-8.63-5.579-2.341-25.719,26.6-32.965L34.123,146.7s-16.946,16.946-9.142,30.547" transform="translate(0 -36.998)" fill="#af8438"/>
    <path id="패스_13169" data-name="패스 13169" d="M49.167,144.153,42.3,129.084A175.264,175.264,0,0,1,46.245,146.7" transform="translate(-12.123 -36.998)" fill="#e5af5a"/>
    <path id="패스_13170" data-name="패스 13170" d="M34.08,174.862c-.812-4.783-.931-15.942,12.175-25.859,12.984-9.824,74.472-18.134,74.472-18.134s-63.621,5.351-74,13.285l1.649-13.285-8.518-1.784" transform="translate(-9.681 -36.998)" fill="#e5af5a"/>
    <path id="패스_13171" data-name="패스 13171" d="M43.347,153.776c-13.57,12.178-11.591,24.1-10.1,28.569a8.494,8.494,0,0,0,.957,1.978l1.206.645" transform="translate(-9.226 -44.075)" fill="#e5af5a"/>
    <path id="패스_13172" data-name="패스 13172" d="M35.474,149.923s5.649,7.916,41.027,0c.028.235,39.058-15.5,63.323-18.432,0,0,66.891-44.073,70.459-42.81,0,0,30.546-22.287,33.891-21.108,0,0,13.3-10.554,18.134-16.054l9.068-13.526-9.365-4.237s-48.384,47.939-61.762,48.83c0,0-70.459,20.513-78.708,20.959,0,0-54.835,8.781-58.634,11.525,0,0-32.783,6.535-27.432,34.852" transform="translate(-9.998 -9.675)" fill="#9e662a"/>
    <path id="패스_13173" data-name="패스 13173" d="M42.3,122.554a298.315,298.315,0,0,1,78.2-16.253S50.817,122,50.817,124.337Z" transform="translate(-12.124 -30.468)" fill="#6d401b"/>
    <path id="패스_13174" data-name="패스 13174" d="M193.031,81.492l44.815-40.88,42.075-18.524,20.943,3.79,1.485,2.528s-15.725,13.4-32.793,26.363C251.9,68.181,230.821,80.852,219.938,82.35Z" transform="translate(-55.326 -6.331)" fill="#af8438"/>
    <path id="패스_13175" data-name="패스 13175" d="M154,76.493s37.2-39.347,72.656-40.777c0,0,35.626-16.054,41.422-22.3l-5.8-5.371,12.06-1.1s30.135,17.711,37.567,21.427L310.5,35.4s-2.688,5.054-14.047,8.436l9.068-13.527-9.365-4.236-9.81-3.344S259.586,45.025,241.3,37.89c0,0,32.553-12.932,36.567-14.27L270.288,19.7s-34.56,16.626-42.587,18.41L181.845,76.6Z" transform="translate(-44.14 -1.992)" fill="#6d401b"/>
    <path id="패스_13176" data-name="패스 13176" d="M77.836,86.995S168.51,25.6,183.969,27.537c0,0,49.164-13.063,56.481-19.047l5.8,5.371s-10.817,12.378-42.4,22.913c0,0-29.689-.718-72.647,41.1,0,0-48.9,6.945-53.364,9.118" transform="translate(-22.309 -2.433)" fill="#9e662a"/>
    <path id="패스_13177" data-name="패스 13177" d="M98.321,86.592S180.1,29.234,240.036,17.98l-5.825,3.748s-49.945,7.506-127.177,63.412c-1.115.808-8.713,1.451-8.713,1.451" transform="translate(-28.181 -5.153)" fill="#6d401b"/>
    <path id="패스_13178" data-name="패스 13178" d="M128.708,89.438s26.958-23.758,84.038-48.285l-4.013,3.121s-14.117,1.183-77.624,43.916a13.524,13.524,0,0,1-2.4,1.248" transform="translate(-36.89 -11.795)" fill="#8e5725"/>
    <path id="패스_13179" data-name="패스 13179" d="M167.47,144.091S125.841,162.018,63.3,177.979l6.577-4.236s14.266,1.012,94.625-28.9a16.307,16.307,0,0,1,2.964-.755" transform="translate(-18.144 -41.299)" fill="#8e5725"/>
    <path id="패스_13180" data-name="패스 13180" d="M181.178,92.244l50.154-39.737,1.431-1.561s-39.683,30.343-52.11,40.235" transform="translate(-51.778 -14.602)" fill="#8e5725"/>
    <path id="패스_13181" data-name="패스 13181" d="M53.061,123.8c7.172-9.556,68.4-19.326,68.4-19.326s57.264-.494,64.753,1.86l-62.6,13.074S56.351,129.538,50.132,135.8c0,0,.921-9.32,2.929-12" transform="translate(-14.369 -29.933)" fill="#9e662a"/>
    <path id="패스_13182" data-name="패스 13182" d="M128.64,137.3c-21.441-.3-68.487,13.922-68.487,13.922l-8.227,7.241s50.479-21.167,76.813-19.7" transform="translate(-14.883 -39.351)" fill="#8e5725"/>
    <path id="패스_13183" data-name="패스 13183" d="M251.925,79.5c20.253-7.044,64.868-46.154,64.868-46.154V32.31s-36.048,33.864-64.309,46.684" transform="translate(-72.206 -9.261)" fill="#9e662a"/>
    <path id="패스_13184" data-name="패스 13184" d="M225.751,88.012c28.261-12.821,69.213-42.336,69.213-42.336l2.8-1.189s-49.249,36.639-69.5,43.683" transform="translate(-64.704 -12.751)" fill="#9e662a"/>
    <path id="패스_13185" data-name="패스 13185" d="M85.082,118.043s34.6-9.678,96.672-6.955l-4.972,1.067s-13.228-5.071-89,5.808a13.53,13.53,0,0,1-2.7.081" transform="translate(-24.386 -31.701)" fill="#8e5725"/>
    <path id="패스_13186" data-name="패스 13186" d="M164.561,136.635l84.974-32.73-.3,1.137L164.231,137.9" transform="translate(-47.072 -29.781)" fill="#6d401b"/>
    <path id="패스_13187" data-name="패스 13187" d="M44.185,163.579c11.329-7.8,80.083-21.888,80.083-21.888l-2.155,1.783c-17.514,8.548-80.163,21.073-83.5,29.58" transform="translate(-11.067 -40.611)" fill="#6d401b"/>
    <path id="패스_13188" data-name="패스 13188" d="M283.688,91.136l44.56-31.78-.03.742L283.391,92.273" transform="translate(-81.225 -17.013)" fill="#6d401b"/>
    <path id="패스_13189" data-name="패스 13189" d="M161.131,88.588c34.68-29.846,64.605-39.439,64.605-39.439l-.972,1.338a177.806,177.806,0,0,0-58.021,38.1" transform="translate(-46.183 -14.087)" fill="#995d30"/>
  </g>
</svg>
