<svg id="향전03" xmlns="http://www.w3.org/2000/svg" xmlns:xlink="http://www.w3.org/1999/xlink" width="168.858" height="88.401" viewBox="0 0 168.858 88.401">
  <defs>
    <clipPath id="clip-path">
      <rect id="사각형_3758" data-name="사각형 3758" width="168.858" height="88.401" fill="none"/>
    </clipPath>
    <clipPath id="clip-path-3">
      <rect id="사각형_3754" data-name="사각형 3754" width="167.624" height="65.62" fill="none"/>
    </clipPath>
    <clipPath id="clip-path-4">
      <path id="패스_12598" data-name="패스 12598" d="M83.612,1.271c-14.639,2.555-18.9,9.9-18.9,9.9C60.1,7.4,29.412.7,9.071,11.873S19.82,31.892,19.82,31.892C5.673,35.951,1.139,44.3,9.86,50.241S39.383,58.9,55.551,56.216c6.14,6.453,25.365,10.561,42.657,9.113s30.474-8.268,29.249-15.132c19.96,1.174,40.685-5.239,42.242-13.069s-16.389-15.406-36.575-15.44c7.1-5.214,5.155-12.081-4.695-16.568C121.12,1.79,110.14,0,99.129,0A91.315,91.315,0,0,0,83.612,1.271" transform="translate(-2.168 0)" fill="none"/>
    </clipPath>
    <radialGradient id="radial-gradient" cx="0.533" cy="0.491" r="1.259" gradientTransform="matrix(0.366, 0, 0, -0.389, 0.044, 1.839)" gradientUnits="objectBoundingBox">
      <stop offset="0" stop-color="#a4824b"/>
      <stop offset="1" stop-color="#8c7064"/>
    </radialGradient>
  </defs>
  <g id="그룹_4316" data-name="그룹 4316" clip-path="url(#clip-path)">
    <g id="그룹_4311" data-name="그룹 4311">
      <g id="그룹_4310" data-name="그룹 4310" clip-path="url(#clip-path)">
        <g id="그룹_4309" data-name="그룹 4309" transform="translate(0 22.782)" opacity="0.2">
          <g id="그룹_4308" data-name="그룹 4308">
            <g id="그룹_4307" data-name="그룹 4307" clip-path="url(#clip-path-3)">
              <path id="패스_12596" data-name="패스 12596" d="M17.651,91.872C3.5,95.931-1.029,104.284,7.692,110.221s29.523,8.657,45.691,5.975c6.14,6.453,25.365,10.561,42.657,9.113s30.474-8.268,29.249-15.133c19.96,1.174,40.685-5.239,42.242-13.069S151.141,81.7,130.955,81.668c7.1-5.214,5.155-12.081-4.695-16.568-10.827-4.932-29.7-6.486-44.817-3.848-14.64,2.555-18.9,9.9-18.9,9.9-4.606-3.772-35.3-10.474-55.637.7S17.651,91.872,17.651,91.872" transform="translate(0 -59.98)"/>
            </g>
          </g>
        </g>
        <path id="패스_12597" data-name="패스 12597" d="M170.044,45.225s-22.189-8.074-35.949-8.1c7.1-5.214,5.155-12.081-4.695-16.568-10.827-4.932-29.7-6.485-44.817-3.848-14.64,2.555-18.9,9.9-18.9,9.9s-30.3-5.036-50.932,3.114l-11.784.483.162,10.116h.028c.432,7.811,17.638,14.081,17.638,14.081-5.814,1.668-14.381-.248-14.381-.248V69.937c-.166,2.48,1.244,4.965,4.423,7.128C19.554,83,40.355,85.722,56.523,83.04c6.14,6.453,25.366,10.561,42.657,9.113s30.474-8.268,29.248-15.132c19.96,1.174,40.685-5.239,42.242-13.069.181-.91-.626-18.726-.626-18.726" transform="translate(-1.838 -9.575)" fill="#665040"/>
      </g>
    </g>
    <g id="그룹_4313" data-name="그룹 4313" transform="translate(0.823 0)">
      <g id="그룹_4312" data-name="그룹 4312" clip-path="url(#clip-path-4)">
        <rect id="사각형_3756" data-name="사각형 3756" width="182.524" height="66.777" transform="translate(-13.438 0)" fill="url(#radial-gradient)"/>
      </g>
    </g>
    <g id="그룹_4315" data-name="그룹 4315">
      <g id="그룹_4314" data-name="그룹 4314" clip-path="url(#clip-path)">
        <path id="패스_12599" data-name="패스 12599" d="M114.14,76.312c-1,2.126-.289,4.586,2.367,6.166a7.984,7.984,0,0,0,4.807,1.079,5.986,5.986,0,0,0,4.706-3.51c1.3-2.366,7.337-11.617,4.82-12.343s-16.7,5.771-16.7,8.608" transform="translate(-70.52 -41.954)" fill="#60493a"/>
        <path id="패스_12600" data-name="패스 12600" d="M169.805,85.687a6.9,6.9,0,0,0,2.935,5.424c2.749,1.865,7.381,2.352,11.622,2.375a74.307,74.307,0,0,0,21.588-3.006c1.9-.575,3.83-1.286,4.791-2.4,1.3-1.506.442-3.395-1.354-4.721A26.229,26.229,0,0,0,202.5,80.3a17.271,17.271,0,0,0-5.7-1.2c-2.048.014-4.224.938-4.076,2.118.136,1.094,2.12,1.945,1.973,3.039-.153,1.138-2.406,1.706-4.3,2.032-3.983.685-8.742,1.288-11.93-.251-2.065-1-5.582-11.374-7.233-10.966s-1.625,8.831-1.432,10.616" transform="translate(-105.253 -46.55)" fill="#60493a"/>
        <path id="패스_12601" data-name="패스 12601" d="M266.946,67.044c-1.764-.118-4.04,0-4.61.967-.3.516.039,1.077.4,1.579a32.181,32.181,0,0,0,11.349,9.182c2.1,1.084,4.975,2.105,7.57,1.474,2.62-.638,3.336-2.548,3.7-4.177.514-2.3.946-4.913-2.577-6.372-4.115-1.7-10.933-2.325-15.837-2.653" transform="translate(-162.622 -41.556)" fill="#60493a"/>
        <path id="패스_12602" data-name="패스 12602" d="M194.333,35.532c-2.456-.155-5.368.3-6.3,1.623-.766,1.093.109,2.32,1.018,3.375q1.986,2.306,4.268,4.521a7.4,7.4,0,0,0,4.221,2.329,9.282,9.282,0,0,0,5.639-1.25c2.5-1.4,4.152-3.4,3.821-5.406-.618-3.741-7.226-4.847-12.671-5.192" transform="translate(-116.435 -22.018)" fill="#60493a"/>
        <path id="패스_12603" data-name="패스 12603" d="M114.795,70.638c-1,2.126-.289,4.586,2.367,6.166a7.987,7.987,0,0,0,4.807,1.079,5.986,5.986,0,0,0,4.706-3.51c1.3-2.366,7.337-11.617,4.82-12.343s-16.7,5.771-16.7,8.608" transform="translate(-70.926 -38.435)" fill="#755e4e"/>
        <path id="패스_12604" data-name="패스 12604" d="M170.46,80.013a6.9,6.9,0,0,0,2.935,5.424c2.749,1.865,7.381,2.352,11.622,2.375a74.307,74.307,0,0,0,21.588-3.006c1.9-.575,3.83-1.286,4.791-2.4,1.3-1.506.442-3.395-1.354-4.721a26.229,26.229,0,0,0-6.886-3.062,17.271,17.271,0,0,0-5.7-1.2c-2.048.014-4.224.938-4.076,2.118.136,1.094,2.12,1.945,1.974,3.039-.153,1.138-2.407,1.706-4.3,2.032-3.983.685-8.742,1.288-11.93-.251-2.065-1-5.582-11.374-7.233-10.966s-1.625,8.831-1.432,10.616" transform="translate(-105.659 -43.031)" fill="#755e4e"/>
        <path id="패스_12605" data-name="패스 12605" d="M267.6,61.37c-1.764-.118-4.04,0-4.61.967-.3.516.039,1.077.4,1.579A32.181,32.181,0,0,0,274.745,73.1c2.1,1.084,4.975,2.105,7.57,1.474,2.62-.638,3.336-2.548,3.7-4.177.514-2.3.946-4.913-2.577-6.372-4.115-1.7-10.933-2.325-15.837-2.653" transform="translate(-163.028 -38.037)" fill="#755e4e"/>
        <path id="패스_12606" data-name="패스 12606" d="M194.988,29.858c-2.456-.155-5.368.3-6.3,1.623-.766,1.093.109,2.32,1.018,3.375q1.986,2.306,4.268,4.521a7.4,7.4,0,0,0,4.221,2.329,9.282,9.282,0,0,0,5.639-1.25c2.5-1.4,4.152-3.4,3.821-5.406-.618-3.741-7.226-4.847-12.671-5.192" transform="translate(-116.841 -18.499)" fill="#755e4e"/>
      </g>
    </g>
  </g>
</svg>
