<svg id="향전01" xmlns="http://www.w3.org/2000/svg" xmlns:xlink="http://www.w3.org/1999/xlink" width="171.538" height="93.73" viewBox="0 0 171.538 93.73">
  <defs>
    <clipPath id="clip-path">
      <rect id="사각형_3748" data-name="사각형 3748" width="171.538" height="93.73" fill="none"/>
    </clipPath>
    <clipPath id="clip-path-3">
      <rect id="사각형_3746" data-name="사각형 3746" width="171.026" height="69.571" fill="none"/>
    </clipPath>
  </defs>
  <g id="그룹_4295" data-name="그룹 4295" clip-path="url(#clip-path)">
    <g id="그룹_4294" data-name="그룹 4294">
      <g id="그룹_4293" data-name="그룹 4293" clip-path="url(#clip-path)">
        <g id="그룹_4292" data-name="그룹 4292" transform="translate(0.512 24.159)" opacity="0.2">
          <g id="그룹_4291" data-name="그룹 4291">
            <g id="그룹_4290" data-name="그룹 4290" clip-path="url(#clip-path-3)">
              <path id="패스_12577" data-name="패스 12577" d="M165.493,98.933c3.836-2.422,6.046-5.257,6.046-8.288,0-8.907-19.049-16.128-42.548-16.128q-1.142,0-2.269.023c-5.7-6.357-21.577-10.933-40.279-10.933S51.869,68.183,46.164,74.54q-1.128-.022-2.269-.023c-23.5,0-42.548,7.22-42.548,16.128,0,3.243,2.535,6.26,6.88,8.789-3.836,2.422-6.046,5.257-6.046,8.288,0,8.907,19.049,16.128,42.548,16.128q2.374,0,4.681-.1c6.713,5.562,21.511,9.428,38.7,9.428,17.136,0,31.9-3.842,38.638-9.375,1.017.027,2.04.046,3.076.046,23.5,0,42.548-7.22,42.548-16.128,0-3.243-2.535-6.26-6.88-8.789" transform="translate(-1.347 -63.607)"/>
            </g>
          </g>
        </g>
        <path id="패스_12578" data-name="패스 12578" d="M164.861,56.695c3.824-2.422,6.026-5.257,6.026-8.288,0-.249-.049-8.521-.049-8.521l-6.331.015c-7.484-4.575-20.818-7.622-36.029-7.622q-1.138,0-2.261.023c-5.687-6.357-21.507-10.933-40.148-10.933S51.606,25.945,45.92,32.3q-1.124-.022-2.261-.023c-15.626,0-29.269,3.216-36.626,8l-5.76.014s-.013,8.441,0,8.6v.124H1.28c.289,2.916,2.625,5.631,6.46,7.952-3.85-.03-6-.057-5.937-.081L2.275,76.2C4.3,84.393,22.424,90.8,44.49,90.8q2.367,0,4.667-.1c6.691,5.562,21.441,9.428,38.575,9.428,17.08,0,31.792-3.842,38.513-9.376,1.014.028,2.034.047,3.066.047,23.422,0,42.41-7.221,42.41-16.128,0-1.209.092-16.728.092-16.728s-6.464-.968-6.95-1.252" transform="translate(-0.785 -13.253)" fill="#3d332d"/>
        <path id="패스_12579" data-name="패스 12579" d="M164.146,35.326c3.836-2.422,6.046-5.257,6.046-8.288,0-8.907-19.049-16.128-42.548-16.128q-1.142,0-2.269.023C119.67,4.576,103.8,0,85.1,0S50.522,4.576,44.817,10.933q-1.128-.022-2.269-.023C19.05,10.91,0,18.131,0,27.038c0,3.243,2.535,6.26,6.88,8.789C3.044,38.249.834,41.083.834,44.114c0,8.907,19.049,16.128,42.548,16.128q2.374,0,4.681-.1c6.713,5.562,21.511,9.428,38.7,9.428,17.136,0,31.9-3.842,38.638-9.375,1.017.027,2.04.046,3.076.046,23.5,0,42.548-7.22,42.548-16.128,0-3.243-2.535-6.26-6.88-8.789" fill="#68554d"/>
        <path id="패스_12580" data-name="패스 12580" d="M182.116,44.578c2.9-1.832,4.571-3.975,4.571-6.266,0-6.735-14.4-12.195-32.171-12.195q-.863,0-1.715.017c-4.314-4.807-16.315-8.267-30.456-8.267S96.2,21.328,91.889,26.135q-.852-.017-1.715-.017C72.406,26.117,58,31.577,58,38.312c0,2.452,1.917,4.733,5.2,6.645-2.9,1.832-4.572,3.975-4.572,6.267,0,6.735,14.4,12.194,32.171,12.194q1.8,0,3.54-.075c5.075,4.205,16.264,7.129,29.262,7.129,12.957,0,24.117-2.9,29.215-7.089.769.021,1.543.035,2.326.035,17.768,0,32.171-5.46,32.171-12.194,0-2.452-1.916-4.733-5.2-6.645" transform="translate(-35.971 -11.081)" fill="#5b4943"/>
        <path id="패스_12581" data-name="패스 12581" d="M184.587,55.023a33.028,33.028,0,0,1-21.352-15.112c1.377-1.771-.334-4.665-2.619-4.382a3,3,0,0,0-3.02-.117,2.548,2.548,0,0,0-1.282,1.929,42.5,42.5,0,0,1-8.27,2.034A131.772,131.772,0,0,1,134.8,40.7a155.583,155.583,0,0,1-27.266-.893c-2.822-.342-5.632-.784-8.429-1.3a2.649,2.649,0,0,0-.61-.941,2.789,2.789,0,0,0-3.909,0l-.031.034c-.707-.151-1.416-.3-2.121-.456a2.824,2.824,0,0,0-3.4,1.93,2.864,2.864,0,0,0,1.168,3.059A69.139,69.139,0,0,1,65.64,57.268c1.3,1.137,2.573,2.3,3.832,3.488,1.481-.3,2.963-.6,4.439-.927a76.159,76.159,0,0,0,16.8-10.7,70.438,70.438,0,0,0,5.827-5.5,158.236,158.236,0,0,0,51.582,1.287,48.38,48.38,0,0,0,10.193-2.439,38.119,38.119,0,0,0,18.3,15.805,45.281,45.281,0,0,1,7.974-3.256" transform="translate(-40.708 -21.743)" fill="#3d332d"/>
        <path id="패스_12582" data-name="패스 12582" d="M220.271,73.23c-6.813.366-13.661.5-20.5.4l-.437-.009c-.174-2.426-.343-3.159-.583-5.583-.063-.638-.918-1.182-2.095-1.182-1.085,0-2.158.542-2.095,1.182.236,2.388.4,3.084.575,5.473-5.283-.185-10.528-.524-15.8-.85-1.126-.07-2.095.593-2.095,1.182,0,.7.966,1.113,2.095,1.182,5.333.33,10.635.673,15.977.856q.123,1.6.274,3.208c-2.014.043-4.028.09-6.043.124a2.613,2.613,0,0,0-1.612.475c-.662.2-1.164.57-1.109,1.021a21.521,21.521,0,0,0,1.606,5.924c.258.6,1.523,1.018,2.577.826a2.754,2.754,0,0,0,1.03-.385l17.688-.235c1.843-.025,2.427-1.14,1.747-1.83a9.311,9.311,0,0,0,.352-5.1c-.134-.606-.852-1.222-2.095-1.182q-4.978.157-9.959.278-.141-1.506-.259-3.014l.262.005c6.841.1,13.689-.036,20.5-.4,1.126-.061,2.095-.5,2.095-1.182,0-.593-.962-1.244-2.095-1.183M207.386,84.507l-15.428.205c-.171-.477-.326-.956-.458-1.438-.03-.108-.059-.216-.087-.324-.008-.032-.046-.193-.06-.245-.043-.193-.085-.386-.123-.578s-.059-.386-.09-.579q8.342-.149,16.676-.4a8.064,8.064,0,0,1-.431,3.361" transform="translate(-109.919 -41.463)" fill="#3d332d"/>
        <path id="패스_12583" data-name="패스 12583" d="M219.663,66.42c-6.813.366-13.661.5-20.5.4l-.437-.009c-.174-2.426-.343-3.159-.583-5.583-.063-.638-.918-1.182-2.095-1.182-1.085,0-2.158.542-2.095,1.182.236,2.388.4,3.084.575,5.473-5.283-.185-10.528-.524-15.8-.85-1.126-.07-2.095.593-2.095,1.182,0,.7.966,1.113,2.095,1.182,5.333.33,10.635.673,15.977.856q.123,1.6.274,3.208c-2.014.043-4.028.09-6.043.124a2.613,2.613,0,0,0-1.612.475c-.662.2-1.164.57-1.109,1.021a21.521,21.521,0,0,0,1.606,5.924c.258.6,1.523,1.018,2.577.826a2.754,2.754,0,0,0,1.03-.385l17.688-.235c1.843-.025,2.427-1.14,1.747-1.83a9.311,9.311,0,0,0,.352-5.1c-.134-.606-.852-1.222-2.095-1.182q-4.978.157-9.959.278-.141-1.506-.259-3.014l.262.005c6.841.1,13.689-.036,20.5-.4,1.126-.061,2.095-.5,2.095-1.182,0-.593-.962-1.244-2.095-1.183M206.778,77.7,191.35,77.9c-.171-.477-.326-.956-.458-1.438-.03-.108-.059-.216-.087-.324-.008-.032-.046-.193-.06-.245-.043-.193-.085-.386-.123-.578s-.059-.386-.09-.579q8.341-.149,16.676-.4a8.064,8.064,0,0,1-.431,3.361" transform="translate(-109.542 -37.24)" fill="#846c63"/>
        <path id="패스_12584" data-name="패스 12584" d="M168.878,42.991A32.7,32.7,0,0,1,141.5,27.244c1.377-1.771-.334-4.665-2.619-4.382a3,3,0,0,0-3.02-.117,2.548,2.548,0,0,0-1.282,1.929,42.552,42.552,0,0,1-8.27,2.034,131.771,131.771,0,0,1-13.241,1.323A155.546,155.546,0,0,1,85.8,27.138c-2.822-.342-5.632-.785-8.429-1.3a2.649,2.649,0,0,0-.61-.941,2.79,2.79,0,0,0-3.909,0l-.031.034c-.707-.151-1.416-.3-2.121-.457a2.825,2.825,0,0,0-3.4,1.931,2.864,2.864,0,0,0,1.169,3.059A69.075,69.075,0,0,1,42.833,44.994c-.741.248-1.488.479-2.236.7-1.415-.062-2.833-.086-4.25-.024a2.9,2.9,0,0,0-2.535,1.678c-.4.078-.8.164-1.2.235a2.788,2.788,0,0,0-1.931,3.4,2.826,2.826,0,0,0,3.4,1.93,71.372,71.372,0,0,0,7.183-1.659A47.6,47.6,0,0,1,70.308,63.7a45.586,45.586,0,0,1,5.654,6.285,4.243,4.243,0,0,0-1.243,3.157c.088,3.4,5.139,3.548,5.5.433.3-.13.643-.387.922-.525.927-.455,1.867-.888,2.819-1.289,1.622-.684,3.285-1.281,4.961-1.818a63.643,63.643,0,0,1,32.966-1.674,61.47,61.47,0,0,1,12.02,3.857,2.83,2.83,0,0,0,4.06-1.652c5.169-12.85,19.205-18.761,31.65-22.056,3.022-.8,2.387-5.416-.735-5.429M133.925,66.2a69.629,69.629,0,0,0-47.4-1.286c-1.963.662-3.887,1.438-5.784,2.274A53.142,53.142,0,0,0,51.7,47.387,76.145,76.145,0,0,0,68.973,36.459a70.505,70.505,0,0,0,5.827-5.5,158.236,158.236,0,0,0,51.582,1.287,48.355,48.355,0,0,0,10.193-2.438,38.28,38.28,0,0,0,20.809,16.756,54.044,54.044,0,0,0-11.024,5.777A38.344,38.344,0,0,0,133.925,66.2" transform="translate(-18.972 -13.888)" fill="#68554d"/>
        <path id="패스_12585" data-name="패스 12585" d="M25.162,52.511a.683.683,0,0,1-.334-.087,7.561,7.561,0,0,1-3.48-7.731A11.263,11.263,0,0,1,26,37.57a24.26,24.26,0,0,1,7.644-3.443A120.6,120.6,0,0,1,49.785,31.01a.691.691,0,1,1,.2,1.367,119.561,119.561,0,0,0-15.959,3.077,23.01,23.01,0,0,0-7.21,3.229,9.885,9.885,0,0,0-4.1,6.218A6.246,6.246,0,0,0,25.5,51.215a.691.691,0,0,1-.336,1.3" transform="translate(-13.182 -19.227)" fill="#4c3c37"/>
        <path id="패스_12586" data-name="패스 12586" d="M64.342,132.949c-9.377,0-21.032-1.893-29.837-9.547a.691.691,0,1,1,.907-1.043c9.766,8.488,23.268,9.633,32.877,9.1a169.34,169.34,0,0,0,20.933-2.942c4.615-.846,9.387-1.722,14.124-2.317,14.6-1.833,26.057-.3,35.031,4.7a.691.691,0,0,1-.673,1.207c-8.707-4.848-19.891-6.332-34.185-4.537-4.7.59-9.452,1.462-14.048,2.3a170.489,170.489,0,0,1-21.105,2.963c-1.278.071-2.626.113-4.023.113" transform="translate(-21.252 -75.78)" fill="#4c3c37"/>
        <path id="패스_12587" data-name="패스 12587" d="M191.326,164.407a67.98,67.98,0,0,1-23.273-4.062.691.691,0,0,1,.475-1.3,67.358,67.358,0,0,0,47.142-.568.691.691,0,1,1,.506,1.286,68.159,68.159,0,0,1-24.85,4.642" transform="translate(-103.941 -98.255)" fill="#4c3c37"/>
        <path id="패스_12588" data-name="패스 12588" d="M340.443,125.818a.691.691,0,0,1-.033-1.381c6.3-.315,12.815-.64,18.978-2.344,4.775-1.321,11.368-4.106,15.669-9.867a.691.691,0,1,1,1.107.827c-4.534,6.075-11.425,8.994-16.407,10.372-6.31,1.745-12.9,2.074-19.278,2.393h-.035" transform="translate(-210.707 -69.427)" fill="#4c3c37"/>
        <path id="패스_12589" data-name="패스 12589" d="M404.838,56.538a.691.691,0,0,1-.4-1.252,4.662,4.662,0,0,0,1.817-3.142,6.771,6.771,0,0,0-1.19-4.919c-2.051-2.767-5.648-3.807-8.3-4.194a.691.691,0,1,1,.2-1.367c2.916.424,6.881,1.59,9.216,4.738a8.1,8.1,0,0,1,1.446,5.956,6.051,6.051,0,0,1-2.376,4.05.687.687,0,0,1-.4.13" transform="translate(-245.691 -25.835)" fill="#4c3c37"/>
        <path id="패스_12590" data-name="패스 12590" d="M143.1,13.932a.691.691,0,0,1-.368-1.276,37.206,37.206,0,0,1,16.332-5.518.684.684,0,0,1,.751.626.691.691,0,0,1-.625.751,35.822,35.822,0,0,0-15.724,5.313.688.688,0,0,1-.366.106" transform="translate(-88.316 -4.425)" fill="#4c3c37"/>
        <path id="패스_12591" data-name="패스 12591" d="M65.732,91.521a.678.678,0,0,1-.292-.065A33.054,33.054,0,0,0,47.1,88.675a.691.691,0,1,1-.189-1.369,34.452,34.452,0,0,1,19.117,2.9.691.691,0,0,1-.295,1.317" transform="translate(-28.723 -53.951)" fill="#4c3c37"/>
      </g>
    </g>
  </g>
</svg>
