<svg id="향전02" xmlns="http://www.w3.org/2000/svg" xmlns:xlink="http://www.w3.org/1999/xlink" width="163.855" height="100.784" viewBox="0 0 163.855 100.784">
  <defs>
    <clipPath id="clip-path">
      <rect id="사각형_3761" data-name="사각형 3761" width="163.855" height="100.784" fill="none"/>
    </clipPath>
    <clipPath id="clip-path-3">
      <rect id="사각형_3759" data-name="사각형 3759" width="163.777" height="73.579" fill="none"/>
    </clipPath>
  </defs>
  <g id="그룹_4323" data-name="그룹 4323" clip-path="url(#clip-path)">
    <g id="그룹_4322" data-name="그룹 4322">
      <g id="그룹_4321" data-name="그룹 4321" clip-path="url(#clip-path)">
        <g id="그룹_4320" data-name="그룹 4320" transform="translate(0.028 27.205)" opacity="0.2">
          <g id="그룹_4319" data-name="그룹 4319">
            <g id="그룹_4318" data-name="그룹 4318" clip-path="url(#clip-path-3)">
              <path id="패스_12607" data-name="패스 12607" d="M150.3,105.083h0c9.349-6.392,9.909-14.13.354-18.665-9.033-4.287-24.376-4.413-37.761-.834-3.5-8.377-17.42-14.439-33.061-13.929-12.324.4-22.37,4.774-26.55,10.778-11.732-1.812-24.772-.885-34.321,3.007-12.4,5.052-14.954,13.485-7.3,20.384C.9,110.617-3.11,117.672,2.817,123.648c7.484,7.545,28.042,10.591,46.54,7.037C50.846,138.821,65.1,145.2,82.465,145.2c17.153,0,31.269-6.224,33.051-14.215,19.292,3.243,39.962-.458,46.4-8.373,5.026-6.175-.084-13.105-11.62-17.532" transform="translate(-0.073 -71.624)"/>
            </g>
          </g>
        </g>
        <path id="패스_12608" data-name="패스 12608" d="M160.047,51.955a30.782,30.782,0,0,0-9.792-6.5c5.461-4.323,7.918-9.177,7.116-13.513V25.674l-3.891.11a18.183,18.183,0,0,0-2.871-1.936c-9.034-4.964-24.376-5.109-37.761-.966-3.5-9.7-17.419-16.717-33.061-16.127-12.324.465-22.369,5.527-26.55,12.479h0c-11.731-2.1-24.771-1.025-34.321,3.481a23.435,23.435,0,0,0-9.237,7.131l-2.412.068v7.842h.068a14.269,14.269,0,0,0,4.276,8.56A28.894,28.894,0,0,0,3.8,51.955H0L.311,69.673a11.256,11.256,0,0,0,2.46,4.548c7.484,8.736,28.042,12.262,46.54,8.147,1.489,9.42,15.738,16.809,33.108,16.809,17.154,0,31.269-7.206,33.051-16.458,19.292,3.754,39.963-.531,46.405-9.693a9.984,9.984,0,0,0,1.9-5.094l.077-15.977h-3.808" transform="translate(0 -4.168)" fill="#91623c"/>
        <path id="패스_12609" data-name="패스 12609" d="M150.3,33.459h0c9.349-6.392,9.909-14.13.354-18.665-9.033-4.287-24.376-4.413-37.761-.834C109.395,5.582,95.474-.48,79.834.03,67.51.432,57.464,4.8,53.284,10.808,41.552,9,28.512,9.923,18.963,13.815,6.568,18.867,4.009,27.3,11.659,34.2.9,38.993-3.11,46.048,2.817,52.024c7.484,7.545,28.042,10.591,46.54,7.037C50.846,67.2,65.1,73.579,82.465,73.579c17.153,0,31.269-6.224,33.051-14.215,19.292,3.243,39.962-.458,46.4-8.373,5.026-6.175-.084-13.105-11.62-17.532" transform="translate(-0.046 0)" fill="#b38358"/>
        <path id="패스_12610" data-name="패스 12610" d="M176.978,77.1c-13.93,0-25.263-6.454-25.263-14.387s11.333-14.387,25.263-14.387,25.263,6.454,25.263,14.387S190.908,77.1,176.978,77.1m0-25.081c-10.673,0-19.357,4.8-19.357,10.695s8.684,10.695,19.357,10.695,19.357-4.8,19.357-10.695-8.684-10.695-19.357-10.695" transform="translate(-94.09 -29.971)" fill="#91623c"/>
        <path id="패스_12611" data-name="패스 12611" d="M176.978,82.653c-13.93,0-25.263-6.454-25.263-14.387S163.048,53.88,176.978,53.88s25.263,6.454,25.263,14.387-11.333,14.387-25.263,14.387m0-25.081c-10.673,0-19.357,4.8-19.357,10.695s8.684,10.695,19.357,10.695,19.357-4.8,19.357-10.695-8.684-10.695-19.357-10.695" transform="translate(-94.09 -33.415)" fill="#e0b79b"/>
        <path id="패스_12612" data-name="패스 12612" d="M165.019,9.315a21.752,21.752,0,0,0-11.795,4.951,6.1,6.1,0,0,0-1.9,2.546,2.7,2.7,0,0,0,.7,2.936c.944.744,2.3.528,3.466.226,5.274-1.37,10.382-3.78,15.831-3.83a22.076,22.076,0,0,0,4.953-.2c3.514-.842,4.671-4.9,1.119-6.291-3.234-1.262-9.028-.747-12.374-.339" transform="translate(-93.752 -5.493)" fill="#c48d5f"/>
        <path id="패스_12613" data-name="패스 12613" d="M46.535,131.4c1.981-.359,4.368-1.291,4.251-3.488a2.829,2.829,0,0,0-1.27-2.137c-1.668-1.137-3.613-.9-5.482-.782a39.064,39.064,0,0,1-14.927-2.018c-3.741-1.273-7.367-3.84-11.508-3.4-3.608.386-4.655,2.683-2.147,5.558,3.045,3.491,9.167,5.011,13.495,5.953a45.157,45.157,0,0,0,17.588.31" transform="translate(-8.73 -74.127)" fill="#c48d5f"/>
        <path id="패스_12614" data-name="패스 12614" d="M234.84,149.161c-2.033.287-4.14.314-6.045,1.079s-3.613,2.543-3.478,4.592a4.518,4.518,0,0,0,2.494,3.505,9.549,9.549,0,0,0,4.353.926,22.343,22.343,0,0,0,16.669-7.1,6.366,6.366,0,0,0,1.655-3.846c.566-8.117-12.24.367-15.647.848" transform="translate(-139.731 -89.81)" fill="#c48d5f"/>
        <path id="패스_12615" data-name="패스 12615" d="M318.153,126.191a6.54,6.54,0,0,0-4.3,2.157,3.051,3.051,0,0,0-.62,2.338c.322,1.83,2.231,2.5,3.911,2.859,5.765,1.227,22.277,1.31,23.118-7.515.439-4.621-4.335-2.638-6.9-1.865-5.03,1.514-10.086,1.11-15.2,2.026" transform="translate(-194.232 -76.328)" fill="#c48d5f"/>
        <path id="패스_12616" data-name="패스 12616" d="M361.471,60.323a3.346,3.346,0,0,0,2.5,2.041,7.075,7.075,0,0,0,3.333-.228,16.458,16.458,0,0,0,8.455-5.454,4.405,4.405,0,0,0,.634-4.621c-3.439-7.293-16.575,3.35-14.92,8.262" transform="translate(-224.086 -30.75)" fill="#c48d5f"/>
      </g>
    </g>
  </g>
</svg>
