<svg xmlns="http://www.w3.org/2000/svg" width="165.39" height="174.904" viewBox="0 0 165.39 174.904">
  <g id="Layer_6" transform="translate(0 0.004)">
    <g id="그룹_3921" data-name="그룹 3921">
      <path id="패스_10171" data-name="패스 10171" d="M161.56,100.12a39.042,39.042,0,0,0-9.88-12.16c5.51-8.09,7.99-17.17,7.18-25.29V50.94l-3.93.21a23.251,23.251,0,0,0-2.9-3.62c-9.12-9.29-24.61-9.56-38.12-1.81-3.53-18.15-17.58-31.28-33.37-30.18-12.44.87-22.58,10.34-26.8,23.35C41.9,34.96,28.73,36.97,19.1,45.4A33.958,33.958,0,0,0,9.78,58.74l-2.43.13V73.55h.07a38.9,38.9,0,0,0,4.32,16.02,39.291,39.291,0,0,0-7.89,10.56H0l.31,19.55a30.018,30.018,0,0,0,2.48,8.51c7.55,16.35,28.31,22.95,46.98,15.25,1.5,17.63,15.89,31.46,33.42,31.46s31.56-13.49,33.36-30.8c19.47,7.03,40.34-.99,46.84-18.14a30.057,30.057,0,0,0,1.92-9.53l.08-16.29h-3.84Z" fill="#91623c"/>
      <path id="패스_10172" data-name="패스 10172" d="M151.67,72.49c9.44-13.85,10-30.61.36-40.44-9.12-9.29-24.61-9.56-38.12-1.81C110.38,12.09,96.33-1.04,80.54.06,68.1.93,57.96,10.4,53.74,23.41,41.9,19.48,28.73,21.49,19.1,29.92,6.59,40.87,4,59.14,11.73,74.09.86,84.49-3.19,99.77,2.8,112.72c7.55,16.35,28.31,22.95,46.98,15.25,1.5,17.63,15.89,31.46,33.42,31.46s31.56-13.49,33.36-30.8c19.47,7.03,40.34-.99,46.84-18.14,5.07-13.38-.08-28.39-11.73-37.99Z" fill="#b38358"/>
      <path id="패스_10173" data-name="패스 10173" d="M83.89,99.28c-14.74,0-26.72-10.92-26.72-24.34S69.16,50.6,83.89,50.6s26.72,10.92,26.72,24.34S98.62,99.28,83.89,99.28Zm0-42.44c-11.29,0-20.48,8.12-20.48,18.1s9.19,18.1,20.48,18.1,20.48-8.12,20.48-18.1-9.19-18.1-20.48-18.1Z" fill="#91623c"/>
      <path id="패스_10174" data-name="패스 10174" d="M83.89,102.85c-14.74,0-26.72-10.92-26.72-24.34S69.16,54.17,83.89,54.17s26.72,10.92,26.72,24.34-11.99,24.34-26.72,24.34Zm0-42.44c-11.29,0-20.48,8.12-20.48,18.1s9.19,18.1,20.48,18.1,20.48-8.12,20.48-18.1-9.19-18.1-20.48-18.1Z" fill="#e0b79b"/>
      <path id="패스_10175" data-name="패스 10175" d="M21.87,122.36a25.288,25.288,0,0,0,22.16-.56,44.9,44.9,0,0,1-27.46-15.26c-1.23-1.45-2.47-3.06-4.28-3.66-6.85-2.25-2.69,7.21-1.33,9.49a25.243,25.243,0,0,0,10.91,9.98Z" fill="#c48d5f"/>
      <path id="패스_10176" data-name="패스 10176" d="M15.15,55.07c.15,2.5.76,5.12,2.5,6.92s4.86,2.43,6.77.81c1.25-1.06,1.7-2.75,2.19-4.32A41.331,41.331,0,0,1,31.5,48.14a46.5,46.5,0,0,0,3.98-6.38,8.817,8.817,0,0,0,.31-7.29c-3.48-7.24-11.56-.47-14.64,3.18a25.007,25.007,0,0,0-6,17.42Z" fill="#c48d5f"/>
      <path id="패스_10177" data-name="패스 10177" d="M63.84,17.32a6.124,6.124,0,0,0,.57,6.02,6.71,6.71,0,0,0,5.04,2.24,28.445,28.445,0,0,0,5.65-.64,45.931,45.931,0,0,1,13.45-.16c5.05.69,11.42.16,10.7-6.66-.4-3.85-4.26-8.61-7.77-10.19-7.98-3.6-24.25,1.13-27.64,9.38Z" fill="#c48d5f"/>
      <path id="패스_10178" data-name="패스 10178" d="M135.05,60.72c-.32,2.92.15,6.29,2.53,8.01,2.53,1.83,6.28.91,8.55-1.23s3.41-5.2,4.41-8.16c1.61-4.74,2.22-15.49-5.97-13.96-5.63,1.05-8.99,10.53-9.52,15.35Z" fill="#c48d5f"/>
      <path id="패스_10179" data-name="패스 10179" d="M132.12,110.51c-2.17.63-4.47.79-6.59,1.57s-4.15,2.43-4.46,4.66c-.46,3.31,2.89,5.88,6.07,6.92a22.032,22.032,0,0,0,27.13-12.35c1.09-2.58,1.67-5.56.68-8.18a7.5,7.5,0,0,0-5.6-4.62c-7.57-1.32-10.14,9.93-17.21,11.98Z" fill="#c48d5f"/>
      <path id="패스_10180" data-name="패스 10180" d="M91.94,137.02c-3.73,1.42-7.73,1.95-11.68,2.6-2.66.44-5.62,1.13-7.04,3.42-1.53,2.45-.5,5.89,1.69,7.77s5.21,2.49,8.1,2.54a26.6,26.6,0,0,0,16.74-5.58c2.86-2.23,5.33-5.24,5.96-8.81.4-2.31-.74-8.85-4.17-8.8-1.96.03-6.9,5.83-9.59,6.86Z" fill="#c48d5f"/>
    </g>
  </g>
</svg>
