<svg xmlns="http://www.w3.org/2000/svg" xmlns:xlink="http://www.w3.org/1999/xlink" width="177.574" height="171.605" viewBox="0 0 177.574 171.605">
  <defs>
    <radialGradient id="radial-gradient" cx="0.5" cy="0.519" r="0.557" gradientTransform="translate(0.05 0.402) scale(0.901 0.9)" gradientUnits="objectBoundingBox">
      <stop offset="0" stop-color="#a4824b"/>
      <stop offset="1" stop-color="#8c7064"/>
    </radialGradient>
  </defs>
  <g id="Layer_6" transform="translate(0.007 -0.001)">
    <g id="그룹_3924" data-name="그룹 3924">
      <path id="패스_10181" data-name="패스 10181" d="M176.89,84.44S153.44,64.8,138.9,64.75c7.5-12.68,5.45-29.38-4.96-40.29C122.5,12.47,102.55,8.69,86.58,15.1,71.11,21.31,66.6,39.19,66.6,39.19S29.3,13.72,7.8,40.89,19.16,89.58,19.16,89.58c-6.14,4.06-15.2,16.61-15.2,16.61v10.68a30.405,30.405,0,0,0,4.67,17.34c9.22,14.44,31.2,21.05,48.28,14.53,6.49,15.69,26.81,25.68,45.08,22.16s32.2-20.11,30.91-36.8c21.09,2.85,42.99-12.74,44.64-31.78.19-2.21-.66-17.86-.66-17.86Z" fill="#665040"/>
      <path id="패스_10182" data-name="패스 10182" d="M18.65,77.56C3.7,87.43-1.09,107.75,8.13,122.18s31.2,21.05,48.28,14.53c6.49,15.69,26.81,25.68,45.08,22.16s32.2-20.11,30.91-36.8c21.09,2.85,42.99-12.74,44.64-31.78s-17.32-37.47-38.65-37.55c7.5-12.68,5.45-29.38-4.96-40.29C121.99.46,102.04-3.32,86.07,3.09,70.6,9.3,66.09,27.18,66.09,27.18c-4.87-9.17-37.3-25.47-58.8,1.7S18.65,77.57,18.65,77.57Z" fill="url(#radial-gradient)"/>
      <g id="그룹_3922" data-name="그룹 3922">
        <path id="패스_10183" data-name="패스 10183" d="M30.85,88.47c-1.48,5.46-.43,11.77,3.51,15.82,1.85,1.91,4.52,3.3,7.12,2.77,3.92-.79,5.76-5.2,6.97-9.01,1.93-6.07,10.87-29.81,7.14-31.68S30.84,81.18,30.84,88.46Z" fill="#60493a"/>
        <path id="패스_10184" data-name="패스 10184" d="M61.87,100.73c.32,4.94,1.14,10.15,4.35,13.92,4.07,4.79,10.94,6.04,17.22,6.09a67.982,67.982,0,0,0,31.99-7.71c2.82-1.48,5.67-3.3,7.1-6.15,1.93-3.86.66-8.71-2.01-12.11s-6.48-5.67-10.2-7.86c-2.62-1.54-5.41-3.12-8.44-3.09s-6.26,2.41-6.04,5.43c.2,2.81,3.14,4.99,2.92,7.8-.23,2.92-3.57,4.38-6.37,5.21-5.9,1.76-12.95,3.31-17.68-.64-3.06-2.56-8.27-29.19-10.72-28.14s-2.41,22.66-2.12,27.24Z" fill="#60493a"/>
        <path id="패스_10185" data-name="패스 10185" d="M120.8,65.71c-2.61-.3-5.99,0-6.83,2.48a5.862,5.862,0,0,0,.6,4.05A65.958,65.958,0,0,0,131.39,95.8c3.11,2.78,7.37,5.4,11.22,3.78,3.88-1.64,4.94-6.54,5.48-10.72.76-5.9,1.4-12.61-3.82-16.35-6.1-4.37-16.2-5.97-23.47-6.81Z" fill="#60493a"/>
        <path id="패스_10186" data-name="패스 10186" d="M81.64,34.98c-3.64-.4-7.95.77-9.33,4.17-1.14,2.8.16,5.95,1.51,8.66q2.94,5.91,6.32,11.6c1.52,2.55,3.38,5.27,6.25,5.98,3.03.75,6.12-1.03,8.36-3.21,3.7-3.6,6.15-8.73,5.66-13.87-.92-9.6-10.71-12.44-18.78-13.32Z" fill="#60493a"/>
      </g>
      <g id="그룹_3923" data-name="그룹 3923">
        <path id="패스_10187" data-name="패스 10187" d="M31.22,82.94c-1.48,5.46-.43,11.77,3.51,15.82,1.85,1.91,4.52,3.3,7.12,2.77,3.92-.79,5.76-5.2,6.97-9.01,1.93-6.07,10.87-29.81,7.14-31.68S31.21,75.65,31.21,82.93Z" fill="#755e4e"/>
        <path id="패스_10188" data-name="패스 10188" d="M62.24,95.2c.32,4.94,1.14,10.15,4.35,13.92,4.07,4.79,10.94,6.04,17.22,6.09a67.982,67.982,0,0,0,31.99-7.71c2.82-1.48,5.67-3.3,7.1-6.15,1.93-3.86.66-8.71-2.01-12.11s-6.48-5.67-10.2-7.86c-2.62-1.54-5.41-3.12-8.44-3.09s-6.26,2.41-6.04,5.43c.2,2.81,3.14,4.99,2.92,7.8-.23,2.92-3.57,4.38-6.37,5.21-5.9,1.76-12.95,3.31-17.68-.64-3.06-2.56-8.27-29.19-10.72-28.14s-2.41,22.66-2.12,27.24Z" fill="#755e4e"/>
        <path id="패스_10189" data-name="패스 10189" d="M121.17,60.17c-2.61-.3-5.99,0-6.83,2.48a5.862,5.862,0,0,0,.6,4.05,65.958,65.958,0,0,0,16.82,23.56c3.11,2.78,7.37,5.4,11.22,3.78,3.88-1.64,4.94-6.54,5.48-10.72.76-5.9,1.4-12.61-3.82-16.35-6.1-4.37-16.2-5.97-23.47-6.81Z" fill="#755e4e"/>
        <path id="패스_10190" data-name="패스 10190" d="M82.01,29.45c-3.64-.4-7.95.77-9.33,4.17-1.14,2.8.16,5.95,1.51,8.66q2.94,5.91,6.32,11.6c1.52,2.55,3.38,5.27,6.25,5.98,3.03.75,6.12-1.03,8.36-3.21,3.7-3.6,6.15-8.73,5.66-13.87C99.86,33.18,90.07,30.34,82,29.46Z" fill="#755e4e"/>
      </g>
    </g>
  </g>
</svg>
