<svg xmlns="http://www.w3.org/2000/svg" xmlns:xlink="http://www.w3.org/1999/xlink" width="960" height="1920" viewBox="0 0 960 1920">
  <defs>
    <filter id="사각형_2161">
      <feOffset dy="3" input="SourceAlpha"/>
      <feGaussianBlur stdDeviation="3" result="blur"/>
      <feFlood flood-opacity="0.161" result="color"/>
      <feComposite operator="out" in="SourceGraphic" in2="blur"/>
      <feComposite operator="in" in="color"/>
      <feComposite operator="in" in2="SourceGraphic"/>
    </filter>
  </defs>
  <g id="그룹_2062" data-name="그룹 2062" transform="translate(-60 -482)">
    <g id="popup_background" transform="translate(60 482)" fill="#f2ece4" stroke="#e3d9d1" stroke-width="4">
      <path d="M82,0H878a82,82,0,0,1,82,82V1920a0,0,0,0,1,0,0H0a0,0,0,0,1,0,0V82A82,82,0,0,1,82,0Z" stroke="none"/>
      <path d="M82,2H878a80,80,0,0,1,80,80V1918a0,0,0,0,1,0,0H2a0,0,0,0,1,0,0V82A80,80,0,0,1,82,2Z" fill="none"/>
    </g>
    <path id="사각형_2159" data-name="사각형 2159" d="M80,0H872a80,80,0,0,1,80,80V296a0,0,0,0,1,0,0H0a0,0,0,0,1,0,0V80A80,80,0,0,1,80,0Z" transform="translate(64 486)" fill="#e3d9d1"/>
    <g data-type="innerShadowGroup">
      <rect id="사각형_2161-2" data-name="사각형 2161" width="812" height="48" rx="24" transform="translate(134 556)" fill="#e9e9ec"/>
      <g transform="matrix(1, 0, 0, 1, 60, 482)" filter="url(#사각형_2161)">
        <rect id="사각형_2161-3" data-name="사각형 2161" width="812" height="48" rx="24" transform="translate(74 74)" fill="#fff"/>
      </g>
    </g>
  </g>
</svg>
