<svg width="799" height="1720" viewBox="0 0 799 1720" fill="none" xmlns="http://www.w3.org/2000/svg">
<g clip-path="url(#clip0_1155_445)">
<g opacity="0.3">
<path d="M765 2.59998H37.1004C18.7004 2.59998 3.90039 17.8 3.90039 36.6V995.9C20.1004 1003.5 31.6004 1019.7 32.8004 1038.9C32.8004 1040 32.9004 1041.2 32.9004 1042.3C32.9004 1062.9 21.0004 1080.6 3.90039 1088.7V1648.5H798.2C798.2 1648.6 798.2 1085.8 798.2 1085.8C779.3 1078.8 765.8 1060.5 765.3 1038.9C765.3 1038.5 765.3 1038.1 765.3 1037.8C765.3 1015.7 779 996.9 798.2 989.8V36.6C798.2 17.8 783.3 2.59998 765 2.59998ZM405.5 84.5C396.3 84.5 388.9 76.9 388.9 67.5C388.9 58.1 396.3 50.5 405.5 50.5C414.7 50.5 422.1 58.1 422.1 67.5C422.1 76.9 414.7 84.5 405.5 84.5Z" fill="black"/>
<path d="M3.90039 1685.1C3.90039 1703.9 18.8004 1719.1 37.1004 1719.1H39.1004C41.6004 1712.7 47.8004 1708.1 55.0004 1708.1C62.2004 1708.1 68.3004 1712.6 70.9004 1719.1H88.8004C91.3004 1712.7 97.5004 1708.1 104.7 1708.1C111.9 1708.1 118 1712.6 120.6 1719.1H138.5C141 1712.7 147.2 1708.1 154.4 1708.1C161.6 1708.1 167.7 1712.6 170.3 1719.1H188.2C190.7 1712.7 196.9 1708.1 204.1 1708.1C211.3 1708.1 217.4 1712.6 220 1719.1H237.9C240.4 1712.7 246.6 1708.1 253.8 1708.1C261 1708.1 267.1 1712.6 269.7 1719.1H287.6C290.1 1712.7 296.3 1708.1 303.5 1708.1C310.7 1708.1 316.8 1712.6 319.4 1719.1H337.3C339.8 1712.7 346 1708.1 353.2 1708.1C360.4 1708.1 366.5 1712.6 369.1 1719.1H387C389.5 1712.7 395.7 1708.1 402.9 1708.1C410.1 1708.1 416.2 1712.6 418.8 1719.1H436.7C439.2 1712.7 445.4 1708.1 452.6 1708.1C459.8 1708.1 465.9 1712.6 468.5 1719.1H486.4C488.9 1712.7 495.1 1708.1 502.3 1708.1C509.5 1708.1 515.6 1712.6 518.2 1719.1H536.1C538.6 1712.7 544.8 1708.1 552 1708.1C559.2 1708.1 565.3 1712.6 567.9 1719.1H585.8C588.3 1712.7 594.5 1708.1 601.7 1708.1C608.9 1708.1 615 1712.6 617.6 1719.1H635.5C638 1712.7 644.2 1708.1 651.4 1708.1C658.6 1708.1 664.7 1712.6 667.3 1719.1H685.2C687.7 1712.7 693.9 1708.1 701.1 1708.1C708.3 1708.1 714.4 1712.6 717 1719.1H734.9C737.4 1712.7 743.6 1708.1 750.8 1708.1C758 1708.1 764.1 1712.6 766.7 1719.1C784.6 1718.6 798.9 1703.6 798.9 1685.1V1648.6H3.90039V1685.1Z" fill="black"/>
</g>
<path d="M793.2 1082.9C774.4 1075.9 760.8 1057.7 760.4 1036.1H28.9996C28.9996 1037.2 29.0996 1038.4 29.0996 1039.5C29.0996 1060.1 17.1996 1077.8 0.0996094 1085.8V1645.5H793.1C793.1 1645.6 793.1 1082.9 793.1 1082.9H793.2Z" fill="#F4F4F4"/>
<path d="M0 993.1C16.2 1000.7 27.6 1016.9 28.9 1036H760.2C760.2 1035.6 760.2 1035.2 760.2 1034.9C760.2 1012.8 773.9 994 793.1 986.9V145.1H0V993.1Z" fill="#F4F4F4"/>
<path d="M33.2992 1716.5H35.2992C37.7992 1710.1 43.9992 1705.5 51.0992 1705.5C58.1992 1705.5 64.3992 1710 66.8992 1716.5H84.7992C87.2992 1710.1 93.4992 1705.5 100.599 1705.5C107.699 1705.5 113.899 1710 116.399 1716.5H134.299C136.799 1710.1 142.999 1705.5 150.099 1705.5C157.199 1705.5 163.399 1710 165.899 1716.5H183.799C186.299 1710.1 192.499 1705.5 199.599 1705.5C206.699 1705.5 212.899 1710 215.399 1716.5H233.299C235.799 1710.1 241.999 1705.5 249.099 1705.5C256.199 1705.5 262.399 1710 264.899 1716.5H282.799C285.299 1710.1 291.499 1705.5 298.599 1705.5C305.699 1705.5 311.899 1710 314.399 1716.5H332.299C334.799 1710.1 340.999 1705.5 348.099 1705.5C355.199 1705.5 361.399 1710 363.899 1716.5H381.799C384.299 1710.1 390.499 1705.5 397.599 1705.5C404.699 1705.5 410.899 1710 413.399 1716.5H431.299C433.799 1710.1 439.999 1705.5 447.099 1705.5C454.199 1705.5 460.399 1710 462.899 1716.5H480.799C483.299 1710.1 489.499 1705.5 496.599 1705.5C503.699 1705.5 509.899 1710 512.399 1716.5H530.299C532.799 1710.1 538.999 1705.5 546.099 1705.5C553.199 1705.5 559.399 1710 561.899 1716.5H579.799C582.299 1710.1 588.499 1705.5 595.599 1705.5C602.699 1705.5 608.899 1710 611.399 1716.5H629.299C631.799 1710.1 637.999 1705.5 645.099 1705.5C652.199 1705.5 658.399 1710 660.899 1716.5H678.799C681.299 1710.1 687.499 1705.5 694.599 1705.5C701.699 1705.5 707.899 1710 710.399 1716.5H728.299C730.799 1710.1 736.999 1705.5 744.099 1705.5C751.199 1705.5 757.399 1710 759.899 1716.5C777.699 1716 792.099 1701 792.099 1682.5V1646H0.199219V1682.5C0.199219 1701.3 14.9992 1716.5 33.2992 1716.5Z" fill="#72BBFF"/>
<path d="M760 0H33.6004C15.3004 0 0.400391 15.2 0.400391 34V179.3H793.1V34C793.1 15.2 778.3 0 760 0ZM401.2 81.9C392.1 81.9 384.6 74.3 384.6 64.9C384.6 55.5 392 47.9 401.2 47.9C410.4 47.9 417.8 55.5 417.8 64.9C417.8 74.3 410.4 81.9 401.2 81.9Z" fill="#72BBFF"/>
<path opacity="0.6" d="M390 67C390 57.2 397.9 49.3 407.7 49.3C417.5 49.3 410.7 49.5 412.1 49.8C408.9 46.6 404.5 44.6 399.6 44.6C389.8 44.6 381.9 52.5 381.9 62.3C381.9 72.1 387.6 77.6 395.3 79.5C392.1 76.3 390.1 71.8 390.1 66.9L390 67Z" fill="black"/>
<path d="M400.7 22.5C378.5 22.5 360.5 40.5 360.5 62.7C360.5 84.9 378.5 102.9 400.7 102.9C422.9 102.9 440.9 84.9 440.9 62.7C440.9 40.5 422.9 22.5 400.7 22.5ZM400.7 77.4C392.6 77.4 386 70.8 386 62.7C386 54.6 392.6 48 400.7 48C408.8 48 415.4 54.6 415.4 62.7C415.4 70.8 408.8 77.4 400.7 77.4Z" fill="#275380"/>
<path d="M0.199219 181.3H793.199" stroke="white" stroke-width="1.3" stroke-miterlimit="10"/>
<path d="M47.2992 1045.9C49.8397 1045.9 51.8992 1043.84 51.8992 1041.3C51.8992 1038.76 49.8397 1036.7 47.2992 1036.7C44.7587 1036.7 42.6992 1038.76 42.6992 1041.3C42.6992 1043.84 44.7587 1045.9 47.2992 1045.9Z" fill="#CBCDB9"/>
<path d="M68.1996 1045.9C70.7401 1045.9 72.7996 1043.84 72.7996 1041.3C72.7996 1038.76 70.7401 1036.7 68.1996 1036.7C65.6591 1036.7 63.5996 1038.76 63.5996 1041.3C63.5996 1043.84 65.6591 1045.9 68.1996 1045.9Z" fill="#CBCDB9"/>
<path d="M89.1996 1045.9C91.7401 1045.9 93.7996 1043.84 93.7996 1041.3C93.7996 1038.76 91.7401 1036.7 89.1996 1036.7C86.6591 1036.7 84.5996 1038.76 84.5996 1041.3C84.5996 1043.84 86.6591 1045.9 89.1996 1045.9Z" fill="#CBCDB9"/>
<path d="M110.1 1045.9C112.641 1045.9 114.7 1043.84 114.7 1041.3C114.7 1038.76 112.641 1036.7 110.1 1036.7C107.559 1036.7 105.5 1038.76 105.5 1041.3C105.5 1043.84 107.559 1045.9 110.1 1045.9Z" fill="#CBCDB9"/>
<path d="M131.1 1045.9C133.641 1045.9 135.7 1043.84 135.7 1041.3C135.7 1038.76 133.641 1036.7 131.1 1036.7C128.559 1036.7 126.5 1038.76 126.5 1041.3C126.5 1043.84 128.559 1045.9 131.1 1045.9Z" fill="#CBCDB9"/>
<path d="M151.998 1045.9C154.539 1045.9 156.598 1043.84 156.598 1041.3C156.598 1038.76 154.539 1036.7 151.998 1036.7C149.458 1036.7 147.398 1038.76 147.398 1041.3C147.398 1043.84 149.458 1045.9 151.998 1045.9Z" fill="#CBCDB9"/>
<path d="M172.998 1045.9C175.539 1045.9 177.598 1043.84 177.598 1041.3C177.598 1038.76 175.539 1036.7 172.998 1036.7C170.458 1036.7 168.398 1038.76 168.398 1041.3C168.398 1043.84 170.458 1045.9 172.998 1045.9Z" fill="#CBCDB9"/>
<path d="M193.899 1045.9C196.439 1045.9 198.499 1043.84 198.499 1041.3C198.499 1038.76 196.439 1036.7 193.899 1036.7C191.358 1036.7 189.299 1038.76 189.299 1041.3C189.299 1043.84 191.358 1045.9 193.899 1045.9Z" fill="#CBCDB9"/>
<path d="M214.799 1045.9C217.34 1045.9 219.399 1043.84 219.399 1041.3C219.399 1038.76 217.34 1036.7 214.799 1036.7C212.259 1036.7 210.199 1038.76 210.199 1041.3C210.199 1043.84 212.259 1045.9 214.799 1045.9Z" fill="#CBCDB9"/>
<path d="M235.799 1045.9C238.34 1045.9 240.399 1043.84 240.399 1041.3C240.399 1038.76 238.34 1036.7 235.799 1036.7C233.259 1036.7 231.199 1038.76 231.199 1041.3C231.199 1043.84 233.259 1045.9 235.799 1045.9Z" fill="#CBCDB9"/>
<path d="M256.7 1045.9C259.24 1045.9 261.3 1043.84 261.3 1041.3C261.3 1038.76 259.24 1036.7 256.7 1036.7C254.159 1036.7 252.1 1038.76 252.1 1041.3C252.1 1043.84 254.159 1045.9 256.7 1045.9Z" fill="#CBCDB9"/>
<path d="M277.7 1045.9C280.24 1045.9 282.3 1043.84 282.3 1041.3C282.3 1038.76 280.24 1036.7 277.7 1036.7C275.159 1036.7 273.1 1038.76 273.1 1041.3C273.1 1043.84 275.159 1045.9 277.7 1045.9Z" fill="#CBCDB9"/>
<path d="M298.6 1045.9C301.141 1045.9 303.2 1043.84 303.2 1041.3C303.2 1038.76 301.141 1036.7 298.6 1036.7C296.059 1036.7 294 1038.76 294 1041.3C294 1043.84 296.059 1045.9 298.6 1045.9Z" fill="#CBCDB9"/>
<path d="M319.6 1045.9C322.141 1045.9 324.2 1043.84 324.2 1041.3C324.2 1038.76 322.141 1036.7 319.6 1036.7C317.059 1036.7 315 1038.76 315 1041.3C315 1043.84 317.059 1045.9 319.6 1045.9Z" fill="#CBCDB9"/>
<path d="M340.498 1045.9C343.039 1045.9 345.098 1043.84 345.098 1041.3C345.098 1038.76 343.039 1036.7 340.498 1036.7C337.958 1036.7 335.898 1038.76 335.898 1041.3C335.898 1043.84 337.958 1045.9 340.498 1045.9Z" fill="#CBCDB9"/>
<path d="M361.498 1045.9C364.039 1045.9 366.098 1043.84 366.098 1041.3C366.098 1038.76 364.039 1036.7 361.498 1036.7C358.958 1036.7 356.898 1038.76 356.898 1041.3C356.898 1043.84 358.958 1045.9 361.498 1045.9Z" fill="#CBCDB9"/>
<path d="M382.399 1045.9C384.939 1045.9 386.999 1043.84 386.999 1041.3C386.999 1038.76 384.939 1036.7 382.399 1036.7C379.858 1036.7 377.799 1038.76 377.799 1041.3C377.799 1043.84 379.858 1045.9 382.399 1045.9Z" fill="#CBCDB9"/>
<path d="M403.399 1045.9C405.939 1045.9 407.999 1043.84 407.999 1041.3C407.999 1038.76 405.939 1036.7 403.399 1036.7C400.858 1036.7 398.799 1038.76 398.799 1041.3C398.799 1043.84 400.858 1045.9 403.399 1045.9Z" fill="#CBCDB9"/>
<path d="M424.299 1045.9C426.84 1045.9 428.899 1043.84 428.899 1041.3C428.899 1038.76 426.84 1036.7 424.299 1036.7C421.759 1036.7 419.699 1038.76 419.699 1041.3C419.699 1043.84 421.759 1045.9 424.299 1045.9Z" fill="#CBCDB9"/>
<path d="M445.299 1045.9C447.84 1045.9 449.899 1043.84 449.899 1041.3C449.899 1038.76 447.84 1036.7 445.299 1036.7C442.759 1036.7 440.699 1038.76 440.699 1041.3C440.699 1043.84 442.759 1045.9 445.299 1045.9Z" fill="#CBCDB9"/>
<path d="M466.2 1045.9C468.74 1045.9 470.8 1043.84 470.8 1041.3C470.8 1038.76 468.74 1036.7 466.2 1036.7C463.659 1036.7 461.6 1038.76 461.6 1041.3C461.6 1043.84 463.659 1045.9 466.2 1045.9Z" fill="#CBCDB9"/>
<path d="M487.2 1045.9C489.74 1045.9 491.8 1043.84 491.8 1041.3C491.8 1038.76 489.74 1036.7 487.2 1036.7C484.659 1036.7 482.6 1038.76 482.6 1041.3C482.6 1043.84 484.659 1045.9 487.2 1045.9Z" fill="#CBCDB9"/>
<path d="M508.1 1045.9C510.641 1045.9 512.7 1043.84 512.7 1041.3C512.7 1038.76 510.641 1036.7 508.1 1036.7C505.559 1036.7 503.5 1038.76 503.5 1041.3C503.5 1043.84 505.559 1045.9 508.1 1045.9Z" fill="#CBCDB9"/>
<path d="M529.1 1045.9C531.64 1045.9 533.7 1043.84 533.7 1041.3C533.7 1038.76 531.64 1036.7 529.1 1036.7C526.559 1036.7 524.5 1038.76 524.5 1041.3C524.5 1043.84 526.559 1045.9 529.1 1045.9Z" fill="#CBCDB9"/>
<path d="M549.998 1045.9C552.539 1045.9 554.598 1043.84 554.598 1041.3C554.598 1038.76 552.539 1036.7 549.998 1036.7C547.458 1036.7 545.398 1038.76 545.398 1041.3C545.398 1043.84 547.458 1045.9 549.998 1045.9Z" fill="#CBCDB9"/>
<path d="M570.998 1045.9C573.539 1045.9 575.598 1043.84 575.598 1041.3C575.598 1038.76 573.539 1036.7 570.998 1036.7C568.458 1036.7 566.398 1038.76 566.398 1041.3C566.398 1043.84 568.458 1045.9 570.998 1045.9Z" fill="#CBCDB9"/>
<path d="M591.899 1045.9C594.439 1045.9 596.499 1043.84 596.499 1041.3C596.499 1038.76 594.439 1036.7 591.899 1036.7C589.358 1036.7 587.299 1038.76 587.299 1041.3C587.299 1043.84 589.358 1045.9 591.899 1045.9Z" fill="#CBCDB9"/>
<path d="M612.899 1045.9C615.439 1045.9 617.499 1043.84 617.499 1041.3C617.499 1038.76 615.439 1036.7 612.899 1036.7C610.358 1036.7 608.299 1038.76 608.299 1041.3C608.299 1043.84 610.358 1045.9 612.899 1045.9Z" fill="#CBCDB9"/>
<path d="M633.799 1045.9C636.34 1045.9 638.399 1043.84 638.399 1041.3C638.399 1038.76 636.34 1036.7 633.799 1036.7C631.259 1036.7 629.199 1038.76 629.199 1041.3C629.199 1043.84 631.259 1045.9 633.799 1045.9Z" fill="#CBCDB9"/>
<path d="M654.799 1045.9C657.34 1045.9 659.399 1043.84 659.399 1041.3C659.399 1038.76 657.34 1036.7 654.799 1036.7C652.259 1036.7 650.199 1038.76 650.199 1041.3C650.199 1043.84 652.259 1045.9 654.799 1045.9Z" fill="#CBCDB9"/>
<path d="M675.7 1045.9C678.24 1045.9 680.3 1043.84 680.3 1041.3C680.3 1038.76 678.24 1036.7 675.7 1036.7C673.159 1036.7 671.1 1038.76 671.1 1041.3C671.1 1043.84 673.159 1045.9 675.7 1045.9Z" fill="#CBCDB9"/>
<path d="M696.7 1045.9C699.24 1045.9 701.3 1043.84 701.3 1041.3C701.3 1038.76 699.24 1036.7 696.7 1036.7C694.159 1036.7 692.1 1038.76 692.1 1041.3C692.1 1043.84 694.159 1045.9 696.7 1045.9Z" fill="#CBCDB9"/>
<path d="M717.6 1045.9C720.14 1045.9 722.2 1043.84 722.2 1041.3C722.2 1038.76 720.14 1036.7 717.6 1036.7C715.059 1036.7 713 1038.76 713 1041.3C713 1043.84 715.059 1045.9 717.6 1045.9Z" fill="#CBCDB9"/>
<path d="M738.6 1045.9C741.14 1045.9 743.2 1043.84 743.2 1041.3C743.2 1038.76 741.14 1036.7 738.6 1036.7C736.059 1036.7 734 1038.76 734 1041.3C734 1043.84 736.059 1045.9 738.6 1045.9Z" fill="#CBCDB9"/>
<path d="M296.1 45.1C296.1 45.1 296.1 45.2 296.1 45.3C296.1 45.3 296 45.5 295.9 45.5C295.9 45.5 295.7 45.6 295.6 45.6C295.5 45.6 295.4 45.6 295.2 45.6H294.1C293.8 45.6 293.6 45.6 293.4 45.4C293.2 45.3 293.2 45.1 293.1 45H288.9C288.7 45.1 288.5 45.2 288.2 45.2C287.9 45.2 287.6 45.2 287.5 45H282.7C282.6 45.2 282.3 45.4 281.8 45.4C281.3 45.4 281 45.2 280.9 45H277.7C277.7 45 277.7 45.1 277.7 45.2C277.7 45.2 277.6 45.4 277.5 45.4C277.5 45.4 277.3 45.5 277.2 45.5C277.1 45.5 277 45.5 276.8 45.5H276.2C276 45.5 275.9 45.5 275.7 45.5C275.7 45.5 275.6 45.5 275.5 45.4C275.4 45.4 275.3 45.2 275.2 45.1C275.2 45.1 275.2 45.1 275.2 45H273.4C273.4 45 273.3 45.2 273.2 45.2C273.2 45.2 273 45.3 272.9 45.3C272.9 45.6 272.6 45.9 272 45.9C271.4 45.9 271.2 45.7 271.1 45.5C271 45.5 270.8 45.5 270.7 45.3C270.7 45.3 270.5 45.2 270.5 45.1C270.5 45.1 270.5 45 270.5 44.9H269C269 44.9 268.9 45.1 268.8 45.1C268.8 45.1 268.6 45.2 268.5 45.2C268.4 45.2 268.3 45.2 268.1 45.2H267.9C268.4 45.4 268.3 46.1 267.6 46.1C266.9 46.1 266.7 45.3 267.4 45.2C267.4 45.2 267.2 45.2 267.1 45.2H266.9C266.9 45 266.7 45 266.7 44.9H254.4C254.4 45 254.4 45.2 254.2 45.2C254 45.2 253.9 45.3 253.7 45.3H252.2C252 45.3 251.9 45.3 251.7 45.2C251.6 45.2 251.5 45 251.5 44.9H249.4C249.4 45.2 249.1 45.4 248.7 45.4C248.7 45.4 248.5 45.4 248.4 45.4C247.7 45.4 247.1 45.6 246.4 45.6C246.2 45.6 246 45.6 245.9 45.5C245.9 45.7 245.7 45.9 245.3 45.9C244.4 45.9 244.4 44.9 245.3 44.9C246.2 44.9 245.7 44.9 245.8 45C245.8 45 245.8 44.8 246 44.8H240.2C240.5 45.1 240.4 45.6 239.7 45.6C239 45.6 238.9 45.1 239.2 44.8H234.9H234.1H233.1C233.1 44.8 233.2 44.9 233.3 45C233.4 45.3 233.2 45.5 232.8 45.6C231.4 45.9 229.9 45.9 228.5 45.9C228.1 45.9 227.8 45.7 227.8 45.4C227.8 45.1 228.1 44.9 228.5 44.9C229.2 44.9 229.9 44.9 230.7 44.9C231.1 44.9 231.4 44.9 231.7 44.9H210.7C211 44.9 211.3 44.9 211.6 45C211.8 45 211.9 45 212 45C212.8 45.1 213.6 45.3 214.4 45.5C215.2 45.7 214.9 46.6 214 46.4C211.3 45.8 208.5 45.5 205.7 45.4C205.8 45.4 205.9 45.6 206 45.6C206.1 45.6 206.2 45.8 206.2 45.9C206.2 46 206.2 46.1 206 46.2C205.9 46.2 205.7 46.3 205.5 46.3C205.3 46.3 205.1 46.3 205 46.2L203.9 45.4C203.9 45.4 203.8 45.3 203.7 45.2C202.7 45.2 201.6 45.2 200.6 45C200.3 45 200.1 44.9 200 44.7H195.2C195.2 45 195 45.2 194.6 45.2H193.3C193.5 45.4 193.3 45.7 193.1 45.9C193 45.9 192.7 45.9 192.6 45.9C192.4 45.9 192.3 45.8 192.2 45.7C192.1 45.5 192 45.3 191.9 45.1H182.3C181.8 45.1 181.6 44.8 181.7 44.6C181.3 44.6 181 44.6 180.6 44.6H154.5C154.3 45.1 153.7 45.5 152.7 45.5C151.7 45.5 151.2 45.1 150.9 44.6H148.3C148 45 147.5 45.2 146.7 45.2C145.9 45.2 145.4 44.9 145.1 44.6H138.4C138.3 45.2 137.7 45.8 136.6 45.8C135.5 45.8 134.9 45.3 134.8 44.6H117.1C117.1 45.3 116.5 46 115.2 46C113.9 46 113.3 45.3 113.3 44.6H103.9C103.8 45.2 103.2 45.8 102.1 45.8C101 45.8 100.4 45.3 100.3 44.6H96.6999C96.6999 44.6 96.4999 44.8 96.3999 44.8C96.1999 44.9 95.9999 45 95.7999 45.1C95.5999 45.1 95.2999 45.2 95.0999 45.2H94.6999C94.3999 45.2 93.9999 45.2 93.6999 45C93.5999 45 93.3999 44.9 93.2999 44.8C93.2999 44.8 93.0999 44.7 92.9999 44.6H91.5999C91.5999 45.3 90.9999 46 89.6999 46C88.3999 46 87.7999 45.3 87.7999 44.6H79.8999C80.0999 45.4 79.4999 46.3 78.0999 46.3C76.6999 46.3 75.9999 45.4 76.2999 44.6H55.5999C55.4999 45.2 54.8999 45.8 53.7999 45.8C52.6999 45.8 52.0999 45.3 51.9999 44.6H41.3999C41.2999 45.2 40.6999 45.8 39.5999 45.8C38.4999 45.8 37.8999 45.3 37.7999 44.6H30.9999C30.8999 45.2 30.2999 45.8 29.1999 45.8C28.0999 45.8 27.4999 45.3 27.3999 44.6H1.19994V55.4C3.59994 55.4 3.59994 58 1.19994 58.1V71.9C1.19994 71.9 1.39994 71.9 1.49994 71.9C3.99994 71.9 3.99994 74.6 1.49994 74.6C-1.00006 74.6 1.29994 74.6 1.19994 74.6V79.9C1.59994 80.3 1.59994 80.9 1.19994 81.4V83.7C1.19994 83.7 1.39994 83.7 1.49994 83.7C2.79994 83.7 2.79994 85.1 1.49994 85.1C0.199938 85.1 1.29994 85.1 1.19994 85.1V94.1C1.79994 94.3 1.79994 95.1 1.19994 95.3V95.8C2.59994 96.3 2.59994 97.8 1.19994 98.3V100.6C1.19994 100.6 1.19994 100.6 1.29994 100.6C1.39994 100.6 1.59994 100.7 1.69994 100.8C1.89994 101 2.09994 101.2 2.19994 101.4C2.19994 101.5 2.19994 101.6 2.19994 101.8C2.19994 102 2.19994 102.2 1.99994 102.3C1.99994 102.5 1.79994 102.6 1.59994 102.7C1.49994 102.8 1.29994 102.9 1.09994 102.9V105.8C1.69994 106 1.69994 106.8 1.09994 107V109.7C1.09994 109.7 1.29994 109.7 1.39994 109.7C2.69994 109.7 2.69994 111.1 1.39994 111.1C0.0999382 111.1 1.19994 111.1 1.09994 111.1V113.9C1.09994 113.9 1.29994 113.9 1.39994 113.9C1.49994 113.9 1.59994 113.9 1.69994 114C1.69994 114 1.89994 114.1 1.89994 114.2C1.89994 114.2 1.89994 114.4 1.89994 114.5C1.89994 114.6 1.89994 114.7 1.89994 114.8C1.89994 114.9 1.79994 115 1.69994 115.1C1.69994 115.1 1.69994 115.2 1.59994 115.3C1.59994 115.3 1.59994 115.3 1.59994 115.4C1.59994 115.6 1.49994 115.7 1.29994 115.8C1.29994 115.8 1.19994 115.8 1.09994 115.9V117.8C1.29994 117.8 1.59994 117.8 1.69994 118C1.79994 118.2 1.99994 118.3 1.99994 118.5V119.5C1.99994 119.7 1.89994 119.9 1.69994 120C1.49994 120.1 1.29994 120.2 1.09994 120.2V126.2C1.09994 126.2 1.29994 126.2 1.39994 126.2C1.49994 126.2 1.59994 126.2 1.69994 126.3C1.69994 126.3 1.89994 126.4 1.89994 126.5C1.89994 126.5 1.89994 126.7 1.89994 126.8V127.3C1.89994 127.4 1.89994 127.5 1.79994 127.7C1.79994 127.7 1.69994 127.7 1.59994 127.8C1.49994 127.8 1.29994 127.9 1.19994 128C1.19994 128 1.09994 128 0.999938 128V129C2.09994 129 2.09994 130.3 0.999938 130.4V135.9C0.999938 136 1.09994 136.1 1.09994 136.2V137.5C1.09994 137.6 1.09994 137.7 0.999938 137.8V140.8H26.7999C26.8999 140.8 26.9999 140.8 27.0999 140.8C27.1999 140.8 27.2999 140.8 27.3999 140.8H30.8999C30.9999 140.8 31.0999 140.8 31.1999 140.8C31.2999 140.8 31.3999 140.8 31.4999 140.8H34.6999C34.6999 140.5 35.0999 140.2 35.5999 140.2C36.0999 140.2 36.4999 140.5 36.4999 140.8H44.1999C44.1999 140.8 44.2999 140.6 44.3999 140.5C44.3999 140.4 44.5999 140.3 44.6999 140.2C44.7999 140.2 44.9999 140 45.0999 140C45.2999 140 45.3999 139.9 45.5999 139.9C45.7999 139.9 45.9999 139.9 46.1999 139.9C46.4999 139.9 46.8999 139.9 47.1999 140.1C47.1999 140.1 47.2999 140.1 47.3999 140.2C47.5999 140.2 47.7999 140.2 47.8999 140.3C47.9999 140.3 48.1999 140.4 48.2999 140.5C48.4999 140.7 48.6999 140.9 48.7999 141.1H86.7999C87.0999 140.8 87.5999 140.7 88.1999 140.7C88.7999 140.7 89.2999 140.9 89.5999 141.1H90.0999C90.3999 140.8 90.8999 140.7 91.4999 140.7C92.0999 140.7 92.5999 140.9 92.8999 141.1H98.3999C98.6999 140.7 99.1999 140.4 100.1 140.4C101 140.4 101.5 140.7 101.8 141.1H123.4C123.4 140.5 124.1 139.9 125.3 139.9C126.5 139.9 127.1 140.5 127.2 141.1H135.2C134.3 140.3 134.7 138.8 136.6 138.8C138.5 138.8 138.9 140.3 138 141.1H158.1C158.4 141 158.7 140.9 159.1 140.9C159.5 140.9 159.8 140.9 160.1 141.1H172C172.3 141 172.6 140.9 173 140.9C173.4 140.9 173.7 140.9 174 141.1H178.8C179.1 141 179.4 140.9 179.8 140.9C180.2 140.9 180.5 140.9 180.8 141.1H188.1C188.1 140.4 188.6 139.6 190 139.6C191.4 139.6 191.9 140.3 191.9 140.9C192.1 140.9 192.3 140.9 192.5 141H196C196 140.4 196.7 139.8 197.9 139.8C199.1 139.8 199.7 140.4 199.8 141H209C209.3 140.9 209.6 140.8 210 140.8C210.4 140.8 210.7 140.8 211 141H262.2C262.2 140.4 262.9 139.8 264.1 139.8C265.3 139.8 265.9 140.4 266 141H281.8C281.8 140.3 282.3 139.5 283.7 139.5C285.1 139.5 285.6 140.3 285.6 141H292.1C292.4 140.9 292.7 140.8 293.1 140.8C293.5 140.8 293.8 140.8 294.1 141H300.3V133.1C299.5 132.9 299.5 132 300.3 131.8V130.9C300.3 130.9 300.2 130.9 300.1 130.9C298.8 130.9 298.8 129.5 300.1 129.5C301.4 129.5 300.2 129.5 300.3 129.5V126.5C299.9 126.4 299.7 126.1 299.7 125.8C299.7 125.5 299.8 125.2 300.3 125.1V122.5C300 122.5 299.8 122.2 299.7 122C299.7 121.9 299.6 121.8 299.5 121.7C299.5 121.7 299.4 121.7 299.3 121.7C298.1 121.7 298 120.6 299 120.4C299.1 120.2 299.4 120 299.8 120C299.8 120 299.8 120 299.9 120C299.9 120 299.9 120 300 119.9C300 119.9 300.2 119.8 300.3 119.8V115.8C299.1 115.8 299.1 114.5 300.3 114.4V110.4C300.3 110.4 300.2 110.4 300.1 110.4C298.8 110.4 298.8 109 300.1 109C301.4 109 300.2 109 300.3 109V108.2C299.9 107.9 299.9 107.4 300.3 107.2V105.3C299.9 105 299.9 104.5 300.3 104.3C300.3 104.2 300.3 104.2 300.3 104.2C300.3 104.1 300.1 103.9 300.1 103.8C300.1 103.6 300.1 103.5 300.1 103.3C300.1 103.1 300.2 102.9 300.4 102.8V102.6C299.6 102.4 299.6 101.5 300.4 101.3V100.3C300.1 100.1 300 99.9 300.1 99.6C299.3 99.3 299.4 98.4 300.4 98.3V95.7C300.4 95.7 300.3 95.7 300.2 95.7C298.9 95.7 298.9 94.3 300.2 94.3C301.5 94.3 300.3 94.3 300.4 94.3V92.4C300.2 92.6 300 92.7 299.6 92.7C298.3 92.7 298.3 91.3 299.6 91.3C300.9 91.3 300.2 91.4 300.4 91.6V89.4C300.3 89.4 300.2 89.4 300.1 89.4C300 89.4 299.9 89.4 299.8 89.3C299.8 89.3 299.6 89.2 299.6 89.1C299.5 89.1 299.4 88.9 299.3 88.8C299.3 88.8 299.3 88.7 299.3 88.6C299.3 88.5 299.3 88.4 299.4 88.2C299.4 88.2 299.5 88.2 299.6 88.1C299.6 88.1 299.8 88.1 299.9 88V85.7C299.9 85.4 300.2 85.2 300.5 85.1V80.6C298.4 80.4 298.4 78.1 300.5 77.9V69C298.9 68.6 298.9 66.8 300.5 66.4V62.1C298.9 61.7 298.9 59.9 300.5 59.5V57.2C300.4 57.2 300.3 57.2 300.2 57.1C300.2 57.1 300 57 300 56.9C300 56.9 300 56.7 300 56.6V56.2V56C300 55.7 300 55.3 300.6 55.2V53.7C299.8 53.5 299.8 52.6 300.6 52.4V51.1C299.8 50.9 299.8 50 300.6 49.8V48.2C300.6 48.2 300.6 48 300.6 47.9V45H296.3L296.1 45.1ZM226.2 47.5C223.3 47.8 220.4 47.8 217.6 47.5C217.2 47.5 217 47.1 217.1 46.9C217.2 46.6 217.6 46.5 217.9 46.6C220.5 46.9 223.2 46.9 225.8 46.6C226.2 46.6 226.5 46.6 226.6 46.9C226.6 47.1 226.5 47.4 226.1 47.5H226.2ZM259.5 46.1C259.4 46.1 259.2 46.2 259 46.2H257.5C257.4 46.2 257.2 46.2 257.1 46.2C257 46.2 256.9 46.2 256.7 46.2C255.8 46.2 255.8 45.2 256.7 45.2C257.6 45.2 257 45.2 257.1 45.2C257.2 45.2 257.3 45.2 257.5 45.2H259C259.2 45.2 259.3 45.2 259.5 45.3C259.6 45.3 259.7 45.5 259.7 45.6C259.7 45.7 259.7 45.9 259.5 45.9V46.1ZM264.9 46.3C264.9 46.4 264.7 46.5 264.5 46.5C264.3 46.5 264.1 46.5 264 46.5C264 46.5 263.9 46.5 263.8 46.5C263.6 46.5 263.4 46.5 263.2 46.4C262.9 46.4 262.7 46.4 262.4 46.4C262.1 46.4 262 46.4 261.9 46.2C261.9 46.2 261.8 46 261.8 45.9C261.8 45.8 261.8 45.7 262 45.6C262.1 45.6 262.3 45.5 262.5 45.5C262.9 45.5 263.2 45.5 263.6 45.5C264 45.5 264.4 45.7 264.7 45.8C265 45.9 265.1 46.2 264.9 46.5V46.3Z" fill="#F3F4E6"/>
<path d="M62 64H69.9L73.4 65.6L73.8 66L75.4 69.7V79.7L73.8 83.4L73.4 83.8L69.9 85.4H62V64.1V64ZM71.1 82L72.1 81L72.8 79V70.4L72.1 68.4L71.1 67.4L69.3 66.7H64.7V82.7H69.3L71.1 82Z" fill="#73748D"/>
<path d="M85.9004 85.3L82.4004 83.7L82.0004 83.3L80.4004 79.6V75L82.0004 71.3L82.4004 70.9L85.9004 69.3H88.3004L91.8004 70.9L92.2004 71.3L93.8004 75V77.1H83.0004V78.9L83.7004 80.9L84.8004 82L86.6004 82.7H88.5004L90.4004 81.8L91.9004 80.3L92.7004 80H93.9004V81.2L93.6004 82L91.9004 83.7L88.7004 85.3H85.9004ZM84.4004 72.3L83.4004 73.3L83.0004 74V74.8H91.2004V74L90.8004 73.3L89.8004 72.3L89.1004 71.9H85.1004L84.4004 72.3Z" fill="#73748D"/>
<path d="M108.8 71.9H102.8L102.1 72.3L101.3 73.1V73.6L108.7 81V81.7L106.7 83.7L103.5 85.3H98V82.7H104L104.7 82.3L105.5 81.5V81L98.1 73.6V72.9L100.1 70.9L103.3 69.3H108.8V71.9Z" fill="#73748D"/>
<path d="M112.699 71.9V69.3H115.299V64H117.899V69.3H120.499V71.9H117.899V80.1L118.799 82L120.299 83.5L120.599 84.3V85.4H119.499L118.699 85.1L116.999 83.4L115.399 80.2V72H112.699V71.9Z" fill="#73748D"/>
<path d="M125.7 71.9V69.3H130.9V85.3H128.3V71.9H125.6H125.7ZM128.3 64H130.9V66.6H128.3V64Z" fill="#73748D"/>
<path d="M150.1 85.3V75.6L149.4 73.6L148.3 72.5L146.5 71.8H145.4L143.6 72.5L142.6 73.5L141.9 75.5V85.2H139.3V74.4L138.6 72.8L136.9 71.1L136.6 70.3V69.2H137.7L138.5 69.5L140 71L140.8 71.3L144.6 69.3H147L150.5 70.9L150.9 71.3L152.5 75V85.3H149.9H150.1Z" fill="#73748D"/>
<path d="M167.9 70.9L168.3 71.3L169.9 75V80.1L170.6 81.7L172.3 83.4L172.6 84.2V85.3H171.5L170.7 85L169.2 83.5L168.4 83.2L164.5 85.2H162.1L158.6 83.6L157.4 81.1L156.9 80.6V79.3L157.4 78.8L158.6 76.4L162.1 74.8H167.3V74L166.9 73.3L165.9 72.3L165.2 71.9H159.3V69.3H164.4L167.9 70.9ZM162.8 77.2L161.3 77.6L160.2 78.7L159.9 79.5V80.5L160.2 81.3L161.3 82.4L162.8 82.8H163.9L165.7 82.1L166.7 81.1L167.4 79.1V77.2H162.8Z" fill="#73748D"/>
<path d="M176.4 71.9V69.3H179V64H181.6V69.3H184.2V71.9H181.6V80.1L182.5 82L184 83.5L184.3 84.3V85.4H183.2L182.4 85.1L180.7 83.4L179.1 80.2V72H176.4V71.9Z" fill="#73748D"/>
<path d="M189.299 71.9V69.3H194.499V85.3H191.899V71.9H189.199H189.299ZM191.999 64H194.599V66.6H191.999V64Z" fill="#73748D"/>
<path d="M203 83.7L202.6 83.3L201 79.6V75L202.6 71.3L203 70.9L206.5 69.3H208.9L212.4 70.9L212.8 71.3L214.4 75V79.6L212.8 83.3L212.4 83.7L208.9 85.3H206.5L203 83.7ZM205.3 72.6L204.2 73.7L203.5 75.7V79L204.2 81L205.3 82.1L207.1 82.8H208.1L209.9 82.1L211 81L211.7 79V75.7L211 73.7L209.9 72.6L208.1 71.9H207.1L205.3 72.6Z" fill="#73748D"/>
<path d="M231.801 85.3V75.6L231.101 73.6L230.001 72.5L228.201 71.8H227.101L225.301 72.5L224.301 73.5L223.601 75.5V85.2H221.001V74.4L220.301 72.8L218.601 71.1L218.301 70.3V69.2H219.401L220.201 69.5L221.701 71L222.501 71.3L226.301 69.3H228.701L232.201 70.9L232.601 71.3L234.201 75V85.3H231.601H231.801Z" fill="#73748D"/>
</g>
<defs>
<clipPath id="clip0_1155_445">
<rect width="798.2" height="1719.1" fill="white"/>
</clipPath>
</defs>
</svg>
