<?xml version="1.0" encoding="UTF-8"?>
<svg id="_레이어_2" data-name="레이어 2" xmlns="http://www.w3.org/2000/svg" width="83.6" height="83.6" viewBox="0 0 83.6 83.6">
  <g id="ticket">
    <g id="D7cg4D.tif">
      <g>
        <path d="m83.6,27.5c-.6,1.3-1.3,2.4-2.8,2.8-2.2.6-4.5-.9-4.7-3.1-.1-1.5,0-3,0-4.6,0-3.1,0-6.2,0-9.5-.4.4-.6.6-.8.8-7.6,7.6-11.7,11.7-19.3,19.3-1,1-2.2,1.7-3.7,1.4-2.8-.5-4.1-3.8-2.3-6.1.3-.3.5-.6.8-.9,7.5-7.5,11.6-11.6,19.1-19.1.2-.2.5-.4.7-.5,0,0,0-.2-.1-.2-.3,0-.5,0-.8,0-4,0-8.1,0-12.1,0-1.8,0-3.2-.6-4-2.3-1.1-2.4.6-5.1,3.3-5.3.9,0,1.8,0,2.8,0,6.4,0,12.8,0,19.2,0,2.4,0,4.1.8,4.8,3.1v24.3Z" fill="#fff" stroke-width="0"/>
        <path d="m3.1,83.6C.8,82.9,0,81.2,0,78.8c0-7.2,0-14.4,0-21.6,0-2.5,1.8-4.2,4.1-4,1.7.1,3.2,1.5,3.4,3.2,0,.4,0,.9,0,1.3,0,3.9,0,12.8,0,12.8,0,0,12.5-12.5,20.1-20.1,1.1-1.1,2.2-1.7,3.8-1.4,2.8.5,4,3.8,2.3,6-.3.3-.5.6-.8.9-7.5,7.5-11.7,11.7-19.2,19.2-.2.2-.4.4-.8.8.5,0,.8,0,1,0,4,0,8,0,12,0,1.2,0,2.3.2,3.2,1.1,1.9,1.9,1.3,5.1-1.1,6.1-.2.1-.5.2-.7.3H3.1Z" fill="#fff" stroke-width="0"/>
        <path d="m56.2,83.6c-1.3-.6-2.5-1.3-2.8-2.9-.6-2.2.9-4.4,3.2-4.7.8,0,1.6,0,2.4,0,3.6,0,7.1,0,10.7,0,.3,0,.6,0,1,0-.3-.4-.5-.6-.7-.8-7.6-7.6-11.6-11.7-19.2-19.2-1-1-1.7-2.1-1.4-3.6.2-1.4,1-2.4,2.4-3,1.4-.5,2.7-.3,3.8.7.3.2.5.5.8.7,7.5,7.5,11.5,11.5,19.1,19.1.2.2.4.4.8.7,0-.5,0-.8,0-1,0-4,0-8,0-12,0-1.2.2-2.3,1.1-3.2,1.9-1.9,5.1-1.3,6.1,1.1.1.2.2.5.3.7v24.3c-.5,1.6-1.5,2.6-3.1,3.1h-24.3Z" fill="#fff" stroke-width="0"/>
        <path d="m7.6,13.1c0,.5,0,.8,0,1.1,0,4,0,8,0,12,0,1.5-.5,2.8-1.8,3.6-2.4,1.5-5.5,0-5.8-2.8,0-.3,0-.6,0-.9,0-7.2,0-14.5,0-21.7C0,1.5,1.5,0,4.3,0c7.3,0,14.7,0,22,0,2.5,0,4.1,1.7,4,4,0,1.8-1.5,3.3-3.2,3.5-.4,0-.9,0-1.3,0-3.9,0-7.8,0-11.8,0-.3,0-.6,0-1.1,0,.4.4.6.6.8.8,7.6,7.6,11.7,11.7,19.3,19.3,1.1,1.1,1.7,2.2,1.4,3.8-.5,2.8-3.8,4-6,2.3-.3-.3-.6-.5-.9-.8-7.5-7.5-11.6-11.6-19.2-19.2-.2-.2-.4-.4-.8-.7Z" fill="#fff" stroke-width="0"/>
      </g>
    </g>
  </g>
</svg>