<svg width="341" height="100" viewBox="0 0 341 100" fill="none" xmlns="http://www.w3.org/2000/svg">
<path d="M292.879 4.33203H48.6785C22.6107 4.33203 1.47852 25.4643 1.47852 51.5321V52.7321C1.47852 78.7999 22.6107 99.9321 48.6785 99.9321H292.879C318.946 99.9321 340.079 78.7999 340.079 52.7321V51.5321C340.079 25.4643 318.946 4.33203 292.879 4.33203Z" fill="#275380"/>
<path d="M291.679 0.730469H47.4793C21.4115 0.730469 0.279297 21.8627 0.279297 47.9305V49.1305C0.279297 75.1983 21.4115 96.3304 47.4793 96.3304H291.679C317.747 96.3304 338.879 75.1983 338.879 49.1305V47.9305C338.879 21.8627 317.747 0.730469 291.679 0.730469Z" fill="#BFE2FF"/>
<path d="M93.5793 40.7312C93.5793 44.3312 94.1793 47.6312 95.4793 50.6312C96.6793 53.6312 98.7793 56.3312 101.779 58.5312L102.179 58.9313C102.379 59.1313 102.479 59.3312 102.579 59.6312C102.679 59.9312 102.679 60.1313 102.679 60.4313C102.679 60.7313 102.579 61.0312 102.279 61.3312C102.079 61.6312 101.779 61.9313 101.479 62.0312C101.179 62.1312 100.879 62.2312 100.579 62.1312C100.279 62.1312 99.9793 62.1313 99.7793 61.9313C99.5793 61.7313 99.3793 61.7312 99.1793 61.6312C98.4793 61.1312 97.6793 60.4312 96.9793 59.7312C96.1793 58.9312 95.4793 58.1312 94.7793 57.1312C94.0793 56.2312 93.4793 55.2312 92.8793 54.1312C92.2793 53.0312 91.7793 51.9312 91.3793 50.8312C91.0793 52.0312 90.5793 53.1312 89.9793 54.3312C89.3793 55.5312 88.7793 56.5313 88.0793 57.4313C87.3793 58.3313 86.5793 59.3312 85.7793 60.1312C84.9793 60.9312 84.0793 61.6312 83.2793 62.2312C83.1793 62.2312 82.9793 62.4313 82.6793 62.5312C82.4793 62.5312 82.1793 62.7312 81.8793 62.7312C81.5793 62.7312 81.2793 62.7312 80.9793 62.6312C80.6793 62.5312 80.3793 62.3313 80.1793 61.9313C79.9793 61.6313 79.7793 61.2313 79.7793 61.0312C79.7793 60.7313 79.7793 60.4312 79.8793 60.2312C79.9793 60.0312 80.0793 59.7313 80.2793 59.5312C80.4793 59.3312 80.5793 59.2312 80.6793 59.1312C83.6793 56.9312 85.7793 54.2312 87.0793 51.1312C88.3793 48.0312 88.9793 44.5312 88.9793 40.8312V39.1312H82.1793C81.5793 39.1312 81.0793 38.9312 80.6793 38.5312C80.2793 38.1313 80.1793 37.7312 80.1793 37.1312C80.1793 36.5312 80.3793 36.1312 80.6793 35.7312C80.9793 35.3312 81.4793 35.1312 82.1793 35.1312H100.379C100.979 35.1312 101.479 35.3312 101.879 35.7312C102.279 36.1312 102.379 36.5312 102.379 37.1312C102.379 37.7312 102.179 38.1313 101.879 38.5312C101.579 38.9312 101.079 39.1312 100.379 39.1312H93.4793V40.7312H93.5793ZM86.1793 31.8312C85.5793 31.8312 85.0793 31.6312 84.6793 31.2312C84.2793 30.8312 84.1793 30.4312 84.1793 29.8312C84.1793 29.2312 84.3793 28.8313 84.6793 28.4313C84.9793 28.0313 85.4793 27.8312 86.1793 27.8312H96.2793C96.8793 27.8312 97.3793 28.0313 97.7793 28.4313C98.1793 28.8313 98.2793 29.2312 98.2793 29.8312C98.2793 30.4312 98.0793 30.8312 97.7793 31.2312C97.4793 31.6312 96.9793 31.8312 96.2793 31.8312H86.1793ZM110.679 67.0312C110.679 67.7313 110.479 68.2312 109.979 68.6312C109.479 69.0312 109.079 69.2312 108.379 69.2312C107.679 69.2312 107.179 69.0312 106.779 68.6312C106.379 68.2312 106.179 67.7313 106.179 67.0312V48.7312H101.079C100.479 48.7312 99.9793 48.5312 99.6793 48.2312C99.3793 47.9312 99.1793 47.4312 99.1793 46.8312C99.1793 46.2312 99.3793 45.8313 99.6793 45.4313C99.9793 45.0313 100.479 44.8312 101.079 44.8312H106.179V28.7312C106.179 28.0312 106.379 27.5312 106.779 27.0312C107.179 26.6313 107.679 26.4313 108.379 26.4313C109.079 26.4313 109.479 26.6313 109.979 27.0312C110.479 27.4312 110.679 27.9312 110.679 28.7312V66.9313V67.0312ZM119.679 69.3312C119.679 70.0312 119.479 70.5313 118.979 70.9313C118.479 71.3313 118.079 71.5312 117.379 71.5312C116.679 71.5312 116.179 71.3313 115.779 70.9313C115.379 70.5313 115.079 70.0312 115.079 69.3312V27.8312C115.079 27.1312 115.279 26.6312 115.779 26.1312C116.279 25.6312 116.779 25.5312 117.379 25.5312C117.979 25.5312 118.479 25.7312 118.979 26.1312C119.479 26.5312 119.679 27.0312 119.679 27.8312V69.3312Z" fill="#275380"/>
<path d="M129.279 36.6296C128.679 36.6296 128.179 36.4297 127.779 36.0297C127.379 35.6297 127.279 35.2296 127.279 34.6296C127.279 34.0296 127.479 33.6296 127.779 33.2296C128.079 32.8296 128.579 32.6296 129.279 32.6296H151.979C152.579 32.6296 153.079 32.8296 153.479 33.2296C153.879 33.6296 153.979 34.0296 153.979 34.6296C153.979 35.2296 153.779 35.6297 153.479 36.0297C153.179 36.4297 152.679 36.6296 151.979 36.6296H129.279ZM130.379 46.3296C130.379 43.9296 131.279 42.0296 133.179 40.6296C135.079 39.2296 137.479 38.5297 140.679 38.5297C143.879 38.5297 146.379 39.2297 148.179 40.5297C149.979 41.8297 150.979 43.7296 150.979 46.2296C150.979 48.7296 150.079 50.6297 148.179 51.9297C146.279 53.2297 143.879 53.9297 140.679 53.9297C137.479 53.9297 135.079 53.2296 133.179 51.8296C131.379 50.4296 130.379 48.5296 130.379 46.1296V46.3296ZM134.879 30.3296C134.279 30.3296 133.779 30.1296 133.379 29.7296C132.979 29.3296 132.879 28.9296 132.879 28.3296C132.879 27.7296 133.079 27.3297 133.379 26.9297C133.679 26.5297 134.179 26.3296 134.879 26.3296H146.479C147.079 26.3296 147.579 26.5297 147.979 26.9297C148.379 27.3297 148.479 27.7296 148.479 28.3296C148.479 28.9296 148.279 29.3296 147.979 29.7296C147.679 30.1296 147.179 30.3296 146.479 30.3296H134.879ZM146.479 46.3296C146.479 45.8296 146.479 45.3296 146.179 44.8296C145.979 44.3296 145.679 43.9297 145.179 43.5297C144.779 43.1297 144.179 42.8296 143.379 42.6296C142.679 42.4296 141.679 42.3296 140.579 42.3296C139.479 42.3296 138.679 42.4296 137.979 42.6296C137.279 42.8296 136.679 43.1297 136.179 43.5297C135.679 43.9297 135.379 44.3296 135.179 44.7296C134.979 45.2296 134.879 45.7296 134.879 46.2296C134.879 47.3296 135.279 48.3297 136.179 49.0297C137.079 49.8297 138.479 50.2296 140.579 50.2296C142.679 50.2296 142.579 50.1297 143.379 49.9297C144.079 49.7297 144.679 49.4297 145.179 49.0297C145.579 48.6297 145.979 48.2296 146.179 47.7296C146.379 47.2296 146.479 46.7296 146.479 46.2296V46.3296ZM165.479 66.9297C165.479 68.3297 165.079 69.4296 164.379 70.1296C163.679 70.9296 162.479 71.3296 160.879 71.3296H139.679C138.079 71.3296 136.879 70.9296 136.179 70.1296C135.479 69.3296 135.079 68.3297 135.079 66.9297V60.6296C135.079 59.2296 135.479 58.1297 136.179 57.4297C136.879 56.6297 138.079 56.2296 139.679 56.2296H160.879C162.479 56.2296 163.679 56.6297 164.379 57.4297C165.079 58.2297 165.479 59.2296 165.479 60.6296V66.9297ZM139.779 65.6296C139.779 66.3296 139.879 66.8296 140.179 67.1296C140.479 67.4296 140.879 67.5297 141.579 67.5297H159.179C159.879 67.5297 160.279 67.3296 160.579 67.1296C160.879 66.8296 160.979 66.3296 160.979 65.6296V61.9297C160.979 61.2297 160.879 60.7297 160.579 60.4297C160.279 60.1297 159.879 60.0297 159.179 60.0297H141.579C140.879 60.0297 140.479 60.2297 140.179 60.4297C139.879 60.7297 139.779 61.2297 139.779 61.9297V65.6296ZM165.479 51.4297C165.479 52.1297 165.279 52.6296 164.779 53.1296C164.379 53.5296 163.779 53.7296 163.179 53.7296C162.579 53.7296 161.979 53.5296 161.579 53.1296C161.179 52.7296 160.879 52.2297 160.879 51.4297V44.1296H154.979C154.379 44.1296 153.879 43.9297 153.579 43.5297C153.279 43.1297 153.079 42.7296 153.079 42.1296C153.079 41.5296 153.279 41.1296 153.579 40.7296C153.879 40.3296 154.379 40.1296 154.979 40.1296H160.879V27.7296C160.879 27.0296 161.079 26.4297 161.579 26.0297C161.979 25.6297 162.579 25.4297 163.179 25.4297C163.779 25.4297 164.379 25.6297 164.779 26.0297C165.179 26.4297 165.479 27.0296 165.479 27.7296V51.3296V51.4297Z" fill="#275380"/>
<path d="M175.779 39.1289C175.179 39.1289 174.679 38.9289 174.279 38.5289C173.879 38.1289 173.779 37.7289 173.779 37.1289C173.779 36.5289 173.979 36.1289 174.279 35.7289C174.579 35.3289 175.079 35.1289 175.779 35.1289H198.479C199.079 35.1289 199.579 35.3289 199.979 35.7289C200.379 36.1289 200.479 36.5289 200.479 37.1289C200.479 37.7289 200.279 38.1289 199.979 38.5289C199.679 38.9289 199.179 39.1289 198.479 39.1289H175.779ZM175.979 52.929C175.979 51.329 176.279 49.8289 176.779 48.5289C177.379 47.2289 178.079 46.1289 179.079 45.1289C180.079 44.1289 181.279 43.429 182.579 42.929C183.879 42.429 185.479 42.1289 187.079 42.1289C188.679 42.1289 190.179 42.329 191.579 42.929C192.979 43.529 194.179 44.1289 195.179 45.1289C196.179 46.1289 196.979 47.2289 197.479 48.5289C198.079 49.8289 198.279 51.329 198.279 52.929C198.279 54.529 197.979 56.0289 197.479 57.3289C196.879 58.6289 196.179 59.7289 195.179 60.7289C194.179 61.7289 192.979 62.429 191.579 62.929C190.179 63.429 188.679 63.7289 187.079 63.7289C185.479 63.7289 183.879 63.529 182.579 62.929C181.279 62.329 179.979 61.7289 179.079 60.7289C178.079 59.8289 177.279 58.6289 176.779 57.3289C176.179 56.0289 175.979 54.529 175.979 52.929ZM181.279 31.8289C180.679 31.8289 180.179 31.6289 179.779 31.2289C179.379 30.8289 179.279 30.4289 179.279 29.8289C179.279 29.2289 179.479 28.829 179.779 28.429C180.079 28.029 180.579 27.8289 181.279 27.8289H192.879C193.479 27.8289 193.979 28.029 194.379 28.429C194.779 28.829 194.879 29.2289 194.879 29.8289C194.879 30.4289 194.679 30.8289 194.379 31.2289C194.079 31.6289 193.579 31.8289 192.879 31.8289H181.279ZM193.979 52.929C193.979 51.029 193.379 49.4289 192.279 48.1289C191.179 46.8289 189.479 46.2289 187.179 46.2289C184.879 46.2289 185.079 46.4289 184.279 46.7289C183.479 47.0289 182.779 47.5289 182.179 48.1289C181.579 48.7289 181.179 49.4289 180.879 50.2289C180.579 51.0289 180.479 51.9289 180.479 52.8289C180.479 54.7289 181.079 56.3289 182.179 57.6289C183.379 58.9289 184.979 59.5289 187.179 59.5289C189.379 59.5289 191.079 58.8289 192.279 57.6289C193.379 56.3289 193.979 54.7289 193.979 52.8289V52.929ZM209.879 69.1289C209.879 69.8289 209.679 70.3289 209.179 70.8289C208.779 71.2289 208.179 71.429 207.579 71.429C206.979 71.429 206.379 71.2289 205.979 70.8289C205.579 70.4289 205.279 69.9289 205.279 69.1289V27.929C205.279 27.229 205.479 26.6289 205.979 26.2289C206.379 25.8289 206.979 25.6289 207.579 25.6289C208.179 25.6289 208.779 25.8289 209.179 26.2289C209.579 26.6289 209.879 27.229 209.879 27.929V43.1289H215.979C216.579 43.1289 217.079 43.3289 217.379 43.7289C217.679 44.1289 217.879 44.5289 217.879 45.1289C217.879 45.7289 217.679 46.1289 217.379 46.5289C217.079 46.9289 216.579 47.1289 215.979 47.1289H209.879V69.2289V69.1289Z" fill="#275380"/>
<path d="M222.579 61.2289C222.379 60.8289 222.279 60.5289 222.379 60.2289C222.379 59.9289 222.479 59.629 222.679 59.429C222.879 59.229 222.979 59.0289 223.279 58.8289C223.479 58.6289 223.679 58.529 223.879 58.429C226.079 57.229 228.179 55.8289 230.179 54.2289C232.079 52.6289 233.879 50.8289 235.379 48.8289C236.879 46.9289 238.179 44.8289 239.079 42.6289C240.079 40.4289 240.679 38.229 240.879 35.929C240.879 35.029 240.879 34.5289 240.579 34.3289C240.279 34.1289 239.779 34.0289 239.379 34.0289H226.279C225.679 34.0289 225.179 33.8289 224.779 33.5289C224.379 33.2289 224.279 32.7289 224.279 32.1289C224.279 31.5289 224.479 31.1289 224.779 30.7289C225.079 30.3289 225.579 30.1289 226.279 30.1289H240.679C242.479 30.1289 243.879 30.4289 244.579 31.1289C245.379 31.8289 245.779 32.929 245.679 34.429C245.479 37.529 244.779 40.3289 243.779 43.0289C242.779 45.7289 241.379 48.2289 239.679 50.5289C237.979 52.8289 235.979 54.9289 233.679 56.8289C231.379 58.7289 228.879 60.3289 226.179 61.8289C225.979 61.8289 225.779 62.0289 225.479 62.0289C225.179 62.0289 224.879 62.2289 224.579 62.2289C224.279 62.2289 223.979 62.2289 223.579 62.0289C223.179 61.8289 222.979 61.6289 222.779 61.2289H222.579ZM259.379 69.1289C259.379 69.8289 259.179 70.3289 258.679 70.8289C258.279 71.2289 257.679 71.429 257.079 71.429C256.479 71.429 255.879 71.2289 255.479 70.8289C255.079 70.4289 254.779 69.9289 254.779 69.1289V27.929C254.779 27.229 254.979 26.6289 255.479 26.2289C255.879 25.8289 256.479 25.6289 257.079 25.6289C257.679 25.6289 258.279 25.8289 258.679 26.2289C259.079 26.6289 259.379 27.229 259.379 27.929V69.1289Z" fill="#275380"/>
</svg>
