<svg width="341" height="100" viewBox="0 0 341 100" fill="none" xmlns="http://www.w3.org/2000/svg">
<path d="M292.96 4.30078H48.9601C22.8371 4.30078 1.66016 25.4776 1.66016 51.6007V52.6007C1.66016 78.7238 22.8371 99.9008 48.9601 99.9008H292.96C319.083 99.9008 340.26 78.7238 340.26 52.6007V51.6007C340.26 25.4776 319.083 4.30078 292.96 4.30078Z" fill="#557B00"/>
<path d="M291.761 0.699219H47.7609C21.6379 0.699219 0.460938 21.8762 0.460938 47.9993V48.9993C0.460938 75.1223 21.6379 96.2993 47.7609 96.2993H291.761C317.884 96.2993 339.061 75.1223 339.061 48.9993V47.9993C339.061 21.8762 317.884 0.699219 291.761 0.699219Z" fill="#E2F7A5"/>
<path d="M93.7602 40.7C93.7602 44.3 94.3602 47.6 95.6602 50.6C96.8602 53.6 99.0601 56.3 101.96 58.5C102.06 58.5 102.16 58.7 102.36 58.9C102.56 59.1 102.66 59.3 102.76 59.6C102.86 59.9 102.86 60.1 102.86 60.4C102.86 60.7 102.76 61 102.46 61.3C102.26 61.6 101.96 61.9 101.66 62C101.36 62.1 101.06 62.2 100.76 62.1C100.46 62.1 100.16 62.1 99.9601 61.9C99.7601 61.7 99.5601 61.7 99.3601 61.6C98.6601 61.1 97.8602 60.4 97.1602 59.7C96.3602 58.9 95.6602 58.1 95.0602 57.1C94.3602 56.2 93.7602 55.2 93.1602 54.1C92.5602 53 90.9601 53 90.4601 54.1V54.3C89.8601 55.4 89.2601 56.5 88.4601 57.4C87.6601 58.3 86.9602 59.3 86.1602 60.1C85.3602 60.9 84.4602 61.6 83.6602 62.2C83.5602 62.2 83.3602 62.4 83.0602 62.5C82.8602 62.5 82.5602 62.7 82.2602 62.7C81.9602 62.7 81.6601 62.7 81.3601 62.6C81.0601 62.5 80.7602 62.3 80.5602 61.9C80.3602 61.6 80.1602 61.2 80.1602 61C80.1602 60.7 80.1602 60.4 80.2602 60.2C80.3602 60 80.4602 59.7 80.6602 59.5C80.8602 59.3 80.9602 59.2 81.0602 59.1C84.0602 56.9 86.1601 54.2 87.4601 51.1C88.7601 48 89.4601 44.5 89.4601 40.8V40.6C89.4601 39.8 88.7601 39.1 87.9601 39.1H82.6602C82.0602 39.1 81.5602 38.9 81.1602 38.5C80.7602 38.1 80.6602 37.7 80.6602 37.1C80.6602 36.5 80.8602 36.1 81.1602 35.7C81.5602 35.3 81.9602 35.1 82.6602 35.1H100.86C101.46 35.1 101.96 35.3 102.36 35.7C102.76 36.1 102.86 36.5 102.86 37.1C102.86 37.7 102.66 38.1 102.36 38.5C101.96 38.9 101.56 39.1 100.86 39.1H95.4601C94.5601 39.1 93.9601 39.8 93.9601 40.6L93.7602 40.7ZM86.3601 31.9C85.7601 31.9 85.2601 31.7 84.8601 31.3C84.4601 30.9 84.3601 30.5 84.3601 29.9C84.3601 29.3 84.5601 28.9 84.8601 28.5C85.2601 28.1 85.6601 27.9 86.3601 27.9H96.4601C97.0601 27.9 97.5601 28.1 97.9601 28.5C98.3601 28.9 98.4601 29.3 98.4601 29.9C98.4601 30.5 98.2601 30.9 97.9601 31.3C97.5601 31.7 97.1601 31.9 96.4601 31.9H86.3601ZM110.86 67C110.86 67.7 110.66 68.2 110.26 68.6C109.86 69 109.26 69.2 108.76 69.2C108.26 69.2 107.56 69 107.16 68.6C106.76 68.2 106.56 67.7 106.56 67V50.3C106.56 49.5 105.86 48.8 105.06 48.8H101.46C100.86 48.8 100.36 48.6 100.06 48.3C99.7602 48 99.5602 47.5 99.5602 46.9C99.5602 46.3 99.7602 45.9 100.06 45.5C100.46 45.1 100.86 44.9 101.46 44.9H105.06C105.96 44.9 106.56 44.2 106.56 43.4V28.9C106.56 28.2 106.76 27.7 107.16 27.2C107.56 26.8 108.06 26.6 108.76 26.6C109.46 26.6 109.86 26.8 110.26 27.2C110.66 27.6 110.86 28.1 110.86 28.9V67.1V67ZM119.86 69.3C119.86 70 119.66 70.5 119.26 70.9C118.86 71.3 118.26 71.5 117.76 71.5C117.26 71.5 116.56 71.3 116.16 70.9C115.76 70.5 115.56 70 115.56 69.3V27.8C115.56 27.1 115.76 26.6 116.16 26.1C116.56 25.6 117.16 25.5 117.76 25.5C118.36 25.5 118.86 25.7 119.26 26.1C119.66 26.5 119.86 27 119.86 27.8V69.3Z" fill="#557B00"/>
<path d="M129.461 36.6C128.861 36.6 128.361 36.4 127.961 36C127.561 35.6 127.461 35.2 127.461 34.6C127.461 34 127.661 33.6 127.961 33.2C128.361 32.8 128.761 32.6 129.461 32.6H152.161C152.761 32.6 153.261 32.8 153.661 33.2C154.061 33.6 154.161 34 154.161 34.6C154.161 35.2 153.961 35.6 153.661 36C153.261 36.4 152.861 36.6 152.161 36.6H129.461ZM130.561 46.3C130.561 43.9 131.461 42 133.361 40.6C135.261 39.2 137.661 38.5 140.861 38.5C144.061 38.5 146.561 39.2 148.361 40.5C150.161 41.8 151.161 43.7 151.161 46.2C151.161 48.7 150.261 50.6 148.361 51.9C146.461 53.2 144.061 53.9 140.861 53.9C137.661 53.9 135.261 53.2 133.361 51.8C131.461 50.4 130.561 48.5 130.561 46.1V46.3ZM135.061 30.4C134.461 30.4 133.961 30.2 133.561 29.8C133.161 29.4 133.061 29 133.061 28.4C133.061 27.8 133.261 27.4 133.561 27C133.961 26.6 134.361 26.4 135.061 26.4H146.661C147.261 26.4 147.761 26.6 148.161 27C148.561 27.4 148.661 27.8 148.661 28.4C148.661 29 148.461 29.4 148.161 29.8C147.761 30.2 147.361 30.4 146.661 30.4H135.061ZM146.661 46.3C146.661 45.8 146.561 45.3 146.361 44.8C146.161 44.3 145.861 43.9 145.361 43.5C144.861 43.1 144.361 42.8 143.561 42.6C142.861 42.4 141.961 42.3 140.761 42.3C139.561 42.3 138.861 42.4 138.161 42.6C137.461 42.8 136.861 43.1 136.361 43.5C135.861 43.9 135.561 44.3 135.361 44.7C135.161 45.2 135.061 45.7 135.061 46.2C135.061 47.3 135.461 48.3 136.361 49C137.261 49.8 138.761 50.2 140.761 50.2C142.761 50.2 142.761 50.1 143.561 49.9C144.261 49.7 144.861 49.4 145.361 49C145.861 48.6 146.161 48.2 146.361 47.7C146.561 47.2 146.661 46.7 146.661 46.2V46.3ZM165.661 66.9C165.661 68.3 165.261 69.4 164.561 70.1C163.861 70.9 162.661 71.3 161.061 71.3H139.861C138.261 71.3 137.061 70.9 136.361 70.1C135.661 69.3 135.261 68.3 135.261 66.9V60.6C135.261 59.2 135.661 58.1 136.361 57.4C137.061 56.6 138.261 56.2 139.861 56.2H161.061C162.661 56.2 163.861 56.6 164.561 57.4C165.261 58.2 165.661 59.2 165.661 60.6V66.9ZM139.961 65.7C139.961 66.4 140.061 66.9 140.361 67.2C140.661 67.5 141.061 67.6 141.761 67.6H159.361C160.061 67.6 160.461 67.4 160.761 67.2C161.061 66.9 161.161 66.4 161.161 65.7V62C161.161 61.3 161.061 60.8 160.761 60.5C160.461 60.2 160.061 60.1 159.361 60.1H141.761C141.061 60.1 140.661 60.3 140.361 60.5C140.061 60.8 139.961 61.3 139.961 62V65.7ZM165.661 51.5C165.661 52.2 165.461 52.7 164.961 53.2C164.461 53.7 163.961 53.8 163.361 53.8C162.761 53.8 162.161 53.6 161.761 53.2C161.361 52.8 161.161 52.3 161.161 51.5V45.7C161.161 44.9 160.461 44.2 159.661 44.2H155.261C154.661 44.2 154.161 44 153.861 43.6C153.561 43.2 153.361 42.8 153.361 42.2C153.361 41.6 153.561 41.2 153.861 40.8C154.261 40.4 154.661 40.2 155.261 40.2H159.661C160.561 40.2 161.161 39.5 161.161 38.7V27.8C161.161 27.1 161.361 26.5 161.761 26.1C162.161 25.7 162.761 25.5 163.361 25.5C163.961 25.5 164.561 25.7 164.961 26.1C165.461 26.5 165.661 27.1 165.661 27.8V51.4V51.5Z" fill="#557B00"/>
<path d="M175.961 39.1016C175.361 39.1016 174.861 38.9016 174.461 38.5016C174.061 38.1016 173.961 37.7016 173.961 37.1016C173.961 36.5016 174.161 36.1015 174.461 35.7015C174.861 35.3015 175.261 35.1016 175.961 35.1016H198.661C199.261 35.1016 199.761 35.3015 200.161 35.7015C200.561 36.1015 200.661 36.5016 200.661 37.1016C200.661 37.7016 200.461 38.1016 200.161 38.5016C199.761 38.9016 199.361 39.1016 198.661 39.1016H175.961ZM176.161 52.9016C176.161 51.3016 176.461 49.8016 176.961 48.5016C177.461 47.2016 178.261 46.1016 179.261 45.1016C180.261 44.1016 181.461 43.4016 182.761 42.9016C184.161 42.4016 185.661 42.1016 187.261 42.1016C188.861 42.1016 190.361 42.3016 191.761 42.9016C193.161 43.4016 194.361 44.1016 195.361 45.1016C196.361 46.1016 197.161 47.2016 197.661 48.5016C198.161 49.8016 198.461 51.3016 198.461 52.9016C198.461 54.5016 198.161 56.0016 197.661 57.3016C197.161 58.6016 196.361 59.7015 195.361 60.7015C194.361 61.7015 193.161 62.4016 191.761 62.9016C190.361 63.4016 188.861 63.7015 187.261 63.7015C185.661 63.7015 184.061 63.5016 182.761 62.9016C181.361 62.4016 180.261 61.7015 179.261 60.7015C178.261 59.8015 177.461 58.6016 176.961 57.3016C176.461 56.0016 176.161 54.5016 176.161 52.9016ZM181.461 31.9016C180.861 31.9016 180.361 31.7016 179.961 31.3016C179.561 30.9016 179.461 30.5016 179.461 29.9016C179.461 29.3016 179.661 28.9016 179.961 28.5016C180.361 28.1016 180.761 27.9016 181.461 27.9016H193.061C193.661 27.9016 194.161 28.1016 194.561 28.5016C194.961 28.9016 195.061 29.3016 195.061 29.9016C195.061 30.5016 194.861 30.9016 194.561 31.3016C194.161 31.7016 193.761 31.9016 193.061 31.9016H181.461ZM194.161 52.9016C194.161 51.0016 193.561 49.4016 192.461 48.1016C191.361 46.8016 189.661 46.2015 187.361 46.2015C185.061 46.2015 185.261 46.4015 184.461 46.7015C183.661 47.0015 182.961 47.5016 182.361 48.1016C181.761 48.7016 181.361 49.4015 181.061 50.2015C180.761 51.0015 180.661 51.9016 180.661 52.8016C180.661 54.7016 181.261 56.3016 182.361 57.6016C183.461 58.9016 185.161 59.5016 187.361 59.5016C189.561 59.5016 191.361 58.8016 192.461 57.6016C193.561 56.3016 194.161 54.7016 194.161 52.8016V52.9016ZM210.061 69.1016C210.061 69.8016 209.861 70.3016 209.361 70.8016C208.861 71.3016 208.361 71.4016 207.761 71.4016C207.161 71.4016 206.561 71.2016 206.161 70.8016C205.761 70.4016 205.561 69.9016 205.561 69.1016V27.9016C205.561 27.2016 205.761 26.6015 206.161 26.2015C206.561 25.8015 207.161 25.6016 207.761 25.6016C208.361 25.6016 208.961 25.8015 209.361 26.2015C209.861 26.6015 210.061 27.2016 210.061 27.9016V41.6016C210.061 42.4016 210.761 43.1016 211.561 43.1016H216.161C216.761 43.1016 217.261 43.3015 217.561 43.7015C217.861 44.1015 218.061 44.5016 218.061 45.1016C218.061 45.7016 217.861 46.1016 217.561 46.5016C217.161 46.9016 216.761 47.1016 216.161 47.1016H211.561C210.661 47.1016 210.061 47.8016 210.061 48.6016V69.2015V69.1016Z" fill="#557B00"/>
<path d="M222.761 61.3016C222.561 60.9016 222.461 60.6016 222.561 60.3016C222.561 60.0016 222.661 59.7016 222.861 59.5016C223.061 59.3016 223.161 59.1016 223.361 58.9016C223.561 58.7016 223.761 58.6016 223.961 58.5016C226.161 57.3016 228.261 55.9016 230.261 54.3016C232.261 52.7016 233.961 50.9016 235.461 48.9016C236.961 46.9016 238.261 44.9015 239.161 42.7015C240.161 40.5015 240.761 38.3016 241.061 36.0016C241.161 35.1016 241.061 34.6016 240.661 34.4016C240.361 34.2016 239.861 34.1016 239.461 34.1016H226.361C225.761 34.1016 225.261 33.9016 224.861 33.6016C224.461 33.3016 224.361 32.8015 224.361 32.2015C224.361 31.6015 224.561 31.2016 224.861 30.8016C225.261 30.4016 225.661 30.2015 226.361 30.2015H240.761C242.561 30.2015 243.861 30.5015 244.661 31.2015C245.461 31.9015 245.761 33.0016 245.661 34.5016C245.461 37.6016 244.761 40.4016 243.761 43.1016C242.761 45.8016 241.361 48.3016 239.661 50.6016C237.961 52.9016 235.961 55.0016 233.661 56.9016C231.361 58.8016 228.861 60.4016 226.161 61.9016C225.961 61.9016 225.761 62.1016 225.461 62.1016C225.161 62.1016 224.861 62.3016 224.561 62.3016C224.261 62.3016 223.961 62.3016 223.561 62.1016C223.161 61.9016 222.961 61.7016 222.761 61.3016ZM259.561 69.1016C259.561 69.8016 259.361 70.3016 258.861 70.8016C258.361 71.3016 257.861 71.4016 257.261 71.4016C256.661 71.4016 256.061 71.2016 255.661 70.8016C255.261 70.4016 255.061 69.9016 255.061 69.1016V27.9016C255.061 27.2016 255.261 26.6015 255.661 26.2015C256.061 25.8015 256.661 25.6016 257.261 25.6016C257.861 25.6016 258.461 25.8015 258.861 26.2015C259.361 26.6015 259.561 27.2016 259.561 27.9016V69.1016Z" fill="#557B00"/>
</svg>
