<svg width="452" height="259" viewBox="0 0 452 259" fill="none" xmlns="http://www.w3.org/2000/svg">
<path d="M34.5931 246.331C34.5931 246.331 43.495 240.669 49.5472 238.797C57.1862 236.435 67.459 237.893 67.459 237.893" stroke="#FFC900" stroke-width="11" stroke-linecap="round"/>
<path d="M168.383 92C168.383 92 192.947 113.466 202.383 131.5C211.473 148.875 215.383 180 215.383 180" stroke="#52FB78" stroke-width="11" stroke-linecap="round" stroke-linejoin="round"/>
<path d="M79.8828 81.5C79.8828 81.5 117.703 97.1169 146.383 125C182.383 160 189.883 208.5 189.883 208.5" stroke="#62DBFB" stroke-width="11" stroke-linecap="round" stroke-linejoin="round"/>
<path d="M60.3828 171C60.3828 171 89.203 172.617 117.883 200.5C144.383 226.264 153.883 253 153.883 253" stroke="#FD200D" stroke-width="11" stroke-linecap="round" stroke-linejoin="round"/>
<path d="M149.383 61L149.383 51" stroke="#FFC900" stroke-width="10" stroke-linecap="round" stroke-linejoin="round"/>
<path d="M149.383 87L149.383 77" stroke="#FFC900" stroke-width="10" stroke-linecap="round" stroke-linejoin="round"/>
<path d="M157.383 69L167.383 69" stroke="#FFC900" stroke-width="10" stroke-linecap="round" stroke-linejoin="round"/>
<path d="M131.383 69L141.383 69" stroke="#FFC900" stroke-width="10" stroke-linecap="round" stroke-linejoin="round"/>
<path d="M102.383 134L102.383 124" stroke="#FF5A9A" stroke-width="10" stroke-linecap="round" stroke-linejoin="round"/>
<path d="M102.383 160L102.383 150" stroke="#FF5A9A" stroke-width="10" stroke-linecap="round" stroke-linejoin="round"/>
<path d="M110.383 142L120.383 142" stroke="#FF5A9A" stroke-width="10" stroke-linecap="round" stroke-linejoin="round"/>
<path d="M84.3828 142L94.3828 142" stroke="#FF5A9A" stroke-width="10" stroke-linecap="round" stroke-linejoin="round"/>
<path d="M23.8005 135.828C24.3537 133.554 27.1827 132.761 28.8374 134.417L35.9898 141.573C36.6083 142.192 37.466 142.51 38.3383 142.444L48.4273 141.68C50.7614 141.503 52.3897 143.949 51.3264 146.034L46.7305 155.048C46.3331 155.827 46.2957 156.741 46.6281 157.55L50.4723 166.91C51.3617 169.075 49.539 171.379 47.2271 171.012L37.2342 169.427C36.3702 169.29 35.4894 169.537 34.8225 170.103L27.1094 176.651C25.3249 178.166 22.5702 177.144 22.2046 174.832L20.6246 164.839C20.488 163.975 19.9811 163.213 19.2365 162.754L10.6253 157.442C8.63303 156.213 8.75315 153.277 10.8391 152.215L19.8556 147.624C20.6351 147.227 21.2026 146.51 21.4094 145.66L23.8005 135.828Z" fill="#FFC900"/>
<circle cx="44.3828" cy="105" r="13" fill="#4EED71"/>
<circle cx="120.383" cy="19" r="19" fill="#62DBFB"/>
<path d="M188.988 30.5032C191.352 43.8962 212.821 60.6842 224.988 72.5176C237.155 60.6842 258.625 43.8962 260.989 30.5032C263.989 13.5032 255.498 3.80435 242.989 4.003C234.203 4.14252 224.988 14.5176 224.988 14.5176C224.988 14.5176 215.774 4.14268 206.988 4.003C194.479 3.80412 185.988 13.5032 188.988 30.5032Z" fill="#FD200D"/>
<path d="M39.0238 53.6748C42.6083 61.3586 58.246 68.004 67.482 73.1667C72.8993 64.0776 83.1196 50.5036 82.3819 42.0571C81.4457 31.3357 74.7673 26.8652 67.2665 29.0033C61.9983 30.5049 58.1233 38.2396 58.1233 38.2396C58.1233 38.2396 50.9004 33.4787 45.5873 34.8122C38.0224 36.7109 34.4739 43.9217 39.0238 53.6748Z" fill="#FE5694"/>
<path d="M417.383 246.331C417.383 246.331 408.482 240.669 402.429 238.797C394.79 236.435 384.518 237.893 384.518 237.893" stroke="#FFC900" stroke-width="11" stroke-linecap="round"/>
<path d="M283.594 92C283.594 92 259.029 113.466 249.594 131.5C240.503 148.875 236.594 180 236.594 180" stroke="#52FB78" stroke-width="11" stroke-linecap="round" stroke-linejoin="round"/>
<path d="M372.094 81.5C372.094 81.5 334.274 97.1169 305.594 125C269.594 160 262.094 208.5 262.094 208.5" stroke="#62DBFB" stroke-width="11" stroke-linecap="round" stroke-linejoin="round"/>
<path d="M391.594 171C391.594 171 362.774 172.617 334.094 200.5C307.594 226.264 298.094 253 298.094 253" stroke="#FD200D" stroke-width="11" stroke-linecap="round" stroke-linejoin="round"/>
<path d="M302.594 61L302.594 51" stroke="#FFC900" stroke-width="10" stroke-linecap="round" stroke-linejoin="round"/>
<path d="M302.594 87L302.594 77" stroke="#FFC900" stroke-width="10" stroke-linecap="round" stroke-linejoin="round"/>
<path d="M294.594 69L284.594 69" stroke="#FFC900" stroke-width="10" stroke-linecap="round" stroke-linejoin="round"/>
<path d="M320.594 69L310.594 69" stroke="#FFC900" stroke-width="10" stroke-linecap="round" stroke-linejoin="round"/>
<path d="M349.594 134L349.594 124" stroke="#FF5A9A" stroke-width="10" stroke-linecap="round" stroke-linejoin="round"/>
<path d="M349.594 160L349.594 150" stroke="#FF5A9A" stroke-width="10" stroke-linecap="round" stroke-linejoin="round"/>
<path d="M341.594 142L331.594 142" stroke="#FF5A9A" stroke-width="10" stroke-linecap="round" stroke-linejoin="round"/>
<path d="M367.594 142L357.594 142" stroke="#FF5A9A" stroke-width="10" stroke-linecap="round" stroke-linejoin="round"/>
<path d="M428.176 135.828C427.623 133.554 424.794 132.761 423.139 134.417L415.987 141.573C415.368 142.192 414.511 142.51 413.638 142.444L403.549 141.68C401.215 141.503 399.587 143.949 400.65 146.034L405.246 155.048C405.643 155.827 405.681 156.741 405.348 157.55L401.504 166.91C400.615 169.075 402.438 171.379 404.749 171.012L414.742 169.427C415.606 169.29 416.487 169.537 417.154 170.103L424.867 176.651C426.652 178.166 429.406 177.144 429.772 174.832L431.352 164.839C431.489 163.975 431.996 163.213 432.74 162.754L441.351 157.442C443.344 156.213 443.223 153.277 441.137 152.215L432.121 147.624C431.341 147.227 430.774 146.51 430.567 145.66L428.176 135.828Z" fill="#FFC900"/>
<circle cx="13" cy="13" r="13" transform="matrix(-1 0 0 1 420.594 92)" fill="#4EED71"/>
<circle cx="19" cy="19" r="19" transform="matrix(-1 0 0 1 350.594 0)" fill="#62DBFB"/>
<path d="M412.953 53.6748C409.368 61.3586 393.731 68.004 384.495 73.1667C379.077 64.0776 368.857 50.5036 369.595 42.0571C370.531 31.3357 377.209 26.8652 384.71 29.0033C389.978 30.5049 393.853 38.2396 393.853 38.2396C393.853 38.2396 401.076 33.4787 406.389 34.8122C413.954 36.7109 417.503 43.9217 412.953 53.6748Z" fill="#FE5694"/>
</svg>
