<?xml version="1.0" encoding="UTF-8"?>
<svg id="_레이어_2" data-name="레이어 2" xmlns="http://www.w3.org/2000/svg" width="658" height="1605" viewBox="0 0 658 1605">
  <g id="_레이어_1-2" data-name="레이어 1">
    <g>
      <path d="m592,4.3c-15.9,7-25.9,23-25.9,40.4v33.2c0,16.6-13.4,30-30,30h-202.2c-.4,0-.7,0-1.1,0-.7,0-1.5,0-2.2,0h0c-92.7,0-168.5,75.8-168.5,168.5v116.8c0,5.3-4.2,9.7-9.5,10C68.3,408.5,1,479.1,1,564.6v4.9c0,88.9,72.7,161.6,161.6,161.6h373.4c16.6,0,30,13.4,30,30v301c0,18.2-14.8,33-33,33h-1c-18.2,0-33-14.8-33-33v-107.5c0-114.1-93.4-207.5-207.5-207.5h0c-114.1,0-207.5,93.4-207.5,207.5v216c0,108.7,84.7,198.5,191.3,206.9,2.1.4,4.3.6,6.5.6h254.2c16.6,0,30,13.4,30,30v150.3c0,23.8,17.8,44.3,41.6,46.5s50.4-19,50.4-45.8V46c0-31.8-32.6-56.3-66.1-41.7Zm-173.9,1155.7c0,70.1-57.4,127.5-127.5,127.5h0c-70.1,0-127.5-57.4-127.5-127.5v-196.6c0-70.1,57.4-127.5,127.5-127.5h0c70.1,0,127.5,57.4,127.5,127.5v196.6Zm93-521h-22.5c-4.4,0-8-3.6-8-8,.1-24,.7-42.9.7-67.7l-.2-286.8c0-24.9-.4-43.6-.5-68.5,0-4.4,3.6-8,8-8h22.5c30.4,0,55,24.6,55,55v329c0,30.4-24.6,55-55,55Z" fill="#ebe2db" stroke-width="0"/>
      <rect x="0" y="1036" width="139.9" height="80" rx="40" ry="40" fill="#ebe2db" stroke-width="0"/>
    </g>
  </g>
</svg>