<?xml version="1.0" encoding="UTF-8"?>
<svg id="_레이어_2" data-name="레이어 2" xmlns="http://www.w3.org/2000/svg" width="866.4" height="712.2" xmlns:xlink="http://www.w3.org/1999/xlink" viewBox="0 0 288.8 237.4">
  <defs>
    <clipPath id="clippath">
      <path d="m67.2,39.4c1.2-.8.8-2.7-.6-3-5.7-1.4-16.8-4.7-25-10.9-8.2-6.3-11.2-14.6-12.2-19.5s-2.3-1.8-3.1-.5c-3.2,5.5-7,17.2,3.2,32.3,6.8,10,15.7,13.4,18.3,14.4s1.1.1,1.6-.2l17.8-12.5Z" fill="#a3a3a3" stroke-width="0"/>
    </clipPath>
    <clipPath id="clippath-1">
      <path d="m113.1.9c-3.8,8.7-14,26.6-35,35.4-2.9,1.2-4.5,4.2-4,7.3s1.2,4.4,3.1,6.3c9.1,9.1,20.9.7,20.9.7,0,0,9.1-4.9,15.3-19.2,4.3-9.9,3.4-23,2.5-30.3s-2.2-1.7-2.8-.4Z" fill="#a3a3a3" stroke-width="0"/>
    </clipPath>
  </defs>
  <g id="Layer_3" data-name="Layer 3">
    <g>
      <g>
        <path d="m67.2,39.4c1.2-.8.8-2.7-.6-3-5.7-1.4-16.8-4.7-25-10.9-8.2-6.3-11.2-14.6-12.2-19.5s-2.3-1.8-3.1-.5c-3.2,5.5-7,17.2,3.2,32.3,6.8,10,15.7,13.4,18.3,14.4s1.1.1,1.6-.2l17.8-12.5Z" fill="#a3a3a3"/>
        <g clip-path="url(#clippath)">
          <path d="m27.8,46.9c7.5.8,15.8,1.5,22.3-3s5.3-4.7,7.2-7.7,4.1-7,3.8-10.9-3.2-1.9-3,0c.3,3.5-1.6,6.8-3.5,9.6s-4,5.2-6.7,6.9c-6,3.7-13.5,2.9-20.2,2.1s-1.9,2.8,0,3h0Z" fill="#a3a3a3" stroke-width="0"/>
          <path d="m63,30.1c-6.1-.3-12.3,2-16.8,6.1s-7.4,10-7.7,16.2" fill="none" stroke="#919090" stroke-miterlimit="10" stroke-width="2"/>
          <path d="m54.8,25.4c-6.1-.3-12.3,2-16.8,6.1s-7.4,10-7.7,16.2" fill="none" stroke="#919090" stroke-miterlimit="10" stroke-width="2"/>
          <path d="m48,17.9c-6.1-.3-12.3,2-16.8,6.1s-7.4,10-7.7,16.2" fill="none" stroke="#919090" stroke-miterlimit="10" stroke-width="2"/>
          <path d="m44.4,11.9c-5.9-1.5-12.4-.5-17.7,2.6-5.3,3.1-9.2,8.4-10.8,14.3" fill="none" stroke="#919090" stroke-miterlimit="10" stroke-width="2"/>
        </g>
      </g>
      <path d="m56.9,36.2s-16.6,3.7-28.2,4.4-5.8,4.3-3.7,7.4c3.1,4.5,8,7.8,13.4,8.6,8.1,1.2,16.8-3.4,20.3-10.8l-1.7-9.6Z" fill="#a5723f" stroke-width="0"/>
      <g>
        <path d="m203.4,225.9c4.3-11.4,17.9-30.1,17.1-40.1-.9-9.9-11.1-1.9-7.7-33.6l-50.8,26c-.2,6.3,5.2,11.3,10.6,14.6,5.4,3.3,11.8,6.3,14.2,12.1,3.7,8.8-1,19.1-1,19.1l17.6,1.9Z" fill="#aa733d" stroke-width="0"/>
        <path d="m185.6,223.8c-.8,2-1.5,3.8-2.2,5.1-.9,1.8.2,4,2.2,4.4,4.8.9,9,.9,11.9.7,2.3-.1,4.2-1.7,4.9-3.9.4-1.4.9-3.2,1.5-5.3-6.1.2-12.2,0-18.2-1Z" fill="#565e59" stroke-width="0"/>
      </g>
      <path d="m113.5,69.1c-7.9-7.1-12.5-17-20.1-24.5-7.6-7.5-17.9-13.5-28.5-11.7-11.6,1.9-19.7,12.3-26.2,22.1-6.5,9.8-13.5,20.6-24.8,24.1-3.1,1-6.4,1.4-8.9,3.5-2.5,2.1-3.4,5.7-3,8.9.4,3.2,1.9,6.2,3.8,9,11,16.6,33,24.9,52.2,19.7l55.4-51.1Z" fill="#cc8e50" stroke-width="0"/>
      <g>
        <path d="m92.2,186c6.7,6.1,8,13.8,6.7,22.8-1.4,9.9-4.6,18-6.7,22.3s.2,4,2.2,4.4c4.8.9,9,.9,11.9.7s4.2-1.7,4.9-3.9c2.2-7.9,10.1-33.3,10.5-42.1l-29.5-4.2Z" fill="#a87038" stroke-width="0"/>
        <path d="m94.4,226c-.8,2-1.5,3.8-2.2,5.1-.9,1.8.2,4,2.2,4.4,4.8.9,9,.9,11.9.7,2.3-.1,4.2-1.7,4.9-3.9.4-1.4.9-3.2,1.5-5.3-6.1.2-12.2,0-18.2-1Z" fill="#565e59" stroke-width="0"/>
      </g>
      <path d="m54.5,118.1c1.6,25.1,11.5,51.1,32,65,11.1,7.5,24.4,10.9,37.7,11.9,13.2,1,26.5-.2,39.8-1.1,11.9-.9,23.9-1.6,35.5-4.7,11.6-3.1,22.8-8.7,30.6-17.9,9.5-11.2,13-26.4,14.2-41.2.8-9.5.7-19.2-1.6-28.4-2.3-9.2-7-18-14.2-24.1-10.7-8.9-25.6-10.6-39.4-9.3-13.7,1.4-27.1,5.5-40.9,6.8s-28.6-.6-39.2-9.7l-54.5,52.7Z" fill="#cc8e50" stroke-width="0"/>
      <g>
        <path d="m119.3,187.1c6.7,6.1,8,13.8,6.7,22.8-1.4,9.9-4.6,18-6.7,22.3s.2,4,2.2,4.4c4.8.9,9,.9,11.9.7s4.2-1.7,4.9-3.9c2.2-7.9,10.1-33.3,10.5-42.1l-29.5-4.2Z" fill="#cc8e50" stroke-width="0"/>
        <path d="m121.6,227.1c-.8,2-1.5,3.8-2.2,5.1-.9,1.8.2,4,2.2,4.4,4.8.9,9,.9,11.9.7,2.3-.1,4.2-1.7,4.9-3.9.4-1.4.9-3.2,1.5-5.3-6.1.2-12.2,0-18.2-1Z" fill="#646d68" stroke-width="0"/>
      </g>
      <g>
        <path d="m230.3,226.4c4.3-11.4,17.9-30.1,17.1-40.1s-11.1-1.9-7.7-33.6l-50.8,26c-.2,6.3,5.2,11.3,10.6,14.6s11.8,6.3,14.2,12.1c3.7,8.8-1,19.1-1,19.1l17.6,1.9Z" fill="#cc8e50" stroke-width="0"/>
        <path d="m212.5,224.3c-.8,2-1.5,3.8-2.2,5.1-.9,1.8.2,4,2.2,4.4,4.8.9,9,.9,11.9.7,2.3-.1,4.2-1.7,4.9-3.9.4-1.4.9-3.2,1.5-5.3-6.1.2-12.2,0-18.2-1Z" fill="#646d68" stroke-width="0"/>
      </g>
      <path d="m266.6,150.7c1.4-1.6,3-3.2,4.6-4.7-13.3-22.6-1.1-50.4-12.4-71.8-9.4-15.6-29-8.1-37.6,4.1-1.1,2.6,1,5.1,2.4,7.2,1.9,2.1,4.9,8.2,7.4,7.9h0c2.4-.9,4.3-3.5,7-4.1,5.7-2,12,.6,15.6,5.2,5.5,6.6,5.7,15.6,5.3,23.9-.9,11.6.2,23,7.8,32.2Z" fill="#cc8e50" stroke-width="0"/>
      <path d="m266.4,148.5c-3.4,3.6-4.6,9-3.3,13.7,1.3,4.7,4.9,8.7,9.4,10.7,2.6,1.1,5.4,1.6,8.1,2.5s5.4,2.3,6.8,4.7c1.7-7.5,1.8-15.4.2-22.9-2.1-10.2-12.5-17.8-21.3-8.6Z" fill="#845628" stroke-width="0"/>
      <path d="m79,35.2c13.5,5.9,28.9,7.3,43.3,4.2,2.9-.6,5.3,2.4,3.8,5-3.8,6.8-10.1,12.2-17.8,14s-22.2-2.4-26.3-11.7l-3-11.6Z" fill="#cc8e50" stroke-width="0"/>
      <path d="m23.2,81.3c-3.6-.1-7.2-1.4-10.8-1.9s-7.7.2-10.2,3.1c-2.5,2.9-2.8,7.4-1.5,11.1s4.1,6.5,7.1,8.6c8.1,5.5,18.8,6,27.2,1.1,3.7-2.1,7.1-5.3,8.9-9.4s2.5-10-.5-13.2c-6.7-7.1-12.9.8-20.2.5Z" fill="#845628" stroke-width="0"/>
      <path d="m5.2,97.8c2-1.5,4.8-1.8,7-.7s3.8,3.3,4,5.8" fill="none" stroke="#633913" stroke-miterlimit="10"/>
      <path d="m27.9,103.3c.2-2.1,1.4-4.1,3.3-5.4s4.4-1.8,6.7-1.5" fill="none" stroke="#633913" stroke-miterlimit="10" stroke-width="1.3"/>
      <g>
        <path d="m113.1.9c-3.8,8.7-14,26.6-35,35.4-2.9,1.2-4.5,4.2-4,7.3s1.2,4.4,3.1,6.3c9.1,9.1,20.9.7,20.9.7,0,0,9.1-4.9,15.3-19.2,4.3-9.9,3.4-23,2.5-30.3s-2.2-1.7-2.8-.4Z" fill="#a3a3a3"/>
        <g clip-path="url(#clippath-1)">
          <path d="m80.5,31.2c-1.6,5.7.3,12.2,4.6,16.3s10.9,5.5,16.5,3.5" fill="none" stroke="#919090" stroke-miterlimit="10" stroke-width="2"/>
          <path d="m89,24.4c-1.6,5.7.3,12.2,4.6,16.3s10.9,5.5,16.5,3.5" fill="none" stroke="#919090" stroke-miterlimit="10" stroke-width="2"/>
          <path d="m95,17.3c-1.1,5.8,1.2,12.2,5.8,15.9,4.6,3.7,11.3,4.7,16.8,2.4" fill="none" stroke="#919090" stroke-miterlimit="10" stroke-width="2"/>
          <path d="m100.4,7.4c-1.1,5.8,1.2,12.2,5.8,15.9s11.3,4.7,16.8,2.4" fill="none" stroke="#919090" stroke-miterlimit="10" stroke-width="2"/>
          <path d="m103.3-.8c-.4,5.9,2.6,11.9,7.7,15.1s11.8,3.3,16.9.3" fill="none" stroke="#919090" stroke-miterlimit="10" stroke-width="2"/>
        </g>
      </g>
      <path d="m42,111.8c4.5,1.3,9.6.4,13.3-2.4s6-7.5,6-12.2" fill="none" stroke="#93561b" stroke-linecap="round" stroke-linejoin="round" stroke-width="2"/>
      <ellipse cx="71.1" cy="64.2" rx="5.8" ry="7.1" fill="#454746" stroke-width="0"/>
      <path d="m91,101.2c-9,10.6-22,17.8-35.8,19.9.6,6.8,1.8,13.7,3.7,20.3,14.8-9.3,26.3-23.7,32.1-40.2Z" fill="#b27b44" stroke-width="0"/>
      <ellipse cx="74.3" cy="62.6" rx="1.1" ry="1.4" fill="#fff" stroke-width="0"/>
    </g>
  </g>
</svg>