<?xml version="1.0" encoding="UTF-8"?>
<svg id="_레이어_2" data-name="레이어 2" xmlns="http://www.w3.org/2000/svg" width="144" height="100.1" viewBox="0 0 144 100.1">
  <g id="ticket">
    <g>
      <path d="m47.4,0h96.6v94.8H47.4C21.2,94.8,0,73.6,0,47.4H0C0,21.2,21.2,0,47.4,0Z" fill="#275380" stroke-width="0"/>
      <path d="m47.4,5.3h96.6v94.8H47.4C21.2,100.1,0,78.8,0,52.7H0C0,26.5,21.2,5.3,47.4,5.3Z" fill="#bfe2ff" stroke-width="0"/>
      <g>
        <circle cx="49.7" cy="52.8" r="35.3" fill="none" stroke="#275380" stroke-miterlimit="10" stroke-width="5.5"/>
        <line x1="49.7" y1="24.3" x2="49.7" y2="28.7" fill="none" stroke="#275380" stroke-linecap="round" stroke-miterlimit="10" stroke-width="4.1"/>
        <line x1="24.6" y1="53.3" x2="20.2" y2="53.3" fill="none" stroke="#275380" stroke-linecap="round" stroke-miterlimit="10" stroke-width="4.1"/>
        <g>
          <line x1="25.1" y1="65.7" x2="23.1" y2="66.9" fill="none" stroke="#275380" stroke-linecap="round" stroke-miterlimit="10" stroke-width="1.4"/>
          <line x1="35.3" y1="76.9" x2="34.2" y2="78.9" fill="none" stroke="#275380" stroke-linecap="round" stroke-miterlimit="10" stroke-width="1.4"/>
        </g>
        <g>
          <line x1="74.2" y1="65.6" x2="76.2" y2="66.7" fill="none" stroke="#275380" stroke-linecap="round" stroke-miterlimit="10" stroke-width="1.4"/>
          <line x1="64" y1="76.7" x2="65.1" y2="78.7" fill="none" stroke="#275380" stroke-linecap="round" stroke-miterlimit="10" stroke-width="1.4"/>
        </g>
        <g>
          <line x1="25.1" y1="41.3" x2="23.1" y2="40.1" fill="none" stroke="#275380" stroke-linecap="round" stroke-miterlimit="10" stroke-width="1.4"/>
          <line x1="35.3" y1="30.1" x2="34.2" y2="28.1" fill="none" stroke="#275380" stroke-linecap="round" stroke-miterlimit="10" stroke-width="1.4"/>
        </g>
        <g>
          <line x1="74.2" y1="41.4" x2="76.2" y2="40.3" fill="none" stroke="#275380" stroke-linecap="round" stroke-miterlimit="10" stroke-width="1.4"/>
          <line x1="64" y1="30.2" x2="65.1" y2="28.3" fill="none" stroke="#275380" stroke-linecap="round" stroke-miterlimit="10" stroke-width="1.4"/>
        </g>
        <line x1="78.9" y1="53.3" x2="74.4" y2="53.3" fill="none" stroke="#275380" stroke-linecap="round" stroke-miterlimit="10" stroke-width="4.1"/>
        <line x1="49.7" y1="78.4" x2="49.7" y2="82.9" fill="none" stroke="#275380" stroke-linecap="round" stroke-miterlimit="10" stroke-width="4.1"/>
        <text transform="translate(39.4 57.9)" fill="#275380" font-family="TTGulimH, &apos;210 Gulim&apos;" font-size="32.7" letter-spacing="0em"><tspan x="0" y="0">5</tspan></text>
        <g>
          <path d="m47.2,66.8c-.2-.1-.4-.2-.7-.2s-.4,0-.6.2c-.2.1-.4.3-.5.6v3.8c0,.2,0,.4-.2.5-.1.1-.3.2-.5.2s-.4,0-.5-.2c-.1-.1-.2-.3-.2-.5v-3.6c0-.4,0-.6-.2-.7-.2-.1-.4-.2-.7-.2s-.4,0-.6.2c-.2.1-.4.3-.5.5v3.8c0,.2,0,.4-.2.5-.1.1-.3.2-.5.2s-.4,0-.5-.2c-.1-.1-.2-.3-.2-.5v-4.8c0-.2,0-.4.2-.5.1-.1.3-.2.5-.2s.3,0,.4.1c.1,0,.2.2.2.4.2-.3.4-.4.7-.5.3,0,.5-.1.7-.1.4,0,.7,0,1,.2.3.1.5.3.7.6.2-.3.5-.5.8-.6.3-.1.6-.2.9-.2.7,0,1.2.2,1.5.5.4.4.5.9.5,1.5v3.6c0,.2,0,.4-.2.5-.1.1-.3.2-.5.2s-.4,0-.5-.2c-.1-.1-.2-.3-.2-.5v-3.6c0-.4,0-.6-.2-.7Z" fill="#275380" stroke-width="0"/>
          <path d="m50.3,64.1c0-.3,0-.5.3-.7.2-.2.4-.3.7-.3s.5,0,.7.3c.2.2.3.4.3.7s0,.5-.3.7c-.2.2-.4.3-.7.3s-.5,0-.7-.3c-.2-.2-.3-.4-.3-.7Zm1.6,7.1c0,.2,0,.4-.2.5-.1.1-.3.2-.5.2s-.4,0-.5-.2c-.1-.1-.2-.3-.2-.5v-4.8c0-.2,0-.4.2-.5.1-.1.3-.2.5-.2s.3,0,.5.2c.1.1.2.3.2.5v4.8Z" fill="#275380" stroke-width="0"/>
          <path d="m57.5,67.1c0-.1-.2-.2-.3-.3s-.2-.1-.4-.2c-.1,0-.3,0-.5,0s-.5,0-.7.2c-.3.2-.5.4-.6.6v3.7c0,.2,0,.4-.2.5-.1.1-.3.2-.5.2s-.4,0-.5-.2c-.1-.1-.2-.3-.2-.5v-4.8c0-.2,0-.4.2-.5.1-.1.3-.2.5-.2s.3,0,.4.1c.1,0,.2.2.2.4.1-.1.2-.2.4-.3.1,0,.3-.2.4-.2.1,0,.3,0,.4-.1.1,0,.3,0,.4,0,.3,0,.6,0,.9.1.3,0,.5.2.7.4.2.2.4.4.5.7.1.3.2.6.2.9v3.5c0,.2,0,.4-.2.5-.1.1-.3.2-.5.2s-.4,0-.5-.2c-.1-.1-.2-.3-.2-.5v-3.5c0-.2,0-.4-.1-.5Z" fill="#275380" stroke-width="0"/>
        </g>
      </g>
    </g>
  </g>
</svg>