<?xml version="1.0" encoding="UTF-8"?>
<svg id="_레이어_2" data-name="레이어 2" xmlns="http://www.w3.org/2000/svg" width="654" height="826.8" xmlns:xlink="http://www.w3.org/1999/xlink" viewBox="0 0 218 275.6">
  <defs>
    <clipPath id="clippath">
      <path d="m129.4,238.6l11.2,17.5s4.2,1.1,8.2-.9c3.9-2,4.4-6.3,4.4-6.3,0,0-5.1-12.3-7.5-18.3l-16.2,8.1Z" fill="#bcac93" stroke-width="0"/>
    </clipPath>
    <clipPath id="clippath-1">
      <path d="m68,241.6l12.5,16.5s2.1,1,7.5-2.5,4.4-5.7,4.4-5.7c0,0-6-11.8-8.9-17.7l-15.5,9.3Z" fill="#bcac93" stroke-width="0"/>
    </clipPath>
    <radialGradient id="radial-gradient" cx="89.5" cy="114.5" fx="89.5" fy="114.5" r="14.7" gradientUnits="userSpaceOnUse">
      <stop offset="0" stop-color="#ffb6bd"/>
      <stop offset="1" stop-color="#ffd7c7"/>
    </radialGradient>
    <radialGradient id="radial-gradient-2" cx="150.9" cy="107.5" fx="150.9" fy="107.5" r="14.7" gradientTransform="translate(33.1) scale(.7 1)" xlink:href="#radial-gradient"/>
    <clipPath id="clippath-2">
      <path d="m131,118.4c.6,5.4-4.5,9.1-12.9,10.1-8.4.9-15.8-1.4-16.4-6.8s5.7-8.9,14.1-9.8c8.4-.9,14.6,1.2,15.2,6.6Z" fill="#bf4b4b" stroke-width="0"/>
    </clipPath>
    <clipPath id="clippath-3">
      <path d="m17.5,117.7S78.5,31,86.8,21.2C98.2,8,110.3,0,110.3,0l-4.7,25.5L32.6,127.8l-15.2-10.1Z" fill="#ccc" stroke-width="0"/>
    </clipPath>
  </defs>
  <g id="Layer_3" data-name="Layer 3">
    <g>
      <path d="m59.2,90.1c3.1,20.8,3.4,42.2.7,63.1,28.2-5.4,56.9-7.9,85.5-7.4-2.8-14.5-4-29.5-3.8-44.3l-82.3-11.4Z" fill="#2d2222" stroke-width="0"/>
      <g>
        <path d="m195.2,157.1c3.2-2,6.4-3.9,9.5-5.9.6-.3,1.1-.7,1.8-.8s1.4,0,1.9.4c.5.4.6,1.1.4,1.7s-.7,1.1-1.2,1.4l-12.4,3.2Z" fill="#f9c4b2" stroke-width="0"/>
        <path d="m206.7,166.4c.3,1.4,1.9,2.1,3.4,2.4s3.1.8,3.6,2.2c.5,1.5-1,3.1-2.6,3.5-1.6.3-3.2-.2-4.8-.5-2.4-.4-5-.2-7.4-.2s-5,0-7.4-.6c-5-1.5-8.9-8.2-4.6-12.6,4-4.1,12.2-5.7,17.6-7.1,3.8-1,10.3-3.7,11.7-2.7,1.4,1,0,2.1,0,2.1,0,0,2.6,0,2,2.1-.4,1.3-2,2.7-3.1,3.5-2,1.5-4,2.9-5.9,4.4-1.1.8-2.4,2-2.2,3.4" fill="#ffd7c7" stroke-width="0"/>
        <path d="m215.4,153.3c-3.5,1.8-7.1,3.3-10.8,4.4" fill="none" stroke-width="0"/>
        <path d="m209.9,152c0,0-6.9,3.6-10.5,4.8l-1.4-.4c2.3-.7,7.8-2.7,10-3.7l1.8-.6Z" fill="#f9c4b2" stroke-width="0"/>
        <path d="m203.5,159.2l-1.6-.4c4.2-1.7,9.7-3.9,13.6-6.1l.4.7c-4,2.1-8.2,4.1-12.4,5.8Z" fill="#f9c4b2" stroke-width="0"/>
      </g>
      <g>
        <path d="m123.4,134.3l-1.9,21.6s27.7,15.2,51.8,23.3c5.1-8.6,8.7-18.1,10.4-28l-60.3-16.8Z" fill="#cdf5f9" stroke-width="0"/>
        <path d="m190.2,153l-6.5-1.8c-1.7,9.9-5.3,19.4-10.4,28,2.7.9,5.4,1.7,8,2.4,0,0,9.6-12.9,9-28.6Z" fill="#80d4d8" stroke-width="0"/>
      </g>
      <polygon points="85.9 131.6 71.9 140.6 74.1 184 105.4 187 132.7 179.6 133.5 142.3 119.4 129.8 85.9 131.6" fill="#cdf5f9" stroke-width="0"/>
      <polygon points="94.4 134.6 106.2 154.8 114.4 132.8 94.4 134.6" fill="#ffc7b3" stroke-width="0"/>
      <polygon points="122.5 134.4 113.6 132.8 104.8 150.2 94.4 134.6 86.3 136.3 105.3 165.1 122.5 134.4" fill="#80d4d8" stroke-width="0"/>
      <path d="m81.3,256.6c-3.3,3.6-7,7.7-7.1,12.5-.2,4.1,3.3,7,7.3,6.3,7.2-1.4,16.5-9,18.1-15.7,1.2-4.9-4.6-10.4-8.7-9.7l-9.6,6.7Z" fill="#896530" stroke-width="0"/>
      <path d="m143,85.8c2.6-2.3,6-4.6,9.8-4.2,2.3.2,4.4,1.5,5.7,3.1,1.3,1.6,1.8,3.5,2.1,5.4.9,7.6-3.7,15.5-11.5,19.7-1.9,1-4.6,1.8-6.2.4v-24.5Z" fill="#ffc7b3" stroke-width="0"/>
      <path d="m58.1,85.9c1.3,35.9,19.1,56.5,50.5,54.1,24.9-1.9,44.7-11.7,42.2-36.1-1.3-12.4,1.8-24.7-.6-36.9,0,0-13.2-5.2-45.1-1.7-32,3.5-47,20.5-47,20.5Z" fill="#ffd7c7" stroke-width="0"/>
      <path d="m140.1,255.3c-.7,2.7-1.2,5.6-1.1,8.4.1,2.8,1,5.7,2.8,7.8,2.4,2.9,6.5,4.3,10.3,3.7s7.2-3,9.1-6.3c2.4-4.1,2.6-9.4.4-13.6-2.2-4.2-6.6-7.2-11.3-7.7l-10.3,7.6Z" fill="#896530" stroke-width="0"/>
      <g>
        <path d="m129.4,238.6l11.2,17.5s4.2,1.1,8.2-.9c3.9-2,4.4-6.3,4.4-6.3,0,0-5.1-12.3-7.5-18.3l-16.2,8.1Z" fill="#bcac93"/>
        <g clip-path="url(#clippath)">
          <path d="m130.4,245.4v-1.1c7.5-.9,14.7-4.9,19.7-10.7l.9.7c-5.1,6.1-12.6,10.2-20.5,11.1Z" fill="#a89478" stroke-width="0"/>
          <path d="m132.3,250.1v-1.1c7.5-.9,14.7-4.9,19.7-10.7l.9.7c-5.1,6.1-12.6,10.2-20.5,11.1Z" fill="#a89478" stroke-width="0"/>
          <path d="m134.3,255v-1.1c7.5-.9,14.7-4.9,19.7-10.7l.9.7c-5.1,6.1-12.6,10.2-20.5,11.1Z" fill="#a89478" stroke-width="0"/>
        </g>
      </g>
      <g>
        <path d="m68,241.6l12.5,16.5s2.1,1,7.5-2.5,4.4-5.7,4.4-5.7c0,0-6-11.8-8.9-17.7l-15.5,9.3Z" fill="#bcac93"/>
        <g clip-path="url(#clippath-1)">
          <path d="m69.5,248.4l-.2-1.1c7.5-1.5,14.4-6,18.9-12.2l.9.7c-4.7,6.5-11.8,11.1-19.6,12.7Z" fill="#a89478" stroke-width="0"/>
          <path d="m71.7,252.9l-.2-1.1c7.5-1.5,14.4-6,18.9-12.2l.9.7c-4.6,6.5-11.8,11.1-19.6,12.7Z" fill="#a89478" stroke-width="0"/>
          <path d="m74.7,258.4l-.2-1.1c7.5-1.5,14.4-6,18.9-12.2l.9.7c-4.7,6.5-11.8,11.1-19.6,12.7Z" fill="#a89478" stroke-width="0"/>
        </g>
      </g>
      <path d="m85.4,236s1.3-2.3,1-4.2-3-7.2-3-7.2l19.9-10.8s11.3,12.2,20.9,24.8c1.2,1.6,6.8,2.2,6.8,2.2,0,0,11.5-3.2,15.3-9.4,0,0,1.5-4.2,1-5.9-5.3-17.3-14.1-33.8-14.1-33.8l-28.5-10.6-32.3,19.6c-5.5,4.9-18.6,12.3-18,22.2.4,7.1,9.2,18.6,11.4,20.4s4.8,1.9,4.8,1.9c0,0,3.4-.9,7.9-3.4s7-5.7,7-5.7Z" fill="#665231" stroke-width="0"/>
      <circle cx="89.5" cy="114.5" r="14.7" fill="url(#radial-gradient)" opacity=".6" stroke-width="0"/>
      <path d="m116,102c-.9.2-1.8.6-2.1,1.6-.2.7.2,1.5.8,1.9s1.2.5,1.9.5c1.3,0,5.7-.7,5.3-3.1-.4-2.2-4.7-1.1-5.9-.9Z" fill="#fcc8b6" stroke-width="0"/>
      <ellipse cx="137.7" cy="107.5" rx="10.2" ry="14.7" fill="url(#radial-gradient-2)" opacity=".6" stroke-width="0"/>
      <path d="m35.7,140.3c-1.2-2.4-3.3-4.2-5.7-5.5,0-.4,0-.8,0-1.1.2-4.4-3.9-7.4-8.1-6.4h-.2c-5.1,1-9.8,6-12.1,10.8-3.9,10.1,11.2,15.5,14.3,16,2.2.3,4.5,0,6.6-.9,2.2-.9,4.1-2.5,5.2-4.5,1.3-2.5,1.1-5.7-.2-8.2Z" fill="#ffd7c7" stroke-width="0"/>
      <ellipse cx="102.8" cy="95.3" rx="5.3" ry="6.3" fill="#454746" stroke-width="0"/>
      <ellipse cx="131.3" cy="91.3" rx="4.6" ry="6.3" fill="#454746" stroke-width="0"/>
      <path d="m117.9,95.6c1.8-.5,3.8,0,5,1.5,1.2,1.4,1.4,3.6.6,5.2s-2.7,2.7-4.6,2.5" fill="none" stroke="#eda16e" stroke-miterlimit="10"/>
      <g>
        <path d="m131,118.4c.6,5.4-4.5,9.1-12.9,10.1-8.4.9-15.8-1.4-16.4-6.8s5.7-8.9,14.1-9.8c8.4-.9,14.6,1.2,15.2,6.6Z" fill="#bf4b4b"/>
        <g clip-path="url(#clippath-2)">
          <ellipse cx="117" cy="129.7" rx="10.8" ry="6.7" transform="translate(-13 13) rotate(-6)" fill="#d67272" stroke-width="0"/>
          <path d="m106.6,111.9s-.2,3.7,1,4.5,2.9.7,4.4.6c3.7-.2,7.5-.5,11.2-.7.8,0,1.7-.1,2.4-.6,1.4-1,1.1-3.1.7-4.8l-19.8,1.1Z" fill="#fff" stroke-width="0"/>
        </g>
      </g>
      <polygon points="92.8 78 91 83.4 108.4 86.2 109.2 83 92.8 78" fill="#2d2222" stroke-width="0"/>
      <polygon points="101 158.8 108.8 158.5 109.6 184.7 101.2 184.6 101 158.8" fill="#80d4d8" stroke-width="0"/>
      <polygon points="137.4 75.3 139.8 80.5 125.9 84.6 124.7 81.4 137.4 75.3" fill="#2d2222" stroke-width="0"/>
      <path d="m68.6,94.9c-8.2-6.2-19.7-.8-19.1,9.7.9,12.1,16.5,20,24.9,9.4" fill="#ffd7c7" stroke-width="0"/>
      <g>
        <path d="m76.1,186.2s-10.6,8.7-15.4,14.4c0,0,8.7,6.4,22.6,11.4l16.9-22.2-24.1-3.6Z" fill="#cdf5f9" stroke-width="0"/>
        <path d="m108,191l-7.7-1.1-16.9,22.2c2.5.9,5.1,1.7,7.9,2.5l16.7-23.5Z" fill="#80d4d8" stroke-width="0"/>
      </g>
      <path d="m139.9,67.4c5.1,5,12.9,19.5,12.9,19.5.1-5.4,0-11.7-.2-17.1l-12.7-2.4Z" fill="#2d2222" stroke-width="0"/>
      <path d="m17.1,133.4L0,157.6s4.5,6.9,9.5,6.2l18.1-24.5-10.5-5.9Z" fill="#4c4a45" stroke-width="0"/>
      <path d="m58.1,90.4c2,5.6,5,10.8,8.9,15.2,2-8.7,3.3-17.6,4-26.6-3.7,2.6-7.5,5.2-11.2,7.8" fill="#2d2222" stroke-width="0"/>
      <path d="m98.9,30.8c-15.7-3.4-29.1,3.2-38.1,14-9,10.8-11.6,26.3-6.6,39.3l51.2-21.9,46.3,2.6s1.3-24.5-22.4-34c-16.5-6.6-30.4,0-30.4,0Z" fill="#2d2222" stroke-width="0"/>
      <path d="m91.7,38c-2.9-3-5.1-6.8-5.7-10.9-.6-4.1.4-8.5,3.1-11.7,2.7-3.2,7.1-4.9,11.2-4,5,1.1,8.7,5.8,9.8,10.9,1.1,5,0,10.3-1.5,15.2l-16.9.6Z" fill="#2d2222" stroke-width="0"/>
      <path d="m108.8,20.7c-4.3-1.9-19.8.6-23.5,5-2.3,2.7-.4,8.5-.4,8.5,0,0,12.1-8.3,26.4-6.2-.1-2.5.4-6-2.5-7.3Z" fill="#9ecacc" stroke-width="0"/>
      <path d="m51.3,75.1c-3.7,6.8,3.2,18.5,3.2,18.5,0,0,25.3-22.9,58.1-24.5,32.8-1.6,40.2,5.2,40.2,5.2,0,0,2.6-12.5-1.8-16.3-4.4-3.8-13.2-8.1-42.5-6.5-29.4,1.6-53.4,16.8-57.2,23.6Z" fill="#9ecacc" stroke-width="0"/>
      <g>
        <path d="m104.2,192.5l14.2,22.4s3.1-.8,7.4-2.6l-15.1-22.7-6.5,2.9Z" fill="#80d4d8" stroke-width="0"/>
        <path d="m131,180.7l-20.2,8.9,15.1,22.7c5.9-2.4,14.4-6.5,21-12.8,0,0-9.9-13.1-15.9-18.8Z" fill="#cdf5f9" stroke-width="0"/>
      </g>
      <path d="m73.7,178.8l.7,9.3s11.1,6.1,32.8,4.1,25.8-8.7,25.8-8.7l-.2-10.1s-6.5,8.4-26,9.5c-19.6,1.2-33.2-4.1-33.2-4.1Z" fill="#80d4d8" stroke-width="0"/>
      <g>
        <path d="m17.5,117.7S78.5,31,86.8,21.2C98.2,8,110.3,0,110.3,0l-4.7,25.5L32.6,127.8l-15.2-10.1Z" fill="#ccc"/>
        <g clip-path="url(#clippath-3)">
          <polygon points="18.5 105.3 48.8 128.1 39.5 142 8.6 121.5 18.5 105.3" fill="#fff" stroke-width="0"/>
          <path d="m30.6,114.2S83.7,38.4,93.8,26.3c10.1-12.1,19.7-17.2,19.7-17.2" fill="none" stroke="#999898" stroke-miterlimit="10"/>
        </g>
      </g>
      <g>
        <path d="m26.8,128.4c-.6-1.7-2.2-2.9-3.9-3.4-1.7-.5-3.6-.4-5.4-.3-1.1,0-2.3.2-3,1-.9,1-.6,2.6-.2,3.9.8,2.4,1.7,4.8,2.7,7,.4.9.9,1.8,1.7,2.2,1.2.6,2.8-.3,3.4-1.5.6-1.2.4-2.7.1-4s-.8-2.6-.8-4" fill="#ffd7c7" stroke-width="0"/>
        <path d="m10.3,137.7c-1.2-.5-2.7,0-3.5,1s-1,2.4-.8,3.7.8,2.5,1.5,3.5c.9,1.4,2.1,2.8,3.5,3.6,1.1.7,2.5,1.1,3.8.7s2.4-1.5,2.4-2.9c0-1.3-1.5-2.5-2.7-2.1l-4.2-7.6Z" fill="#ffd7c7" stroke-width="0"/>
        <path d="m14.3,132.8c-1.2-.7-2.9-.4-3.9.6s-1.5,2.5-1.4,3.9c0,1.4.6,2.8,1.2,4.1.8,1.7,1.8,3.3,3.3,4.4,1.1.9,2.6,1.5,4,1.3s2.8-1.3,3-2.8-1.2-3-2.7-2.7l-3.5-8.9Z" fill="#ffd7c7" stroke-width="0"/>
        <path d="m16.3,129.8c-1.2-.7-2.9-.4-3.9.6s-1.5,2.5-1.4,3.9.6,2.8,1.2,4.1c.8,1.7,1.8,3.3,3.3,4.4,1.1.9,2.6,1.5,4,1.3s2.8-1.3,3-2.8-1.2-3-2.7-2.7l-3.5-8.9Z" fill="#ffd7c7" stroke-width="0"/>
        <path d="m8.7,137.6c.6,2.9,2.5,6.4,4.1,7.4s4.3,2.4,4.3,2.4" fill="none" stroke="#f7b19f" stroke-miterlimit="10"/>
        <path d="m11.1,133s2,5.7,3.4,7.2,5.9,3.7,5.9,3.7" fill="none" stroke="#f7b19f" stroke-miterlimit="10"/>
        <path d="m14.3,129.4l2.1,4.7s2.8,3.4,4.5,4.1" fill="none" stroke="#f7b19f" stroke-miterlimit="10"/>
      </g>
      <path d="m34.9,134.4c-3.1-1.9-6.2-3.9-9.4-5.8-.6-.4-1.2-.7-1.9-.7-.6,0-1.1.4-1.6.7-1.4.9-3.1,1.5-4.8,1.8-.7.1-1.6.2-2,.8-.4.6-2.3,3.2,1.7,4.9,2.7,1.1,6.4-1.7,8-.4s1.7,4.3,1.8,5c.9,5.2,3.6,6.6,3.6,6.6,0,0,7.5-2.3,9.5-3.3-.4-2-.7-4.1-1.1-6.1l-3.9-3.5Z" fill="#ffd7c7" stroke-width="0"/>
      <path d="m25.8,128.7s-4.6-1.8-7.3.7l18.4,11.8,3.5-3.7-14.6-8.7Z" fill="#e8b7a6" stroke-width="0"/>
      <path d="m29.6,146.6c-1.7-1.9-2.8-4.2-3.2-6.7-.1-.8-.2-1.6-.5-2.4s-.8-1.5-1.6-1.8c-1.2-.5-2.5.3-3.8.6-1.9.5-5.1.5-5.7-2.5s4.3-4.6,4.3-4.6" fill="none" stroke="#f7b19f" stroke-miterlimit="10"/>
      <g>
        <path d="m39.7,134.6s-14.9,13.2-21,27.8c0,0,3.2,2.6,7.7,5.9,5.6-9.4,12.1-18.3,19.5-26.5l-6.2-7.2Z" fill="#80d4d8" stroke-width="0"/>
        <path d="m71.9,140.6l-14.9,14.2-11.1-12.9c-7.3,8.2-13.9,17.1-19.5,26.5,8.7,6.4,22.2,15.7,27,15.2,7.3-.8,26.3-25.3,26.3-25.3l-7.8-17.7Z" fill="#cdf5f9" stroke-width="0"/>
      </g>
      <polygon points="20.1 110.5 12.5 121.3 39.9 138.4 45.3 129.3 20.1 110.5" fill="#e2af40" stroke-width="0"/>
      <path d="m131.6,143.8c.2,6.7.7,13.7.8,19.5" fill="none" stroke="#a4dadd" stroke-miterlimit="10"/>
      <ellipse cx="105.6" cy="93.9" rx="1.2" ry="1.5" fill="#fff" stroke-width="0"/>
      <ellipse cx="133.4" cy="89.7" rx="1.2" ry="1.5" fill="#fff" stroke-width="0"/>
    </g>
  </g>
</svg>