<?xml version="1.0" encoding="UTF-8"?>
<svg id="_레이어_2" data-name="레이어 2" xmlns="http://www.w3.org/2000/svg" width="498.3" height="808.2" xmlns:xlink="http://www.w3.org/1999/xlink" viewBox="0 0 166.1 269.4">
  <defs>
    <radialGradient id="radial-gradient" cx="54.6" cy="142.1" fx="54.6" fy="142.1" r="14.3" gradientTransform="translate(170.4 90.1) rotate(90) scale(1 .8)" gradientUnits="userSpaceOnUse">
      <stop offset="0" stop-color="#ffc5d2"/>
      <stop offset="1" stop-color="#ffe8d2"/>
    </radialGradient>
    <radialGradient id="radial-gradient-2" cx="108.6" cy="135.5" fx="108.6" fy="135.5" r="14.3" gradientTransform="translate(219.2 36.1) rotate(90) scale(1 .8)" xlink:href="#radial-gradient"/>
  </defs>
  <g id="Layer_3" data-name="Layer 3">
    <g>
      <g>
        <path d="m123.2,135c-1.4,12.4-1.3,24.9.3,37.3,1.9,0,3.7,0,5.6,0-1.1-9.3-1.3-18.7-.5-28l-5.4-9.2Z" fill="#2b1e12" stroke-width="0"/>
        <path d="m37.3,135c1.4,12.4,1.3,24.9-.3,37.3-1.9,0-3.7,0-5.6,0,1.1-9.3,1.3-18.7.5-28l5.4-9.2Z" fill="#2b1e12" stroke-width="0"/>
      </g>
      <path d="m31.5,196c0,5.3.4,10.3,1.2,14.9,20.2-21.3,37.2-45.6,50.2-71.8-28.5.2-51.4,17.4-51.4,56.9Z" fill="#fcd9be" stroke-width="0"/>
      <path d="m51.6,169.2s-1.8,12.1-1.7,24.2" fill="none" stroke="#f7c194" stroke-linecap="round" stroke-linejoin="round" stroke-width="1.5"/>
      <path d="m95.5,139.7c-14.3,32.2-37.6,62.2-62.4,87.3,8.8,19.6,30.6,30.4,50.5,30.4s60.4-23.4,60.4-23.4c0,0-7.6-8.6-8.4-38.1-.8-33.4-17.8-51.5-40.2-56.3Z" fill="#f27c3b" stroke-width="0"/>
      <path d="m105.8,227.2l47.3.6s-6.4-38.9-25.9-39.3c-23.4-.5-21.3,38.7-21.3,38.7Z" fill="#f27c3b" stroke-width="0"/>
      <path d="m117,226.2l30,.4s-4-24.7-16.4-24.9c-14.8-.3-13.5,24.5-13.5,24.5Z" fill="#875e4d" stroke-width="0"/>
      <path d="m83.6,139.1c-.2,0-.4,0-.6,0-13,26.3-30,50.6-50.2,71.8-.9,7.2-.6,17.4-.6,17.4,0,0,43-40.5,64.6-87.9-4.2-.9-8.7-1.3-13.2-1.3Z" fill="#ce6232" stroke-width="0"/>
      <ellipse cx="80.9" cy="147.1" rx="33" ry="31" opacity=".2" stroke-width="0"/>
      <path d="m94.8,216.9c-2.3,0-11.7,0-22.6,0,12.9,20.2,29.5,38.1,48.6,52.6h14.9c3.8,0,7.5-.6,10.9-1.8,4.9-1.6,9.1-4.3,12.4-7.8-24-9.7-46-24.5-64.2-43Z" fill="#d33b37" stroke-width="0"/>
      <path d="m58.5,216.8c-15.2,0-29.2-.2-29.2-.2-16.3.5-29.3,12.1-29.3,26.4s13.6,26.4,30.3,26.4h70.3c-17.6-14.2-32.1-32.3-42.1-52.7Z" fill="#d33b37" stroke-width="0"/>
      <path d="m104.9,224.1l-1.8-.5c1-3.4,1.3-7,1.6-10.6,0-.7.1-1.5.2-2.2.4-4.4,1-8.9,3.1-13,4.5-9.1,16.9-8.9,17.5-8.9v1.9c-.2,0-11.8-.2-15.8,7.8-1.9,3.8-2.5,8.1-2.9,12.3,0,.7-.1,1.5-.2,2.2-.3,3.6-.6,7.3-1.6,10.9Z" fill="#d35c20" stroke-width="0"/>
      <g>
        <g>
          <path d="m34.7,94.3c-2.1-4.6-7.5-7.4-12.5-6.5-5,.9-9.1,5.3-9.6,10.3-.6,6.5,4.2,12.1,7.2,18,3.2,6.3,4.5,13.6,3.5,20.6-.6,4.4-1.9,9.5,1.1,12.8,3.3,3.8,10,2.1,13-1.9s3.3-9.4,3.6-14.4l-6.3-38.9Z" fill="#fcd9be" stroke-width="0"/>
          <path d="m32.4,105.6c-.6,0-.8-.4-1.4-1.6-.6-1.3-1.9-3.8-2.9-5-1.7-1.9-4-3-6-2.7-2.2.2-4.1,2.2-4.1,4.2,0,.5-.4,1-.9,1h0c-.5,0-.9-.4-.9-.9,0-3,2.6-5.7,5.8-6.1,2.7-.3,5.6,1,7.7,3.4,1.2,1.4,2.5,3.9,3.2,5.5.2.3.3.7.4.8.2.3.3.6.2,1-.1.4-.5.6-.9.6,0,0,0,0,0,0Z" fill="#efb68f" stroke-width="0"/>
        </g>
        <g>
          <path d="m125.6,94.3c2.1-4.6,7.5-7.4,12.5-6.5,5,.9,9.1,5.3,9.6,10.3.6,6.5-4.2,12.1-7.2,18-3.2,6.3-4.5,13.6-3.5,20.6.6,4.4,1.9,9.5-1.1,12.8-3.3,3.8-10,2.1-13-1.9s-3.3-9.4-3.6-14.4l6.3-38.9Z" fill="#fcd9be" stroke-width="0"/>
          <path d="m127.9,105.6s0,0,0,0c-.4,0-.7-.3-.9-.6-.1-.4,0-.7.2-1,0-.2.3-.5.4-.8.7-1.5,2-4,3.2-5.5,2.1-2.4,5-3.7,7.7-3.4,3.2.3,5.8,3.1,5.8,6.1,0,.5-.4.9-.9.9h0c-.5,0-.9-.4-.9-1,0-2-1.9-3.9-4.1-4.2-2.1-.2-4.4.8-6,2.7-1.1,1.2-2.3,3.7-2.9,5-.6,1.3-.8,1.6-1.4,1.6Z" fill="#efb68f" stroke-width="0"/>
        </g>
        <path d="m133.1,77.3c-5.2-24.2-26.7-42.4-52.5-42.4s-47,17.9-52.4,41.9l104.8.6Z" fill="#2b1e12" stroke-width="0"/>
        <path d="m28.2,76.7c-.9,3.8-1.3,7.8-1.3,11.8,0,9.3,5.2,32.9,5.2,36.8,0,26.8,21.7,43.4,48.5,43.4s48.5-16.6,48.5-43.4,5.2-27.5,5.2-36.8-.4-7.6-1.2-11.2c0,0-30.4-11.5-53.4-11.5s-51.4,10.9-51.4,10.9Z" fill="#ffe8d2" stroke-width="0"/>
        <g>
          <g>
            <ellipse cx="81.2" cy="73.1" rx="15" ry="13" fill="#2b1e12" stroke-width="0"/>
            <path d="m81.7,83c-6.6,0-12-4.7-12-10.5s5.4-10.5,12-10.5,12,4.7,12,10.5-5.4,10.5-12,10.5Zm0-20c-6.1,0-11.1,4.3-11.1,9.5s5,9.5,11.1,9.5,11.1-4.3,11.1-9.5-5-9.5-11.1-9.5Z" fill="#4c4c4c" stroke-width="0"/>
            <path d="m81.8,79.3c-4.1,0-7.5-3-7.5-6.6s3.4-6.6,7.5-6.6,7.5,3,7.5,6.6-3.4,6.6-7.5,6.6Zm0-12.2c-3.6,0-6.6,2.5-6.6,5.6s2.9,5.6,6.6,5.6,6.6-2.5,6.6-5.6-2.9-5.6-6.6-5.6Z" fill="#4c4c4c" stroke-width="0"/>
          </g>
          <g>
            <ellipse cx="55.7" cy="76.5" rx="12.2" ry="13" transform="translate(-2.8 2.1) rotate(-2.1)" fill="#2b1e12" stroke-width="0"/>
            <path d="m56.1,86.4c-2.5,0-4.9-1-6.7-2.8-1.9-1.9-3-4.5-3.1-7.3-.1-2.8.8-5.4,2.6-7.5,1.8-2.1,4.2-3.2,6.8-3.3,2.6,0,5.1.9,7.1,2.8,1.9,1.9,3,4.5,3.1,7.3h0c.1,2.8-.8,5.4-2.6,7.5-1.8,2.1-4.2,3.2-6.8,3.3-.1,0-.2,0-.4,0Zm0-20c-.1,0-.2,0-.3,0-2.4,0-4.6,1.2-6.2,3-1.6,1.9-2.5,4.3-2.4,6.8s1.1,4.9,2.9,6.6c1.7,1.7,4,2.6,6.4,2.5,2.4,0,4.6-1.2,6.2-3,1.6-1.9,2.5-4.3,2.4-6.8h0c0-2.5-1.1-4.9-2.9-6.6-1.7-1.7-3.8-2.5-6.1-2.5Z" fill="#4c4c4c" stroke-width="0"/>
            <path d="m56.2,82.6c-1.6,0-3.1-.6-4.2-1.8-1.2-1.2-1.9-2.8-2-4.6,0-1.8.5-3.4,1.6-4.7,1.1-1.3,2.7-2,4.3-2.1,1.7,0,3.2.6,4.5,1.8,1.2,1.2,1.9,2.8,2,4.6h0c0,1.8-.5,3.4-1.6,4.7-1.1,1.3-2.7,2-4.3,2.1,0,0-.1,0-.2,0Zm0-12.2c0,0-.1,0-.2,0-1.4,0-2.7.7-3.6,1.8-1,1.1-1.5,2.5-1.4,4,0,1.5.7,2.9,1.7,3.9,1,1,2.4,1.6,3.8,1.5,1.4,0,2.7-.7,3.6-1.8,1-1.1,1.5-2.5,1.4-4h0c0-1.5-.7-2.9-1.7-3.9-1-1-2.2-1.5-3.6-1.5Z" fill="#4c4c4c" stroke-width="0"/>
          </g>
          <g>
            <ellipse cx="36.1" cy="83.5" rx="10.5" ry="13" transform="translate(-16.5 9.3) rotate(-12)" fill="#2b1e12" stroke-width="0"/>
            <path d="m37,93.3c-1.8,0-3.6-.7-5.1-1.9-2-1.6-3.4-4-4-6.7-1.2-5.6,1.6-11,6.2-12,2.3-.5,4.6.1,6.6,1.8,2,1.6,3.4,4,4,6.7,1.2,5.6-1.6,11-6.2,12-.5.1-1,.2-1.5.2Zm-1.4-19.8c-.4,0-.9,0-1.3.1-4.1.9-6.6,5.8-5.5,10.9.5,2.5,1.8,4.7,3.6,6.2,1.8,1.4,3.8,2,5.8,1.6,4.1-.9,6.6-5.8,5.5-10.9-.5-2.5-1.8-4.7-3.6-6.2-1.4-1.1-3-1.7-4.5-1.7Z" fill="#4c4c4c" stroke-width="0"/>
            <path d="m36.8,89.5c-2.6,0-5.1-2.2-5.7-5.4-.4-1.7-.2-3.4.6-4.8.7-1.5,1.9-2.4,3.4-2.7,2.9-.6,5.9,1.8,6.7,5.3h0c.4,1.7.2,3.4-.6,4.8-.7,1.5-1.9,2.4-3.4,2.7-.3,0-.6,0-.9,0Zm-.8-12.1c-.2,0-.5,0-.7,0-1.2.2-2.1,1-2.7,2.2-.6,1.2-.8,2.7-.5,4.2.6,3,3.1,5.1,5.6,4.6,1.2-.2,2.1-1,2.7-2.2.6-1.2.8-2.7.5-4.2-.6-2.7-2.6-4.7-4.8-4.7Z" fill="#4c4c4c" stroke-width="0"/>
          </g>
          <g>
            <ellipse cx="106.3" cy="76.5" rx="13" ry="12.2" transform="translate(25.9 179.8) rotate(-87.9)" fill="#2b1e12" stroke-width="0"/>
            <path d="m105.9,86.4c-.1,0-.2,0-.4,0-5.4-.2-9.6-5.1-9.4-10.8h0c.2-5.6,4.6-10.1,9.9-10.1s.2,0,.3,0c5.4.2,9.6,5.1,9.4,10.8-.1,2.8-1.2,5.4-3.1,7.3-1.8,1.8-4.2,2.8-6.7,2.8Zm-8.8-10.8c-.2,5.2,3.6,9.7,8.5,9.8,2.4.1,4.6-.8,6.4-2.5,1.7-1.7,2.8-4.1,2.9-6.6.2-5.2-3.6-9.7-8.5-9.8-4.9-.2-9,3.9-9.2,9.2h0Z" fill="#4c4c4c" stroke-width="0"/>
            <path d="m105.8,82.6c0,0-.1,0-.2,0-1.7,0-3.2-.8-4.3-2.1-1.1-1.3-1.7-3-1.6-4.7s.8-3.4,2-4.6c1.2-1.2,2.8-1.8,4.5-1.8,1.7,0,3.2.8,4.3,2.1,1.1,1.3,1.7,3,1.6,4.7-.1,3.5-2.9,6.4-6.2,6.4Zm0-12.2c-1.3,0-2.6.5-3.6,1.5-1,1-1.6,2.4-1.7,3.9h0c0,1.5.4,2.9,1.4,4,.9,1.1,2.2,1.7,3.6,1.8,2.9.1,5.3-2.3,5.4-5.4,0-1.5-.4-2.9-1.4-4-.9-1.1-2.2-1.7-3.6-1.8,0,0-.1,0-.2,0Z" fill="#4c4c4c" stroke-width="0"/>
          </g>
          <g>
            <ellipse cx="125.5" cy="83.5" rx="13" ry="10.5" transform="translate(17.8 189) rotate(-78)" fill="#2b1e12" stroke-width="0"/>
            <path d="m124.6,93.3c-.5,0-1,0-1.5-.2-4.6-1-7.4-6.4-6.2-12,.6-2.7,2-5.1,4-6.7,2-1.6,4.4-2.2,6.6-1.8,4.6,1,7.4,6.4,6.2,12-.6,2.7-2,5.1-4,6.7-1.6,1.3-3.3,1.9-5.1,1.9Zm1.4-19.8c-1.6,0-3.1.6-4.5,1.7-1.8,1.5-3.1,3.6-3.6,6.2-1.1,5.1,1.4,10,5.5,10.9,2,.4,4-.1,5.8-1.6,1.8-1.5,3.1-3.6,3.6-6.2,1.1-5.1-1.4-10-5.5-10.9-.4,0-.9-.1-1.3-.1Z" fill="#4c4c4c" stroke-width="0"/>
            <path d="m124.8,89.5c-.3,0-.6,0-.9,0-1.4-.3-2.6-1.3-3.4-2.7-.7-1.4-.9-3.1-.6-4.8h0c.8-3.5,3.7-5.9,6.7-5.3,1.4.3,2.6,1.3,3.4,2.7.7,1.4.9,3.1.6,4.8-.7,3.2-3.1,5.4-5.7,5.4Zm-4-7.5c-.3,1.5-.1,3,.5,4.2.6,1.2,1.6,2,2.7,2.2,2.4.5,4.9-1.5,5.6-4.6.3-1.5.1-3-.5-4.2-.6-1.2-1.6-2-2.7-2.2-2.4-.5-4.9,1.5-5.6,4.6h0Z" fill="#4c4c4c" stroke-width="0"/>
          </g>
        </g>
        <path d="m134.2,90.7s6.3-10.8.6-19.3-29.2-14-54.2-14-47.7,6.8-52.9,14c-5.3,7.2-.8,19.9-.8,19.9.3-9.5,30.3-17.4,53.8-17.4s52.9,9,53.6,16.8Z" fill="#6b2222" stroke-width="0"/>
        <path d="m66.4,41.5s-1.3-12.4-1.4-25.7c0-4-1.2-8.5,1.2-11.7C68.8.4,74,0,78.5,0c4,0,8.5.3,11.3,3.2,2.8,2.9,2.9,7.4,2.9,11.5-.2,12.5-.3,14.3-.5,26.8h-25.8Z" fill="#2b1e12" stroke-width="0"/>
        <ellipse cx="54.4" cy="144.7" rx="11.7" ry="14.3" transform="translate(-95.1 184.3) rotate(-84.2)" fill="url(#radial-gradient)" opacity=".5" stroke-width="0"/>
        <ellipse cx="108.6" cy="144.7" rx="11.7" ry="14.3" transform="translate(-46.3 238.2) rotate(-84.2)" fill="url(#radial-gradient-2)" opacity=".5" stroke-width="0"/>
        <path d="m81.7,142.1s0,0,0,0l-5.3-.3c-.3,0-.6-.2-.8-.4s-.2-.6,0-.9c1.8-4,2.6-8.4,2.4-12.8,0-.5.4-1,.9-1,.5,0,1,.4,1,.9.2,4.2-.5,8.4-2.1,12.4l4,.2c.5,0,.9.5.9,1,0,.5-.4.9-.9.9Z" fill="#f2ccad" stroke-width="0"/>
        <path d="m58.2,134.9c0,0-.1,0-.2,0-11.1-.1-12.6-11.4-12.6-11.5l1.9-.2c0,.4,1.4,9.7,10.8,9.8,0,0,.1,0,.2,0,9.3,0,11.1-9.5,11.1-9.9l1.9.3c0,.1-2.1,11.5-13,11.5Z" fill="#563418" stroke-width="0"/>
        <path d="m103.7,134.9c0,0-.1,0-.2,0-11.1-.1-12.6-11.4-12.6-11.5l1.9-.2c0,.4,1.4,9.7,10.8,9.8,0,0,.1,0,.2,0,9.3,0,11.1-9.5,11.1-9.9l1.9.3c0,.1-2.1,11.5-13,11.5Z" fill="#563418" stroke-width="0"/>
        <path d="m80.6,154.5c-.2,0-.4,0-.6,0-4.8-.2-9.4-2.5-12.4-6.3l1.5-1.2c2.6,3.3,6.8,5.4,11,5.6,4.3.2,8.5-1.6,11.4-4.8l1.4,1.3c-3.1,3.4-7.7,5.4-12.3,5.4Z" fill="#ef9d81" stroke-width="0"/>
        <circle cx="80.6" cy="105.8" r="3.5" fill="#f99" stroke-width="0"/>
        <path d="m73.7,114c-.3,0-.6-.1-.8-.4-3.4-4.5-8.5-7.7-14-8.9-5.5-1.2-11.5-.3-16.4,2.4-.5.2-1,0-1.3-.4-.2-.5,0-1,.4-1.3,5.3-2.9,11.8-3.8,17.7-2.5,5.9,1.3,11.4,4.7,15.1,9.6.3.4.2,1-.2,1.3-.2.1-.4.2-.6.2Z" fill="#f2ccad" stroke-width="0"/>
        <path d="m88.6,113.8c-.2,0-.4,0-.6-.2-.4-.3-.4-.9,0-1.3,4.1-4.7,10-7.7,16.2-8.2,6.2-.5,12.5,1.6,17.2,5.6.4.3.4.9.1,1.3-.3.4-.9.4-1.3.1-4.4-3.7-10.2-5.6-15.8-5.1-5.7.4-11.1,3.2-14.9,7.5-.2.2-.5.3-.7.3Z" fill="#f2ccad" stroke-width="0"/>
      </g>
      <path d="m159,259.9c4.4-4.6,7-10.5,7-16.9,0-14.3-13-25.9-29.3-26.4,0,0-26.1.2-41.9.4,18.2,18.5,40.2,33.2,64.2,43Z" fill="#d33b37" stroke-width="0"/>
      <path d="m99.5,254.9l-.5-1.8c.2,0,21.8-6.2,43.8-21.1l1.1,1.6c-22.2,15.2-44.1,21.3-44.3,21.4Z" fill="#b72323" stroke-width="0"/>
      <path d="m77.9,237.5c2.2-1.8,15.5-4.5,18.3-3.8,3.3.8,9.9,4.9,12.9,1.1,3-3.8-3.2-8.3-6-10.3-5.4-3.8-12.7-4-18.1-7.6-2.2-1.5-4.4-3.5-7-3.2-2.2.3-3.9,2.2-4.6,4.3s-.9,4.3-1.3,6.5-2.4,6.1-2.4,6.1l8.3,6.9Z" fill="#ffe8d2" stroke="#f7c194" stroke-linecap="round" stroke-linejoin="round"/>
      <path d="m14.2,236.3l-.9-1.7c15.7-8.3,32.6-14,50.1-16.8l.3,1.9c-17.4,2.8-34,8.3-49.5,16.6Z" fill="#b72323" stroke-width="0"/>
      <path d="m72.2,216.8c-4.4,0-9.1,0-13.7,0,10,20.3,24.5,38.4,42.1,52.7h20.2c-19.2-14.4-35.7-32.3-48.6-52.6Z" fill="#ad1e1e" stroke-width="0"/>
      <path d="m114.3,167.8c1.1,0,2,.9,2.5,1.9s.6,2.1.7,3.2c.6,6.7,1.8,17.6,1.8,17.6" fill="none" stroke="#d35c20" stroke-linecap="round" stroke-linejoin="round" stroke-width="1.5"/>
      <path d="m40.7,190.5c-19-4.3-28.1,16.7-22.9,32.6s8.9,10.3,16.1,10.5,13.8-3.3,17.3-8.3,8.5-30.5-10.5-34.8Z" fill="#f27c3b" stroke-width="0"/>
      <path d="m48.2,208.7c0,8.9-5.5,13.7-12.4,13.7s-12.4-4.8-12.4-13.7,5.5-13.5,12.4-13.5,12.4,4.7,12.4,13.5Z" fill="#875e4d" stroke-width="0"/>
      <path d="m28.2,181.7c0,9.6-2.1,14.9-2.1,21.8,0,12,6.2,12.8,9.4,12.8s10.2-.9,10.1-12.9c0-6.7-3.7-14.1-3.7-21l-13.7-.6Z" fill="#ffe8d2" stroke-width="0"/>
      <path d="m27.4,181.6s.8,3.4,6,4" fill="#ffe8d2" stroke-width="0"/>
      <path d="m42,183.4c0,.3,0,.5,0,.8,0,3.1-3.1,5.6-6.8,5.6s-6.8-2.5-6.8-5.6,0-.3,0-.5c-.9,1.1-1.4,2.4-1.4,3.8,0,3.8,3.7,6.9,8.3,6.9s8.3-3.1,8.3-6.9-.6-3-1.7-4.1Z" fill="#279b3a" stroke-width="0"/>
      <g>
        <path d="m29.8,184.3c-5.9-.3-8.2-12.7-9.1-21.4s-1.5-13.7,2-13.9,3.8,12.2,3.8,12.2c0,0-.8-7.8-1-14.6s.2-7.6,2.8-7.8c5.9-.3,3,22.3,6.5,22s3.3-8.6,4.1-15.6.5-5.5,2.8-5.5,3.4,1.9,3.5,5c.2,4.5-.3,15.5-.3,15.5l4.4,12.2s-1.3,8-7.2,11.6" fill="#ffe8d2" stroke="#f7c194" stroke-linecap="round" stroke-linejoin="round"/>
        <path d="m26.4,161c.3,2.5,1,6,1,6,0,0,4,2.3,5.3,4s2.2,4.8,1.7,6.9c2-1.1,2.3-3.6,3-5.8s1.5-5.3,3.6-6.1c-.7.3-4.2-4.2-4.2-4.2-2.2,1.9-3.8,0-3.8,0,0,0-3.6,2.5-6.5-.8Z" fill="#ffd2b0" stroke-width="0"/>
        <path d="m27.7,167c2.4.9,4.4,2.7,5.6,5s1.5,5,.8,7.5" fill="none" stroke="#f7c194" stroke-linecap="round" stroke-linejoin="round"/>
        <g>
          <path d="m39.6,161.3c0-.8-.3-1.7-.5-2.5-.6-2.3-1.6-9.6-4.6-7.5-2.7,1.8-1.6,7.4-1.4,10.5" fill="#ffe8d2" stroke="#f7c194" stroke-linecap="round" stroke-linejoin="round"/>
          <path d="m32.8,154.7s.2-4.4,1.2-5.6,2.9-1.6,4.3-.8c1.1.7,1.7,2.1,2.1,3.4.7,2.5,1.6,9.4-1.8,9.6s-3.1-5.9-3.1-5.9" fill="#ffe8d2" stroke="#f7c194" stroke-linecap="round" stroke-linejoin="round"/>
        </g>
        <path d="m48.1,176.3c1.4-3.5,1.5-7.5,0-11s-4.1-6.4-7.6-7.9c-.9-.4-1.8-.7-2.7-.4-1.3.4-2,1.9-1.9,3.2s1.1,2.5,2.3,3.2,2.9,3.1,2.9,3.1c0,0-4.2,2.4-4.6,10.3" fill="#ffe8d2" stroke="#f7c194" stroke-linecap="round" stroke-linejoin="round"/>
        <path d="m26.4,160.1l.4,2.9" fill="none" stroke="#f7c194" stroke-linecap="round" stroke-linejoin="round"/>
      </g>
      <g>
        <path d="m104,208.8c-1.1.7-1.8,2-1.5,3.3.2,1.1,1,2,2,2.6s2.1.8,3.2,1.1c1,.2,2,.4,2.9.1,2.5-.9,2-4.5.5-6s-5.1-2.2-7-1Z" fill="#ffe8d2" stroke-width="0"/>
        <path d="m135.8,202.6c-.5-4.6-9.8-12.8-10.8-12.9-1.1,0-3.7.5-3,3.9.7,3.4,4.5,5.7,4.5,5.7,0,0-2.2,3.8-1.8,7.2,0,0-5.2,2.6-6.8,2.7l-.5.2,1.1-3.6c-1.3-1.8.9-8.5.3-13.1-.2-1.4-1-5.5-4-5-3,.5-2.8,5.2-2.7,6.6.2,2-.3,5.6-.6,8.8-2.7-2.5-5.8-4.6-7.6-5.1-2.7-.8-4.9-.2-6,1.6-1,1.8,3.2,4,4.1,4.6,1.3,1,3.4,2.6,5.3,4.2-1.4.9-4.4-2.7-7.8-3.1-1-.1-4.5-.4-5.7,2.5-.6,1.5,1.5,2.5,2.7,2.9,3.1.9,7.1,3.8,8.2,4.6,4.2,3.3,9,5,14.5,5.1,5.2.1,10.2-.8,13.2-3.6,3-2.7,4.4-6.9,3.6-14Z" fill="#ffe8d2" stroke-width="0"/>
        <path d="m132,207.6c-4.6,0-6.8-4.1-6.8-4.1-2.5,3.5-6.9,1.4-6.9,1.4,0,0-.8,1.9-3.9,1.8s-2.7-2.2-2.7-2.2l-.5,4.7c.4,1-.8,2.2-1.8,1.8,0,0,.5,5.8-5,4.4,4.4,2.3,9.1,4.3,14.1,4.8s10.5-.6,13.9-4.3,3.5-12.2,3.5-12.2c0,0,.4,3.9-3.8,3.9Z" fill="#ffd2b0" stroke-width="0"/>
        <path d="m135.8,202.6c-.5-4.6-9.8-12.8-10.8-12.9-1.1,0-3.7.5-3,3.9.7,3.4,4.5,5.7,4.5,5.7,0,0-2.2,3.8-1.8,7.2,0,0-5.2,2.6-6.8,2.7l-.5.2,1.8-2.4c-2-6.7,0-9.2-.3-14.2s-1-5.5-4-5.1-2.7,4.2-2.7,6.6-.3,5.6-.6,8.8c-2.7-2.5-5.8-4.6-7.6-5.1-2.7-.8-4.9-.2-6,1.6-1,1.8,3.2,4,4.1,4.6,1.3,1,3.4,2.6,5.3,4.2-1.4.9-4.4-2.7-7.8-3.1-1-.1-4.5-.4-5.7,2.5-.6,1.5,1.5,2.5,2.7,2.9,3.1.9,7.1,3.8,8.2,4.6,4.2,3.3,9,5,14.5,5.1,5.2.1,10.2-.8,13.2-3.6,3-2.7,4.4-6.9,3.6-14Z" fill="none" stroke="#f7c194" stroke-linecap="round" stroke-linejoin="round"/>
        <path d="m121.8,204c-3.8,0-5.7,3.2-4.7,5.5s2.7,1.7,4.9,1.7,4.7-.8,5.1-2.5-1.5-4.7-5.3-4.7Z" fill="#ffe8d2" stroke="#f7c194" stroke-linecap="round" stroke-linejoin="round"/>
        <path d="m111.5,202.4c.1,3.1-.4,4.8-.2,5.8s1,1.7,1,1.7" fill="none" stroke="#f7c194" stroke-linecap="round" stroke-linejoin="round"/>
        <path d="m106.5,207.9c1.5,1.1,3.3,3.4,3.3,3.4" fill="none" stroke="#f7c194" stroke-linecap="round" stroke-linejoin="round"/>
      </g>
    </g>
  </g>
</svg>