<?xml version="1.0" encoding="UTF-8"?>
<svg id="_레이어_2" data-name="레이어 2" xmlns="http://www.w3.org/2000/svg" width="663.3" height="793.5" xmlns:xlink="http://www.w3.org/1999/xlink" viewBox="0 0 221.1 264.5">
  <defs>
    <clipPath id="clippath">
      <path d="m69.4,57.4c-12.6-6.3-33-11.1-47.1-10.3,2.8,7.9,7.6,15.1,13.7,20.8-8.8,1.1-17.5,3.3-25.8,6.6,4.5,5.5,10.1,10.2,16.4,13.5-7.3,2-14.5,4.9-21.2,8.4,5.8,5,12.9,8.3,20.4,9.5-9.9,4.2-18.8,10.6-25.9,18.5,7.5,3.3,23.8,4.5,23.8,4.5l-17.3,14.8,16.7,4.7s-7.3,10.7-9,16.4c4.2-1.3,8.5-2.6,12.7-3.9-1.8,6.7-3.6,13.5-5.3,20.2,8.9-2.8,17.3-7,24.9-12.4l23-111.4Z" fill="#c67c2c" stroke-width="0"/>
    </clipPath>
    <clipPath id="clippath-1">
      <path d="m220.9,41.9l-13.1-.5,13.3-14-13.1,1.9,6-11.3s-30.7,9.2-37.1,33.9c-4.7,18.3,10.9,39.9,10.9,39.9,0,0,.8,1.3,2,3.5,2.5-.5,4.9-1.8,6.8-3.5-.6-1.3-1-2.6-1.2-3.9-5.6-34.6,25.4-46.1,25.4-46.1Z" fill="#c67c2c" stroke-width="0"/>
    </clipPath>
  </defs>
  <g id="Layer_3" data-name="Layer 3">
    <g>
      <g>
        <path d="m44.3,193c9.1,8.3,10.8,18.8,9.2,31-1.9,13.4-6.3,24.4-9.1,30.3-1.2,2.5.3,5.4,3,5.9,6.5,1.2,12.2,1.2,16.1,1s5.8-2.3,6.6-5.3c3.1-10.7,10.2-36.9,10.8-48.8l-36.6-14.1Z" fill="#478e6e" stroke-width="0"/>
        <path d="m47.3,247.3c-1.1,2.8-2.1,5.1-3,6.9-1.2,2.5.3,5.4,3,5.9,6.5,1.2,12.2,1.2,16.1,1,3.1-.2,5.8-2.3,6.6-5.3.6-2,1.2-4.4,2-7.2-8.3.3-16.6-.1-24.8-1.3Z" fill="#646d68" stroke-width="0"/>
      </g>
      <path d="m128.2,211.8c7.6,3,15.8,6.7,19.3,14.1,2.6,5.4,2,11.9-.2,17.4-1.6,4.1-4.6,8.8-7.6,12.9s-.2,5,2.4,5.3c5.3.6,11.9.6,16.1.5s4.8-1.5,6-3.7c4.4-8,14.3-27.1,12.9-32.1-1.8-6.4-8.5-1.4-10.8-11s5.7-24.5,5.7-24.5l-43.9,21.2Z" fill="#478e6e" stroke-width="0"/>
      <path d="m66.1,48.5c.2-.9,1.4-1.9,2.1-2.8,8.5-9.4,12-22.9,9.6-35.3,0-.8,0-1.6.1-2.3.5-1.7,2.5-3.1,3.7-1.6,1.5,2.2,1.7,7.9,2.4,11,.3,1.8.4,2.4.7,1.9.9-1.4,5.5-10,9.7-16.6.7-1.1,1.7-2.9,3.1-2.9,1.8.4,2.9,2.7,3.1,4.4.2,2-1.5,4.1-2.8,6.2-2.1,3.3-4.4,6.6-6.4,10-.7,1.2-.5,1.8,1.2.8,1.2-.6,2.4-1.4,3.6-2,1.6-.9,3-1.6,4.2-.9,2.1,1.5,2.2,5.3-.4,6.7-11.4,5.8-17.8,17.5-22.2,28.9-.5,1.1-.9,2.8-2.2,2.8-.5,0-1-.4-1.5-.7-1.8-1.3-4.8-3.8-6.7-5.2-.7-.6-1.6-1.3-1.5-2.2h0Z" fill="#896e3d" stroke-width="0"/>
      <path d="m98.2,49.8c.2-.8,1.3-1.8,2-2.6,8.1-9,11.5-21.9,9.2-33.7,0-.8,0-1.5.1-2.1.5-1.7,2.4-2.9,3.5-1.6,1.4,2.1,1.6,7.5,2.3,10.5.3,1.7.3,2.3.7,1.8.8-1.4,5.3-9.6,9.2-15.9.7-1.1,1.7-2.7,2.9-2.8,1.7.3,2.8,2.6,3,4.2.2,2-1.4,3.9-2.6,5.9-2,3.2-4.2,6.3-6.1,9.5-.6,1.1-.5,1.7,1.2.8,1.1-.6,2.3-1.3,3.4-2,1.5-.9,2.8-1.6,4-.9,2,1.4,2.1,5.1-.4,6.4-10.8,5.5-17,16.7-21.2,27.6-.5,1-.8,2.7-2.1,2.7-.5,0-1-.4-1.5-.7-1.7-1.3-4.6-3.6-6.4-5-.7-.6-1.5-1.2-1.4-2.1h0Z" fill="#896e3d" stroke-width="0"/>
      <g>
        <path d="m69.4,57.4c-12.6-6.3-33-11.1-47.1-10.3,2.8,7.9,7.6,15.1,13.7,20.8-8.8,1.1-17.5,3.3-25.8,6.6,4.5,5.5,10.1,10.2,16.4,13.5-7.3,2-14.5,4.9-21.2,8.4,5.8,5,12.9,8.3,20.4,9.5-9.9,4.2-18.8,10.6-25.9,18.5,7.5,3.3,23.8,4.5,23.8,4.5l-17.3,14.8,16.7,4.7s-7.3,10.7-9,16.4c4.2-1.3,8.5-2.6,12.7-3.9-1.8,6.7-3.6,13.5-5.3,20.2,8.9-2.8,17.3-7,24.9-12.4l23-111.4Z" fill="#c67c2c"/>
        <g clip-path="url(#clippath)">
          <path d="m19.9,44.7c11.6,13.1,26,23.8,42,31.1" fill="none" stroke="#ad624e" stroke-miterlimit="10" stroke-width="2"/>
          <path d="m30.1,44.8c6.3,6.8,13.6,12.6,21.6,17.3" fill="none" stroke="#ad624e" stroke-miterlimit="10" stroke-width="2"/>
          <path d="m2.9,68.7c19.5,3.5,37.6,14.4,49.9,29.9" fill="none" stroke="#ad624e" stroke-miterlimit="10" stroke-width="2"/>
          <path d="m1,95.2c18.2,5.2,36.7,9.1,55.5,11.6" fill="none" stroke="#ad624e" stroke-miterlimit="10" stroke-width="2"/>
          <path d="m26.4,67c11.9,5.4,21.9,14.8,28,26.3" fill="none" stroke="#ad624e" stroke-miterlimit="10" stroke-width="2"/>
          <path d="m9,88.2c14.4,4.4,29,8.3,43.7,11.6" fill="none" stroke="#ad624e" stroke-miterlimit="10" stroke-width="2"/>
          <path d="m-6.5,124.6c19.5-.4,38.9-3.3,57.6-8.7" fill="none" stroke="#ad624e" stroke-miterlimit="10" stroke-width="2"/>
          <path d="m.9,116.1c16.1-.6,32.3-2,48.3-4.4" fill="none" stroke="#ad624e" stroke-miterlimit="10" stroke-width="2"/>
          <path d="m-1.2,143c17.4-2.1,34.5-7.4,50-15.7" fill="none" stroke="#ad624e" stroke-miterlimit="10" stroke-width="2"/>
          <path d="m7.7,167.8c13-8.7,26.2-17.1,39.5-25.3" fill="none" stroke="#ad624e" stroke-miterlimit="10" stroke-width="2"/>
          <path d="m13.9,186.8c10.4-9.3,20.1-19.2,29.2-29.8" fill="none" stroke="#ad624e" stroke-miterlimit="10" stroke-width="2"/>
          <path d="m6.3,147c13.9.9,27.9-1.8,40.5-7.7" fill="none" stroke="#ad624e" stroke-miterlimit="10" stroke-width="2"/>
        </g>
      </g>
      <path d="m99.5,52.6c6.9-13.4,24.6-16.4,27.3-15.3s2.1,19.6-10,32.7l-17.3-17.4Z" fill="#3d916b" stroke-width="0"/>
      <path d="m124.7,41.9c-2-1.2-8.9,5.7-12.1,10.5,2.7,1.3,8.2,4,8.2,4,0,0,5.9-13.4,3.9-14.5Z" fill="#2c7c56" stroke-width="0"/>
      <path d="m124.6,72.6c3.6,2.2,7.4,4.2,11.6,5.2,4.3,1.2,9,1.4,12.4,4.1,5.8,4.8,4.1,15.2-1.6,19.4-1.8,1.4-4,2.2-6.1,2.9" fill="#54af88" stroke-width="0"/>
      <path d="m186.1,138.3c-5-1.9-10.3-2.2-15.6-1.9-11.7.6-23.6,4.5-35.3,1.3-7.6-1.8-14.3-8.5-15.4-15.9,22.6-4.5,30.4-21.3,19.1-47.2h0c-11.1-38.5-67.4-23.9-67.4-23.9-5.9-9-25.6-17.7-30.8-14.2-5.2,3.5-.5,22.8,10.2,34.7-10.7,35.5-11.7,49.1-15.1,74.3-3.3,25.5,1.7,54.5,31.5,66.8,28.7,12.1,90.3,12.9,116.4-5.4,11.4-7.4,20.3-19.5,22-33.2,2.1-14.3-5.9-30.1-19.6-35.2Z" fill="#67bf97" stroke-width="0"/>
      <path d="m54.1,62.5c-4.5-4.8-8.3-16-6.9-17.9s12.1,4.6,15.6,9.3l-8.7,8.6Z" fill="#6adba7" stroke-width="0"/>
      <path d="m153.5,209.4c8.3,3.3,17.3,7.3,21.2,15.4,2.8,5.9,2.2,13-.2,19.1s-5.1,9.6-8.3,14.1-.2,5.5,2.6,5.8c5.9.7,13.1.6,17.7.5s5.3-1.6,6.6-4c4.8-8.8,15.7-29.8,14.2-35.3s-9.3-1.5-11.8-12.1c-2-8.6,6.3-26.9,6.3-26.9l-48.2,23.3Z" fill="#67bf97" stroke-width="0"/>
      <g>
        <path d="m90.8,195.5c9.1,8.3,10.8,18.8,9.2,31-1.9,13.4-6.3,24.4-9.1,30.3s.3,5.4,3,5.9c6.5,1.2,12.2,1.2,16.1,1,3.1-.2,5.8-2.3,6.6-5.3,3.1-10.7,10.2-36.9,10.8-48.8l-36.6-14.1Z" fill="#67bf97" stroke-width="0"/>
        <path d="m93.8,249.9c-1.1,2.8-2.1,5.1-3,6.9-1.2,2.5.3,5.4,3,5.9,6.5,1.2,12.2,1.2,16.1,1,3.1-.2,5.8-2.3,6.6-5.3.6-2,1.2-4.4,2-7.2-8.3.3-16.6-.1-24.8-1.3Z" fill="#7a8781" stroke-width="0"/>
      </g>
      <path d="m102,54.1c-5.5-1.5-11.7-1.4-17.1.2s-15.7,6.3-15.7,6.3l5.9,2.9-5.6,8.5s14.2-3.3,24-4.2c5.9-.5,11.7-1,15.9-1.1s3.5-2.2,2.5-4c-1.8-3.2-5-7.3-9.9-8.7Z" fill="#e1f4ea" stroke-width="0"/>
      <g>
        <path d="m203.8,120.2c7.8,14.1,4.3,35.3-14.5,42.4l10.5,12.9s32.7-22.2,15.8-56.3c-3.9-7.8-15.1-18.3-19-27.3-1.9,1.7-4.3,3-6.8,3.5,3.3,5.8,9.9,17.5,14,24.8Z" fill="#67bf97" stroke-width="0"/>
        <g>
          <path d="m220.9,41.9l-13.1-.5,13.3-14-13.1,1.9,6-11.3s-30.7,9.2-37.1,33.9c-4.7,18.3,10.9,39.9,10.9,39.9,0,0,.8,1.3,2,3.5,2.5-.5,4.9-1.8,6.8-3.5-.6-1.3-1-2.6-1.2-3.9-5.6-34.6,25.4-46.1,25.4-46.1Z" fill="#c67c2c"/>
          <g clip-path="url(#clippath-1)">
            <path d="m193.2,99.4c-6-13.4-6.9-29-2.7-43.1,4.2-14.1,13.7-26.5,26-34.4" fill="none" stroke="#ad624e" stroke-miterlimit="10" stroke-width="2"/>
            <path d="m196.4,95.2s-9.6-19,0-36.8c5.9-10.9,15.9-19.8,27.4-24.3" fill="none" stroke="#ad624e" stroke-miterlimit="10" stroke-width="2"/>
            <path d="m188.9,95.3s-11.3-23.5-4.3-43.7c8.5-24.5,25.5-35.4,25.5-35.4" fill="none" stroke="#ad624e" stroke-miterlimit="10" stroke-width="2.3"/>
          </g>
        </g>
      </g>
      <path d="m129.5,51.5c5.3-2,11.3-1.5,16.8-.1l-4.4,3.9c2.4,1.2,4.6,2.9,6.4,4.9-8.2,0-16.4,1.5-24.1,4.3-1.5.5-4.1,1.4-5-.6s.7-3.8,1.4-5c2-3.5,5.3-6.1,9-7.5Z" fill="#e1f4ea" stroke-width="0"/>
      <ellipse cx="104.3" cy="76.9" rx="5.4" ry="7" transform="translate(-4.2 6.1) rotate(-3.3)" fill="#454746" stroke-width="0"/>
      <path d="m126.8,76.2c1.9,1.9,4.5,2.5,7.2,2.7.7-1.3,1.1-3.1.8-5.1-.5-3.6-2.7-6.2-5-5.9-2.3.3-3.7,3.4-3.3,7,0,.5.1.9.3,1.3Z" fill="#454746" stroke-width="0"/>
      <path d="m136.7,82c-1.3.3-2.6.8-3.5,1.9-1.1,1.3-1.2,3.1-.8,4.8,1,4.6,5.4,8.2,10,8.2s9.1-3.6,10.1-8.1c1.8-8.5-10.7-8-15.8-6.7Z" fill="#e08d70" stroke-width="0"/>
      <path d="m117.7,104.9c4.2,4.7,10.3,7.6,16.5,7.9,2.5.1,5.2-.3,7.2-1.9s2.7-4.8,1-6.7l-24.7.8Z" fill="#efa5a5" stroke-width="0"/>
      <path d="m125.1,71.3s.2,5.4,3.7,6.2c6.3,1.5,11.6.9,11.6.9" fill="none" stroke="#337254" stroke-miterlimit="10" stroke-width="2"/>
      <path d="m96.7,98.6c-.7,2.2.9,4.6,2.9,5.6s4.5,1,6.7,1c20.6-.2,36.3-1.2,36.3-1.2" fill="none" stroke="#337254" stroke-miterlimit="10" stroke-width="2"/>
      <path d="m121.7,121.6c-1.5.3-2.9.3-4.4.3-2.3,0-4.6,0-7-.1-4.3-.2-8.6-.5-12.8-.7-1,4.1-2.9,10.2-5.5,13.7,2.7-.4,5.3-1.4,7.6-2.8,0,3.4.7,6.7,1.8,9.9,1.2-2.1,2.4-4.3,3.6-6.4,2.8,3.9,6.1,7.5,9.8,10.6.5-4.4,1.1-8.7,1.6-13.1,3.9,2.3,8.8,3.3,13.6,2.8-4.2-4-7.1-9-8.3-14.4Z" fill="#e1f4ea" stroke-width="0"/>
      <path d="m96.5,96.1c-7.8,5-16.4,8.6-25.4,10.7,1.3-.3,3.3.3,4.7.3s3.3,0,4.9-.2c3.3-.3,6.6-1.1,9.7-2.1s6.3-2.6,9.1-4.4,5.7-3.3,5.4-5.7c-.4-3.7-7,.5-8.4,1.4Z" fill="#e1f4ea" stroke-width="0"/>
      <path d="m93.2,120.2c8.9,1.9,18.1,2.5,27.2,1.7" fill="none" stroke="#337254" stroke-miterlimit="10" stroke-width="2"/>
      <path d="m143.3,251c-1.1,1.8-2.3,3.6-3.5,5.2-1.5,2.1-.2,5,2.4,5.3,5.3.6,11.9.6,16.1.5,2.5,0,4.8-1.5,6-3.7,1.1-2,2.5-4.7,4.1-7.7-7.5.8-18.2.6-25,.4Z" fill="#646d68" stroke-width="0"/>
      <path d="m169.9,252.5c-1.2,1.9-2.6,3.9-3.9,5.7-1.6,2.3-.2,5.4,2.6,5.7,5.9.7,13.2.6,17.8.5,2.8,0,5.3-1.6,6.6-4,1.2-2.2,2.8-5.1,4.5-8.3-8.3.8-20,.7-27.6.4Z" fill="#7a8781" stroke-width="0"/>
      <g>
        <path d="m199,163.7c-1.5-5.8-5.8-10.8-11.4-12.8s-12.4-.5-16.5,3.8c-4.1,4.3-5.2,11.3-2.3,16.5,2.1,3.7,6.5,6.4,10.6,5.5,3.6-.8,6.3-4,7-7.6.5-2.4.2-5.1-1.2-7.1s-4-3.3-6.4-2.7-4.2,3.2-3.6,5.6,3.9,3.8,5.8,2.3" fill="none" stroke="#328e64" stroke-linecap="round" stroke-linejoin="round" stroke-width="2"/>
        <path d="m168.1,170.5c-3.7.6-7.2,2.3-9.8,5s-4,6.5-3.6,10.2,2.7,7.2,6.2,8.7,7.8.7,10.2-2.2,2.5-7.5,0-10.2c-1.3-1.3-3.1-2.2-4.9-1.9s-3.5,1.7-3.7,3.5,1.2,3.7,3,3.8" fill="none" stroke="#328e64" stroke-linecap="round" stroke-linejoin="round" stroke-width="2"/>
        <path d="m172.3,190.6c0,2.2,1.1,4.3,2.8,5.7s3.9,2.1,6.1,2.2c3,.2,6.1-.8,8.4-2.8s3.7-5,3.5-8.1c-.2-3-2.2-5.9-5-7.1-2.3-1-5.2-.7-7,1.1s-2.1,4.9-.5,6.7,5.2,1.6,6.3-.6" fill="none" stroke="#328e64" stroke-linecap="round" stroke-linejoin="round" stroke-width="2"/>
      </g>
      <path d="m76,215.8c-16.3-4-30-17.5-33.8-33.9-3.5-13.9,2.1-27.7,18.2-26.6,9.8.9,19.6,9.7,23.2,18.5,16.5,40.8,47.8,46.5,47.7,46.7,0,.4-33,1.7-55.2-4.7h-.1Z" fill="#81d3ac" stroke-width="0"/>
      <path d="m131,109.1c-1.4-.4-2.8-1.2-4.3-1.3-.8,0-1.4.5-1,1.2,1.5,1.8,6.2,2.6,8.3,1.9.4-.2.9-.5.6-.9-.7-.6-2.6-.5-3.6-1h0Z" fill="#ffc5c5" stroke-width="0"/>
      <path d="m135.3,91.1c1.3-.9,3.2-1,4.6-.2s2.3,2.4,2.3,4.1" fill="none" stroke="#c67055" stroke-miterlimit="10"/>
      <path d="m151.3,89.2c-1.6.8-2.6,2.7-2.5,4.5" fill="none" stroke="#c67055" stroke-miterlimit="10"/>
      <g>
        <path d="m141,141.6c-.6,0-1.3.2-1.9.5s-1,.9-1.1,1.5c0,1,.8,1.8,1.7,2.3,1.4.8,3,1.2,4.6,1.2,1.1,0,2.3-.2,3.2-.8s1.6-1.8,1.4-2.9c-.4-3-5.9-2.1-7.9-1.8Z" fill="#40a074" stroke-width="0"/>
        <path d="m131,145.5c-.5,0-1-.1-1.5,0s-1,.5-1.1,1c-.3.8.3,1.5.8,2.1.9.9,2.1,1.5,3.3,1.8.9.2,1.8.3,2.6,0s1.6-1,1.7-1.9c.3-2.4-4.2-2.8-5.7-3Z" fill="#40a074" stroke-width="0"/>
        <path d="m165.4,147.2c-.5.2-.9.5-1.3.9s-.6.9-.5,1.4c.2.8,1,1.2,1.8,1.3,1.3.3,2.6.2,3.8-.2.9-.3,1.7-.7,2.2-1.4s.8-1.7.4-2.5c-1.1-2.2-5-.2-6.5.5Z" fill="#40a074" stroke-width="0"/>
        <path d="m176,142c.5,0,1-.1,1.5-.4s.9-.7.9-1.2c0-.8-.6-1.5-1.3-1.9-1.1-.7-2.3-1.1-3.6-1.1-.9,0-1.8,0-2.6.6s-1.3,1.4-1.2,2.2c.3,2.4,4.6,1.9,6.2,1.7Z" fill="#40a074" stroke-width="0"/>
        <path d="m186.1,143.6c.4,0,.9,0,1.3,0s.8-.4.9-.8c.2-.6-.3-1.3-.7-1.7-.8-.7-1.7-1.2-2.8-1.4-.7-.2-1.5-.2-2.2,0s-1.3.9-1.3,1.6c-.2,2,3.5,2.2,4.8,2.3Z" fill="#40a074" stroke-width="0"/>
        <path d="m148.8,148c-.6,0-1.3.2-1.9.5s-1,.9-1.1,1.5c0,1,.8,1.8,1.7,2.3,1.4.8,3,1.2,4.6,1.2,1.1,0,2.3-.2,3.2-.8s1.6-1.8,1.4-2.9c-.4-3-5.9-2.1-7.9-1.8Z" fill="#40a074" stroke-width="0"/>
        <path d="m50.9,129.7c0-.6-.2-1.3-.5-1.9s-.9-1-1.5-1.1c-1,0-1.8.8-2.3,1.7-.8,1.4-1.2,3-1.2,4.6,0,1.1.2,2.3.9,3.2s1.8,1.6,2.9,1.4c3-.5,2.1-5.9,1.8-7.9Z" fill="#40a074" stroke-width="0"/>
        <path d="m46.9,119.7c0-.5,0-1,0-1.5s-.5-1-1-1.1c-.8-.3-1.5.3-2.1.8-.9.9-1.5,2.1-1.8,3.3-.2.9-.3,1.8,0,2.6s1.1,1.6,1.9,1.6c2.4.2,2.8-4.2,3-5.8Z" fill="#40a074" stroke-width="0"/>
        <path d="m49.1,106.3c0-.5,0-1,0-1.5s-.5-1-1-1.1c-.8-.3-1.5.3-2.1.8-.9.9-1.5,2.1-1.8,3.3-.2.9-.3,1.8,0,2.6s1.1,1.6,1.9,1.6c2.4.2,2.8-4.2,3-5.8Z" fill="#40a074" stroke-width="0"/>
        <path d="m52.9,119c0-.4,0-.7,0-1.1s-.3-.7-.7-.8c-.5-.2-1.1.2-1.5.6-.6.7-1.1,1.5-1.3,2.4-.2.6-.2,1.3,0,1.9s.8,1.1,1.4,1.2c1.7.2,2-3,2.1-4.1Z" fill="#40a074" stroke-width="0"/>
        <path d="m44.5,137.6c0-.6-.2-1.3-.5-1.9s-.9-1-1.5-1.1c-1,0-1.8.8-2.3,1.7-.8,1.4-1.2,3-1.2,4.6,0,1.1.2,2.3.9,3.2s1.8,1.6,2.9,1.4c3-.5,2.1-5.9,1.8-7.9Z" fill="#40a074" stroke-width="0"/>
        <path d="m158.4,140.6c-.6.3-1.2.6-1.7,1s-.8,1.1-.6,1.8c.2,1,1.3,1.5,2.2,1.7,1.6.4,3.2.3,4.8-.1,1.1-.3,2.1-.8,2.8-1.7s1-2.1.6-3.1c-1.3-2.8-6.3-.4-8.1.4Z" fill="#40a074" stroke-width="0"/>
      </g>
      <ellipse cx="107" cy="74.6" rx="1.1" ry="1.4" fill="#fff" stroke-width="0"/>
      <ellipse cx="132.1" cy="71.8" rx="1.1" ry="1.4" fill="#fff" stroke-width="0"/>
    </g>
  </g>
</svg>