<?xml version="1.0" encoding="UTF-8"?>
<svg id="_레이어_2" data-name="레이어 2" xmlns="http://www.w3.org/2000/svg" width="689.7" height="736.8" xmlns:xlink="http://www.w3.org/1999/xlink" viewBox="0 0 229.9 245.6">
  <defs>
    <clipPath id="clippath">
      <path d="m221.8,87c-1.1-13-7.7-25.3-17.4-34.5-9.7-9.2-22.4-15.3-35.7-18.3l-25.9,37.5c66.3,43.2-50.1,26.2-89.4,57.7-16.9,13.6-26.1,33.1-21.7,47.7,4.7,15.6,21.1,26.4,37.8,29.7,51.3,10,116.8,2.7,137.6-35.6,16.7-30.7-1.9-52.4-1.9-52.4,0,0,17.6-18.9,16.5-31.9Zm-42.2,47.4c1.9,4.6-14.6,23.8-41.2,33.5-12.3,4.5-33.7,9.5-37.8-1.9s10.8-18.1,14-19c12.8-3.3,24.9-5.8,37.7-9.2s25.5-8,27.4-3.4Z" fill="#83baff" stroke-width="0"/>
    </clipPath>
    <clipPath id="clippath-1">
      <path d="m149.4,70.8c6.1,2.1,12.3,4.3,17.2,8.4,4.9,4.1,8.3,10.7,6.9,17-1.7,7.6-9.4,12-16.7,14.8-13.3,5.1-27.5,7.7-41.4,10.6s-28,6.3-40.7,12.9c-12.7,6.6-23.9,16.8-29.2,30.1s-3.6,29.7,6.3,40c-9.2,2-18.9-3.6-23.8-11.7-4.9-8-5.9-17.9-5.2-27.3,1.3-17.4,8.4-35.1,22.2-45.8,11.2-8.7,25.5-12,39.4-15.1,13.8-3.1,27.7-6.2,41.5-9.3,5.1-1.1,10.6-2.5,14.1-6.4s3.7-11.2-1-13.6" fill="#bedbfc" stroke-width="0"/>
    </clipPath>
  </defs>
  <g id="Layer_3" data-name="Layer 3">
    <g>
      <path d="m47,43.3l-13.2,17.3s0,0,0,0l6.2-.2s0,0,0,0l-7.4,9.7s0,0,0,0l5.8-.8s0,0,0,0c-.5,1.2-8.5,19-11.8,27.3s0,0,0,0c-3.7-7.7-4.9-16.6-3.3-25.1,1.6-8.4,9.4-25.6,9.4-25.6,0,0,14.2-2.8,14.2-2.8Z" fill="#3168a3" stroke-width="0"/>
      <path d="m120.5,159.6c-.5,3.6-2.7,7.6-2.7,7.6l22.3-12.9c.2,5.2-1.1,8.4-1.1,8.4l16-13.6.9,4.8,13.5-13.2,1.3,4.5s6.4-10.3,9.6-15.9c4.1,5.2,3.3,13-.1,18.7-3.5,5.6-21.1,20.5-57.5,27-22.2,3.9-30.2-7.8-30.2-7.8l28.1-7.6Z" fill="#3168a3" stroke-width="0"/>
      <path d="m46.7,155.8c-8.3-1.6-36.7-15.7-44.4-45.7C-11,58.4,37.1,36.3,44.3,37c-4.8,2.7-30,34.8-2.2,70.1,14.9,18.9,37.1,25.6,37.1,25.6l-32.5,23.2Z" fill="#5496dd" stroke-width="0"/>
      <g>
        <path d="m221.8,87c-1.1-13-7.7-25.3-17.4-34.5-9.7-9.2-22.4-15.3-35.7-18.3l-25.9,37.5c66.3,43.2-50.1,26.2-89.4,57.7-16.9,13.6-26.1,33.1-21.7,47.7,4.7,15.6,21.1,26.4,37.8,29.7,51.3,10,116.8,2.7,137.6-35.6,16.7-30.7-1.9-52.4-1.9-52.4,0,0,17.6-18.9,16.5-31.9Zm-42.2,47.4c1.9,4.6-14.6,23.8-41.2,33.5-12.3,4.5-33.7,9.5-37.8-1.9s10.8-18.1,14-19c12.8-3.3,24.9-5.8,37.7-9.2s25.5-8,27.4-3.4Z" fill="#83baff"/>
        <g clip-path="url(#clippath)">
          <g>
            <path d="m149.4,70.8c6.1,2.1,12.3,4.3,17.2,8.4,4.9,4.1,8.3,10.7,6.9,17-1.7,7.6-9.4,12-16.7,14.8-13.3,5.1-27.5,7.7-41.4,10.6s-28,6.3-40.7,12.9c-12.7,6.6-23.9,16.8-29.2,30.1s-3.6,29.7,6.3,40c-9.2,2-18.9-3.6-23.8-11.7-4.9-8-5.9-17.9-5.2-27.3,1.3-17.4,8.4-35.1,22.2-45.8,11.2-8.7,25.5-12,39.4-15.1,13.8-3.1,27.7-6.2,41.5-9.3,5.1-1.1,10.6-2.5,14.1-6.4s3.7-11.2-1-13.6" fill="#bedbfc"/>
            <g clip-path="url(#clippath-1)">
              <path d="m44.8,113c-.9,6.3.7,12.9,4.4,18s9.4,8.8,15.6,10.1" fill="none" stroke="#95c7f9" stroke-miterlimit="10" stroke-width="3"/>
              <path d="m24.2,145.6c1.2,6.2,4.9,11.9,10.1,15.5s11.8,5.2,18,4.4" fill="none" stroke="#95c7f9" stroke-miterlimit="10" stroke-width="3"/>
              <path d="m18.2,180.6c4.9,4,11.3,6.1,17.7,5.6s12.4-3.4,16.7-8" fill="none" stroke="#95c7f9" stroke-miterlimit="10" stroke-width="3"/>
              <path d="m73.6,101.4c-.9,6.3.7,12.9,4.4,18s9.4,8.8,15.6,10.1" fill="none" stroke="#95c7f9" stroke-miterlimit="10" stroke-width="3"/>
              <path d="m103.7,94.3c-.9,6.3.7,12.9,4.4,18s9.4,8.8,15.6,10.1" fill="none" stroke="#95c7f9" stroke-miterlimit="10" stroke-width="3"/>
              <path d="m141.3,87.8c2.1,6,6.5,11.1,12.1,14.1,5.6,2.9,12.4,3.6,18.4,1.9" fill="none" stroke="#95c7f9" stroke-miterlimit="10" stroke-width="3"/>
            </g>
          </g>
        </g>
      </g>
      <g>
        <path d="m101.9,169.9s-15.1.4-21.4,4.1c-27.1,15.9-2.6,42.5-2.6,42.5,0,0-26.2,10.8-25.5,12.6s10.5,2.8,10.5,2.8c0,0-11.2,11.3-10.3,13.4s17.9-8.3,35.2-12.9c17.2-4.6,34.8-5.8,35.1-8.7s-24.7-7.8-24.7-7.8l.6-11.3" fill="#83baff" stroke-width="0"/>
        <path d="m71.8,206.9s-8.3-11.2-6.5-17.7c2.5-9.4,24.5-5.3,24.5-5.3" fill="none" stroke="#4686cc" stroke-miterlimit="10" stroke-width="2"/>
      </g>
      <path d="m177.6,38.9c14.2-2.5,29.4,1.6,40.5,10.8-3.9,1-7.8,2-11.8,3,7.9,3.5,14.3,10.1,17.6,18l-3.9.3c5.9,10.7,9.3,22.8,9.9,35-2.8-.7-5.6-1.5-8.3-2.2-.7,11.7-13.2,21-13.2,21l-3.6-5.3s-6.7,13.3-15.8,17.5l-1.7-7.5s-3.4,11.2-19.4,18l-.5-8.8s-15,12.9-22.5,14l1.4-8.7s-14.3,11.2-22.1,12.5l2.2-8.2s-10.4,7-18.2,9.2l.2-8.2c22.9-10.5,48.1-11.1,70.9-21.9,11-5.2,21.8-12.3,27.6-23,7-12.8,5.4-29.3-2.2-41.7-7.6-12.5-20.5-21.1-34.4-25.5l7.2,1.7Z" fill="#3168a3" stroke-width="0"/>
      <path d="m67.8,72.8c-6.4-14.1-17.7-17.1-31.4-18.7-2.4-.3-4.8-.5-7.2-.9-4.8-.8-8.4-2.1-11.2-4.1-9.1-6.1-9.4-19-5-28.1,2.2-5.1,6.6-9.4,11.5-11.3,3.8-1.5,7.7-1.4,11.2.3,3.1,1.3,5.5,4.1,6.4,7.5.8,2.9.8,7.1-.9,9.4-1.1,1.7-5.2,6.9-10,4.7s-2.3-8.6.1-9.6c0,0-2.2,4.8,1.1,6.4s6.3-1.8,7.2-3.4,1.1-4.7.4-7c-.7-2.7-2.7-5-5.1-6-3-1.4-6.3-1.5-9.5-.2-4.4,1.7-8.3,5.6-10.3,10.2-4,8.3-3.8,20,4.3,25.4,2.6,1.8,5.9,3,10.3,3.8,2.3.3,4.8.6,7.1.9,13.7,1.5,27.8,3.1,34.7,18.4l-3.6,2.5Z" fill="#ea4613" stroke-width="0"/>
      <path d="m88.7,37.1c-3.1,4.9-6.8,21.7-6.8,21.7l-30.7,19.1c-2.9,1.4-3.3,5.4-.7,7.3,0,0,8.9,11.5,17.1,14.6s49.2-10.2,49.2-10.2l29.2,7.4-3.2-12.3,28.8,1-11-12.3,21.7-1.9-10.4-10.9,13.7-7.7-20.9-6.1c7-6.6,23.2-16.8,23.2-16.8h-43.6c0-.1,12.4-26.4,12.4-26.4,0,0-64.8,28.7-67.9,33.6Z" fill="#83baff" stroke-width="0"/>
      <polygon points="176.6 62.1 190.3 54.4 169.5 45.1 175.8 37.7 161.5 45.3 178.6 54.5 165.9 59.2 178.1 70 154.6 72 166 82.3 143.5 84.6 176.3 87.2 165.3 74.9 187 73 176.6 62.1" fill="#5da6f4" stroke-width="0"/>
      <path d="m79.9,85.3s8.9,9.5,10.5,9.1.7-12.6.7-12.6l-11.2,3.6Z" fill="#fff" stroke-width="0"/>
      <path d="m57.9,93.6c8-4.1,16.4-7.2,25.1-9.4,3.4-.8,6.8-1.6,9.8-3.4s5.3-5,5.1-8.5" fill="none" stroke="#3687e0" stroke-miterlimit="10" stroke-width="1.5"/>
      <ellipse cx="98.8" cy="52.6" rx="5.1" ry="6.9" transform="translate(-11.8 35.5) rotate(-19.2)" fill="#454746" stroke-width="0"/>
      <path d="m108.3,36.7c1.9-1.4,6.6-11,6.6-11l-30.2,16.7s-4.8,11.8-3.4,13.1,34.7-16.8,34.7-16.8c0,0-7-2.4-7.7-2Z" fill="#cce4ff" stroke-width="0"/>
      <path d="m79.2,75.1c-8.8,12.8-5.5,24,.2,36.5,1,2.2,2,4.4,3,6.6,1.8,4.6,2.5,8.3,2.3,11.7-.5,10.9-11.4,17.9-21.5,18.8-5.5.8-11.5-.8-15.6-4-3.2-2.5-5.2-5.9-5.6-9.7-.5-3.3.7-6.8,3.1-9.3,2.1-2.2,5.7-4.3,8.6-4.1,2,0,8.6.9,9.2,6.2.6,4.7-6.1,6.4-8.3,4.8,0,0,5.3-.6,4.9-4.2s-4.8-4.5-6.6-4.4-4.6,1.5-6.2,3.2c-1.9,2-2.9,4.9-2.5,7.5.4,3.3,2,6.1,4.7,8.3,3.7,2.9,9.1,4.3,14,3.6,9.1-.9,19.1-7.1,19.5-16.8.2-3.1-.5-6.6-2.1-10.8-.9-2.2-1.9-4.4-2.9-6.6-5.8-12.5-11.7-25.4-2.2-39.2l4,1.8Z" fill="#ea4613" stroke-width="0"/>
      <path d="m164.7,109.8l-22.1-2.9s-3.9-4.7-8-8.5c-2.7-2.6-13.9-4.1-13.9-4.1,0,0-13,4.3-18.1,8.7l5.6.7-1.3,4.7,7.1-.9-1.1,4.9,13-3.8s3.5,11.8,5.5,13.9c1.9,2.2,19.2,4.1,19.2,4.1l14.1-16.7Z" fill="#83baff" stroke-width="0"/>
      <path d="m123.1,38.3c18.2-9.3,38-24.4,43.2-27,5.2-2.7,16.5,1.9,21.7,1.7S210.3-1.4,212.8.1c2.5,1.5-9.5,15.5-9.5,15.5,0,0,9.4,2.9,8.8,3.9-1.3,4.2-36.5,5.4-36.5,5.4,0,0-17.2,12.6-35.3,25.8l-17.2-12.4Z" fill="#777" stroke-width="0"/>
      <path d="m116.8,36.3c6.5-1.7,19.5-6.7,19.5-6.7,0,0-3.7,8.7-6.2,11.6,2.5-.4,5-.7,7.4-1.1-.4,1.9-.9,3.8-1.3,5.7,5.4-.6,10.7-1.2,16.1-1.8-4.3,3.9-8.5,7.8-12.8,11.6" fill="#83baff" stroke-width="0"/>
      <ellipse cx="101.1" cy="51" rx="1.1" ry="1.4" fill="#fff" stroke-width="0"/>
    </g>
  </g>
</svg>