<?xml version="1.0" encoding="UTF-8"?>
<svg id="_레이어_2" data-name="레이어 2" xmlns="http://www.w3.org/2000/svg" width="876" height="531.3" viewBox="0 0 292 177.1">
  <g id="Layer_3" data-name="Layer 3">
    <g>
      <ellipse cx="146" cy="115.7" rx="146" ry="61.3" fill="#97ebff" stroke-width="0"/>
      <ellipse cx="166.5" cy="128.5" rx="44.5" ry="26" fill="#9fc626" stroke-width="0"/>
      <ellipse cx="227.6" cy="100.8" rx="43.9" ry="25.9" fill="#9fc626" stroke-width="0"/>
      <path d="m74.2,84.7c-26,0-47,11.7-47,26s.1,2.3.4,3.5c.5,1.9,2.3,3.1,4.2,2.8l30.3-4.6-24.2,9.2c-2.2.8-2.6,3.8-.7,5.1,8.6,6.1,22,10,36.9,10,26,0,47-11.7,47-26s-21-26-47-26Z" fill="#9fc626" stroke-width="0"/>
      <g>
        <path d="m99.6,139.7c13.3,0,24.1,6,24.1,13.4s0,1.2-.2,1.8c-.2,1-1.2,1.6-2.2,1.5l-15.5-2.4,12.4,4.7c1.1.4,1.3,1.9.3,2.6-4.4,3.1-11.3,5.1-18.9,5.1-13.3,0-24.1-6-24.1-13.4,0-7.4,10.8-13.4,24.1-13.4Z" fill="#9fc626" stroke-width="0"/>
        <path d="m76.7,149c-.7,1.3-1.1,2.6-1.1,4.1,0,7.4,10.8,13.4,24.1,13.4s10.4-1,14.5-2.7l-37.4-14.7Z" fill="#c7e54c" stroke-width="0"/>
      </g>
      <g>
        <path d="m172.8,88.8c15.2-5.7,32.3-6.4,47.8-4.9,9.4.9,18.7,2.9,27.6,5.9.9.3,1.9.7,2.5,1.7.4.9.4,1.8,0,2.7-.5.6-1.1,1.1-1.7,1.6-2.1,1.6-4.5,2.3-6.9,2.8-14,3.3-28.3,2.4-42.5,4.6-10.8,1.7-22,5.7-30.5,13.6-9.9-7.1-7.6-23.8,3.7-28Z" fill="#ff6e6e" stroke-width="0"/>
        <path d="m120.3,87.9c-15.1-6.1-32.2-7.1-47.5-5.8-9.3.8-18.4,2.8-27.2,5.9-.9.3-1.9.7-2.4,1.8-.4.9-.3,1.9,0,2.9.5.6,1.1,1.2,1.7,1.7,2.1,1.7,4.5,2.5,6.9,3.1,13.9,3.7,28.1,2.8,42.1,5.3,10.7,1.9,21.9,6.3,30.5,14.8,9.6-7.4,7-25.1-4.3-29.7Z" fill="#ff6e6e" stroke-width="0"/>
        <path d="m101.3,87.9c-12.5-2.8-21.9-14.1-26.5-26.6s-9.1-39.3-4.7-43.5,36.5,13.9,62.7,54.9l-31.5,15.2Z" fill="#fcb1b1" stroke-width="0"/>
        <path d="m120.3,74c-11.1-6.6-16.8-20.5-17.5-33.9-.7-13.4-.2-36.4,6.2-39.5,6.4-3.1,39.9,32.2,45.7,69.1l-34.4,4.3Z" fill="#fcb1b1" stroke-width="0"/>
        <path d="m144.5,59.7c-4.9-12.4-1.4-27,5.8-38.1C157.5,10.6,177.5-1.3,181.6.1c10.2,3.4,7.9,54-7.3,78.5l-29.8-19Z" fill="#fcb1b1" stroke-width="0"/>
        <path d="m161.9,64c.9-13.4,10.3-24.8,21.5-31.3,11.2-6.5,32.8-10.7,37.4-6.2s-16.2,53.6-40.3,68.4l-18.5-30.9Z" fill="#fcb1b1" stroke-width="0"/>
        <path d="m177.8,79.5c3.8-10.1,15.5-17,27.8-19.7,12.3-2.7,34.1-3.9,36.9,1.2s-18.8,35.6-53.5,46l-11.2-27.5Z" fill="#fcb1b1" stroke-width="0"/>
        <path d="m102.5,107.5c-9.6.3-31-10.1-39.6-20-8.6-9.9-21.4-29.3-18.9-34.8,2.5-5.4,47-2.3,76.8,23.1l-18.4,31.7Z" fill="#fcb1b1" stroke-width="0"/>
        <path d="m153.3,41.7c13-13,34-20.4,38.1-18.4,4.1,2.1,11.6,35.5,8,51.2l-31.4,4-14.7-36.9Z" fill="#ffd7d7" stroke-width="0"/>
        <path d="m151.5,41.2c11-10.4,35.9-20.6,40-18.5s5.7,39.8,2,55.5l-32.9-1.1-9.1-35.9Z" fill="#ff8383" stroke-width="0"/>
        <path d="m113.9,50.4c3.5-23.1,19.9-48.5,28.3-48.8,4.7-.1,23,26.4,29,45.7l-57.3,3Z" fill="#ffd7d7" stroke-width="0"/>
        <path d="m120.4,49.3c3.3-19,15.6-48.2,23.1-48.2s24.9,28.1,30.8,47.4l-53.9.8Z" fill="#ff8383" stroke-width="0"/>
        <g>
          <path d="m97.3,79.4c-4.8-16.3-4.5-47.8,1.6-54.4s30,15.9,40.7,25.2l-42.3,29.1Z" fill="#ffd7d7" stroke-width="0"/>
          <path d="m102.1,76.3c-3.6-13.6-6.6-48.7-3.3-51.4,3.3-2.7,32.8,15.3,43.5,24.6l-40.2,26.8Z" fill="#ff8383" stroke-width="0"/>
        </g>
        <path d="m103.5,58c.6-2.9,2.2-5.4,3.8-7.8,4.8-6.9,10.5-13,16.9-18.1,2.4-1.9,5.1-3.8,8.2-4.2s6.5,1,7.7,4c-8.9,8.6-16.9,18.2-24,28.5-1.3,1.9-2.5,3.8-4.3,5.1-5.5,4.1-9.4-1.8-8.3-7.5Z" fill="#fcb1b1" stroke-width="0"/>
        <path d="m186.7,58.8c-.6-2.9-2.2-5.4-3.8-7.8-4.8-6.9-10.5-13-16.9-18.1-2.4-1.9-5.1-3.8-8.2-4.2-3-.4-6.5,1-7.7,4,8.9,8.6,16.9,18.2,24,28.5,1.3,1.9,2.5,3.8,4.3,5.1,5.5,4.1,9.4-1.8,8.3-7.5Z" fill="#fcb1b1" stroke-width="0"/>
        <path d="m109.7,58.4s11.2-26.7,37.3-26.7,38.3,27.3,38.3,27.3c0,0-31.8,15.4-39.3,15.9-7.5.5-36.4-16.5-36.4-16.5Z" fill="#ff6e6e" stroke-width="0"/>
        <path d="m102.2,65.7c.6-6.2,1.3-12.5,3.2-18.4,1.9-5.9,5-11.5,9.7-15.4,1.5-1.2,3.3-2.3,5.1-1.6,1.4.5,2.3,2.1,2.6,3.6s0,3.2-.3,4.8l-20.3,27Z" fill="#fcb1b1" stroke-width="0"/>
        <path d="m190,66.9c-.6-6.2-1.3-12.5-3.2-18.4s-5-11.5-9.7-15.4c-1.5-1.2-3.3-2.3-5.1-1.6-1.4.5-2.3,2.1-2.6,3.6s.2,4.6.2,4.6c5.4,3,20.4,27.1,20.4,27.1Z" fill="#fcb1b1" stroke-width="0"/>
        <g>
          <path d="m127.7,50.1c-2.7,7.3,7.5,18.3,7.5,18.3h23.9s7-8.2,6.8-16.4-8.8-10.3-19.1-10.3-17.1,3.2-19.1,8.5Z" fill="#eaad24" stroke-width="0"/>
          <ellipse cx="146.3" cy="48.6" rx="17" ry="6.9" fill="#ffc943" stroke-width="0"/>
        </g>
        <path d="m101.8,78.7c-6.3-18.5,1.5-25.3,10.4-31.1,1.5-1,3.2-1.9,5-1.6,1.6.2,3,1.3,4.2,2.4,11.5,10.3,19,25.3,20.7,41.1l-40.3-10.7Z" fill="#ffcaca" stroke-width="0"/>
        <path d="m128.6,83.4c-.6-12.1,5.2-24.2,14.8-30.9,1.2-.9,2.6-1.7,4.1-1.5.8,0,1.6.5,2.3.9,10.6,6,18.6,16.7,21.7,28.9l-43,2.6Z" fill="#ffcaca" stroke-width="0"/>
        <path d="m161.2,77.2c-.7-11.6,4.3-23.5,13-30.7,1-.8,2.1-1.6,3.3-1.7,1.6-.1,3.1.8,4.4,1.9,11.5,9.4,16.2,27,11.1,41.4l-31.8-10.9Z" fill="#ffcaca" stroke-width="0"/>
        <path d="m148.5,110c-5.6-13.9-17.5-24.2-30.5-30.5-13.1-6.3-27.3-9.1-41.5-11.8-1.4,8.1,1.1,16.5,5.6,23.2s10.3,12.5,17.2,16.4c24.4,13.7,49.3,2.7,49.3,2.7Z" fill="#fcb1b1" stroke-width="0"/>
        <path d="m81.8,69.2s35.5,6.1,57.2,25.5c0,0-20.7-26.9-57.2-25.5Z" fill="#ffd7d7" stroke-width="0"/>
        <path d="m140.6,110c5.6-13.9,17.5-24.2,30.5-30.5,13.1-6.3,27.3-9.1,41.5-11.8,1.4,8.1-1.1,16.5-5.6,23.2-4.4,6.7-10.3,12.5-17.2,16.4-24.4,13.7-49.3,2.7-49.3,2.7Z" fill="#fcb1b1" stroke-width="0"/>
        <path d="m207.4,69.2s-35.5,6.1-57.2,25.5c0,0,20.7-26.9,57.2-25.5Z" fill="#ffd7d7" stroke-width="0"/>
        <path d="m137.6,74.4c-4.3,4.9-8.1,10.4-9.6,16.8-1.5,6.4-.2,13.9,4.6,18.2,4.8,4.3,11.9,4.5,18.2,3.5,6.2-1,12.6-3.1,16.9-7.9,3.9-4.4,5.6-10.5,5.7-16.5.2-8-1.1-28.1-10.1-31.3-8.7-3-20.6,11.5-25.7,17.3Z" fill="#fcb1b1" stroke-width="0"/>
        <path d="m118.2,113.6c-.3,8.3,22.9,12.6,30.9,12.6,8,0,31.8-11.1,32.8-17s-10.3-20-23.6-23.9c-13.1-3.9-39.8,20-40.1,28.2Z" fill="#f9d4d4" stroke-width="0"/>
        <path d="m159.3,90.3c9.2,2.6,17.5,9.6,22.2,15.9-2-6.7-11.8-17.6-23.3-21-13.1-3.9-39.8,20-40.1,28.2,0,.1,0,.3,0,.4,8-11,29.5-26.9,41.1-23.6Z" fill="#fff0f0" stroke-width="0"/>
        <path d="m94,102.8c-14-2.5-28.2-1.6-42.1-5.3-2.4-.6-4.8-1.4-6.9-3.1-.6-.5-1.2-1-1.7-1.7.5,1.4,1.6,2.7,2.7,3.6,19.3,17.1,42.6,26,65.2,25.1,4.2-.2,8.4-.7,12-2.9.5-.3.9-.6,1.4-.9-8.7-8.5-19.8-12.9-30.5-14.8Z" fill="#f9d4d4" stroke-width="0"/>
        <path d="m199.2,103.2c14.1-2.2,28.5-1.2,42.5-4.6,2.4-.6,4.8-1.3,6.9-2.8.6-.4,1.2-1,1.7-1.6-.5,1.3-1.6,2.6-2.6,3.4-19.2,15.9-42.5,24.2-65.4,23-4.2-.2-8.5-.8-12.2-2.9-.5-.3-1-.6-1.4-.9,8.6-7.9,19.8-12,30.5-13.6Z" fill="#f9d4d4" stroke-width="0"/>
        <g>
          <ellipse cx="143.5" cy="43.7" rx="1.8" ry="1" fill="#efb941" stroke-width="0"/>
          <ellipse cx="143.8" cy="51.9" rx="1.8" ry="1" fill="#efb941" stroke-width="0"/>
          <ellipse cx="142.2" cy="48.1" rx="1.8" ry="1" fill="#efb941" stroke-width="0"/>
          <ellipse cx="148.8" cy="48.2" rx="1.8" ry="1" fill="#efb941" stroke-width="0"/>
          <ellipse cx="151" cy="51.9" rx="1.8" ry="1" fill="#efb941" stroke-width="0"/>
          <ellipse cx="158.3" cy="49.7" rx="1.8" ry="1" fill="#efb941" stroke-width="0"/>
          <ellipse cx="151.5" cy="44.1" rx="1.8" ry="1" fill="#efb941" stroke-width="0"/>
          <ellipse cx="158.1" cy="46" rx="1.8" ry="1" fill="#efb941" stroke-width="0"/>
          <ellipse cx="136.8" cy="45.6" rx="1.8" ry="1" fill="#efb941" stroke-width="0"/>
          <ellipse cx="133.6" cy="48.7" rx="1.8" ry="1" fill="#efb941" stroke-width="0"/>
        </g>
      </g>
      <path d="m242.9,155.2c-.6,0-1.2-.4-1.4-1-.3-.8.1-1.6.9-1.9,20.7-7.7,34.3-18.6,40.5-32.3.3-.8,1.2-1.1,2-.8.8.3,1.1,1.2.8,2-6.5,14.5-20.7,25.9-42.2,33.9-.2,0-.3,0-.5,0Z" fill="#cff8ff" stroke-width="0"/>
      <path d="m218.6,163.1c-.7,0-1.3-.5-1.5-1.2-.2-.8.4-1.6,1.2-1.8,0,0,6.2-1.3,14.6-4.4.8-.3,1.6.1,1.9.9s-.1,1.6-.9,1.9c-8.6,3.2-14.8,4.4-15,4.5,0,0-.2,0-.3,0Z" fill="#cff8ff" stroke-width="0"/>
    </g>
  </g>
</svg>