<?xml version="1.0" encoding="UTF-8"?>
<svg id="_레이어_2" data-name="레이어_2" xmlns="http://www.w3.org/2000/svg" width="89" height="96" viewBox="0 0 89 95.13">
  <defs>
    <style>
      .cls-1 {
        fill: #b1c949;
      }

      .cls-2 {
        fill: #161844;
      }

      .cls-3 {
        fill: #cfe870;
      }
    </style>
  </defs>
  <g id="_레이어_1-2" data-name="레이어_1">
    <g>
      <g>
        <rect class="cls-1" x="0" y="6.13" width="89" height="89" rx="44.5" ry="44.5"/>
        <rect class="cls-3" x="0" y="0" width="89" height="89" rx="44.5" ry="44.5"/>
      </g>
      <g>
        <path class="cls-2" d="M26.71,76.5c-.19,0-.39-.04-.57-.11-.56-.23-.93-.78-.93-1.39V27.03c0-2.39.72-4.27,2.14-5.6,2.07-1.94,4.91-1.91,5.38-1.89h23.03s.02,0,.03,0c4.83.03,6.99,3.51,6.99,6.96v3c0,.83-.67,1.5-1.5,1.5h-5.34l-.06,4.89c-.01.82-.68,1.47-1.51,1.48-.82,0-1.49-.68-1.49-1.5v-11.09c0-.39,0-1.3.18-2.25h-20.36s-.07,0-.1,0c-.01,0-1.96-.09-3.21,1.1-.78.74-1.18,1.88-1.18,3.4v44.34l11.32-11.32c.56-.56,1.56-.56,2.12,0l11.24,11.24v-14.39c0-.83.67-1.5,1.5-1.5s1.5.67,1.5,1.5v18.02c0,.61-.37,1.15-.93,1.39-.56.23-1.21.1-1.63-.33l-12.74-12.74-12.82,12.82c-.29.29-.67.44-1.06.44ZM55.88,28h3.9v-1.5c0-1.14-.36-3.74-3.64-3.95-.16.46-.28,1.41-.27,2.2v3.24Z"/>
        <g>
          <path class="cls-2" d="M51.77,58.41c-6.62,0-12.01-5.39-12.01-12.01s5.39-12.01,12.01-12.01c1.25,0,2.48.19,3.66.57h0c5,1.6,8.35,6.2,8.35,11.45,0,6.62-5.39,12.01-12.01,12.01ZM51.77,37.38c-4.97,0-9.01,4.04-9.01,9.01s4.04,9.01,9.01,9.01,9.01-4.04,9.01-9.01c0-3.94-2.52-7.39-6.27-8.59h0c-.88-.28-1.81-.43-2.75-.43Z"/>
          <path class="cls-2" d="M50.21,51.03c-.5,0-1-.19-1.37-.57l-3.75-3.75c-.59-.59-.59-1.54,0-2.12.59-.59,1.54-.59,2.12,0l3,3,5.09-5.09c.59-.59,1.54-.59,2.12,0,.59.59.59,1.54,0,2.12l-5.83,5.83c-.38.38-.88.57-1.37.57Z"/>
        </g>
      </g>
    </g>
  </g>
</svg>