<svg width="370" height="125" viewBox="0 0 370 125" fill="none" xmlns="http://www.w3.org/2000/svg">
<path d="M0 62.5C0 27.9822 27.9822 0 62.5 0H307.5C342.018 0 370 27.9822 370 62.5C370 97.0178 342.018 125 307.5 125H62.5C27.9822 125 0 97.0178 0 62.5Z" fill="#333333"/>
<path d="M111.106 59.28H125.146V57.36H115.266V45.92H140.626V50.36H120.906V52.92H141.026V57.36H130.746V59.28H144.786V63.68H111.106V59.28ZM135.226 69.48H115.266V65.2H140.626V75.04H120.666V76.84H141.186V81.12H115.266V71.2H135.226V69.48ZM170.264 62.04C170.264 64.04 170.064 65.92 169.664 67.68C169.291 69.44 168.691 70.9733 167.864 72.28C167.037 73.56 165.997 74.5733 164.744 75.32C163.491 76.0933 162.011 76.48 160.304 76.48C158.571 76.48 157.064 76.0933 155.784 75.32C154.531 74.5733 153.491 73.56 152.664 72.28C151.864 70.9733 151.264 69.44 150.864 67.68C150.491 65.92 150.304 64.04 150.304 62.04C150.304 60.0667 150.491 58.2133 150.864 56.48C151.264 54.72 151.864 53.1867 152.664 51.88C153.491 50.5733 154.531 49.5467 155.784 48.8C157.064 48.0267 158.571 47.64 160.304 47.64C162.011 47.64 163.491 48.0267 164.744 48.8C165.997 49.5467 167.037 50.5733 167.864 51.88C168.691 53.1867 169.291 54.72 169.664 56.48C170.064 58.2133 170.264 60.0667 170.264 62.04ZM164.624 62.04C164.624 60.6533 164.557 59.3733 164.424 58.2C164.317 57 164.104 55.96 163.784 55.08C163.464 54.2 163.024 53.52 162.464 53.04C161.904 52.5333 161.184 52.28 160.304 52.28C159.424 52.28 158.704 52.5333 158.144 53.04C157.584 53.52 157.131 54.2 156.784 55.08C156.464 55.96 156.237 57 156.104 58.2C155.971 59.3733 155.904 60.6533 155.904 62.04C155.904 63.4533 155.971 64.76 156.104 65.96C156.237 67.16 156.464 68.2 156.784 69.08C157.131 69.96 157.584 70.6533 158.144 71.16C158.704 71.64 159.424 71.88 160.304 71.88C161.184 71.88 161.904 71.64 162.464 71.16C163.024 70.6533 163.464 69.96 163.784 69.08C164.104 68.2 164.317 67.16 164.424 65.96C164.557 64.76 164.624 63.4533 164.624 62.04ZM173.984 81.04V45.36H179.584V59.44H185.304V64.04H179.584V81.04H173.984ZM189.703 48.44H206.823V54.32C206.823 57.1733 206.463 59.76 205.743 62.08C205.049 64.3733 204.023 66.4533 202.663 68.32C201.329 70.16 199.676 71.8 197.703 73.24C195.756 74.6533 193.529 75.92 191.023 77.04L188.503 72.68C190.449 71.7467 192.209 70.7467 193.783 69.68C195.383 68.5867 196.729 67.3733 197.823 66.04C198.943 64.68 199.796 63.16 200.383 61.48C200.996 59.7733 201.303 57.8133 201.303 55.6V52.96H189.703V48.44ZM211.983 81.04V45.36H217.583V59.04H223.303V63.64H217.583V81.04H211.983ZM252.461 45.36H258.061V81.04H252.461V45.36ZM229.261 48.44H246.381V54.32C246.381 57.1733 246.021 59.76 245.301 62.08C244.608 64.3733 243.581 66.4533 242.221 68.32C240.888 70.16 239.234 71.8 237.261 73.24C235.314 74.6533 233.088 75.92 230.581 77.04L228.061 72.68C230.008 71.7467 231.768 70.7467 233.341 69.68C234.941 68.5867 236.288 67.3733 237.381 66.04C238.501 64.68 239.354 63.16 239.941 61.48C240.554 59.7733 240.861 57.8133 240.861 55.6V52.96H229.261V48.44Z" fill="white"/>
</svg>
