<?xml version="1.0" encoding="UTF-8"?>
<svg id="_레이어_2" data-name="레이어_2" xmlns="http://www.w3.org/2000/svg" width="183" height="96" viewBox="0 0 182.55 95.09">
  <defs>
    <style>
      .cls-1 {
        fill: #b1c949;
      }

      .cls-2 {
        fill: #fff;
      }

      .cls-3 {
        fill: #a3b53a;
      }

      .cls-4 {
        fill: #cfe870;
      }
    </style>
  </defs>
  <g id="_버튼" data-name="버튼">
    <g>
      <rect class="cls-1" x="0" y="6.09" width="182" height="89" rx="44.5" ry="44.5"/>
      <g>
        <rect class="cls-4" x=".55" y="0" width="182" height="89" rx="44.5" ry="44.5"/>
        <rect class="cls-2" x="95" y="6.46" width="76.08" height="76.08" rx="38.04" ry="38.04"/>
        <g>
          <rect class="cls-2" x="45.38" y="57.02" width="3.07" height="19" rx="1.18" ry="1.18"/>
          <rect class="cls-2" x="40.42" y="19.02" width="13" height="13" rx="6.5" ry="6.5"/>
          <path class="cls-2" d="M46.92,34.02c-3.95,0-7.15,3.13-7.15,6.99v10.03c0,3.86,3.2,6.99,7.15,6.99s7.15-3.13,7.15-6.99v-10.03c0-3.86-3.2-6.99-7.15-6.99ZM51.27,52.51c0,2.35-1.95,4.25-4.35,4.25s-4.35-1.9-4.35-4.25v-12.55c0-2.35,1.95-4.25,4.35-4.25s4.35,1.9,4.35,4.25v12.55Z"/>
        </g>
        <g>
          <rect class="cls-3" x="127.75" y="23.62" width="10.76" height="10.76" rx="5.38" ry="5.38"/>
          <path class="cls-3" d="M133.6,42.71c0-1.54,0-3.01,0-4.19-.06-1.66-.25-3.25-1.38-3.39-2.48.21-5.2,1.11-8.17,1.94-1.41.39-2.56.86-2.59,3.73-.08,2.85-.1,6.41.01,9.33.09,2.11.68,2.81,2.33,2.8M124.78,48.49c.02-1.68,0-4.8.11-6.44.08-1.65.62-1.9,1.27-2.09,1.19-.3,2.78-1,3.92-1.07.51.1.41,1.14.4,2.1-.02.68-.06,1.52-.1,2.41"/>
          <path class="cls-3" d="M134.62,41.81c-7.48,0-13.55,6.07-13.55,13.55s6.07,13.55,13.55,13.55,13.55-6.07,13.55-13.55-6.07-13.55-13.55-13.55ZM134.79,64.85c-5.13,0-9.29-4.16-9.29-9.29s4.16-9.29,9.29-9.29,9.29,4.16,9.29,9.29-4.16,9.29-9.29,9.29Z"/>
          <path class="cls-3" d="M142.71,61.94s.75-2.22,3.09-2.11c2.34.11,4.33.32,4.99,1.29s.05,1.53-.67,1.73-6.73.74-6.73.74l-.68-1.66Z"/>
        </g>
      </g>
    </g>
  </g>
</svg>