<svg width="89" height="96" viewBox="0 0 89 96" fill="none" xmlns="http://www.w3.org/2000/svg">
<g clip-path="url(#clip0_515_200)">
<path d="M44.5 6.09961C69.1 6.09961 89 25.9996 89 50.5996C89 75.1996 69.1 95.0996 44.5 95.0996C19.9 95.0996 0 75.1996 0 50.5996C0 26.0996 19.9 6.09961 44.5 6.09961Z" fill="#B1C949"/>
<path d="M44.5 0C69.1 0 89 19.9 89 44.5C89 69.1 69.1 89 44.5 89C19.9 89 0 69.1 0 44.5C0 19.9 19.9 0 44.5 0Z" fill="#CFE870"/>
<path d="M34.3 30.8001C36 26.1001 40.1001 22.8001 44.9001 22.2001C50.1001 21.6001 55.5 24.3001 57.6 28.9001C59.7 33.6001 57.8 39.0001 55.6 41.9001C52.7 45.7001 49.3 45.7001 46.6 50.3001C45.3 52.5001 44.8001 54.7001 44.7001 56.0001" stroke="black" stroke-width="7" stroke-linecap="round" stroke-linejoin="round"/>
<path d="M44.5 70.5996C46.9853 70.5996 49 68.5849 49 66.0996C49 63.6143 46.9853 61.5996 44.5 61.5996C42.0147 61.5996 40 63.6143 40 66.0996C40 68.5849 42.0147 70.5996 44.5 70.5996Z" fill="black"/>
</g>
<defs>
<clipPath id="clip0_515_200">
<rect width="89" height="96" fill="white"/>
</clipPath>
</defs>
</svg>
