<svg width="90" height="96" viewBox="0 0 90 96" fill="none" xmlns="http://www.w3.org/2000/svg">
<path d="M89.1 51.1001C89.1 26.5234 69.1767 6.6001 44.6 6.6001C20.0233 6.6001 0.100006 26.5234 0.100006 51.1001C0.100006 75.6768 20.0233 95.6001 44.6 95.6001C69.1767 95.6001 89.1 75.6768 89.1 51.1001Z" fill="#B1C949"/>
<path d="M44.6 0.5C69.2 0.5 89.1 20.4 89.1 45C89.1 69.6 69.2 89.5 44.6 89.5C20 89.5 0.100006 69.6 0.100006 45C0.100006 20.4 20 0.5 44.6 0.5Z" fill="#CFE870"/>
<path d="M69.1 33.0999H26.6C24.9432 33.0999 23.6 34.443 23.6 36.0999V62.9999C23.6 64.6567 24.9432 65.9999 26.6 65.9999H69.1C70.7569 65.9999 72.1 64.6567 72.1 62.9999V36.0999C72.1 34.443 70.7569 33.0999 69.1 33.0999Z" stroke="black" stroke-width="2.2" stroke-miterlimit="10"/>
<path d="M64.8 37.2H62.1C60.8298 37.2 59.8 38.2297 59.8 39.5V44.1C59.8 45.3702 60.8298 46.4 62.1 46.4H64.8C66.0703 46.4 67.1 45.3702 67.1 44.1V39.5C67.1 38.2297 66.0703 37.2 64.8 37.2Z" stroke="black" stroke-width="1.7" stroke-miterlimit="10"/>
<path d="M44.7 36.8V63.3" stroke="black" stroke-width="1.7" stroke-miterlimit="10" stroke-linecap="round"/>
<path d="M28.4 62.3999H39.6" stroke="black" stroke-width="1.7" stroke-miterlimit="10" stroke-linecap="round"/>
<path d="M28.4 58H39.6" stroke="black" stroke-width="1.7" stroke-miterlimit="10" stroke-linecap="round"/>
<path d="M28.4 53.5H39.6" stroke="black" stroke-width="1.7" stroke-miterlimit="10" stroke-linecap="round"/>
<path d="M58.4 46.9C60.4435 46.9 62.1 45.2435 62.1 43.2C62.1 41.1565 60.4435 39.5 58.4 39.5C56.3566 39.5 54.7 41.1565 54.7 43.2C54.7 45.2435 56.3566 46.9 58.4 46.9Z" fill="black"/>
<path d="M49.7 45.2C50.1 44.8 50.8 44.3 51.5 44.3C53.2 44.3 54 46.6 55.6 46.6C57.2 46.6 56.9 46.4 57.9 45.2" stroke="black" stroke-width="1.2" stroke-linecap="round" stroke-linejoin="round"/>
<path d="M49.7 47.4999C50.1 47.0999 50.8 46.5999 51.5 46.5999C53.2 46.5999 54 48.8999 55.6 48.8999C57.2 48.8999 56.9 48.6999 57.9 47.4999" stroke="black" stroke-width="1.2" stroke-linecap="round" stroke-linejoin="round"/>
<path d="M49.7 49.7999C50.1 49.3999 50.8 48.8999 51.5 48.8999C53.2 48.8999 54 51.1999 55.6 51.1999C57.2 51.1999 56.9 50.9999 57.9 49.7999" stroke="black" stroke-width="1.2" stroke-linecap="round" stroke-linejoin="round"/>
<path d="M19.8 58.7C18.3 58.7 17.1 57.5 17.1 56V29.4C17.1 27.9 18.3 26.7 19.8 26.7H62.9C64.4 26.7 65.6 27.9 65.6 29.4" stroke="black" stroke-width="2.2" stroke-miterlimit="10" stroke-linecap="round"/>
</svg>
