<svg width="1051" height="1704" viewBox="0 0 1051 1704" fill="none" xmlns="http://www.w3.org/2000/svg">
<path d="M882.84 1H172.98C125.997 1 87.9102 39.0871 87.9102 86.07V491.82C87.9102 538.803 125.997 576.89 172.98 576.89H882.84C929.823 576.89 967.91 538.803 967.91 491.82V86.07C967.91 39.0871 929.823 1 882.84 1Z" fill="#DCEAF4" stroke="#A4D0FF" stroke-width="1.84" stroke-miterlimit="10"/>
<path d="M613.71 310.85C611.26 310.85 609.32 312.57 609.32 314.67C609.32 314.68 609.32 314.7 609.32 314.71C609.32 353.61 572.51 385.15 527.11 385.15C481.71 385.15 444.9 353.62 444.9 314.71C444.9 314.7 444.9 314.68 444.9 314.67C444.9 312.57 442.96 310.85 440.51 310.85H8.73047V1680.54C8.73047 1692.86 20.3905 1702.85 34.7705 1702.85H1029C1043.38 1702.85 1042.26 1705.32 1042.26 1693V310.85H613.7H613.71Z" fill="#83BAFF"/>
<path d="M1049 320.33L635.38 319.28C634.25 319.28 632.12 319.01 629.57 319.07C622.9 319.21 620.82 320.32 619.01 327.89C616.4 338.82 603.67 358.09 589.09 372.5C574.01 387.4 553.76 395.65 531.56 395.65C505.69 395.65 480.85 387.78 462.45 370.46C448.86 357.66 443.46 344.08 438.15 324.84C438.15 322.35 436.14 320.34 433.65 320.34H2" stroke="#BADCFF" stroke-width="2.57" stroke-linecap="round" stroke-linejoin="round" stroke-dasharray="10.27 10.27"/>
<path d="M967.71 444.52H87.71V1504.52H967.71V444.52Z" fill="#DCEAF4" stroke="#6BB7FC" stroke-width="2.91" stroke-miterlimit="10"/>
</svg>
