<?xml version="1.0" encoding="UTF-8"?>
<svg id="_레이어_2" data-name="레이어 2" xmlns="http://www.w3.org/2000/svg" width="51.2" height="43.6" viewBox="0 0 51.2 43.6">
  <g id="_레이어_1-2" data-name="레이어 1">
    <g>
      <path d="m25.7,41.1c-1.4,0-2.7-.8-3.7-1.5-.2-.1-.4-.3-.5-.3C10.1,33.3,3.9,26.3,2.7,18c-.7-3.9.3-8,2.8-11,2.4-2.9,5.9-4.6,9.8-4.6,0,0,.3,0,.4,0,3.9,0,7.6,1.9,9.9,4.8,2.3-3,5.8-4.7,9.8-4.7s8.3,2,10.8,5.3c2.4,3.2,3.1,7.4,1.9,11.8-2.1,7.1-7.7,13.4-16.5,18.8h-.1c-.4.3-.9.6-1.3.8-1.1.6-2.2,1.3-3.5,1.7h-.1s-.1,0-.1,0c-.2,0-.5,0-.7,0Z" fill="#598dff" stroke-width="0"/>
      <path d="m15.7,4.9c4.6,0,9,3.3,9.8,7.8,1.6-5.4,5.8-7.8,9.9-7.8,6.3,0,12.7,5.5,10.3,13.9-2.3,7.6-8.8,13.4-15.4,17.4-1.5.8-2.9,1.8-4.5,2.4,0,0-.1,0-.2,0-.9,0-2.3-1.1-3.1-1.5-7.8-4.1-16.1-10.2-17.5-19.5-1.2-6.6,3.4-12.7,10.2-12.7h0c.1,0,.3,0,.4,0m0-4.9c-.2,0-.4,0-.5,0C10.6,0,6.4,2,3.6,5.4.6,9-.6,13.8.3,18.5c1.4,9.1,8,16.6,20,23,0,0,.2.1.4.2,1.2.8,2.9,1.9,5,1.9s.9,0,1.3-.1h.3c0,0,.3-.2.3-.2,1.5-.5,2.8-1.3,3.9-1.9.4-.3.9-.5,1.2-.7h.1c0,0,.1-.2.1-.2,9.3-5.8,15.2-12.5,17.5-20.2h0s0,0,0,0c1.5-5.1.6-10-2.3-13.9C45.3,2.4,40.5,0,35.5,0s-7.2,1.3-9.9,3.6c-2.7-2.3-6.2-3.7-9.9-3.7h0Z" fill="#598dff" stroke-width="0"/>
    </g>
  </g>
</svg>