<?xml version="1.0" encoding="UTF-8"?>
<svg id="_레이어_2" data-name="레이어 2" xmlns="http://www.w3.org/2000/svg" width="187.9" height="187.9" viewBox="0 0 187.9 187.9">
  <g id="tex">
    <g>
      <circle cx="93.9" cy="93.9" r="93.9" fill="#a3c9a5" stroke-width="0"/>
      <circle cx="93.9" cy="93.9" r="74.3" fill="none" stroke="#7da081" stroke-miterlimit="10" stroke-width="10"/>
      <g>
        <path d="m131.7,129.9H56.1c-3.6,0-6.5-2.9-6.5-6.5v-46.7c0-3.6,2.9-6.5,6.5-6.5h16.7c.7,0,1.2-.5,1.4-1.1l1.4-6.1c.6-3,3.3-5.1,6.3-5.1h24.1c3,0,5.7,2.1,6.3,5.1l1.4,6.1c.1.6.7,1.1,1.4,1.1h16.6c3.6,0,6.5,2.9,6.5,6.5v46.7c0,3.6-2.9,6.5-6.5,6.5Zm-75.6-55.8c-1.4,0-2.6,1.2-2.6,2.6v46.7c0,1.4,1.2,2.6,2.6,2.6h75.6c1.4,0,2.6-1.2,2.6-2.6v-46.7c0-1.4-1.2-2.6-2.6-2.6h-18.8c-1.2,0-2.2-.8-2.4-1.9l-1.9-8.3c-.2-1.2-1.3-2.1-2.5-2.1h-24.1c-1.2,0-2.3.9-2.6,2.1h0s-1.9,8.5-1.9,8.5c-.2,1-1.1,1.7-2.2,1.7h-19.2Z" fill="#d5efd6" stroke-width="0"/>
        <path d="m95.8,117.5c-11.4,1.1-20.9-8.4-19.7-19.7.8-8.4,7.6-15.2,16-16,11.4-1.1,20.9,8.4,19.7,19.7-.8,8.4-7.6,15.2-16,16Zm0-31.5c-9-1.1-16.6,6.4-15.4,15.4.8,6.1,5.7,11.1,11.8,11.8,9,1.1,16.6-6.4,15.4-15.4-.8-6.1-5.7-11.1-11.8-11.8Z" fill="#d5efd6" stroke-width="0"/>
        <rect x="118.7" y="79.4" width="9.5" height="3.8" rx="1.7" ry="1.7" fill="#d5efd6" stroke-width="0"/>
      </g>
    </g>
  </g>
</svg>