<svg xmlns="http://www.w3.org/2000/svg" width="177" height="154" viewBox="0 0 177 154">
  <g id="ico_alert" transform="translate(-432 -783)">
    <g id="다각형_1" data-name="다각형 1" transform="translate(432 783)" fill="rgba(255,255,255,0)">
      <path d="M 159.7196197509766 149.0000152587891 L 154.7196197509766 149.0000152587891 L 17.28039932250977 149.0000152587891 C 14.67797470092773 149.0000152587891 13.38702487945557 147.2547454833984 12.95279979705811 146.50439453125 C 12.51857471466064 145.7540130615234 11.64857482910156 143.7651214599609 12.94527530670166 141.5087432861328 L 84.16487121582031 17.57856559753418 C 85.46607208251953 15.31431484222412 87.63002777099609 15.06989002227783 88.5 15.06989002227783 C 89.36997222900391 15.06989002227783 91.53392791748047 15.31431484222412 92.83515167236328 17.57856559753418 L 164.0547180175781 141.5087432861328 C 165.3512268066406 143.7647399902344 164.4811553955078 145.7536926269531 164.0469055175781 146.5041198730469 C 163.6126251220703 147.2545623779297 162.3216247558594 149.0000152587891 159.7196197509766 149.0000152587891 Z" stroke="none"/>
      <path d="M 88.5 20.06983947753906 L 17.28041076660156 144 L 159.7195892333984 144.0000305175781 L 88.54180908203125 20.07467651367188 C 88.53768920898438 20.07333374023438 88.52212524414062 20.06986999511719 88.5 20.06986999511719 L 88.5 20.06983947753906 M 88.5 10.06986999511719 C 91.87401580810547 10.06986999511719 95.24803161621094 11.74232482910156 97.17028045654297 15.08724975585938 L 168.3898773193359 139.0174255371094 C 172.2210388183594 145.6840515136719 167.4065399169922 154.0070648193359 159.7195892333984 154 L 17.28041076660156 154 C 9.59130859375 154.0000305175781 4.778961181640625 145.6840515136719 8.610122680664062 139.0174255371094 L 79.82971954345703 15.08724975585938 C 81.75196838378906 11.74232482910156 85.12598419189453 10.06986999511719 88.5 10.06986999511719 Z" stroke="none" fill="#b51d22"/>
    </g>
    <text id="_" data-name="!" transform="translate(521 911)" fill="#b51d22" font-size="80" font-family="KoddiUDOnGothic-ExtraBold, KoddiUD OnGothic" font-weight="800"><tspan x="-12.08" y="0">!</tspan></text>
  </g>
</svg>
