<svg xmlns="http://www.w3.org/2000/svg" width="202.63" height="125.371" viewBox="0 0 202.63 125.371">
  <g id="스티커_코리아" transform="translate(-674.746 -241.405)">
    <g id="그룹_848" data-name="그룹 848" transform="translate(679.922 242.683)" opacity="0.2">
      <g id="그룹_847" data-name="그룹 847">
        <path id="패스_1515" data-name="패스 1515" d="M616.332,249.347a187.553,187.553,0,0,1-45.157,24.187C517.149,293.9,464.93,288.071,454.544,260.516s24.989-66.4,79.014-86.77S639.8,159.208,650.185,186.763Z" transform="translate(-452.733 -161.593)"/>
        <rect id="사각형_1069" data-name="사각형 1069" width="197.454" height="124.094" fill="none"/>
      </g>
    </g>
    <path id="패스_1516" data-name="패스 1516" d="M612.884,248.5a187.519,187.519,0,0,1-45.157,24.187C513.7,293.049,461.485,287.22,451.1,259.665s24.989-66.4,79.014-86.77,106.243-14.538,116.63,13.018Z" transform="translate(225.459 80.663)" fill="#96e5ff"/>
    <path id="패스_1517" data-name="패스 1517" d="M503.94,220.957c1.114,6.354-.267,14.715-9.374,18.149-9.667,3.643-18.644-1.774-22.587-12.235-4.032-10.694-.491-20.405,8.009-23.609a11.952,11.952,0,0,1,12.809,2.425l-.267-6.087,2.289-.862,4.384,11.629-2.335.882c-3.51-2.519-8.071-2.026-12.695-.282-7.566,2.852-12.5,8.018-9.876,14.978,2.606,6.911,9.735,7.852,17.254,5.018,6.117-2.307,9.715-6.063,10.2-9.178Z" transform="translate(236.012 99.73)" fill="#5c76af"/>
    <path id="패스_1518" data-name="패스 1518" d="M494.905,218.744c-2.853-7.566-.3-14.5,6.429-17.04s13.181,1,16.035,8.571.375,14.58-6.35,17.115-13.264-1.08-16.115-8.646m13.314,1.221c5.651-2.13,8.724-5.156,7.263-9.032-1.5-3.969-5.971-4.1-11.435-2.036-5.51,2.077-8.742,5.109-7.245,9.078,1.46,3.876,5.766,4.119,11.417,1.99" transform="translate(247.773 100.811)" fill="#5c76af"/>
    <path id="패스_1519" data-name="패스 1519" d="M533.107,201.884l-2.055.775c-.963-1.985-3.532-1.87-5.54-1.113-3.5,1.322-5.273,4.549-3.848,8.332l.282.746c1.021,2.709,2.73,4.839,8.9,2.514l2.253,5.979-14.1,5.316-2.254-5.977c4.39-1.655,4.363-4.418,3.342-7.128l-.6-1.587c-1.409-3.737-4.2-4.765-8.96-2.969l-2.184-5.792,7.308-3.821,3.968,7.411.14-.053c-.335-4.567-.231-8.82,3.972-10.4,4.717-1.778,7.375,2.446,9.383,7.77" transform="translate(255.091 97.202)" fill="#5c76af"/>
    <path id="패스_1520" data-name="패스 1520" d="M550.661,202.638c.769,4.725-.514,9.956-6.725,12.3-7.053,2.658-13.438-1.122-16.29-8.688-2.712-7.192-.866-14.182,6.093-16.805,7.239-2.729,12.4,2.047,14.882,8.632l-.29.643-18.822,7.095c1.691,4.484,6.575,4.563,12.226,2.433,3.363-1.268,6.309-3.073,6.826-4.813Zm-21.595,1.153,16.861-6.356c-1.442-2.125-4.487-3.269-9.765-1.28-4.343,1.637-7.242,4.276-7.1,7.635" transform="translate(264.181 94.672)" fill="#5c76af"/>
    <path id="패스_1521" data-name="패스 1521" d="M570.592,195.374c1.726,4.578,2.071,8.608-1.105,9.805-2.849,1.074-4.6-1.733-5.868-5.1l-.281.105a10.049,10.049,0,0,1-6.976,9.938c-4.95,1.867-8.849.3-10.328-3.627-1.514-4.017.853-6.935,5.779-9.433A34,34,0,0,1,561,193.124c-1.589-3.508-4.908-3.963-9.3-2.308-2.9,1.092-5.826,2.942-5.851,5.566l-1.915.721c-1.919-5.943-.1-11.589,5.83-13.826,5.793-2.182,10.085,1,12.515,7.445.721,1.915,1.614,4.992,2.055,6.159.758,2.009,1.747,2.651,3.053,2.157a2.161,2.161,0,0,0,1.293-2.941Zm-8.963-.568a37.345,37.345,0,0,0-9.265,3.866c-2.037,1.248-3.641,2.652-3.112,4.053.6,1.587,3.145,1.268,5.713.3,4.391-1.655,7.6-4.734,6.664-8.219" transform="translate(272.586 91.628)" fill="#5c76af"/>
    <path id="패스_1522" data-name="패스 1522" d="M595.635,251.048A193.76,193.76,0,0,1,564.019,266.3c-24.571,9.262-49.435,13.318-70.016,11.417-20.754-1.916-34.707-9.666-39.29-21.824-9.394-24.92,24.359-60.795,75.235-79.975s99.914-14.511,109.307,10.408a24.113,24.113,0,0,1,1.081,3.758l-1.339.27a22.951,22.951,0,0,0-1.018-3.547c-9.13-24.212-57.374-28.524-107.548-9.61s-83.567,54-74.439,78.213c4.388,11.642,17.933,19.082,38.137,20.947,20.378,1.88,45.029-2.145,69.409-11.334a180.894,180.894,0,0,0,45.311-24.57l.828,1.084a157.765,157.765,0,0,1-14.04,9.516" transform="translate(227.395 82.348)" fill="#5c76af"/>
    <path id="패스_1523" data-name="패스 1523" d="M590.517,245.145a185.917,185.917,0,0,1-30.425,14.661c-47.49,17.9-92.962,14.339-101.364-7.946s23.4-54.98,70.893-72.882c22.927-8.643,46.058-12.614,65.134-11.18,19.258,1.448,32.125,8.239,36.228,19.126,6.437,17.076-10.729,40.261-40.466,58.221M499.685,194.91c-29.075,17.561-45.879,40.013-39.678,56.468,8.135,21.578,52.817,24.786,99.6,7.15s78.23-49.542,70.1-71.123c-3.906-10.361-16.353-16.841-35.052-18.246-18.882-1.419-41.806,2.522-64.55,11.1a186.059,186.059,0,0,0-30.419,14.655" transform="translate(229.522 84.06)" fill="#5c76af"/>
    <path id="패스_1524" data-name="패스 1524" d="M560.329,240.421a20.978,20.978,0,0,1-4.4-6.7c-6.794-16.727,9.765-39.848,38.337-56.255Z" transform="translate(278.212 89.055)" fill="#d7f2ff"/>
  </g>
</svg>
