<?xml version="1.0" encoding="UTF-8"?>
<svg id="_레이어_2" data-name="레이어_2" xmlns="http://www.w3.org/2000/svg" width="182" height="113" viewBox="0 0 182.92 113.4">
  <defs>
    <style>
      .cls-1 {
        fill: #badcff;
      }
    </style>
  </defs>
  <g id="_레이어_1-2" data-name="레이어_1">
    <g>
      <path class="cls-1" d="M69.76,12.87l.07-.03v.07s-.07-.05-.07-.05ZM131.53,30.57l-.05-.06-.03.07h.07ZM44.2,5.67s-.07.02-.08.01c-.04-.03-.06-.08-.09-.12.03,0,.05-.01.08-.02.03.04.06.08.09.13ZM157.02,38s.05.05.06.05c.05,0,.09-.03.14-.05-.02-.02-.04-.04-.06-.06-.05.02-.1.04-.14.06ZM130.84,30.55l.06.02v-.06s-.06.04-.06.04ZM70.35,13.22h-.07s.04-.06.04-.06l.03.06ZM122.34,28.04l-.05.04s.03.06.05.06c.02,0,.05-.03.07-.04-.01-.03-.03-.05-.04-.08l-.03.02ZM78.86,15.57s-.04.02-.06.04c0,.02.01.06.03.07.02.01.06,0,.09,0-.01-.03-.04-.09-.04-.09-.01-.03-.03-.02-.03-.02ZM170.59,42.13s.07-.03.07-.04c0-.05-.03-.1-.05-.15-.04.03-.09.06-.13.08.04.04.07.08.11.1ZM30.5,1.99s-.04-.06-.03-.07c.03-.04.08-.07.12-.1.02.05.04.09.07.14-.05.01-.1.03-.15.03ZM81.09,16.38c-.14.34.07.51.27.72q.22-.48-.27-.72ZM120.06,27.54c-.06.37-.33.4-.61.47q.07-.52.61-.47ZM172.91,43.32s.1.05.15.07c0,0,.03-.04.04-.07-.05-.02-.09-.05-.14-.07,0,0-.03.04-.05.07ZM27.9,1.77c-.05,0-.11,0-.16-.02,0,0,0-.05,0-.08.05,0,.11,0,.16.02,0,0,0,.05,0,.08ZM37.88,4.57s0,.16,0,.16c.03,0,.08-.02.08-.02,0-.05-.02-.1-.03-.15h-.04ZM162.88,40.54s-.05-.05-.05-.05c.03-.04.07-.07.1-.11.02.02.04.04.06.07-.03.03-.08.08-.08.08-.03.03-.03.02-.03.02ZM90.88,19.38s.02.15-.01.17c-.15.09-.31.17-.46.25-.04-.06-.08-.12-.12-.18.15-.1.29-.2.44-.29.04-.02.13.02.15.05ZM110.16,24.9s-.09.12-.08.15c.07.16.17.31.26.46.07-.03.13-.06.2-.09-.07-.16-.14-.32-.22-.48-.02-.03-.12-.06-.16-.04ZM150.95,37.15s-.04-.1-.05-.15c.05,0,.11.01.16.02,0,.05-.01.09-.03.14,0,0-.07,0-.08,0ZM49.8,8.17s.08-.06.12-.1c-.05-.02-.1-.05-.14-.07-.02.04-.04.08-.05.13,0,0,.06.05.07.04ZM160.02,39.75s.05-.03.08-.05c.02.02.06.03.07.05,0,.02-.02.05-.04.08-.03-.03-.07-.05-.1-.08ZM40.6,5.57s0-.06,0-.07c.01-.01.05,0,.08,0,.01.03.03.06.04.08-.03,0-.1,0-.1,0-.03,0-.03,0-.03,0ZM44.41,6.61s-.04.04-.06.05c-.02-.04-.05-.08-.07-.12,0,0,.04-.04.06-.05.02.04.05.08.07.12ZM156.34,38.69s.01.05.02.08c.04-.02.08-.04.12-.06,0,0-.01-.05-.02-.08-.04.02-.08.04-.12.06ZM42.31,5.97c.02-.05.03-.11.05-.16-.01.05-.03.1-.04.15-.13.05-.27.09-.41.14q.08-.21.4-.14ZM158.46,39.26c.01-.05.03-.11.04-.16-.02.05-.03.1-.05.15.09.11.18.22.28.34q.04-.22-.27-.33ZM164.01,41.15c.05,0,.11-.02.16-.03-.03-.05-.06-.1-.09-.14-.04.03-.08.06-.12.1,0,0,.03.07.04.07ZM36.6,4.64s-.08-.07-.12-.11c.05-.03.1-.05.15-.08.02.05.04.1.05.15,0,0-.06.05-.08.04ZM158.78,39.67l.02-.05.03.05h-.05ZM41.82,6.16v-.05s-.04.02-.04.02l.04.03ZM26.24,1.67s.02.05.02.08c-.05.01-.1.02-.16.03,0,0-.01-.05-.02-.08.05,0,.1-.02.15-.03ZM174.38,44.11s-.04.04-.06.06c.04.04.08.07.12.11,0,0,.04-.04.06-.06-.04-.04-.07-.07-.12-.1ZM166.66,42.08s-.07.02-.07.01c-.02-.05-.03-.1-.04-.15.03,0,.07-.01.08,0,.02.05.03.1.04.14ZM33.86,4.03s.05.05.06.05c.04-.03.08-.07.12-.1-.02-.02-.05-.05-.06-.05-.04.03-.08.07-.11.1ZM108.54,25.04c-.07.04-.21.07-.21.12,0,.1.04.21.07.32.08-.02.16-.05.29-.09-.06-.14-.11-.24-.15-.35ZM92.19,20.36c.04.07.14.17.12.21-.05.09-.15.16-.23.23-.05-.06-.11-.13-.2-.23.13-.09.22-.15.31-.21ZM125.41,30.79s.02-.05.04-.06c.02,0,.04.02.06.03-.01.02-.02.04-.03.06-.02-.01-.04-.02-.06-.03ZM74.83,16.29s.01-.06,0-.07c-.01-.01-.04,0-.07,0,0,.02,0,.05,0,.07.02,0,.05,0,.07,0ZM172.06,43.28c.03.19.1.35.05.4-.3.31-.63.5-1.05.22.24-.31.6-.41,1-.62ZM28.64,2.19c-.12.15-.27.25-.25.31.09.42.27.76.77.74-.04-.39-.29-.67-.52-1.06ZM122.95,30.13s.1-.06.15-.09c.04.05.07.09.11.13-.05.03-.11.08-.16.09-.02,0-.06-.08-.09-.12ZM77.27,17.04c-.03-.05-.05-.1-.08-.15-.06.02-.11.04-.16.05.03.06.05.12.09.16.02.01.09-.03.14-.06ZM150.62,38.16s.09-.09.09-.14c0-.04-.05-.09-.08-.13-.03.05-.08.1-.08.15,0,.04.04.08.07.12ZM49.55,9.2c0-.06-.03-.12,0-.17.02-.04.09-.05.14-.07,0,.06.01.13,0,.17-.01.03-.08.05-.12.07ZM23.86,2.1c-.02.06,0,.09.02.09.02,0,.03-.03.05-.05-.02-.02-.04-.03-.05-.05h-.01ZM176.15,45.73s-.04,0-.05,0c0,.02,0,.06.02.07.01,0,.05,0,.07,0-.01-.07-.03-.07-.03-.07ZM24.1,3.69s-.01-.05-.02-.07c.04-.02.09-.03.13-.05,0,.02.03.07.02.07-.04.02-.08.04-.13.06ZM176.77,47.59s.12.21.1.31c-.03.17-.18.29-.34.22-.12-.05-.19-.21-.35-.4.26-.07.43-.13.59-.13ZM22.37,3.34s-.21.11-.25.21c-.07.16,0,.34.18.37.13.02.27-.08.51-.15-.19-.19-.3-.33-.43-.42ZM23.24,4.37s.07.05.1.07l.03-.07s-.04-.04-.07-.04c-.02,0-.04.03-.06.04ZM179.72,51.12h.06s-.02.04-.02.04l-.05-.04ZM85.8,26.39s0,.05-.01.07c-.03,0-.06,0-.08-.03,0,0,0-.05.01-.07.03,0,.06,0,.08.03ZM179.55,53.12c-.08-.13-.11-.17-.13-.21.29-.09.59-.15.92.01-.02.36-.28.49-.54.56-.18.05-.38.03-.56,0-.1-.02-.25-.12-.26-.2-.01-.08.1-.21.18-.28.07-.06.18-.06.27-.09,0,.05.04.09.13.21ZM68.23,21.96c-.07-.05-.13-.11-.2-.14-.02,0-.08.08-.12.12.06.06.12.12.19.18.04-.04.07-.09.13-.16ZM128.01,39.09c.08,0,.17-.03.24,0,.02,0,.03.11.04.16-.08.02-.17.04-.25.05,0-.06-.02-.11-.03-.21ZM61.72,19.96s-.05.01-.14.03c.02.09.02.13.04.14.11.09.22.17.34.26.03-.05.09-.13.08-.14-.1-.1-.21-.2-.32-.29ZM134.59,40.84s.04.04.1.1c-.06.06-.08.1-.1.1-.14.02-.28.03-.42.04,0-.06-.01-.16,0-.16.14-.04.28-.06.42-.08ZM60.75,20.39s-.05.01-.08.02c.02.01.04.03.05.03.03,0,.05-.02.08-.03l-.05-.02ZM135.19,41.72s.04.04.06.06c-.02,0-.05,0-.06,0-.02-.01-.04-.04-.05-.06h.05ZM112.05,35.09c.23.1.44.24.36.57-.28.03-.48-.08-.56-.35-.02-.05,0-.13.04-.17.04-.04.12-.07.16-.05ZM104.72,33.98l-.05.04.06.02v-.06ZM90.69,29.96l.02.06-.06-.02.04-.05ZM17.5,9.13l-.03.04h.06s-.03-.04-.03-.04ZM180.69,55.92l-.02.07-.05-.04.06-.02ZM102.08,33.45s-.02.12-.02.18c.03,0,.07.03.08.02.1-.06.21-.11.28-.2.02-.03-.06-.15-.09-.22-.08.07-.18.14-.25.22ZM93.21,30.91s-.05.11-.08.16c-.03,0-.07,0-.08-.03-.05-.1-.12-.21-.13-.31,0-.04.13-.09.2-.14.03.11.08.21.09.32ZM90.42,30.43s0,.04.01.06c.12-.02.23-.05.35-.08-.12,0-.24.01-.36.02ZM104.44,34.35s.16.16.16.16c.02.02.04.04.06.06.01-.01.03-.03.04-.04-.1-.07-.2-.14-.3-.2l.03.03ZM103.99,34.02c.14.09.14.38.41.29-.2.07-.4.23-.62.07-.07-.05-.11-.15-.13-.24-.01-.04.04-.15.08-.15.08-.02.19-.02.26.03ZM91.29,30.38c-.17,0-.32.24-.5.03.13.17.22.41.49.39.08,0,.17-.07.24-.13.03-.03.04-.15.01-.17-.06-.06-.16-.12-.24-.12ZM118.94,39s-.03.13-.07.15c-.04.02-.14-.01-.15-.05-.07-.13-.11-.27-.16-.39.06-.06.08-.1.1-.1.06,0,.14,0,.16.04.06.11.1.23.12.35ZM14.6,10.1c-.05.03-.05.15-.07.24.08,0,.18.02.25-.02.08-.04.14-.12.2-.19-.01-.04-.03-.09-.04-.13-.12.03-.25.04-.34.11ZM179.78,57.43c.03.06-.04.16-.06.24-.07-.05-.16-.08-.2-.15-.05-.08-.05-.18-.07-.27.03-.03.07-.06.1-.09.08.09.18.17.23.27ZM179.23,59.19c0-.06.11-.1.21-.18.04.13.11.22.09.28-.02.06-.13.09-.2.13-.04-.08-.11-.16-.1-.23ZM14.14,11.88c.02-.06-.04-.15-.08-.27-.1.08-.21.13-.22.19-.01.06.06.14.1.21.07-.05.17-.08.2-.14ZM94.13,34.49c-.24.23-.53.3-.84.28-.23-.18-.39-.36-.36-.64.49-.21.88-.12,1.2.36ZM99.4,36c.09.32.29.54.56.68.29-.03.52-.1.64-.35-.31-.44-.69-.57-1.21-.33ZM164.58,55.75q.03-.47.46-.6c.07.32-.12.45-.46.6ZM162.59,55.02c.04.09.09.18.15.26-.12.01-.25-.02-.5-.07-.11-.03-.2-.01-.28.05.04-.1.09-.2.13-.3.18.07.34.09.5.06ZM181.02,61.05c-.09-.2-.16-.41-.25-.64q.5.27.4.74c-.05-.03-.12-.06-.15-.1ZM28.75,18.49s.03.04.05.06l.11-.09s-.07-.08-.1-.12c-.02.05-.05.09-.06.14ZM163.34,57.05s-.05.02-.07.03l-.05-.14s.1-.03.15-.05c0,.05,0,.1-.02.15ZM30.01,19.06s-.05-.04-.07-.04c-.01,0-.03.04-.04.06.02.01.04.04.06.04.02,0,.03-.04.04-.06ZM164.9,57.84s0-.04-.02-.05c-.05.02-.05.05-.06.07.03-.01.05-.02.07-.02ZM30.77,19.41s0-.04-.02-.05c-.05.02-.05.05-.06.07.03-.01.05-.02.07-.02ZM13.16,15.04l-.05-.05-.02.07.07-.02ZM165.41,57.74c-.03.22-.07.43-.11.65-.06.01-.11.07-.16.12l.11.13s-.32.06-.32.06c-.02-.25.16-.35.26-.51.09-.14.15-.3.21-.45ZM31.29,19.31c-.03.22-.07.43-.11.65-.06.01-.11.07-.16.12l.11.13s-.32.06-.32.06c-.02-.25.16-.35.26-.51.09-.14.15-.3.21-.45ZM28.89,20.29l.06-.02-.02.06-.05-.04ZM81.19,36.42s.09.14.13.21c-.13.07-.25.16-.39.21-.02,0-.1-.13-.19-.25.18-.07.31-.14.45-.16ZM10.07,16.76c-.02.09-.01.19-.03.36.45.05.86.27,1.22-.08-.08-.11-.23-.22-.26-.36-.05-.3-.26-.36-.48-.35-.26,0-.4.18-.45.42ZM162.45,60.96c-.29.17-.58.23-.91.04.14-.26.37-.42.61-.55.16-.08.31-.03.41.12.1.13.05.3-.11.4ZM27.44,22.27c.15.3.37.5.75.51.02-.3-.09-.55-.23-.79-.09-.15-.24-.19-.41-.12-.15.06-.2.23-.11.4ZM180.99,66.54s.04.05.03.06c0,.02-.04.04-.06.06-.02-.03-.04-.07-.06-.1.03,0,.05-.01.08-.02ZM8.76,17.19s-.06.02-.06.04c0,.02.01.05.02.08.03-.02.07-.04.1-.06-.02-.02-.04-.04-.06-.06ZM160.16,61.27h.06s-.03.05-.03.05l-.03-.05ZM29.21,23.74l-.05-.04v.06s.05-.03.05-.03ZM165.57,62.91s0-.05.01-.08c-.05.02-.06.05-.06.08.02,0,.04,0,.05,0ZM31.45,24.48s0-.05.01-.08c-.05.02-.06.05-.06.08.02,0,.04,0,.05,0ZM81.42,40.03s.03.07.02.08c-.04.02-.09.04-.14.05l-.03-.08s.09-.03.14-.05ZM8.46,19.93c.26.22.45.3.67.14.04-.03.05-.12.03-.17-.08-.18-.19-.18-.7.03ZM25.58,25.19c.11.06.27,0,.28-.15,0-.1-.07-.22-.13-.4-.15.12-.29.19-.31.27-.01.09.07.24.16.28ZM162.48,64.41c-.13,0-.23-.14-.16-.27.05-.09.17-.15.33-.27.06.18.15.31.12.39-.03.08-.19.16-.28.16ZM23.68,24.64s-.09.04-.14.07l.14.16s.08-.09.08-.09c0-.07-.04-.12-.08-.14h0ZM164.47,65.09l-.21.06c0-.05-.02-.11-.03-.16.05-.01.11-.05.15-.03.04.02.05.08.08.13ZM23.35,24.77s.04-.05.06-.05c.02,0,.05.03.07.04-.03.03-.06.05-.09.08-.01-.02-.03-.05-.04-.07ZM164.6,65.24s0-.06-.03-.07c-.02-.01-.05,0-.08,0,.01.04.03.08.04.12.02-.01.05-.03.07-.04ZM9.09,21.05l.05-.04v.07s-.05-.03-.05-.03ZM169.04,67.24s-.07.03-.11.04l-.08-.29.04.06.14.19ZM34.92,28.81s-.07.03-.11.04l-.08-.29.04.06.14.19ZM25.67,26.33l.04-.05.02.06h-.06ZM161.8,65.34v-.06s-.06.04-.06.04l.06.02ZM27.72,26.92s-.09-.04-.14-.06c.01-.03.02-.06.03-.08.05.02.09.04.14.06,0,0-.02.05-.03.08ZM159.75,64.75c.05,0,.1.02.15.02,0-.03.01-.06.02-.09-.05,0-.1-.02-.15-.02,0,0,0,.06-.02.08ZM24.69,26.31s.07-.07.11-.09c0,0,.03.03.05.05-.04.03-.07.06-.11.09,0,0-.04-.03-.05-.05ZM162.64,65.84s-.03-.09-.04-.14c0,0-.05.01-.07.02.01.04.02.09.05.13,0,0,.05,0,.07-.01ZM27.02,26.93s.04.09.05.14c-.05.02-.11.06-.15.04-.03-.02-.04-.09-.05-.14.05-.02.11-.06.15-.04ZM160.33,65.13s-.08.06-.12.09c.04.04.07.11.11.11.04,0,.08-.06.12-.09-.03-.04-.07-.11-.11-.11ZM169.87,68.36c-.03.06-.11.05-.18.06.03-.08.03-.16.09-.17l.09.12ZM35.74,29.93c-.03.06-.11.05-.18.06.03-.08.03-.16.09-.17l.09.12ZM161.25,66.46c-.12.04-.23.08-.33.11,0-.06-.04-.14-.02-.16.06-.06.15-.1.23-.15.03.05.06.1.12.2ZM25.54,27.58c.08.1.15.18.22.27.04-.04.11-.09.1-.13-.02-.09-.07-.17-.11-.25-.05.03-.1.05-.21.11ZM163.53,67.37l.02-.08c-.05-.01-.11-.03-.16-.04,0,0-.02.05-.03.07.06.02.11.03.17.05ZM23.13,27.14l.02-.08c.05.01.11.03.16.05,0,0,0,.05-.01.07-.06-.02-.11-.03-.17-.04ZM153.04,64.4c-.08-.12-.12-.23-.2-.27-.04-.02-.22.08-.22.1.02.11.07.21.13.3.01.01.15-.06.29-.13ZM29.54,29.07s.02.13,0,.17c-.03.04-.11.09-.15.08-.29-.07-.5-.25-.59-.55h-.07s.04,0,.06,0c.29,0,.56.06.75.31ZM157.06,65.61s-.09.1-.09.15c0,.05.04.13.09.14.29.09.56.05.79-.15l.06.03s-.03-.03-.05-.04c-.25-.15-.51-.24-.8-.14ZM17.76,26.35l-.04-.06h.07s-.03.06-.03.06ZM168.5,69.54l.06-.03-.05-.04v.07ZM21.66,27.42s-.04.07-.06.11c-.02-.02-.06-.03-.06-.06,0-.02.03-.04.05-.07.03,0,.05.01.08.02ZM164.62,68.39s0,.08,0,.12c.03,0,.07,0,.08-.01.01-.01,0-.05,0-.08-.03,0-.05-.02-.08-.03ZM29.6,30.27l.02-.07s-.04-.03-.06-.05c-.01.03-.02.06-.04.1.03,0,.05.02.08.03ZM156.38,66.59l.02-.07s.05,0,.08-.01c0,.03-.01.07-.02.1-.03,0-.05-.01-.08-.02ZM162.16,68.29c-.38-.06-.64-.09-.92-.14.18-.35.43-.33.67-.24.08.03.12.18.25.38ZM23.8,28.65c.36.16.59.26.85.37.04-.39-.19-.5-.44-.56-.09-.02-.2.08-.42.19ZM168.62,70.32s-.03-.04-.05-.06c-.02.03-.05.07-.07.1.02,0,.05.03.07.03.02,0,.03-.04.04-.06ZM17.24,26.95s.05-.02.07-.03c0,.04,0,.08,0,.12-.03,0-.06,0-.08-.02-.01-.02,0-.05,0-.08ZM5.15,23.84l-.02-.05-.03.04h.05ZM180.52,74.09l.05-.03v.05s-.05-.02-.05-.02ZM159.22,68.36s-.04,0-.05,0c0,.02,0,.05,0,.07.02-.02.05-.06.05-.06.02-.02,0-.02,0-.02ZM26.24,30.27v.05s.04-.01.05-.03c-.02-.01-.04-.03-.06-.04v.02ZM29.79,31.61l-.06.04v-.08s.06.04.06.04ZM155.51,67.63l.03.07.04-.06h-.07ZM17.56,28.17c-.01-.05-.02-.1-.04-.15,0-.01-.08,0-.08,0-.02.05-.03.1-.04.15.06,0,.11,0,.17-.01ZM167.71,71.19s.07-.08.12-.1c.01,0,.07.03.07.05,0,.05-.03.1-.05.15-.05-.03-.09-.07-.14-.1ZM165.86,70.48c.06.07.06.22.05.32,0,.03-.18.09-.22.06-.08-.06-.12-.17-.23-.35.2-.02.36-.08.4-.03ZM19.5,28.54c-.09.03-.17.15-.21.25-.01.03.11.17.16.16.1,0,.19-.08.38-.17-.16-.13-.27-.26-.33-.24ZM179.71,74.74c0,.06,0,.11-.02.15,0-.03.02-.15.02-.15ZM156.8,68.17c-.03.15-.19.15-.3.07-.08-.06-.13-.17-.26-.35.23-.01.36-.06.43,0,.08.05.14.21.12.29ZM21.06,29.42s.06.03.06.04c-.01.04-.03.08-.05.12-.04-.03-.09-.06-.13-.08.04-.03.08-.06.12-.08ZM160.07,69.35s.06.11.04.15c-.02.04-.12.08-.15.06-.12-.09-.23-.19-.34-.29.14.03.3.04.44.08ZM25.01,30.65s-.11.06-.12.1c0,.04.06.13.09.13.15,0,.29-.04.44-.07-.14-.05-.27-.12-.42-.16ZM151.42,67.29s.04-.03.06-.05c-.03-.04-.06-.08-.09-.11-.02.02-.06.05-.06.05.02.04.05.08.08.12ZM5.56,25.54c0-.08.03-.17,0-.24-.08-.16-.23-.28-.05-.5.16-.21.12-.24-.33-.38-.01.16-.01.31-.04.46-.03.15-.08.3-.14.5l.57.16ZM161.96,70.24c-.05-.13-.11-.26-.16-.38-.12.02-.19,0-.23.04-.12.1.01.34.24.41.04.01.15-.06.15-.07ZM22.93,30.41c.11-.09.23-.17.33-.24.09.08.16.11.18.16.05.15-.19.28-.42.22-.04-.01-.09-.13-.09-.13ZM161.04,70.04s.05-.02.06-.01c.02,0,.02.04.03.05-.02,0-.05.02-.06.01-.02,0-.02-.04-.03-.05ZM170.18,72.68s0,.11-.03.14c-.04.04-.1.05-.16.08-.02-.05-.04-.09-.07-.16.09-.02.17-.04.25-.06ZM14.67,28.12s-.06.1-.06.14c.01.05.06.1.1.15.04-.03.08-.06.14-.1-.06-.06-.12-.12-.18-.19ZM25.89,32.01s-.04-.09-.06-.14c.04-.04.09-.07.13-.11.03.07.06.14.08.2-.05.02-.11.06-.15.05ZM158.6,70.03s.08-.06.13-.09c-.02-.05-.03-.11-.05-.16-.06.04-.12.08-.18.13.03.04.06.11.1.12ZM158.43,70.1s.04-.03.05-.03c.02,0,.03.03.05.04-.02.01-.04.02-.05.03-.02-.01-.03-.03-.05-.04ZM26,32.15s-.01-.05-.03-.06c-.02,0-.04,0-.07,0,0,.02.02.04.03.06.02,0,.04,0,.07,0ZM18.72,30.74c0-.05-.02-.1-.03-.18.06-.02.13-.05.2-.07,0,.06,0,.13-.02.17-.02.04-.09.05-.14.08ZM152.17,68.97q-.12.53-.66.72c-.11-.17-.24-.35-.33-.54-.08-.18.08-.34.28-.3.23.04.47.08.71.13ZM135.77,65.07s-.02.09-.03.14c.03,0,.05,0,.08.01,0-.05.02-.09.02-.14,0,0-.07-.02-.07-.01ZM49.8,41.02s.07-.03.08-.02c.03.04.06.08.08.12-.05.01-.1.03-.15.04,0-.05-.01-.1,0-.15ZM181.84,79.01l-.09.07s-.02-.05-.02-.07c.02-.02.04-.04.05-.04.02,0,.04.03.06.04ZM158.49,72.15c.41.03.76.14,1.04.39.09.08.11.25.19.45q-1.04-.48-1.23-.84ZM180.72,78.94c.06-.14.16-.26.29-.47.26.4.25.58-.03.71-.05.02-.15.02-.18-.01-.05-.06-.11-.17-.08-.24ZM39.92,39.22l.04.05.02-.06h-.06ZM9.64,30.82v.05s.05-.03.05-.03l-.05-.02ZM49.33,41.98c-.04-.06-.17-.11-.24-.09-.27.08-.54.18-.88.3.39.46.44.49.72.32.14-.08.27-.17.38-.28.05-.05.06-.19.02-.25ZM159.31,73.62c.23-.25.4-.05.49.05.18.21.22.49.14.91-.27-.4-.45-.68-.63-.96ZM180.23,80.74c0-.06,0-.13,0-.19-.17.01-.33.02-.5.04-.03,0-.07.1-.06.14.01.04.09.1.13.09.15-.02.29-.05.44-.08ZM136.69,68.37s-.05.02-.08.03l.08.1s.03-.05.04-.07c-.02-.02-.03-.06-.05-.06ZM23.01,36.44c.03.11.08.21.13.35.07-.09.14-.13.14-.17.01-.12.03-.27-.15-.28-.04,0-.13.08-.13.11ZM158.7,75.32c-.08.08-.18.14-.3.22-.02-.11-.05-.18-.03-.22.05-.11.11-.25.28-.16.04.02.07.14.05.16ZM137.07,69.78s-.02.04-.03.06c.02.01.04.03.06.04.01-.04.03-.07.04-.11-.02,0-.06,0-.07,0ZM47.73,43.61c-.02-.14,0-.31-.06-.34-.41-.18-.85-.22-1.27-.05-.07.03-.13.25-.09.32.11.18.27.32.46.52.15-.24.25-.42.37-.62l.59.17ZM89.82,56.53c-.06-.03-.06-.15-.11-.27.12,0,.23-.04.28,0,.05.04.05.15.07.23-.08.02-.19.07-.24.04ZM91.39,56.98c.07,0,.13-.09.24-.17-.1-.07-.18-.15-.24-.15-.07,0-.12.1-.18.16.06.06.12.16.19.16ZM2.61,31.5s.04-.05.05-.08c-.01-.06,0-.16-.04-.17-.14-.06-.28-.1-.43-.13-.04,0-.11.07-.13.11-.02.05,0,.14.03.17.15.15.33.18.52.1ZM178.62,81.93s0-.06,0-.09c.04-.04.09-.13.13-.13.15.02.3.06.44.12.04.01.06.12.05.17-.01.05-.07.12-.12.13-.2.05-.37-.02-.49-.2ZM132.21,69s-.03-.08-.04-.08c-.05.02-.09.04-.14.06.01.03.02.06.04.08.05-.02.1-.04.14-.07ZM136.18,70.27v.06s.05-.03.05-.03l-.05-.04ZM159.46,77.21c-.1-.21-.16-.34-.26-.55.29-.04.52-.07.75-.1l.09.19c-.18.14-.36.29-.58.47ZM158.01,76.8s-.08-.09-.08-.14c0-.05.06-.11.11-.13.21-.07.35-.01.39.22-.13.02-.27.04-.41.05ZM22.81,38.06s.12-.03.14-.07c.02-.04,0-.12-.02-.16-.14-.17-.29-.2-.44-.02.11.09.21.18.33.26ZM129.85,69.2c.09,0,.17-.02.24,0,.02,0,.02.11.03.16-.08.01-.16.03-.23.03-.02,0-.02-.1-.04-.2ZM159.67,78.17s.05-.02.08-.03c0-.06.02-.13,0-.18-.04-.08-.1-.14-.16-.21-.06.06-.18.17-.17.18.06.09.16.16.24.24ZM89.25,58.01c.05-.02.1-.04.15-.06-.02-.05-.02-.12-.06-.14-.04-.02-.11,0-.16,0,.02.07.05.13.07.2ZM91.09,58.54s-.06-.09-.09-.13c.04-.03.08-.09.12-.09.05,0,.09.06.13.09-.05.05-.11.09-.16.14ZM135.05,71.18l.06.05v-.07s-.06.03-.06.03ZM45.26,45.46h-.07s.03-.06.03-.06l.04.06ZM137,71.87c.08-.04.16-.08.21-.13.02-.02-.04-.1-.06-.16l-.24.1c.02.05.04.1.08.19ZM89.97,58.49l-.07-.04v.07s.07-.02.07-.02ZM90.22,58.56h.08s-.03.06-.03.06l-.05-.06ZM130.96,70.5l-.05.04v-.06s.05.03.05.03ZM49.09,47.04l.02.06.04-.05h-.06ZM158.38,78.48l.04-.05.02.07-.07-.02ZM21.61,39.29v-.07s-.07.05-.07.05l.07.02ZM82.23,56.72s.04.07.06.11c-.05-.03-.09-.06-.14-.09.03,0,.07-.03.07-.02ZM136.38,72.33s-.06.01-.07,0c-.01-.01,0-.05,0-.07h.07s0,.04,0,.07ZM135.79,72.36l.03.05h-.05s.02-.05.02-.05ZM44.01,46.06l-.05.02.04.03v-.06ZM124.38,69.16c-.06-.05-.1-.12-.15-.18.08-.05.13-.07.18-.1.04.07.08.14.1.21,0,0-.11.08-.13.07ZM133.08,71.74h.07s-.03.06-.03.06l-.04-.06ZM46.64,46.98l-.05-.04v.07s.05-.03.05-.03ZM132.1,71.29c-.06-.02-.18.04-.21.1-.04.1.16.27.3.24.04,0,.07-.08.15-.17-.08-.06-.15-.15-.24-.17ZM47.71,47.11c.06.02.13.13.12.19-.02.11-.28.14-.39.05-.03-.03-.02-.1-.03-.22.1,0,.21-.04.3-.02ZM160.42,79.81c.27.23.5-.09.74-.06-.35-.36-.36-.35-.74.06ZM178.49,85.04h.07s-.03.06-.03.06l-.04-.06ZM161.02,80.2c.4-.05.27-.23.18-.39-.06.12-.11.24-.18.39ZM129.16,71.28l-.03-.04-.02.05h.05ZM59.02,51.13s-.09-.03-.13-.05c0,.05-.01.09-.01.14,0,.01.06.03.07.02.03-.03.05-.08.08-.12ZM128.4,71.05c-.1-.11-.14-.22-.2-.23-.06-.01-.14.07-.21.12.03.05.06.14.1.14.08.02.16-.01.31-.03ZM50.98,48.87c.14-.05.23-.11.29-.09.06.02.08.14.11.21-.05.03-.12.09-.16.07-.07-.03-.13-.1-.24-.19ZM112.44,66.63c.11-.12.25-.23.5-.45.03.19.07.28.05.36-.06.19-.2.31-.41.28-.06-.01-.15-.17-.14-.18ZM81.33,57.87v.05s.05-.03.05-.03l-.05-.02ZM135.34,73.45s.03.05.05.06c.02,0,.05-.02.07-.03,0-.03,0-.05,0-.08-.04.02-.08.03-.12.05ZM43.82,47.23s-.05.03-.07.02c-.02,0-.03-.04-.05-.06.02-.02.03-.04.05-.06.02.03.05.07.07.1ZM128.66,71.22c.1-.02.27.03.32.11.09.14-.04.22-.17.25-.12.03-.24.04-.35.06-.06-.25.05-.38.2-.41ZM114.18,67.64s.08.05.12.08c.02-.05.05-.09.08-.14-.04-.03-.09-.05-.13-.08-.03.05-.07.1-.07.14ZM160.68,81.23c-.05-.01-.09-.06-.14-.1.03-.04.06-.07.11-.12.06.06.11.12.17.19-.05.01-.1.05-.14.04ZM18.2,40.41c.05.02.11,0,.17,0,0-.05-.02-.09-.03-.16-.08.02-.16.05-.24.07.03.04.06.09.1.1ZM21.97,41.39s-.07-.08-.11-.12c-.04.04-.1.08-.1.11,0,.04.06.08.1.12.04-.04.07-.07.11-.11ZM156.96,80.07c.05-.02.11-.03.16-.05,0,.05.05.12.02.15-.03.03-.1.03-.15.05-.01-.05-.02-.1-.04-.15ZM178.61,86.62c.14,0,.31.02.43.1.08.06.09.22.13.33-.29-.1-.58-.21-.87-.32.06-.21.22-.11.31-.11ZM179.17,87.05s.07,0,.1,0h-.08s-.01,0-.02,0ZM58.98,52.91s.05-.03.07-.05c-.03-.03-.07-.07-.11-.1,0,0-.04.03-.07.05.03.03.07.07.1.1ZM162.76,83.04s.08-.06.13-.09c-.04-.05-.08-.1-.11-.14-.04.04-.09.07-.13.11l.12.13ZM19.55,42.23s.01-.09.02-.14c.05.01.12.02.15.05.02.02-.01.09-.02.14-.05-.01-.12-.01-.15-.05ZM157.4,81.92s-.03-.03-.05-.05c.01-.02.03-.04.04-.05.03.03.05.06.08.09-.02,0-.05.03-.07.02ZM178.36,87.98q-.22-.65.24-.85l-.24.85ZM28.07,45.07s0-.06,0-.09c-.05,0-.11,0-.16-.01,0,.03,0,.09,0,.09.05.01.1.01.15.02ZM153.72,80.77c0,.09.03.18,0,.25-.02.04-.13.03-.19.05,0-.08-.01-.17,0-.25,0-.02.1-.03.19-.05ZM17.53,42.6c.21-.41.4-.51.65-.52.02,0,.05.03.06.06,0,.03,0,.07-.01.08-.17.1-.35.19-.7.38ZM176.91,88.24s.06-.07.09-.1c.03.04.07.09.07.13,0,.03-.06.07-.09.11-.03-.05-.08-.09-.08-.14ZM.72,37.76s-.01-.09-.03-.13c-.05.02-.11.04-.13.07-.02.03,0,.09.02.14.05-.02.11-.04.14-.08ZM157.26,83.19s-.04-.03-.06-.06l.06.06h0ZM176.86,88.82c.42,0,.77,0,1.18,0,.07.33-.02.5-.26.47-.31-.04-.63-.13-.91-.46ZM162.35,54.4c.03-.06.06-.12.09-.17.04-.08.08-.15.12-.23.04,0,.08-.01.13-.02-.02-.04-.04-.08-.06-.1.02-.03.04-.06.05-.09.16-.03.28,0,.47.03-.04-.09-.08-.17-.11-.26-.07.03-.14.03-.21.01.2-.27.43-.51.71-.69.03.01.08.02.13.02,0-.03,0-.07,0-.1.19-.1.4-.18.63-.21.39-.06.71.17.94.52.18.28.3.65.35,1.01.04.29.06.58.06.88-.13-.04-.23-.08-.34-.12,0,.06,0,.16.03.18.09.06.19.09.31.08,0,.17,0,.33-.02.5,0,.13-.02.26-.03.4-.02-.02-.05-.03-.07-.04-.03,0-.08.01-.11.02.02.02.04.06.06.06.04,0,.08,0,.12-.02-.04.48-.1.96-.17,1.44-.07,0-.1.01-.12.03-.01.02-.02.04-.03.06-.25-.2-.5-.38-.73-.58-.1-.09-.16-.24-.1-.38.06-.16.1-.32.03-.5-.15-.13-.39,0-.52-.18,0,0-.1.02-.12.05-.02.03,0,.12.02.13.01.05.02.1.03.19.02-.04.05-.08.08-.12.2.16.27.41.38.64.04.08.07.16.1.25-.04-.06-.08-.13-.13-.2-.08.03-.19.08-.3.13-.07-.06-.15-.12-.23-.19-.03.31,0,.33.46.44,0,.12,0,.23,0,.35,0,.03.02.06.05.12.03-.02.06-.04.09-.07.08.06.14.1.21.15.06.05.11.09.14.14,0,.05.02.1.03.15.01.06-.01.13-.05.2-.02.05-.05.09-.09.13-.15.14-.11.31,0,.42.05.05.09.11.13.16l-.38.21c0,.16-.02.3-.02.42q.27.14.55.07l.07-.25c.02.05.03.1.05.16-.04.26-.09.48-.14.71-.2.07-.24.19-.21.36.03.02.07.04.11.06l-.02.1c-.05-.02-.13-.02-.24.02.07.07.09.11.13.13.02.01.04.03.06.04-.03.13-.06.26-.1.39.02.03.04.07.06.1l-.09-.11c-.13,0-.14.1-.07.16.12.08.21.11.28.15.05.08.11.17.17.25-.12,0-.25-.05-.39.05.12.07.22.11.3.16.1.06.18.14.29.22v-.13c.09.11.17.21.25.32-.09.08-.16.15-.24.22-.11.12-.07.32.08.39.15.07.3.13.52.23,0-.11.01-.22.03-.33.21.27.43.54.65.8-.03,0-.06-.01-.06,0-.01.04-.02.08-.03.12.03,0,.08.02.08.01.02-.03.02-.06.03-.09.16.19.32.39.47.58-.03-.02-.08-.05-.14-.07-.06-.02-.13-.03-.19-.05l-.06.09c-.16-.15-.37-.26-.39-.5-.28,0-.2.25-.31.36-.29-.08-.39-.16-.41-.39,0-.1,0-.18,0-.28-.32-.32-.42-.37-.78-.1.22.04.39.14.49.31-.03.08,0,.13.07.16.05.19.15.32.22.46,0,.03,0,.07,0,.1-.18.34-.18.34.06.57.1.1.23.18.34.27,0-.17.07-.31.14-.45.11,0,.18-.06.21-.19-.04,0-.09,0-.13.01,0-.02.01-.04.02-.06.05-.18.27-.22.45-.25-.03.05-.07.1-.1.15.03.1.08.18.19.22.06.02.11.02.17,0,.13.29.18.61.17.94,0,.03.01.07.02.1.04,0,.07,0,.1.01,0,.08.01.15.03.23,0,.03.04.05.09.1.03-.04.05-.05.06-.06.03-.11,0-.2-.09-.26.07-.01.11-.05.13-.13.02-.08.04-.18.02-.26-.08-.29-.15-.6-.35-.81.01-.02.02-.04.03-.06.01-.03.02-.06,0-.09.11.14.22.27.33.41,0,.19.05.39.13.58.06.16.16.2.3.2.02-.07,0-.14.02-.2.15.2.3.4.45.6-.04.12-.02.22-.02.31,0,.1.1.12.22.05v-.11c.1.15.21.29.32.44-.06.1-.11.17-.15.25-.02.04-.06.12-.04.13.18.15-.06.33.04.49.17.12.33,0,.5,0,.04-.11.07-.2.1-.28l.06.08.27.36c.02.08.04.16.04.24-.17-.06-.31-.1-.47-.16-.13.06-.23.13-.31.22-.1-.06-.2-.12-.32-.18.03.1.04.14.06.18.03.07.04.13.01.18-.08-.06-.16-.12-.24-.18-.1.13-.08.22,0,.31-.07.04-.13.1-.2.15.07.13.17.17.33.15.19-.02.31.06.34.22.03.13.05.27.06.41.01.2-.01.4.19.56.09.07.08.22,0,.34-.04.06-.06.12-.08.17.12.14.25.04.26-.03.06-.29.25-.33.49-.34.1,0,.19-.06.29-.09,0-.1.02-.21-.12-.21-.19,0-.27-.13-.34-.28-.08-.16-.15-.32-.24-.51.02,0,.03,0,.05-.01,0-.05,0-.1-.02-.15.01-.04.03-.08.03-.13.03-.13,0-.24-.13-.31,0-.05,0-.11.01-.16.1-.03.2-.07.32-.11,0,.05,0,.11-.02.17,0,0,.04.03.07.05.11.17.09.41.33.51.1-.01.11-.1.12-.18v-.08s.35.46.35.46c-.03,0-.05.02-.07.05-.04.04-.04.11-.08.22.02,0,.05,0,.07,0,.02.11.09.16.15.22.04-.05.07-.09.13-.17-.03-.02-.06-.05-.09-.07.03-.01.04-.02.05-.04.33.44.66.88.99,1.32,0,.03,0,.06-.01.09h.08c.44.58.88,1.16,1.32,1.73,0,.03,0,.07,0,.11.04.12.1.24.17.4.05-.04.09-.08.13-.11.21.26.42.53.63.79v.1c.07.04.08.03.1.02.04.05.09.11.13.16-.05.08-.11.17-.1.23.04.21-.02.36-.18.51-.13.13-.1.26.03.35.16.11.31.07.37-.1.02-.05.04-.1.04-.15.01-.2.02-.4.03-.6.07.08.15.17.22.25.04.04.07.09.11.13.15.18.28.37.41.57.33.53.59,1.22.65,1.81-.04.01-.06.04-.07.08,0,.05.04.12.06.17.02.31-.04.57-.18.76v-.26c-.05,0-.1-.03-.14-.02-.2.06-.2.06-.26.32l.39-.03c-.08.11-.2.19-.34.24-.34.13-.74-.1-1.11-.3-.23-.12-.46-.25-.69-.38,0-.02,0-.05,0-.06,0-.01-.05-.01-.07-.01-.32-.16-.64-.37-.94-.6,0,0-.61-.48-1.11-.88-.33-.26-.66-.53-.99-.79-.02-.1-.11-.16-.22-.18-.3-.24-.6-.47-.9-.71-.29-.23-.58-.46-.87-.69.05,0,.11-.01.16-.03.07-.02.14-.03.19-.07.06-.05.13-.12.15-.19.02-.1-.09-.13-.16-.17-.01,0-.02-.02-.05-.05.02-.07.04-.14.07-.22-.14-.1-.29.06-.43-.02,0-.15,0-.29,0-.44.15-.04.32-.1.55-.16-.17-.12-.29-.21-.42-.3-.26.08-.26.07-.36-.09-.04-.07-.09-.14-.14-.21-.02-.02-.06-.03-.11-.05-.08.03-.17.07-.27.11.12.14.3.24.12.46.08.04.16.06.22.11.1.08.18.2.09.31-.14.17-.14.33-.04.52.02.05.03.1.02.16-.2-.15-.4-.31-.6-.46.04-.01.08-.04.12-.08-.08-.1-.15-.18-.21-.26-.04.01-.08.13-.09.21-.99-.76-2-1.5-3-2.23,0-.02-.02-.03-.03-.05,0,0-.03,0-.05,0-.34-.25-.69-.5-1.03-.75-.15-.11-.3-.2-.45-.3-.12.47-.23.94-.34,1.4-.03-.05-.05-.08-.08-.12,0-.01-.02-.03-.03-.04-.08-.06-.19-.03-.2.06-.01.08-.01.17,0,.25,0,.09.09.13.19.08.03-.01.05-.03.08-.05-.54,2.25-1.05,4.52-1.71,6.75,0,0,.54.86.98,1.49.36.52.74,1.03,1.11,1.55.29.41.58.83.83,1.27,0,0,1.13,2.2.04,2.79-.04.02-.09.04-.13.05-.04.01-.08.02-.13.02-.28.02-.52-.13-.76-.31-.11-.09-.22-.18-.33-.26-.5-.38-1-.76-1.49-1.15.26.04.48-.1.71-.18l.25-.26s.08-.04.08-.05c-.02-.08-.06-.16-.09-.23-.08.04-.13.06-.18.08.04.07.07.14.12.2-.41,0-.73-.23-1.12,0,.04.13.08.24.12.35-.64-.51-1.28-1.02-1.89-1.56-.05.05-.18.14-.5.35-.14.46-.24.93-.51,1.3-.04,0-.04.05-.04.05-.05.06-.11.12-.18.18-.45.38-1.3-.09-1.15-1,.12.18.26.36.45.61-.02-.21-.05-.3-.04-.39.01-.08.07-.16.1-.22-.2-.19-.32-.31-.44-.42.06-.38.03-.32.03-.32-.14-.25-.18-.68-.18-.68-1.73.02-3.43.38-5.17.62-.56.07-.91-.46-.58-1.24.81-1.9,3.17-2.83,5.29-3.54.02,0,.04-.01.06-.02.23-.08.45-.15.67-.22,0,0,.29-.88.46-1.51.51-1.92,1.06-3.8,1.48-5.77,0-.01.02-.03.02-.05,0-.02,0-.05,0-.07l.03-.14s-.05-.08-.06-.12c0-.02-.08-.03-.14-.05l-.02.21c-.29.04-.58.08-.86.12,0-.04,0-.08,0-.11,0,0-.06,0-.11,0,0,.04,0,.09.03.12-3.87.53-7.78.82-11.74,1.06-.21.01-.41.02-.62.03-.16,0-.32,0-.48,0-.81,0-1.87-.14-1.62-1.05.13-.46.4-.85.76-1.19.1.03.19.05.25-.06.03-.06.03-.11.01-.16.38-.3.83-.57,1.28-.82.48-.27.98-.51,1.48-.73.47-.2.94-.4,1.41-.6-.03.13-.07.26-.07.39.28-.07.24-.3.26-.46.56-.24,1.12-.46,1.69-.68,2.2-.88,4.42-1.74,6.58-2.87,1.06-.55,2.11-1.13,3.2-1.63.1-.02.13-.04.16-.07.22-.1.44-.19.66-.28.15-.54.29-1.08.44-1.62.1.05.17.13.23.25-.14,0-.16.02-.14.16.02.2-.14.15-.25.23.16.13.35.19.54.24-.03-.09-.06-.17-.07-.26.08.07.13.12.18.16-.04.03-.07.07-.09.11.05.04.1.1.14.1.03,0,.06,0,.08-.02l.1.22c.12-.06.1-.16.05-.22-.01-.02-.03-.03-.05-.04.03-.01.06-.02.1-.04,0-.15-.1-.16-.2-.16-.04,0-.07,0-.09.02-.06-.14-.13-.27-.24-.38,0-.04.01-.09.03-.13,0-.13.03-.26.07-.39-.15.05-.23-.05-.31-.13.03-.03.05-.04.07-.06.06-.04.11-.15.09-.22-.01-.05-.02-.1-.04-.14.08-.26.16-.52.24-.78.01.04,0,.07,0,.1.03.02.05.05.08.06.31.12.58.3.79.55-.04.04-.06.09-.07.15-.01.11.05.19.12.26.06,0,.12-.02.18-.02-.11.16-.23.34-.41.31-.02,0-.04,0-.06,0,.02-.04.04-.08.06-.11-.13-.03-.22.02-.26.11-.16,0-.32.01-.46-.06.03.14.06.29.11.42.11.31.11.31.49.29.03,0,.06.02.09.04.1.12.17.26.29.36.04.1.06.15.15.16.12.17.14.36.08.58.4-.21.4-.32.24-.75-.09-.03-.16-.07-.23-.1-.24-.13-.26-.25-.22-.55.14-.06.35.12.46-.13-.22-.12-.23-.36-.29-.57.17.13.33.23.51.3.24.09.35-.08.31-.55l-.68.03c0-.18-.04-.27-.13-.27-.02,0-.04,0-.06,0-.11-.27-.35-.46-.59-.65-.06-.05-.16-.07-.24-.09-.08-.02-.13,0-.17.07,0-.03-.01-.05-.02-.06.11-.34.23-.68.36-1.01.04,0,.09-.01.15-.03l-.11-.06c.06-.16.13-.32.2-.48l.39.25c-.03.28-.05.54-.07.8-.04.06-.09.09-.13.13-.14.15-.25,0-.38,0-.06.13-.06.24.05.36.05.05.09.09.14.14.27.22.51.33.8.36-.08-.12-.14-.27-.25-.37-.09-.09-.23-.12-.34-.17.03-.23.31-.25.34-.48-.01-.11,0-.23.1-.34.12-.13.2-.3.31-.46.05.03.11.06.18.08.06-.04.07-.08.06-.13.09-.01.19-.02.31-.03-.09-.12-.16-.21-.23-.29-.1.06-.19.1-.26.13-.15-.03-.15-.08-.12-.28.05-.03.11-.07.16-.11.07-.06.08-.22.07-.33-.01-.07-.12-.15-.2-.16-.12-.02-.25,0-.36.04-.06.02-.12.03-.18.05ZM28.46,16.57c.04.1.09.19.16.27-.12.01-.25-.02-.5-.07-.11-.03-.2-.01-.28.05.15-.35.3-.69.48-1.02.04-.08.08-.15.12-.23.04,0,.08-.01.13-.02-.02-.04-.04-.08-.06-.1.02-.03.04-.06.05-.09.16-.03.28,0,.47.03-.04-.09-.08-.17-.11-.26-.07.03-.14.03-.21.01.2-.27.43-.51.71-.69.03,0,.08.02.13.02,0-.03,0-.07,0-.1.19-.1.4-.18.63-.21.39-.06.71.17.94.52.18.28.3.65.35,1.01.04.29.06.58.06.88-.13-.04-.23-.08-.34-.12,0,.06,0,.16.03.18.09.06.19.09.31.08,0,.17,0,.33-.02.5,0,.05,0,.11-.01.16-.26-.29-.45-.52-.65-.74-.08-.09-.18-.18-.29-.23-.07-.03-.21-.02-.25.03-.07.08-.15.23-.12.32.18.5.55.69,1.31.65,0,.07,0,.14-.02.21-.02-.02-.05-.03-.07-.04-.03,0-.08.01-.11.02.02.02.04.06.06.06.04,0,.08,0,.12-.02-.04.48-.1.96-.17,1.44-.06,0-.1.01-.12.03-.01.02-.02.04-.03.06-.25-.2-.5-.38-.73-.58-.1-.09-.16-.24-.1-.38.06-.16.1-.32.03-.5-.15-.13-.39,0-.52-.18,0,0-.1.02-.12.05-.02.03,0,.12.02.13.01.05.02.1.03.19.02-.04.05-.08.08-.12.2.16.27.41.38.64.04.08.07.16.1.25-.04-.06-.08-.13-.13-.2-.08.03-.19.08-.3.13-.07-.06-.15-.12-.23-.19-.03.31,0,.33.46.44,0,.12,0,.23,0,.35,0,.03.02.06.05.12.03-.02.06-.04.09-.07.08.06.14.1.21.15.06.05.11.09.14.14,0,.05.02.1.03.15.01.06-.01.13-.05.2-.02.05-.05.09-.09.13-.15.14-.11.31,0,.42.05.05.09.11.13.16l-.38.21c0,.16-.02.3-.02.42q.27.14.55.07l.07-.25c.02.05.03.1.05.16-.04.26-.09.48-.14.71-.2.07-.24.19-.21.36.03.02.07.04.11.06l-.02.1c-.05-.02-.13-.02-.24.02.07.07.09.11.13.13.02.01.04.03.06.04-.03.13-.06.26-.1.39.02.03.04.07.06.1l-.09-.11c-.13,0-.14.1-.07.16.12.08.21.11.28.15.05.08.11.17.17.25-.12,0-.26-.05-.39.05.12.07.22.11.3.16.1.06.18.14.29.22v-.13c.09.11.17.21.25.32-.09.08-.16.15-.24.22-.11.12-.07.32.08.39.15.07.3.13.52.23,0-.11.01-.22.03-.33.21.27.43.54.65.8-.03,0-.06-.01-.06,0-.01.04-.02.08-.03.12.03,0,.08.02.08.01.02-.03.02-.06.03-.09.16.19.32.39.47.58-.03-.02-.08-.05-.14-.07-.06-.02-.13-.03-.19-.05l-.06.09c-.16-.15-.37-.26-.39-.5-.28,0-.2.25-.31.36-.29-.08-.39-.16-.41-.39,0-.1,0-.18,0-.28-.32-.32-.42-.37-.78-.1.22.04.39.14.49.31-.03.08,0,.13.07.16.05.19.15.32.22.46,0,.03,0,.07,0,.1-.18.34-.18.34.06.57.1.1.23.18.34.27,0-.17.07-.31.14-.45.11,0,.18-.06.21-.19-.04,0-.09,0-.13.01,0-.02.01-.04.02-.06.05-.18.27-.22.45-.25-.03.05-.07.1-.1.15.03.1.08.18.19.22.06.02.11.02.17,0,.13.29.18.61.17.94,0,.03.01.07.02.1.04,0,.07,0,.1.01,0,.08.01.15.03.23,0,.03.04.05.09.1.03-.04.05-.05.06-.06.03-.11,0-.2-.09-.26.07-.01.11-.05.13-.13.02-.08.04-.18.02-.26-.08-.29-.15-.6-.35-.81.01-.02.02-.04.03-.06.01-.03.02-.06,0-.09.11.14.22.27.33.41,0,.19.05.39.13.58.06.16.16.2.3.2.02-.07,0-.14.02-.2.15.2.3.4.45.6-.03.11-.02.2-.02.29,0,.07.03.1.07.11.08,0,.11-.02.14-.04v-.11c.1.15.21.29.32.44-.06.1-.11.17-.15.25-.02.04-.06.12-.04.13.18.15-.06.33.04.49.17.12.33,0,.5,0,.04-.11.07-.2.1-.28l.06.08.27.36c.02.08.04.16.04.24-.18-.06-.31-.1-.47-.16-.13.06-.23.13-.31.22-.1-.06-.2-.12-.32-.18.03.1.04.14.06.18.03.07.04.13.01.18-.08-.06-.16-.12-.24-.18-.1.13-.08.22,0,.31-.06.04-.12.09-.17.13-.01-.05-.09-.18-.13-.18-.09,0-.19.07-.32.12.09.13.16.27.18.26.09-.04.19-.09.26-.17.07.12.17.15.32.14.19-.02.31.06.34.22.03.13.05.27.06.41.01.2-.01.4.19.56.09.07.08.22,0,.34-.04.06-.06.12-.08.17.12.14.25.04.26-.03.06-.29.25-.33.49-.34.1,0,.19-.06.29-.09,0-.1.02-.21-.12-.21-.19,0-.27-.13-.34-.28-.08-.16-.15-.32-.24-.51.02,0,.03,0,.05-.01,0-.05,0-.1-.02-.15.01-.04.03-.08.03-.13.03-.13,0-.24-.13-.31,0-.05,0-.11.01-.16.1-.03.2-.07.32-.11,0,.05,0,.11-.02.17,0,0,.04.03.07.05.11.17.09.41.33.51.1-.01.11-.1.12-.18v-.08s.35.46.35.46c-.03,0-.05.02-.07.05-.04.04-.04.11-.08.22.12,0,.21.01.26-.02.02,0,.03-.02.04-.03.33.44.66.88.99,1.32,0,.03,0,.06-.01.09h.08c.44.58.88,1.16,1.32,1.73,0,.03,0,.07,0,.11.04.12.1.24.17.4.05-.04.09-.08.13-.11.21.26.42.53.64.79v.1c.07.04.08.03.1.02.04.05.09.11.13.16-.05.08-.11.17-.1.23.04.21-.02.36-.18.51-.13.13-.1.26.03.35.16.11.31.07.37-.1.02-.05.04-.1.04-.15.01-.2.02-.4.03-.6.07.08.15.17.22.25.04.04.07.09.11.13.15.18.28.37.41.57.33.53.59,1.22.65,1.81-.04.01-.06.04-.07.08,0,.05.04.12.06.17.02.31-.04.57-.18.76v-.26c-.05,0-.1-.03-.14-.02-.2.06-.2.06-.26.32l.39-.03c-.08.11-.2.19-.34.24-.34.13-.74-.1-1.11-.3-.23-.12-.46-.25-.69-.38,0-.02,0-.05,0-.06,0-.01-.05-.01-.07-.01-.32-.16-.64-.37-.94-.6,0,0-.61-.48-1.11-.88-.33-.26-.66-.53-.99-.79-.02-.1-.11-.16-.21-.18-.3-.24-.6-.47-.9-.71-.29-.23-.58-.46-.87-.69.05,0,.11-.01.16-.03.07-.02.14-.03.19-.07.06-.05.13-.12.15-.19.02-.1-.09-.13-.16-.17-.01,0-.02-.02-.05-.05.02-.07.04-.14.07-.22-.14-.1-.29.06-.43-.02,0-.15,0-.29,0-.44.15-.04.32-.1.55-.16-.17-.12-.29-.21-.42-.3-.26.08-.26.07-.36-.09-.04-.07-.09-.14-.14-.21-.02-.02-.06-.03-.11-.05-.08.03-.17.07-.27.11.04.04.08.09.12.13-.03.04-.02.06-.01.09.02,0,.04-.02.06-.02.04.07.04.15-.05.27.08.04.16.06.22.11.1.08.18.2.09.31-.14.17-.14.33-.04.52.02.05.02.1.02.16-.2-.15-.4-.31-.6-.46.04-.01.08-.04.12-.08-.08-.1-.15-.18-.21-.26-.04.01-.08.13-.09.21-1.36-1.03-2.74-2.04-4.1-3.03-.15-.11-.3-.2-.45-.3-.12.47-.23.94-.34,1.4-.03-.05-.05-.08-.08-.12,0-.01-.02-.03-.03-.04-.08-.06-.19-.03-.2.06-.01.08-.01.17,0,.25,0,.09.09.13.19.08.03-.01.05-.03.08-.05-.29,1.21-.57,2.43-.87,3.64-.04-.02-.09-.04-.13-.04-.04,0-.08.07-.12.11.07.04.13.08.21.11-.16.64-.33,1.28-.5,1.92-.06.02-.13.06-.2.12l.14.12c-.07.26-.15.52-.22.77,0,0,.54.86.98,1.49.36.52.74,1.03,1.11,1.55.29.41.58.83.83,1.27,0,0,1.13,2.2.04,2.79-.04.02-.09.04-.13.05-.04.01-.08.02-.13.02-.28.02-.52-.13-.76-.31-.11-.09-.22-.18-.33-.26-1.19-.91-2.37-1.81-3.49-2.8-.05.05-.18.14-.5.35-.14.46-.24.93-.51,1.3-.04,0-.04.05-.04.05-.05.06-.11.12-.18.18-.45.38-1.3-.09-1.15-1,.12.18.26.36.45.61-.02-.21-.05-.3-.04-.39.01-.08.07-.16.1-.22-.2-.19-.32-.31-.44-.42.06-.38.03-.32.03-.32-.14-.25-.18-.68-.18-.68-1.73.02-3.43.38-5.17.62-.56.07-.91-.46-.58-1.24.11-.27.26-.51.42-.74.02.04.1.39.1.39.16.21.29.48.59.56.11-.09.22-.18.35-.28-.21-.4-.6-.37-.95-.59.07-.03.14-.07.21-.11-.03-.05-.06-.09-.11-.17-.03.02-.05.04-.08.05.57-.71,1.38-1.25,2.29-1.69.03,0,.07,0,.11,0,.75-.41,1.57-.7,2.36-.97.02,0,.04-.01.06-.02.23-.08.45-.15.67-.22,0,0,.29-.88.46-1.51.17-.63.34-1.25.5-1.87l.17-.08c-.02-.1-.05-.16-.09-.2.05-.18.1-.36.15-.54,1.08.13,1.09.13,1.42-.07-.36-.2-.71-.29-1.08-.22-.1.02-.19.11-.32.22.26-.99.52-1.99.74-3.01,0-.01.02-.03.02-.05,0-.02,0-.05,0-.07l.03-.14s-.05-.08-.06-.12c0-.02-.08-.03-.14-.05l-.02.21c-.29.04-.58.08-.86.12,0-.04,0-.08,0-.11,0,0-.06,0-.11,0,0,.04,0,.09.03.12-3.87.53-7.78.82-11.74,1.06-.21.01-.41.02-.62.03-.16,0-.32,0-.48,0-.81,0-1.87-.14-1.62-1.05.13-.46.4-.85.77-1.19.09.03.19.05.25-.07.03-.06.03-.11.01-.16.38-.3.83-.57,1.28-.82.48-.27.98-.51,1.48-.73.47-.2.94-.4,1.41-.6-.03.13-.07.26-.07.39.28-.07.24-.3.26-.46.56-.24,1.12-.46,1.69-.68,2.2-.88,4.42-1.74,6.58-2.87,1.06-.55,2.11-1.13,3.2-1.63.1-.02.13-.04.16-.07.22-.1.44-.19.66-.28.15-.54.29-1.08.44-1.62.1.05.17.13.23.25-.14,0-.16.02-.14.16.02.2-.14.15-.25.23.16.13.35.19.54.24-.03-.09-.06-.17-.07-.26.08.07.13.12.18.16-.04.03-.07.07-.09.11.05.04.1.1.14.1.03,0,.06,0,.08-.02l.1.22c.12-.06.1-.16.05-.22-.01-.02-.03-.03-.05-.04.03-.01.06-.02.1-.04,0-.15-.1-.16-.21-.16-.04,0-.07,0-.09.02-.06-.14-.13-.27-.24-.38,0-.04.01-.09.03-.13,0-.13.03-.26.07-.39-.15.05-.23-.05-.31-.13.03-.03.05-.04.07-.06.06-.04.11-.15.09-.22-.01-.05-.02-.1-.04-.14.08-.26.16-.52.24-.78.01.04,0,.07,0,.1.03.02.05.05.08.06.31.12.58.3.79.55-.04.04-.06.09-.07.15-.01.11.04.19.12.26h.08s.02.04.04.06c-.09.13-.2.24-.35.22-.02,0-.04,0-.06,0,.02-.04.04-.08.06-.11-.13-.03-.22.02-.26.11-.16,0-.32.01-.46-.06.03.14.06.29.11.42.11.31.11.31.49.29.03,0,.06.02.09.04.1.12.17.26.29.36.04.1.06.15.15.16.12.17.14.36.08.58.4-.21.4-.32.24-.75-.09-.03-.16-.07-.23-.1-.24-.13-.26-.25-.22-.55.14-.06.35.12.46-.13-.16-.09-.21-.25-.25-.41.29.06.55.04.91-.02-.33-.23-.58-.4-.87-.6-.02-.01-.05-.02-.08-.02-.02,0-.04,0-.06,0-.11-.27-.35-.46-.59-.65-.06-.05-.16-.07-.24-.09-.08-.02-.13,0-.17.07,0-.03-.01-.05-.02-.06.11-.34.23-.68.36-1.01.04,0,.09-.01.15-.03l-.11-.06c.06-.16.13-.32.2-.48l.39.25c-.03.28-.05.54-.07.8-.04.06-.09.09-.13.13-.14.15-.25,0-.38,0-.06.13-.06.24.05.36.26.28.57.46.94.49-.08-.12-.14-.27-.25-.37-.09-.09-.23-.12-.34-.17.03-.23.31-.25.34-.48-.01-.11,0-.23.1-.34.12-.13.2-.3.31-.46.05.03.11.06.18.08.06-.04.07-.08.06-.13.09-.01.19-.02.31-.03-.09-.12-.16-.21-.23-.29-.1.06-.19.1-.26.13-.16-.04-.15-.08-.12-.32,0-.06-.02-.15-.06-.17-.04-.03-.12-.03-.17,0-.03-.07-.1-.15-.21-.27-.22.23-.13.45.07.75.03-.06.06-.11.08-.15ZM175.99,90.19s.03.04.05.06l-.11.07s-.03-.04-.04-.06c.04-.02.07-.05.11-.07ZM.47,39.9s-.04.02-.07.02l.06.12s.05-.02.07-.03c-.02-.04-.04-.08-.06-.12ZM175.23,92.74s.07.06.1.1c-.11.02-.22.05-.33.05-.02,0-.05-.08-.08-.13.09-.14.21-.04.31-.02ZM29.8,51.75v-.06s.05.02.05.02l-.05.04ZM71.96,63.89l-.02.08c.02.09.05.15.1.18.02.02.08-.02.12-.03-.02-.02-.03-.06-.05-.07-.06-.02-.12-.02-.18-.03.01-.06.03-.11.04-.17v.04ZM135.22,82.23s-.03.04-.05.06c.04,0,.07,0,.12,0-.03-.02-.06-.05-.07-.05ZM39.27,54.73s0,.05.01.07c-.03-.02-.06-.04-.1-.07.04,0,.08-.01.09,0ZM53.43,58.9v.07s.07-.04.07-.04l-.07-.03ZM107.44,74.28c.1.04.21.08.32.13-.18.21-.26.04-.32-.13ZM39.96,55.06s.08-.05.13-.06c.01,0,.06.04.06.05-.02.04-.05.08-.08.12-.04-.04-.07-.07-.11-.11ZM106.39,73.96c.05.06.06.16.09.24-.07,0-.17.04-.22,0-.13-.09-.16-.24-.07-.33.06.03.15.04.2.09ZM107.13,74.85s.07.04.11.06c-.03,0-.05,0-.08,0,0-.02-.02-.04-.03-.06ZM57.68,60.72c0,.06-.02.11-.01.17,0,.01.07.04.08.03.03-.04.06-.09.08-.14-.05-.02-.1-.04-.15-.06ZM53.39,59.63c-.15-.03-.29-.1-.45-.13-.1-.02-.22.02-.33.04,0,.07,0,.14.01.21.3.07.6.15.9.19.07,0,.16-.13.36-.31-.28,0-.4.01-.51,0ZM35.89,55.52s-.05-.03-.07-.05c.01.04.02.08.04.12.01-.03.02-.05.03-.08ZM35.72,54.19l-2.03-.58-.11.39s-.05,0-.08,0c.01.04.03.07.04.11l-.22.78,2.03.58c.11.03.22.02.33-.05.11-.06.18-.15.21-.26l.12-.43c.03-.11.02-.22-.04-.33-.06-.11-.15-.18-.26-.21ZM29.55,52.42l-2.03-.58-.37,1.28,2.03.58c.11.03.22.02.33-.05.05-.01.1-.06.14-.08.03-.07.05-.12.07-.18l.12-.43c.03-.11.02-.22-.04-.33-.06-.11-.15-.18-.26-.21ZM173.96,95.18s.06,0,.08,0c.02-.02.01-.06.02-.09h-.14s.03.09.03.09h0ZM78.42,67.76l-.04.04v-.06s.04.02.04.02ZM172.85,94.99s.04.09.07.12c0,0,.07-.02.07-.03,0-.05,0-.09,0-.14-.04.02-.09.03-.14.05ZM.59,45.63s-.08.05-.13.07c0,0-.05-.05-.04-.06.02-.04.05-.08.08-.12.03.04.06.08.09.11ZM96.47,73.5l-.82-.23c-.12-.04-.21-.11-.26-.22-.05-.11-.06-.23-.02-.37l.17-.61c.04-.14.11-.25.21-.31.08-.05.16-.07.25-.06.07.12.17.23.23.33.17.28.47.39.84.11-.28-.02-.45-.14-.57-.31l.41.12c.12.03.21.11.26.22.05.11.06.23.02.37l-.17.61c-.04.14-.11.25-.21.31-.1.06-.21.08-.34.04ZM107.26,76.79c-.05,0-.12.02-.16,0-.03-.02-.03-.09-.04-.14.05-.02.1-.04.15-.06.02.07.04.14.06.2ZM172.85,95.39c.02.11.04.22.08.46-.15-.18-.26-.26-.3-.36-.04-.1-.05-.24-.02-.34.03-.12.19.02.24.25ZM.38,45.97c-.08.08-.15.17-.31.34.22-.07.35-.08.44-.15.09-.06.17-.17.2-.28.04-.12-.17-.08-.33.08ZM149.89,89.25s-.1.03-.15.05c0-.06-.02-.12-.03-.17.05-.02.11-.03.16-.04,0,.06.04.13.02.17ZM77.83,69.19c.22.33.23.33.55.35-.13-.22-.37-.24-.55-.35ZM53.13,60.34l-1.34,2.11,1.35.39v-2.5ZM77.74,69.08v-1.69s-1.34,2.11-1.34,2.11l1.35.39v-.77s0-.04,0-.04ZM22.26,51.5l-1.34,2.11,1.35.39v-2.5ZM53.39,63.11v.06s.06-.04.06-.04l-.06-.02ZM118.81,81.85l-.04.05-.02-.06h.07ZM109,79.22s.09-.01.14-.02c-.05,0-.09,0-.14.02ZM77.5,70.16s-.04.03-.06.05c-.01-.04-.03-.07-.04-.11.02,0,.05,0,.08,0,0,.02.03.05.02.07ZM172.15,96.93c-.01.15-.02.31-.02.46-.18-.14-.36-.28-.58-.46.24-.14.42-.07.61,0ZM172.88,98c-.56.08-.74-.06-.73-.56.33.08.48.38.73.56ZM147.62,90.99s.06-.06.09-.1c0-.02-.01-.05-.02-.07-.03.03-.06.06-.09.1,0,.03.02.05.03.07ZM95.66,76.32l-.82-.23c-.12-.04-.21-.11-.26-.22-.05-.11-.06-.23-.02-.37l.11-.39s.05-.04.07-.06c-.02-.01-.03-.02-.05-.03l.04-.14c.04-.14.11-.24.21-.3.1-.06.21-.07.34-.03l.82.23c.12.04.21.11.27.21.05.11.06.23.02.37l-.18.62c-.04.14-.11.25-.21.31-.1.06-.21.08-.34.04ZM.83,48.65c-.18-.09-.27.07-.29.34.27.15.5.29.72.41.2-.12.14-.25.06-.34-.15-.16-.31-.33-.5-.41ZM171.04,97.42c.2.02.2.2.06.44-.3-.01-.58-.02-.83-.03-.1-.2,0-.29.13-.32.21-.05.43-.11.64-.09ZM19.87,54.59s.04.04.05.07c-.05.02-.1.04-.15.06-.02-.03-.04-.05-.05-.07.05-.02.1-.05.15-.06ZM28.75,57.06s.02.05.04.07l.07.14s.02.05.04.07c.03-.01.06-.03.09-.04-.04-.09-.09-.19-.13-.29l-.1.05ZM127.61,80.69c-.02-.07-.04-.12-.06-.16-.02-.03-.06-.05-.11-.07-.05-.01-.09-.01-.14,0-.05.02-.09.05-.13.08l-1.41,1.52c-.05.05-.09.11-.13.19-.04.08-.08.16-.1.24s-.04.17-.05.26c0,.09,0,.17,0,.23l.4,2.03c.01.07.04.12.06.15.03.03.06.06.11.07.05.01.09.01.14,0,.05-.02.09-.05.13-.09l1.4-1.51s.09-.12.13-.2c.04-.08.08-.16.1-.25s.04-.17.05-.27c0-.09,0-.17-.01-.23l-.4-2.03ZM83.15,72.78c-.08.18-.21.05-.31.06-.11,0-.23-.01-.34-.02.23-.24.44-.21.65-.03ZM19.83,54.19c-.15.15-.28.31-.56.62.44-.2.68-.31.98-.44-.08-.1-.15-.18-.21-.26-.1.04-.17.04-.21.08ZM41.12,61.15s.02.06.02.09c.05-.02.1-.04.15-.07,0,0-.01-.06-.02-.09-.05.02-.1.04-.16.06ZM104.27,79.35s-.06-.08-.18-.23c.11-.01.19-.03.27-.02.04,0,.1.11.09.12-.05.06-.12.1-.18.14ZM105.54,80.06c-.52-.2-.52-.2-.21-.54.07.18.14.36.21.54ZM25.6,57.16s-.1-.12-.15-.19c.12-.07.23-.14.4-.25.03.16.08.28.06.3-.09.07-.2.12-.32.14ZM1.93,50.23s-.08.04-.12.06c.01.02.02.05.03.07.04-.02.08-.04.12-.07,0,0-.02-.05-.03-.07ZM109.84,81.23c0-.08.05-.15.08-.22,0,0,.05.01.1.02.01.08.04.16.04.25,0,.03-.09.09-.11.08-.05-.02-.11-.08-.11-.12ZM19.08,55.42s.06.02.08.04c-.03-.01-.05-.02-.08-.04ZM58.79,66.75s-.07,0-.08.02c-.01.01,0,.05.01.08.03,0,.06-.01.09-.02,0-.03-.01-.05-.02-.08ZM82.99,67.73l-.07.24c-.04.14-.11.24-.21.31-.1.06-.22.08-.34.04s-.21-.11-.26-.22c-.05-.11-.06-.23-.02-.37l.31-1.08,4.14,1.18-.31,1.08c-.04.14-.11.24-.21.31-.1.06-.22.08-.34.04s-.21-.11-.26-.22c-.05-.11-.06-.23-.02-.37l.07-.24-.81-.23-1.48,5.16c-.04.14-.11.24-.21.31-.1.06-.22.08-.34.04s-.21-.11-.26-.22c-.05-.11-.06-.23-.02-.37l1.48-5.16-.81-.23ZM132.2,83.67l.23,2.69,2.15-2.88.36-1.27c.04-.14.11-.24.21-.3.1-.07.22-.08.34-.05s.21.11.27.22c.05.11.06.23.02.37l-.41,1.43-2.86,3.74c-.09.13-.18.2-.26.24-.08.03-.17.03-.27,0s-.18-.08-.23-.16c-.05-.08-.08-.18-.09-.33l-.43-4.68.41-1.43c.04-.14.11-.25.21-.31.1-.06.21-.08.34-.04s.21.11.26.22c.06.11.06.23.02.37l-.36,1.27.02.29c-.17.09-.32.14-.38.23-.08.15.02.29.17.36.08.04.18.04.26,0ZM142.85,90.98l-3.2-.92c-.14-.04-.24-.11-.31-.21-.06-.1-.08-.22-.04-.34s.11-.21.22-.26c.11-.05.23-.06.37-.02l1.18.34,1.37-4.79-1.18-.34c-.14-.04-.25-.11-.31-.21-.06-.1-.08-.21-.04-.34s.11-.21.22-.26c.11-.05.23-.06.37-.02l2.02.58-1.61,5.63.81.23.06-.19.13-.08s-.04-.06-.06-.09c-.03.02.34-1.29.34-1.29.04-.14.11-.24.21-.3.1-.06.21-.07.34-.03s.21.11.27.21c.05.11.06.23.02.37l-.59,2.07c-.04.12-.11.21-.22.26-.11.05-.23.06-.37.02ZM69.96,70.09l-1.31-.37c-.14-.04-.24-.11-.31-.21-.06-.1-.08-.22-.04-.34s.11-.21.22-.26c.11-.05.23-.06.37-.02l.36.1,1.37-4.79-.36-.1c-.14-.04-.24-.11-.31-.21-.06-.1-.08-.22-.04-.34s.11-.21.22-.26c.08-.04.17-.05.26-.04.02.05.05.09.08.13.03-.03.06-.06.09-.09l1.42.41c.26.08.47.2.62.38.15.18.26.43.32.74l.22,1.14c-.11-.02-.21-.04-.31-.08-.2-.07-.39-.19-.55-.27-.03.02-.06.04-.08.06l-.14-.76c-.02-.09-.06-.17-.12-.24-.06-.07-.13-.12-.21-.14l-.28-.08-1.37,4.79.28.08c.08.02.17.02.25,0,.08-.02.16-.07.22-.14l1.36-1.49c.05-.05.09-.11.12-.17.03-.06.06-.13.08-.21s.03-.15.04-.22c0-.07,0-.14-.01-.2l-.11-.6c.26.08.51.18.78.22.06,0,.11,0,.15,0l.05.29c.02.11.03.24.02.36,0,.13-.03.26-.07.4s-.09.27-.15.38c-.06.11-.13.21-.21.3l-1.36,1.48c-.21.23-.43.39-.66.46-.23.07-.47.07-.74,0l-.06-.02c.09,0,.2,0,.38,0-.14-.16-.19-.24-.26-.28-.13-.06-.32.04-.3.14,0,.04.04.08.07.11ZM26.91,53.95l-.87,3.05c-.04.14-.11.24-.21.31-.1.06-.22.08-.34.04s-.21-.11-.26-.22c-.05-.11-.06-.23-.02-.37.03-.04.05-.05.08-.07.16-.09.33-.16.53-.25-.08-.12-.13-.26-.18-.26-.1,0-.2.03-.29.08l1.58-5.51,2.87.82c.34.1.61.31.79.63.18.32.22.65.12,1l-.12.43c-.1.35-.31.61-.63.79-.32.18-.65.22-1,.12l-.45-.13.82,3.32c.02.06.02.11.03.15,0,.04,0,.08-.01.11-.03.12-.1.2-.21.26-.1.06-.22.07-.33.04-.08-.02-.15-.07-.21-.13-.06-.06-.1-.14-.12-.22l-.95-3.81-.6-.17ZM46.15,56.77l-.36,1.27.3,3.58,2.15-2.88.36-1.27c.04-.14.11-.24.21-.3.1-.07.22-.08.34-.05s.21.11.27.22c.05.11.06.23.02.37l-.41,1.43-2.86,3.74c-.09.13-.18.2-.25.24-.08.03-.17.03-.27,0s-.18-.08-.23-.16c-.05-.08-.08-.18-.09-.33l-.43-4.68.41-1.43c.04-.14.11-.25.21-.31.1-.06.21-.08.34-.04s.21.11.26.22c.05.11.06.23.02.37ZM51.32,63.23l-.62.97c-.07.11-.15.18-.24.22-.09.04-.18.04-.29,0s-.19-.1-.25-.2c-.06-.1-.07-.21-.04-.31.01-.05.03-.09.04-.11,0-.02.02-.05.03-.07l3.13-4.97c.1-.16.19-.27.28-.31.09-.05.19-.06.31-.02s.19.09.24.18c.05.08.07.22.07.42l.03,5.88s0,.06,0,.09c0,.03,0,.06-.01.08-.03.11-.1.2-.21.26-.1.06-.21.07-.32.04-.1-.03-.18-.08-.23-.17-.06-.09-.09-.18-.09-.3v-1.15s-1.84-.52-1.84-.52ZM41.08,61.82l-3.2-.92c-.14-.04-.24-.11-.31-.21-.06-.1-.08-.22-.04-.34s.11-.21.22-.26c.11-.05.23-.06.37-.02l1.18.34,1.37-4.79-1.18-.34c-.14-.04-.24-.11-.31-.21-.06-.1-.08-.22-.04-.34s.11-.21.22-.26c.11-.05.23-.06.37-.02l3.2.92c.14.04.24.11.31.21.06.1.08.21.04.34s-.11.21-.22.26c-.11.06-.23.06-.37.02l-1.18-.34-.43,1.48c-.04.08-.05.12-.04.15l-.91,3.16,1.18.34c.14.04.24.11.31.21.06.1.08.22.04.34s-.11.21-.22.26c-.11.05-.23.06-.37.02ZM20.45,54.38l-.62.97c-.07.11-.15.18-.24.22-.09.04-.18.04-.29,0s-.19-.1-.25-.2c-.06-.1-.07-.21-.04-.31.01-.05.03-.09.04-.11,0-.02.02-.05.03-.07l3.13-4.97c.1-.16.19-.27.28-.31.09-.05.19-.06.31-.02s.19.09.24.18c.05.08.07.22.07.42v2.69s-.01.04-.02.05c0,.02.01.03.03.05v2.09s-.04-.04-.04-.04c0,.03,0,.05,0,.08.05,0,.05.95.05.95,0,.03,0,.06,0,.09,0,.03,0,.06-.01.08-.03.11-.1.2-.21.26-.1.06-.21.07-.32.04-.1-.03-.18-.08-.23-.17-.06-.09-.09-.18-.09-.3v-1.15s-1.84-.52-1.84-.52ZM33.08,55.72l-.87,3.05c-.04.14-.11.24-.21.31-.1.06-.22.08-.34.04s-.21-.11-.26-.22c-.05-.11-.06-.23-.02-.37l1.72-6,2.87.82c.34.1.61.31.79.63.18.32.22.65.12,1l-.12.43c-.1.35-.31.61-.63.79-.32.18-.65.22-1,.12l-.45-.13.82,3.32c.02.06.02.11.03.15,0,.04,0,.08-.01.11-.03.12-.1.2-.21.26-.1.06-.21.07-.33.04-.08-.02-.15-.07-.21-.13-.06-.06-.09-.14-.12-.22l-.95-3.81-.6-.17ZM105.81,80.37l-3.67-1.05.81-2.82c.07-.23.2-.41.41-.52.21-.12.43-.14.67-.08l2.46.7.57-1.98-2.83-.81c-.14-.04-.25-.11-.31-.21-.06-.1-.08-.21-.04-.34s.11-.21.22-.26c.02-.01.05-.02.08-.03.05.03.09,0,.13-.02.05,0,.11,0,.16.03l2.83.81c.23.07.4.2.52.41.12.21.14.43.08.67l-.57,1.98c-.07.23-.21.41-.42.52-.21.12-.43.14-.66.07l-2.46-.7-.57,1.98,2.83.81c.14.04.24.11.31.21.06.1.08.22.04.34s-.11.21-.22.26c-.11.05-.23.06-.37.02ZM75.92,70.28l-.62.97c-.07.11-.15.18-.24.22-.09.04-.18.04-.29,0s-.19-.1-.25-.2c-.06-.1-.07-.21-.04-.31.01-.05.03-.09.04-.11,0-.02.02-.05.03-.07l2.59-4.11c.17.17.39.17.59.07.27-.13.69-.18.68-.71-.41.1-.73.5-1.16.45l.43-.67c.1-.16.19-.27.28-.31.09-.05.19-.06.31-.02s.19.09.24.18c.05.08.07.22.07.42l.03,5.75c-.14.05-.26.16-.38.33.07.08.14.14.21.2-.02.01-.03.02-.05.03-.1.06-.21.07-.32.04-.1-.03-.18-.08-.23-.17-.06-.09-.09-.19-.09-.3v-1.15s-1.84-.52-1.84-.52ZM121.71,84.92l-1.11-.32-.76-5.59-1.29,4.5c-.04.14-.11.24-.21.31-.1.06-.22.08-.34.04s-.21-.11-.27-.22c-.05-.11-.06-.23-.02-.37l1.72-6,1.11.32.18,1.34s-.05-.02-.07-.02c-.1-.04-.19-.11-.44-.26.08.26.08.42.15.45.13.06.27.11.41.16l.54,3.94,1.29-4.52c.04-.14.11-.25.21-.31.1-.06.21-.08.34-.04.12.03.21.11.26.22.05.11.06.23.02.37l-.27.96c-.05-.09-.09-.16-.14-.17-.09-.02-.24.03-.3.1-.08.11-.03.26.11.29.07.02.16,0,.28-.04l-1.39,4.87ZM128.49,80.63l.38,1.96c.02.12.03.26.02.41,0,.15-.03.3-.08.45s-.1.3-.18.43c-.07.13-.15.25-.24.34l-1.36,1.46c-.21.22-.41.36-.6.42-.19.06-.4.06-.63,0s-.41-.18-.54-.33c-.12-.15-.22-.38-.28-.67l-.38-1.96c-.03-.13-.03-.27-.02-.42,0-.15.03-.3.08-.45s.1-.29.17-.43c.07-.13.15-.25.24-.34l1.36-1.46c.21-.22.4-.36.59-.42.19-.06.4-.06.63,0s.41.18.53.33c.13.15.22.38.28.67ZM147.81,86.31c-.06.1-.14.17-.23.22-.09.04-.19.05-.29.02-.12-.04-.21-.11-.27-.22-.05-.11-.06-.23-.02-.37l.07-.26c.04-.14.11-.25.21-.31.1-.06.21-.08.34-.04l3.72,1.06-.72,2.51c-.03.09-.06.15-.09.2-.04.04-.12.1-.23.15l-1.79.82-.53,1.86c-.04.14-.11.24-.21.31-.1.06-.22.08-.34.04s-.21-.11-.26-.22c-.05-.11-.06-.23-.02-.37l.58-2.02c.03-.09.06-.15.09-.2.04-.05.11-.1.23-.15l.83-.37s.04,0,.06,0c0-.02.9-.42.9-.42l.43-1.52s.05-.03.07-.04c.02-.02-.02-.09-.03-.18-.08.04-.15.07-.22.11.02.02.03.05.04.07l-2.31-.66ZM59.6,67.13l-3.67-1.05,1.72-6c.04-.14.11-.25.21-.31.1-.06.21-.08.34-.04.12.03.21.11.26.22.05.11.06.23.02.37l-.52,1.83s-.06.05-.09.07c.02.03.03.05.05.08l-.91,3.19,2.83.81c.14.04.24.11.31.21.06.1.08.22.04.34s-.11.21-.22.26c-.11.05-.23.06-.37.02ZM90.37,75.94l-3.67-1.05,1.85-6.47,3.67,1.05c.14.04.24.11.31.21.06.1.08.21.04.34s-.11.21-.22.26c-.11.05-.23.06-.37.02l-2.83-.81-.57,1.98,1.19.34c.14.04.24.11.3.21.06.1.08.22.04.34s-.11.21-.21.27c-.11.05-.23.06-.36.02l-1.19-.34-.57,1.98,1.04.3c.05.03.1.05.16.08,0-.04,1.63.43,1.63.43.14.04.24.11.31.21.06.1.08.22.04.34s-.11.21-.22.26c-.11.05-.23.06-.37.02ZM170.67,99.17l.04-.05v.06s-.04-.01-.04-.01ZM2.9,52.18l-.06-.02.04-.04.02.06ZM170.53,101.08l.02-.07.05.05-.07.02ZM3.41,53.29s.08-.06.12-.08c-.05-.02-.09-.05-.14-.05-.02,0-.04.07-.06.11.03,0,.06.03.08.02ZM1.9,51.67c-.33.21-.64.41-.95.62q.19.19.47.15c.14.19.28.37.42.56q.59.09.96-.22c-.27-.37-.45-.81-.9-1.1ZM42.28,64.54s-.08-.06-.12-.08c-.02.04-.05.08-.06.12,0,0,.05.05.06.04.04-.02.08-.06.12-.09ZM1.81,53.03l-.05.06c.13.09.08-.01.07-.08l-.03.03ZM167.89,100.58c-.05.05-.14.12.03.14,0-.04-.02-.11-.02-.11,0-.04,0-.03,0-.03ZM25.42,59.69s-.07.08-.1.13c.07.04.13.09.21.12.02,0,.06-.08.12-.16-.08-.03-.15-.08-.22-.09ZM144.35,93.76s.01.11.02.16c-.08,0-.16,0-.24-.01-.02,0,0-.1-.02-.19.08.01.17,0,.24.04ZM28.22,60.6s-.07-.06-.11-.09c-.02.04-.05.08-.07.13,0,.01.05.06.05.05.04-.02.08-.06.12-.09ZM141.49,93.06s.09-.02.14-.02c0,.05,0,.1-.01.14,0,.01-.07.02-.07.02-.02-.04-.04-.09-.06-.14ZM39.87,64.2c.14.03.28.04.43.05.02,0,.05-.04.07-.05-.04-.04-.08-.09-.13-.12-.13-.06-.25-.21-.39-.04-.02.03,0,.16.03.16ZM2.35,53.63c.02-.07.06-.09.07-.07.02.01.01.05.02.08-.03,0-.06,0-.09.01v-.02ZM58.34,69.67s-.04-.03-.06-.04c0,.03.01.06.02.09.01-.02.03-.04.04-.05ZM55.49,68.92c.04-.11.07-.22.12-.32.01-.02.1,0,.15,0,.01,0,.03.06.01.08-.06.09-.14.18-.21.28-.03-.02-.06-.03-.08-.04ZM33.71,62.74s-.06.04-.07.06c.08.03.1,0,.13-.04-.02,0-.03-.01-.05-.02h0ZM20.3,59.09l-2.06-.59c-.44-.17-.35-.95.24-.85l6.04,1.73c-.13.07-.25.15-.38.22.18.1.36.22.56.28.09.03.26-.05.32-.13.04-.05.06-.13.06-.21l34.5,9.88s.05.02.08.03c.37.24.21.91-.32.81l-22.92-6.57s.03-.05.05-.08c0,0-.04-.03-.06-.05-.03.03-.06.06-.09.09l-15.94-4.57c.2-.24.31-.33.31-.42,0-.14-.08-.28-.16-.4-.03-.04-.18-.04-.24,0-.16.1-.15.25-.08.42.03.08.05.17.1.39ZM148.95,95.96l-12.56-3.6c-.44-.18-.35-.95.24-.85l8.09,2.32c-.04.06-.07.15-.06.21,0,.1.11.26.2.28.2.05.42.04.63.06-.07-.13-.14-.26-.21-.39l7.03,2.01s.05.02.08.03c-.04.04-.08.1-.13.18.09-.04.18-.03.26-.05.18.29,0,.76-.46.68l-3.05-.87c.17-.16.22-.23.29-.28.14-.1.24-.22.15-.39-.03-.06-.16-.15-.2-.13-.13.06-.28.14-.35.26-.05.08,0,.21.04.52ZM169.08,101.38c.07.08.11.18.17.28-.1.04-.18.08-.19.07-.07-.09-.12-.19-.18-.28.07-.03.18-.09.2-.07ZM83.48,77.31l-.04-.04v.05s.04-.01.04-.01ZM102.26,82.68s-.04.02-.07.03c.02.03.05.09.05.09.04.02.06,0,.08,0-.02-.04-.04-.08-.07-.11h0ZM80.61,76.93l-.03-.04h.06s-.03.04-.03.04ZM104.75,84.08c.09-.16.14-.26.2-.36.03.13.08.27-.2.36ZM93.2,81l-.07.03.02-.07.05.05ZM75.56,75.95l.05.06.02-.07h-.07ZM119.73,89.02l-.03.06-.04-.06h.06ZM48.81,68.7v.07s.05-.03.05-.03l-.05-.04ZM86.54,78.63l-.27.95c-.29-.11-.55-.21-.82-.3l.5-1.74,3.67,1.05c.14.04.24.11.31.21.06.1.08.22.04.34s-.11.21-.22.26c-.11.05-.23.06-.37.02l-.97-.28.05-.02-.05-.03v.05s-1.86-.53-1.86-.53ZM42.06,67.01s0-.06,0-.08c-.01-.02-.05-.01-.08-.02,0,.04,0,.09,0,.13.03-.01.05-.02.07-.03ZM44.7,67.87s.02-.05.04-.07c-.02.02-.03.04-.04.07ZM104.7,84.95s.03.04.05.06c-.05.01-.11.03-.16.03-.01,0-.03-.04-.04-.07.06-.01.11-.03.16-.03ZM3.34,56.13c0-.06-.02-.13,0-.17.03-.03.11-.03.16-.04.02.05.04.11.06.16l-.23.04ZM48.04,68.94h.07s-.05-.07-.05-.07l-.02.07ZM120.25,89.63l-.05-.05.07-.02-.02.07ZM166.86,102.19s-.03-.02-.05-.03c-.05-.02-.07-.19-.03-.25.03-.07.16-.13.23-.12.4.08.79.2,1.12.48,0,.36-.05.67-.41.97-.2-.42-.42-.76-.77-1-.03,0-.05-.02-.08-.03,0,0-.01-.01-.01-.03ZM107.79,86.09l2.46.7.36-1.27-2.46-.7-.36,1.27ZM22.68,62.01l-.05-.02.05-.04v.07ZM145.44,97.18h.06s-.02-.05-.02-.05l-.04.05ZM140.64,95.87l-4.85-1.39c-.44-.17-.35-.95.24-.85l15.67,4.49s.05.02.08.03c.37.24.21.91-.32.81l-8.08-2.31s-.07-.1-.12-.14c-.21-.19-.34-.46-.68-.48.02.14.05.28.1.42l-.82-.23s.03-.08.04-.14c0-.02-.04-.06-.06-.07-.17-.03-.28.02-.36.1l-.76-.22c.02-.05.05-.11.04-.13-.04-.06-.12-.08-.19-.12,0,.06-.03.12,0,.16.01.03.04.05.07.07ZM24.72,62.65l-7.09-2.03c-.44-.17-.35-.95.24-.85l24.94,7.15s-.09.08-.1.12c0,.04.07.08.11.11.04-.04.11-.08.1-.12,0-.04-.06-.07-.1-.1l1.06.3s0,.04,0,.06c.13.39.47.46.82.49-.08-.14-.17-.26-.28-.39l1.1.32s-.07.06-.11.09c.07.05.12.11.19.14.02,0,.08-.06.12-.09-.03-.04-.07-.08-.1-.11l5.03,1.44c.38.46.39.46.77.58-.09-.18-.18-.33-.29-.44l7.8,2.24s.05.02.08.03c.37.24.21.91-.32.81l-22.65-6.49s0-.05.01-.08c-.02.02-.04.04-.07.06l-8.57-2.45s.07,0,.09-.02c.04-.02.06-.09.08-.14-.08,0-.16-.02-.23,0-.03,0-.03.08-.04.13l-.76-.22c-.03-.11-.1-.2-.25-.27-.02,0-.08,0-.09.03-.02.05-.03.09-.04.14l-.82-.23c.12-.09.22-.2.31-.3-.29-.16-.55,0-.83.05-.07.01-.12.03-.18.06ZM79.33,78.4s.08-.07.16-.14c-.07-.05-.13-.12-.2-.15-.02-.01-.08.07-.13.11.06.06.11.13.17.17ZM93.85,82.63l-.82-.23c-.12-.04-.21-.11-.26-.22-.05-.11-.06-.23-.02-.37l.17-.61c.04-.14.11-.25.21-.31.1-.06.21-.08.34-.04l.82.23c.12.03.21.11.26.22.05.11.06.23.02.37l-.06.2c-.15-.3-.3-.33-.58-.15-.07.04-.16.15-.15.21.02.11.08.25.17.31.14.1.28.11.45.05-.04.13-.11.23-.21.29-.1.06-.21.08-.34.04ZM1.97,56.37h-.08s.03-.06.03-.06l.05.06ZM166,103.37l.06.05v-.07s-.06.02-.06.02ZM165.16,103.48s-.04-.03-.06-.05c.02-.02.04-.06.06-.06.02,0,.04.03.06.05-.02.02-.04.06-.05.06ZM2.62,56.91s.05,0,.08,0c0-.03,0-.07-.02-.08-.02-.01-.05,0-.08,0,0,.03,0,.07.02.08ZM128.05,92.88s-.02-.05-.04-.07c0,.02.02.04.04.07ZM110.27,87.84l-.06.04v-.08s.06.04.06.04ZM126.57,92.95v-.07s-.07.05-.07.05l.07.03ZM165.89,104.03c.11.26.17.48-.16.52-.08.01-.26-.12-.27-.19-.02-.3.21-.31.42-.33ZM30.78,65.97s0-.07-.02-.09c-.01,0-.05,0-.07,0,.03.02.05.05.09.08ZM136.47,96.25s.04-.06.06-.06c.02,0,.04.03.06.04-.03,0-.07.01-.12.02ZM166.69,104.63l.07.02c-.05.1-.09.19-.14.29l.07-.31ZM33.44,66.83l.02-.06-.09.04.07.02ZM43.42,69.69l.03-.06h-.07s.04.06.04.06ZM148,99.43s-.09.08-.09.11c0,.04.06.08.1.14.05-.03.09-.06.14-.09l-.14-.17h0ZM19.29,62.55s-.13.04-.13.04c-.02,0-.03.01-.05.02.02.05.05.1.07.15.07-.02.14-.03.16-.06.02-.04-.01-.1-.02-.16h-.03ZM39.1,68.61c-.04-.07-.1-.13-.16-.19-.02.03-.03.05-.06.1.04.06.09.13.13.2.03-.04.09-.1.08-.12ZM34.92,67.32s.07.09.06.13c-.01.04-.07.06-.12.09-.02-.04-.07-.1-.06-.13.01-.04.08-.06.12-.09ZM49.1,71.69h.07s-.04-.05-.04-.05l-.03.05ZM164.05,104.13l.12.28c-.19.04-.38.08-.57.13.15-.14.3-.27.45-.41ZM58.03,74.07s-.06.06-.09.09c.09.06.18.13.27.19-.06-.09-.12-.19-.18-.28ZM92.35,84.08c.36.34.63.25.9.12.04-.02.07-.12.06-.16-.01-.05-.09-.13-.13-.12-.25.04-.49.1-.83.17ZM47.1,71.27s.08-.08.11-.12c.02-.02.03-.05.05-.07-.04.02-.1.02-.12.05-.02.04-.03.09-.04.14ZM44.95,70.2c-.11.05-.19.06-.21.1-.07.14.07.37.21.34.05,0,.12-.09.11-.12-.02-.11-.07-.21-.11-.32ZM150.84,101.08l-15.67-4.49c-.44-.18-.35-.95.24-.85l3.78,1.08c.12.21.26.43.47.79.12-.24.23-.41.3-.57l2.92.84c-.04.09-.09.17-.15.25-.09.11-.21.19-.32.29.24.17.44.04.63-.05.24-.11.29-.22.14-.4l7.9,2.26.05.02c.09.18.16.33.23.44-.02.23-.21.44-.52.39ZM36.66,68.37l-19.64-5.63c-.44-.17-.35-.95.24-.85l6.91,1.98c-.23.07-.24.19-.09.41.12.18.21.39.51.38-.04-.14-.1-.28-.11-.41-.01-.09,0-.19,0-.29l2.92.84c-.03.17-.03.37-.05.64.37-.19.6-.31.81-.42l17.37,4.98c0,.05,0,.1.01.16l.16-.02s-.1.03-.14.05c.23.19.46.39.69.59.25-.06.51-.13.77-.2,0-.04.03-.09.03-.13l1.53.44c.15.09.22.11.3.09l1.51.43c.3.11.47.19.64.19.03,0,7.31,2.09,7.31,2.09.03.01.05.02.08.03.31.2.25.7-.09.81l-.09-.09s-.03.07-.05.11c-.03,0-.06,0-.1,0l-.99-.28-3.71-1.06c.01-.13-.09-.24-.15-.34-.07.05-.16.1-.22.16-.02.02-.03.04-.04.06l-2.1-.6c-.06-.09-.16-.18-.24-.18-.05,0-.11.03-.16.07l-3.52-1.01s.06-.03.09-.04c-.04-.04-.07-.08-.12-.11-.05-.03-.12-.04-.17-.06-.01.05-.05.11-.04.14l-9.02-2.59s.06-.06.08-.09c.03-.07.01-.22-.04-.27-.21-.18-.44-.34-.7-.53-.13.13-.25.22-.34.35-.05.08-.07.16-.06.23ZM109.8,89.34l-.06.02.02-.06.05.04ZM67.77,77.31s.04-.02.06-.03c-.01.03-.03.07-.04.1,0-.02-.01-.05-.02-.07ZM128.51,95.03c-.13,0-.25.11-.38.18l.48.14c.12-.16.14-.31-.09-.32ZM82.31,82.18s-.05.01-.07,0c-.01-.01-.01-.04-.02-.07.02,0,.05,0,.07,0l.02.07ZM163.05,105.03l.27.06c-.02.34-.21.34-.37.23-.04-.03-.07-.07-.1-.11l.17-.15.03-.03ZM3.52,59.64c-.2,0-.36-.1-.2-.39.19.06.38.13.56.2-.12.08-.24.19-.37.19ZM92.86,85.4l-.63-.18c-.12-.04-.21-.11-.26-.22-.05-.11-.06-.23-.02-.37l.18-.62c.04-.14.11-.24.21-.3.1-.06.21-.07.34-.03l.82.23c.12.04.21.11.27.21.05.11.06.23.02.37l-.18.62c-.04.14-.11.25-.21.31-.03.02-.06.03-.09.04-.14-.1-.31-.18-.55-.22.04.07.08.12.12.17ZM114.65,91.64l-.77-.22s-.03-.08-.05-.12c-.1-.17-.16-.34-.11-.5.04,0,.09-.01.13-.02,0-.03,0-.05-.01-.08-.03,0-.06.01-.09.02.02-.04.05-.08.08-.12.04-.04.04-.13.03-.18-.02-.09-.06-.17-.1-.25-.01,0-.03.02-.04.02.04-.14.11-.23.21-.29.1-.06.21-.07.34-.03l.82.23c.12.04.21.11.27.21.05.11.06.23.02.36l-.18.62c-.04.14-.11.25-.21.31-.1.06-.21.08-.34.04ZM101.98,83.05l-1.02,3.56c-.21-.06-.41-.07-.43-.37,0-.11-.15-.21-.28-.3l.87-3.04c.09-.3.23-.51.44-.62.04-.02.08-.04.12-.06,0,.06.1.18.16.18.22.01.43.02.62-.13l2.14.61c.3.09.51.23.62.44.04.08.07.17.09.26-.11.04-.23.08-.34.12l.31.33s0,.04-.01.05l-1.32,4.62c-.02.06-.04.12-.06.17-.09-.02-.17-.05-.23-.1-.19-.16-.37-.25-.55-.28l.3-1.05c.14.13.27.25.43.4.02-.16.07-.27.03-.31-.11-.13-.2-.3-.4-.33l.28-.99s.09,0,.12,0c0-.08.04-.19,0-.25,0-.01-.03-.02-.05-.03l.62-2.18-2.46-.7ZM100.28,87.98s.07-.11.06-.13c-.03-.04-.09-.05-.14-.08l-.03.08s.08.08.12.12ZM2.97,58.22c.37.35.73.72.95,1.21.02.16.04.3.06.43-.46.09-.86.17-1.28.26-.32-.51.48-.83.32-1.33-.17-.16-.36-.29-.49-.46-.08-.11-.16-.29.11-.43.08.08.16.15.24.23.03-.11.05-.21.11-.29.13-.19.31-.17.47.07-.16.11-.32.22-.48.32ZM75.13,80.92s-.06.04-.08.03c-.04-.03-.07-.08-.11-.12.05-.02.1-.04.15-.06.01.05.03.1.03.16ZM87.76,84.63s-.03.04-.05.06c-.02-.02-.06-.04-.06-.06,0-.02.03-.04.05-.06.02.02.06.04.06.06ZM78.26,81.91s0,.05,0,.08c.03,0,.07,0,.08-.02.01-.02,0-.05-.01-.08-.03,0-.07,0-.08.02ZM165,106.81c-.08.04-.23-.04-.32-.05-.11-.33.21-.3.29-.46.08-.16.21-.3.36-.49.2.14.37.26.6.42-.36.23-.63.43-.92.59ZM49.1,73.8s.05-.02.07-.03c0-.03,0-.06-.01-.08-.01-.01-.05,0-.07-.01,0,.04,0,.08.01.12ZM75.2,81.29h.14s.02-.06.03-.08c-.05,0-.1,0-.14.01-.01,0-.02.05-.03.07ZM103.63,89.23s-.09.07-.14.1c-.04.02-.08.04-.13.05.09-.07.16-.15.23-.15.01,0,.03,0,.04,0ZM39.95,71.21c.06-.07.11-.12.15-.18,0,0-.07-.1-.1-.09-.05,0-.11.05-.13.1-.01.03.04.09.08.18ZM125.91,95.85c-.02-.09-.03-.16-.03-.23,0-.01.11-.05.13-.03.04.03.07.1.06.15,0,.04-.08.06-.16.11ZM109.06,87.37l-1.43-.41c-.3-.08-.5-.23-.62-.44-.11-.21-.13-.46-.04-.76l.31-1.08c.09-.3.23-.51.44-.62.21-.12.46-.13.76-.05l2.28.65c.15.04.27.1.38.17.11.08.19.17.24.27.11.21.13.46.04.76l-1.2,4.18c-.35-.09-.47.18-.62.4-.03.05.01.19.07.24.05.05.21.07.25.03.06-.06.11-.12.17-.18l-.12.4c-.04.14-.11.24-.21.3-.08.05-.18.07-.27.05,0-.04.02-.09,0-.12-.04-.07-.11-.12-.17-.19-.05.06-.11.12-.14.19,0,.04-.13,0-.13,0-.14-.04-.24-.11-.31-.21-.06-.1-.08-.22-.04-.34.03-.11.1-.19.19-.25.1-.06.21-.07.35-.06l.77-2.67-.41-.12.25-.12c-.22-.15-.36-.24-.48-.32-.19.06-.26.16-.3.29ZM84.7,84.19l-.6-.17.53-1.84s.08-.03.12-.06l-.09-.07.19-.67c.1.07.18.15.25.25-.03-.19-.09-.34-.19-.48l.39-1.35c.3.2.51.47.68.79.03.05.04.08.06.12.03.07.16.08.25.13.04-.03.07-.07.1-.11l.78.22c.14.04.24.11.3.21.06.1.08.22.04.34s-.11.21-.21.27c-.11.05-.23.06-.36.02l-1.19-.34-.57,1.98,2.83.81c.14.04.24.11.31.21.06.1.08.22.04.34s-.11.21-.22.26c-.11.05-.23.06-.37.02l-2.82-.81c-.03-.07-.09-.13-.19-.15-.02,0-.05.02-.08.04l.02.04ZM100.61,87.85l2.23.64c-.19.02-.39.1-.6.21-.17.09-.4.06-.61.09.01.11.05.21.09.28l-1.27-.36c-.3-.09-.51-.23-.62-.44-.11-.21-.13-.46-.04-.76l.21-.74.31.36.59-.32-.3,1.03ZM79.7,79.18l-.81,2.84c-.04.14-.11.24-.21.31-.1.06-.22.08-.34.04s-.21-.11-.26-.22c-.05-.11-.06-.23-.02-.37l1.72-6,1.04.3.61,1.75,1.45-1.16,1.04.3-.97,3.39c-.31.04-.61.14-.84.42.24-.09.5-.08.75-.12l-.19.67-.51.05c.12.18.19.28.24.38.04.07.05.16.08.23l-.28.98c-.04.14-.11.24-.21.31-.1.06-.22.08-.34.04s-.21-.11-.26-.22c-.05-.11-.06-.23-.02-.37l1.01-3.52c.22-.07.45-.11.7-.1.08,0,.23-.16.23-.24,0-.1-.12-.25-.22-.27-.16-.04-.33-.08-.5-.12l.16-.57-.62.48c-.1-.02-.21-.04-.32-.06-.03.16-.09.3-.15.43l-.05.04-.05.18c-.04.14-.11.24-.21.31-.1.06-.22.08-.34.04s-.21-.11-.26-.22c-.05-.11-.06-.23-.02-.37l.05-.18-.49-1.35-.37,1.28c-.29.07-.58.14-.93.22l.73.47ZM119.79,91.97l-.93-.27.21-.73c.06,0,.13,0,.21-.01-.03-.11-.07-.19-.14-.25l.83-2.9c.04-.14.11-.25.21-.31.1-.06.21-.08.34-.04.12.03.21.11.26.22.05.11.06.23.02.37l-.88,3.06.61.17c-.08.04-.15.07-.23.11-.04.02-.05.1-.07.15.19.2.38.4.55.58.31-.04.6-.09.9-.13-.03-.04-.06-.08-.1-.12l.12.11c.12-.14.22-.3.1-.48-.05-.08-.11-.14-.18-.19l.6-2.09c.04-.14.11-.25.21-.31.1-.06.21-.08.34-.04.12.03.21.11.26.22.05.11.06.24.02.38l-.12.41c-.06.01-.12.03-.18.05.02.05.03.13.05.14.02,0,.05,0,.07,0l-.5,1.75c.12.04.21.12.26.22.06.1.07.21.04.32s-.1.19-.2.25c-.07.04-.15.06-.23.06.03-.03.05-.08.06-.12,0-.05-.06-.1-.13-.2-.09.07-.19.13-.26.21-.02.03,0,.13.03.16.04.04.1.04.16.03l-.44,1.55c-.04.14-.11.24-.21.31-.1.06-.22.08-.34.04s-.21-.11-.26-.22c-.05-.11-.06-.23-.02-.37l.47-1.64-1.47-.42c0-.06-.04-.1-.07-.13,0,.03,0,.06,0,.09,0,0,0,.02,0,.03ZM110.08,79.32l-.93-.27.21-.73c.06,0,.13,0,.21-.01-.03-.11-.07-.19-.14-.25l.83-2.9c.04-.14.11-.25.21-.31.1-.06.21-.08.34-.04.12.03.21.11.26.22.05.11.06.23.02.37l-.88,3.06.61.17c-.08.04-.15.07-.23.11-.04.02-.05.1-.07.15.19.2.38.4.55.58.31-.04.6-.09.9-.13-.03-.04-.06-.08-.1-.12l.12.11c.12-.14.22-.3.1-.48-.05-.08-.11-.14-.18-.19l.6-2.09c.04-.14.11-.25.21-.31.1-.06.21-.08.34-.04.12.03.21.11.26.22.05.11.06.24.02.38l-.12.41c-.06.01-.12.03-.18.05.02.05.03.13.05.14.02,0,.05,0,.07,0l-.5,1.75c.12.04.21.12.26.22.06.1.07.21.04.32s-.1.19-.2.25c-.07.04-.15.06-.23.06.03-.03.05-.08.06-.12,0-.05-.06-.1-.13-.2-.09.07-.19.13-.26.21-.02.03,0,.13.03.16.04.04.1.04.16.03l-.44,1.55c-.04.14-.11.24-.21.31-.1.06-.22.08-.34.04s-.21-.11-.26-.22c-.05-.11-.06-.23-.02-.37l.47-1.64-1.47-.42c0-.06-.04-.1-.07-.13,0,.03,0,.06,0,.09,0,0,0,.02,0,.03ZM127.52,96.47l-1.86-.53c-.08-.02-.15-.05-.23-.09-.08-.04-.15-.09-.22-.14l-.53-.42c-.07-.13-.15-.31-.22-.31-.04-.07-.03-.15-.01-.23.03-.11.1-.2.2-.26.1-.06.21-.07.33-.03.03,0,.06.02.09.04.03.02.06.04.1.07l.58.45s.05.04.07.06c.02.01.04.02.07.03l1.87.54.08-.28c.06,0,.11-.04.21-.12l-.17-.03.3-1.04.06-.03c0-.06,0-.09,0-.12-.02,0,.08-.36.08-.36l-2.47-.71.5-1.76s.02.03.04.05c.02-.03.05-.07.07-.1-.03,0-.05-.03-.07-.02-.02.02.5-1.81.5-1.81l2.84.81c.14.04.24.11.31.21.06.1.08.22.04.34s-.11.21-.22.26c-.11.05-.23.06-.37.02l-2-.57-.57,1.97.91.26c.01.06.06.1.09.15.03-.03.05-.07.07-.1l.56.16c.23.06.4.2.52.42.12.21.15.43.08.66l-.57,1.98c-.06.22-.19.39-.39.51-.02-.01-.05-.03-.08-.05,0,.03,0,.06,0,.09-.19.09-.39.1-.6.04ZM75.41,81.53l-3.03-.87c.08-.05.09-.2.13-.29-.22-.15-.41-.28-.61-.41.04-.07.1-.13.18-.16.11-.05.23-.06.37-.02l1.18.34.36-1.26c.14.14.33.22.66.15-.22-.21-.39-.38-.55-.53l.9-3.16-1.18-.34c-.14-.04-.24-.11-.31-.21-.06-.1-.08-.22-.04-.34s.11-.21.22-.26c.11-.05.23-.06.37-.02l3.2.92c.14.04.24.11.31.21.06.1.08.22.04.34s-.11.21-.22.26c-.11.05-.23.06-.37.02l-1.18-.34-1.37,4.79,1.18.34c.14.04.24.11.31.21.04.07.06.15.06.23,0,.06-.01.08-.02.11-.04.12-.11.21-.22.26-.11.05-.23.06-.37.02ZM68.02,73.32l-.07.24c-.04.14-.11.24-.21.31-.1.06-.21.08-.34.04s-.21-.11-.26-.22c-.05-.11-.06-.23-.02-.37l.24-.83s.09.06.14.08c.05.03.2-.02.23-.07.02-.04.03-.11.02-.16l3.82,1.09-.31,1.08c-.04.14-.11.24-.21.31-.1.06-.22.08-.34.04s-.21-.11-.26-.22c-.05-.11-.06-.23-.02-.37l.07-.24-.81-.23-1.48,5.16c-.04.14-.11.24-.21.31-.1.06-.21.08-.34.04s-.21-.11-.26-.22c-.05-.11-.06-.23-.02-.37l.07-.26c.17.1.46.08.49-.05.01-.04-.03-.12-.07-.15-.13-.09-.25-.07-.36,0l1.35-4.71-.81-.23ZM164.32,106.95s-.05.02-.08.03c.02.03.07.08.07.08.05-.07.04-.11.01-.11h0ZM37.35,70.64s.04.14.07.14c.08,0,.18-.01.24-.06.06-.05.09-.14.16-.25-.13,0-.22-.02-.28,0-.08.03-.14.11-.19.18ZM138.73,99.63c.1-.05.2-.1.34-.17.04.14.11.23.09.3-.05.15-.19.16-.31.09-.06-.04-.08-.15-.12-.22ZM27.08,67.63c-.06-.1-.12-.19-.2-.32-.11.1-.21.14-.23.21-.04.16.08.24.21.24.07,0,.15-.08.22-.12ZM50.95,74.65s-.05,0-.08,0c.01-.04.02-.09.03-.13.02.02.06.03.07.05,0,.02-.01.05-.02.08ZM35.77,70.17c.05.07.11.14.18.24.09-.04.21-.06.23-.11.02-.06-.06-.22-.09-.22-.11,0-.21.06-.32.09ZM16.43,64.76c.39.14.65.24.93.34-.13-.67-.25-.73-.93-.34ZM149.28,102.82c-.41-.09-.67-.14-.97-.2.46-.5.6-.48.97.2ZM56.51,76.25c-.07.03-.14.02-.22.03,0-.06,0-.12-.01-.18.03-.05.04-.13.09-.15.07-.04.16-.05.24-.07,0,.08.03.16.02.23-.01.05-.07.11-.12.13ZM18.48,65.45l-2.06-.59c-.44-.17-.35-.95.24-.85l5.16,1.48c.07.05.16.11.24.17,0-.03,0-.07,0-.1l20.91,5.99s3.29.94,3.29.94c-.13.08-.26.19-.37.35-.05.06-.07.19-.04.25.03.07.15.15.22.14.33-.04.66-.09.99-.17.09-.02.16-.15.26-.27l5.06,1.45c0,.09.03.19.06.31.07-.08.13-.16.2-.23l3.62,1.04s.15.1.22.09c.04-.01,1.28.34,1.28.34.03.01.05.02.08.03.37.24.21.91-.32.81l-1.74-.5c-.06-.06-.14-.14-.2-.13-.02,0-.04.03-.06.06l-.95-.27s.02-.06.03-.1c-.19-.11-.39-.22-.58-.33-.09.1-.11.18-.09.24l-6.18-1.77c.02-.08.01-.17-.02-.28-.08.07-.12.15-.14.23l-2.53-.72c0-.07-.03-.17-.05-.18-.08-.01-.19-.02-.25.03-.02.02-.04.03-.05.05l-1.5-.43s-.01-.05-.02-.07c-.03,0-.07.02-.1.02,0,.01-.91-.25-.91-.25.21-.03.33-.11.58-.27-.36-.25-.71-.5-1.08-.72-.07-.04-.22.07-.36.12.05.23.15.45.13.66l-4.24-1.21c-.21-.18-.42-.3-.78-.53,0,.12.02.23.04.32l-12.41-3.56c-.05-.02-.11-.05-.18-.09,0,.04-4.07-1.13-4.07-1.13.11-.18.02-.29-.17-.35-.18-.05-.38-.03-.56-.09-.16-.06-.31-.18-.45-.26-.12.12-.16.23-.13.32ZM141.62,100.73l-7.05-2.02c-.44-.18-.35-.95.24-.85l9.29,2.66s-.03.06-.05.09c.1-.01.2-.01.29-.02l6.15,1.76s.05.02.08.03c.37.24.21.91-.32.81l-3.05-.87c.07-.06.1-.17.06-.34-.17,0-.35.03-.52-.01-.18-.04-.34-.17-.52-.22-.19-.05-.33,0-.33.2l-4.07-1.17c-.06-.04-.12-.04-.18-.05ZM163.25,107.01s-.05.05-.05.05c-.04-.03-.08-.06-.11-.09.02-.02.04-.03.06-.05.04.03.07.06.11.09ZM161.67,107.39c.15-.05.27-.27.46-.07-.13.19-.28.22-.46.07ZM3.5,62.07c-.1-.12-.09-.37-.35-.31,0,.23.12.33.35.31ZM4.89,64.15c.15.16.11.33-.06.53-.07-.16-.14-.29-.19-.43-.01-.03.04-.12.08-.13.05-.02.13,0,.17.04ZM159.4,108.42c-.21.06-.27.22-.23.48.15-.1.28-.17.39-.27.03-.02.03-.12,0-.16-.03-.04-.11-.07-.16-.05ZM3.67,64.32c.03.06.06.12.07.19-.02-.06-.05-.13-.07-.19ZM159.74,109.7c-.08-.19-.2-.35-.17-.44.06-.17.19-.35.35-.43.33-.18.75-.02,1.09-.23.02,0,.2.17.22.27,0,.08-.1.23-.2.27-.11.05-.25,0-.38.01-.23.01-.43.07-.55.31-.04.09-.19.13-.36.25ZM15.87,70.36s-.06,0-.09,0c-.06,0-.12.02-.17.03.03-.02.05-.05.07-.09l.19.05ZM146.98,107.93s0,.08.01.12c-.03-.04-.08-.08-.13-.12-.02-.02-.05-.04-.07-.05l.18.05ZM81.29,89.25s-.04-.01-.06-.02l.03-.04c.09.03.09.08.09.08-.02,0-.04,0-.06-.01ZM7.53,68.02s-.06.08-.09.11c0,0-.06-.03-.06-.05,0-.05.01-.1.02-.15.05.03.09.05.14.08ZM155.11,110.3s0,.1.02.14c0,0,.07,0,.08,0,.03-.04.04-.09.06-.13-.05,0-.11,0-.16,0ZM52.36,80.82l-.56.03s-.07-.04-.08-.09c0-.04-.01-.09-.02-.13l.66.19ZM110.96,97.61s-.06.07-.09.1c-.04.04-.11.03-.11.03l-.46-.32.66.19ZM112.06,98.17s-.06,0-.07-.01c-.01-.03-.02-.06-.03-.09.03.03.07.07.1.1ZM50.47,80.53s.05.03.06.03c.03-.02.05-.04.08-.06-.05,0-.09.02-.14.03ZM92.71,92.68s.04.02.07.04c.02-.02.06-.04.06-.05-.02-.04-.05-.08-.07-.12-.02.04-.04.08-.06.13ZM69.79,86.12s-.05,0-.08,0c0-.02-.03-.07-.02-.07.04-.03.08-.04.12-.06,0,.05,0,.09-.02.14ZM154.96,110.49s-.1.07-.15.06c-.04,0-.07-.06-.11-.09.05-.02.1-.06.14-.06.04,0,.07.06.11.09ZM7.56,68.25s.05.11.09.13c.03.02.09-.01.14-.02-.03-.05-.05-.11-.09-.13-.03-.02-.09.01-.14.02ZM152.45,109.87s.04.06.05.06c.04-.02.08-.04.12-.07-.03-.04-.06-.08-.09-.12-.02.04-.06.08-.07.13ZM10.01,69.06s-.07.03-.07.03c-.03-.04-.05-.08-.07-.12.05-.02.1-.03.14-.05,0,.05,0,.1,0,.15ZM158.75,111.26s-.11.07-.13.12c-.06.22.06.39.3.41.04-.04.13-.1.15-.17.04-.2-.14-.4-.32-.36ZM26.98,74s-.06-.03-.07-.05c0-.02,0-.06.02-.08.03,0,.06,0,.09,0l-.03.14ZM135.44,105.08s.07,0,.09,0c.02-.01.02-.05.03-.08-.03-.02-.05-.03-.08-.05l-.04.13ZM42.74,78.4s-.03-.04-.05-.06c-.05.01-.1.03-.16.05.03.04.06.07.08.11.04-.03.08-.06.12-.09ZM119.75,100.47s.05-.02.07-.03c.04.04.07.08.11.12-.04.02-.09.03-.13.05-.02-.05-.04-.09-.05-.14ZM106.15,96.58s-.06,0-.08,0c-.04.02-.07.05-.11.08.04,0,.08.02.12.01.03,0,.05-.06.07-.1ZM56.32,82.31s.05.03.06.05c.02.04.04.08.05.13-.04-.01-.08-.03-.11-.05-.02-.02,0-.08,0-.12ZM86.49,91.24c.03-.09.05-.17.1-.24.04-.07.11-.13.17-.2.18.46.17.46-.27.44ZM75.83,88.19c.02-.09.04-.17.05-.25,0-.08-.03-.17-.04-.27-.39.3-.39.3,0,.52ZM105.84,96.68c-.26-.05-.36-.35-.59-.43-.04-.01-.13.02-.16.06-.03.04-.04.13-.01.17.2.29.48.28.76.2ZM56.54,82.56c.25.1.49-.11.73-.05.05.01.1.09.1.13,0,.05-.04.13-.08.15-.33.14-.55-.01-.75-.24ZM126.38,102.64c-.07-.44-.38-.6-.77-.68.15.59.37.78.77.68ZM35.95,76.73c.29-.34.64-.31,1.01-.17-.44.42-.73.47-1.01.17ZM153.15,110.29s.12-.04.14-.01c.03.03.04.09.05.14-.05,0-.12.04-.14.02-.04-.03-.04-.1-.05-.15ZM9.21,69.04s-.08-.09-.12-.09c-.04,0-.08.06-.12.1.04.03.08.09.11.09.04,0,.08-.06.12-.1ZM61.5,84.16h-.07s.03-.05.03-.05l.04.05ZM100.78,95.42l.05.05v-.07s-.05.02-.05.02ZM53.64,81.93l-.06.04v-.07s.06.03.06.03ZM108.63,97.69l.03.07.04-.06h-.07ZM82.59,90.18c.03.09.05.15.07.2.07-.04.15-.06.2-.12.02-.02-.04-.15-.05-.15-.07,0-.15.04-.22.06ZM79.7,89.36c-.07.06-.12.1-.16.13-.04-.07-.09-.13-.11-.2,0-.02.11-.11.12-.1.06.05.1.11.15.17ZM37.99,77.59c.22-.18.41-.32.59-.47-.01.57-.02.58-.59.47ZM124.21,102.29c-.1-.27-.18-.49-.25-.71-.29.49-.29.5.25.71ZM107.42,96.98c-.12-.08-.36.05-.35.19,0,.08.09.15.17.28.11-.09.22-.15.26-.24.03-.05-.03-.19-.09-.23ZM55.04,81.97c.14,0,.28.24.2.35-.05.06-.15.08-.29.15-.04-.14-.11-.24-.1-.34,0-.06.12-.15.2-.15ZM118.83,100.82c0-.23.15-.28.25-.23.18.09.33.24.48.37-.25-.05-.49-.09-.73-.14ZM43.33,79.18c.12-.19.02-.32-.09-.32-.2-.01-.4.03-.6.05.24.09.47.18.7.27ZM13.78,70.68s.04.06.06.06c.05-.01.1-.04.15-.06-.04-.04-.08-.08-.12-.12-.03.04-.06.08-.09.12ZM148.39,109.25s-.07.03-.08.02c-.04-.04-.06-.09-.09-.13.06-.01.11-.02.17-.04,0,.05.01.1,0,.15ZM142.25,107.42c-.14.03-.29.14-.37-.08,0-.02.02-.07.04-.08.17-.09.28-.04.33.16ZM19.96,72.38c.1.1.17.28.36.13.02-.01.02-.06,0-.09-.1-.17-.22-.18-.36-.04ZM152.44,110.47s-.03-.04-.04-.06c.02-.02.04-.04.05-.07l.08.1s-.06.03-.08.03h0ZM9.7,69.57s.05-.02.07-.03c0-.03,0-.06,0-.09l-.12.05s.03.06.05.07h0ZM121.12,101.45s0-.05-.01-.07c-.01-.01-.04,0-.07-.01,0,.04.01.07.02.11.02-.01.04-.02.06-.03ZM41.05,78.51s.03-.05.05-.05c.02,0,.04.02.06.02-.03.03-.05.06-.08.09-.01-.02-.02-.04-.04-.06ZM156.75,110.91c.66.28,1.13.48,1.62.68-.1.13-.19.25-.32.41-.25-.04-.52-.07-.74-.1-.16-.29-.3-.53-.57-.99ZM90.33,92.71s.05,0,.07-.01c-.02,0-.04,0-.07.01ZM71.79,87.4s-.04-.03-.05-.05c.02.01.03.03.05.05ZM85.85,91.51s-.05-.05-.07-.04c-.02,0-.03.04-.05.06.02.02.05.05.07.04.02,0,.03-.04.05-.06ZM76.23,88.76s.06-.02.08,0c.02.01,0,.05,0,.08-.03,0-.06.02-.08,0-.02-.01,0-.05,0-.08ZM65.75,85.24c-.28-.16-.47-.03-.66.26.36.52.81.61,1.39.42-.07-.13-.1-.27-.18-.33-.17-.13-.37-.24-.56-.34ZM96.61,94.08c.33.01.42.22.42.57-.59.25-1.01.09-1.4-.39.13-.08.22-.18.32-.19.22-.02.44,0,.66,0ZM128.92,103.08c.12.19.32.17.51.07.02.02.04.04.06.07-.02-.02-.05-.03-.07-.05-.07.1-.15.29-.22.28-.42-.01-.79.15-1.16.31-.1.04-.24-.01-.39-.03l.21-.73c.14-.03.32-.07.5-.13.24-.07.42-.03.57.2ZM33.57,75.76c-.2.09-.36-.02-.47-.21-.03,0-.06.02-.08.03.03,0,.06,0,.09,0,.01.12-.03.32.04.36.37.21.59.55.82.88.06.09.21.11.34.18l.21-.73c-.1-.1-.24-.23-.36-.37-.17-.19-.34-.25-.59-.13ZM68.67,86.82c.09-.26.19-.52-.02-.84-.3,0-.63,0-1.1,0,.48.26.55.85,1.12.84ZM93.29,93.87c.06-.27.12-.54.46-.7.25.16.53.33.93.59-.54-.03-.91.43-1.39.12ZM139.65,107.28s.01-.06.03-.07c.02,0,.05.01.07.02,0,.02-.01.06-.03.07-.02,0-.05-.01-.07-.02ZM22.25,73.64s.02-.06.01-.07c-.01-.02-.05-.01-.07-.02,0,.02-.02.06-.01.07.02.02.05.01.08.02ZM66.78,85.95q-.16.44-.79.24c.25-.07.49-.15.79-.24ZM95.35,94.14q-.1.46.54.62c-.17-.19-.34-.39-.54-.62ZM97.7,95.22s0,.05.01.07c.02-.03.04-.06.07-.09-.03,0-.05.01-.08.02ZM64.21,85.62s-.03.04-.05.05c0-.04,0-.07,0-.11.02.02.04.04.06.06ZM8.92,69.67c.02.11.02.2.04.21.08.02.17.02.25,0,.02,0,.03-.14.03-.14-.1-.03-.2-.04-.32-.06ZM153.05,110.97c-.08.09-.13.16-.14.15-.08-.03-.15-.07-.21-.13-.01-.01.05-.14.05-.14.1.03.19.07.3.11ZM39.34,78.49c-.07.01-.15.03-.22.05-.01-.08-.03-.16-.03-.24,0-.02.1-.02.19-.04.02.08.04.16.06.24ZM122.71,102.21s-.09.09-.13.13c.01.01.03.03.04.04l.08.08s.03.03.04.04c.05-.06.11-.12.15-.19,0-.01-.07-.07-.14-.13l-.04.04ZM92.22,93.65c-.33-.34-.71-.31-1.12-.23-.08.02-.16,0-.26,0,.02-.34.19-.5.49-.5.35,0,.69.02,1.12.04.25.27.53.59.81.9-.39.12-.75.09-1.04-.22ZM69.7,87.2c.46-.12.77.12,1.07.4.06.06.14.09.22.14.16-.3.11-.52-.15-.68-.3-.18-.6-.35-.97-.56-.35.1-.76.22-1.17.33.27.3.59.48,1,.37ZM137.28,106.43s.03-.07.05-.08c.06-.01.16-.04.17-.02.17.3.42.33.72.25.05-.01.13,0,.18.03.05.03.12.09.11.13,0,.08-.04.2-.1.23-.4.16-1.03-.15-1.13-.54ZM24.7,74.17s.01-.07,0-.09c-.04-.04-.11-.11-.13-.1-.3.16-.53.06-.75-.17-.04-.04-.11-.07-.17-.07-.06,0-.15.01-.17.05-.04.07-.07.2-.04.25.25.35.95.42,1.25.14ZM47.35,81.05s-.04-.06-.08-.1c.05.01.08.01.09.03,0,0,0,.04-.01.07ZM114.43,100.27s.07-.02.12-.04c-.05-.01-.07-.03-.09-.02-.01,0-.02.04-.02.07ZM19.37,73s-.05-.08-.09-.11c0,0-.05.02-.08.03.03.04.06.08.09.11.03-.01.05-.02.08-.03ZM142.42,108.26s.09-.04.14-.05c.01,0,.03.04.05.07-.05.02-.09.03-.13.05-.02-.02-.03-.04-.05-.07ZM72.72,87.94c.11.14.18.31.29.51.19-.32.64-.25.85-.66-.27-.08-.5-.12-.71-.23-.23-.12-.46-.2-.71-.2-.11.32.14.41.27.57ZM89.26,92.68c-.17.06-.31.17-.51.28,0-.37-.42-.55-.38-1.01.27.07.49.16.72.18.26.02.49.07.71.21-.08.33-.34.27-.54.34ZM45.79,80.5s-.05-.07-.05-.07c-.05.03-.09.06-.14.09.04.04.08.08.12.12.03-.05.06-.1.08-.15ZM116.04,100.63s.08-.03.08-.03c.03.05.05.1.07.15-.05.01-.11.03-.16.04,0-.06,0-.11.01-.17ZM78.06,89.94c.04.05.26-.03.4-.05-.28-.35-.62-.44-.72-.85-.04-.18-.36-.3-.54-.43-.35.21-.35.49-.3.8.43.08.86.15,1.15.54ZM83.67,91.55c-.06.02-.21-.17-.32-.26.43-.15.76-.04,1.06-.34.13-.13.46-.06.68-.08.18.37.04.6-.17.84-.41-.16-.81-.32-1.26-.15ZM25.93,74.65c.02.2-.04.28-.16.3-.22.04-.35-.09-.4-.38.07-.05.14-.11.23-.19l-.36-.28c.24-.17.24-.19.83-.12.25.24.49.47.78.75-.07.12-.15.24-.25.42l-.66-.51ZM136.41,106.14c.04.11.07.2.1.28-.19.21-.37.25-.54.1-.09-.09-.1-.18.02-.34l-.83.08c0-.2,0-.35,0-.49.39-.08.73-.15,1.06-.22.54.25.53.27.64.54l-.46.05ZM134.86,105.27c.08-.04.16-.11.23-.1.07,0,.13.1.2.15-.1.06-.19.11-.29.17-.06.21-.11.43-.19.63-.01.03-.14.02-.31.04.21-.28.36-.47.51-.67-.05-.07-.09-.15-.14-.22ZM27.38,74.47c-.05-.07-.08-.18-.14-.21-.07-.03-.17.01-.25.02.05.1.1.2.16.3-.06.21-.13.42-.17.64,0,.03.11.09.25.2-.03-.34-.05-.59-.07-.84.08-.04.16-.07.23-.11ZM111.29,99.32c-.05.06-.11.11-.17.16-.03-.04-.1-.09-.09-.12.03-.07.09-.12.14-.18.06.07.12.14.12.14ZM50.52,81.91c.01.08.04.15.06.22.05-.02.13-.03.14-.05,0-.07-.01-.15-.02-.23-.08.03-.17.05-.17.06ZM58.21,84.18s-.04-.15-.07-.15c-.1-.01-.21,0-.32.01-.02,0-.04.04-.1.13.09.05.14.1.19.11.11.02.25.07.29-.1ZM103.56,97.18s.11-.11.13-.09c.1.04.18.11.26.18.01.01,0,.06.01.16-.11,0-.17.01-.22,0-.11-.04-.25-.07-.19-.24ZM46.38,80.64c-.01.15-.03.32.16.38.04.01.12-.04.15-.08.12-.19.05-.35-.1-.49-.02-.02-.05-.02-.14-.06-.03.12-.06.18-.07.24ZM115.47,100.44c-.07.14-.15.29-.34.24-.04,0-.08-.09-.08-.14,0-.23.14-.32.34-.36.03,0,.06,0,.15.02-.03.12-.04.18-.07.24ZM37,78.22s-.06-.04-.08-.04c-.08.02-.15.04-.23.06.07.03.14.05.21.07.03,0,.06-.06.09-.09ZM124.71,103.36s.07,0,.09.01c.06.05.11.11.16.17-.07-.02-.15-.03-.22-.06-.02,0-.02-.08-.03-.13ZM157.43,111.92c-.19.17-.35.28-.47.42-.07.08-.11.26-.07.34.04.07.21.1.32.1.09,0,.18-.06.26-.11.32-.19.33-.27-.05-.74ZM122.36,102.6c-.05.06-.09.17-.14.17-.08,0-.15-.07-.24-.11.06-.06.1-.14.13-.14.08,0,.17.05.25.08ZM39.39,78.83c0,.08-.01.19.03.22.06.04.17.02.26.03-.01-.08,0-.17-.04-.19-.08-.04-.17-.05-.25-.06ZM109.09,99.03s-.04-.02-.07-.02c0,.02.04.02.07.02ZM52.54,82.82s.05,0,.07.02c-.01.01-.04,0-.07-.02ZM48.85,81.75c-.43.07-.63-.09-.96-.41.5-.1.68.11.96.41ZM112.79,100.07c.33.28.58.25,1.03.16-.37-.35-.63-.26-1.03-.16ZM65,86.51s-.04-.07-.06-.08c-.02,0-.04.02-.07.04.04.01.07.03.12.04ZM96.56,95.55s.07-.04.09-.04c.02,0,.02.04.04.06-.04,0-.07-.02-.13-.03ZM56.41,84.05c.2-.05.4-.09.59-.14-.01-.39-.32-.33-.49-.53-.06.16-.1.23-.11.31,0,.12,0,.24.01.36ZM105.16,98.02c-.14-.15-.29-.29-.43-.43.22-.33.44-.11.7-.19-.04.16-.04.25-.07.32-.06.1-.13.2-.2.3ZM36.59,78.27c-.06.01-.11.02-.17.03.02.02.06.05.07.05.03-.02.06-.05.09-.08ZM125.03,103.61s.08.08.12.12c-.03,0-.08.01-.08,0-.02-.04-.03-.08-.04-.12ZM28.46,74.88c-.07.43-.27.81-.52,1.16-.31-.39-.31-.39-.28-.94.28,0,.59.04.8-.22ZM133.72,105.04c-.17.4-.2.83-.18,1.26q.47-.17.74-.65c-.23-.15-.53-.28-.56-.61ZM140.49,108.29c.04-.17.08-.34.12-.51-.03,0-.06,0-.08,0-.01.17-.02.35-.03.52ZM20.99,74.05c.06-.17.11-.33.17-.49.03.01.05.02.08.04-.08.15-.17.3-.25.46ZM156.15,112.08c-.05-.11-.22-.17-.41-.3-.08.27-.16.44-.17.62,0,.09.12.27.19.27.14,0,.34-.05.4-.15.07-.11.05-.32,0-.44ZM41.93,79.5c.21.28.46.52.67.76.27-.04.26-.2.25-.36-.15-.31-.34-.61-.27-.99-.18-.03-.37-.06-.54-.09-.27.2-.27.45-.1.67ZM119.85,101.83c-.32.13-.67.2-.97.29-.21-.18-.11-.31-.02-.44.29-.19.61-.34.75-.69.17.07.34.14.51.21.12.31,0,.52-.27.63ZM105.09,98.24c.02-.06.05-.12.07-.18.06.1.07.17-.07.18ZM56.35,84.28c.01-.06.02-.13.04-.19-.1.05-.15.11-.04.19ZM61.26,85.28c-.23-.06-.36.06-.39.36.24.04.43.07.61.1.05-.09-.1-.42-.22-.46ZM100.39,96.49c.23.07.27.24.14.51-.22-.09-.4-.17-.57-.24,0-.1.31-.31.43-.27ZM132.68,106.08s.02.07.01.08c-.03.04-.08.06-.12.09-.01-.05-.02-.09-.03-.14.04-.01.09-.02.14-.03ZM28.79,76.31s-.05.04-.05.06c0,.05.03.09.05.14.03-.03.07-.07.1-.1-.03-.03-.07-.07-.1-.1ZM147.19,110.44c.22-.15.42-.38.76-.27-.16.43-.47.33-.76.27ZM14.17,72.33c-.11-.25-.16-.55-.5-.63-.1.45.23.53.5.63ZM66.94,87.35s.04.08.06.12c-.03,0-.05,0-.08.01-.02-.04-.03-.08-.05-.13.03,0,.07-.02.08,0ZM94.48,95.24s-.08.05-.11.08c.02.02.04.04.06.05.04-.03.08-.05.11-.08-.02-.02-.05-.05-.06-.05ZM87.53,93.08s-.16.11-.16.15c.01.07.09.15.16.18.07.02.16-.03.32-.07-.15-.12-.22-.21-.32-.26ZM73.98,89.19s.08.18.05.21c-.04.05-.16.08-.23.06-.07-.02-.12-.11-.23-.23.19-.03.3-.06.41-.05ZM120.1,102.4s.17-.15.2-.13c.15.1.28.22.51.42-.25.06-.43.16-.51.1-.11-.07-.16-.25-.2-.4ZM41.41,79.85s-.07-.22-.1-.22c-.18,0-.35.04-.66.09.18.18.28.36.38.36.13,0,.27-.13.38-.23ZM122.93,103.34c.2-.06.26.07.3.24-.15.07-.3.12-.37-.08-.01-.04.03-.14.07-.15ZM38.51,79.15c-.13-.15-.26-.08-.38.04.09.14.19.26.36.12.03-.03.05-.14.02-.17ZM128.4,105.07s.1.02.14.04c.01,0,.01.07,0,.08-.04.02-.09.03-.14.04,0-.05,0-.1,0-.16ZM32.95,77.72s-.09-.03-.14-.04c-.01,0-.05.06-.04.07.03.04.06.07.1.11.03-.04.05-.09.08-.14ZM69.32,88.32s-.06-.05-.09-.08c.02-.01.04-.04.06-.04.02,0,.03.03.05.05l-.02.07ZM91.94,94.8s.08-.01.11-.02c0-.02-.01-.06-.03-.07-.02,0-.05,0-.07.01l-.02.07ZM23.01,75.01s.06.08.1.11c0,0,.04-.03.07-.05-.03-.04-.06-.08-.1-.11,0,0-.04.03-.07.05ZM138.28,108.04s-.09.04-.14.05c0,0-.02-.05-.03-.08.05-.02.09-.04.14-.05,0,0,.02.05.03.08ZM125.97,104.31c-.24-.37.02-.74-.05-1.13.23-.11.45-.22.71-.34.11.38-.18.68.02,1.03.14.24.05.61.07.95-.33-.07-.57-.24-.76-.52ZM35.42,78.37c.4-.19.38-.64.64-.93-.14-.22-.27-.42-.42-.67-.29.26-.21.68-.56.87-.24.13-.37.49-.56.77.32.12.61.1.92-.04ZM102.05,97.69c-.05-.05-.11-.09-.16-.14,0,.07.01.14.02.2.04-.02.09-.04.14-.06ZM59.22,85.42c.07-.01.14-.02.21-.04-.04.05-.08.11-.13.16-.03-.04-.05-.08-.08-.12ZM103.17,97.93c-.14-.12-.22-.22-.26-.21-.1.04-.17.13-.26.19.04.04.09.12.13.12.1,0,.21-.05.39-.1ZM58.14,85.03c.18-.02.31-.07.33-.04.06.08.08.2.12.3-.06.01-.14.06-.17.03-.08-.06-.15-.15-.28-.3ZM11.99,72s-.08.05-.13.08c-.02-.02-.04-.05-.06-.07.04-.03.09-.06.13-.08,0,0,.03.04.05.06ZM149.21,111.32s.04.09.06.14c.03,0,.05-.02.08-.03-.02-.05-.04-.09-.07-.14,0,0-.05.02-.07.03ZM13.71,72.59s-.03.04-.05.05c-.02,0-.04-.02-.05-.04.02-.02.03-.05.05-.05.02,0,.04.02.06.04ZM147.45,110.91s0,.05.02.06c.01,0,.04,0,.06,0,0-.02,0-.05-.01-.06-.01-.01-.04,0-.07,0ZM76.29,90.59l-.58-.17c.1,0,.21-.01.32-.01.1.08.18.13.26.18ZM85.41,93.2l-.58-.17c.09,0,.19,0,.28,0,.13.05.22.12.3.17ZM53.41,84.03l-1.01-.29c.18-.18.34-.39.53-.6-.13-.13-.22-.21-.3-.29.12-.62.24-1.24.37-1.86l.23.06.19.29c.02-.1,0-.18-.03-.25l2.2.63c.03.08.08.14.13.21.04-.04.09-.08.13-.12,0,0,1.95.55,1.95.55,0,.11.09.19.23.18.07,0,.13-.03.17-.07l.54.16c-.12.16-.17.37-.1.59.03.1.22.15.41.28.05-.27.08-.54.18-.72l1.74.5s.04.04.04.04c0-.03,6.07,1.71,6.07,1.71l.03.1c.05,0,.11-.02.16-.03,0-.02,3.98,1.13,3.98,1.13l-.26.13c.3.39.55.72.79,1.04.29-.24.24-.54.14-.84.06-.04.11-.07.15-.1l.15.04c0,.08.09.23.17.26.22.1.47.15.87.26-.02-.09-.04-.17-.06-.24l2.42.69c.46.2.85.57,1.44.53l.07-.09,8.38,2.4v.12c.49.35,1.02.24,1.51.32l2.42.69c-.06.05-.12.11-.18.17.4.11.64.21.88.24.08.01.24-.07.28-.13l.15.04s.05.1.08.16c-.25.2-.45.43-.33.78.38-.15.76-.29,1.22-.47l-.15-.25,3.99,1.14s.07.08.11.12l.08-.06,6.07,1.74s.05.03.05.03c-.01-.02,1.73.48,1.73.48,0,.21-.13.45-.23.71.23,0,.41.05.49-.02.17-.15.25-.35.23-.55l.54.16c0,.05.04.1.1.15.11.08.22.06.29-.03l1.95.56c0,.06.03.12.04.18.08-.03.16-.06.24-.09-.01-.02,2.19.61,2.19.61-.06.04-.11.1-.16.19l.31-.15.22.06c-.22.59-.45,1.18-.67,1.77-.11.02-.23.05-.41.09.05.28.08.54.13.78l-1.01-.29c.11-.2.2-.34.25-.5.11-.33.21-.66.27-1,.01-.08-.11-.24-.2-.26-.15-.04-.2.09-.22.23,0,.09-.05.17-.07.26-.67-.28-1.05-.34-1.83-.3-.02.32.05.57.42.61.49.05.82.31,1.09.69.05.07.11.15.19.25l-3.44-.99c-.14-.17-.29-.31-.43-.44-.19.06-.25.16-.19.26l-1.03-.3c-.02-.12-.03-.23,0-.34.06-.21.24-.38.35-.56-.31,0-.59.01-.87.03-.18.01-.14.17-.15.28-.15.04-.3.11-.43.08-.21-.04-.38-.03-.54.03l-9.54-2.73s-.03-.08-.03-.08c-.01.02-.04.04-.04.06l-2.59-.74s-.05-.07-.09-.1c0,.02-.02.04-.03.06l-1.39-.4c.04-.06.07-.14.11-.23,0-.02.04-.08.04-.14,0-.09-.02-.22-.08-.25-.1-.05-.25-.08-.35-.05-.11.03-.21.14-.28.24-.06.08-.09.17-.08.25l-.63-.18c.09-.05.17-.14.16-.26,0-.22-.05-.43-.09-.65-.01-.05-.08-.09-.16-.18-.17.02-.37.04-.59.07l-.03.33c-.12-.07-.25-.15-.38-.18-.3-.08-.61-.14-1.05-.25.02.23-.01.39.05.5l-1.54-.44c-.08-.07-.16-.15-.25-.15-.09,0-.18,0-.27,0l-.66-.19c-.1-.35.28-.26.42-.39-.43-.32-.45-.33-.72-.13-.05.04-.1.08-.15.12-.02-.06-.04-.12-.06-.18-.12-.31-.14-.32-.68-.27.04.18.42.3.15.55l-.66-.19c-.08-.05-.15-.1-.23-.15-.07-.04-.18-.02-.29,0l-1.54-.44c.11-.06.17-.22.31-.4-.43-.15-.73-.26-1.02-.35-.13-.04-.28-.04-.42-.05l.15-.3c-.17-.14-.33-.26-.46-.37-.11.03-.19.03-.23.06-.15.16-.3.32-.42.5-.06.09-.05.21,0,.3l-.63-.18c.05-.07.08-.15.07-.26,0-.12-.04-.26-.12-.35-.07-.08-.21-.13-.33-.14-.06,0-.14.1-.2.17-.04.05-.04.12-.04.14-.02.09-.03.18-.03.26l-1.39-.4s0-.05.01-.07c-.04,0-.09,0-.14,0,.01.03-2.58-.72-2.58-.72.01-.01,0-.05,0-.07h-.07s-9.54-2.69-9.54-2.69c-.1-.14-.25-.24-.44-.32-.13-.05-.22-.19-.32-.3.05-.1.17-.21.02-.32-.23-.16-.46-.31-.72-.48,0,.21.07.45,0,.66-.03.1-.1.2-.18.29l-1.03-.3c.11-.05.11-.17-.02-.32-.19.04-.4.08-.6.12,0,.03-3.44-.96-3.44-.96.12-.04.2-.08.29-.11.43-.17.85-.22,1.29,0,.33.17.53,0,.68-.29-.64-.45-.99-.6-1.7-.71.03-.09.04-.18.08-.26.06-.13.09-.27-.06-.31-.09-.03-.28.04-.31.12-.13.32-.22.66-.3.99-.04.16-.04.33-.05.56ZM17.77,73.82l-10.86-3.11c-.32-.14-.43-.15-.66-.42-.2-.23-.31-.43-.39-.63.07-.03.13-.07.16-.11.09-.16.11-.35.19-.62-.23.01-.4-.03-.51.04-.03.02-.06.05-.09.08-.15-.34-.31-.68-.46-1.03.18-.1.38-.2.66-.36l-.88-.14c-.35-.82-.68-1.65-1-2.48.16-.11.33-.18.36-.28.04-.17.02-.4-.07-.55-.18-.33-.62-.41-.8-.77,0,0-.03,0-.07,0-.68-1.95-1.26-3.92-1.75-5.92.09.02.24,0,.28-.04.17-.25-.02-.37-.18-.5-.07.05-.14.1-.19.15-.16-.68-.31-1.37-.45-2.06.22-.1.44-.16.68-.17.03,0,.05.01.08.02.05-.02.06-.02.08-.01.05,0,.16-.12.16-.19,0-.07-.06-.2-.13-.22-.33-.13-.66-.22-1.03-.2-.38-2.07-.65-4.16-.8-6.26l.55-.06c-.13-.24-.32-.28-.51-.32-.02.03-.03.07-.05.1-.2-3.15-.13-6.31.25-9.44.03,0,.06-.02.1-.03l-.09-.06c.17-1.34.39-2.68.67-4,.22-1.05.47-2.05.75-3.05.12-.42.24-.84.37-1.25.07.06.16.05.2.02.03-.03.04-.13.02-.15-.05-.04-.09-.08-.14-.11,2.05-6.42,5.49-12.37,9.89-17.52l.05-.04c.44-.54.91-1.06,1.39-1.58,1.13-1.22,2.31-2.38,3.54-3.5.14.05.32.05.37-.02.05-.06.03-.21,0-.32,2.63-2.36,5.46-4.49,8.39-6.38.17-.11.29-.19.5-.26.34-.1.44-.05.78,0l11.34,3.25s-.07.02-.1.03c-.12.07-.16.29-.29.54.44-.01.68-.09.84-.31.02-.03.02-.08.01-.14l32.26,9.24c.08.08.16.18.25.27l.1-.17,58.47,16.75v.2c.12-.03.24-.07.35-.1l32.26,9.24s-.06.09-.06.12c.02.26.18.46.55.7.03-.29.11-.49.04-.61-.02-.03-.04-.05-.06-.08l12.85,3.68c.12.05.24.11.36.16.44.38.7.96.95,1.51.68,1.49,1.31,3.01,1.88,4.55-.31.13-.56.22-.78.34-.14.07-.22.23-.07.44.21.02.46.1.69.06.13-.02.28-.14.37-.27,1.06,2.95,1.91,5.97,2.52,9.04-.25-.14-.51-.14-.83.02.06.11.09.24.17.33.3.37.4.43.76.15.22,1.17.4,2.35.55,3.53-.06.04-.12.14-.1.18.04.1.09.16.15.18.35,3.04.45,6.1.26,9.15-.03.56-.08,1.11-.13,1.66-1.01,10.2-5.37,19.96-12.13,27.75-.07.09-.15.17-.22.26-.11-.1-.22-.1-.39-.03-.06.02-.13.18-.1.23.04.08.09.14.14.19-1.13,1.27-2.32,2.48-3.56,3.64,0-.17,0-.27.02-.36.04-.14.11-.28.16-.42-.06,0-.15-.02-.17,0-.17.22-.26.46-.04.8-2.89,2.71-6.05,5.13-9.38,7.29-.17.11-.29.19-.5.26-.34.1-.44.05-.78,0l-12.37-3.54c-.3-.16-.47-.33-.67-.35-.53-.05-.86-.37-1.15-.76-.08-.1-.14-.21-.24-.36-.14.03-.28.07-.42.11.16.13.37.24.47.41.1.18.2.36.36.47l-1.4-.4h.61c-.02-.18-.03-.33-.05-.48-.19.14-.29.05-.36-.14-.45.12-.49.13-.55.52l-4.02-1.15c-.1-.08-.22-.15-.37-.25-.05.04-.1.07-.14.1l-5.43-1.56c.06-.06.14-.14.24-.23-.43-.18-.67-.31-.94-.38-.16-.04-.26.09-.24.33l-2.56-.73c-.04-.05-.1-.07-.2-.06l-15.59-4.47c.11-.32.02-.42-.24-.41.06.12.13.23.22.41l-1.41-.4c.06-.1.11-.21.17-.32.34-.71.82-1.26,1.61-1.5.15-.05.29-.12.49-.2-.05-.1-.09-.19-.13-.28l.51.15s0,.08.01.12c.06-.03.12-.05.17-.07l2.46.7c-.15.01-.27.12-.33.33.05.07.12.24.23.28.21.08.49-.09.51-.28.01-.11-.03-.19-.1-.24l.51.15s.04.09.06.13c.06.13.17.24.25.35.08-.03.13-.04.14-.06.05-.09.09-.18.14-.26l1.24.36c-.08.22-.11.42-.21.57-.1.15-.29.23-.39.38-.12.18-.2.39-.29.59-.02-.01-.05-.02-.07-.03.02.01.04.02.06.04.24,0,.44-.04.61-.13-.02.02-.04.04-.05.06.04.21.17.36.38.32.3-.07.61-.16.87-.31.13-.07.18-.29.27-.44-.05-.05-.09-.11-.14-.16-.34.15-.74.15-1.07.33.11-.12.19-.28.24-.48.06-.23.07-.23-.2-.73l.77.22s.04.04.06.06c.04-.03,7.35,2.06,7.35,2.06l.02.09.14-.04,6.48,1.86s-.08.01-.12.02q.24.36.9.21s.57.15.57.15c.12.31.24.62.37.94.06-.11.1-.24.19-.28.23-.1.35-.23.41-.39l.41.12-.03.17c.06-.04.11-.09.17-.13l11.53,3.3c-.16,0-.34.08-.57.23.35.14.52.2.68.28.15.07.29.17.43.26.1-.14.12-.26.09-.35.03.03.06.06.1.09.17.14.21.14.68.04,0,.02,0,.05.02.06.02.01.05,0,.07,0l.02-.07s.04-.01.04-.01c-.02-.03-.05-.05-.07-.07l1.92.55s-.03.07-.04.1c-.02.09.07.2.12.33.13-.08.24-.11.27-.17.02-.04.03-.1.02-.15l.93.27c-.14.03-.27.09-.39.19-.04.04-.05.2,0,.25.18.21.4.13.6.03.16-.07.31-.14.28-.33l2.65.76s-.06.03-.09.04c.03.04.05.11.09.12.03.01.09-.03.13-.05-.02-.03-.03-.06-.05-.09l1.52.44c1.18-.77,2.34-1.58,3.46-2.43.08,0,.17-.03.25-.05l-.06-.1c1.05-.8,2.07-1.62,3.07-2.48.28.26.53.5.79.75.55-.26.03-.96.43-1.29.23-.04.46-.06.66-.13.13-.05.29-.16.14-.42-.11.02-.22.05-.32.07.04-.1.07-.21.06-.31,0-.08-.02-.14-.06-.18,1.17-1.09,2.3-2.23,3.37-3.41.06.03.14.06.22.1.22-.08.44-.17.65-.25q.21.19.48.13l-.46-.98c2.88-3.34,5.33-7.03,7.21-11.01,1.94-4.12,3.22-8.53,3.85-13.05l.22.06c.06-.2.09-.35.15-.5.06-.14.13-.27.21-.41-.27-.07-.4-.1-.45-.05.35-2.92.43-5.88.25-8.83.05-.08.08-.14.1-.2.08-.23.06-.46-.16-.6-.13-1.73-.36-3.44-.67-5.15-.92-5.01-2.55-9.88-4.68-14.51-.01-.02-1.11-.34-1.11-.34.07-.15.07-.34-.03-.44-.05-.05-.2-.08-.26-.05-.1.05-.18.17-.28.27,0,.02.01.04.02.06l-12.14-3.48c-.1-.16-.18-.19-.47-.31,0,.07,0,.13,0,.18l-26.98-7.73s0-.08,0-.13c-.03,0-.06,0-.08-.01,0,.04,0,.08,0,.11l-25.96-7.44s.02-.05.02-.07c-.03,0-.06-.01-.08,0-.01,0-.02.03-.02.04l-14.4-4.13s.01-.04,0-.05c0-.02-.04-.03-.07-.04,0,.02,0,.05-.01.07l-25.96-7.44s.04-.06.06-.1c-.03-.01-.05-.02-.08-.03-.02.04-.05.07-.07.1l-26.97-7.73s.06-.09.1-.15c-.31-.05-.39-.07-.56.02l-12.14-3.48s.03-.03.04-.04c-.03-.14-.03-.28-.09-.38-.04-.06-.17-.11-.24-.1-.22.06-.34.44-.2.63.01.02.03.03.06.05-3.42,2.26-6.64,4.86-9.53,7.76-.05,0-.09.02-.14.04l.03.07c-1.12,1.13-2.2,2.31-3.22,3.53l-.23-.07c-.01.06-.06.14-.04.16.04.03.08.06.13.08-2.45,2.96-4.57,6.17-6.28,9.62-.03-.03-.08-.05-.13-.05-.09,0-.25.1-.27.18-.03.14-.03.31.13.42-.84,1.76-1.57,3.58-2.18,5.46-2.12,6.55-2.68,13.59-1.82,20.42.26,2.07.65,4.13,1.15,6.16-.21-.07-.42-.13-.64-.15-.08,0-.17.06-.28.1.04.29.07.54.11.8.27-.13.56-.11.64.16.11.36.33.59.61.75.37,1.32.78,2.63,1.24,3.93-.15.13-.1.23.08.57.03-.03.06-.07.09-.1.07.19.13.37.2.55l-.48-.29c-.31.16-.61.31-.93.47.2.23.43.4.76.18.08.13.15.35.24.36.27.02.42-.13.5-.4,0,.04,0,.07,0,.12.02-.01.03-.02.04-.03.11.29.22.57.33.86-.19-.02-.38-.04-.63-.07.14.24.2.35.27.47.05.32.22.22.39.11.03-.07.06-.13.1-.21.42,1.05.87,2.09,1.34,3.11-.01.04-.04.06-.07.07.03.04.05.11.08.12.04,0,.09-.04.14-.06-.02-.03-.04-.06-.05-.09l2.65.76c-.13.14-.04.29.06.43.13.19.27.37.53.29.06-.02.14-.16.12-.22-.05-.14-.13-.26-.23-.37l.93.27s-.06.09-.06.14c0,.07.07.15.13.29.12-.09.25-.13.28-.22.01-.03.02-.06.02-.1l1.92.55s-.07.01-.1.02l.06.05s-.05.05-.05.05c.02.01.04.04.06.04.01,0,.03-.02.05-.04.35.34.38.36.6.33.04,0,.09-.01.13-.03-.07.07-.12.18-.11.35.16,0,.34,0,.5.01.18.02.36.06.73.12-.12-.24-.23-.4-.37-.49l11.53,3.3c.02.07.05.13.07.2l.07-.16.41.12c-.04.16,0,.34.14.55.05.08.02.21.02.33.27-.2.55-.41.81-.6l.58.17q.46.48.85.3s-.06-.05-.09-.08l6.48,1.86.1.11.06-.06,7.31,2.09s.07.05.09.04c0-.01.78.21.78.21-.5.28-.48.28-.56.51-.06.2-.08.38-.05.54-.19-.33-.52-.54-.73-.84-.02,0-.03.01-.05.02l-.1.03s-.03.01-.05.02c0,.17-.08.38,0,.51.15.27.36.51.58.73.15.15.35.09.49-.07,0-.03,0-.06-.01-.08.1.17.25.31.45.43.02,0,.05,0,.07,0-.03,0-.05,0-.08-.01.02-.22.07-.44.06-.66,0-.18-.13-.35-.13-.53,0-.18.07-.36.12-.59l1.24.36c0,.1-.02.2-.02.29,0,.02.03.05.09.12.13-.05.28-.08.4-.17.04-.03.08-.06.12-.08l.51.15c-.09,0-.16.05-.21.15-.08.17.06.46.28.51.11.02.25-.08.34-.12.06-.21.02-.36-.1-.45l2.46.7c.04.05.08.1.11.15.03-.03.05-.07.08-.1l.51.15c-.08.05-.16.11-.25.17.13.18.21.32.31.43.54.62.65,1.34.57,2.13-.01.12-.02.24-.03.36l-1.41-.4c.17-.1.29-.16.4-.23-.21-.15-.34-.11-.42.22l-15.59-4.47c-.08-.06-.13-.08-.2-.06l-2.56-.73c.15-.19.14-.35-.02-.41-.26-.09-.54-.1-1-.18.04.13.06.24.08.32l-5.44-1.56c-.02-.05-.04-.1-.06-.16-.18,0-.32,0-.45.01l-4.02-1.15c.16-.36.13-.39-.19-.73-.16.12-.29.15-.38-.07-.09.12-.18.23-.29.37l.51.33-1.4-.4c.19-.02.37-.11.55-.21.18-.09.41-.08.62-.1-.1-.11-.21-.21-.31-.31-.16.07-.28.13-.4.17-.45.18-.9.28-1.38.04-.17-.09-.41-.04-.75-.06Z"/>
      <g>
        <path class="cls-1" d="M66.89,31.9c-.28-1.23-.92-2.37-1.92-3.44-1-1.07-2.26-1.82-3.8-2.26-3.07-.87-5.62-.58-7.63.86-2.01,1.44-3.47,3.7-4.36,6.79-.88,3.05-.82,5.77.17,8.16.5,1.2,1.25,2.2,2.26,3.01,0,0,0,0,0-.01-.02-.04-.05-.08-.05-.12,0-.03,0-.06,0-.09,0-.04.02-.08.04-.12.02-.04.04-.07.08-.09,0,0,.02,0,.03-.01.01-.01.03-.02.05-.02.01,0,.02-.01.03-.02.04-.02.08-.02.12-.01l.14.02c.06,0,.11.03.15.06.02.02.04.04.06.06.03.04.06.09.07.15,0,.03,0,.06,0,.09,0,.04-.02.08-.04.12-.02.04-.04.07-.08.09-.03.03-.07.05-.11.05-.04.02-.08.02-.12.01l-.14-.02s-.04-.01-.06-.02c.98.75,2.18,1.32,3.63,1.72,1.31.37,2.56.43,3.76.21-.24-.16-.14-.62.21-.58,0,0,.01,0,.02,0,.01-.02.02-.04.04-.05.08-.06.17-.11.26-.15.06-.02.12-.05.17-.08,0,0,0,0,.01,0,.07-.05.15-.07.23-.07.08,0,.16.06.21.12.03.03.05.07.05.11.02.04.02.08.01.12,0,.08-.05.16-.12.21-.06.04-.12.07-.19.11.45-.14.89-.31,1.32-.54,1.85-.99,3.08-2.45,3.68-4.39.1-.36.12-.6.04-.72-.07-.12-.29-.23-.65-.33l-3.11-.9c-.32-.09-.55-.11-.68-.05-.14.06-.26.25-.38.59-.3.82-.81,1.48-1.51,1.99-.71.51-1.51.66-2.39.44-1.51-.37-2.43-1.29-2.75-2.75-.32-1.46-.22-3.1.3-4.92.53-1.83,1.3-3.25,2.32-4.24,1.02-.99,2.13-1.32,3.33-1,1.94.52,2.75,1.94,2.43,4.26-.06.37-.04.63.07.77.11.14.35.26.7.37l2.96.85c.32.09.56.08.74-.03.17-.11.3-.35.38-.72.27-1.17.27-2.37-.01-3.6ZM50.8,36.42c.41.05.34.68-.07.63s-.34-.68.07-.63ZM50.63,41.88c-.41-.05-.34-.68.07-.63s.34.68-.07.63ZM52.24,31.1c-.41-.05-.34-.68.07-.63s.34.68-.07.63ZM61.78,45.32c.41.05.34.68-.07.63-.41-.05-.34-.68.07-.63ZM54.41,28.21c-.41-.05-.34-.68.07-.63s.34.68-.07.63ZM58.54,29.52c-.41-.05-.34-.68.07-.63s.34.68-.07.63ZM62.97,30.01c-.41-.05-.34-.68.07-.63s.34.68-.07.63Z"/>
        <path class="cls-1" d="M84.65,38.72c-.06.05-.13.08-.23.07-.41-.05-.34-.68.07-.63.05,0,.09.02.13.04-.03-.27-.06-.54-.11-.79-.01,0-.03,0-.04,0-.35-.04-.35-.5-.08-.61-.06-.25-.14-.5-.22-.74-.03-.02-.07-.04-.09-.07-.03-.03-.05-.07-.05-.11-.02-.04-.02-.08-.01-.12v-.09c-.47-1.18-1.21-2.15-2.2-2.91.12.2,0,.52-.3.49-.41-.05-.34-.68.07-.63.02,0,.04.01.06.02-.36-.26-.75-.5-1.18-.71,0,.17-.12.34-.34.31-.3-.03-.34-.38-.18-.55-.37-.16-.75-.3-1.16-.42-2.63-.76-4.9-.44-6.82.96-1.92,1.4-3.35,3.74-4.29,7-.94,3.27-.98,6.01-.1,8.21.87,2.21,2.63,3.69,5.26,4.45,2.63.76,4.9.44,6.82-.96,1.31-.96,2.39-2.37,3.25-4.2-.02,0-.04,0-.06,0-.26-.03-.33-.3-.23-.48-.02-.05-.03-.1-.03-.15.03-.28.09-.57.32-.76.07-.05.15-.07.23-.07.08,0,.16.06.21.12.03.03.05.07.06.12.05-.14.1-.28.15-.43-.04,0-.07.02-.12.01-.39-.04-.34-.63.03-.63-.07-.07-.12-.17-.11-.27.05-.39.24-.78.45-1.11.08-.12.24-.15.37-.1.37-1.55.53-2.96.47-4.26ZM69.51,38.42c-.41-.05-.34-.68.07-.63.41.05.34.68-.07.63ZM72.18,34.87c-.41-.05-.34-.68.07-.63s.34.68-.07.63ZM77.04,51.49c-.41-.05-.34-.68.07-.63s.34.68-.07.63ZM79.3,42.58c-1.26,4.36-3.06,6.21-5.39,5.54-2.33-.67-2.87-3.19-1.61-7.56.9-3.11,2.08-4.93,3.53-5.47.02-.16.14-.3.34-.28.11.01.18.06.22.13.41-.06.84-.02,1.29.11,2.33.67,2.87,3.18,1.62,7.53Z"/>
        <path class="cls-1" d="M102.56,44.63c.06,0,.1.02.14.05.03-.12.04-.24.06-.36-.35-.08-.28-.63.09-.62.34-3.3-1.59-5.57-5.82-6.79l-6.85-1.98c-.36-.1-.63-.11-.82-.01-.19.1-.34.32-.44.68l-.45,1.57s0,.01,0,.02c0,.02-.02.04-.02.06l-2.11,7.3c-.12.58-.27,1.15-.42,1.72-.04.3-.08.59-.13.89.02,0,.03-.01.05,0,.41.05.34.68-.07.63-.03,0-.06-.02-.09-.03-.01.08-.03.15-.04.23-.04.2-.22.28-.37.26l-.04.13s.03,0,.04,0h.11c.06.02.11.04.15.07.02.02.04.04.06.06.03.04.06.09.07.15,0,.03,0,.06,0,.09,0,.04-.02.08-.04.12-.02.04-.04.07-.08.09-.03.03-.07.05-.11.05-.04.02-.08.02-.12.01h-.11c-.05-.02-.1-.04-.14-.07l-.26.9s.03.01.04.02c0,0,.01,0,.02.02.03.02.05.05.08.08.02.02.04.05.06.07.03.04.06.09.07.15,0,.03,0,.06,0,.09,0,.06-.03.11-.06.15-.02.02-.04.04-.06.06-.03.03-.07.05-.11.05-.04.02-.08.02-.12.01-.04,0-.07-.02-.1-.03l-.9,3.11c-.1.36-.1.63,0,.81.11.18.34.33.7.43l2.63.76c.36.1.64.11.84.02.2-.09.35-.32.45-.68l1.74-6.01,2.6.75c.48.14.83.23,1.05.27l1.21,7.02c.1.63.46,1.04,1.07,1.22l2.87.83c.38.11.66.08.85-.09.19-.17.25-.42.17-.75l-1.47-8.36c1.58-.53,2.76-1.55,3.52-3.07-.09-.18,0-.43.22-.47.13-.32.26-.65.36-1,0-.02,0-.03.01-.05-.02,0-.04,0-.07,0-.41-.05-.34-.68.07-.63ZM86.19,46.88c-.41-.05-.34-.68.07-.63s.34.68-.07.63ZM86.52,45.85c-.41-.05-.34-.68.07-.63s.34.68-.07.63ZM86.63,44.9c-.41-.05-.34-.68.07-.63s.34.68-.07.63ZM90.17,38.28c-.41-.05-.34-.68.07-.63s.34.68-.07.63ZM92.86,37.08c.41.05.34.68-.07.63s-.34-.68.07-.63ZM96.44,45.99c-.67.27-1.67.22-2.98-.16l-2.27-.66,1.55-5.38,2.27.66c1.33.39,2.22.83,2.66,1.33.44.5.52,1.24.24,2.19-.31,1.08-.8,1.75-1.47,2.02ZM96.8,54.24c-.41-.05-.34-.68.07-.63s.34.68-.07.63Z"/>
        <path class="cls-1" d="M121.27,44.09c-.08-.14-.31-.27-.69-.38l-11.57-3.34c-.86-.25-1.4.04-1.64.85l-.5,1.75s.02,0,.03,0c.41.05.34.68-.07.63-.05,0-.09-.02-.13-.04l-2.37,8.2c.4.05.33.68-.07.63-.04,0-.07-.02-.1-.03l-.1.34c.35.09.27.66-.12.62-.02,0-.04-.01-.06-.02l-.28.97s.08-.01.13-.01c.04,0,.08.02.12.04.04.02.07.04.09.08.05.06.08.15.07.23,0,.06-.01.12-.01.17,0,0,0,.01,0,.02,0,0,0,.01,0,.02.05.07.07.14.06.22,0,.06-.03.11-.07.16.07.2-.04.47-.32.44s-.33-.32-.22-.5c-.03-.05-.05-.1-.07-.15l-1.08,3.73c-.13.44-.12.78.03,1.03.14.25.44.43.87.56l2.45.71c0-.17.12-.33.34-.31.26.03.32.3.23.47l8.76,2.53c.36.1.61.11.77.03.15-.09.28-.31.39-.67l.58-2c.1-.36.11-.62.03-.77-.09-.15-.31-.28-.67-.39l-8.4-2.43.37-1.28s-.03-.04-.03-.06c-.02-.04-.02-.08-.01-.12v-.11s.03-.04.04-.07c-.09-.09-.11-.23-.08-.35.17-.52.43-1.01.6-1.54.03-.09.1-.15.19-.18l.33-1.14,2.91.84c.06-.07.14-.11.26-.1.16.02.24.13.27.25l2.85.82c.05-.1.15-.18.3-.16.19.02.28.17.27.32l1.36.39c.38.11.64.12.78.03.14-.09.26-.3.36-.64l.6-2.06c.1-.36.12-.61.04-.75-.08-.14-.31-.27-.69-.38l-8.22-2.37,1.07-3.71,1.41.41c.06-.06.14-.11.25-.09.16.02.24.12.27.24l6.29,1.82c.38.11.64.12.78.03.14-.09.27-.3.36-.64l.6-2.06c.1-.36.12-.61.04-.75ZM106.51,45.6c-.41-.05-.34-.68.07-.63.41.05.34.68-.07.63ZM112.5,51.28c.41.05.34.68-.07.63s-.34-.68.07-.63Z"/>
        <path class="cls-1" d="M137.18,68.69l-.02-.39s-.04,0-.06,0c-.4-.04-.34-.63.04-.63l-.28-6.06c-.04.13-.15.24-.32.22-.41-.05-.34-.68.07-.63.13.01.2.09.24.18l-.08-1.81c-.04.13-.15.24-.32.22-.41-.05-.34-.68.07-.63.13.01.2.09.24.18l-.3-6.4c-.13.09-.26.18-.41.25-.16.08-.35-.01-.42-.16-.04-.07-.03-.17,0-.25.03-.08.09-.13.17-.17.05-.02.09-.05.14-.08.17-.11.33-.24.49-.36l-.02-.42c-.06.07-.14.11-.26.1-.41-.05-.34-.68.07-.63.07,0,.13.04.17.08l-.02-.37c-.06.05-.14.08-.23.07-.41-.05-.34-.68.07-.63.06,0,.1.03.14.05l-.04-.77c-.02-.59-.11-.99-.27-1.21-.15-.22-.53-.41-1.13-.58l-3.62-1.04c-.56-.16-.97-.18-1.24-.07-.27.12-.57.4-.89.84l-1.1,1.58c.34.1.27.66-.12.62-.05,0-.1-.02-.13-.04-.04.12-.13.21-.29.21l-.76,1.1c.13.2.01.53-.29.5-.02,0-.03-.01-.05-.02l-.73,1.04c0,.15-.07.3-.23.33v.02c-.02.11-.09.22-.19.26l-.84,1.2c0,.13-.08.26-.21.3l-.16.22s0,0,0,0c.41.05.34.68-.07.63-.13-.01-.21-.09-.24-.19l-.22.31c.18.18.07.58-.25.54-.04,0-.07-.02-.1-.03l-.53.76c0,.14-.07.29-.23.33l-1.13,1.63c.28.14.18.64-.18.6-.08,0-.13-.04-.18-.08l-1.01,1.45c.37.07.3.67-.1.62-.12-.01-.19-.07-.23-.15l-1.32,1.9c-.32.43-.45.76-.38.99.06.23.36.43.9.58l2.48.72c.54.16.91.2,1.11.14.2-.06.44-.31.72-.75l2.24-3.37,6.76,1.95.13,4.05c0,.52.07.86.21,1.02.14.16.48.32,1.01.47l2.48.72c.54.16.9.15,1.07-.01.18-.16.25-.51.2-1.04ZM132.33,51.55c.41.05.34.68-.07.63s-.34-.68.07-.63ZM129.63,51.78c.41.05.34.68-.07.63s-.34-.68.07-.63ZM127.6,58.15l4.17-6.24.2,7.51-4.36-1.26ZM133.1,50.35c-.41-.05-.34-.68.07-.63s.34.68-.07.63ZM133.71,60.34c-.41-.05-.34-.68.07-.63s.34.68-.07.63ZM135.66,65.9c-.41-.05-.34-.68.07-.63s.34.68-.07.63Z"/>
      </g>
    </g>
  </g>
</svg>