<svg xmlns="http://www.w3.org/2000/svg" xmlns:xlink="http://www.w3.org/1999/xlink" width="1070" height="761" viewBox="0 0 1070 761">
  <defs>
    <filter id="rect_2975" x="0" y="0" width="1070" height="761" filterUnits="userSpaceOnUse">
      <feOffset dx="6" dy="6" input="SourceAlpha"/>
      <feGaussianBlur stdDeviation="15" result="blur"/>
      <feFlood flood-opacity="0.039"/>
      <feComposite operator="in" in2="blur"/>
      <feComposite in="SourceGraphic"/>
    </filter>
  </defs>
  <g id="group_3134" data-name="group 3134" transform="translate(-11 -349)">
    <g transform="matrix(1, 0, 0, 1, 11, 349)" filter="url(#rect_2975)">
      <g id="rect_2975-2" data-name="rect 2975" transform="translate(39 39)" fill="#fff" stroke="#edeef0" stroke-width="4">
        <rect width="980" height="671" rx="60" stroke="none"/>
        <rect x="2" y="2" width="976" height="667" rx="58" fill="none"/>
      </g>
    </g>
    <rect id="rect_2980" data-name="rect 2980" width="4" height="130" transform="translate(375 854)" fill="#edeef0"/>
    <rect id="rect_2981" data-name="rect 2981" width="4" height="130" transform="translate(702 854)" fill="#edeef0"/>
    <g id="group_3112" data-name="group 3112" transform="translate(-2 -73)">
      <g id="star-solid" transform="translate(76.856 1010)" fill="#598dff">
        <path d="M 58.09641647338867 42.16687393188477 C 57.74120712280273 42.16686248779297 57.38620758056641 42.07859420776367 57.06978607177734 41.91160202026367 L 46.38138580322266 36.20500183105469 L 46.14589691162109 36.07927322387695 L 45.91040802001953 36.20500183105469 L 35.21988677978516 41.91272354125977 C 34.90892791748047 42.07683181762695 34.55629730224609 42.1641731262207 34.20221710205078 42.1641731262207 C 33.74266815185547 42.1641731262207 33.30288696289062 42.02297210693359 32.9304084777832 41.75583267211914 C 32.26496505737305 41.27861404418945 31.92226600646973 40.4466438293457 32.05733871459961 39.63630294799805 L 34.10692596435547 27.49697303771973 L 34.1501579284668 27.24094390869141 L 33.965576171875 27.05831336975098 L 25.28316688537598 18.46756362915039 C 24.70834732055664 17.8994140625 24.49883651733398 17.02960395812988 24.74921607971191 16.25141334533691 C 24.99684715270996 15.48173332214355 25.6796875 14.90598297119141 26.48884773254395 14.78460311889648 L 38.45307540893555 13.0182933807373 L 38.71432876586914 12.97972297668457 L 38.82975769042969 12.74221324920654 L 44.18752670288086 1.718403339385986 C 44.55613708496094 0.9675434231758118 45.30367660522461 0.5000033974647522 46.13756561279297 0.5000033974647522 C 46.96555709838867 0.5000033974647522 47.73069763183594 0.9776533842086792 48.08685684204102 1.716873407363892 L 53.44535827636719 12.74221324920654 L 53.56080627441406 12.9797534942627 L 53.82208633422852 13.01830387115479 L 65.79581451416016 14.78478336334229 C 66.60905456542969 14.90677356719971 67.27610778808594 15.47025299072266 67.53547668457031 16.25515365600586 C 67.79019927978516 17.02603340148926 67.5802001953125 17.89438247680664 67.00048065185547 18.46737289428711 L 58.31788635253906 27.05831336975098 L 58.13315582275391 27.2410831451416 L 58.17658615112305 27.4973030090332 L 60.23469543457031 39.63766479492188 C 60.37058639526367 40.4530029296875 60.03500747680664 41.26591491699219 59.35869598388672 41.75777435302734 C 58.99069595336914 42.02541351318359 58.55421829223633 42.16687393188477 58.09641647338867 42.16687393188477 Z" stroke="none"/>
        <path d="M 46.13756561279297 1.000003814697266 C 45.49584579467773 1.000003814697266 44.9202880859375 1.360382080078125 44.63722610473633 1.936962127685547 L 39.04858779907227 13.43579292297363 L 26.56302642822266 15.27907371520996 C 25.94022369384766 15.37249374389648 25.41510009765625 15.81427383422852 25.22517395019531 16.4045524597168 C 25.03199768066406 17.00496292114258 25.19265747070312 17.67508316040039 25.63485717773438 18.11213302612305 L 34.68640518188477 27.06814384460449 L 32.5505256652832 39.71850204467773 C 32.44655609130859 40.34229278564453 32.71004867553711 40.98250198364258 33.22180557250977 41.34952163696289 C 33.50881576538086 41.55537414550781 33.84783554077148 41.6641731262207 34.20221710205078 41.6641731262207 C 34.47526550292969 41.6641731262207 34.74719619750977 41.59682464599609 34.98439788818359 41.47165298461914 L 46.14589691162109 35.5124626159668 L 57.30315780639648 41.46940231323242 C 57.54793548583984 41.59859466552734 57.82223510742188 41.66687393188477 58.09641647338867 41.66687393188477 C 58.44784545898438 41.66687393188477 58.78263854980469 41.5584831237793 59.06460571289062 41.3534049987793 C 59.58677673339844 40.97365188598633 59.8460578918457 40.34719467163086 59.74173736572266 39.72123336791992 L 57.59675598144531 27.06844329833984 L 66.64898681640625 18.11175346374512 C 67.09471893310547 17.67120361328125 67.25633239746094 17.00401306152344 67.06072998046875 16.41203308105469 C 66.86087036132812 15.80722427368164 66.34729766845703 15.37310409545898 65.72282409667969 15.27942276000977 L 53.22654724121094 13.43585395812988 L 47.63640594482422 1.933895111083984 C 47.36306762695312 1.366584777832031 46.77473831176758 1.000003814697266 46.13756561279297 1.000003814697266 M 46.13756561279297 3.814697265625e-06 C 47.16245651245117 3.814697265625e-06 48.09568786621094 0.5832748413085938 48.53729629516602 1.499843597412109 L 53.89505767822266 12.52365303039551 L 65.8687744140625 14.29013252258301 C 66.86867523193359 14.44012260437012 67.69358825683594 15.14004325866699 68.01022338867188 16.09827423095703 C 68.32685852050781 17.05650329589844 68.06853485107422 18.11472320556641 67.35194396972656 18.82298278808594 L 58.6695556640625 27.41373443603516 L 60.72766876220703 39.55409240722656 C 60.89431762695312 40.55398178100586 60.47768783569336 41.56221389770508 59.65277862548828 42.16214370727539 C 58.82787322998047 42.7620849609375 57.73632431030273 42.82874298095703 56.83640670776367 42.35379409790039 L 46.14589691162109 36.64606475830078 L 35.45537567138672 42.35379409790039 C 34.55547332763672 42.82874298095703 33.46391296386719 42.75375366210938 32.63900756835938 42.16214370727539 C 31.8140983581543 41.5705451965332 31.39747619628906 40.55398178100586 31.56413650512695 39.55409240722656 L 33.61390686035156 27.41373443603516 L 24.93150329589844 18.82298278808594 C 24.21490478515625 18.11472320556641 23.96493530273438 17.05650329589844 24.27323913574219 16.09827423095703 C 24.58153533935547 15.14004325866699 25.41477966308594 14.44012260437012 26.41468048095703 14.29013252258301 L 38.38005828857422 12.52365303039551 L 43.73782730102539 1.499843597412109 C 44.18777847290039 0.5832748413085938 45.11266708374023 3.814697265625e-06 46.13756561279297 3.814697265625e-06 Z" stroke="none" fill="#5d93ff"/>
      </g>
      <g id="star-solid-2" data-name="star-solid" transform="translate(122.856 1010)" fill="#598dff">
        <path d="M 58.09641647338867 42.16687393188477 C 57.74120712280273 42.16686248779297 57.38620758056641 42.07859420776367 57.06978607177734 41.91160202026367 L 46.38138580322266 36.20500183105469 L 46.14589691162109 36.07927322387695 L 45.91040802001953 36.20500183105469 L 35.21988677978516 41.91272354125977 C 34.90892791748047 42.07683181762695 34.55629730224609 42.1641731262207 34.20221710205078 42.1641731262207 C 33.74266815185547 42.1641731262207 33.30288696289062 42.02297210693359 32.9304084777832 41.75583267211914 C 32.26496505737305 41.27861404418945 31.92226600646973 40.4466438293457 32.05733871459961 39.63630294799805 L 34.10692596435547 27.49697303771973 L 34.1501579284668 27.24094390869141 L 33.965576171875 27.05831336975098 L 25.28316688537598 18.46756362915039 C 24.70834732055664 17.8994140625 24.49883651733398 17.02960395812988 24.74921607971191 16.25141334533691 C 24.99684715270996 15.48173332214355 25.6796875 14.90598297119141 26.48884773254395 14.78460311889648 L 38.45307540893555 13.0182933807373 L 38.71432876586914 12.97972297668457 L 38.82975769042969 12.74221324920654 L 44.18752670288086 1.718403339385986 C 44.55613708496094 0.9675434231758118 45.30367660522461 0.5000033974647522 46.13756561279297 0.5000033974647522 C 46.96555709838867 0.5000033974647522 47.73069763183594 0.9776533842086792 48.08685684204102 1.716873407363892 L 53.44535827636719 12.74221324920654 L 53.56080627441406 12.9797534942627 L 53.82208633422852 13.01830387115479 L 65.79581451416016 14.78478336334229 C 66.60905456542969 14.90677356719971 67.27610778808594 15.47025299072266 67.53547668457031 16.25515365600586 C 67.79019927978516 17.02603340148926 67.5802001953125 17.89438247680664 67.00048065185547 18.46737289428711 L 58.31788635253906 27.05831336975098 L 58.13315582275391 27.2410831451416 L 58.17658615112305 27.4973030090332 L 60.23469543457031 39.63766479492188 C 60.37058639526367 40.4530029296875 60.03500747680664 41.26591491699219 59.35869598388672 41.75777435302734 C 58.99069595336914 42.02541351318359 58.55421829223633 42.16687393188477 58.09641647338867 42.16687393188477 Z" stroke="none"/>
        <path d="M 46.13756561279297 1.000003814697266 C 45.49584579467773 1.000003814697266 44.9202880859375 1.360382080078125 44.63722610473633 1.936962127685547 L 39.04858779907227 13.43579292297363 L 26.56302642822266 15.27907371520996 C 25.94022369384766 15.37249374389648 25.41510009765625 15.81427383422852 25.22517395019531 16.4045524597168 C 25.03199768066406 17.00496292114258 25.19265747070312 17.67508316040039 25.63485717773438 18.11213302612305 L 34.68640518188477 27.06814384460449 L 32.5505256652832 39.71850204467773 C 32.44655609130859 40.34229278564453 32.71004867553711 40.98250198364258 33.22180557250977 41.34952163696289 C 33.50881576538086 41.55537414550781 33.84783554077148 41.6641731262207 34.20221710205078 41.6641731262207 C 34.47526550292969 41.6641731262207 34.74719619750977 41.59682464599609 34.98439788818359 41.47165298461914 L 46.14589691162109 35.5124626159668 L 57.30315780639648 41.46940231323242 C 57.54793548583984 41.59859466552734 57.82223510742188 41.66687393188477 58.09641647338867 41.66687393188477 C 58.44784545898438 41.66687393188477 58.78263854980469 41.5584831237793 59.06460571289062 41.3534049987793 C 59.58677673339844 40.97365188598633 59.8460578918457 40.34719467163086 59.74173736572266 39.72123336791992 L 57.59675598144531 27.06844329833984 L 66.64898681640625 18.11175346374512 C 67.09471893310547 17.67120361328125 67.25633239746094 17.00401306152344 67.06072998046875 16.41203308105469 C 66.86087036132812 15.80722427368164 66.34729766845703 15.37310409545898 65.72282409667969 15.27942276000977 L 53.22654724121094 13.43585395812988 L 47.63640594482422 1.933895111083984 C 47.36306762695312 1.366584777832031 46.77473831176758 1.000003814697266 46.13756561279297 1.000003814697266 M 46.13756561279297 3.814697265625e-06 C 47.16245651245117 3.814697265625e-06 48.09568786621094 0.5832748413085938 48.53729629516602 1.499843597412109 L 53.89505767822266 12.52365303039551 L 65.8687744140625 14.29013252258301 C 66.86867523193359 14.44012260437012 67.69358825683594 15.14004325866699 68.01022338867188 16.09827423095703 C 68.32685852050781 17.05650329589844 68.06853485107422 18.11472320556641 67.35194396972656 18.82298278808594 L 58.6695556640625 27.41373443603516 L 60.72766876220703 39.55409240722656 C 60.89431762695312 40.55398178100586 60.47768783569336 41.56221389770508 59.65277862548828 42.16214370727539 C 58.82787322998047 42.7620849609375 57.73632431030273 42.82874298095703 56.83640670776367 42.35379409790039 L 46.14589691162109 36.64606475830078 L 35.45537567138672 42.35379409790039 C 34.55547332763672 42.82874298095703 33.46391296386719 42.75375366210938 32.63900756835938 42.16214370727539 C 31.8140983581543 41.5705451965332 31.39747619628906 40.55398178100586 31.56413650512695 39.55409240722656 L 33.61390686035156 27.41373443603516 L 24.93150329589844 18.82298278808594 C 24.21490478515625 18.11472320556641 23.96493530273438 17.05650329589844 24.27323913574219 16.09827423095703 C 24.58153533935547 15.14004325866699 25.41477966308594 14.44012260437012 26.41468048095703 14.29013252258301 L 38.38005828857422 12.52365303039551 L 43.73782730102539 1.499843597412109 C 44.18777847290039 0.5832748413085938 45.11266708374023 3.814697265625e-06 46.13756561279297 3.814697265625e-06 Z" stroke="none" fill="#5d93ff"/>
      </g>
      <g id="star-solid-3" data-name="star-solid" transform="translate(168.856 1010)" fill="#598dff">
        <path d="M 58.09641647338867 42.16687393188477 C 57.74120712280273 42.16686248779297 57.38620758056641 42.07859420776367 57.06978607177734 41.91160202026367 L 46.38138580322266 36.20500183105469 L 46.14589691162109 36.07927322387695 L 45.91040802001953 36.20500183105469 L 35.21988677978516 41.91272354125977 C 34.90892791748047 42.07683181762695 34.55629730224609 42.1641731262207 34.20221710205078 42.1641731262207 C 33.74266815185547 42.1641731262207 33.30288696289062 42.02297210693359 32.9304084777832 41.75583267211914 C 32.26496505737305 41.27861404418945 31.92226600646973 40.4466438293457 32.05733871459961 39.63630294799805 L 34.10692596435547 27.49697303771973 L 34.1501579284668 27.24094390869141 L 33.965576171875 27.05831336975098 L 25.28316688537598 18.46756362915039 C 24.70834732055664 17.8994140625 24.49883651733398 17.02960395812988 24.74921607971191 16.25141334533691 C 24.99684715270996 15.48173332214355 25.6796875 14.90598297119141 26.48884773254395 14.78460311889648 L 38.45307540893555 13.0182933807373 L 38.71432876586914 12.97972297668457 L 38.82975769042969 12.74221324920654 L 44.18752670288086 1.718403339385986 C 44.55613708496094 0.9675434231758118 45.30367660522461 0.5000033974647522 46.13756561279297 0.5000033974647522 C 46.96555709838867 0.5000033974647522 47.73069763183594 0.9776533842086792 48.08685684204102 1.716873407363892 L 53.44535827636719 12.74221324920654 L 53.56080627441406 12.9797534942627 L 53.82208633422852 13.01830387115479 L 65.79581451416016 14.78478336334229 C 66.60905456542969 14.90677356719971 67.27610778808594 15.47025299072266 67.53547668457031 16.25515365600586 C 67.79019927978516 17.02603340148926 67.5802001953125 17.89438247680664 67.00048065185547 18.46737289428711 L 58.31788635253906 27.05831336975098 L 58.13315582275391 27.2410831451416 L 58.17658615112305 27.4973030090332 L 60.23469543457031 39.63766479492188 C 60.37058639526367 40.4530029296875 60.03500747680664 41.26591491699219 59.35869598388672 41.75777435302734 C 58.99069595336914 42.02541351318359 58.55421829223633 42.16687393188477 58.09641647338867 42.16687393188477 Z" stroke="none"/>
        <path d="M 46.13756561279297 1.000003814697266 C 45.49584579467773 1.000003814697266 44.9202880859375 1.360382080078125 44.63722610473633 1.936962127685547 L 39.04858779907227 13.43579292297363 L 26.56302642822266 15.27907371520996 C 25.94022369384766 15.37249374389648 25.41510009765625 15.81427383422852 25.22517395019531 16.4045524597168 C 25.03199768066406 17.00496292114258 25.19265747070312 17.67508316040039 25.63485717773438 18.11213302612305 L 34.68640518188477 27.06814384460449 L 32.5505256652832 39.71850204467773 C 32.44655609130859 40.34229278564453 32.71004867553711 40.98250198364258 33.22180557250977 41.34952163696289 C 33.50881576538086 41.55537414550781 33.84783554077148 41.6641731262207 34.20221710205078 41.6641731262207 C 34.47526550292969 41.6641731262207 34.74719619750977 41.59682464599609 34.98439788818359 41.47165298461914 L 46.14589691162109 35.5124626159668 L 57.30315780639648 41.46940231323242 C 57.54793548583984 41.59859466552734 57.82223510742188 41.66687393188477 58.09641647338867 41.66687393188477 C 58.44784545898438 41.66687393188477 58.78263854980469 41.5584831237793 59.06460571289062 41.3534049987793 C 59.58677673339844 40.97365188598633 59.8460578918457 40.34719467163086 59.74173736572266 39.72123336791992 L 57.59675598144531 27.06844329833984 L 66.64898681640625 18.11175346374512 C 67.09471893310547 17.67120361328125 67.25633239746094 17.00401306152344 67.06072998046875 16.41203308105469 C 66.86087036132812 15.80722427368164 66.34729766845703 15.37310409545898 65.72282409667969 15.27942276000977 L 53.22654724121094 13.43585395812988 L 47.63640594482422 1.933895111083984 C 47.36306762695312 1.366584777832031 46.77473831176758 1.000003814697266 46.13756561279297 1.000003814697266 M 46.13756561279297 3.814697265625e-06 C 47.16245651245117 3.814697265625e-06 48.09568786621094 0.5832748413085938 48.53729629516602 1.499843597412109 L 53.89505767822266 12.52365303039551 L 65.8687744140625 14.29013252258301 C 66.86867523193359 14.44012260437012 67.69358825683594 15.14004325866699 68.01022338867188 16.09827423095703 C 68.32685852050781 17.05650329589844 68.06853485107422 18.11472320556641 67.35194396972656 18.82298278808594 L 58.6695556640625 27.41373443603516 L 60.72766876220703 39.55409240722656 C 60.89431762695312 40.55398178100586 60.47768783569336 41.56221389770508 59.65277862548828 42.16214370727539 C 58.82787322998047 42.7620849609375 57.73632431030273 42.82874298095703 56.83640670776367 42.35379409790039 L 46.14589691162109 36.64606475830078 L 35.45537567138672 42.35379409790039 C 34.55547332763672 42.82874298095703 33.46391296386719 42.75375366210938 32.63900756835938 42.16214370727539 C 31.8140983581543 41.5705451965332 31.39747619628906 40.55398178100586 31.56413650512695 39.55409240722656 L 33.61390686035156 27.41373443603516 L 24.93150329589844 18.82298278808594 C 24.21490478515625 18.11472320556641 23.96493530273438 17.05650329589844 24.27323913574219 16.09827423095703 C 24.58153533935547 15.14004325866699 25.41477966308594 14.44012260437012 26.41468048095703 14.29013252258301 L 38.38005828857422 12.52365303039551 L 43.73782730102539 1.499843597412109 C 44.18777847290039 0.5832748413085938 45.11266708374023 3.814697265625e-06 46.13756561279297 3.814697265625e-06 Z" stroke="none" fill="#5d93ff"/>
      </g>
      <g id="star-solid-4" data-name="star-solid" transform="translate(214.856 1010)" fill="#598dff">
        <path d="M 58.09641647338867 42.16687393188477 C 57.74120712280273 42.16686248779297 57.38620758056641 42.07859420776367 57.06978607177734 41.91160202026367 L 46.38138580322266 36.20500183105469 L 46.14589691162109 36.07927322387695 L 45.91040802001953 36.20500183105469 L 35.21988677978516 41.91272354125977 C 34.90892791748047 42.07683181762695 34.55629730224609 42.1641731262207 34.20221710205078 42.1641731262207 C 33.74266815185547 42.1641731262207 33.30288696289062 42.02297210693359 32.9304084777832 41.75583267211914 C 32.26496505737305 41.27861404418945 31.92226600646973 40.4466438293457 32.05733871459961 39.63630294799805 L 34.10692596435547 27.49697303771973 L 34.1501579284668 27.24094390869141 L 33.965576171875 27.05831336975098 L 25.28316688537598 18.46756362915039 C 24.70834732055664 17.8994140625 24.49883651733398 17.02960395812988 24.74921607971191 16.25141334533691 C 24.99684715270996 15.48173332214355 25.6796875 14.90598297119141 26.48884773254395 14.78460311889648 L 38.45307540893555 13.0182933807373 L 38.71432876586914 12.97972297668457 L 38.82975769042969 12.74221324920654 L 44.18752670288086 1.718403339385986 C 44.55613708496094 0.9675434231758118 45.30367660522461 0.5000033974647522 46.13756561279297 0.5000033974647522 C 46.96555709838867 0.5000033974647522 47.73069763183594 0.9776533842086792 48.08685684204102 1.716873407363892 L 53.44535827636719 12.74221324920654 L 53.56080627441406 12.9797534942627 L 53.82208633422852 13.01830387115479 L 65.79581451416016 14.78478336334229 C 66.60905456542969 14.90677356719971 67.27610778808594 15.47025299072266 67.53547668457031 16.25515365600586 C 67.79019927978516 17.02603340148926 67.5802001953125 17.89438247680664 67.00048065185547 18.46737289428711 L 58.31788635253906 27.05831336975098 L 58.13315582275391 27.2410831451416 L 58.17658615112305 27.4973030090332 L 60.23469543457031 39.63766479492188 C 60.37058639526367 40.4530029296875 60.03500747680664 41.26591491699219 59.35869598388672 41.75777435302734 C 58.99069595336914 42.02541351318359 58.55421829223633 42.16687393188477 58.09641647338867 42.16687393188477 Z" stroke="none"/>
        <path d="M 46.13756561279297 1.000003814697266 C 45.49584579467773 1.000003814697266 44.9202880859375 1.360382080078125 44.63722610473633 1.936962127685547 L 39.04858779907227 13.43579292297363 L 26.56302642822266 15.27907371520996 C 25.94022369384766 15.37249374389648 25.41510009765625 15.81427383422852 25.22517395019531 16.4045524597168 C 25.03199768066406 17.00496292114258 25.19265747070312 17.67508316040039 25.63485717773438 18.11213302612305 L 34.68640518188477 27.06814384460449 L 32.5505256652832 39.71850204467773 C 32.44655609130859 40.34229278564453 32.71004867553711 40.98250198364258 33.22180557250977 41.34952163696289 C 33.50881576538086 41.55537414550781 33.84783554077148 41.6641731262207 34.20221710205078 41.6641731262207 C 34.47526550292969 41.6641731262207 34.74719619750977 41.59682464599609 34.98439788818359 41.47165298461914 L 46.14589691162109 35.5124626159668 L 57.30315780639648 41.46940231323242 C 57.54793548583984 41.59859466552734 57.82223510742188 41.66687393188477 58.09641647338867 41.66687393188477 C 58.44784545898438 41.66687393188477 58.78263854980469 41.5584831237793 59.06460571289062 41.3534049987793 C 59.58677673339844 40.97365188598633 59.8460578918457 40.34719467163086 59.74173736572266 39.72123336791992 L 57.59675598144531 27.06844329833984 L 66.64898681640625 18.11175346374512 C 67.09471893310547 17.67120361328125 67.25633239746094 17.00401306152344 67.06072998046875 16.41203308105469 C 66.86087036132812 15.80722427368164 66.34729766845703 15.37310409545898 65.72282409667969 15.27942276000977 L 53.22654724121094 13.43585395812988 L 47.63640594482422 1.933895111083984 C 47.36306762695312 1.366584777832031 46.77473831176758 1.000003814697266 46.13756561279297 1.000003814697266 M 46.13756561279297 3.814697265625e-06 C 47.16245651245117 3.814697265625e-06 48.09568786621094 0.5832748413085938 48.53729629516602 1.499843597412109 L 53.89505767822266 12.52365303039551 L 65.8687744140625 14.29013252258301 C 66.86867523193359 14.44012260437012 67.69358825683594 15.14004325866699 68.01022338867188 16.09827423095703 C 68.32685852050781 17.05650329589844 68.06853485107422 18.11472320556641 67.35194396972656 18.82298278808594 L 58.6695556640625 27.41373443603516 L 60.72766876220703 39.55409240722656 C 60.89431762695312 40.55398178100586 60.47768783569336 41.56221389770508 59.65277862548828 42.16214370727539 C 58.82787322998047 42.7620849609375 57.73632431030273 42.82874298095703 56.83640670776367 42.35379409790039 L 46.14589691162109 36.64606475830078 L 35.45537567138672 42.35379409790039 C 34.55547332763672 42.82874298095703 33.46391296386719 42.75375366210938 32.63900756835938 42.16214370727539 C 31.8140983581543 41.5705451965332 31.39747619628906 40.55398178100586 31.56413650512695 39.55409240722656 L 33.61390686035156 27.41373443603516 L 24.93150329589844 18.82298278808594 C 24.21490478515625 18.11472320556641 23.96493530273438 17.05650329589844 24.27323913574219 16.09827423095703 C 24.58153533935547 15.14004325866699 25.41477966308594 14.44012260437012 26.41468048095703 14.29013252258301 L 38.38005828857422 12.52365303039551 L 43.73782730102539 1.499843597412109 C 44.18777847290039 0.5832748413085938 45.11266708374023 3.814697265625e-06 46.13756561279297 3.814697265625e-06 Z" stroke="none" fill="#5d93ff"/>
      </g>
      <g id="star-solid-5" data-name="star-solid" transform="translate(260.856 1010)" fill="#598dff">
        <path d="M 58.09641647338867 42.16687393188477 C 57.74120712280273 42.16686248779297 57.38620758056641 42.07859420776367 57.06978607177734 41.91160202026367 L 46.38138580322266 36.20500183105469 L 46.14589691162109 36.07927322387695 L 45.91040802001953 36.20500183105469 L 35.21988677978516 41.91272354125977 C 34.90892791748047 42.07683181762695 34.55629730224609 42.1641731262207 34.20221710205078 42.1641731262207 C 33.74266815185547 42.1641731262207 33.30288696289062 42.02297210693359 32.9304084777832 41.75583267211914 C 32.26496505737305 41.27861404418945 31.92226600646973 40.4466438293457 32.05733871459961 39.63630294799805 L 34.10692596435547 27.49697303771973 L 34.1501579284668 27.24094390869141 L 33.965576171875 27.05831336975098 L 25.28316688537598 18.46756362915039 C 24.70834732055664 17.8994140625 24.49883651733398 17.02960395812988 24.74921607971191 16.25141334533691 C 24.99684715270996 15.48173332214355 25.6796875 14.90598297119141 26.48884773254395 14.78460311889648 L 38.45307540893555 13.0182933807373 L 38.71432876586914 12.97972297668457 L 38.82975769042969 12.74221324920654 L 44.18752670288086 1.718403339385986 C 44.55613708496094 0.9675434231758118 45.30367660522461 0.5000033974647522 46.13756561279297 0.5000033974647522 C 46.96555709838867 0.5000033974647522 47.73069763183594 0.9776533842086792 48.08685684204102 1.716873407363892 L 53.44535827636719 12.74221324920654 L 53.56080627441406 12.9797534942627 L 53.82208633422852 13.01830387115479 L 65.79581451416016 14.78478336334229 C 66.60905456542969 14.90677356719971 67.27610778808594 15.47025299072266 67.53547668457031 16.25515365600586 C 67.79019927978516 17.02603340148926 67.5802001953125 17.89438247680664 67.00048065185547 18.46737289428711 L 58.31788635253906 27.05831336975098 L 58.13315582275391 27.2410831451416 L 58.17658615112305 27.4973030090332 L 60.23469543457031 39.63766479492188 C 60.37058639526367 40.4530029296875 60.03500747680664 41.26591491699219 59.35869598388672 41.75777435302734 C 58.99069595336914 42.02541351318359 58.55421829223633 42.16687393188477 58.09641647338867 42.16687393188477 Z" stroke="none"/>
        <path d="M 46.13756561279297 1.000003814697266 C 45.49584579467773 1.000003814697266 44.9202880859375 1.360382080078125 44.63722610473633 1.936962127685547 L 39.04858779907227 13.43579292297363 L 26.56302642822266 15.27907371520996 C 25.94022369384766 15.37249374389648 25.41510009765625 15.81427383422852 25.22517395019531 16.4045524597168 C 25.03199768066406 17.00496292114258 25.19265747070312 17.67508316040039 25.63485717773438 18.11213302612305 L 34.68640518188477 27.06814384460449 L 32.5505256652832 39.71850204467773 C 32.44655609130859 40.34229278564453 32.71004867553711 40.98250198364258 33.22180557250977 41.34952163696289 C 33.50881576538086 41.55537414550781 33.84783554077148 41.6641731262207 34.20221710205078 41.6641731262207 C 34.47526550292969 41.6641731262207 34.74719619750977 41.59682464599609 34.98439788818359 41.47165298461914 L 46.14589691162109 35.5124626159668 L 57.30315780639648 41.46940231323242 C 57.54793548583984 41.59859466552734 57.82223510742188 41.66687393188477 58.09641647338867 41.66687393188477 C 58.44784545898438 41.66687393188477 58.78263854980469 41.5584831237793 59.06460571289062 41.3534049987793 C 59.58677673339844 40.97365188598633 59.8460578918457 40.34719467163086 59.74173736572266 39.72123336791992 L 57.59675598144531 27.06844329833984 L 66.64898681640625 18.11175346374512 C 67.09471893310547 17.67120361328125 67.25633239746094 17.00401306152344 67.06072998046875 16.41203308105469 C 66.86087036132812 15.80722427368164 66.34729766845703 15.37310409545898 65.72282409667969 15.27942276000977 L 53.22654724121094 13.43585395812988 L 47.63640594482422 1.933895111083984 C 47.36306762695312 1.366584777832031 46.77473831176758 1.000003814697266 46.13756561279297 1.000003814697266 M 46.13756561279297 3.814697265625e-06 C 47.16245651245117 3.814697265625e-06 48.09568786621094 0.5832748413085938 48.53729629516602 1.499843597412109 L 53.89505767822266 12.52365303039551 L 65.8687744140625 14.29013252258301 C 66.86867523193359 14.44012260437012 67.69358825683594 15.14004325866699 68.01022338867188 16.09827423095703 C 68.32685852050781 17.05650329589844 68.06853485107422 18.11472320556641 67.35194396972656 18.82298278808594 L 58.6695556640625 27.41373443603516 L 60.72766876220703 39.55409240722656 C 60.89431762695312 40.55398178100586 60.47768783569336 41.56221389770508 59.65277862548828 42.16214370727539 C 58.82787322998047 42.7620849609375 57.73632431030273 42.82874298095703 56.83640670776367 42.35379409790039 L 46.14589691162109 36.64606475830078 L 35.45537567138672 42.35379409790039 C 34.55547332763672 42.82874298095703 33.46391296386719 42.75375366210938 32.63900756835938 42.16214370727539 C 31.8140983581543 41.5705451965332 31.39747619628906 40.55398178100586 31.56413650512695 39.55409240722656 L 33.61390686035156 27.41373443603516 L 24.93150329589844 18.82298278808594 C 24.21490478515625 18.11472320556641 23.96493530273438 17.05650329589844 24.27323913574219 16.09827423095703 C 24.58153533935547 15.14004325866699 25.41477966308594 14.44012260437012 26.41468048095703 14.29013252258301 L 38.38005828857422 12.52365303039551 L 43.73782730102539 1.499843597412109 C 44.18777847290039 0.5832748413085938 45.11266708374023 3.814697265625e-06 46.13756561279297 3.814697265625e-06 Z" stroke="none" fill="#5d93ff"/>
      </g>
    </g>
    <g id="group_3113" data-name="group 3113" transform="translate(328 -73)">
      <g id="star-solid-6" data-name="star-solid" transform="translate(76.856 1010)" fill="#598dff">
        <path d="M 58.09641647338867 42.16687393188477 C 57.74120712280273 42.16686248779297 57.38620758056641 42.07859420776367 57.06978607177734 41.91160202026367 L 46.38138580322266 36.20500183105469 L 46.14589691162109 36.07927322387695 L 45.91040802001953 36.20500183105469 L 35.21988677978516 41.91272354125977 C 34.90892791748047 42.07683181762695 34.55629730224609 42.1641731262207 34.20221710205078 42.1641731262207 C 33.74266815185547 42.1641731262207 33.30288696289062 42.02297210693359 32.9304084777832 41.75583267211914 C 32.26496505737305 41.27861404418945 31.92226600646973 40.4466438293457 32.05733871459961 39.63630294799805 L 34.10692596435547 27.49697303771973 L 34.1501579284668 27.24094390869141 L 33.965576171875 27.05831336975098 L 25.28316688537598 18.46756362915039 C 24.70834732055664 17.8994140625 24.49883651733398 17.02960395812988 24.74921607971191 16.25141334533691 C 24.99684715270996 15.48173332214355 25.6796875 14.90598297119141 26.48884773254395 14.78460311889648 L 38.45307540893555 13.0182933807373 L 38.71432876586914 12.97972297668457 L 38.82975769042969 12.74221324920654 L 44.18752670288086 1.718403339385986 C 44.55613708496094 0.9675434231758118 45.30367660522461 0.5000033974647522 46.13756561279297 0.5000033974647522 C 46.96555709838867 0.5000033974647522 47.73069763183594 0.9776533842086792 48.08685684204102 1.716873407363892 L 53.44535827636719 12.74221324920654 L 53.56080627441406 12.9797534942627 L 53.82208633422852 13.01830387115479 L 65.79581451416016 14.78478336334229 C 66.60905456542969 14.90677356719971 67.27610778808594 15.47025299072266 67.53547668457031 16.25515365600586 C 67.79019927978516 17.02603340148926 67.5802001953125 17.89438247680664 67.00048065185547 18.46737289428711 L 58.31788635253906 27.05831336975098 L 58.13315582275391 27.2410831451416 L 58.17658615112305 27.4973030090332 L 60.23469543457031 39.63766479492188 C 60.37058639526367 40.4530029296875 60.03500747680664 41.26591491699219 59.35869598388672 41.75777435302734 C 58.99069595336914 42.02541351318359 58.55421829223633 42.16687393188477 58.09641647338867 42.16687393188477 Z" stroke="none"/>
        <path d="M 46.13756561279297 1.000003814697266 C 45.49584579467773 1.000003814697266 44.9202880859375 1.360382080078125 44.63722610473633 1.936962127685547 L 39.04858779907227 13.43579292297363 L 26.56302642822266 15.27907371520996 C 25.94022369384766 15.37249374389648 25.41510009765625 15.81427383422852 25.22517395019531 16.4045524597168 C 25.03199768066406 17.00496292114258 25.19265747070312 17.67508316040039 25.63485717773438 18.11213302612305 L 34.68640518188477 27.06814384460449 L 32.5505256652832 39.71850204467773 C 32.44655609130859 40.34229278564453 32.71004867553711 40.98250198364258 33.22180557250977 41.34952163696289 C 33.50881576538086 41.55537414550781 33.84783554077148 41.6641731262207 34.20221710205078 41.6641731262207 C 34.47526550292969 41.6641731262207 34.74719619750977 41.59682464599609 34.98439788818359 41.47165298461914 L 46.14589691162109 35.5124626159668 L 57.30315780639648 41.46940231323242 C 57.54793548583984 41.59859466552734 57.82223510742188 41.66687393188477 58.09641647338867 41.66687393188477 C 58.44784545898438 41.66687393188477 58.78263854980469 41.5584831237793 59.06460571289062 41.3534049987793 C 59.58677673339844 40.97365188598633 59.8460578918457 40.34719467163086 59.74173736572266 39.72123336791992 L 57.59675598144531 27.06844329833984 L 66.64898681640625 18.11175346374512 C 67.09471893310547 17.67120361328125 67.25633239746094 17.00401306152344 67.06072998046875 16.41203308105469 C 66.86087036132812 15.80722427368164 66.34729766845703 15.37310409545898 65.72282409667969 15.27942276000977 L 53.22654724121094 13.43585395812988 L 47.63640594482422 1.933895111083984 C 47.36306762695312 1.366584777832031 46.77473831176758 1.000003814697266 46.13756561279297 1.000003814697266 M 46.13756561279297 3.814697265625e-06 C 47.16245651245117 3.814697265625e-06 48.09568786621094 0.5832748413085938 48.53729629516602 1.499843597412109 L 53.89505767822266 12.52365303039551 L 65.8687744140625 14.29013252258301 C 66.86867523193359 14.44012260437012 67.69358825683594 15.14004325866699 68.01022338867188 16.09827423095703 C 68.32685852050781 17.05650329589844 68.06853485107422 18.11472320556641 67.35194396972656 18.82298278808594 L 58.6695556640625 27.41373443603516 L 60.72766876220703 39.55409240722656 C 60.89431762695312 40.55398178100586 60.47768783569336 41.56221389770508 59.65277862548828 42.16214370727539 C 58.82787322998047 42.7620849609375 57.73632431030273 42.82874298095703 56.83640670776367 42.35379409790039 L 46.14589691162109 36.64606475830078 L 35.45537567138672 42.35379409790039 C 34.55547332763672 42.82874298095703 33.46391296386719 42.75375366210938 32.63900756835938 42.16214370727539 C 31.8140983581543 41.5705451965332 31.39747619628906 40.55398178100586 31.56413650512695 39.55409240722656 L 33.61390686035156 27.41373443603516 L 24.93150329589844 18.82298278808594 C 24.21490478515625 18.11472320556641 23.96493530273438 17.05650329589844 24.27323913574219 16.09827423095703 C 24.58153533935547 15.14004325866699 25.41477966308594 14.44012260437012 26.41468048095703 14.29013252258301 L 38.38005828857422 12.52365303039551 L 43.73782730102539 1.499843597412109 C 44.18777847290039 0.5832748413085938 45.11266708374023 3.814697265625e-06 46.13756561279297 3.814697265625e-06 Z" stroke="none" fill="#5d93ff"/>
      </g>
      <g id="star-solid-7" data-name="star-solid" transform="translate(122.856 1010)" fill="#598dff">
        <path d="M 58.09641647338867 42.16687393188477 C 57.74120712280273 42.16686248779297 57.38620758056641 42.07859420776367 57.06978607177734 41.91160202026367 L 46.38138580322266 36.20500183105469 L 46.14589691162109 36.07927322387695 L 45.91040802001953 36.20500183105469 L 35.21988677978516 41.91272354125977 C 34.90892791748047 42.07683181762695 34.55629730224609 42.1641731262207 34.20221710205078 42.1641731262207 C 33.74266815185547 42.1641731262207 33.30288696289062 42.02297210693359 32.9304084777832 41.75583267211914 C 32.26496505737305 41.27861404418945 31.92226600646973 40.4466438293457 32.05733871459961 39.63630294799805 L 34.10692596435547 27.49697303771973 L 34.1501579284668 27.24094390869141 L 33.965576171875 27.05831336975098 L 25.28316688537598 18.46756362915039 C 24.70834732055664 17.8994140625 24.49883651733398 17.02960395812988 24.74921607971191 16.25141334533691 C 24.99684715270996 15.48173332214355 25.6796875 14.90598297119141 26.48884773254395 14.78460311889648 L 38.45307540893555 13.0182933807373 L 38.71432876586914 12.97972297668457 L 38.82975769042969 12.74221324920654 L 44.18752670288086 1.718403339385986 C 44.55613708496094 0.9675434231758118 45.30367660522461 0.5000033974647522 46.13756561279297 0.5000033974647522 C 46.96555709838867 0.5000033974647522 47.73069763183594 0.9776533842086792 48.08685684204102 1.716873407363892 L 53.44535827636719 12.74221324920654 L 53.56080627441406 12.9797534942627 L 53.82208633422852 13.01830387115479 L 65.79581451416016 14.78478336334229 C 66.60905456542969 14.90677356719971 67.27610778808594 15.47025299072266 67.53547668457031 16.25515365600586 C 67.79019927978516 17.02603340148926 67.5802001953125 17.89438247680664 67.00048065185547 18.46737289428711 L 58.31788635253906 27.05831336975098 L 58.13315582275391 27.2410831451416 L 58.17658615112305 27.4973030090332 L 60.23469543457031 39.63766479492188 C 60.37058639526367 40.4530029296875 60.03500747680664 41.26591491699219 59.35869598388672 41.75777435302734 C 58.99069595336914 42.02541351318359 58.55421829223633 42.16687393188477 58.09641647338867 42.16687393188477 Z" stroke="none"/>
        <path d="M 46.13756561279297 1.000003814697266 C 45.49584579467773 1.000003814697266 44.9202880859375 1.360382080078125 44.63722610473633 1.936962127685547 L 39.04858779907227 13.43579292297363 L 26.56302642822266 15.27907371520996 C 25.94022369384766 15.37249374389648 25.41510009765625 15.81427383422852 25.22517395019531 16.4045524597168 C 25.03199768066406 17.00496292114258 25.19265747070312 17.67508316040039 25.63485717773438 18.11213302612305 L 34.68640518188477 27.06814384460449 L 32.5505256652832 39.71850204467773 C 32.44655609130859 40.34229278564453 32.71004867553711 40.98250198364258 33.22180557250977 41.34952163696289 C 33.50881576538086 41.55537414550781 33.84783554077148 41.6641731262207 34.20221710205078 41.6641731262207 C 34.47526550292969 41.6641731262207 34.74719619750977 41.59682464599609 34.98439788818359 41.47165298461914 L 46.14589691162109 35.5124626159668 L 57.30315780639648 41.46940231323242 C 57.54793548583984 41.59859466552734 57.82223510742188 41.66687393188477 58.09641647338867 41.66687393188477 C 58.44784545898438 41.66687393188477 58.78263854980469 41.5584831237793 59.06460571289062 41.3534049987793 C 59.58677673339844 40.97365188598633 59.8460578918457 40.34719467163086 59.74173736572266 39.72123336791992 L 57.59675598144531 27.06844329833984 L 66.64898681640625 18.11175346374512 C 67.09471893310547 17.67120361328125 67.25633239746094 17.00401306152344 67.06072998046875 16.41203308105469 C 66.86087036132812 15.80722427368164 66.34729766845703 15.37310409545898 65.72282409667969 15.27942276000977 L 53.22654724121094 13.43585395812988 L 47.63640594482422 1.933895111083984 C 47.36306762695312 1.366584777832031 46.77473831176758 1.000003814697266 46.13756561279297 1.000003814697266 M 46.13756561279297 3.814697265625e-06 C 47.16245651245117 3.814697265625e-06 48.09568786621094 0.5832748413085938 48.53729629516602 1.499843597412109 L 53.89505767822266 12.52365303039551 L 65.8687744140625 14.29013252258301 C 66.86867523193359 14.44012260437012 67.69358825683594 15.14004325866699 68.01022338867188 16.09827423095703 C 68.32685852050781 17.05650329589844 68.06853485107422 18.11472320556641 67.35194396972656 18.82298278808594 L 58.6695556640625 27.41373443603516 L 60.72766876220703 39.55409240722656 C 60.89431762695312 40.55398178100586 60.47768783569336 41.56221389770508 59.65277862548828 42.16214370727539 C 58.82787322998047 42.7620849609375 57.73632431030273 42.82874298095703 56.83640670776367 42.35379409790039 L 46.14589691162109 36.64606475830078 L 35.45537567138672 42.35379409790039 C 34.55547332763672 42.82874298095703 33.46391296386719 42.75375366210938 32.63900756835938 42.16214370727539 C 31.8140983581543 41.5705451965332 31.39747619628906 40.55398178100586 31.56413650512695 39.55409240722656 L 33.61390686035156 27.41373443603516 L 24.93150329589844 18.82298278808594 C 24.21490478515625 18.11472320556641 23.96493530273438 17.05650329589844 24.27323913574219 16.09827423095703 C 24.58153533935547 15.14004325866699 25.41477966308594 14.44012260437012 26.41468048095703 14.29013252258301 L 38.38005828857422 12.52365303039551 L 43.73782730102539 1.499843597412109 C 44.18777847290039 0.5832748413085938 45.11266708374023 3.814697265625e-06 46.13756561279297 3.814697265625e-06 Z" stroke="none" fill="#5d93ff"/>
      </g>
      <g id="star-solid-8" data-name="star-solid" transform="translate(168.856 1010)" fill="#598dff">
        <path d="M 58.09641647338867 42.16687393188477 C 57.74120712280273 42.16686248779297 57.38620758056641 42.07859420776367 57.06978607177734 41.91160202026367 L 46.38138580322266 36.20500183105469 L 46.14589691162109 36.07927322387695 L 45.91040802001953 36.20500183105469 L 35.21988677978516 41.91272354125977 C 34.90892791748047 42.07683181762695 34.55629730224609 42.1641731262207 34.20221710205078 42.1641731262207 C 33.74266815185547 42.1641731262207 33.30288696289062 42.02297210693359 32.9304084777832 41.75583267211914 C 32.26496505737305 41.27861404418945 31.92226600646973 40.4466438293457 32.05733871459961 39.63630294799805 L 34.10692596435547 27.49697303771973 L 34.1501579284668 27.24094390869141 L 33.965576171875 27.05831336975098 L 25.28316688537598 18.46756362915039 C 24.70834732055664 17.8994140625 24.49883651733398 17.02960395812988 24.74921607971191 16.25141334533691 C 24.99684715270996 15.48173332214355 25.6796875 14.90598297119141 26.48884773254395 14.78460311889648 L 38.45307540893555 13.0182933807373 L 38.71432876586914 12.97972297668457 L 38.82975769042969 12.74221324920654 L 44.18752670288086 1.718403339385986 C 44.55613708496094 0.9675434231758118 45.30367660522461 0.5000033974647522 46.13756561279297 0.5000033974647522 C 46.96555709838867 0.5000033974647522 47.73069763183594 0.9776533842086792 48.08685684204102 1.716873407363892 L 53.44535827636719 12.74221324920654 L 53.56080627441406 12.9797534942627 L 53.82208633422852 13.01830387115479 L 65.79581451416016 14.78478336334229 C 66.60905456542969 14.90677356719971 67.27610778808594 15.47025299072266 67.53547668457031 16.25515365600586 C 67.79019927978516 17.02603340148926 67.5802001953125 17.89438247680664 67.00048065185547 18.46737289428711 L 58.31788635253906 27.05831336975098 L 58.13315582275391 27.2410831451416 L 58.17658615112305 27.4973030090332 L 60.23469543457031 39.63766479492188 C 60.37058639526367 40.4530029296875 60.03500747680664 41.26591491699219 59.35869598388672 41.75777435302734 C 58.99069595336914 42.02541351318359 58.55421829223633 42.16687393188477 58.09641647338867 42.16687393188477 Z" stroke="none"/>
        <path d="M 46.13756561279297 1.000003814697266 C 45.49584579467773 1.000003814697266 44.9202880859375 1.360382080078125 44.63722610473633 1.936962127685547 L 39.04858779907227 13.43579292297363 L 26.56302642822266 15.27907371520996 C 25.94022369384766 15.37249374389648 25.41510009765625 15.81427383422852 25.22517395019531 16.4045524597168 C 25.03199768066406 17.00496292114258 25.19265747070312 17.67508316040039 25.63485717773438 18.11213302612305 L 34.68640518188477 27.06814384460449 L 32.5505256652832 39.71850204467773 C 32.44655609130859 40.34229278564453 32.71004867553711 40.98250198364258 33.22180557250977 41.34952163696289 C 33.50881576538086 41.55537414550781 33.84783554077148 41.6641731262207 34.20221710205078 41.6641731262207 C 34.47526550292969 41.6641731262207 34.74719619750977 41.59682464599609 34.98439788818359 41.47165298461914 L 46.14589691162109 35.5124626159668 L 57.30315780639648 41.46940231323242 C 57.54793548583984 41.59859466552734 57.82223510742188 41.66687393188477 58.09641647338867 41.66687393188477 C 58.44784545898438 41.66687393188477 58.78263854980469 41.5584831237793 59.06460571289062 41.3534049987793 C 59.58677673339844 40.97365188598633 59.8460578918457 40.34719467163086 59.74173736572266 39.72123336791992 L 57.59675598144531 27.06844329833984 L 66.64898681640625 18.11175346374512 C 67.09471893310547 17.67120361328125 67.25633239746094 17.00401306152344 67.06072998046875 16.41203308105469 C 66.86087036132812 15.80722427368164 66.34729766845703 15.37310409545898 65.72282409667969 15.27942276000977 L 53.22654724121094 13.43585395812988 L 47.63640594482422 1.933895111083984 C 47.36306762695312 1.366584777832031 46.77473831176758 1.000003814697266 46.13756561279297 1.000003814697266 M 46.13756561279297 3.814697265625e-06 C 47.16245651245117 3.814697265625e-06 48.09568786621094 0.5832748413085938 48.53729629516602 1.499843597412109 L 53.89505767822266 12.52365303039551 L 65.8687744140625 14.29013252258301 C 66.86867523193359 14.44012260437012 67.69358825683594 15.14004325866699 68.01022338867188 16.09827423095703 C 68.32685852050781 17.05650329589844 68.06853485107422 18.11472320556641 67.35194396972656 18.82298278808594 L 58.6695556640625 27.41373443603516 L 60.72766876220703 39.55409240722656 C 60.89431762695312 40.55398178100586 60.47768783569336 41.56221389770508 59.65277862548828 42.16214370727539 C 58.82787322998047 42.7620849609375 57.73632431030273 42.82874298095703 56.83640670776367 42.35379409790039 L 46.14589691162109 36.64606475830078 L 35.45537567138672 42.35379409790039 C 34.55547332763672 42.82874298095703 33.46391296386719 42.75375366210938 32.63900756835938 42.16214370727539 C 31.8140983581543 41.5705451965332 31.39747619628906 40.55398178100586 31.56413650512695 39.55409240722656 L 33.61390686035156 27.41373443603516 L 24.93150329589844 18.82298278808594 C 24.21490478515625 18.11472320556641 23.96493530273438 17.05650329589844 24.27323913574219 16.09827423095703 C 24.58153533935547 15.14004325866699 25.41477966308594 14.44012260437012 26.41468048095703 14.29013252258301 L 38.38005828857422 12.52365303039551 L 43.73782730102539 1.499843597412109 C 44.18777847290039 0.5832748413085938 45.11266708374023 3.814697265625e-06 46.13756561279297 3.814697265625e-06 Z" stroke="none" fill="#5d93ff"/>
      </g>
      <g id="star-solid-9" data-name="star-solid" transform="translate(214.856 1010)" fill="#598dff">
        <path d="M 58.09641647338867 42.16687393188477 C 57.74120712280273 42.16686248779297 57.38620758056641 42.07859420776367 57.06978607177734 41.91160202026367 L 46.38138580322266 36.20500183105469 L 46.14589691162109 36.07927322387695 L 45.91040802001953 36.20500183105469 L 35.21988677978516 41.91272354125977 C 34.90892791748047 42.07683181762695 34.55629730224609 42.1641731262207 34.20221710205078 42.1641731262207 C 33.74266815185547 42.1641731262207 33.30288696289062 42.02297210693359 32.9304084777832 41.75583267211914 C 32.26496505737305 41.27861404418945 31.92226600646973 40.4466438293457 32.05733871459961 39.63630294799805 L 34.10692596435547 27.49697303771973 L 34.1501579284668 27.24094390869141 L 33.965576171875 27.05831336975098 L 25.28316688537598 18.46756362915039 C 24.70834732055664 17.8994140625 24.49883651733398 17.02960395812988 24.74921607971191 16.25141334533691 C 24.99684715270996 15.48173332214355 25.6796875 14.90598297119141 26.48884773254395 14.78460311889648 L 38.45307540893555 13.0182933807373 L 38.71432876586914 12.97972297668457 L 38.82975769042969 12.74221324920654 L 44.18752670288086 1.718403339385986 C 44.55613708496094 0.9675434231758118 45.30367660522461 0.5000033974647522 46.13756561279297 0.5000033974647522 C 46.96555709838867 0.5000033974647522 47.73069763183594 0.9776533842086792 48.08685684204102 1.716873407363892 L 53.44535827636719 12.74221324920654 L 53.56080627441406 12.9797534942627 L 53.82208633422852 13.01830387115479 L 65.79581451416016 14.78478336334229 C 66.60905456542969 14.90677356719971 67.27610778808594 15.47025299072266 67.53547668457031 16.25515365600586 C 67.79019927978516 17.02603340148926 67.5802001953125 17.89438247680664 67.00048065185547 18.46737289428711 L 58.31788635253906 27.05831336975098 L 58.13315582275391 27.2410831451416 L 58.17658615112305 27.4973030090332 L 60.23469543457031 39.63766479492188 C 60.37058639526367 40.4530029296875 60.03500747680664 41.26591491699219 59.35869598388672 41.75777435302734 C 58.99069595336914 42.02541351318359 58.55421829223633 42.16687393188477 58.09641647338867 42.16687393188477 Z" stroke="none"/>
        <path d="M 46.13756561279297 1.000003814697266 C 45.49584579467773 1.000003814697266 44.9202880859375 1.360382080078125 44.63722610473633 1.936962127685547 L 39.04858779907227 13.43579292297363 L 26.56302642822266 15.27907371520996 C 25.94022369384766 15.37249374389648 25.41510009765625 15.81427383422852 25.22517395019531 16.4045524597168 C 25.03199768066406 17.00496292114258 25.19265747070312 17.67508316040039 25.63485717773438 18.11213302612305 L 34.68640518188477 27.06814384460449 L 32.5505256652832 39.71850204467773 C 32.44655609130859 40.34229278564453 32.71004867553711 40.98250198364258 33.22180557250977 41.34952163696289 C 33.50881576538086 41.55537414550781 33.84783554077148 41.6641731262207 34.20221710205078 41.6641731262207 C 34.47526550292969 41.6641731262207 34.74719619750977 41.59682464599609 34.98439788818359 41.47165298461914 L 46.14589691162109 35.5124626159668 L 57.30315780639648 41.46940231323242 C 57.54793548583984 41.59859466552734 57.82223510742188 41.66687393188477 58.09641647338867 41.66687393188477 C 58.44784545898438 41.66687393188477 58.78263854980469 41.5584831237793 59.06460571289062 41.3534049987793 C 59.58677673339844 40.97365188598633 59.8460578918457 40.34719467163086 59.74173736572266 39.72123336791992 L 57.59675598144531 27.06844329833984 L 66.64898681640625 18.11175346374512 C 67.09471893310547 17.67120361328125 67.25633239746094 17.00401306152344 67.06072998046875 16.41203308105469 C 66.86087036132812 15.80722427368164 66.34729766845703 15.37310409545898 65.72282409667969 15.27942276000977 L 53.22654724121094 13.43585395812988 L 47.63640594482422 1.933895111083984 C 47.36306762695312 1.366584777832031 46.77473831176758 1.000003814697266 46.13756561279297 1.000003814697266 M 46.13756561279297 3.814697265625e-06 C 47.16245651245117 3.814697265625e-06 48.09568786621094 0.5832748413085938 48.53729629516602 1.499843597412109 L 53.89505767822266 12.52365303039551 L 65.8687744140625 14.29013252258301 C 66.86867523193359 14.44012260437012 67.69358825683594 15.14004325866699 68.01022338867188 16.09827423095703 C 68.32685852050781 17.05650329589844 68.06853485107422 18.11472320556641 67.35194396972656 18.82298278808594 L 58.6695556640625 27.41373443603516 L 60.72766876220703 39.55409240722656 C 60.89431762695312 40.55398178100586 60.47768783569336 41.56221389770508 59.65277862548828 42.16214370727539 C 58.82787322998047 42.7620849609375 57.73632431030273 42.82874298095703 56.83640670776367 42.35379409790039 L 46.14589691162109 36.64606475830078 L 35.45537567138672 42.35379409790039 C 34.55547332763672 42.82874298095703 33.46391296386719 42.75375366210938 32.63900756835938 42.16214370727539 C 31.8140983581543 41.5705451965332 31.39747619628906 40.55398178100586 31.56413650512695 39.55409240722656 L 33.61390686035156 27.41373443603516 L 24.93150329589844 18.82298278808594 C 24.21490478515625 18.11472320556641 23.96493530273438 17.05650329589844 24.27323913574219 16.09827423095703 C 24.58153533935547 15.14004325866699 25.41477966308594 14.44012260437012 26.41468048095703 14.29013252258301 L 38.38005828857422 12.52365303039551 L 43.73782730102539 1.499843597412109 C 44.18777847290039 0.5832748413085938 45.11266708374023 3.814697265625e-06 46.13756561279297 3.814697265625e-06 Z" stroke="none" fill="#5d93ff"/>
      </g>
      <g id="star-solid-10" data-name="star-solid" transform="translate(260.856 1010)" fill="rgba(89,141,255,0)">
        <path d="M 34.6340446472168 39.39150238037109 L 36.57203674316406 27.91318321228027 L 36.83141708374023 26.37696266174316 L 35.72393798828125 25.28118324279785 L 27.51613998413086 17.16003608703613 L 38.81820678710938 15.49148368835449 L 40.38565826416016 15.2600736618042 L 41.0782585144043 13.83502292633057 L 46.1375617980957 3.42531681060791 L 51.19685745239258 13.83502292633057 L 51.8895378112793 15.26025295257568 L 53.45720672607422 15.49153327941895 L 64.76725006103516 17.16009902954102 L 56.55951690673828 25.28118324279785 L 55.45114517211914 26.37786293029785 L 55.71175765991211 27.91515350341797 L 57.65725708007812 39.39124298095703 L 47.558837890625 33.9996452331543 L 46.14589691162109 33.24526214599609 L 44.73295593261719 33.9996452331543 L 34.6340446472168 39.39150238037109 Z" stroke="none"/>
        <path d="M 46.13756942749023 10.28833770751953 L 42.39127349853516 17.99650192260742 L 33.89463043212891 19.25087547302246 L 40.04891967773438 25.34019660949707 L 38.60901260375977 33.86843490600586 L 46.14589691162109 29.84445571899414 L 53.67773818969727 33.86577606201172 L 52.23273086547852 25.34198570251465 L 58.38822555541992 19.25147819519043 L 49.88402557373047 17.99685668945312 L 46.13756942749023 10.28833770751953 M 46.13756561279297 -3.814697265625e-06 C 47.16246032714844 -3.814697265625e-06 48.09569549560547 0.5832672119140625 48.53729629516602 1.499843597412109 L 53.89506149291992 12.52365493774414 L 65.86878204345703 14.29013824462891 C 66.86867523193359 14.44011497497559 67.69358825683594 15.14004325866699 68.01022338867188 16.09827995300293 C 68.32685852050781 17.05650329589844 68.06853485107422 18.11472702026367 67.35195922851562 18.82298469543457 L 58.6695556640625 27.41372680664062 L 60.7276611328125 39.55409240722656 C 60.89431762695312 40.55398559570312 60.47768402099609 41.56221008300781 59.65277862548828 42.16215133666992 C 58.82787704467773 42.76207733154297 57.736328125 42.82875061035156 56.83640289306641 42.35378646850586 L 46.14589691162109 36.64606857299805 L 35.45537948608398 42.35378646850586 C 34.55545425415039 42.82875442504883 33.46391296386719 42.75374603271484 32.63900375366211 42.16215133666992 C 31.8140983581543 41.57054901123047 31.3974723815918 40.55398559570312 31.56413269042969 39.55409240722656 L 33.61390686035156 27.41372680664062 L 24.93149566650391 18.82298469543457 C 24.21491241455078 18.11472702026367 23.96493530273438 17.05650329589844 24.27323913574219 16.09827995300293 C 24.58154296875 15.14004325866699 25.41477966308594 14.44011497497559 26.4146728515625 14.29013824462891 L 38.38006210327148 12.52365493774414 L 43.73782730102539 1.499843597412109 C 44.18777847290039 0.5832672119140625 45.11267471313477 -3.814697265625e-06 46.13756561279297 -3.814697265625e-06 Z" stroke="none" fill="#5d93ff"/>
      </g>
    </g>
    <g id="group_3114" data-name="group 3114" transform="translate(652 -73)">
      <g id="star-solid-11" data-name="star-solid" transform="translate(76.856 1010)" fill="#598dff">
        <path d="M 58.09641647338867 42.16687393188477 C 57.74120712280273 42.16686248779297 57.38620758056641 42.07859420776367 57.06978607177734 41.91160202026367 L 46.38138580322266 36.20500183105469 L 46.14589691162109 36.07927322387695 L 45.91040802001953 36.20500183105469 L 35.21988677978516 41.91272354125977 C 34.90892791748047 42.07683181762695 34.55629730224609 42.1641731262207 34.20221710205078 42.1641731262207 C 33.74266815185547 42.1641731262207 33.30288696289062 42.02297210693359 32.9304084777832 41.75583267211914 C 32.26496505737305 41.27861404418945 31.92226600646973 40.4466438293457 32.05733871459961 39.63630294799805 L 34.10692596435547 27.49697303771973 L 34.1501579284668 27.24094390869141 L 33.965576171875 27.05831336975098 L 25.28316688537598 18.46756362915039 C 24.70834732055664 17.8994140625 24.49883651733398 17.02960395812988 24.74921607971191 16.25141334533691 C 24.99684715270996 15.48173332214355 25.6796875 14.90598297119141 26.48884773254395 14.78460311889648 L 38.45307540893555 13.0182933807373 L 38.71432876586914 12.97972297668457 L 38.82975769042969 12.74221324920654 L 44.18752670288086 1.718403339385986 C 44.55613708496094 0.9675434231758118 45.30367660522461 0.5000033974647522 46.13756561279297 0.5000033974647522 C 46.96555709838867 0.5000033974647522 47.73069763183594 0.9776533842086792 48.08685684204102 1.716873407363892 L 53.44535827636719 12.74221324920654 L 53.56080627441406 12.9797534942627 L 53.82208633422852 13.01830387115479 L 65.79581451416016 14.78478336334229 C 66.60905456542969 14.90677356719971 67.27610778808594 15.47025299072266 67.53547668457031 16.25515365600586 C 67.79019927978516 17.02603340148926 67.5802001953125 17.89438247680664 67.00048065185547 18.46737289428711 L 58.31788635253906 27.05831336975098 L 58.13315582275391 27.2410831451416 L 58.17658615112305 27.4973030090332 L 60.23469543457031 39.63766479492188 C 60.37058639526367 40.4530029296875 60.03500747680664 41.26591491699219 59.35869598388672 41.75777435302734 C 58.99069595336914 42.02541351318359 58.55421829223633 42.16687393188477 58.09641647338867 42.16687393188477 Z" stroke="none"/>
        <path d="M 46.13756561279297 1.000003814697266 C 45.49584579467773 1.000003814697266 44.9202880859375 1.360382080078125 44.63722610473633 1.936962127685547 L 39.04858779907227 13.43579292297363 L 26.56302642822266 15.27907371520996 C 25.94022369384766 15.37249374389648 25.41510009765625 15.81427383422852 25.22517395019531 16.4045524597168 C 25.03199768066406 17.00496292114258 25.19265747070312 17.67508316040039 25.63485717773438 18.11213302612305 L 34.68640518188477 27.06814384460449 L 32.5505256652832 39.71850204467773 C 32.44655609130859 40.34229278564453 32.71004867553711 40.98250198364258 33.22180557250977 41.34952163696289 C 33.50881576538086 41.55537414550781 33.84783554077148 41.6641731262207 34.20221710205078 41.6641731262207 C 34.47526550292969 41.6641731262207 34.74719619750977 41.59682464599609 34.98439788818359 41.47165298461914 L 46.14589691162109 35.5124626159668 L 57.30315780639648 41.46940231323242 C 57.54793548583984 41.59859466552734 57.82223510742188 41.66687393188477 58.09641647338867 41.66687393188477 C 58.44784545898438 41.66687393188477 58.78263854980469 41.5584831237793 59.06460571289062 41.3534049987793 C 59.58677673339844 40.97365188598633 59.8460578918457 40.34719467163086 59.74173736572266 39.72123336791992 L 57.59675598144531 27.06844329833984 L 66.64898681640625 18.11175346374512 C 67.09471893310547 17.67120361328125 67.25633239746094 17.00401306152344 67.06072998046875 16.41203308105469 C 66.86087036132812 15.80722427368164 66.34729766845703 15.37310409545898 65.72282409667969 15.27942276000977 L 53.22654724121094 13.43585395812988 L 47.63640594482422 1.933895111083984 C 47.36306762695312 1.366584777832031 46.77473831176758 1.000003814697266 46.13756561279297 1.000003814697266 M 46.13756561279297 3.814697265625e-06 C 47.16245651245117 3.814697265625e-06 48.09568786621094 0.5832748413085938 48.53729629516602 1.499843597412109 L 53.89505767822266 12.52365303039551 L 65.8687744140625 14.29013252258301 C 66.86867523193359 14.44012260437012 67.69358825683594 15.14004325866699 68.01022338867188 16.09827423095703 C 68.32685852050781 17.05650329589844 68.06853485107422 18.11472320556641 67.35194396972656 18.82298278808594 L 58.6695556640625 27.41373443603516 L 60.72766876220703 39.55409240722656 C 60.89431762695312 40.55398178100586 60.47768783569336 41.56221389770508 59.65277862548828 42.16214370727539 C 58.82787322998047 42.7620849609375 57.73632431030273 42.82874298095703 56.83640670776367 42.35379409790039 L 46.14589691162109 36.64606475830078 L 35.45537567138672 42.35379409790039 C 34.55547332763672 42.82874298095703 33.46391296386719 42.75375366210938 32.63900756835938 42.16214370727539 C 31.8140983581543 41.5705451965332 31.39747619628906 40.55398178100586 31.56413650512695 39.55409240722656 L 33.61390686035156 27.41373443603516 L 24.93150329589844 18.82298278808594 C 24.21490478515625 18.11472320556641 23.96493530273438 17.05650329589844 24.27323913574219 16.09827423095703 C 24.58153533935547 15.14004325866699 25.41477966308594 14.44012260437012 26.41468048095703 14.29013252258301 L 38.38005828857422 12.52365303039551 L 43.73782730102539 1.499843597412109 C 44.18777847290039 0.5832748413085938 45.11266708374023 3.814697265625e-06 46.13756561279297 3.814697265625e-06 Z" stroke="none" fill="#5d93ff"/>
      </g>
      <g id="star-solid-12" data-name="star-solid" transform="translate(122.856 1010)" fill="#598dff">
        <path d="M 58.09641647338867 42.16687393188477 C 57.74120712280273 42.16686248779297 57.38620758056641 42.07859420776367 57.06978607177734 41.91160202026367 L 46.38138580322266 36.20500183105469 L 46.14589691162109 36.07927322387695 L 45.91040802001953 36.20500183105469 L 35.21988677978516 41.91272354125977 C 34.90892791748047 42.07683181762695 34.55629730224609 42.1641731262207 34.20221710205078 42.1641731262207 C 33.74266815185547 42.1641731262207 33.30288696289062 42.02297210693359 32.9304084777832 41.75583267211914 C 32.26496505737305 41.27861404418945 31.92226600646973 40.4466438293457 32.05733871459961 39.63630294799805 L 34.10692596435547 27.49697303771973 L 34.1501579284668 27.24094390869141 L 33.965576171875 27.05831336975098 L 25.28316688537598 18.46756362915039 C 24.70834732055664 17.8994140625 24.49883651733398 17.02960395812988 24.74921607971191 16.25141334533691 C 24.99684715270996 15.48173332214355 25.6796875 14.90598297119141 26.48884773254395 14.78460311889648 L 38.45307540893555 13.0182933807373 L 38.71432876586914 12.97972297668457 L 38.82975769042969 12.74221324920654 L 44.18752670288086 1.718403339385986 C 44.55613708496094 0.9675434231758118 45.30367660522461 0.5000033974647522 46.13756561279297 0.5000033974647522 C 46.96555709838867 0.5000033974647522 47.73069763183594 0.9776533842086792 48.08685684204102 1.716873407363892 L 53.44535827636719 12.74221324920654 L 53.56080627441406 12.9797534942627 L 53.82208633422852 13.01830387115479 L 65.79581451416016 14.78478336334229 C 66.60905456542969 14.90677356719971 67.27610778808594 15.47025299072266 67.53547668457031 16.25515365600586 C 67.79019927978516 17.02603340148926 67.5802001953125 17.89438247680664 67.00048065185547 18.46737289428711 L 58.31788635253906 27.05831336975098 L 58.13315582275391 27.2410831451416 L 58.17658615112305 27.4973030090332 L 60.23469543457031 39.63766479492188 C 60.37058639526367 40.4530029296875 60.03500747680664 41.26591491699219 59.35869598388672 41.75777435302734 C 58.99069595336914 42.02541351318359 58.55421829223633 42.16687393188477 58.09641647338867 42.16687393188477 Z" stroke="none"/>
        <path d="M 46.13756561279297 1.000003814697266 C 45.49584579467773 1.000003814697266 44.9202880859375 1.360382080078125 44.63722610473633 1.936962127685547 L 39.04858779907227 13.43579292297363 L 26.56302642822266 15.27907371520996 C 25.94022369384766 15.37249374389648 25.41510009765625 15.81427383422852 25.22517395019531 16.4045524597168 C 25.03199768066406 17.00496292114258 25.19265747070312 17.67508316040039 25.63485717773438 18.11213302612305 L 34.68640518188477 27.06814384460449 L 32.5505256652832 39.71850204467773 C 32.44655609130859 40.34229278564453 32.71004867553711 40.98250198364258 33.22180557250977 41.34952163696289 C 33.50881576538086 41.55537414550781 33.84783554077148 41.6641731262207 34.20221710205078 41.6641731262207 C 34.47526550292969 41.6641731262207 34.74719619750977 41.59682464599609 34.98439788818359 41.47165298461914 L 46.14589691162109 35.5124626159668 L 57.30315780639648 41.46940231323242 C 57.54793548583984 41.59859466552734 57.82223510742188 41.66687393188477 58.09641647338867 41.66687393188477 C 58.44784545898438 41.66687393188477 58.78263854980469 41.5584831237793 59.06460571289062 41.3534049987793 C 59.58677673339844 40.97365188598633 59.8460578918457 40.34719467163086 59.74173736572266 39.72123336791992 L 57.59675598144531 27.06844329833984 L 66.64898681640625 18.11175346374512 C 67.09471893310547 17.67120361328125 67.25633239746094 17.00401306152344 67.06072998046875 16.41203308105469 C 66.86087036132812 15.80722427368164 66.34729766845703 15.37310409545898 65.72282409667969 15.27942276000977 L 53.22654724121094 13.43585395812988 L 47.63640594482422 1.933895111083984 C 47.36306762695312 1.366584777832031 46.77473831176758 1.000003814697266 46.13756561279297 1.000003814697266 M 46.13756561279297 3.814697265625e-06 C 47.16245651245117 3.814697265625e-06 48.09568786621094 0.5832748413085938 48.53729629516602 1.499843597412109 L 53.89505767822266 12.52365303039551 L 65.8687744140625 14.29013252258301 C 66.86867523193359 14.44012260437012 67.69358825683594 15.14004325866699 68.01022338867188 16.09827423095703 C 68.32685852050781 17.05650329589844 68.06853485107422 18.11472320556641 67.35194396972656 18.82298278808594 L 58.6695556640625 27.41373443603516 L 60.72766876220703 39.55409240722656 C 60.89431762695312 40.55398178100586 60.47768783569336 41.56221389770508 59.65277862548828 42.16214370727539 C 58.82787322998047 42.7620849609375 57.73632431030273 42.82874298095703 56.83640670776367 42.35379409790039 L 46.14589691162109 36.64606475830078 L 35.45537567138672 42.35379409790039 C 34.55547332763672 42.82874298095703 33.46391296386719 42.75375366210938 32.63900756835938 42.16214370727539 C 31.8140983581543 41.5705451965332 31.39747619628906 40.55398178100586 31.56413650512695 39.55409240722656 L 33.61390686035156 27.41373443603516 L 24.93150329589844 18.82298278808594 C 24.21490478515625 18.11472320556641 23.96493530273438 17.05650329589844 24.27323913574219 16.09827423095703 C 24.58153533935547 15.14004325866699 25.41477966308594 14.44012260437012 26.41468048095703 14.29013252258301 L 38.38005828857422 12.52365303039551 L 43.73782730102539 1.499843597412109 C 44.18777847290039 0.5832748413085938 45.11266708374023 3.814697265625e-06 46.13756561279297 3.814697265625e-06 Z" stroke="none" fill="#5d93ff"/>
      </g>
      <g id="star-solid-13" data-name="star-solid" transform="translate(168.856 1010)" fill="#598dff">
        <path d="M 58.09641647338867 42.16687393188477 C 57.74120712280273 42.16686248779297 57.38620758056641 42.07859420776367 57.06978607177734 41.91160202026367 L 46.38138580322266 36.20500183105469 L 46.14589691162109 36.07927322387695 L 45.91040802001953 36.20500183105469 L 35.21988677978516 41.91272354125977 C 34.90892791748047 42.07683181762695 34.55629730224609 42.1641731262207 34.20221710205078 42.1641731262207 C 33.74266815185547 42.1641731262207 33.30288696289062 42.02297210693359 32.9304084777832 41.75583267211914 C 32.26496505737305 41.27861404418945 31.92226600646973 40.4466438293457 32.05733871459961 39.63630294799805 L 34.10692596435547 27.49697303771973 L 34.1501579284668 27.24094390869141 L 33.965576171875 27.05831336975098 L 25.28316688537598 18.46756362915039 C 24.70834732055664 17.8994140625 24.49883651733398 17.02960395812988 24.74921607971191 16.25141334533691 C 24.99684715270996 15.48173332214355 25.6796875 14.90598297119141 26.48884773254395 14.78460311889648 L 38.45307540893555 13.0182933807373 L 38.71432876586914 12.97972297668457 L 38.82975769042969 12.74221324920654 L 44.18752670288086 1.718403339385986 C 44.55613708496094 0.9675434231758118 45.30367660522461 0.5000033974647522 46.13756561279297 0.5000033974647522 C 46.96555709838867 0.5000033974647522 47.73069763183594 0.9776533842086792 48.08685684204102 1.716873407363892 L 53.44535827636719 12.74221324920654 L 53.56080627441406 12.9797534942627 L 53.82208633422852 13.01830387115479 L 65.79581451416016 14.78478336334229 C 66.60905456542969 14.90677356719971 67.27610778808594 15.47025299072266 67.53547668457031 16.25515365600586 C 67.79019927978516 17.02603340148926 67.5802001953125 17.89438247680664 67.00048065185547 18.46737289428711 L 58.31788635253906 27.05831336975098 L 58.13315582275391 27.2410831451416 L 58.17658615112305 27.4973030090332 L 60.23469543457031 39.63766479492188 C 60.37058639526367 40.4530029296875 60.03500747680664 41.26591491699219 59.35869598388672 41.75777435302734 C 58.99069595336914 42.02541351318359 58.55421829223633 42.16687393188477 58.09641647338867 42.16687393188477 Z" stroke="none"/>
        <path d="M 46.13756561279297 1.000003814697266 C 45.49584579467773 1.000003814697266 44.9202880859375 1.360382080078125 44.63722610473633 1.936962127685547 L 39.04858779907227 13.43579292297363 L 26.56302642822266 15.27907371520996 C 25.94022369384766 15.37249374389648 25.41510009765625 15.81427383422852 25.22517395019531 16.4045524597168 C 25.03199768066406 17.00496292114258 25.19265747070312 17.67508316040039 25.63485717773438 18.11213302612305 L 34.68640518188477 27.06814384460449 L 32.5505256652832 39.71850204467773 C 32.44655609130859 40.34229278564453 32.71004867553711 40.98250198364258 33.22180557250977 41.34952163696289 C 33.50881576538086 41.55537414550781 33.84783554077148 41.6641731262207 34.20221710205078 41.6641731262207 C 34.47526550292969 41.6641731262207 34.74719619750977 41.59682464599609 34.98439788818359 41.47165298461914 L 46.14589691162109 35.5124626159668 L 57.30315780639648 41.46940231323242 C 57.54793548583984 41.59859466552734 57.82223510742188 41.66687393188477 58.09641647338867 41.66687393188477 C 58.44784545898438 41.66687393188477 58.78263854980469 41.5584831237793 59.06460571289062 41.3534049987793 C 59.58677673339844 40.97365188598633 59.8460578918457 40.34719467163086 59.74173736572266 39.72123336791992 L 57.59675598144531 27.06844329833984 L 66.64898681640625 18.11175346374512 C 67.09471893310547 17.67120361328125 67.25633239746094 17.00401306152344 67.06072998046875 16.41203308105469 C 66.86087036132812 15.80722427368164 66.34729766845703 15.37310409545898 65.72282409667969 15.27942276000977 L 53.22654724121094 13.43585395812988 L 47.63640594482422 1.933895111083984 C 47.36306762695312 1.366584777832031 46.77473831176758 1.000003814697266 46.13756561279297 1.000003814697266 M 46.13756561279297 3.814697265625e-06 C 47.16245651245117 3.814697265625e-06 48.09568786621094 0.5832748413085938 48.53729629516602 1.499843597412109 L 53.89505767822266 12.52365303039551 L 65.8687744140625 14.29013252258301 C 66.86867523193359 14.44012260437012 67.69358825683594 15.14004325866699 68.01022338867188 16.09827423095703 C 68.32685852050781 17.05650329589844 68.06853485107422 18.11472320556641 67.35194396972656 18.82298278808594 L 58.6695556640625 27.41373443603516 L 60.72766876220703 39.55409240722656 C 60.89431762695312 40.55398178100586 60.47768783569336 41.56221389770508 59.65277862548828 42.16214370727539 C 58.82787322998047 42.7620849609375 57.73632431030273 42.82874298095703 56.83640670776367 42.35379409790039 L 46.14589691162109 36.64606475830078 L 35.45537567138672 42.35379409790039 C 34.55547332763672 42.82874298095703 33.46391296386719 42.75375366210938 32.63900756835938 42.16214370727539 C 31.8140983581543 41.5705451965332 31.39747619628906 40.55398178100586 31.56413650512695 39.55409240722656 L 33.61390686035156 27.41373443603516 L 24.93150329589844 18.82298278808594 C 24.21490478515625 18.11472320556641 23.96493530273438 17.05650329589844 24.27323913574219 16.09827423095703 C 24.58153533935547 15.14004325866699 25.41477966308594 14.44012260437012 26.41468048095703 14.29013252258301 L 38.38005828857422 12.52365303039551 L 43.73782730102539 1.499843597412109 C 44.18777847290039 0.5832748413085938 45.11266708374023 3.814697265625e-06 46.13756561279297 3.814697265625e-06 Z" stroke="none" fill="#5d93ff"/>
      </g>
      <g id="star-solid-14" data-name="star-solid" transform="translate(214.856 1010)" fill="rgba(89,141,255,0)">
        <path d="M 34.6340446472168 39.39150238037109 L 36.57203674316406 27.91318321228027 L 36.83141708374023 26.37696266174316 L 35.72393798828125 25.28118324279785 L 27.51613998413086 17.16003608703613 L 38.81820678710938 15.49148368835449 L 40.38565826416016 15.2600736618042 L 41.0782585144043 13.83502292633057 L 46.1375617980957 3.42531681060791 L 51.19685745239258 13.83502292633057 L 51.8895378112793 15.26025295257568 L 53.45720672607422 15.49153327941895 L 64.76725006103516 17.16009902954102 L 56.55951690673828 25.28118324279785 L 55.45114517211914 26.37786293029785 L 55.71175765991211 27.91515350341797 L 57.65725708007812 39.39124298095703 L 47.558837890625 33.9996452331543 L 46.14589691162109 33.24526214599609 L 44.73295593261719 33.9996452331543 L 34.6340446472168 39.39150238037109 Z" stroke="none"/>
        <path d="M 46.13756942749023 10.28833770751953 L 42.39127349853516 17.99650192260742 L 33.89463043212891 19.25087547302246 L 40.04891967773438 25.34019660949707 L 38.60901260375977 33.86843490600586 L 46.14589691162109 29.84445571899414 L 53.67773818969727 33.86577606201172 L 52.23273086547852 25.34198570251465 L 58.38822555541992 19.25147819519043 L 49.88402557373047 17.99685668945312 L 46.13756942749023 10.28833770751953 M 46.13756561279297 -3.814697265625e-06 C 47.16246032714844 -3.814697265625e-06 48.09569549560547 0.5832672119140625 48.53729629516602 1.499843597412109 L 53.89506149291992 12.52365493774414 L 65.86878204345703 14.29013824462891 C 66.86867523193359 14.44011497497559 67.69358825683594 15.14004325866699 68.01022338867188 16.09827995300293 C 68.32685852050781 17.05650329589844 68.06853485107422 18.11472702026367 67.35195922851562 18.82298469543457 L 58.6695556640625 27.41372680664062 L 60.7276611328125 39.55409240722656 C 60.89431762695312 40.55398559570312 60.47768402099609 41.56221008300781 59.65277862548828 42.16215133666992 C 58.82787704467773 42.76207733154297 57.736328125 42.82875061035156 56.83640289306641 42.35378646850586 L 46.14589691162109 36.64606857299805 L 35.45537948608398 42.35378646850586 C 34.55545425415039 42.82875442504883 33.46391296386719 42.75374603271484 32.63900375366211 42.16215133666992 C 31.8140983581543 41.57054901123047 31.3974723815918 40.55398559570312 31.56413269042969 39.55409240722656 L 33.61390686035156 27.41372680664062 L 24.93149566650391 18.82298469543457 C 24.21491241455078 18.11472702026367 23.96493530273438 17.05650329589844 24.27323913574219 16.09827995300293 C 24.58154296875 15.14004325866699 25.41477966308594 14.44011497497559 26.4146728515625 14.29013824462891 L 38.38006210327148 12.52365493774414 L 43.73782730102539 1.499843597412109 C 44.18777847290039 0.5832672119140625 45.11267471313477 -3.814697265625e-06 46.13756561279297 -3.814697265625e-06 Z" stroke="none" fill="#5d93ff"/>
      </g>
      <g id="star-solid-15" data-name="star-solid" transform="translate(260.856 1010)" fill="rgba(89,141,255,0)">
        <path d="M 34.6340446472168 39.39150238037109 L 36.57203674316406 27.91318321228027 L 36.83141708374023 26.37696266174316 L 35.72393798828125 25.28118324279785 L 27.51613998413086 17.16003608703613 L 38.81820678710938 15.49148368835449 L 40.38565826416016 15.2600736618042 L 41.0782585144043 13.83502292633057 L 46.1375617980957 3.42531681060791 L 51.19685745239258 13.83502292633057 L 51.8895378112793 15.26025295257568 L 53.45720672607422 15.49153327941895 L 64.76725006103516 17.16009902954102 L 56.55951690673828 25.28118324279785 L 55.45114517211914 26.37786293029785 L 55.71175765991211 27.91515350341797 L 57.65725708007812 39.39124298095703 L 47.558837890625 33.9996452331543 L 46.14589691162109 33.24526214599609 L 44.73295593261719 33.9996452331543 L 34.6340446472168 39.39150238037109 Z" stroke="none"/>
        <path d="M 46.13756942749023 10.28833770751953 L 42.39127349853516 17.99650192260742 L 33.89463043212891 19.25087547302246 L 40.04891967773438 25.34019660949707 L 38.60901260375977 33.86843490600586 L 46.14589691162109 29.84445571899414 L 53.67773818969727 33.86577606201172 L 52.23273086547852 25.34198570251465 L 58.38822555541992 19.25147819519043 L 49.88402557373047 17.99685668945312 L 46.13756942749023 10.28833770751953 M 46.13756561279297 -3.814697265625e-06 C 47.16246032714844 -3.814697265625e-06 48.09569549560547 0.5832672119140625 48.53729629516602 1.499843597412109 L 53.89506149291992 12.52365493774414 L 65.86878204345703 14.29013824462891 C 66.86867523193359 14.44011497497559 67.69358825683594 15.14004325866699 68.01022338867188 16.09827995300293 C 68.32685852050781 17.05650329589844 68.06853485107422 18.11472702026367 67.35195922851562 18.82298469543457 L 58.6695556640625 27.41372680664062 L 60.7276611328125 39.55409240722656 C 60.89431762695312 40.55398559570312 60.47768402099609 41.56221008300781 59.65277862548828 42.16215133666992 C 58.82787704467773 42.76207733154297 57.736328125 42.82875061035156 56.83640289306641 42.35378646850586 L 46.14589691162109 36.64606857299805 L 35.45537948608398 42.35378646850586 C 34.55545425415039 42.82875442504883 33.46391296386719 42.75374603271484 32.63900375366211 42.16215133666992 C 31.8140983581543 41.57054901123047 31.3974723815918 40.55398559570312 31.56413269042969 39.55409240722656 L 33.61390686035156 27.41372680664062 L 24.93149566650391 18.82298469543457 C 24.21491241455078 18.11472702026367 23.96493530273438 17.05650329589844 24.27323913574219 16.09827995300293 C 24.58154296875 15.14004325866699 25.41477966308594 14.44011497497559 26.4146728515625 14.29013824462891 L 38.38006210327148 12.52365493774414 L 43.73782730102539 1.499843597412109 C 44.18777847290039 0.5832672119140625 45.11267471313477 -3.814697265625e-06 46.13756561279297 -3.814697265625e-06 Z" stroke="none" fill="#5d93ff"/>
      </g>
    </g>
    <line id="line_806" data-name="line 806" x2="860" transform="translate(110.5 793.5)" fill="none" stroke="#edeef0" stroke-width="10" stroke-dasharray="20 10"/>
    <line id="line_807" data-name="line 807" y2="259" transform="translate(540.5 460.5)" fill="none" stroke="#edeef0" stroke-width="4"/>
  </g>
</svg>
