<svg xmlns="http://www.w3.org/2000/svg" xmlns:xlink="http://www.w3.org/1999/xlink" width="367.24" height="336.741" viewBox="0 0 367.24 336.741">
  <defs>
    <clipPath id="clip-path">
      <rect id="사각형_3349" data-name="사각형 3349" width="367.24" height="336.741" fill="none"/>
    </clipPath>
  </defs>
  <g id="_03_bg_수막새" data-name="[03]bg_수막새" transform="translate(0)">
    <g id="그룹_3588" data-name="그룹 3588" transform="translate(0 0)">
      <g id="그룹_3558" data-name="그룹 3558" transform="translate(0 0)">
        <g id="그룹_3557" data-name="그룹 3557" clip-path="url(#clip-path)">
          <path id="패스_9646" data-name="패스 9646" d="M72.616,71.817A141.118,141.118,0,1,0,265.16,124.308q-2.386-4.176-5.018-8.119L365.976,1.5,238.408,90.641A141.176,141.176,0,0,0,72.616,71.817" transform="translate(-0.118 -0.117)" fill="#cdff99"/>
          <path id="패스_9647" data-name="패스 9647" d="M72.616,71.817A141.118,141.118,0,1,0,265.16,124.308q-2.386-4.176-5.018-8.119L365.976,1.5,238.408,90.641A141.176,141.176,0,0,0,72.616,71.817Z" transform="translate(-0.118 -0.117)" fill="none" stroke="#000" stroke-linecap="round" stroke-linejoin="round" stroke-width="3"/>
          <path id="패스_9648" data-name="패스 9648" d="M185.151,173.92q.166,9.96-4.3,16.877t-14.43,15.021a11.662,11.662,0,0,0-4.388,8.944v7.594q0,6.247-5.231,8.945a11.286,11.286,0,0,1-10.549.168,8.81,8.81,0,0,1-5.316-8.606v-8.439q0-12.316,9.789-20.589,4.722-3.88,6.413-5.4a26.571,26.571,0,0,0,4.051-5.232,13.5,13.5,0,0,0,2.361-7.257A9.306,9.306,0,0,0,160.6,168.6a10.007,10.007,0,0,0-6.836-2.616q-13,0-13.164,12.32a8.083,8.083,0,0,1-3.29,6.75,11.512,11.512,0,0,1-7.172,2.532,10.122,10.122,0,0,1-6.92-2.7q-3.037-2.7-2.869-7.763a27.292,27.292,0,0,1,5.823-16.623,29.939,29.939,0,0,1,12.4-9.536,41.819,41.819,0,0,1,14.345-2.868q12.992-.167,22.529,6.665t9.7,19.155M162.03,242.1a12.454,12.454,0,0,1,4.051,9.62,12.981,12.981,0,0,1-4.051,9.789,13.841,13.841,0,0,1-9.957,3.882,14.127,14.127,0,0,1-10.041-3.882,12.841,12.841,0,0,1-4.135-9.789,12.324,12.324,0,0,1,4.135-9.62,14.5,14.5,0,0,1,10.041-3.713,14.205,14.205,0,0,1,9.957,3.713" transform="translate(-9.432 -11.608)" fill="#fff"/>
          <path id="패스_9649" data-name="패스 9649" d="M185.151,173.92q.166,9.96-4.3,16.877t-14.43,15.021a11.662,11.662,0,0,0-4.388,8.944v7.594q0,6.247-5.231,8.945a11.286,11.286,0,0,1-10.549.168,8.81,8.81,0,0,1-5.316-8.606v-8.439q0-12.316,9.789-20.589,4.722-3.88,6.413-5.4a26.571,26.571,0,0,0,4.051-5.232,13.5,13.5,0,0,0,2.361-7.257A9.306,9.306,0,0,0,160.6,168.6a10.007,10.007,0,0,0-6.836-2.616q-13,0-13.164,12.32a8.083,8.083,0,0,1-3.29,6.75,11.512,11.512,0,0,1-7.172,2.532,10.122,10.122,0,0,1-6.92-2.7q-3.037-2.7-2.869-7.763a27.292,27.292,0,0,1,5.823-16.623,29.939,29.939,0,0,1,12.4-9.536,41.819,41.819,0,0,1,14.345-2.868q12.992-.167,22.529,6.665T185.151,173.92ZM162.03,242.1a12.454,12.454,0,0,1,4.051,9.62,12.981,12.981,0,0,1-4.051,9.789,13.841,13.841,0,0,1-9.957,3.882,14.127,14.127,0,0,1-10.041-3.882,12.841,12.841,0,0,1-4.135-9.789,12.324,12.324,0,0,1,4.135-9.62,14.5,14.5,0,0,1,10.041-3.713A14.205,14.205,0,0,1,162.03,242.1Z" transform="translate(-9.432 -11.608)" fill="none" stroke="#999" stroke-linecap="round" stroke-linejoin="round" stroke-width="1"/>
        </g>
      </g>
    </g>
  </g>
</svg>
