<svg id="_03_bg_암막새" data-name="[03]bg_암막새" xmlns="http://www.w3.org/2000/svg" xmlns:xlink="http://www.w3.org/1999/xlink" width="285.001" height="433.468" viewBox="0 0 285.001 433.468">
  <defs>
    <clipPath id="clip-path">
      <rect id="사각형_3350" data-name="사각형 3350" width="285.001" height="433.468" fill="none"/>
    </clipPath>
  </defs>
  <g id="그룹_3560" data-name="그룹 3560" transform="translate(0 0)">
    <g id="그룹_3559" data-name="그룹 3559" clip-path="url(#clip-path)">
      <path id="패스_9650" data-name="패스 9650" d="M283.736,142.617A141.118,141.118,0,1,0,142.618,283.735c3.206,0,6.385-.117,9.539-.327l47.055,148.8-14.09-154.988a141.176,141.176,0,0,0,98.613-134.6" transform="translate(-0.118 -0.118)" fill="#b3fdff"/>
      <path id="패스_9651" data-name="패스 9651" d="M283.736,142.617A141.118,141.118,0,1,0,142.618,283.735c3.206,0,6.385-.117,9.539-.327l47.055,148.8-14.09-154.988A141.176,141.176,0,0,0,283.736,142.617Z" transform="translate(-0.118 -0.118)" fill="none" stroke="#000" stroke-linecap="round" stroke-linejoin="round" stroke-width="3"/>
      <path id="패스_9652" data-name="패스 9652" d="M185.861,109.655q.166,9.96-4.3,16.877t-14.43,15.021a11.662,11.662,0,0,0-4.388,8.944v7.594q0,6.247-5.231,8.945a11.286,11.286,0,0,1-10.549.168,8.81,8.81,0,0,1-5.316-8.606v-8.439q0-12.316,9.789-20.589,4.722-3.88,6.413-5.4a26.571,26.571,0,0,0,4.051-5.232,13.5,13.5,0,0,0,2.361-7.257,9.306,9.306,0,0,0-2.952-7.342,10.007,10.007,0,0,0-6.836-2.616q-13,0-13.164,12.32a8.083,8.083,0,0,1-3.29,6.75,11.512,11.512,0,0,1-7.172,2.532,10.122,10.122,0,0,1-6.92-2.7q-3.037-2.7-2.869-7.763a27.292,27.292,0,0,1,5.823-16.623,29.939,29.939,0,0,1,12.4-9.536,41.819,41.819,0,0,1,14.345-2.868q12.992-.167,22.529,6.665t9.7,19.155M162.74,177.836a12.454,12.454,0,0,1,4.051,9.62,12.98,12.98,0,0,1-4.051,9.789,13.841,13.841,0,0,1-9.957,3.882,14.127,14.127,0,0,1-10.041-3.882,12.84,12.84,0,0,1-4.135-9.789,12.324,12.324,0,0,1,4.135-9.62,14.5,14.5,0,0,1,10.041-3.713,14.205,14.205,0,0,1,9.957,3.713" transform="translate(-9.488 -6.571)" fill="#fff"/>
      <path id="패스_9653" data-name="패스 9653" d="M185.861,109.655q.166,9.96-4.3,16.877t-14.43,15.021a11.662,11.662,0,0,0-4.388,8.944v7.594q0,6.247-5.231,8.945a11.286,11.286,0,0,1-10.549.168,8.81,8.81,0,0,1-5.316-8.606v-8.439q0-12.316,9.789-20.589,4.722-3.88,6.413-5.4a26.571,26.571,0,0,0,4.051-5.232,13.5,13.5,0,0,0,2.361-7.257,9.306,9.306,0,0,0-2.952-7.342,10.007,10.007,0,0,0-6.836-2.616q-13,0-13.164,12.32a8.083,8.083,0,0,1-3.29,6.75,11.512,11.512,0,0,1-7.172,2.532,10.122,10.122,0,0,1-6.92-2.7q-3.037-2.7-2.869-7.763a27.292,27.292,0,0,1,5.823-16.623,29.939,29.939,0,0,1,12.4-9.536,41.819,41.819,0,0,1,14.345-2.868q12.992-.167,22.529,6.665T185.861,109.655ZM162.74,177.836a12.454,12.454,0,0,1,4.051,9.62,12.98,12.98,0,0,1-4.051,9.789,13.841,13.841,0,0,1-9.957,3.882,14.127,14.127,0,0,1-10.041-3.882,12.84,12.84,0,0,1-4.135-9.789,12.324,12.324,0,0,1,4.135-9.62,14.5,14.5,0,0,1,10.041-3.713A14.205,14.205,0,0,1,162.74,177.836Z" transform="translate(-9.488 -6.571)" fill="none" stroke="#999" stroke-linecap="round" stroke-linejoin="round" stroke-width="1"/>
    </g>
  </g>
</svg>
