<?xml version="1.0" encoding="UTF-8"?>
<svg id="_레이어_2" data-name="레이어 2" xmlns="http://www.w3.org/2000/svg" width="122.8" height="84.9" viewBox="0 0 122.8 84.9">
  <g id="text">
    <g>
      <rect x="0" y="4" width="122.8" height="80.9" rx="32.7" ry="32.7" fill="#4a4b59" stroke-width="0"/>
      <rect x="0" y="0" width="122.8" height="80.9" rx="32.7" ry="32.7" fill="#73748d" stroke-width="0"/>
      <g>
        <g>
          <path d="m66.8,72c-3.2,0-6.4-1.3-8.6-3.7-2.1-2.3-3.3-5.3-3.2-8.4,0-3,1.3-5.7,3.3-7.8l-20.7-.7c-6.5-.2-11.6-5.6-11.4-12.1.2-6.3,5.5-11.4,11.7-11.4s.3,0,.4,0l22.1.7-1-1.1c-4.4-4.7-4.2-12.2.5-16.6,2.2-2,5-3.2,8-3.2s6.4,1.3,8.6,3.7l19.6,20.9c1.3,1.3,2.2,2.9,2.7,4.7,1.4,4.3.1,9-3.2,12.1l-20.9,19.6c-2.2,2-5,3.2-8,3.2h0Z" fill="#fff" stroke-width="0"/>
          <path d="m68,10.1c2.5,0,5.1,1,6.9,3l19.6,20.9c1,1.1,1.8,2.4,2.2,3.8,1.1,3.4.2,7.3-2.5,9.9l-20.9,19.6c-1.8,1.7-4.2,2.6-6.5,2.6s-5.1-1-6.9-3c-3.6-3.8-3.4-9.9.4-13.4l3.5-3.3-26.1-.9c-5.2-.2-9.4-4.6-9.2-9.8.2-5.1,4.4-9.2,9.5-9.2.1,0,.2,0,.3,0l27.5.9-4.7-5.1c-3.6-3.8-3.4-9.9.4-13.4,1.8-1.7,4.2-2.6,6.5-2.6m0-4.5c-3.6,0-7,1.3-9.6,3.8-2.7,2.5-4.3,6-4.4,9.7,0,2.6.5,5,1.7,7.2l-17.3-.6c-.2,0-.3,0-.5,0-7.5,0-13.7,6.1-14,13.5-.3,7.7,5.8,14.2,13.5,14.4l16.7.5c-.8,1.7-1.3,3.6-1.4,5.6-.1,3.7,1.2,7.3,3.8,10,2.6,2.8,6.3,4.4,10.2,4.4s7-1.3,9.6-3.8l20.9-19.6c3.9-3.7,5.4-9.3,3.8-14.4-.6-2.1-1.7-4-3.2-5.6l-19.6-20.9c-2.6-2.8-6.3-4.4-10.2-4.4h0Z" fill="#73748d" stroke-width="0"/>
        </g>
        <g>
          <path d="m67.9,73.1c-3.2,0-6.4-1.3-8.6-3.7-4.3-4.6-4.2-11.7.1-16.2l-20.7-.7c-3.1-.1-6-1.4-8.2-3.7s-3.3-5.3-3.2-8.4c.2-6.3,5.5-11.4,11.7-11.4s.3,0,.4,0l22.1.7-1-1.1c-4.4-4.7-4.2-12.2.5-16.6,2.2-2,5-3.2,8-3.2s6.4,1.3,8.6,3.7l19.6,20.9c1.3,1.3,2.2,2.9,2.7,4.7,1.4,4.3.1,9-3.2,12.1l-20.9,19.6c-2.2,2-5,3.2-8,3.2h0Z" fill="#fff" stroke-width="0"/>
          <path d="m69.1,11.1c2.5,0,5.1,1,6.9,3l19.6,20.9c1,1.1,1.8,2.4,2.2,3.8,1.1,3.4.2,7.3-2.5,9.9l-20.9,19.6c-1.8,1.7-4.2,2.6-6.5,2.6s-5.1-1-6.9-3c-3.6-3.8-3.4-9.9.4-13.4l3.5-3.3-26.1-.9c-5.2-.2-9.4-4.6-9.2-9.8.2-5.1,4.4-9.2,9.5-9.2.1,0,.2,0,.3,0l27.5.9-4.7-5.1c-3.6-3.8-3.4-9.9.4-13.4,1.8-1.7,4.2-2.6,6.5-2.6m0-4.5c-3.6,0-7,1.3-9.6,3.8-4.8,4.5-5.7,11.5-2.7,16.9l-17.3-.6c-.2,0-.3,0-.5,0-7.5,0-13.7,6.1-14,13.5-.3,7.7,5.8,14.2,13.5,14.4l16.7.5c-2.4,5.1-1.7,11.3,2.4,15.6,2.6,2.8,6.3,4.4,10.2,4.4s7-1.3,9.6-3.8l20.9-19.6c3.9-3.7,5.4-9.3,3.8-14.4-.6-2.1-1.7-4-3.2-5.6l-19.6-20.9c-2.6-2.8-6.3-4.4-10.2-4.4h0Z" fill="#73748d" stroke-width="0"/>
        </g>
      </g>
    </g>
  </g>
</svg>